<svg width="552" height="481" fill="none" xmlns="http://www.w3.org/2000/svg"><path d="M14.711 409.301H1.47m549.636 0H35.656" stroke="#263238" stroke-width="1.113" stroke-miterlimit="10"/><path d="M357.173 464.666c24.211 0 43.839-5.4 43.839-12.06s-19.628-12.06-43.839-12.06c-24.212 0-43.839 5.4-43.839 12.06s19.627 12.06 43.839 12.06z" fill="#263238"/><path d="M130.592 480c-45.628 0-52.365-6.592-53.028-11.915a7.212 7.212 0 012.077-6.102c12.29-12.897 83.119-7.444 181.126.101a17413.88 17413.88 0 0042.31 3.216c99.03 7.357 138.902 6.405 147.139-3.548 1.674-2.034 2.02-4.573 1.097-8.006-3.924-14.354-56.375-14.426-76.239-13.301a1.73 1.73 0 01-1.818-1.615 1.717 1.717 0 01.432-1.239 1.698 1.698 0 011.184-.564c7.602-.448 74.392-3.809 79.744 15.868 1.226 4.529.664 8.15-1.76 11.093-9.247 11.223-47.099 12.42-150.025 4.775a17431.909 17431.909 0 01-42.324-3.217c-93.419-7.213-167.22-12.882-178.385-1.154a3.821 3.821 0 00-1.154 3.303c.418 3.405 8.656 11.021 75.012 8.367 37.117-1.443 74.407-5.525 74.782-5.568a1.718 1.718 0 011.776 1.527 1.718 1.718 0 01-1.401 1.877c-.375 0-37.78 4.097-75.012 5.583-9.579.346-18.061.519-25.533.519z" fill="#fff" stroke="#263238" stroke-width="1.113" stroke-miterlimit="10"/><path d="M340.87 463.194c28.53 0 51.658-23.128 51.658-51.657 0-28.53-23.128-51.658-51.658-51.658-28.529 0-51.657 23.128-51.657 51.658 0 28.529 23.128 51.657 51.657 51.657z" fill="#fff"/><path d="M340.87 463.194a51.645 51.645 0 0051.594-54.573 51.65 51.65 0 00-8.923-26.209c-.563 22.504-12.983 55.725-77.58 67.15a51.453 51.453 0 0034.909 13.632z" fill="#C6B5DD"/><path opacity=".3" d="M340.87 463.194a51.645 51.645 0 0051.594-54.573 51.65 51.65 0 00-8.923-26.209c-.563 22.504-12.983 55.725-77.58 67.15a51.453 51.453 0 0034.909 13.632z" fill="#fff"/><path d="M366.288 431.79a82.141 82.141 0 000 0h2.741a94.868 94.868 0 0015.565-20.282c-24.192-25.562-47.72-22.951-47.72-22.951s23.6-2.611 47.792 22.98a80.164 80.164 0 003.347-6.679c-10.069-14.108-27.409-23.73-36.713-25.173l-2.164-.519a30.642 30.642 0 000 0l6.16-17.31a51.62 51.62 0 00-8.901-1.717c-3.996 6.448-14.281 27.048-14.281 67.915 0-40.867 10.285-61.467 14.281-67.915a56.952 56.952 0 00-5.236-.26 52.097 52.097 0 00-5.843.347c-6.087 9.203-17.728 30.942-18.507 63.572 12.074 4.4 28.23 7.689 49.479 7.992zm11.67-10.516c-20.571-20.051-43.276-21.104-43.276-21.104s22.705 1.053 43.276 21.104v0z" stroke="#263238" stroke-width="1.113" stroke-linecap="round" stroke-linejoin="round"/><path d="M316.75 423.885c.779-32.63 12.421-54.369 18.508-63.573a51.719 51.719 0 00-13.863 3.549A102.964 102.964 0 00303.58 418.1a94 94 0 0013.17 5.785z" stroke="#263238" stroke-width="1.113" stroke-linecap="round" stroke-linejoin="round"/><path d="M321.397 363.817a51.765 51.765 0 00-31.909 44.315 66.504 66.504 0 0014.094 9.925 102.965 102.965 0 0117.815-54.24v0zm66.545 41.041a63.72 63.72 0 002.885-7.646 51.925 51.925 0 00-11.006-19.878l-3.996 13.329 3.924-13.329a51.964 51.964 0 00-10.892-9.261l-4.399 16.459 4.428-16.387a51.153 51.153 0 00-13.646-6.131l-6.16 17.311c9.434 1.356 24.018 6.91 38.862 25.533z" stroke="#263238" stroke-width="1.113" stroke-linecap="round" stroke-linejoin="round"/><path d="M392.803 413.975v-2.251c0-4.911-.7-9.797-2.077-14.512a63.72 63.72 0 01-2.885 7.646 32.73 32.73 0 01-2.193 4.414c.087.087-1.24 2.178-1.154 2.265.087.086-1.442 2.596-1.442 2.51-3.434 6.102-13.791 17.786-13.618 17.786-.173 0-5.597 4.92-8.554 7.401a142.526 142.526 0 01-17.152 12.189h.375-.375a179.146 179.146 0 01-18.306 9.665 51.943 51.943 0 0015.594 2.395h2.596c10.574-5.756 27.38-18.883 49.191-49.508z" stroke="#263238" stroke-width="1.113" stroke-linecap="round" stroke-linejoin="round"/><path d="M392.803 413.975c-21.811 30.625-38.616 43.752-49.104 49.378a51.758 51.758 0 0049.104-49.378v0zm-92.151 30.005a51.73 51.73 0 0024.855 17.108 178.937 178.937 0 0018.306-9.665c-12.319 2.279-31.591-3.375-43.161-7.443z" stroke="#263238" stroke-width="1.113" stroke-linecap="round" stroke-linejoin="round"/><path d="M343.814 451.423a142.526 142.526 0 0017.152-12.189c-37.203 3.808-60.154-7.718-69.905-14.267a51.572 51.572 0 009.593 19.013c11.569 4.068 30.841 9.722 43.16 7.443z" stroke="#263238" stroke-width="1.113" stroke-linecap="round" stroke-linejoin="round"/><path d="M360.966 439.234a121.213 121.213 0 008.064-7.415h-2.741c.202.188.404.375.592.577-.188-.202-.39-.389-.592-.577-21.249-.303-37.405-3.592-49.537-7.905-17.729-6.145-24.119-12.752-27.264-15.709a48.03 48.03 0 00-.144 3.548c.001 4.47.578 8.921 1.716 13.243 9.752 6.52 32.703 18.046 69.906 14.238z" stroke="#263238" stroke-width="1.113" stroke-linecap="round" stroke-linejoin="round"/><path d="M340.87 463.194c28.53 0 51.658-23.128 51.658-51.657 0-28.53-23.128-51.658-51.658-51.658-28.529 0-51.657 23.128-51.657 51.658 0 28.529 23.128 51.657 51.657 51.657z" stroke="#263238" stroke-width="1.113" stroke-linecap="round" stroke-linejoin="round"/><path d="M249.095 354.124c-32.111 0-51.412-28.491-58.264-53.548l-.231-.88a9.444 9.444 0 01.812-7.338 9.434 9.434 0 0117.436 2.592l.174.65c5.207 19.07 19.387 40.867 42.136 39.612a30.526 30.526 0 0022.331-10.891c12.478-14.31 18.06-45.426 16.82-61.121a7.528 7.528 0 011.664-5.662 7.537 7.537 0 018.22-2.367 7.552 7.552 0 014.42 3.909c.436.916.684 1.91.727 2.923 1.443 17.469-.461 55.018-17.642 74.709a49.202 49.202 0 01-35.472 17.311 46.044 46.044 0 01-3.131.101z" fill="#fff"/><path d="M297.219 255.079a7.545 7.545 0 00-6.91 8.121c.606 7.66-.418 18.984-3.073 30.293a33.36 33.36 0 0111.209 1.443 59.667 59.667 0 01-11.021 30.106c-14.007 19.46-35.011 25.677-51.355 23.34-7.313-1.038-15.695-4.875-22.749-8.814a51.34 51.34 0 0035.775 14.584c1.025 0 2.078 0 3.131-.086a49.203 49.203 0 0035.472-17.311c17.181-19.69 19.027-57.24 17.642-74.709a7.528 7.528 0 00-8.121-6.967z" fill="#C6B5DD"/><path opacity=".5" d="M297.219 255.079a7.545 7.545 0 00-6.91 8.121c.606 7.66-.418 18.984-3.073 30.293a33.36 33.36 0 0111.209 1.443 59.667 59.667 0 01-11.021 30.106c-14.007 19.46-35.011 25.677-51.355 23.34-7.313-1.038-15.695-4.875-22.749-8.814a51.34 51.34 0 0035.775 14.584c1.025 0 2.078 0 3.131-.086a49.203 49.203 0 0035.472-17.311c17.181-19.69 19.027-57.24 17.642-74.709a7.528 7.528 0 00-8.121-6.967z" fill="#fff"/><path d="M249.095 354.124c-32.111 0-51.412-28.491-58.264-53.548l-.231-.88a9.444 9.444 0 01.812-7.338 9.434 9.434 0 0117.436 2.592l.174.65c5.207 19.07 19.387 40.867 42.136 39.612a30.526 30.526 0 0022.331-10.891c12.478-14.31 18.06-45.426 16.82-61.121a7.528 7.528 0 011.664-5.662 7.537 7.537 0 018.22-2.367 7.552 7.552 0 014.42 3.909c.436.916.684 1.91.727 2.923 1.443 17.469-.461 55.018-17.642 74.709a49.202 49.202 0 01-35.472 17.311 46.044 46.044 0 01-3.131.101z" stroke="#263238" stroke-width="1.113" stroke-linecap="round" stroke-linejoin="round"/><path d="M230.572 334.606c.765-3.534-7.688 1.991-14.771 7.141a55.344 55.344 0 008.424 5.871c2.525-4.112 5.612-9.608 6.347-13.012zm18.522 19.518c1.024 0 2.077 0 3.13-.087a54.66 54.66 0 009.102-1.284c-3.981-5.193-9.463-12.059-11.035-12.579-1.803-.606-5.28 8.237-7.213 13.603a51.46 51.46 0 006.016.347zM209.022 295.6l-.174-.65a9.438 9.438 0 00-4.284-6.013 9.438 9.438 0 00-10.687.571 9.445 9.445 0 00-3.619 6.436 9.444 9.444 0 00.342 3.752l.231.88a92.456 92.456 0 0010.963 24.913l17.181-8.179a71.863 71.863 0 01-9.953-21.71zm78.678 41.112a48.547 48.547 0 003.664-4.818c-5.453-1.861-13.618-4.429-16.647-4.155-3.592.332 1.284 11.873 3.794 17.311a53.02 53.02 0 009.189-8.338zm.3-30.827c-.577 1.154 6.477 6.289 11.238 9.593a108.875 108.875 0 003.635-13.733c-5.77 1.154-14.31 3.015-14.873 4.14zm17.211-21.335c.317-4.112.476-8.035.49-11.642-4.962 2.727-10.847 6.506-10.847 8.987 0 2.482 5.51 2.785 10.357 2.655z" fill="#C6B5DD" stroke="#263238" stroke-width="1.113" stroke-linecap="round" stroke-linejoin="round"/><path d="M227.545 172.94s-14.007 40.564-6.462 72.127a61.686 61.686 0 0035.183 41.993s-20.469 7.212-15.868 18.306c4.602 11.093 22.245 3.952 28 .36 5.756-3.592 12.983-14.353 13.993-21.537.642-3.67.884-7.399.721-11.122 0 0 23.326-2.51 39.122-15.435 0 0 14.007 11.122 24.062 8.972 10.054-2.149 24.408-20.109 22.965-36.251-1.443-16.142-10.747-16.127-16.431-13.675a23.095 23.095 0 00-7.905 5.02s8.252-10.098 0-24.047a31.387 31.387 0 00-22.979-15.075s-4.328-22.979-17.224-31.591c-12.897-8.612-58.871-17.527-77.177 21.955z" fill="#fff"/><path d="M334.192 186.889a81.373 81.373 0 01-26.879 27.297 81.376 81.376 0 01-36.391 11.97c-28.563 2.51-44.575-3.116-51.932-7.026a183.248 183.248 0 018.655-46.161c18.306-39.483 64.251-30.51 77.177-21.898 12.925 8.612 17.224 31.592 17.224 31.592 4.3.54 8.439 1.98 12.146 4.226zm18.637 29.789a23.095 23.095 0 00-7.905 5.02 18.838 18.838 0 003.361-8.136c-19.402 9.665-17.887 30.294-20.296 30.294-2.972 0-4.443-10.372-4.443-10.372s-3.707 14.815-25.966 25.201c-22.258 10.386-47.431 2.221-47.431 2.221s5.193 11.858-8.15 10.372a22.031 22.031 0 01-10.43-3.808 61.767 61.767 0 0024.668 19.532s-20.47 7.213-15.868 18.306c4.601 11.093 22.258 3.952 28 .361 5.741-3.592 12.982-14.354 13.992-21.538.642-3.67.884-7.399.721-11.122 0 0 23.326-2.51 39.122-15.435 0 0 14.007 11.122 24.062 8.973 10.054-2.15 24.408-20.109 22.965-36.251-1.442-16.142-10.718-16.07-16.402-13.618z" fill="#C6B5DD"/><path opacity=".5" d="M334.192 186.889a81.373 81.373 0 01-26.879 27.297 81.376 81.376 0 01-36.391 11.97c-28.563 2.51-44.575-3.116-51.932-7.026a183.248 183.248 0 018.655-46.161c18.306-39.483 64.251-30.51 77.177-21.898 12.925 8.612 17.224 31.592 17.224 31.592 4.3.54 8.439 1.98 12.146 4.226zm18.637 29.789a23.095 23.095 0 00-7.905 5.02 18.838 18.838 0 003.361-8.136c-19.402 9.665-17.887 30.294-20.296 30.294-2.972 0-4.443-10.372-4.443-10.372s-3.707 14.815-25.966 25.201c-22.258 10.386-47.431 2.221-47.431 2.221s5.193 11.858-8.15 10.372a22.031 22.031 0 01-10.43-3.808 61.767 61.767 0 0024.668 19.532s-20.47 7.213-15.868 18.306c4.601 11.093 22.258 3.952 28 .361 5.741-3.592 12.982-14.354 13.992-21.538.642-3.67.884-7.399.721-11.122 0 0 23.326-2.51 39.122-15.435 0 0 14.007 11.122 24.062 8.973 10.054-2.15 24.408-20.109 22.965-36.251-1.442-16.142-10.718-16.07-16.402-13.618z" fill="#fff"/><path d="M283.182 273.096a50.673 50.673 0 01-40.608-18.623m-15.029-81.533s-14.007 40.564-6.462 72.127a61.686 61.686 0 0035.183 41.993s-20.469 7.212-15.868 18.306c4.602 11.093 22.245 3.952 28 .36 5.756-3.592 12.983-14.353 13.993-21.537.642-3.67.884-7.399.721-11.122 0 0 23.326-2.51 39.122-15.435 0 0 14.007 11.122 24.062 8.972 10.054-2.149 24.408-20.109 22.965-36.251-1.443-16.142-10.747-16.127-16.431-13.675a23.095 23.095 0 00-7.905 5.02s8.252-10.098 0-24.047a31.387 31.387 0 00-22.979-15.075s-4.328-22.979-17.224-31.591c-12.897-8.612-58.871-17.527-77.177 21.955zm117.38 48.816s-7.53 5.034-11.122 20.469" stroke="#263238" stroke-width="1.113" stroke-linecap="round" stroke-linejoin="round"/><path d="M358.759 228.363c-.88 2.625-3.289 4.197-5.366 3.491-2.077-.707-3.029-3.405-2.149-6.03.879-2.626 3.289-4.198 5.366-3.491 2.077.707 3.044 3.404 2.149 6.03zm7.428 4.673c-.88 2.626-3.289 4.198-5.366 3.491-2.077-.706-3.044-3.404-2.149-6.029.894-2.626 3.289-4.198 5.366-3.491 2.077.707 3.044 3.404 2.149 6.029z" fill="#fff" stroke="#263238" stroke-width="1.113" stroke-linecap="round" stroke-linejoin="round"/><path d="M367.776 240.033a2.966 2.966 0 01-2.833 1.436 2.972 2.972 0 111.26-5.764 3.346 3.346 0 011.573 4.328zm-9.478 9.607c-2.597 4.688-7.79 6.766-11.613 4.645-3.823-2.12-4.803-7.616-2.207-12.305 2.597-4.688 7.79-6.765 11.613-4.645 3.822 2.121 4.803 7.617 2.207 12.305z" fill="#fff" stroke="#263238" stroke-width="1.113" stroke-linecap="round" stroke-linejoin="round"/><path d="M256.266 287.089a21.642 21.642 0 0015.435 1.082m-31.23 17.223s1.442-6.102 10.4-10.4m-1.43 15.796s3.592-8.656 9.694-12.565" stroke="#263238" stroke-width="1.113" stroke-linecap="round" stroke-linejoin="round"/><path d="M164.23 145.982v32.542H139.9v38.32h-35.279v-38.32H0v-32.542L73.295 3.954h38.016L38.016 145.982h66.605V90.631H139.9v55.351h24.33zm162.429 44.707c-14.598 20.073-35.076 30.109-61.434 30.109-26.358 0-46.938-10.036-61.739-30.109-14.598-20.072-21.897-46.836-21.897-80.29 0-33.454 7.299-60.218 21.897-80.29C218.287 10.036 238.867 0 265.225 0c26.358 0 46.836 10.036 61.434 30.109 14.801 20.072 22.201 46.836 22.201 80.29 0 33.454-7.4 60.218-22.201 80.29zm-61.434-3.953c15.814 0 27.878-6.59 36.191-19.769 8.313-13.179 12.469-32.035 12.469-56.568s-4.156-43.39-12.469-56.568c-8.313-13.179-20.377-19.769-36.191-19.769-15.612 0-27.676 6.59-36.192 19.769-8.313 13.179-12.469 32.035-12.469 56.568s4.156 43.389 12.469 56.568c8.516 13.179 20.58 19.769 36.192 19.769zm266.99-40.754v32.542h-24.331v38.32h-35.279v-38.32h-104.62v-32.542L441.28 3.954h38.016l-73.295 142.028h66.604V90.631h35.279v55.351h24.331z" fill="#263238"/><path d="M198.465 152.485s-15.075 21.176-17.224 42.714c-2.15 21.537.36 35.89 6.823 41.285 6.463 5.395 12.911 3.231 16.503-1.803 3.592-5.034-2.15-22.619-2.15-22.619s6.102-16.863 15.436-28.707c9.333-11.843 11.122-13.646 11.122-13.646s-16.157-18.306-30.51-17.224z" fill="#fff"/><path d="M198.464 152.485a116.462 116.462 0 00-8.728 15.262c7.213 2.885 18.393 8.799 25.49 19.272a71.035 71.035 0 012.683-3.664c9.333-11.843 11.122-13.646 11.122-13.646s-16.214-18.306-30.567-17.224z" fill="#C6B5DD"/><path opacity=".5" d="M198.464 152.485a116.462 116.462 0 00-8.728 15.262c7.213 2.885 18.393 8.799 25.49 19.272a71.035 71.035 0 012.683-3.664c9.333-11.843 11.122-13.646 11.122-13.646s-16.214-18.306-30.567-17.224z" fill="#fff"/><path d="M198.465 152.485s-15.075 21.176-17.224 42.714c-2.15 21.537.36 35.89 6.823 41.285 6.463 5.395 12.911 3.231 16.503-1.803 3.592-5.034-2.15-22.619-2.15-22.619s6.102-16.863 15.436-28.707c9.333-11.843 11.122-13.646 11.122-13.646s-16.157-18.306-30.51-17.224zm-10.404 83.999a39.855 39.855 0 01-2.525-14.728m12.205 16.878s-3.578-6.102-3.938-16.518" stroke="#263238" stroke-width="1.113" stroke-linecap="round" stroke-linejoin="round"/><path d="M203.135 190.885c0-3.779-7.213-11.165-17.238-14.425a85.173 85.173 0 00-3.333 10.776 42.257 42.257 0 0111.238 3.592c5.381 2.928 9.333 4.371 9.333.057zm-5.55-37.116a120.957 120.957 0 00-6.405 10.977 34.51 34.51 0 018.655 3.607c11.122 6.448 13.271 7.213 9.694-2.164-2.164-5.886-7.328-9.881-11.944-12.42z" fill="#C6B5DD" stroke="#263238" stroke-width="1.113" stroke-linecap="round" stroke-linejoin="round"/><path d="M316.533 142.026s17.08 19.59 21.336 40.824c4.255 21.235 3.173 35.761-2.741 41.748-5.915 5.986-12.536 4.486-16.604-.174-4.068-4.659 0-22.705 0-22.705s-7.732-16.2-18.176-27.077c-10.444-10.876-12.42-12.478-12.42-12.478s14.209-19.806 28.605-20.138z" fill="#fff"/><path d="M316.535 142.026c-14.425.332-28.678 20.196-28.678 20.196s1.962 1.616 12.421 12.478a76.59 76.59 0 015.51 6.491 60.8 60.8 0 0122.605-22.07 117.589 117.589 0 00-11.858-17.095z" fill="#C6B5DD"/><path opacity=".5" d="M316.535 142.026c-14.425.332-28.678 20.196-28.678 20.196s1.962 1.616 12.421 12.478a76.59 76.59 0 015.51 6.491 60.8 60.8 0 0122.605-22.07 117.589 117.589 0 00-11.858-17.095z" fill="#fff"/><path d="M316.533 142.026s17.08 19.59 21.336 40.824c4.255 21.235 3.173 35.761-2.741 41.748-5.915 5.986-12.536 4.486-16.604-.174-4.068-4.659 0-22.705 0-22.705s-7.732-16.2-18.176-27.077c-10.444-10.876-12.42-12.478-12.42-12.478s14.209-19.806 28.605-20.138zm18.598 82.572a39.73 39.73 0 001.067-14.887m-10.501 17.974s2.986-6.42 2.323-16.82" stroke="#263238" stroke-width="1.113" stroke-linecap="round" stroke-linejoin="round"/><path d="M315.655 180.701c-.361-3.765 6.088-11.814 15.753-15.983a84.527 84.527 0 014.327 10.386 43.19 43.19 0 00-10.819 4.688c-5.049 3.39-8.828 5.15-9.261.909zm1.877-37.477a117.647 117.647 0 017.415 10.227 34.726 34.726 0 00-8.295 4.429c-10.43 7.53-12.507 8.453-9.853-1.183 1.659-6.015 6.391-10.502 10.733-13.473z" fill="#C6B5DD" stroke="#263238" stroke-width="1.113" stroke-linecap="round" stroke-linejoin="round"/><path d="M197.05 134.165s-4.443 14.988-2.77 21.09c1.674 6.101 9.434.562 17.21 7.212 7.775 6.65 14.973 18.652 44.416 20.874 29.442 2.221 47.214-13.661 53.374-22.547 6.159-8.886 5.554-19.431 16.099-19.979 10.545-.549 1.673-21.105-1.659-24.437 0 0 20.541-30.539 20.541-38.314 0-7.775-19.431-6.116-43.276 1.11 0 0-17.772-9.448-49.984-3.894s-41.646 15.002-41.646 15.002-39.988 4.992-42.757 9.983c-2.77 4.991 5.467 26.124 30.452 33.9z" fill="#fff"/><path d="M325.336 140.829c10.56-.563 1.674-21.104-1.659-24.437 0 0 3.91-5.77 8.309-12.983-11.929-6.231-23.643-9.693-26.759-6.188-6.708 7.53-3.058 21.955 0 36.064 3.058 14.108-9.16 20.123-17.7 32.327-8.54 12.204-20.729-1.226-20.729-1.226-4.328 17.7-22.576 6.102-22.576 6.102-14.022-4.328-37.809-18.292-32.933-28.058 4.876-9.766 6.102-18.911-2.438-26.831-8.54-7.92-42.599-14.512-42.599-14.512-1.788 6.015 6.853 25.721 30.813 33.178 0 0-4.443 14.989-2.769 21.09 1.673 6.102 9.434.563 17.209 7.213s14.974 18.652 44.416 20.874c29.442 2.221 47.214-13.661 53.374-22.547 6.16-8.886 5.482-19.518 16.041-20.066z" fill="#C6B5DD"/><path opacity=".5" d="M325.336 140.829c10.56-.563 1.674-21.104-1.659-24.437 0 0 3.91-5.77 8.309-12.983-11.929-6.231-23.643-9.693-26.759-6.188-6.708 7.53-3.058 21.955 0 36.064 3.058 14.108-9.16 20.123-17.7 32.327-8.54 12.204-20.729-1.226-20.729-1.226-4.328 17.7-22.576 6.102-22.576 6.102-14.022-4.328-37.809-18.292-32.933-28.058 4.876-9.766 6.102-18.911-2.438-26.831-8.54-7.92-42.599-14.512-42.599-14.512-1.788 6.015 6.853 25.721 30.813 33.178 0 0-4.443 14.989-2.769 21.09 1.673 6.102 9.434.563 17.209 7.213s14.974 18.652 44.416 20.874c29.442 2.221 47.214-13.661 53.374-22.547 6.16-8.886 5.482-19.518 16.041-20.066z" fill="#fff"/><path d="M281.901 144.176c.419 3.52-7.4 7.313-17.426 8.482-10.025 1.168-18.507-.736-18.926-4.328-.418-3.592 7.4-7.299 17.441-8.467 10.04-1.169 18.507.807 18.911 4.313z" fill="#C6B5DD"/><path opacity=".5" d="M281.901 144.176c.419 3.52-7.4 7.313-17.426 8.482-10.025 1.168-18.507-.736-18.926-4.328-.418-3.592 7.4-7.299 17.441-8.467 10.04-1.169 18.507.807 18.911 4.313z" fill="#fff"/><path d="M197.05 134.165s-4.443 14.988-2.77 21.09c1.674 6.101 9.434.562 17.21 7.212 7.775 6.65 14.973 18.652 44.416 20.874 29.442 2.221 47.214-13.661 53.374-22.547 6.159-8.886 5.554-19.431 16.099-19.979 10.545-.549 1.673-21.105-1.659-24.437 0 0 20.541-30.539 20.541-38.314 0-7.775-19.431-6.116-43.276 1.11 0 0-17.772-9.448-49.984-3.894s-41.646 15.002-41.646 15.002-39.988 4.992-42.757 9.983c-2.77 4.991 5.467 26.124 30.452 33.9z" stroke="#263238" stroke-width="1.113" stroke-miterlimit="10"/><path d="M311.905 89.734c-14.425 9.694-9.333 19.388-2.885 24.769 3.938 3.289 10.285 2.885 14.627 1.961 0 0 20.542-30.538 20.542-38.314.015-.072-17.931 1.818-32.284 11.584zm-145.666 11.252c-1.789 6.015 6.852 25.721 30.813 33.179 0 0 18.291-1.789 12.189-16.503-5.698-13.733-34.506-17.152-43.002-16.676zm84.673-25.677c-1.89.332-3.708.678-5.453 1.024 2.885 14.57 7.631 38.833 11.872 38.833s7.487-26.6 8.872-41.502c-5.128.216-10.235.765-15.291 1.645zm-16.543 35.53c4.414-2.597 3.75-22.115 3.044-32.703a118.5 118.5 0 00-13.431 4.198c1.602 9.91 5.67 31.274 10.387 28.505zm42.711-8.973c4.515 1.587 7.054-14.642 8.482-27.134a89.897 89.897 0 00-13.791-1.169c-.144 10.257.419 26.586 5.309 28.303z" fill="#C6B5DD" stroke="#263238" stroke-width="1.113" stroke-miterlimit="10"/><path d="M271.039 158.039a16.992 16.992 0 00-12.507 1.543 1.241 1.241 0 00-.231 1.976l7.66 7.213a1.235 1.235 0 001.088.312 1.244 1.244 0 00.888-.701l3.924-8.656a1.243 1.243 0 00-.352-1.446 1.224 1.224 0 00-.47-.241z" fill="#C6B5DD" stroke="#263238" stroke-width="1.113" stroke-linecap="round" stroke-linejoin="round"/><path d="M252.833 145.993c1.053 2.784.634 5.525-.938 6.117-1.572.591-3.707-1.169-4.775-3.938-1.067-2.77-.634-5.525.938-6.117 1.572-.591 3.707 1.169 4.775 3.938zm20.887-1.976c-.548 2.885.346 5.554 2.005 5.857 1.659.303 3.448-1.803 3.996-4.732.548-2.928-.346-5.539-2.005-5.856-1.659-.318-3.448 1.817-3.996 4.731z" fill="#263238"/><path d="M267.935 168.367s-10.242 13.906-19.576-.086m17.6.476s6.809 7.054 13.993 3.101c7.184-3.952 2.885-10.098 2.885-10.098" stroke="#263238" stroke-width="1.113" stroke-linecap="round" stroke-linejoin="round"/><path d="M234.729 134.886s2.51-8.973 14.353-6.823m21.537-1.429s8.973-5.38 17.224 3.232" stroke="#263238" stroke-width="3.34" stroke-linecap="round" stroke-linejoin="round"/><path d="M227.904 158.947l8.612 2.15m-1.082 3.231l-7.53 1.428m8.975 2.525l-5.381 2.87m59.94-16.156l7.544-1.803m-6.103 5.395h5.02m-3.954 3.592l6.824 1.788" stroke="#263238" stroke-width="1.113" stroke-miterlimit="10" stroke-linecap="round"/><path d="M9.195 350.407h1.567l-3.75 8.9c-.422 1-.961 1.728-1.617 2.183-.655.445-1.455.639-2.4.584v-1.434c.645.067 1.167-.027 1.567-.283.4-.256.733-.694 1-1.317l.117-.266-3.95-8.367h1.566l3.1 6.667 2.8-6.667zm8.131 3.333h1.55l-3.4 8.85c-.356.945-.856 1.661-1.5 2.15-.645.5-1.378.723-2.2.667v-1.35c1.022.078 1.772-.478 2.25-1.667l.133-.3-3.617-8.35h1.534l2.85 6.534 2.4-6.534zm9.977 0v8.334h-1.45v-6.95h-4.317v6.95h-1.45v-8.334h7.217zm6.124 8.55c-1.256 0-2.3-.416-3.133-1.25-.834-.844-1.25-1.889-1.25-3.133s.416-2.283 1.25-3.117c.833-.844 1.877-1.266 3.133-1.266.822 0 1.561.2 2.217.6a3.662 3.662 0 011.466 1.583l-1.216.7a2.462 2.462 0 00-.984-1.067 2.778 2.778 0 00-1.483-.4c-.833 0-1.533.284-2.1.85-.556.567-.833 1.273-.833 2.117 0 .833.277 1.533.833 2.1.567.567 1.267.85 2.1.85a2.96 2.96 0 001.5-.383 2.685 2.685 0 001.017-1.067l1.233.717a4.114 4.114 0 01-1.533 1.583 4.317 4.317 0 01-2.217.583zm5.593-.033c-.3 0-.555-.106-.766-.317a1.043 1.043 0 01-.317-.766c0-.3.106-.556.317-.767.211-.211.467-.317.767-.317.31 0 .566.106.766.317.212.211.317.467.317.767s-.105.555-.317.766a1.01 1.01 0 01-.766.317zm4.053 0c-.3 0-.555-.106-.766-.317a1.043 1.043 0 01-.317-.766c0-.3.106-.556.317-.767.21-.211.466-.317.766-.317.312 0 .567.106.767.317.211.211.317.467.317.767s-.106.555-.317.766a1.01 1.01 0 01-.767.317zm4.053 0c-.3 0-.555-.106-.767-.317a1.043 1.043 0 01-.316-.766c0-.3.105-.556.316-.767.212-.211.467-.317.767-.317.311 0 .567.106.767.317.21.211.316.467.316.767s-.105.555-.316.766a1.01 1.01 0 01-.767.317zM7.995 387.29c-1.766 0-3.228-.583-4.383-1.75-1.145-1.166-1.717-2.6-1.717-4.3 0-1.7.572-3.133 1.717-4.3 1.155-1.166 2.617-1.75 4.383-1.75 1.067 0 2.045.256 2.933.767.9.511 1.6 1.2 2.1 2.067l-1.35.783a3.687 3.687 0 00-1.5-1.533 4.198 4.198 0 00-2.183-.584c-1.344 0-2.444.434-3.3 1.3-.844.867-1.266 1.95-1.266 3.25 0 1.289.422 2.367 1.266 3.234.856.866 1.956 1.3 3.3 1.3.8 0 1.528-.189 2.183-.567.667-.389 1.167-.9 1.5-1.533l1.35.766c-.488.867-1.183 1.561-2.083 2.084-.9.511-1.883.766-2.95.766zm12.888-8.55v1.4h-2.834v6.934H16.6v-6.934h-2.85v-1.4h7.134zm5.87-.216c1.167 0 2.162.427 2.984 1.283.822.844 1.233 1.878 1.233 3.1 0 1.222-.41 2.261-1.233 3.117-.822.844-1.817 1.266-2.983 1.266-1.378 0-2.428-.55-3.15-1.65v4.767h-1.45V378.74h1.45v1.434c.722-1.1 1.772-1.65 3.15-1.65zm-.183 7.366c.834 0 1.534-.283 2.1-.85.567-.577.85-1.289.85-2.133 0-.844-.283-1.55-.85-2.117-.567-.577-1.267-.866-2.1-.866-.844 0-1.55.289-2.117.866-.566.567-.85 1.273-.85 2.117 0 .844.284 1.556.85 2.133.567.567 1.273.85 2.117.85zm13.03-7.15h1.45v8.334H39.6v-1.434c-.722 1.1-1.772 1.65-3.15 1.65-1.166 0-2.16-.422-2.983-1.266-.822-.856-1.233-1.895-1.233-3.117s.41-2.256 1.233-3.1c.822-.856 1.817-1.283 2.983-1.283 1.378 0 2.428.55 3.15 1.65v-1.434zm-2.966 7.15c.844 0 1.55-.283 2.116-.85.567-.577.85-1.289.85-2.133 0-.844-.283-1.55-.85-2.117-.566-.577-1.272-.866-2.116-.866-.834 0-1.534.289-2.1.866-.567.567-.85 1.273-.85 2.117 0 .844.283 1.556.85 2.133.566.567 1.266.85 2.1.85zm12.38-7.15h1.45v8.334h-1.45v-3.484h-4.317v3.484h-1.45v-8.334h1.45v3.467h4.317v-3.467zm9.707 0h1.167v8.334h-1.434v-5.85l-4.616 5.85H52.67v-8.334h1.433v5.85l4.617-5.85zm10.374 6.95h1.367v3.617h-1.434v-2.233h-6.933v-8.334h1.45v6.95h4.1v-6.95h1.45v6.95zm9.487-6.95h1.45v8.334h-1.45v-1.434c-.723 1.1-1.773 1.65-3.15 1.65-1.167 0-2.162-.422-2.984-1.266-.822-.856-1.233-1.895-1.233-3.117s.411-2.256 1.233-3.1c.822-.856 1.817-1.283 2.984-1.283 1.377 0 2.427.55 3.15 1.65v-1.434zm-2.967 7.15c.844 0 1.55-.283 2.117-.85.566-.577.85-1.289.85-2.133 0-.844-.284-1.55-.85-2.117-.567-.577-1.273-.866-2.117-.866-.834 0-1.533.289-2.1.866-.567.567-.85 1.273-.85 2.117 0 .844.283 1.556.85 2.133.567.567 1.266.85 2.1.85zm16.547-7.15h1.45v8.334h-1.45v-3.484h-4.317v3.484h-1.45v-8.334h1.45v3.467h4.317v-3.467zm4.673 4.834c.145.744.484 1.322 1.017 1.733.545.411 1.211.617 2 .617 1.1 0 1.9-.406 2.4-1.217l1.234.7c-.812 1.256-2.034 1.883-3.667 1.883-1.322 0-2.4-.411-3.234-1.233-.822-.833-1.233-1.883-1.233-3.15 0-1.256.406-2.3 1.217-3.133.811-.834 1.861-1.25 3.15-1.25 1.222 0 2.217.433 2.983 1.3.778.855 1.167 1.889 1.167 3.1 0 .211-.017.427-.05.65h-6.984zm2.884-3.684c-.778 0-1.422.223-1.933.667-.512.433-.828 1.017-.95 1.75h5.566c-.122-.789-.433-1.389-.933-1.8a2.673 2.673 0 00-1.75-.617zm15.75-1.15h1.45v8.334h-1.45v-3.484h-4.317v3.484h-1.45v-8.334h1.45v3.467h4.317v-3.467zm10.557 0h1.45v8.334h-1.45v-1.434c-.722 1.1-1.772 1.65-3.15 1.65-1.167 0-2.161-.422-2.983-1.266-.822-.856-1.233-1.895-1.233-3.117s.411-2.256 1.233-3.1c.822-.856 1.816-1.283 2.983-1.283 1.378 0 2.428.55 3.15 1.65v-1.434zm-2.966 7.15c.844 0 1.55-.283 2.116-.85.567-.577.85-1.289.85-2.133 0-.844-.283-1.55-.85-2.117-.566-.577-1.272-.866-2.116-.866-.834 0-1.534.289-2.1.866-.567.567-.85 1.273-.85 2.117 0 .844.283 1.556.85 2.133.566.567 1.266.85 2.1.85zm7.98-8.4v-1.266h4.5v1.266h-4.5zm4.683 1.25h1.167v8.334h-1.434v-5.85l-4.616 5.85h-1.167v-8.334h1.433v5.85l4.617-5.85zm10.541 6.95h1.15v3.617h-1.434v-2.233h-6.25v2.233h-1.433v-3.617h1.017c.533-.733.8-1.761.8-3.083v-3.867h6.15v6.95zm-5.3 0h3.866v-5.6h-3.283v2.517c0 1.244-.195 2.272-.583 3.083zm8.704-2.116c.144.744.483 1.322 1.016 1.733.545.411 1.211.617 2 .617 1.1 0 1.9-.406 2.4-1.217l1.234.7c-.812 1.256-2.034 1.883-3.667 1.883-1.322 0-2.4-.411-3.233-1.233-.823-.833-1.234-1.883-1.234-3.15 0-1.256.406-2.3 1.217-3.133.811-.834 1.861-1.25 3.15-1.25 1.222 0 2.217.433 2.983 1.3.778.855 1.167 1.889 1.167 3.1 0 .211-.017.427-.05.65h-6.983zm2.883-3.684c-.778 0-1.422.223-1.933.667-.512.433-.828 1.017-.95 1.75h5.566c-.122-.789-.433-1.389-.933-1.8a2.673 2.673 0 00-1.75-.617zm11.583-1.15h1.45v8.334h-1.45v-3.484h-4.316v3.484h-1.45v-8.334h1.45v3.467h4.316v-3.467zm10.558 0h1.45v8.334h-1.45v-1.434c-.723 1.1-1.773 1.65-3.15 1.65-1.167 0-2.162-.422-2.984-1.266-.822-.856-1.233-1.895-1.233-3.117s.411-2.256 1.233-3.1c.822-.856 1.817-1.283 2.984-1.283 1.377 0 2.427.55 3.15 1.65v-1.434zm-2.967 7.15c.844 0 1.55-.283 2.117-.85.566-.577.85-1.289.85-2.133 0-.844-.284-1.55-.85-2.117-.567-.577-1.273-.866-2.117-.866-.833 0-1.533.289-2.1.866-.567.567-.85 1.273-.85 2.117 0 .844.283 1.556.85 2.133.567.567 1.267.85 2.1.85z" fill="#000"/></svg>