<svg width="447" height="387" fill="none" xmlns="http://www.w3.org/2000/svg"><path d="M255.64 14.303h-28.31v6.52h28.31v-6.52zm-9.71 9.421h-18.6v6.52h18.6v-6.52zm-7.89 9.42h-10.71v6.52h10.71v-6.52z" fill="#C6B5DD"/><path opacity=".2" d="M255.64 14.303h-28.31v6.52h28.31v-6.52zm-9.71 9.421h-18.6v6.52h18.6v-6.52zm-7.89 9.42h-10.71v6.52h10.71v-6.52z" fill="#000"/><path d="M178.167 86.502v19.63h9.6v-19.63h-9.6zm13.872 6.738v12.889h9.6v-12.89h-9.6zm13.864 5.465v7.42h9.6v-7.42h-9.6z" fill="#C6B5DD"/><path opacity=".2" d="M178.167 86.502v19.63h9.6v-19.63h-9.6zm13.872 6.738v12.889h9.6v-12.89h-9.6zm13.864 5.465v7.42h9.6v-7.42h-9.6z" fill="#000"/><path d="M176.02 120.454h116.25c6.41 0 11.6-5.18 11.6-11.58v-95.8c0-6.39-5.19-11.58-11.6-11.58H176.02c-6.41 0-11.6 5.18-11.6 11.58v95.8c0 6.4 5.2 11.58 11.6 11.58zm73.3-32.89h41.45m-41.45 4.429h41.45m-41.45 4.431h41.45m-41.45 4.44h41.45m-41.45 4.43h41.45M176.9 15.274h41.45m-41.45 4.429h41.45m-41.45 4.431h41.45m-41.45 4.43h41.45m-41.45 4.44h41.45" stroke="#263238" stroke-width="1.063" stroke-miterlimit="10"/><path d="M285.58 50.114l7.91 4.14-.9-22.28-18.88 11.91 7.9 4.14-5.95 11.31c-1.1 0-2.1.38-2.91 1l-10.46-4.86c0-.02.01-.04.01-.05 0-2.66-2.16-4.81-4.82-4.81s-4.82 2.15-4.82 4.81c0 .71.16 1.38.44 1.99l-13.71 14.86c-.43-.13-.88-.21-1.35-.21-.24 0-.47.04-.7.07l-19.7-24.92c.27-.6.42-1.26.42-1.95 0-2.66-2.16-4.81-4.82-4.81s-4.82 2.15-4.82 4.81c0 .51.1 1 .25 1.46l-22.51 22.92c-.52-.19-1.07-.31-1.65-.31-2.66 0-4.82 2.15-4.82 4.81 0 2.66 2.16 4.81 4.82 4.81s4.82-2.15 4.82-4.81c0-.41-.07-.8-.16-1.18l22.7-23.12c.44.13.89.22 1.37.22.3 0 .59-.04.88-.09l19.6 24.79c-.31.64-.5 1.34-.5 2.1 0 2.66 2.16 4.81 4.82 4.81s4.82-2.15 4.82-4.81c0-.52-.1-1.01-.26-1.48l14.06-15.24c.27.05.53.08.81.08.99 0 1.92-.3 2.68-.82l10.7 4.97a4.81 4.81 0 004.8 4.57c2.66 0 4.82-2.15 4.82-4.81 0-1.01-.32-1.95-.86-2.73l5.97-11.29z" fill="#263238"/><path d="M137.85 71.993l-13.52-21.12-22.34 16.43-20.6-40.77-54.36 34.56v27.92h122.58v-23.47l-11.76 6.45z" fill="#263238" stroke="#263238" stroke-width="1.161" stroke-miterlimit="10" stroke-linecap="round" stroke-linejoin="round"/><path d="M140.2 87.844l-14.69-22.3-24.69 9.98-28.81-27.58-44.98 18.16v40.52h122.58v-25.24l-9.41 6.46z" fill="#C6B5DD" stroke="#263238" stroke-width=".877" stroke-miterlimit="10"/><path opacity=".2" d="M140.2 87.844l-14.69-22.3-24.69 9.98-28.81-27.58-44.98 18.16v40.52h122.58v-25.24l-9.41 6.46z" fill="#000"/><path d="M140.2 87.844l-14.69-22.3-24.69 9.98-28.81-27.58-44.98 18.16v40.52h122.58v-25.24l-9.41 6.46z" stroke="#263238" stroke-width=".877" stroke-miterlimit="10"/><path d="M96.68 16.194H86.8a2.68 2.68 0 00-2.68 2.68c0 1.04.6 1.94 1.48 2.38l-3.45 3.68 6.29-3.38h8.24a2.68 2.68 0 000-5.36z" fill="#C6B5DD"/><path opacity=".2" d="M96.68 16.194H86.8a2.68 2.68 0 00-2.68 2.68c0 1.04.6 1.94 1.48 2.38l-3.45 3.68 6.29-3.38h8.24a2.68 2.68 0 000-5.36z" fill="#000"/><path d="M139.91 40.053h-9.88a2.68 2.68 0 00-2.68 2.68c0 1.04.6 1.94 1.48 2.38l-3.45 3.68 6.29-3.38h8.24a2.68 2.68 0 000-5.36z" fill="#C6B5DD"/><path opacity=".2" d="M139.91 40.053h-9.88a2.68 2.68 0 00-2.68 2.68c0 1.04.6 1.94 1.48 2.38l-3.45 3.68 6.29-3.38h8.24a2.68 2.68 0 000-5.36z" fill="#000"/><path d="M31.98 120.454h116.25c6.4 0 11.6-5.18 11.6-11.58v-95.8c0-6.39-5.19-11.58-11.6-11.58H31.98c-6.41 0-11.6 5.18-11.6 11.58v95.8c0 6.4 5.19 11.58 11.6 11.58zm-2.77-106.03h8.01m-8.01 8.719h8.01m-8.01 8.72h8.01m-8.01 8.721h8.01m-8.01 8.719h8.01" stroke="#263238" stroke-width="1.063" stroke-miterlimit="10"/><path d="M343.8 26.244c-14.55 0-26.38 11.81-26.38 26.34 0 14.52 11.83 26.34 26.38 26.34 14.55 0 26.38-11.81 26.38-26.34s-11.83-26.34-26.38-26.34zm0 44.94c-10.28 0-18.64-8.35-18.64-18.61s8.36-18.61 18.64-18.61c10.28 0 18.64 8.35 18.64 18.61s-8.36 18.61-18.64 18.61z" fill="#C6B5DD" stroke="#263238" stroke-width="1.063" stroke-miterlimit="10"/><path opacity=".2" d="M343.8 26.244c-14.55 0-26.38 11.81-26.38 26.34 0 14.52 11.83 26.34 26.38 26.34 14.55 0 26.38-11.81 26.38-26.34s-11.83-26.34-26.38-26.34zm0 44.94c-10.28 0-18.64-8.35-18.64-18.61s8.36-18.61 18.64-18.61c10.28 0 18.64 8.35 18.64 18.61s-8.36 18.61-18.64 18.61z" fill="#000"/><path d="M343.8 26.244c-14.55 0-26.38 11.81-26.38 26.34 0 14.52 11.83 26.34 26.38 26.34 14.55 0 26.38-11.81 26.38-26.34s-11.83-26.34-26.38-26.34zm0 44.94c-10.28 0-18.64-8.35-18.64-18.61s8.36-18.61 18.64-18.61c10.28 0 18.64 8.35 18.64 18.61s-8.36 18.61-18.64 18.61z" stroke="#263238" stroke-width="1.063" stroke-miterlimit="10"/><path d="M343.8 26.244c-7.26 0-14.02 2.88-19.05 8.11l5.59 5.35c3.55-3.7 8.33-5.73 13.46-5.73 10.28 0 18.64 8.35 18.64 18.61s-8.36 18.61-18.64 18.61v7.73c14.55 0 26.38-11.81 26.38-26.34s-11.83-26.34-26.38-26.34z" fill="#263238" stroke="#263238" stroke-width="1.063" stroke-miterlimit="10" stroke-linecap="round" stroke-linejoin="round"/><path d="M408.86 26.244c-14.55 0-26.38 11.81-26.38 26.34 0 14.52 11.84 26.34 26.38 26.34 14.55 0 26.38-11.81 26.38-26.34s-11.83-26.34-26.38-26.34zm0 44.94c-10.28 0-18.64-8.35-18.64-18.61s8.36-18.61 18.64-18.61c10.28 0 18.64 8.35 18.64 18.61s-8.36 18.61-18.64 18.61z" fill="#C6B5DD" stroke="#263238" stroke-width="1.063" stroke-miterlimit="10"/><path opacity=".2" d="M408.86 26.244c-14.55 0-26.38 11.81-26.38 26.34 0 14.52 11.84 26.34 26.38 26.34 14.55 0 26.38-11.81 26.38-26.34s-11.83-26.34-26.38-26.34zm0 44.94c-10.28 0-18.64-8.35-18.64-18.61s8.36-18.61 18.64-18.61c10.28 0 18.64 8.35 18.64 18.61s-8.36 18.61-18.64 18.61z" fill="#000"/><path d="M408.86 26.244c-14.55 0-26.38 11.81-26.38 26.34 0 14.52 11.84 26.34 26.38 26.34 14.55 0 26.38-11.81 26.38-26.34s-11.83-26.34-26.38-26.34zm0 44.94c-10.28 0-18.64-8.35-18.64-18.61s8.36-18.61 18.64-18.61c10.28 0 18.64 8.35 18.64 18.61s-8.36 18.61-18.64 18.61z" stroke="#263238" stroke-width="1.063" stroke-miterlimit="10"/><path d="M419.13 28.314l-3.02 7.12a18.572 18.572 0 0111.38 17.15c0 10.26-8.36 18.61-18.64 18.61v7.73c14.55 0 26.38-11.81 26.38-26.34a26.27 26.27 0 00-16.1-24.27z" fill="#263238" stroke="#263238" stroke-width="1.063" stroke-miterlimit="10" stroke-linecap="round" stroke-linejoin="round"/><path d="M431.8 1.494H323.1c-7.96 0-14.42 6.44-14.42 14.39v90.17c0 7.95 6.46 14.39 14.42 14.39h108.7c7.96 0 14.42-6.44 14.42-14.39v-90.17c0-7.94-6.45-14.39-14.42-14.39zm-111.44 86.07h41.44m-41.44 4.429h41.44m-41.44 4.431h41.44m-41.44 4.44h41.44m-41.44 4.43h41.44m27-17.73h41.45m-41.45 4.429h41.45m-41.45 4.431h41.45m-41.45 4.44h41.45m-41.45 4.43h41.45m-74.91-91.59h41.44m-41.44 4.439h41.44m-88.54 269.011h122.67c8.45 0 15.31-6.84 15.31-15.28v-129.2c0-8.44-6.85-15.28-15.31-15.28H249.72c-8.45 0-15.31 6.84-15.31 15.28v85.15" stroke="#263238" stroke-width="1.063" stroke-miterlimit="10"/><path d="M293.76 202.744h-29.18v42.41h29.18v-42.41z" fill="#C6B5DD" stroke="#263238" stroke-width="1.161" stroke-miterlimit="10"/><path opacity=".2" d="M293.76 202.744h-29.18v42.41h29.18v-42.41z" fill="#000"/><path d="M293.76 202.744h-29.18v42.41h29.18v-42.41z" stroke="#263238" stroke-width="1.161" stroke-miterlimit="10"/><path d="M334.28 181.534H305.1v46.95h29.18v-46.95z" fill="#C6B5DD" stroke="#263238" stroke-width="1.161" stroke-miterlimit="10"/><path opacity=".2" d="M334.28 181.534H305.1v46.95h29.18v-46.95z" fill="#000"/><path d="M334.28 181.534H305.1v46.95h29.18v-46.95z" stroke="#263238" stroke-width="1.161" stroke-miterlimit="10"/><path d="M374.8 164.124h-29.18v31.05h29.18v-31.05z" fill="#C6B5DD" stroke="#263238" stroke-width="1.161" stroke-miterlimit="10"/><path opacity=".2" d="M374.8 164.124h-29.18v31.05h29.18v-31.05z" fill="#000"/><path d="M374.8 164.124h-29.18v31.05h29.18v-31.05z" stroke="#263238" stroke-width="1.161" stroke-miterlimit="10"/><path d="M293.76 245.144h-29.18v17.42h29.18v-17.42zm40.52-16.66H305.1v34.08h29.18v-34.08z" fill="#263238" stroke="#263238" stroke-width="1.161" stroke-miterlimit="10" stroke-linecap="round" stroke-linejoin="round"/><path d="M412.93 181.534h-29.18v46.95h29.18v-46.95z" fill="#C6B5DD" stroke="#263238" stroke-width="1.161" stroke-miterlimit="10"/><path opacity=".2" d="M412.93 181.534h-29.18v46.95h29.18v-46.95z" fill="#000"/><path d="M412.93 181.534h-29.18v46.95h29.18v-46.95z" stroke="#263238" stroke-width="1.161" stroke-miterlimit="10"/><path d="M412.93 228.484h-29.18v34.08h29.18v-34.08zm-38.13-33.32h-29.18v67.4h29.18v-67.4z" fill="#263238" stroke="#263238" stroke-width="1.161" stroke-miterlimit="10" stroke-linecap="round" stroke-linejoin="round"/><path d="M329.22 164.184h-18.2a3.15 3.15 0 00-3.15 3.15v4.19a3.15 3.15 0 003.15 3.15h6.74l2.36 4.08 2.36-4.08h6.74a3.15 3.15 0 003.15-3.15v-4.19a3.15 3.15 0 00-3.15-3.15z" fill="#C6B5DD"/><path opacity=".5" d="M329.22 164.184h-18.2a3.15 3.15 0 00-3.15 3.15v4.19a3.15 3.15 0 003.15 3.15h6.74l2.36 4.08 2.36-4.08h6.74a3.15 3.15 0 003.15-3.15v-4.19a3.15 3.15 0 00-3.15-3.15z" fill="#fff"/><path d="M329.22 164.184h-18.2a3.15 3.15 0 00-3.15 3.15v4.19a3.15 3.15 0 003.15 3.15h6.74l2.36 4.08 2.36-4.08h6.74a3.15 3.15 0 003.15-3.15v-4.19a3.15 3.15 0 00-3.15-3.15z" stroke="#263238" stroke-width="1.167" stroke-miterlimit="10" stroke-linecap="round" stroke-linejoin="round"/><path d="M288.27 185.934h-18.2a3.15 3.15 0 00-3.15 3.15v4.19a3.15 3.15 0 003.15 3.15h6.74l2.36 4.08 2.36-4.08h6.74a3.15 3.15 0 003.15-3.15v-4.19a3.15 3.15 0 00-3.15-3.15z" fill="#C6B5DD"/><path opacity=".5" d="M288.27 185.934h-18.2a3.15 3.15 0 00-3.15 3.15v4.19a3.15 3.15 0 003.15 3.15h6.74l2.36 4.08 2.36-4.08h6.74a3.15 3.15 0 003.15-3.15v-4.19a3.15 3.15 0 00-3.15-3.15z" fill="#fff"/><path d="M288.27 185.934h-18.2a3.15 3.15 0 00-3.15 3.15v4.19a3.15 3.15 0 003.15 3.15h6.74l2.36 4.08 2.36-4.08h6.74a3.15 3.15 0 003.15-3.15v-4.19a3.15 3.15 0 00-3.15-3.15z" stroke="#263238" stroke-width="1.167" stroke-miterlimit="10" stroke-linecap="round" stroke-linejoin="round"/><path d="M369.13 146.714h-18.2a3.15 3.15 0 00-3.15 3.15v4.19a3.15 3.15 0 003.15 3.15h6.74l2.36 4.08 2.36-4.08h6.74a3.15 3.15 0 003.15-3.15v-4.19a3.15 3.15 0 00-3.15-3.15z" fill="#C6B5DD"/><path opacity=".5" d="M369.13 146.714h-18.2a3.15 3.15 0 00-3.15 3.15v4.19a3.15 3.15 0 003.15 3.15h6.74l2.36 4.08 2.36-4.08h6.74a3.15 3.15 0 003.15-3.15v-4.19a3.15 3.15 0 00-3.15-3.15z" fill="#fff"/><path d="M369.13 146.714h-18.2a3.15 3.15 0 00-3.15 3.15v4.19a3.15 3.15 0 003.15 3.15h6.74l2.36 4.08 2.36-4.08h6.74a3.15 3.15 0 003.15-3.15v-4.19a3.15 3.15 0 00-3.15-3.15z" stroke="#263238" stroke-width="1.167" stroke-miterlimit="10" stroke-linecap="round" stroke-linejoin="round"/><path d="M407.44 163.914h-18.2a3.15 3.15 0 00-3.15 3.15v4.19a3.15 3.15 0 003.15 3.15h6.74l2.36 4.08 2.36-4.08h6.74a3.15 3.15 0 003.15-3.15v-4.19c.01-1.74-1.41-3.15-3.15-3.15z" fill="#C6B5DD"/><path opacity=".5" d="M407.44 163.914h-18.2a3.15 3.15 0 00-3.15 3.15v4.19a3.15 3.15 0 003.15 3.15h6.74l2.36 4.08 2.36-4.08h6.74a3.15 3.15 0 003.15-3.15v-4.19c.01-1.74-1.41-3.15-3.15-3.15z" fill="#fff"/><path d="M407.44 163.914h-18.2a3.15 3.15 0 00-3.15 3.15v4.19a3.15 3.15 0 003.15 3.15h6.74l2.36 4.08 2.36-4.08h6.74a3.15 3.15 0 003.15-3.15v-4.19c.01-1.74-1.41-3.15-3.15-3.15z" stroke="#263238" stroke-width="1.167" stroke-miterlimit="10" stroke-linecap="round" stroke-linejoin="round"/><path d="M265.57 140.754h41.45m-41.45 4.43h41.45m-41.45 4.44h41.45m-41.45 4.43h41.45m-41.45 4.43h41.45" stroke="#263238" stroke-width="1.063" stroke-miterlimit="10"/><path d="M196.64 329.604l-44.32 5.12 13.61 12.6 30.56-2.65" fill="#263238"/><path d="M196.64 329.604l-44.32 5.12 13.61 12.6 30.56-2.65" stroke="#263238" stroke-width=".97" stroke-miterlimit="10" stroke-linecap="round" stroke-linejoin="round"/><path d="M166.77 336.734l28.39-3.1m-26.17 6.2l25.73-2.21m-23.07 4.87l23.51-2.22m-25.56-5.36l8.09 8.82m-2.1-9.11l8.04 8.31m-1.82-9.2l8.03 8.31m-1.38-8.75l6.7 6.98" stroke="#fff" stroke-width=".485" stroke-miterlimit="10" stroke-linecap="round" stroke-linejoin="round"/><path d="M151.32 224.664c-1.46-.63-8.22-26.93-8.22-26.93l-3.48-9.91s-5.23-17.86-7.23-21.17c-1.99-3.31-9.96-5.97-9.96-5.97l-2.99-1.66-12.95-6.96.01.08-1.87-3.91-22.38-18.04s.4 4.34.99 8.62c-.06.04-4.65 3-6.3 5.63-.31.49-.57 1.54-1.82 4.29-4.96 2.58-23.83 12.45-30.06 17.26-7.31 5.64-8.63 9.61-8.3 12.93l.33 5.3s3.12 18.96 6.38 28.37l-.4-.19-.11 116.62 93.49-3.59.14-86.63c3.2-1.05 6.53-2.28 8.54-3.17l.5.45s2.9 2.12 4.22 3.09c1.32.96 3.02 1.4 4.82.89 1.79-.51.67-2.63-.64-3.33-.82-.43-2.79-2.21-2.79-2.21l-3.9-4.86c2.34.42 6.1 1.08 7.65 1.3 2.32.33 5.31.99 5.65-1.99.31-2.98-6.99-3.31-9.32-4.31z" fill="#fff"/><path d="M82.25 130.194s1.28 14.1 2.11 16.65c.75 2.29 4.54 14.85 7.86 20.48 3.32 5.64 7.37 4.95 7.97-1.33.6-6.34.31-16.56.31-16.56m-17.49-10.33s-4.41 2.68-6.07 5.34c-1.66 2.65-8.63 27.18-8.63 27.18l13.28.66-11.29 4.97m.33 2.99s11.29 18.56 12.95 20.55c1.66 1.99 2.66 3.98 2.66 3.98" stroke="#263238" stroke-width=".97" stroke-miterlimit="10" stroke-linecap="round" stroke-linejoin="round"/><path d="M83.91 144.774s5.65 23.21 8.97 35.47c3.32 12.27 6.64 27.51 6.64 27.51m.99-55.68s1.33 26.85 1.33 37.46v16.91m3.32-57.03l8.97 18.24-7.31 2.32 11.29 6.3-10.29 32.15m-1.33-56.35l12.95 6.96m10.3 20.22l1.66 31.16m-56.46-61.66s-22.58 11.6-29.89 17.24c-7.31 5.64-8.63 9.61-8.3 12.93m6.31 33.48v116.02m58.45-87.51v83.21m-50.34-146.85s7.63 2.66 11.06 9.13m-6.11-9.51s6.86 2.66 9.91 9.13m-14.48 97.36h25.28v4.96H52.45" stroke="#263238" stroke-width=".97" stroke-miterlimit="10" stroke-linecap="round" stroke-linejoin="round"/><path d="M145.03 202.114c-2.39-5.95-4.38-11.03-5.42-14.28.22 2.36-.72 7.3-4.28 10.78-6.9 6.74-8.86 4.4-8.54 13.76.31 9.36 4.01 13.61 1.69 21.59s-12.36 15.83-12.04 29.68c.07 2.92.98 5.84 2.47 8.63l-41.59 55.57 59.53-1.75v-79.48l8.18-44.5z" fill="#C6B5DD"/><path opacity=".7" d="M145.03 202.114c-2.39-5.95-4.38-11.03-5.42-14.28.22 2.36-.72 7.3-4.28 10.78-6.9 6.74-8.86 4.4-8.54 13.76.31 9.36 4.01 13.61 1.69 21.59s-12.36 15.83-12.04 29.68c.07 2.92.98 5.84 2.47 8.63l-41.59 55.57 59.53-1.75v-79.48l8.18-44.5z" fill="#fff"/><path d="M136.89 288.094v34.53" stroke="#263238" stroke-width=".97" stroke-miterlimit="10" stroke-linecap="round" stroke-linejoin="round"/><path d="M117.45 102.674c1.99-.33 11.96-6.63 10.29-12.93-1.66-6.3-15.61-13.92-26.57-10.28-10.96 3.64-17.93 10.28-17.93 10.28s-7.31 0-9.96 2.98c-2.66 2.98-.66 7.62 1 10.94 1.44 2.88 1.38 10.49 1.34 12.45-.09 0-.18.01-.26.06-1.19.71-1.94 1.7-2.22 2.94-.45 2.01.38 4.67 2.39 7.69 2.39 3.59 5.55 3.87 6.49 3.87h.02c.36.4 1.32 1.58 2.08 3.35.84 1.96 9.21 14.84 14.02 15.21.69.05 1.35.08 1.98.08 4.13 0 7.13-1.11 8.74-3.26 2.12-2.83 7.41-14.24 8.06-19.79.11-.95.18-2.25.21-3.74.69-.92 1.12-2.04 1.12-3.28 0-1.25-.44-2.38-1.14-3.3-.12-5.86-.43-11.95-.5-13.35.3.09.58.12.84.08z" fill="#fff"/><path d="M116.12 102.344s1 18.23.33 23.87c-.66 5.64-5.98 16.91-7.97 19.56-1.99 2.65-5.98 3.31-10.29 2.98-4.32-.33-12.62-12.6-13.62-14.92-1-2.32-2.32-3.65-2.32-3.65s-3.65.33-6.31-3.65c-2.66-3.98-3.65-7.96-.33-9.95" stroke="#263238" stroke-width=".97" stroke-miterlimit="10" stroke-linecap="round" stroke-linejoin="round"/><path d="M101.84 120.244s2.32-3.98 4.65-1.66l1.66 10.61-4.98 1.33.66 5.3" stroke="#263238" stroke-width=".97" stroke-miterlimit="10" stroke-linecap="round" stroke-linejoin="round"/><path d="M101.84 120.244c0-2.75-2.23-4.97-4.98-4.97-2.75 0-4.98 2.23-4.98 4.97 0 2.75 2.23 4.97 4.98 4.97 2.75 0 4.98-2.22 4.98-4.97z" fill="#C6B5DD" stroke="#263238" stroke-width=".97" stroke-miterlimit="10" stroke-linecap="round" stroke-linejoin="round"/><path opacity=".4" d="M101.84 120.244c0-2.75-2.23-4.97-4.98-4.97-2.75 0-4.98 2.23-4.98 4.97 0 2.75 2.23 4.97 4.98 4.97 2.75 0 4.98-2.22 4.98-4.97z" fill="#fff" stroke="#263238" stroke-width="1.167" stroke-miterlimit="10"/><path d="M117.78 119.254c0-2.75-2.23-4.97-4.98-4.97-2.75 0-4.98 2.23-4.98 4.97 0 2.74 2.23 4.97 4.98 4.97 2.75 0 4.98-2.23 4.98-4.97z" fill="#C6B5DD" stroke="#263238" stroke-width=".97" stroke-miterlimit="10" stroke-linecap="round" stroke-linejoin="round"/><path opacity=".4" d="M117.78 119.254c0-2.75-2.23-4.97-4.98-4.97-2.75 0-4.98 2.23-4.98 4.97 0 2.74 2.23 4.97 4.98 4.97 2.75 0 4.98-2.23 4.98-4.97z" fill="#fff" stroke="#263238" stroke-width="1.167" stroke-miterlimit="10"/><path d="M91.88 120.244l-9.96.66m10.04-7.57s2.67-2.66 7.63-1.14m9.15-.38s4.96-2.66 6.48.76" stroke="#263238" stroke-width=".97" stroke-miterlimit="10" stroke-linecap="round" stroke-linejoin="round"/><path d="M85.9 103.004s2.66 6.3 3.32 7.29c.66.99-3.32 5.64-3.32 5.64v4.64l-3.99.33-3.99-3.65-2.32-.66s.33-9.61-1.33-12.93c-1.66-3.32-3.65-7.96-1-10.94 2.66-2.98 9.96-2.98 9.96-2.98s6.97-6.63 17.93-10.28c10.96-3.65 24.91 3.98 26.57 10.28 1.66 6.3-8.3 12.6-10.29 12.93-1.99.33-4.98-3.65-7.97-3.65h-4.65c-3.32 0-3.65-.33-7.31-.33-3.64 0-11.61 4.31-11.61 4.31z" fill="#263238"/><path d="M90.06 97.564s5.67-3.14 8.51-8.49-6.62-2.83-9.14.63c-2.52 3.46 3.47 2.2 3.47 2.2m-7 11.1s-3.4 3.68-7.81 3.99m9.45.64s-5.99 2.83-9.14 2.83m0 2.51s4.73.94 7.25 0m9.45-14.78s2.52-.31 10.71-3.14c8.19-2.83 11.03-5.97 5.67-10.06" stroke="#fff" stroke-width=".485" stroke-miterlimit="10" stroke-linecap="round" stroke-linejoin="round"/><path d="M259.7 275.974s-13.05-34.71-16.4-38.05c-3.35-3.34-20.14-13.57-20.14-13.57l-1.35-2.31-.82-2.81s-.98-4.23-3.88-6.32l-.23-.49-19.8-8.49s.14 2.62.35 5.78c-2.34.85-7.54 3.12-9.32 7.19-1.15 2.63-1.82 6.99-2.15 11.11l-.81.6.31-1.1s-21.92 12.27-22.91 14.25c-1.27 1.67-4.58 12.45-4.58 12.45s-3.31 10.34-6.93 21.77c-5.12 15.72-10.07 31.43-10.38 33.94-.05.23-.02.12-.02.12-.33 4.31 16.14 20.2 16.14 20.2l.22-.04 1.96 2.05s0-.2.05-.83c1.4 2.83 3.66 7.01 5.46 6.12 1.48-.73 1.03-3.3-.2-6.65 1.49 2.27 3.21 3.92 4.56 3.26 2.35-1.16 1.18-5.17-1.17-10.91-.42-1.03-1.29-1.75-2.26-2.06.75-.08 1.53-.16 2.32-.26.78 3.67 2.56 6.85 4.54 6.42 2.07-.44 2.29-2.96 1.9-7.38.2-.04.47-.59.67-.63.88 3.09 2.23 5.84 3.93 5.48 1.87-.4 2.38-2.25 2.16-6.02-.05-1.4-.1-1.84-.15-2.73.72.45 4.31 2.62 4.72 2.92 1.33.99 11.45-1.16 11.45-1.16 14.78-4.78 38.42-4.97 53.67-15.22 10.16-6.82 9.09-26.63 9.09-26.63zm-93.16 28.39l4.01-26.31 1.59 23.98-.47 5.92-5.13-3.59z" fill="#fff"/><path d="M162.61 241.244l23.81-14.04s1.48-12.75 4.53-14.06c0 0 4.18-3.65 8.93-2.93 2.72.41 4.73-2.97 6.27-8.91 0-11.72-.16-26.66-.28-35.98-1.05-4.6-2.08-8.35-2.44-9.8l-11.22-4.73s-2.41-8.11-14.74-9.91c-12.34-1.8-25.57 11.41-27.08 20.42-1.5 9.01 7.22 18.62 3.91 23.73-3.31 5.11-17.15 12.61-20.76 21.33-3.61 8.71-2.71 14.72-2.71 14.72s9.93 14.12 7.22 18.92c-2.71 4.81-18.65 9.31-18.35 23.43.28 13.09 13.23 22.3 27.58 24.05l15.33-46.24z" fill="#263238"/><path d="M188.66 153.224s-8.51-9.75-19.22-6.6c-10.71 3.14-14.81 14.47-12.6 20.13 2.21 5.66 7.25 10.38 3.47 18.87s-13.23 9.75-17.96 19.5-3.47 12.89-3.47 12.89" stroke="#fff" stroke-width=".485" stroke-miterlimit="10" stroke-linecap="round" stroke-linejoin="round"/><path d="M182.99 161.404s-7.88.94-7.88 5.98c0 5.03 4.41 7.55 5.04 13.84.63 6.29-1.26 8.81-5.99 16.67-4.73 7.86-5.04 11.95-1.58 17.3 3.47 5.35 5.67 14.15 1.26 17.3" stroke="#fff" stroke-width=".485" stroke-miterlimit="10" stroke-linecap="round" stroke-linejoin="round"/><path d="M184.88 155.114s-9.45-5.03-17.01-.31c-7.56 4.72 2.52 14.15 3.78 22.96 1.26 8.81-5.04 15.09-13.55 24.53-8.51 9.43-6.3 21.07-6.3 21.07m-.62 11s2.21 4.72-3.78 11.01-18.9 7.86-22.05 17.3c-3.15 9.43 3.15 14.47 3.15 14.47" stroke="#fff" stroke-width=".485" stroke-miterlimit="10" stroke-linecap="round" stroke-linejoin="round"/><path d="M197.15 203.414s.66 12.64 1.33 15.96c.66 3.31 3.34 15.13 4.35 25.57.91 9.34 3.02 15.96 3.02 15.96s8.09 31.42 8.57-8.05c.17-13.93-1.33-35.8-1.33-35.8l.66-6.63" fill="#fff"/><path opacity=".3" d="M210.68 211.494l-12.2 7.87-.78-13.29s8.15 4.82 12.98 5.42zm2.41 5.55s-.4 22.56-1.5 32.1c-1.1 9.53 1.84 17.97 1.84 17.97s1.53-34.87-.34-50.07z" fill="#C6B5DD"/><path d="M197.15 203.414s.66 12.64 1.33 15.96c.66 3.31 3.34 15.13 4.35 25.57.91 9.34 3.02 15.96 3.02 15.96s8.09 31.42 8.57-8.05c.17-13.93-1.33-35.8-1.33-35.8l.66-6.63" stroke="#263238" stroke-width=".97" stroke-miterlimit="10" stroke-linecap="round" stroke-linejoin="round"/><path d="M188.35 256.374l-2.11 4.52 13.88 13.55-11.77-18.07z" fill="#C6B5DD"/><path opacity=".7" d="M188.35 256.374l-2.11 4.52 13.88 13.55-11.77-18.07z" fill="#fff"/><path d="M172.18 266.364s4.64-10.72 6.1-8.28c1.46 2.44-7.81 12.91-4.15 14.37 3.66 1.46 9.03-3.9 7.32.49-1.71 4.38-4.64 9.5-4.64 11.69 0 2.19.98 23.87.98 23.87l.24 1.46-2.93 1.95s-3.17-3.17-3.17-5.85c0-2.68-.49-13.4-.49-15.83 0-2.44-1.14-11.02-1.14-11.02l1.88-12.85z" fill="#C6B5DD"/><path opacity=".7" d="M172.18 266.364s4.64-10.72 6.1-8.28c1.46 2.44-7.81 12.91-4.15 14.37 3.66 1.46 9.03-3.9 7.32.49-1.71 4.38-4.64 9.5-4.64 11.69 0 2.19.98 23.87.98 23.87l.24 1.46-2.93 1.95s-3.17-3.17-3.17-5.85c0-2.68-.49-13.4-.49-15.83 0-2.44-1.04-11.6-1.04-11.6l1.78-12.27z" fill="#fff"/><path d="M197.31 209.644s-6.8 1.43-9.12 6.74c-2.32 5.3-2.66 17.57-2.32 20.88.33 3.31 0 7.96 0 7.96l9.3-2.98" fill="#fff"/><path opacity=".3" d="M198.59 218.064s-3.72-.21-7.64 2.89c-3.93 3.09-4.34 8.66-4.34 8.66s-1.24-6.6 1.24-12.38c2.48-5.77 9.46-7.59 9.46-7.59l1.28 8.42z" fill="#C6B5DD"/><path d="M197.31 209.644s-6.8 1.43-9.12 6.74c-2.32 5.3-2.66 17.57-2.32 20.88.33 3.31 0 7.96 0 7.96l9.3-2.98m2.31.66l-10.29 11.6s7.64 11.93 11.29 15.91m25.24-1.66l5.31-20.22-9.3-6.96 7.31-2.32-5.98-20.55s-1.11-5.16-4.99-6.82m-13.61 21.07s3.32 3.98 6.97 3.32c3.65-.66 3.65-2.65 3.65-2.65" stroke="#263238" stroke-width=".97" stroke-miterlimit="10" stroke-linecap="round" stroke-linejoin="round"/><path d="M169.99 237.134s-5.37 5.85-5.12 7.31c.24 1.46 6.59 4.14 5.12 5.85-1.46 1.71-5.12-2.44-5.86-1.7-.73.73-14.15 46.52-12.93 47.25 1.22.73 4.15-1.95 4.88-.24.73 1.7-12.2 6.58-9.52 8.04 2.68 1.46 9.27-1.7 8.05-1.22-1.22.49-4.88 5.11-3.9 7.06.98 1.95 11.43 11.83 11.43 11.83s-2.16.83-1.43 3.27c.73 2.44 1.95 3.17 1.95 3.17s-2.8-2.31-3.23.19c-.43 2.49-.43 3.96-.43 3.96l-6.85-6.78c-5.58-5.68-10.12-11-11.46-15.57 0 0-.23.67 1.23-4.69s16.1-51.15 16.1-51.15 3.31-10.78 4.58-12.45c1.29-1.69 7.39-4.13 7.39-4.13z" fill="#C6B5DD"/><path opacity=".7" d="M169.99 237.134s-5.37 5.85-5.12 7.31c.24 1.46 6.59 4.14 5.12 5.85-1.46 1.71-5.12-2.44-5.86-1.7-.73.73-14.15 46.52-12.93 47.25 1.22.73 4.15-1.95 4.88-.24.73 1.7-12.2 6.58-9.52 8.04 2.68 1.46 9.27-1.7 8.05-1.22-1.22.49-4.88 5.11-3.9 7.06.98 1.95 11.43 11.83 11.43 11.83s-2.16.83-1.43 3.27c.73 2.44 1.95 3.17 1.95 3.17s-2.8-2.31-3.23.19c-.43 2.49-.64 4.14-.64 4.14l-6.64-6.97c-6.92-6.91-11.2-12.36-11.46-15.57 0 0-.81 1.52 1.23-4.69 1.73-5.28 16.1-51.15 16.1-51.15s3.31-10.78 4.58-12.45c1.29-1.68 7.39-4.12 7.39-4.12z" fill="#fff"/><path d="M182.01 230.474v18.67l11.77-3.01 3.92-4.52-12.07 2.41.79-16.82-4.41 3.27z" fill="#C6B5DD"/><path opacity=".7" d="M182.01 230.474v18.67l11.77-3.01 3.92-4.52-12.07 2.41.79-16.82-4.41 3.27z" fill="#fff"/><path d="M185.53 226.994s-21.92 12.27-22.91 14.25c-1 1.99-21.59 63.98-21.92 68.29-.33 4.31 16.27 20.55 16.27 20.55m16.27-71.93l-6.64 45.74m7.3-48.4l1-4.64" stroke="#263238" stroke-width=".97" stroke-miterlimit="10" stroke-linecap="round" stroke-linejoin="round"/><path d="M147.67 306.554s4.32-5.97 10.63-5.64c6.31.33 15.61 9.28 15.61 9.28m-24.25-10.61s4.32-4.31 10.29-.66" stroke="#263238" stroke-width=".97" stroke-miterlimit="10" stroke-linecap="round" stroke-linejoin="round"/><path d="M180.44 313.394c-.33-2.36-2.92-3.86-5.03-2.74-.76.4-1.35 1.07-1.46 2.17-.37 3.64 1.88 12.61 4.87 11.98 2.57-.55 2.49-5.27 1.62-11.41zm-6.64 2.65c-.33-2.36-2.92-3.86-5.03-2.74-.76.4-1.35 1.07-1.46 2.17-.37 3.64 1.88 12.61 4.87 11.98 2.57-.55 2.49-5.26 1.62-11.41z" fill="#fff" stroke="#263238" stroke-width=".97" stroke-miterlimit="10" stroke-linecap="round" stroke-linejoin="round"/><path d="M167.7 322.724c-.93-2.2-3.78-3.02-5.56-1.42-.64.58-1.04 1.37-.88 2.46.54 3.62 4.95 11.81 7.67 10.41 2.36-1.19 1.06-6.03-1.23-11.45z" fill="#fff" stroke="#263238" stroke-width=".97" stroke-miterlimit="10" stroke-linecap="round" stroke-linejoin="round"/><path d="M163.4 329.124c-.68-1.65-2.83-2.26-4.15-1.06-.48.43-.78 1.03-.66 1.84.41 2.71 3.68 8.8 5.74 7.79 1.76-.87.83-4.27-.93-8.57z" fill="#fff" stroke="#263238" stroke-width=".97" stroke-miterlimit="10" stroke-linecap="round" stroke-linejoin="round"/><path d="M180.99 315.844s2.6 2.81 4.53 3.41c1.59.49 9.86-1 9.86-1m-2.55 6.2s-5.31 1.33-8.97 1.99c-3.65.66-7.64.99-7.64.99s-2.66 3.32-4.65 3.32m51.66-106.94s16.79 10.23 20.14 13.57c3.35 3.34 15.06 34.67 15.06 34.67m-19.24-25.89l3.76 27.15" stroke="#263238" stroke-width=".97" stroke-miterlimit="10" stroke-linecap="round" stroke-linejoin="round"/><path d="M242.95 270.044l-2.34-20.17 10.34 22.78-7.53.34-.47-2.95z" fill="#C6B5DD"/><path opacity=".7" d="M242.95 270.044l-2.34-20.17 10.34 22.78-7.53.34-.47-2.95z" fill="#fff"/><path d="M179.02 260.104l-6.51 10.67 5.51-4.36m-7.32 12.92s1.35 19.82 1.35 22.53c0 2.7-.39 6.26-.39 6.26" stroke="#263238" stroke-width=".97" stroke-miterlimit="10" stroke-linecap="round" stroke-linejoin="round"/><path d="M184.53 179.914l-.03-.03.03.03z" fill="#263238"/><path d="M193.16 149.744s-9.63 5.64-10.29 13.92c-.66 8.29 1.66 16.24 1.66 16.24s-2.99-2.65-3.32 3.32c-.33 5.97 4.65 10.61 6.64 10.61h1.99s4.43 9.09 9.74 13.4c5.31 4.31 10.51 4.5 14.17 3.17 3.65-1.33 10.63-7.29 11.29-15.25.66-7.96 0-21.22-.66-29.5-.66-8.29-2.32-14.25-11.29-17.24-8.97-2.97-15.28-.99-19.93 1.33z" fill="#fff"/><path opacity=".3" d="M184.53 179.914s-2.99-2.65-3.32 3.32c-.33 5.97 4.65 10.61 6.64 10.61h1.99s4.43 9.09 9.74 13.4c.82.58 1.59 1.12 2.3 1.61.82.49 1.63.9 2.43 1.22-1.79-2.2-5.69-7.27-7.51-11.83-2.41-6.02-3.02-18.67-2.41-26.81.6-8.13 4.83-11.45 4.83-11.45l-6.03-.3c-.89 0-5.53 6.92-10.26 10.89l1.6 9.34z" fill="#C6B5DD"/><path d="M193.16 149.744s-9.63 5.64-10.29 13.92c-.66 8.29 1.66 16.24 1.66 16.24s-2.99-2.65-3.32 3.32c-.33 5.97 4.65 10.61 6.64 10.61h1.99s4.43 9.09 9.74 13.4c5.31 4.31 10.51 4.5 14.17 3.17 3.65-1.33 10.63-7.29 11.29-15.25.66-7.96 0-21.22-.66-29.5-.66-8.29-2.32-14.25-11.29-17.24-8.97-2.97-15.28-.99-19.93 1.33z" stroke="#263238" stroke-width=".97" stroke-miterlimit="10" stroke-linecap="round" stroke-linejoin="round"/><path d="M208.54 180.184s2.77-4.75 5.55-1.98l1.98 9.43-4.04.82.38 5.89" stroke="#263238" stroke-width=".97" stroke-miterlimit="10" stroke-linecap="round" stroke-linejoin="round"/><path d="M208.54 180.184c0-3.28-2.66-5.93-5.94-5.93-3.28 0-5.94 2.66-5.94 5.93 0 3.28 2.66 5.93 5.94 5.93 3.28 0 5.94-2.65 5.94-5.93z" fill="#C6B5DD" stroke="#263238" stroke-width=".97" stroke-miterlimit="10" stroke-linecap="round" stroke-linejoin="round"/><path opacity=".4" d="M208.54 180.184c0-3.28-2.66-5.93-5.94-5.93-3.28 0-5.94 2.66-5.94 5.93 0 3.28 2.66 5.93 5.94 5.93 3.28 0 5.94-2.65 5.94-5.93z" fill="#fff" stroke="#263238" stroke-width="1.167" stroke-miterlimit="10"/><path d="M227.57 178.994c0-3.28-2.66-5.93-5.94-5.93-3.28 0-5.94 2.66-5.94 5.93 0 3.28 2.66 5.93 5.94 5.93 3.28.01 5.94-2.65 5.94-5.93z" fill="#C6B5DD" stroke="#263238" stroke-width=".97" stroke-miterlimit="10" stroke-linecap="round" stroke-linejoin="round"/><path opacity=".4" d="M227.57 178.994c0-3.28-2.66-5.93-5.94-5.93-3.28 0-5.94 2.66-5.94 5.93 0 3.28 2.66 5.93 5.94 5.93 3.28.01 5.94-2.65 5.94-5.93z" fill="#fff" stroke="#263238" stroke-width="1.167" stroke-miterlimit="10"/><path d="M196.66 180.184l-11.89.79m12.99-8.72s1.89-2.72 5.88-2.1m12.59-.41s3.36-1.89 6.09 1.05" stroke="#263238" stroke-width=".97" stroke-miterlimit="10" stroke-linecap="round" stroke-linejoin="round"/><path d="M224.38 165.664c-.66-8.29-2.32-14.25-11.29-17.24-8.97-2.98-15.28-.99-19.93 1.33 0 0-9.63 5.64-10.29 13.92-.66 8.29 1.66 16.24 1.66 16.24s2.66 2.65 3.32-.99c.66-3.65-1.33-9.61 7.97-16.57 9.3-6.96 22.58-3.65 27.23 2.98 0 0 .64.45 1.39 1.55-.01-.13-.05-1.1-.06-1.22z" fill="#263238"/><path d="M79.26 202.454s-7.97-1.33-13.95 2.65c-5.98 3.98-4.65 10.61-4.65 10.61m1.33-12.59s-3.99 4.64-3.99 8.62" stroke="#263238" stroke-width=".97" stroke-miterlimit="10" stroke-linecap="round" stroke-linejoin="round"/><path d="M37.09 184.224s3.98 24.2 7.64 31.49c3.65 7.29 13.95 14.25 21.92 17.57 7.97 3.32 45.16 8.62 46.49 8.29 1.33-.33-6.31-7.29-4.65-15.91.82-4.28 6.64-8.62 6.64-8.62s-16.27-6.96-22.58-9.61c-6.31-2.65-13.28-4.97-13.28-4.97s-8.97-8.29-13.28-11.93c-4.32-3.65-12.29-8.62-12.29-8.62" stroke="#263238" stroke-width=".97" stroke-miterlimit="10" stroke-linecap="round" stroke-linejoin="round"/><path d="M146.89 229.124l4.34 5.4s1.98 1.78 2.79 2.21c1.31.7 2.43 2.82.64 3.33-1.79.51-3.5.07-4.82-.89-1.32-.96-4.22-3.09-4.22-3.09l-3.53-3.19 2.56-4.6 2.24.83z" fill="#fff" stroke="#263238" stroke-width=".97" stroke-miterlimit="10" stroke-linecap="round" stroke-linejoin="round"/><path d="M115.13 217.044s10.29 2.32 13.62 2.98c3.32.66 20.26 3.65 22.58 4.64 2.32.99 9.63 1.33 9.3 4.31-.33 2.98-3.32 2.32-5.65 1.99-2.32-.33-9.63-1.66-9.63-1.66s2.32 4.31 1.66 5.3c-.66.99-15.61 6.3-18.6 6.3-2.99 0-4.98-5.3-6.31-6.96-1.33-1.66-3.99-4.97-3.99-4.97l-7.97-3.65" fill="#fff"/><path d="M115.13 217.044s10.29 2.32 13.62 2.98c3.32.66 20.26 3.65 22.58 4.64 2.32.99 9.63 1.33 9.3 4.31-.33 2.98-3.32 2.32-5.65 1.99-2.32-.33-9.63-1.66-9.63-1.66s2.32 4.31 1.66 5.3c-.66.99-15.61 6.3-18.6 6.3-2.99 0-4.98-5.3-6.31-6.96-1.33-1.66-3.99-4.97-3.99-4.97l-7.97-3.65m35.2 3.99l-2.32-3.32m-29.89 15.58s5.65-4.64 4.98-12.6m12.62 4.31l2.66 6.3m3.98-8.95l2.66 6.96" stroke="#263238" stroke-width=".97" stroke-miterlimit="10" stroke-linecap="round" stroke-linejoin="round"/><path d="M201.13 279.034v77.9l103.95-5.96v-77.24l-103.95 5.3z" fill="#263238" stroke="#263238" stroke-width=".97" stroke-miterlimit="10" stroke-linecap="round" stroke-linejoin="round"/><path d="M305.08 273.734l-5.32-2.99-102.94 4.98v75.91l4.31 5.3v-77.9l103.95-5.3z" fill="#fff" stroke="#263238" stroke-width=".97" stroke-miterlimit="10" stroke-linecap="round" stroke-linejoin="round"/><path d="M196.82 275.724l4.31 3.31" stroke="#263238" stroke-width=".97" stroke-miterlimit="10" stroke-linecap="round" stroke-linejoin="round"/><path d="M242.65 324.454v52.71l28.56-1.99v-53.04l-28.56 2.32z" fill="#263238" stroke="#263238" stroke-width=".97" stroke-miterlimit="10" stroke-linecap="round" stroke-linejoin="round"/><path d="M241.76 354.294v-29.84l29.45-2.32.08 30.31" stroke="#fff" stroke-width=".97" stroke-miterlimit="10" stroke-linecap="round" stroke-linejoin="round"/><path d="M242.65 377.164l-14.95-13.26 14.95-.67" fill="#fff"/><path d="M242.65 377.164l-14.95-13.26 14.95-.67" stroke="#263238" stroke-width=".97" stroke-miterlimit="10" stroke-linecap="round" stroke-linejoin="round"/><path opacity=".7" d="M61.53 328.454l94.45 9.46s-3.62-2.91-2.21-3.19c2.68-.52 6.64-.89 6.64-.89l-8.32-8.77-90.56 3.39z" fill="#C6B5DD"/><path opacity=".7" d="M61.53 328.454l94.45 9.46s-3.62-2.91-2.21-3.19c2.68-.52 6.64-.89 6.64-.89l-8.32-8.77-90.56 3.39z" fill="#fff"/><path d="M152.16 325.104l-147.4 5.25m299.61-8.42l99.36 61.32" stroke="#263238" stroke-width=".97" stroke-miterlimit="10" stroke-linecap="round" stroke-linejoin="round"/><path d="M123.76 337.374l-52.01 6.35 33.51 35.19 56.06-6.93-37.56-34.61z" fill="#C6B5DD"/><path opacity=".7" d="M123.76 337.374l-52.01 6.35 33.51 35.19 56.06-6.93-37.56-34.61z" fill="#fff"/><path d="M70.59 351.224l46.23-5.77 33.52 34.03-53.17 7.5-26.58-35.76z" fill="#fff"/><path d="M98.76 382.034c-.15 0-.28-.11-.3-.26-.02-.17.1-.32.26-.34l42.52-5.47c.16-.02.32.1.34.26.02.17-.1.32-.26.34l-42.52 5.47h-.04zm-2.37-2.84c-.15 0-.28-.11-.3-.26-.02-.17.1-.32.26-.34l42.52-5.47a.303.303 0 01.08.6l-42.52 5.47h-.04zm-2.36-2.84c-.15 0-.28-.11-.3-.26-.02-.17.1-.32.26-.34l42.52-5.47c.16-.01.32.1.34.26.02.17-.1.32-.26.34l-42.52 5.47h-.04zm-2.37-2.85c-.15 0-.28-.11-.3-.26-.02-.17.1-.32.26-.34l42.52-5.47c.16-.02.32.1.34.26.02.17-.1.32-.26.34l-42.52 5.47h-.04zm-2.36-2.84c-.15 0-.28-.11-.3-.26-.02-.17.1-.32.26-.34l42.52-5.47a.303.303 0 01.08.6l-42.52 5.47h-.04zm-2.37-2.84c-.15 0-.28-.11-.3-.26-.02-.17.1-.32.26-.34l42.52-5.47c.16-.02.32.1.34.26.02.17-.1.32-.26.34l-42.52 5.47h-.04zm-2.36-2.85c-.15 0-.28-.11-.3-.26-.02-.17.1-.32.26-.34l42.52-5.47a.303.303 0 01.08.6l-42.52 5.47h-.04zm-2.37-2.84c-.15 0-.28-.11-.3-.26-.02-.17.1-.32.26-.34l42.52-5.47c.16-.02.32.1.34.26.02.17-.1.32-.26.34l-42.52 5.47h-.04zm-2.36-2.84c-.15 0-.28-.11-.3-.26-.02-.17.1-.32.26-.34l42.52-5.47c.16-.02.32.1.34.26.02.17-.1.32-.26.34l-42.52 5.47h-.04zm-2.37-2.85c-.15 0-.28-.11-.3-.26-.02-.17.1-.32.26-.34l42.52-5.47a.303.303 0 01.08.6l-42.52 5.47h-.04z" fill="#C6B5DD"/><path opacity=".7" d="M98.76 382.034c-.15 0-.28-.11-.3-.26-.02-.17.1-.32.26-.34l42.52-5.47c.16-.02.32.1.34.26.02.17-.1.32-.26.34l-42.52 5.47h-.04zm-2.37-2.84c-.15 0-.28-.11-.3-.26-.02-.17.1-.32.26-.34l42.52-5.47a.303.303 0 01.08.6l-42.52 5.47h-.04zm-2.36-2.84c-.15 0-.28-.11-.3-.26-.02-.17.1-.32.26-.34l42.52-5.47c.16-.01.32.1.34.26.02.17-.1.32-.26.34l-42.52 5.47h-.04zm-2.37-2.85c-.15 0-.28-.11-.3-.26-.02-.17.1-.32.26-.34l42.52-5.47c.16-.02.32.1.34.26.02.17-.1.32-.26.34l-42.52 5.47h-.04zm-2.36-2.84c-.15 0-.28-.11-.3-.26-.02-.17.1-.32.26-.34l42.52-5.47a.303.303 0 01.08.6l-42.52 5.47h-.04zm-2.37-2.84c-.15 0-.28-.11-.3-.26-.02-.17.1-.32.26-.34l42.52-5.47c.16-.02.32.1.34.26.02.17-.1.32-.26.34l-42.52 5.47h-.04zm-2.36-2.85c-.15 0-.28-.11-.3-.26-.02-.17.1-.32.26-.34l42.52-5.47a.303.303 0 01.08.6l-42.52 5.47h-.04zm-2.37-2.84c-.15 0-.28-.11-.3-.26-.02-.17.1-.32.26-.34l42.52-5.47c.16-.02.32.1.34.26.02.17-.1.32-.26.34l-42.52 5.47h-.04zm-2.36-2.84c-.15 0-.28-.11-.3-.26-.02-.17.1-.32.26-.34l42.52-5.47c.16-.02.32.1.34.26.02.17-.1.32-.26.34l-42.52 5.47h-.04zm-2.37-2.85c-.15 0-.28-.11-.3-.26-.02-.17.1-.32.26-.34l42.52-5.47a.303.303 0 01.08.6l-42.52 5.47h-.04z" fill="#fff"/><path d="M122.43 160.684s7.97 2.65 9.96 5.97c1.99 3.31 7.23 21.17 7.23 21.17" stroke="#263238" stroke-width=".97" stroke-miterlimit="10" stroke-linecap="round" stroke-linejoin="round"/></svg>