<svg width="623" height="498" fill="none" xmlns="http://www.w3.org/2000/svg"><path d="M320.633 37.716l-24.581 5.181a6.133 6.133 0 01-7.266-4.735l-5.182-24.581a6.134 6.134 0 014.736-7.266l24.581-5.182a6.133 6.133 0 017.266 4.736l5.182 24.581a6.133 6.133 0 01-4.736 7.266zM302.92 14.557l3.133 14.917m5.892-9.037l-14.917 3.145m320.134 222.134l-24.581 5.182a6.133 6.133 0 01-7.266-4.736l-5.182-24.581a6.133 6.133 0 014.736-7.266l24.581-5.182a6.133 6.133 0 017.266 4.736l5.182 24.581a6.134 6.134 0 01-4.736 7.266zm-11.977-22.099l-8.327 12.773m10.544-2.217l-12.773-8.339m-376.76 270.964l-25.087-1.446c-3.386-.193-5.965-3.097-5.772-6.483l1.446-25.087c.193-3.386 3.097-5.965 6.483-5.772l25.087 1.446c3.386.193 5.965 3.097 5.772 6.483l-1.446 25.087c-.193 3.374-3.097 5.965-6.483 5.772zm-3.843-18.954l-15.231-.88M29.054 224.707l-23.846-7.905a6.12 6.12 0 01-3.892-7.748l7.905-23.846a6.12 6.12 0 017.747-3.892l23.847 7.905a6.118 6.118 0 013.892 7.747l-7.905 23.847a6.12 6.12 0 01-7.748 3.892zm3.495-26.485l-19.075 9.579" stroke="#263238" stroke-miterlimit="10" stroke-linecap="round" stroke-linejoin="round"/><path d="M21.608 194.281a2.666 2.666 0 11-4.762 2.398 2.666 2.666 0 014.762-2.398zm7.567 15.075a2.665 2.665 0 11-4.76 2.397 2.665 2.665 0 014.76-2.397z" stroke="#263238" stroke-miterlimit="10" stroke-linecap="round" stroke-linejoin="round"/><path d="M315.503 423.353c-6.965 10.085-20.798 12.604-30.884 5.639a22.266 22.266 0 01-8.194-10.531c-2.422-6.567-1.723-14.171 2.555-20.364a22.08 22.08 0 0111.893-8.628 22.111 22.111 0 0119.002 3c10.086 6.965 12.604 20.798 5.628 30.884z" fill="#C6B5DD"/><path opacity=".3" d="M312.611 421.353c-5.869 8.483-17.497 10.603-25.992 4.735-8.495-5.868-10.603-17.496-4.735-25.991 5.868-8.483 17.496-10.604 25.991-4.736 8.483 5.869 10.604 17.497 4.736 25.992z" fill="#000" fill-opacity=".7"/><path d="M312.611 421.353c-5.869 8.483-17.497 10.603-25.992 4.735-8.495-5.868-10.603-17.496-4.735-25.991 5.868-8.483 17.496-10.604 25.991-4.736 8.483 5.869 10.604 17.497 4.736 25.992z" stroke="#263238" stroke-miterlimit="10" stroke-linecap="round" stroke-linejoin="round"/><path d="M302.031 401.398l.892-1.301 2.241 1.554-.892 1.302c1.675 1.747 1.627 3.928 0 6.29l-.385.554-2.591-1.796.494-.722c.868-1.242.687-2.061-.181-2.663-.867-.603-1.699-.47-2.554.771-.856 1.241-.964 2.458-.133 5.205 1 3.35.832 5.254-.554 7.242-1.639 2.362-3.711 3.181-5.929 2.229l-.879 1.278-2.241-1.555.879-1.277c-1.699-1.759-1.639-3.964 0-6.338l.832-1.193 2.59 1.795-.952 1.374c-.867 1.241-.626 2.072.253 2.675.868.602 1.736.53 2.591-.711.856-1.241.988-2.482.133-5.206-1.025-3.325-.832-5.253.554-7.241 1.615-2.338 3.627-3.169 5.832-2.266z" fill="#C6B5DD" stroke="#263238" stroke-miterlimit="10" stroke-linecap="round" stroke-linejoin="round"/><path opacity=".2" d="M291.054 392.734c0 10.942-5.869 20.509-14.629 25.727-2.422-6.567-1.723-14.171 2.555-20.364a22.08 22.08 0 0111.893-8.628c.12 1.072.181 2.157.181 3.265z" fill="#000" fill-opacity=".7"/><path d="M315.503 423.353c-6.965 10.085-20.798 12.604-30.884 5.639a22.266 22.266 0 01-8.194-10.531c-2.422-6.567-1.723-14.171 2.555-20.364a22.08 22.08 0 0111.893-8.628 22.111 22.111 0 0119.002 3c10.086 6.965 12.604 20.798 5.628 30.884z" stroke="#263238" stroke-miterlimit="10" stroke-linecap="round" stroke-linejoin="round"/><path d="M265.544 414.255c12.265 0 22.208-9.942 22.208-22.207s-9.943-22.208-22.208-22.208c-12.265 0-22.207 9.943-22.207 22.208 0 12.265 9.942 22.207 22.207 22.207z" fill="#C6B5DD" stroke="#263238" stroke-miterlimit="10" stroke-linecap="round" stroke-linejoin="round"/><path opacity=".3" d="M265.544 410.725c10.315 0 18.677-8.362 18.677-18.677s-8.362-18.677-18.677-18.677-18.677 8.362-18.677 18.677 8.362 18.677 18.677 18.677z" fill="#000" fill-opacity=".7"/><path d="M265.544 410.725c10.315 0 18.677-8.362 18.677-18.677s-8.362-18.677-18.677-18.677-18.677 8.362-18.677 18.677 8.362 18.677 18.677 18.677z" stroke="#263238" stroke-miterlimit="10" stroke-linecap="round" stroke-linejoin="round"/><path d="M264.183 381.649v-1.579h2.723v1.579c2.362.482 3.579 2.301 3.579 5.181v.663h-3.157v-.88c0-1.518-.603-2.096-1.663-2.096s-1.663.578-1.663 2.096c0 1.518.603 2.579 2.844 4.362 2.723 2.181 3.663 3.844 3.663 6.266 0 2.88-1.241 4.724-3.603 5.206v1.542h-2.723v-1.542c-2.398-.482-3.603-2.338-3.603-5.206v-1.458h3.157v1.663c0 1.518.663 2.06 1.723 2.06s1.723-.542 1.723-2.06-.602-2.603-2.844-4.362c-2.723-2.157-3.663-3.844-3.663-6.278-.012-2.82 1.169-4.639 3.507-5.157zm126.001 29.042c6.617-10.327 3.609-24.063-6.718-30.68-10.327-6.617-24.063-3.609-30.68 6.718-6.617 10.327-3.609 24.063 6.718 30.68 10.327 6.616 24.063 3.609 30.68-6.718z" fill="#C6B5DD" stroke="#263238" stroke-miterlimit="10" stroke-linecap="round" stroke-linejoin="round"/><path opacity=".3" d="M385.162 386.023c7.025 7.555 6.579 19.376-.976 26.401-7.555 7.025-19.376 6.579-26.401-.976-7.025-7.555-6.579-19.376.976-26.401 7.567-7.025 19.388-6.591 26.401.976z" fill="#000" fill-opacity=".7"/><path d="M385.162 386.023c7.025 7.555 6.579 19.376-.976 26.401-7.555 7.025-19.376 6.579-26.401-.976-7.025-7.555-6.579-19.376.976-26.401 7.567-7.025 19.388-6.591 26.401.976z" stroke="#263238" stroke-miterlimit="10" stroke-linecap="round" stroke-linejoin="round"/><path d="M363.412 392.048l-1.072-1.157 2-1.856 1.073 1.157c2.06-1.253 4.181-.747 6.145 1.362l.458.494-2.314 2.145-.602-.639c-1.037-1.109-1.868-1.121-2.639-.398-.771.723-.832 1.555.205 2.663 1.036 1.109 2.193 1.47 5.061 1.253 3.482-.253 5.301.326 6.952 2.097 1.964 2.109 2.302 4.314.904 6.266l1.048 1.133-2 1.855-1.048-1.132c-2.085 1.277-4.23.747-6.182-1.362l-.988-1.06 2.314-2.145 1.132 1.217c1.037 1.108 1.892 1.06 2.663.337.772-.723.892-1.578-.132-2.687-1.036-1.108-2.217-1.494-5.061-1.253-3.458.277-5.302-.325-6.953-2.097-1.952-2.096-2.325-4.229-.964-6.193z" fill="#C6B5DD" stroke="#263238" stroke-miterlimit="10" stroke-linecap="round" stroke-linejoin="round"/><path opacity=".2" d="M362.34 302.205s-.097 46.078 0 48.765c.096 2.687 3.578 18.87 3.578 18.87l-11.182 20.617 9.628 7.76 18.737-18.424s15.954 9.857 18.87 23.955c2.916 14.098 20.28 24.364 38.294 63.406 18.015 39.041 38.559-87.361 38.559-87.361l-55.585-69.985-60.899-7.603z" fill="#000" fill-opacity=".7"/><path d="M532.265 54.655l-17.026 166.142-10.471 102.206-146.332-14.99-28.474-2.916-18.231-1.868 16.159-157.731 11.338-110.616 193.037 19.773z" fill="#fff"/><path d="M476.198 60.861l-83.324-8.543a2.844 2.844 0 00-3.121 2.542 2.843 2.843 0 002.542 3.121l83.324 8.543a2.844 2.844 0 003.121-2.542 2.835 2.835 0 00-2.542-3.121zm-22.015 9.507l-41.668-4.265a1.432 1.432 0 00-1.567 1.265 1.43 1.43 0 001.266 1.566l41.667 4.266a1.43 1.43 0 001.567-1.265 1.417 1.417 0 00-1.265-1.567zm45.837 122.618l-135.246-13.857a1.432 1.432 0 00-1.567 1.265 1.432 1.432 0 001.266 1.567l135.246 13.857a1.43 1.43 0 001.566-1.265c.085-.772-.482-1.494-1.265-1.567zm-1.048 10.182l-157.261-16.11a1.43 1.43 0 00-1.567 1.265 1.43 1.43 0 001.265 1.566L498.67 206a1.43 1.43 0 001.567-1.265 1.423 1.423 0 00-1.265-1.567zm-45.078 5.676l-113.22-11.604a1.43 1.43 0 00-1.566 1.265 1.43 1.43 0 001.265 1.566l113.219 11.604a1.43 1.43 0 001.567-1.265c.084-.771-.482-1.494-1.265-1.566z" fill="#263238"/><path d="M338.881 208.215l-4.6 44.903 158.541 16.24 4.6-44.903-158.541-16.24z" fill="#BFBFBF" stroke="#263238" stroke-miterlimit="10"/><path d="M389.006 164.465c19.492 0 35.293-15.802 35.293-35.294 0-19.492-15.801-35.294-35.293-35.294-19.492 0-35.294 15.802-35.294 35.294 0 19.492 15.802 35.294 35.294 35.294z" fill="#C6B5DD"/><path opacity=".5" d="M411.592 156.268c14.976-12.477 17.002-34.732 4.525-49.708-12.477-14.976-34.732-17.001-49.708-4.524-14.976 12.476-17.001 34.731-4.524 49.707 12.477 14.976 34.731 17.002 49.707 4.525z" fill="#fff"/><path d="M389.006 164.465c19.492 0 35.293-15.802 35.293-35.294 0-19.492-15.801-35.294-35.293-35.294-19.492 0-35.294 15.802-35.294 35.294 0 19.492 15.802 35.294 35.294 35.294z" stroke="#263238" stroke-miterlimit="10"/><path d="M390.018 129.062l29.353 14.773a33.476 33.476 0 003.169-11.218c.928-9.061-1.831-17.653-7.049-24.28l-25.473 20.725z" fill="#fff"/><path d="M390.211 127.472l24.581-20.003a33.759 33.759 0 00-13.725-9.784l-4.434 12.17-6.422 17.617z" fill="#C6B5DD"/><path d="M392.994 95.709l-2.976 29.088 10.013-27.486a33.782 33.782 0 00-7.037-1.602z" fill="#757575"/><path d="M388.488 128.797l3.398-33.209c-18.292-1.578-34.547 11.809-36.427 30.137a33.596 33.596 0 002.615 16.869l30.414-13.797z" fill="#999"/><path d="M385.572 162.705c14.122 1.446 27.087-6.049 33.293-17.894l-29.871-15.026-30.45 13.834c4.892 10.278 14.87 17.845 27.028 19.086z" fill="#BFBFBF"/><path d="M445.073 111.783l-4.024-.41a.766.766 0 01-.675-.831l.409-4.025a.766.766 0 01.832-.674l4.024.409c.41.048.711.41.675.832l-.409 4.024a.767.767 0 01-.832.675z" fill="#C6B5DD" stroke="#263238" stroke-miterlimit="10"/><path d="M501.587 114.024l-51.886-5.314a.636.636 0 11.132-1.265l51.874 5.314c.35.036.603.35.567.699a.618.618 0 01-.687.566zm-5.363 2.242l-46.801-4.796a.636.636 0 01.133-1.265L496.357 115a.637.637 0 01-.133 1.266z" fill="#263238"/><path d="M443.808 124.158l-4.025-.41a.766.766 0 01-.674-.831l.409-4.025a.767.767 0 01.832-.674l4.024.409c.41.049.711.41.675.832l-.41 4.024a.755.755 0 01-.831.675z" fill="#757575" stroke="#263238" stroke-miterlimit="10" stroke-linecap="round" stroke-linejoin="round"/><path d="M500.322 126.399l-51.874-5.313a.637.637 0 01.132-1.266l51.874 5.314a.637.637 0 01-.132 1.265zm-5.375 2.254l-46.801-4.796a.636.636 0 01.132-1.265l46.802 4.796a.636.636 0 01.566.698.63.63 0 01-.699.567z" fill="#263238"/><path d="M442.543 136.533l-4.025-.409a.767.767 0 01-.675-.832l.41-4.024a.766.766 0 01.831-.675l4.025.409c.41.049.711.41.675.832l-.41 4.024a.756.756 0 01-.831.675z" fill="#999" stroke="#263238" stroke-miterlimit="10" stroke-linecap="round" stroke-linejoin="round"/><path d="M499.044 138.787l-51.874-5.314a.637.637 0 01.133-1.266l51.874 5.314a.636.636 0 01-.133 1.266zm-5.362 2.241l-46.801-4.796a.636.636 0 11.132-1.265l46.801 4.796a.636.636 0 11-.132 1.265z" fill="#263238"/><path d="M441.265 148.92l-4.024-.409a.767.767 0 01-.675-.832l.41-4.024a.766.766 0 01.831-.675l4.025.41c.41.048.711.409.675.831l-.41 4.025c-.036.409-.41.71-.832.674z" fill="#BFBFBF" stroke="#263238" stroke-miterlimit="10"/><path d="M497.779 151.162l-51.874-5.314a.636.636 0 01.133-1.266l51.874 5.314a.637.637 0 01-.133 1.266zm-5.362 2.241l-46.802-4.796a.636.636 0 11.133-1.265l46.801 4.796a.636.636 0 01-.132 1.265z" fill="#263238"/><path d="M440 161.295l-4.024-.409a.767.767 0 01-.675-.832l.41-4.024a.766.766 0 01.831-.675l4.025.41a.765.765 0 01.674.831l-.409 4.025a.749.749 0 01-.832.674z" fill="#fff" stroke="#263238" stroke-miterlimit="10" stroke-linecap="round" stroke-linejoin="round"/><path d="M496.514 163.537l-51.874-5.314a.635.635 0 11.132-1.265l51.875 5.313a.637.637 0 01-.133 1.266zm-5.363 2.241l-46.801-4.796a.636.636 0 11.133-1.265l46.801 4.796a.636.636 0 11-.133 1.265z" fill="#263238"/><path d="M473.443 254.196l2.961.303 1.736-16.937-2.96-.304-1.737 16.938z" fill="#757575" stroke="#263238" stroke-miterlimit="10" stroke-linecap="round" stroke-linejoin="round"/><path d="M473.684 251.675l2.96.303.817-7.971-2.961-.304-.816 7.972z" fill="#C6B5DD" stroke="#263238" stroke-miterlimit="10"/><path d="M480.531 250.635l2.961.303L485.227 234l-2.961-.303-1.735 16.938z" fill="#757575" stroke="#263238" stroke-miterlimit="10" stroke-linecap="round" stroke-linejoin="round"/><path d="M481.841 238.186l-.818 7.971 2.961.304.818-7.972-2.961-.303z" fill="#C6B5DD" stroke="#263238" stroke-miterlimit="10"/><path d="M486.865 254.558l2.96.304 1.735-16.938-2.96-.303-1.735 16.937z" fill="#757575" stroke="#263238" stroke-miterlimit="10" stroke-linecap="round" stroke-linejoin="round"/><path d="M487.536 248.154l2.961.304.817-7.972-2.96-.303-.818 7.971z" fill="#C6B5DD" stroke="#263238" stroke-miterlimit="10"/><path d="M467.119 250.162l2.96.304 1.737-16.938-2.961-.304-1.736 16.938z" fill="#757575" stroke="#263238" stroke-miterlimit="10" stroke-linecap="round" stroke-linejoin="round"/><path d="M467.36 247.641l2.96.303.817-7.971-2.961-.304-.816 7.972z" fill="#C6B5DD" stroke="#263238" stroke-miterlimit="10"/><path d="M459.921 254.519l2.961.303 1.735-16.937-2.961-.304-1.735 16.938z" fill="#757575" stroke="#263238" stroke-miterlimit="10" stroke-linecap="round" stroke-linejoin="round"/><path d="M460.136 252.576l2.961.303.817-7.971-2.96-.304-.818 7.972z" fill="#C6B5DD" stroke="#263238" stroke-miterlimit="10"/><path d="M453.699 249.466l2.961.303 1.735-16.937-2.961-.304-1.735 16.938z" fill="#757575" stroke="#263238" stroke-miterlimit="10" stroke-linecap="round" stroke-linejoin="round"/><path d="M453.784 248.799l2.961.304.817-7.972-2.96-.303-.818 7.971z" fill="#C6B5DD" stroke="#263238" stroke-miterlimit="10"/><path d="M446.142 257.6l2.961.304 1.737-16.938-2.961-.303-1.737 16.937z" fill="#757575" stroke="#263238" stroke-miterlimit="10" stroke-linecap="round" stroke-linejoin="round"/><path d="M446.2 256.971l2.961.303.817-7.971-2.961-.304-.817 7.972z" fill="#C6B5DD" stroke="#263238" stroke-miterlimit="10"/><path d="M440.542 246.281l2.961.304 1.735-16.938-2.961-.303-1.735 16.937z" fill="#757575" stroke="#263238" stroke-miterlimit="10" stroke-linecap="round" stroke-linejoin="round"/><path d="M440.812 243.73l2.961.303.816-7.971-2.961-.303-.816 7.971z" fill="#C6B5DD" stroke="#263238" stroke-miterlimit="10"/><path d="M433.991 244.584l2.961.304 1.737-16.938-2.961-.304-1.737 16.938z" fill="#757575" stroke="#263238" stroke-miterlimit="10" stroke-linecap="round" stroke-linejoin="round"/><path d="M434.632 238.227l2.961.303.816-7.971-2.961-.303-.816 7.971z" fill="#C6B5DD" stroke="#263238" stroke-miterlimit="10"/><path d="M426.22 254.562l2.961.303 1.735-16.938-2.961-.303-1.735 16.938z" fill="#757575" stroke="#263238" stroke-miterlimit="10" stroke-linecap="round" stroke-linejoin="round"/><path d="M426.945 247.543l2.961.303.816-7.972-2.96-.303-.817 7.972z" fill="#C6B5DD" stroke="#263238" stroke-miterlimit="10"/><path d="M420.314 246.429l2.961.304 1.735-16.938-2.961-.303-1.735 16.937z" fill="#757575" stroke="#263238" stroke-miterlimit="10" stroke-linecap="round" stroke-linejoin="round"/><path d="M420.639 243.244l2.961.303.817-7.971-2.961-.304-.817 7.972z" fill="#C6B5DD" stroke="#263238" stroke-miterlimit="10"/><path d="M413.207 250.14l2.961.303 1.737-16.937-2.961-.304-1.737 16.938z" fill="#757575" stroke="#263238" stroke-miterlimit="10" stroke-linecap="round" stroke-linejoin="round"/><path d="M413.46 247.616l2.961.304.816-7.972-2.961-.303-.816 7.971z" fill="#C6B5DD" stroke="#263238" stroke-miterlimit="10"/><path d="M405.76 257.063l2.961.304 1.737-16.938-2.961-.304-1.737 16.938z" fill="#757575" stroke="#263238" stroke-miterlimit="10" stroke-linecap="round" stroke-linejoin="round"/><path d="M405.755 257.088l2.961.303.816-7.971-2.961-.304-.816 7.972z" fill="#C6B5DD" stroke="#263238" stroke-miterlimit="10"/><path d="M400.185 245.681l2.961.304 1.735-16.938-2.961-.303-1.735 16.937z" fill="#757575" stroke="#263238" stroke-miterlimit="10" stroke-linecap="round" stroke-linejoin="round"/><path d="M400.37 243.757l2.961.303.817-7.971-2.961-.304-.817 7.972z" fill="#C6B5DD" stroke="#263238" stroke-miterlimit="10"/><path d="M394.293 237.526l2.961.304 1.737-16.938-2.961-.303-1.737 16.937z" fill="#757575" stroke="#263238" stroke-miterlimit="10" stroke-linecap="round" stroke-linejoin="round"/><path d="M394.474 235.64l2.961.303.817-7.971-2.961-.303-.817 7.971z" fill="#C6B5DD" stroke="#263238" stroke-miterlimit="10"/><path d="M386.682 245.834l2.961.304 1.735-16.938-2.961-.303-1.735 16.937z" fill="#757575" stroke="#263238" stroke-miterlimit="10" stroke-linecap="round" stroke-linejoin="round"/><path d="M387.355 239.424l2.961.304.817-7.972-2.961-.303-.817 7.971z" fill="#C6B5DD" stroke="#263238" stroke-miterlimit="10"/><path d="M379.035 254.721l2.961.303 1.735-16.938-2.961-.303-1.735 16.938z" fill="#757575" stroke="#263238" stroke-miterlimit="10" stroke-linecap="round" stroke-linejoin="round"/><path d="M379.819 247.062l2.961.304.817-7.972-2.961-.303-.817 7.971z" fill="#C6B5DD" stroke="#263238" stroke-miterlimit="10"/><path d="M373.348 244.462l2.961.304 1.735-16.938-2.961-.303-1.735 16.937z" fill="#757575" stroke="#263238" stroke-miterlimit="10" stroke-linecap="round" stroke-linejoin="round"/><path d="M373.632 241.889l2.961.304.817-7.971-2.961-.304-.817 7.971z" fill="#C6B5DD" stroke="#263238" stroke-miterlimit="10"/><path d="M366.991 240.943l2.961.304 1.736-16.938-2.96-.304-1.737 16.938z" fill="#757575" stroke="#263238" stroke-miterlimit="10" stroke-linecap="round" stroke-linejoin="round"/><path d="M367.688 233.946l2.961.303.817-7.971-2.961-.304-.817 7.972z" fill="#C6B5DD" stroke="#263238" stroke-miterlimit="10"/><path d="M359.777 245.539l2.96.304 1.737-16.938-2.961-.303-1.736 16.937z" fill="#757575" stroke="#263238" stroke-miterlimit="10" stroke-linecap="round" stroke-linejoin="round"/><path d="M359.761 245.558l2.961.304.816-7.972-2.96-.303-.817 7.971z" fill="#C6B5DD" stroke="#263238" stroke-miterlimit="10"/><path d="M353.63 239.593l2.961.304 1.734-16.938-2.96-.303-1.735 16.937z" fill="#757575" stroke="#263238" stroke-miterlimit="10" stroke-linecap="round" stroke-linejoin="round"/><path d="M353.785 238.296l2.961.303.817-7.971-2.961-.304-.817 7.972z" fill="#C6B5DD" stroke="#263238" stroke-miterlimit="10"/><path d="M346.728 241.194l2.961.303 1.735-16.937-2.961-.304-1.735 16.938z" fill="#757575" stroke="#263238" stroke-miterlimit="10" stroke-linecap="round" stroke-linejoin="round"/><path d="M346.798 240.554l2.961.303.817-7.971-2.961-.303-.817 7.971z" fill="#C6B5DD" stroke="#263238" stroke-miterlimit="10"/><path d="M340.285 238.332l2.961.303 1.735-16.938-2.961-.303-1.735 16.938z" fill="#757575" stroke="#263238" stroke-miterlimit="10" stroke-linecap="round" stroke-linejoin="round"/><path d="M341.139 230.049l2.961.303.816-7.971-2.961-.303-.816 7.971z" fill="#C6B5DD" stroke="#263238" stroke-miterlimit="10"/><path d="M491.609 275.009l-135.246-13.857a1.43 1.43 0 00-1.566 1.265 1.43 1.43 0 001.265 1.566l135.246 13.857a1.43 1.43 0 001.566-1.265 1.408 1.408 0 00-1.265-1.566zm-1.036 10.182L333.312 269.08a1.43 1.43 0 00-1.566 1.265 1.43 1.43 0 001.265 1.567l157.261 16.11a1.43 1.43 0 001.566-1.265 1.408 1.408 0 00-1.265-1.566zm-67.105 3.41l-91.204-9.351a1.43 1.43 0 00-1.567 1.265 1.43 1.43 0 001.265 1.567l91.205 9.35a1.43 1.43 0 001.566-1.265 1.421 1.421 0 00-1.265-1.566z" fill="#263238"/><path opacity=".2" d="M506.527 197.662c-4.664-.374-6.278 7.061-6.278 7.061s-7.375-9.664-6.206-32.39c0 0-3.603-10.074-13.255-3.988-9.639 6.085-19.653 27.533-17.267 50.898l-18.761-62.285c-6.483 1.373-19.653 10.085-16.183 52.151l-20.472-21.642s-5.543-1.783-8.676 3.121c-3.133 4.917-1.639 40.03.952 53.164 2.602 13.146-4.013 39.523-4.013 39.523s-7.061-29.884-19.834-37.451L327.89 145.498l-16.159 157.731 18.231 1.868 29.281-14.255c-.169 6.591-.325 12.652-.807 17.171l146.331 14.99 10.472-102.206c-3.555-12.737-6.953-23.003-8.712-23.135z" fill="#000" fill-opacity=".7"/><path d="M532.265 54.655l-17.026 166.142-10.471 102.206-146.332-14.99-28.474-2.916-18.231-1.868 16.159-157.731 11.338-110.616 193.037 19.773z" stroke="#263238" stroke-miterlimit="10" stroke-linecap="round" stroke-linejoin="round"/><path d="M529.855 482.372l-85.553 14.556s-14.894-79.106-23.774-91.565c-8.881-12.472-7.254-17.593-11.568-25.992-2.603-5.073-15.653-14.532-25.895-23.87h-.012a102.338 102.338 0 01-2.591-2.422c-.361-.326-.699-.675-1.036-1-1.362-1.35-2.627-2.663-3.748-3.953a28.743 28.743 0 01-1.156-1.373c-2.133-2.639-3.639-5.109-4.145-7.339a1.799 1.799 0 01-.073-.373 3.126 3.126 0 01-.072-.446c-.229-1.868-.47-4-.711-6.314-.048-.458-.096-.94-.157-1.422-.024-.193-.048-.373-.072-.578a319.948 319.948 0 00-.699-6.085 265.804 265.804 0 00-.891-6.796c-.109-.796-.217-1.591-.35-2.398 0-.012 0-.024-.012-.024-.132-.892-.277-1.784-.422-2.687l-.397-2.314c-.024-.133-.061-.253-.073-.362-.168-.903-.337-1.783-.506-2.675a1.209 1.209 0 01-.06-.301c-.169-.783-.325-1.554-.506-2.337a91.063 91.063 0 00-1.253-5.122c-.904-3.313-1.964-6.41-3.193-9.157-6.17-13.773 1.855-8.797-2.977-44.235 0 0 3.555-8.218 13.689-1.651.783.506 1.53 1.061 2.265 1.651h.012a28.464 28.464 0 015.386 5.76c2.013 2.832 3.579 6.073 4.652 9.591 1.602 5.242 2.12 11.11 1.373 17.232 0 0 7.616 26.099 11.628 32.04 4.025 5.94 20.605-28.185 19.533-32.161-.217-.795-.518-2.735-.856-5.398-.072-.591-.144-1.217-.229-1.88-.072-.663-.156-1.35-.229-2.06-.048-.338-.084-.699-.132-1.049-.012-.144-.024-.289-.048-.422-.145-1.361-.314-2.807-.47-4.301-.036-.422-.085-.82-.133-1.229l-.217-2.169c-.024-.109-.024-.229-.036-.362a37.107 37.107 0 01-.132-1.265 154.11 154.11 0 01-.265-2.555c-.085-.735-.145-1.47-.217-2.205-.145-1.385-.278-2.771-.41-4.109-.096-1-.193-1.988-.277-2.952-.024-.217-.048-.434-.06-.638-.507-5.302-.904-9.664-1.049-11.52 0 0-12.062-17.858-13.303-26.268-1.241-8.423-1.132-17.268 3.916-20.87 11.954-8.508 8.459 5.205 13.809 10.88 5.351 5.7 13.556 14.978 18.208 17.882 4.289 2.723 8.121 13.303 8.663 14.845-.614-2.313-6.747-25.063-6.88-29.642-.157-4.832-3.844-30.317 2.422-39.463 6.254-9.133 14.592-2.048 15.363-.241.772 1.808 1 26.498 3.206 33.378a88105.86 88105.86 0 0111.435 35.511s.385-27.859 2.47-40.331c2.073-12.459 7.495-22.22 12.797-22.774 5.302-.554 10.206 5.29 10.206 5.29s-2.097 19.882-1.494 24.473c.59 4.579-.868 21.171 1.651 30.088 0 0-.29-23.75 3.398-26.786 3.699-3.037 6.856-4.495 8.928-2.446 2.061 2.048 2.519 16.11 4.627 24.569 2.121 8.471 1.844 19.954 3.23 33.149 1.386 13.194 6.844 31.51 5.76 41.981-1.085 10.447-4.423 36.438-7.11 51.681-2.687 15.255-9.543 36.125-9.543 36.125s3.121 11.146 2.518 21.087c-.614 9.941 23.847 76.118 23.847 76.118z" fill="#F5F7FA"/><path opacity=".4" d="M457.135 194.637c1.639 5.085 7.109 22.099 9.845 30.594 0 0-11.966 8.797-11.664 16.954.313 8.158-2.194 24.654-7.556 24.184-5.362-.458-4.88-34.775-6.639-40.535 1.084 2.47 1.795 4.494 1.94 4.892-.398-1.482-6.784-25.088-6.917-29.763-.036-1.096-.253-3.289-.506-6.121v-.06s11.881-11.375 20.617-4.411v.012c.265 1.736.555 3.194.88 4.254zm35.535 9.809c-5.567 5.277-13.966 14.616-15.026 23.617 0 0 3.108 25.124 1.783 36.089L468.57 230.16s.386-27.859 2.47-40.331c.061-.337.121-.687.181-1.036 5.326-2.723 12.628-5.157 21.798-5.326-.422 5.374-.759 11.134-.47 13.339.181 1.494.169 4.266.121 7.64zm4.928-4.338c-.024.024-.036.036-.048.036-.133.096-.458.349-.928.747.301-.554.614-1.085.952-1.567l.024.784z" fill="#C6B5DD"/><path opacity=".4" d="M500.429 269.598s-7.157-26.846-7.278-48.464c-.048-8.001.868-15.291 3.459-20.219l.012-.012c.301-.554.614-1.085.952-1.567l.024.784c1.53-1.254 2.952-2.242 4.265-2.82-2.012 3.133-4.325 9.266-1.65 19.231 4.205 15.605.542 34.679.216 53.067zm-98.723 51.163s1.928 25.582-18.641 34.752h-.012a127.844 127.844 0 01-2.59-2.422c-.362-.337-.699-.675-1.037-1-1.361-1.35-2.626-2.663-3.747-3.953-.41-.469-.795-.927-1.157-1.373-2.133-2.639-3.639-5.109-4.145-7.338a2.072 2.072 0 01-.072-.374 3.133 3.133 0 01-.073-.446c-.229-1.868-.47-4-.711-6.314-.048-.458-.096-.94-.156-1.422-.024-.193-.048-.385-.06-.578-.217-1.928-.446-3.977-.699-6.085a265.883 265.883 0 00-.892-6.796c-.12-.796-.229-1.603-.349-2.398 0-.012 0-.024-.012-.024-.133-.892-.278-1.796-.422-2.687l-.398-2.326-.072-.362c-.169-.891-.338-1.783-.518-2.675a2.866 2.866 0 01-.061-.301 116.565 116.565 0 00-1.759-7.459c8.134-7.832 26.907-2.916 17.822-21.05 0 0 4.579-15.52-8.037-32.354h.012c8.627 6.965 13.049 19.183 11.411 32.595 0 0 7.615 26.087 11.628 32.04 4.024 5.94 20.605-28.185 19.52-32.161-.205-.783-.506-2.735-.843-5.398-.073-.591-.145-1.217-.229-1.88-.085-.663-.157-1.35-.241-2.06a27.3 27.3 0 01-.121-1.037c-.012-.144-.024-.289-.048-.421a594.312 594.312 0 00-.47-4.314c-.036-.41-.084-.82-.132-1.229a467.99 467.99 0 01-.253-2.531c-.037-.41-.097-.831-.133-1.277-.096-.844-.169-1.699-.265-2.555l-.217-2.205c-.133-1.385-.277-2.771-.398-4.109-.096-1-.192-2-.289-2.94-.024-.217-.036-.434-.06-.65.337 1.578 6.447 30.666 9.929 37.438 3.579 6.989-11.616 43.704-21.003 37.679zm111.328 28.281c-2.687 15.255-9.532 36.125-9.532 36.125s3.121 11.146 2.507 21.087c-.169 2.675 1.494 9.423 3.976 17.858-.723-1.856-8.399-21.762-8.278-28.702.145-7.291-1.928-9.303-5.989-18.256-4.048-8.965-10.254-7.965-10.254-7.965s-2.386 22.341-8.001 7.664c-5.603-14.689-6.688-31.751 7.447-91.036 0 0 2.132 7.435.349 29.522-1.795 22.099 3.494 28.775 3.494 28.775s11.424-18.81 18.786-43.813c0 0-1.82 25.774-3.458 37.523-1.627 11.736 5.796-13.604 10.977-29.269 4.868-14.689 5.049-20.28 3.193-30.739 1.374 7.375 2.41 14.4 1.88 19.533-1.072 10.459-4.41 36.45-7.097 51.693zm-96.675 49.693c4.169 6.628 14.375 15.388 20.46 39.62 6.085 24.232 2.253 50.753 2.253 50.753l-22.713-90.373z" fill="#C6B5DD"/><path opacity=".2" d="M383.957 261.139s-21.34 10.809-23.027 28.884c-6.17-13.773 1.856-8.797-2.976-44.235 0 0 3.554-8.218 13.688-1.651.783.506 1.53 1.061 2.266 1.651h.012a28.52 28.52 0 015.386 5.76l4.651 9.591z" fill="#000" fill-opacity=".7"/><path d="M444.302 496.93s-14.881-79.107-23.774-91.566c-8.881-12.459-7.254-17.593-11.568-25.991-4.314-8.399-37.27-28.835-38.728-40.777-1.458-11.929-3.133-34.799-9.302-48.572-6.17-13.785 1.856-8.796-2.988-44.234 0 0 3.578-8.206 13.7-1.651 10.122 6.567 15.46 19.701 13.689 34.245 0 0 7.615 26.088 11.628 32.028 4.024 5.953 20.593-28.184 19.52-32.173-1.072-3.988-4.253-37.92-4.747-44.102 0 0-12.062-17.869-13.303-26.268-1.241-8.411-1.133-17.267 3.916-20.858 11.953-8.507 8.459 5.205 13.809 10.893 5.35 5.687 13.556 14.966 18.207 17.882 4.651 2.916 8.724 15.026 8.724 15.026s-6.796-24.991-6.941-29.823c-.144-4.832-3.844-30.317 2.422-39.451s14.605-2.049 15.364-.253c.771 1.807 1.012 26.497 3.217 33.366 2.205 6.88 11.423 35.522 11.423 35.522s.398-27.859 2.47-40.33c2.085-12.472 7.507-22.232 12.797-22.774 5.302-.555 10.206 5.29 10.206 5.29s-2.096 19.882-1.506 24.473c.59 4.59-.856 21.171 1.663 30.088 0 0-.301-23.75 3.398-26.787 3.699-3.036 6.856-4.494 8.917-2.446 2.072 2.048 2.518 16.11 4.639 24.569 2.108 8.459 1.843 19.955 3.229 33.149 1.386 13.195 6.844 31.51 5.76 41.969-1.085 10.46-4.434 36.439-7.122 51.694-2.687 15.255-9.531 36.125-9.531 36.125s3.121 11.146 2.507 21.087c-.615 9.941 23.846 76.118 23.846 76.118" stroke="#263238" stroke-miterlimit="10" stroke-linecap="round" stroke-linejoin="round"/><path d="M468.558 230.148c2.494 5.856 8.652 30.582 10.857 34.004 2.205 3.422 4.699 4.458 4.699 4.458m10.086-41.716s-.53 5.061 2.205 21.22c2.735 16.146 4.073 23.027 5.603 26.63m-58.923-43.958c3.35 9.845 5.229 25.534 7.133 30.257 1.904 4.724 3.603 5.7 3.603 5.7m-5.326-12.339s3.507 2.602 4.627 5.844m-56.151 50.163s1.831 13.05 10.013 12.013m9.495-44.186s2.121 15.508-1.362 22.099m66.72-21.954s5.494 3.361 1.819 13.23-10.061 49.681-10.061 49.681m32.161-52.5c2.301 8.916 2.506 9.145-1.23 20.099-3.747 10.953-9.772 37.775-9.772 37.775m8.748 38.499s-3.591-7.254-.626-13.218m-82.348 33.414s9.085 12.76 13.038 27.039" stroke="#263238" stroke-miterlimit="10" stroke-linecap="round" stroke-linejoin="round"/><path d="M487.38 181.684l2.458-2.422 1.108-.326-.072 1.205-2.265 2.88-1.229-1.337z" fill="#757575" stroke="#263238" stroke-miterlimit="10" stroke-linecap="round" stroke-linejoin="round"/><path d="M489.368 183.033l-3.989 9.074-107.483 143.307-11.977-7.628 16.255-20.388 96.542-121.099 8.519-5.411c-.012-.012 1.808.458 2.133 2.145z" fill="#C6B5DD"/><path opacity=".3" d="M489.368 183.033l-3.989 9.074-107.483 143.307-11.977-7.628 16.255-20.388c7.47-.771 8.712 3.639 8.712 3.639l92.602-120.858c-.904-3.254-4.772-3.88-4.772-3.88l8.519-5.411c-.012-.012 1.808.458 2.133 2.145z" fill="#000" fill-opacity=".7"/><path d="M489.368 183.033l-3.989 9.074-107.483 143.307-11.977-7.628 16.255-20.388 96.542-121.099 8.519-5.411c-.012-.012 1.808.458 2.133 2.145z" stroke="#263238" stroke-miterlimit="10" stroke-linecap="round" stroke-linejoin="round"/><path d="M412.949 292.975s-11.99 23.81-23.533 40.656l-8.242 2.132s-18.919 18.798-30.462 28.185c0 0-2.964-1.723-5.639-4.736 0 0 16.387-31.474 34.522-51.392 0 0 2.639.807 5.953 3.157a29.14 29.14 0 016.205 5.953l20.208-25.425.988 1.47z" fill="#C6B5DD"/><path opacity=".3" d="M412.949 292.975s-11.99 23.81-23.534 40.656l-8.242 2.132s-18.918 18.798-30.461 28.185l.313-5.109c12.52-19.123 28.425-39.981 34.51-47.862a29.119 29.119 0 016.206 5.953l-11.23 14.99 6.434-1.157 25.003-39.258 1.001 1.47z" fill="#000" fill-opacity=".7"/><path d="M412.949 292.975s-11.99 23.81-23.533 40.656l-8.242 2.132s-18.919 18.798-30.462 28.185c0 0-2.964-1.723-5.639-4.736 0 0 16.387-31.474 34.522-51.392 0 0 2.639.807 5.953 3.157a29.14 29.14 0 016.205 5.953l20.208-25.425.988 1.47z" stroke="#263238" stroke-miterlimit="10" stroke-linecap="round" stroke-linejoin="round"/><path d="M453.81 266.743l-33.57 32.558-5.362 5.206c3.675-9.447 1.891-24.039 1.662-25.823v-.024c-.012-.096-.024-.157-.024-.157 0-.084-.012-.192-.024-.253-.205-.783-.506-2.735-.843-5.398-.073-.59-.145-1.217-.229-1.88-.085-.662-.157-1.349-.241-2.06a27.485 27.485 0 01-.121-1.036c-.012-.145-.024-.29-.048-.422-.145-1.362-.313-2.808-.47-4.314-.036-.41-.084-.819-.132-1.229a467.99 467.99 0 01-.253-2.531c-.037-.409-.097-.831-.133-1.277-.096-.843-.169-1.699-.265-2.554l-.217-2.205c-.133-1.386-.277-2.772-.398-4.109a160.825 160.825 0 01-.289-2.941c-.024-.216-.036-.433-.06-.65-.506-5.302-.904-9.652-1.048-11.52 0 0-12.05-17.857-13.303-26.268-1.241-8.411-1.133-17.267 3.916-20.858 11.953-8.519 8.447 5.193 13.797 10.881 5.35 5.699 13.568 14.965 18.207 17.881 4.639 2.929 8.724 15.026 8.724 15.026 3.338 9.845 5.23 25.522 7.133 30.257 1.904 4.724 3.591 5.7 3.591 5.7z" fill="#fff"/><path d="M448.495 254.404s3.507 2.602 4.627 5.844" stroke="#263238" stroke-miterlimit="10" stroke-linecap="round" stroke-linejoin="round"/><path opacity=".4" d="M416.155 197.88c5.326 5.687 13.507 14.905 18.158 17.858-.65-.326-9.218-4.507-14.001.144-4.977 4.844-8.58 18.255-8.58 18.255s-12.049-17.857-13.303-26.268c-1.241-8.411-1.132-17.267 3.917-20.858 11.953-8.519 8.458 5.193 13.809 10.869zm4.084 101.421l-5.362 5.205c3.675-9.447 1.891-24.039 1.662-25.822v-.024a1.83 1.83 0 00-.048-.41c-.205-.783-.506-2.735-.843-5.398-.073-.591-.145-1.217-.229-1.88-.085-.663-.157-1.35-.241-2.06a27.3 27.3 0 01-.121-1.037c-.012-.144-.024-.289-.048-.421a656.098 656.098 0 00-.47-4.314c-.036-.41-.084-.82-.132-1.229a467.99 467.99 0 01-.253-2.531c-.037-.409-.097-.831-.133-1.277-.096-.844-.169-1.699-.265-2.555l-.217-2.205c-.133-1.385-.277-2.771-.398-4.109-.096-1-.192-2-.289-2.94-.024-.217-.036-.434-.06-.65.337 1.578 6.447 30.666 9.929 37.438 1.301 2.579.072 9.194-2.482 16.219z" fill="#C6B5DD"/><path d="M453.809 266.743s-1.699-.976-3.603-5.7c-1.904-4.723-3.795-20.412-7.133-30.257 0 0-4.085-12.11-8.724-15.026-4.651-2.916-12.845-12.194-18.207-17.882-5.35-5.687-1.856-19.4-13.809-10.893-5.049 3.591-5.145 12.448-3.916 20.859 1.241 8.41 13.303 26.268 13.303 26.268.494 6.193 3.675 40.125 4.747 44.102m.012.024s2.121 15.508-1.362 22.099" stroke="#263238" stroke-miterlimit="10" stroke-linecap="round" stroke-linejoin="round"/><path opacity=".2" d="M210.393 297.216s7.627 35.414-8.893 61.189c-16.52 25.762-29.233 32.642-34.956 40.33-5.724 7.688-28.1 50.669-28.1 50.669l-26.148-77.443 26.148-95.808 71.949 21.063z" fill="#000" fill-opacity=".7"/><path d="M364.509 270.14l-162.142 68.238-16.712 7.037-31.498-74.841L81.015 96.781l178.854-75.275 104.64 248.634z" fill="#fff"/><path d="M213.658 53.86l-77.202 32.486c-1.446.615-2.133 2.278-1.519 3.723.615 1.446 2.278 2.133 3.724 1.519l77.202-32.486c1.446-.615 2.133-2.278 1.519-3.724a2.83 2.83 0 00-3.724-1.518zm-14.761 18.906L160.29 89.009a1.431 1.431 0 00-.759 1.868 1.431 1.431 0 001.868.759l38.607-16.243a1.431 1.431 0 00.759-1.868c-.313-.723-1.145-1.072-1.868-.759z" fill="#263238"/><path d="M262.411 171.73s1.627 12.785-3.133 14.797c-4.35 1.832-10.073-5.036-15.074-2.928-5 2.109-1.06 20.232-5.88 22.268-4.82 2.025-10.628-5.422-14.785-3.675-4.157 1.747-1.639 11.074-5.929 12.881-3.542 1.494-8.603-5.928-12.652-7.555-.855-.349-1.675-.434-2.41-.12-4.241 1.783-2.133 21.267-5.796 22.798a6.726 6.726 0 01-3.253.53c-1.446-.097-2.723-.53-4.133-.386a5.2 5.2 0 00-1.542.398c-3.121 1.313-2.7 11.568-5.555 12.773-2.856 1.205-5.676-.29-8.724 1-3.049 1.289-3.001 6.615-7.544 8.531l1.928 4.567 110.99-46.705" fill="#BFBFBF"/><path d="M262.411 171.73s1.627 12.785-3.133 14.797c-4.35 1.832-10.073-5.036-15.074-2.928-5 2.109-1.06 20.232-5.88 22.268-4.82 2.025-10.628-5.422-14.785-3.675-4.157 1.747-1.639 11.074-5.929 12.881-3.542 1.494-8.603-5.928-12.652-7.555-.855-.349-1.675-.434-2.41-.12-4.241 1.783-2.133 21.267-5.796 22.798a6.726 6.726 0 01-3.253.53c-1.446-.097-2.723-.53-4.133-.386a5.2 5.2 0 00-1.542.398c-3.121 1.313-2.7 11.568-5.555 12.773-2.856 1.205-5.676-.29-8.724 1-3.049 1.289-3.001 6.615-7.544 8.531l1.928 4.567 110.99-46.705" stroke="#263238" stroke-miterlimit="10"/><path d="M145.433 204.204l22.472 53.393 116.208-48.898" stroke="#263238" stroke-miterlimit="10" stroke-linecap="round" stroke-linejoin="round"/><path d="M271.34 192.95s-.542-.675-1.373-1.47c-1.434-1.386-3.712-3.145-5.447-2.422-1.699.711-1.844 3.53-1.807 6.531.036 3.663.361 7.591-1.482 8.374-1.567.663-2.965-.337-4.411-1.409-1.65-1.229-3.337-2.579-5.374-1.724-3.422 1.446-2.386 5.905-3.591 9.725-.614 1.952-1.819 3.735-4.506 4.868-2.964 1.241-5.965.024-8.785-1.904-4.771-3.254-9.061-8.531-11.844-7.363-4.423 1.856.458 13.821-4.302 15.822-2.651 1.12-8.146-7.254-13.484-14.448-4.217-5.699-8.338-10.652-10.881-9.591-5.735 2.409 3.712 31.003-.458 32.763-.036.012-.084.036-.132.048-1.735.687-3.013.253-4.133-.386-1.506-.855-2.723-2.06-4.386-1.361-3.073 1.289-1.265 12.495-4.651 13.929-3.386 1.422-5.411-.638-9.219.964-3.217 1.35-5.133 9.158-5.133 9.158l1.928 4.567 110.99-46.705" fill="#757575"/><path d="M271.34 192.95s-.542-.675-1.373-1.47c-1.434-1.386-3.712-3.145-5.447-2.422-1.699.711-1.844 3.53-1.807 6.531.036 3.663.361 7.591-1.482 8.374-1.567.663-2.965-.337-4.411-1.409-1.65-1.229-3.337-2.579-5.374-1.724-3.422 1.446-2.386 5.905-3.591 9.725-.614 1.952-1.819 3.735-4.506 4.868-2.964 1.241-5.965.024-8.785-1.904-4.771-3.254-9.061-8.531-11.844-7.363-4.423 1.856.458 13.821-4.302 15.822-2.651 1.12-8.146-7.254-13.484-14.448-4.217-5.699-8.338-10.652-10.881-9.591-5.735 2.409 3.712 31.003-.458 32.763-.036.012-.084.036-.132.048-1.735.687-3.013.253-4.133-.386-1.506-.855-2.723-2.06-4.386-1.361-3.073 1.289-1.265 12.495-4.651 13.929-3.386 1.422-5.411-.638-9.219.964-3.217 1.35-5.133 9.158-5.133 9.158l1.928 4.567 110.99-46.705" stroke="#263238" stroke-miterlimit="10" stroke-linecap="round" stroke-linejoin="round"/><path d="M247.843 231.063l-38.607 16.243a1.431 1.431 0 00-.759 1.868 1.431 1.431 0 001.868.759l38.607-16.243a1.431 1.431 0 00.759-1.868 1.427 1.427 0 00-1.868-.759z" fill="#263238"/><path d="M280.582 172.212l-3.735 1.567a.763.763 0 01-.988-.398l-1.567-3.735a.764.764 0 01.398-.988l3.736-1.567a.764.764 0 01.988.398l1.566 3.735a.75.75 0 01-.398.988z" fill="#BFBFBF" stroke="#263238" stroke-miterlimit="10"/><path d="M298.597 160.801l-15.424 6.495a.633.633 0 01-.831-.337.634.634 0 01.337-.832l15.424-6.495a.634.634 0 11.494 1.169zm-3.627 4.543l-10.725 4.507a.633.633 0 11-.494-1.169l10.725-4.507a.633.633 0 01.831.338.641.641 0 01-.337.831z" fill="#263238"/><path d="M285.414 183.672l-3.735 1.566a.762.762 0 01-.988-.398l-1.567-3.735a.763.763 0 01.398-.988l3.735-1.566a.763.763 0 01.988.397l1.567 3.736a.763.763 0 01-.398.988z" fill="#757575" stroke="#263238" stroke-miterlimit="10" stroke-linecap="round" stroke-linejoin="round"/><path d="M303.417 172.273l-15.424 6.494a.634.634 0 11-.494-1.168l15.424-6.495a.633.633 0 01.831.337c.145.313-.012.687-.337.832zm-3.627 4.53l-10.725 4.507a.633.633 0 01-.831-.337.634.634 0 01.337-.832l10.725-4.507a.634.634 0 01.831.338.623.623 0 01-.337.831zm23.918 42.753l-125.305 52.729a1.432 1.432 0 00-.759 1.868 1.431 1.431 0 001.868.759l125.305-52.729a1.432 1.432 0 00.759-1.868c-.313-.723-1.145-1.073-1.868-.759zm3.977 9.435l-145.706 61.321a1.43 1.43 0 00-.759 1.867 1.432 1.432 0 001.868.76l145.705-61.322a1.43 1.43 0 00.759-1.867c-.313-.723-1.144-1.073-1.867-.759zm3.964 9.435l-145.705 61.321a1.43 1.43 0 00-.759 1.867 1.43 1.43 0 001.867.759l145.706-61.321a1.43 1.43 0 00.759-1.867 1.42 1.42 0 00-1.868-.759zm3.976 9.435L189.92 309.182a1.43 1.43 0 00-.759 1.867 1.43 1.43 0 001.868.759l145.705-61.321a1.43 1.43 0 00.759-1.867c-.313-.723-1.145-1.073-1.868-.759zm-57.236 35.185l-84.504 35.558a1.432 1.432 0 00-.76 1.868 1.43 1.43 0 001.868.759l84.505-35.558a1.432 1.432 0 00.759-1.868 1.435 1.435 0 00-1.868-.759z" fill="#263238"/><path d="M231.853 99.107s1.627 12.784-3.133 14.797c-4.35 1.831-10.073-5.037-15.074-2.928-5.001 2.108-1.06 20.231-5.88 22.268-4.82 2.024-10.628-5.423-14.785-3.676-4.157 1.748-1.639 11.074-5.929 12.882-3.542 1.494-8.603-5.929-12.652-7.556-.855-.349-1.675-.433-2.41-.12-4.241 1.783-2.133 21.268-5.796 22.798a6.726 6.726 0 01-3.253.53c-1.446-.096-2.723-.53-4.133-.385a5.21 5.21 0 00-1.543.397c-3.12 1.314-2.699 11.568-5.554 12.773-2.856 1.205-5.676-.289-8.724 1-3.049 1.289-3.001 6.615-7.544 8.531l1.928 4.567 110.99-46.705" fill="#BFBFBF"/><path d="M231.853 99.107s1.627 12.784-3.133 14.797c-4.35 1.831-10.073-5.037-15.074-2.928-5.001 2.108-1.06 20.231-5.88 22.268-4.82 2.024-10.628-5.423-14.785-3.676-4.157 1.748-1.639 11.074-5.929 12.882-3.542 1.494-8.603-5.929-12.652-7.556-.855-.349-1.675-.433-2.41-.12-4.241 1.783-2.133 21.268-5.796 22.798a6.726 6.726 0 01-3.253.53c-1.446-.096-2.723-.53-4.133-.385a5.21 5.21 0 00-1.543.397c-3.12 1.314-2.699 11.568-5.554 12.773-2.856 1.205-5.676-.289-8.724 1-3.049 1.289-3.001 6.615-7.544 8.531l1.928 4.567 110.99-46.705" stroke="#263238" stroke-miterlimit="10"/><path d="M239.023 116.157s1.012 6.194-1.434 7.23c-2.037.855-3.29-.338-5.435-.41-.855-.036-1.855.109-3.108.639-1.964.819-2.434 3.47-2.784 6.326-.434 3.506-.651 7.302-3.217 8.387-1.796.759-3.736.313-5.736-.386-3.181-1.109-6.543-2.868-9.772-1.506-1.567.662-2.663 2.361-3.519 4.47-2.012 4.977-2.639 12.182-4.82 13.098-3.096 1.302-8.772-4.024-11.519-2.868-2.747 1.157-1.627 5.941-3.856 6.881-2.229.94-3.506-1.832-7.435-.181-3.928 1.651-2.012 7.459-7.555 9.784-5.543 2.326-7.965-1.952-13.327.302-5.362 2.253-4.386 6.314-8.157 7.904-3.772 1.591-5.375-1.169-8.074-.036-2.627 1.109-3.338 5.41-3.386 5.688l1.482 3.518 110.99-46.705" fill="#C6B5DD"/><path d="M239.023 116.157s1.012 6.194-1.434 7.23c-2.037.855-3.29-.338-5.435-.41-.855-.036-1.855.109-3.108.639-1.964.819-2.434 3.47-2.784 6.326-.434 3.506-.651 7.302-3.217 8.387-1.796.759-3.736.313-5.736-.386-3.181-1.109-6.543-2.868-9.772-1.506-1.567.662-2.663 2.361-3.519 4.47-2.012 4.977-2.639 12.182-4.82 13.098-3.096 1.302-8.772-4.024-11.519-2.868-2.747 1.157-1.627 5.941-3.856 6.881-2.229.94-3.506-1.832-7.435-.181-3.928 1.651-2.012 7.459-7.555 9.784-5.543 2.326-7.965-1.952-13.327.302-5.362 2.253-4.386 6.314-8.157 7.904-3.772 1.591-5.375-1.169-8.074-.036-2.627 1.109-3.338 5.41-3.386 5.688l1.482 3.518 110.99-46.705" stroke="#263238" stroke-miterlimit="10"/><path d="M114.875 131.593l22.472 53.392 116.208-48.898" stroke="#263238" stroke-miterlimit="10" stroke-linecap="round" stroke-linejoin="round"/><path d="M216.936 157.62l-38.608 16.243a1.431 1.431 0 00-.759 1.868 1.431 1.431 0 001.868.759l38.607-16.243a1.426 1.426 0 00-1.108-2.627z" fill="#263238"/><path d="M248.072 94.962l-3.735 1.566a.763.763 0 01-.988-.398l-1.567-3.735a.764.764 0 01.398-.988l3.735-1.566a.763.763 0 01.988.397l1.567 3.736a.747.747 0 01-.398.988z" fill="#BFBFBF" stroke="#263238" stroke-miterlimit="10"/><path d="M266.086 83.55l-15.423 6.495a.633.633 0 11-.494-1.169l15.423-6.494a.634.634 0 01.832.337.624.624 0 01-.338.832zm-3.626 4.543L251.735 92.6a.633.633 0 01-.831-.337.633.633 0 01.337-.832l10.725-4.507a.633.633 0 01.831.338.641.641 0 01-.337.831z" fill="#263238"/><path d="M252.904 106.433l-3.735 1.566a.763.763 0 01-.988-.397l-1.567-3.736a.763.763 0 01.398-.988l3.735-1.566a.763.763 0 01.988.397l1.567 3.736a.772.772 0 01-.398.988z" fill="#C6B5DD" stroke="#263238" stroke-miterlimit="10"/><path d="M270.906 95.022l-15.423 6.495a.634.634 0 01-.832-.338.633.633 0 01.338-.831l15.423-6.495a.634.634 0 11.494 1.169zm-3.627 4.543l-10.724 4.506a.633.633 0 01-.831-.337.634.634 0 01.337-.832l10.724-4.506a.634.634 0 01.832.337c.144.313-.012.687-.338.832z" fill="#263238"/><path opacity=".2" d="M202.368 338.378l-16.713 7.037-31.498-74.841c1.976-1.88 4.289-5.097 5.265-10.326 1.88-10.026.555-42.259 25.654-45.584 25.088-3.326 3.928 53.115 5.085 63.875 1.061 9.797 15.364 38.27 12.207 59.839z" fill="#000" fill-opacity=".7"/><path d="M364.509 270.14l-162.142 68.238-16.712 7.037-31.498-74.841L81.015 96.781l178.854-75.275 104.64 248.634z" stroke="#263238" stroke-miterlimit="10" stroke-linecap="round" stroke-linejoin="round"/><path d="M192.27 282.624c2.807-9.616 13.797-40.5 12.363-54.152a13.514 13.514 0 00-.771-3.326c-3.856-10.194-19.617-9.206-25.678-.759-6.652 9.291-12.074 26.016-12.544 36.186-.253 5.627-2.663 10.784-4.772 14.291-.012.024-.012.036-.024.048-1.699 2.819-3.193 4.53-3.193 4.53l-35.968-85.336s-5.808 4.7-9.411 10.508c-1.458 2.325-2.543 4.856-2.76 7.314-.735 8.398-10.254 42.933-14.218 57.513-.073.313-.169.603-.241.892-3.808 14.002 6.241 66.008 3.374 81.119-2.88 15.098-4.664 14.773-5.073 25.497-.302 7.832-11.508 31.642-24.064 56.091-7.193 14.014-14.845 28.221-21.147 39.728l91.964-3.82c1.59-11.17 3.229-22.966 4.723-34.377.615-4.7 1.615-9.532 2.747-14.111v-.012c2.025-8.194 4.507-15.604 6.001-19.942 2.35-6.772 4.796-19.4 4.796-19.4 10.7-11.327 24.726-29.112 28.787-41.174a.222.222 0 00.024-.084c1.024-3.049 1.398-5.724.916-7.821-.41-1.735-.627-3.988-.723-6.579.012-.012.012-.012 0-.024-.446-13.062 2.53-34.787 4.892-42.8z" fill="#F5F7FA"/><path opacity=".4" d="M160.856 274.9c-2.856 5.724-6.29 11.279-8.483 17.701-2.193 6.411-4.542 7.326-10.989 12.339-6.435 5.025-11.134-3.253-11.134-3.253s8.519-8.845 5.687-13.773c-2.843-4.929-13.423-17.183-12.796-23.943.614-6.76-6.423-21.918-6.423-21.918s16.062-9.423 12.942-20.437c-1.699-6.037-10.11-12.447-17.364-17.014 3.603-5.808 9.411-10.507 9.411-10.507l35.968 85.336c-.012 0 1.482-1.723 3.181-4.531zm-58.32 52.344c.216.723 5.446 17.99 1.036 25.184-4.519 7.35-8.941 16.737-6.784 26.497 1.723 7.809-12.737 36.005-27.486 54.104 12.556-24.449 23.762-48.26 24.064-56.092.421-10.724 2.193-10.399 5.073-25.497 2.868-15.11-7.17-67.117-3.374-81.119.072-.289.169-.578.24-.891 2.808 15.869 9.351 47.475 11.147 57.633 2.289 12.93-3.675.687-3.916.181zm33.112 104.194c10.688-46.018 46.657-81.299 51.525-91.518-4.061 12.05-18.087 29.848-28.787 41.174 0 0-2.446 12.616-4.796 19.4-1.506 4.338-3.976 11.749-6 19.943v.012c-10.448 12.302-11.942 10.989-11.942 10.989zm56.622-148.814c-2.362 8.013-5.35 29.739-4.88 42.789-1.892-8.194-5.531-18.605-6.134-33.101-1.024-24.581 12.906-15.761 8.05-27.871-4.856-12.098-18.702 3.41-11.881-22.22 4.976-18.713 19.159-18.544 26.437-17.086.373.988.638 2.096.771 3.325 1.446 13.653-9.544 44.536-12.363 54.164z" fill="#C6B5DD"/><path d="M62.145 447.38c11.532-21.075 22.75-42.753 30.823-66.129.964-3.362-.325-7.736.65-11.098 10.93-30.365-1.47-61.972.567-93.06 1.711-12.254 5.627-24.605 9.543-36.944 1.844-8.941 2.543-18.93 5.483-27.92 3.037-6.771 6.037-14.652 12.496-18.122 12.29 28.172 24.545 56.453 35.968 85.336 5.157-2.989 5.989-9.664 6.868-15.243 2.772-13.411 5.579-25.702 10.652-36.993 5.158-9.073 18.292-12.941 26.353-5.531 2.302 2.121 3.543 5.387 3.687 8.712-1.566 15.569-6.458 31.282-11.387 45.886-1.94 6.724-3.916 12.351-4.747 19.026.096 2.217.132 3.314.229 5.531-2.856 11.194-.229 21.051-.88 32.161-2.494 20.038-18.52 34.004-30.088 48.873-2.856 11.195-5.712 22.389-9.676 33.631-4.844 16.822-6.362 33.498-8.013 49.705" stroke="#263238" stroke-miterlimit="10" stroke-linecap="round" stroke-linejoin="round"/><path d="M157.675 279.431s-3.783 7.266-5.29 13.17c-1.506 5.904-9.133 5.049-13.074 8.724" stroke="#263238" stroke-miterlimit="10" stroke-linecap="round" stroke-linejoin="round"/><path d="M128.9 269.032s10.375 3.663 16.412 8.374c6.037 4.712 10.507 5.869 10.507 5.869m-33.534-39.969s8.374 2.349 14.58-.603c0 0 .458-5.133 1.579-8.905m.421 10.122s.085 1.169 4.362 1.217m15.159 135.957s-8.17 7.411-13.158 20.762M94.583 272.888c-.374 7.218 8.097 32.871 10.676 45.608 2.578 12.749 3.53 21.762 3.53 21.762" stroke="#263238" stroke-miterlimit="10" stroke-linecap="round" stroke-linejoin="round"/></svg>