<svg width="405" height="361" fill="none" xmlns="http://www.w3.org/2000/svg"><path d="M381.378 151.181c.949-5.439 2.472-10.827 3.562-16.366 2.079-10.605 2.008-21.703.454-32.389-3.047-20.855-11.825-40.682-23.873-56.846-13.288-17.839-33.276-32.257-54.778-26.829-22.359 5.65-41.287 22.894-63.031 30.764-36.828 13.319-74.11-10.958-111.231-10.14-32.035.696-65.665 12.198-86.773 40.642-8.627 11.613-14.62 27.293-12.582 42.629 2.492 18.737 16.235 32.994 26.496 46.858 15.72 21.249 21.663 44.345 8.445 69.186-8.94 16.81-20.966 31.662-19.927 52.538 1.665 33.398 32.5 53.567 57.926 62.567 25.82 9.142 55.161 10.131 80.84-.201 22.813-9.182 38.735-29.291 59.47-42.075 18.666-11.513 39.946-15.932 61.054-13.4 21.975 2.634 45.132 7.245 66.371-2.219 20.321-9.061 29.947-33.347 30.703-56.605.374-11.603-1.291-23.358-5.146-34.154-4.712-13.177-15.144-23.449-18.071-37.433-1.2-5.701-.837-11.139.091-16.527z" fill="#C6B5DD"/><path opacity=".7" d="M381.378 151.181c.949-5.439 2.472-10.827 3.562-16.366 2.079-10.605 2.008-21.703.454-32.389-3.047-20.855-11.825-40.682-23.873-56.846-13.288-17.839-33.276-32.257-54.778-26.829-22.359 5.65-41.287 22.894-63.031 30.764-36.828 13.319-74.11-10.958-111.231-10.14-32.035.696-65.665 12.198-86.773 40.642-8.627 11.613-14.62 27.293-12.582 42.629 2.492 18.737 16.235 32.994 26.496 46.858 15.72 21.249 21.663 44.345 8.445 69.186-8.94 16.81-20.966 31.662-19.927 52.538 1.665 33.398 32.5 53.567 57.926 62.567 25.82 9.142 55.161 10.131 80.84-.201 22.813-9.182 38.735-29.291 59.47-42.075 18.666-11.513 39.946-15.932 61.054-13.4 21.975 2.634 45.132 7.245 66.371-2.219 20.321-9.061 29.947-33.347 30.703-56.605.374-11.603-1.291-23.358-5.146-34.154-4.712-13.177-15.144-23.449-18.071-37.433-1.2-5.701-.837-11.139.091-16.527z" fill="#fff"/><path d="M251.603 349.578l128.837-48.331.938-10.312-127.899 48.341-1.876 10.302z" fill="#C6B5DD" stroke="#263238" stroke-width="1.136" stroke-miterlimit="10" stroke-linecap="round" stroke-linejoin="round"/><path d="M229.909 178.696c-2.22 0-4.369-.777-6.195-2.26-2.17-1.756-3.602-4.299-4.046-7.164a1.969 1.969 0 011.644-2.24 1.96 1.96 0 012.24 1.644c.293 1.897 1.231 3.572 2.634 4.712 1.352 1.09 2.966 1.564 4.581 1.312 1.604-.242 3.006-1.18 3.965-2.633a1.965 1.965 0 012.724-.555 1.957 1.957 0 01.555 2.724c-1.574 2.391-3.935 3.935-6.649 4.349-.484.07-.969.111-1.453.111zm-18.596 5.721c-4.974 0-9.413-3.956-10.261-9.424a1.97 1.97 0 011.645-2.24c1.059-.172 2.078.575 2.24 1.644.595 3.845 3.824 6.549 7.214 6.024 1.604-.242 3.007-1.18 3.965-2.633a1.956 1.956 0 012.724-.555 1.955 1.955 0 01.555 2.724c-1.574 2.391-3.935 3.935-6.649 4.349-.484.08-.968.111-1.433.111zm-17.012 6.548c-2.219 0-4.379-.777-6.195-2.26-2.169-1.756-3.602-4.298-4.046-7.164a1.97 1.97 0 011.645-2.24 1.963 1.963 0 012.24 1.645c.292 1.897 1.231 3.572 2.633 4.712 1.352 1.099 2.977 1.564 4.581 1.311 1.604-.252 3.007-1.18 3.965-2.633a1.958 1.958 0 012.725-.555 1.957 1.957 0 01.555 2.724c-1.574 2.392-3.935 3.935-6.65 4.349a8.771 8.771 0 01-1.453.111zm-18.595 5.327c-4.974 0-9.414-3.955-10.261-9.424a1.968 1.968 0 011.644-2.239 1.961 1.961 0 012.24 1.644c.595 3.844 3.824 6.549 7.214 6.024 1.605-.242 3.017-1.181 3.966-2.634a1.957 1.957 0 012.724-.555 1.958 1.958 0 01.555 2.725c-1.574 2.391-3.935 3.935-6.649 4.348a9.858 9.858 0 01-1.433.111zm-19.04 7.568c-4.974 0-9.413-3.955-10.261-9.424a1.97 1.97 0 011.645-2.24 1.962 1.962 0 012.24 1.645c.595 3.844 3.824 6.548 7.214 6.023 1.604-.242 3.017-1.18 3.965-2.633a1.956 1.956 0 012.724-.555 1.955 1.955 0 01.555 2.724c-1.574 2.391-3.935 3.935-6.649 4.349-.474.07-.958.111-1.433.111zm-18.434 6.75c-2.22 0-4.369-.777-6.195-2.26-2.169-1.756-3.602-4.298-4.046-7.164a1.97 1.97 0 011.645-2.24 1.963 1.963 0 012.24 1.645c.292 1.897 1.231 3.571 2.633 4.712 1.352 1.089 2.977 1.564 4.581 1.311 1.604-.242 3.017-1.18 3.965-2.633a1.957 1.957 0 012.724-.555 1.956 1.956 0 01.555 2.724c-1.574 2.392-3.935 3.935-6.649 4.349a8.78 8.78 0 01-1.453.111z" fill="#263238"/><path d="M255.133 343.292l106.62-39.28m-109.424 42.559l68.268-25.255" stroke="#263238" stroke-width=".568" stroke-miterlimit="10" stroke-linecap="round" stroke-linejoin="round"/><path d="M123.229 206.08v12.178l128.373 131.32 1.877-10.302-130.25-133.196z" fill="#C6B5DD" stroke="#263238" stroke-width="1.136" stroke-miterlimit="10" stroke-linecap="round" stroke-linejoin="round"/><path d="M125.136 215.635l76.229 76.219m-40.219-43.488l79.489 81.365" stroke="#263238" stroke-width=".568" stroke-miterlimit="10" stroke-linecap="round" stroke-linejoin="round"/><path d="M123.229 206.08l130.25 133.196 127.899-48.341-132.551-127.041-125.598 42.186z" fill="#fff" stroke="#263238" stroke-width="1.136" stroke-miterlimit="10" stroke-linecap="round" stroke-linejoin="round"/><path d="M121.635 203.981L1 91.388l123.571-38.533 123.298 109.051-126.234 42.075z" fill="#C6B5DD" stroke="#263238" stroke-width="1.136" stroke-miterlimit="10" stroke-linecap="round" stroke-linejoin="round"/><path d="M19.464 92.135L54.78 81.137M24.681 96.19l35.315-10.997" stroke="#263238" stroke-width="1.21" stroke-miterlimit="10" stroke-linecap="round" stroke-linejoin="round"/><path d="M144.7 207.028c-.373 0-.746-.101-1.079-.323a1.955 1.955 0 01-.555-2.724c.999-1.514 1.382-3.39 1.089-5.287-.454-2.977-2.532-5.368-5.156-5.953a1.979 1.979 0 01-1.493-2.351 1.977 1.977 0 012.351-1.493c4.187.938 7.477 4.631 8.183 9.191.444 2.866-.162 5.721-1.695 8.052a1.954 1.954 0 01-1.645.888zm18.414-6.75c-.373 0-.747-.101-1.08-.323a1.956 1.956 0 01-.554-2.724c.998-1.514 1.382-3.39 1.089-5.287-.454-2.977-2.532-5.368-5.156-5.953a1.965 1.965 0 01-1.483-2.351 1.955 1.955 0 012.351-1.484c4.187.939 7.477 4.632 8.183 9.192.444 2.866-.162 5.721-1.695 8.052a2.024 2.024 0 01-1.655.878zm73.262-25.164c-.373 0-.746-.101-1.079-.323a1.956 1.956 0 01-.555-2.724c.999-1.514 1.382-3.391 1.09-5.287-.454-2.977-2.533-5.368-5.156-5.953a1.98 1.98 0 01-1.494-2.351 1.974 1.974 0 012.351-1.494c4.188.939 7.477 4.632 8.183 9.192.444 2.866-.161 5.721-1.695 8.052a1.977 1.977 0 01-1.645.888zm-18.625 5.721c-.373 0-.747-.101-1.08-.323a1.957 1.957 0 01-.555-2.724c.999-1.514 1.383-3.391 1.09-5.287-.454-2.977-2.532-5.368-5.156-5.954a1.978 1.978 0 01-1.493-2.35 1.978 1.978 0 012.351-1.494c4.187.939 7.476 4.631 8.183 9.192.444 2.866-.162 5.721-1.695 8.052a1.954 1.954 0 01-1.645.888zm-16.981 6.558c-.374 0-.747-.101-1.08-.323a1.957 1.957 0 01-.555-2.724c.999-1.513 1.382-3.39 1.09-5.287-.454-2.977-2.533-5.368-5.156-5.953a1.979 1.979 0 01-1.494-2.351 1.98 1.98 0 012.351-1.493c4.188.938 7.477 4.631 8.183 9.192.444 2.865-.161 5.72-1.695 8.051a1.977 1.977 0 01-1.644.888zm-18.626 5.318c-.374 0-.747-.101-1.08-.323a1.958 1.958 0 01-.555-2.725c.999-1.513 1.382-3.39 1.09-5.287-.454-2.976-2.533-5.368-5.156-5.953a1.978 1.978 0 01-1.494-2.351 1.98 1.98 0 012.351-1.493c4.188.938 7.477 4.631 8.183 9.192.444 2.865-.161 5.721-1.695 8.052a1.964 1.964 0 01-1.644.888z" fill="#263238"/><path d="M356.749 287.858l4.964-1.826M258.746 324.06l93.492-34.527m-90.869 18.918l89.225-32.953m-102.968 38.029l7.81-2.886m-18.929-7.648l102.978-38.029m-114.086 27.505l102.967-38.029m-15.438-8.939l4.319-1.594M214.28 281.935l92.473-34.154m-103.592 23.62l102.977-38.028m-114.096 27.505l102.977-38.029m-114.087 27.495l102.967-38.029M169.813 239.81l102.968-38.029M258.02 192.6l3.652-1.353m-102.978 38.029l96.157-35.506m-76.532 13.621l72.234-26.667m-102.968 38.028l19.888-7.345" stroke="#263238" stroke-width=".568" stroke-miterlimit="10" stroke-linecap="round" stroke-linejoin="round"/><path d="M183.304 246.005c10.423 1.362 9.505-16.477 6.861-22.47-3.874 4.379-5.721 10.494-4.934 16.285.182 1.342.525 2.714 1.373 3.784.847 1.059 2.3 1.735 3.592 1.332.978-.313 1.685-1.14 2.3-1.958 1.917-2.542 3.188-5.69 5.206-8.021 2.785 1.887 12.724 5.115 11.291-1.826-.787-3.835 1.12-3.391 3.168-1.524.848.767 2.18.353 3.229-.111 3.37-1.483 6.73-2.956 10.1-4.44 1.312-.575 2.674-1.17 4.107-1.241 4.843-.252 8.021 4.258 12.773 1.08 1.998-1.332 2.482-4.944 5.055-6.316 1.837-.979 3.976-1.08 6.034-1.352 7.144-.949 10.796-4.722 17.395-8.143m-79.458 46.05c3.905.656 7.245-2.906 10.695-4.056 4.41-1.473 6.337-3.269 10.574-5.095 5.59-2.402 12.169-3.501 11.009-11.977-.798 3.017-.888 6.357-1.504 9.525 4.53 2.25 5.761-1.604 6.226-5.075 1.846-.02 2.774-.363 4.449-.898-.01.635.202 1.352.182 1.967 2.179.878 3.017.283 3.481-1.644 2.411-.454 3.269-2.715 5.307-3.269.525 5.66 1.958 10.614 1.625 16.396-3.865 1.049-4.47-5.651-3.492-8.425 1.03-2.927 3.915-4.49 4.985-7.538.222.364.05.808.171 1.211 4.854-2.906 11.109-2.119 15.912-5.519 1.514-1.069 2.593-3.209 4.197-3.955 3.482-1.615 4.531.282 7.134-3.522m-45.798 65.141c7.013-2.059 10.07-19.444 8.123-25.84-2.361-7.739-5.61.746-6.367 4.903-.605 3.33-1.574 12.108 1.534 14.641 6.881 5.589 11.058-5.903 11.946-11.089.313 3.249-1.655 7.254-.858 10.756 5.58.655 8.345-3.996 7.992-8.789 1.442 1.322 1.705 3.259.968 5.257 5.328-.373 4.45-9.373 5.065-12.986-.312 2.543-.07 5.51 1.635 7.548 1.423 1.695 4.137 2.441 5.923 1.13 1.786-1.312 1.432-4.763-.737-5.217 0 7.285 0 14.57.01 21.855 0 .626-.01 1.302-.363 1.826-.716 1.05-2.472.797-3.289-.171-.818-.969-.939-2.331-.959-3.602-.101-7.154 2.109-16.951 7.648-21.835.384.747.273 1.352.273 2.2a3.943 3.943 0 002.29-2.371c.363 1.604 1.312 3.632 2.936 3.349.545-.09.999-.464 1.433-.817 2.664-2.189 5.549-3.652 7.335-6.78.263.787.525 1.584.787 2.371.424-1.524 1.867-2.523 3.3-3.199a18.294 18.294 0 016.911-1.745c2.059-.111 4.218.111 6.084-.757.838-.393 1.564-.979 2.331-1.483a14.073 14.073 0 017.013-2.301" stroke="#C6B5DD" stroke-width="1.136" stroke-miterlimit="10" stroke-linecap="round" stroke-linejoin="round"/><path d="M143.419 98.764s16.103-20.27 21.542-27.535a664.017 664.017 0 009.393-12.835s2.906 2.29 2.059 4.894c-.848 2.603-20.039 28.736-24.327 35.415-4.288 6.67-3.653 15.044-3.35 17.94.303 2.886-8.132-6.599-5.317-17.88z" fill="#fff" stroke="#263238" stroke-width="1.273" stroke-miterlimit="10" stroke-linecap="round" stroke-linejoin="round"/><path d="M174.354 58.394s10.019-13.934 17.456-25.537c7.436-11.604 18.303-29.019 20.886-31.34 2.583-2.33 3.198 3.734 2.361 7.79-.838 4.046-9.717 15.377-15.73 24.66-6.004 9.282-9.717 15.952-14.883 22.056-5.156 6.104-4.873 6.387-8.042 7.275-3.168.878-2.613-2.3-2.048-4.904zm-34.396 42.408c1.11-7.517 3.612-21.4 9.364-25.78 5.751-4.369 23.105-1.019 24.558-.736 1.443.282 24.307 5.327 31.269 9.615 6.962 4.289 11.664 16.679 13.45 23.893 1.786 7.214 5.62 19.322 6.205 20.18 0 0 5.791 2.563 8.97 2.25 3.178-.313 7.416-15.074 16.315-23.802 8.899-8.728 13.51-9.908 23.338-9.111 9.828.797 47.17 10.957 50.944 14.681 3.783 3.733 6.144 12.097 5.317 18.171-.827 6.075.373 12.714.384 13.864.01 1.16 3.501 4.894 2.653 8.072-.847 3.188-1.382 10.12-3.975 11.008-2.593.888-21.663.434-35.839-1.493-14.167-1.928-33.872-10.464-46.918-16.447-13.047-5.983-19.413-8.536-28.948-8.475-9.535.06-28.02.474-45.092-3.461-17.072-3.935-28.675-11.079-31.874-14.237-3.198-3.148-1.221-10.665-.121-18.192zm102.231 35.446c4.671 6.901 23.499 13.712 33.629 16.537 10.131 2.825 34.437 7.86 40.763 4.349 6.337-3.512 9.666-24.337 9.041-31.551-.626-7.215-3.542-11.24-3.542-11.24-12.471-7.719-51.539-15.842-59.601-12.603-8.071 3.229-15.8 13.682-18.636 22.087-2.835 8.375-1.654 12.421-1.654 12.421zm-81.557-11.886c12.471 7.426 32.137 9.605 39.936 9.847 7.799.243 15.286-3.854 15.518-12.814.232-8.959-4.49-23.953-6.256-28.271-1.765-4.319-7.557-6.882-7.557-6.882-7.83-3.703-40.238-11.866-45.727-10.968-5.479.909-10.342 9.314-11.412 21.462-1.069 12.128 3.027 20.2 15.498 27.626z" fill="#263238" stroke="#263238" stroke-width="1.273" stroke-miterlimit="10" stroke-linecap="round" stroke-linejoin="round"/><path d="M329.204 143.754s3.208 4.894 5.499 1.413c2.29-3.481 31.823-36.616 31.823-36.616s1.15-.293.878 2.018c-.273 2.31-31.198 43.83-32.348 45.868-1.14 2.029-6.054 2.644-7.215 1.786-1.15-.867 1.363-14.469 1.363-14.469z" fill="#fff" stroke="#263238" stroke-width="1.273" stroke-miterlimit="10" stroke-linecap="round" stroke-linejoin="round"/><path d="M364.519 109.711s1.432-2.32 4.56-9.272c3.128-6.952 5.065-20.543 5.55-34.71.484-14.156 1.009-22.54 3.622-19.957 2.613 2.583.373 16.477-.111 27.444-.474 10.917-3.895 21.986-4.732 27.768-.626 4.379-3.966 11.29-6.286 11.31-2.321.02-2.008-.565-2.603-2.583z" fill="#263238" stroke="#263238" stroke-width="1.273" stroke-miterlimit="10" stroke-linecap="round" stroke-linejoin="round"/><path d="M173.88 290.825l12.703 14.378-18.888-4.258-134.397-82.223 6.195-10.12 134.387 82.223z" fill="#fff" stroke="#263238" stroke-width="1.436" stroke-miterlimit="10" stroke-linecap="round" stroke-linejoin="round"/><path opacity=".5" d="M173.88 290.825l12.703 14.378-18.888-4.258-134.397-82.223 6.195-10.12 134.387 82.223z" fill="#C6B5DD" stroke="#263238" stroke-width="1.436" stroke-miterlimit="10" stroke-linecap="round" stroke-linejoin="round"/><path d="M38.084 210.901l-3.376 5.517 134.394 82.227 3.375-5.517-134.393-82.227z" stroke="#263238" stroke-width=".718" stroke-miterlimit="10" stroke-linecap="round" stroke-linejoin="round"/><path d="M173.91 290.855l-6.185 10.1 18.858 4.248-12.673-14.348z" fill="#fff" stroke="#263238" stroke-width="1.436" stroke-miterlimit="10" stroke-linecap="round" stroke-linejoin="round"/><path d="M177.149 303.084l9.434 2.119-6.336-7.174-3.098 5.055z" fill="#C6B5DD" stroke="#263238" stroke-width="1.436" stroke-miterlimit="10" stroke-linecap="round" stroke-linejoin="round"/><path d="M21.351 204.455c-1.705 2.795-.827 6.448 1.968 8.153l9.989 6.114 6.195-10.12-9.989-6.114c-2.805-1.706-6.457-.828-8.163 1.967z" fill="#fff" stroke="#263238" stroke-width="1.436" stroke-miterlimit="10" stroke-linecap="round" stroke-linejoin="round"/><path d="M21.351 204.455c-1.705 2.795-.827 6.448 1.968 8.153l4.783 2.926 6.195-10.12-4.783-2.926c-2.805-1.706-6.457-.828-8.163 1.967z" fill="#263238" stroke="#263238" stroke-width="1.436" stroke-miterlimit="10" stroke-linecap="round" stroke-linejoin="round"/><path d="M292.517 156.276l-3.542-2.492a4.456 4.456 0 00-3.814-.626c-3.693 1.09-10.725 3.855-12.794 5.994-2.633 2.714-3.461 7.597-2.199 9.908 1.261 2.311 6.447 5.226 6.447 5.226l21.673-13.187-5.771-4.823z" fill="#fff" stroke="#263238" stroke-width=".947" stroke-miterlimit="10"/><path opacity=".5" d="M292.517 156.276l-3.542-2.492a4.456 4.456 0 00-3.814-.626c-3.693 1.09-10.725 3.855-12.794 5.994-2.633 2.714-3.461 7.597-2.199 9.908 1.261 2.311 6.447 5.226 6.447 5.226l21.673-13.187-5.771-4.823z" fill="#C6B5DD" stroke="#263238" stroke-width=".947" stroke-miterlimit="10"/><path d="M294.766 155.257l-17.203 7.85s-5.791 3.279-3.965 13.319l100.445 73.958s3.491 2.543 9.797.394c6.306-2.149 12.774-9.586 14.156-15.872 1.392-6.286-2.987-8.263-3.844-8.959-.858-.697-96.016-69.933-96.016-69.933s-1.755-1.161-3.37-.757z" fill="#fff" stroke="#263238" stroke-width=".947" stroke-miterlimit="10"/><path opacity=".5" d="M294.766 155.257l-17.203 7.85s-5.791 3.279-3.965 13.319l100.445 73.958s3.491 2.543 9.797.394c6.306-2.149 12.774-9.586 14.156-15.872 1.392-6.286-2.987-8.263-3.844-8.959-.858-.697-96.016-69.933-96.016-69.933s-1.755-1.161-3.37-.757z" fill="#C6B5DD" stroke="#263238" stroke-width=".947" stroke-miterlimit="10"/><path d="M391.256 245.551c-6.317 5.913-13.985 7.981-17.123 4.632-3.138-3.35-.555-10.867 5.772-16.77 6.316-5.913 13.984-7.981 17.122-4.631 3.128 3.34.545 10.857-5.771 16.769z" fill="#fff" stroke="#263238" stroke-width=".947" stroke-miterlimit="10"/><path d="M391.256 245.551c-6.317 5.913-13.985 7.981-17.123 4.632-3.138-3.35-.555-10.867 5.772-16.77 6.316-5.913 13.984-7.981 17.122-4.631 3.128 3.34.545 10.857-5.771 16.769z" fill="#C6B5DD" stroke="#263238" stroke-width=".947" stroke-miterlimit="10"/><path d="M298.147 156.004s-1.776-1.151-3.381-.747l-17.203 7.85s-5.791 3.279-3.965 13.319l69.459 51.145c-.495-2.351-.404-5.802 2.25-9.908 2.472-3.824 13.52-9.979 19.503-13.117-28.231-20.583-66.663-48.542-66.663-48.542z" fill="#263238" stroke="#263238" stroke-width="1.273" stroke-miterlimit="10" stroke-linecap="round" stroke-linejoin="round"/><path d="M377.846 233.221l-36.697-26.617c-2.421-1.715-2.209-5.378.394-6.79l5.681-3.098a4.028 4.028 0 014.278.273l38.785 28.09" fill="#fff"/><path d="M377.846 233.221l-36.697-26.617c-2.421-1.715-2.209-5.378.394-6.79l5.681-3.098a4.028 4.028 0 014.278.273l38.785 28.09" stroke="#263238" stroke-width=".947" stroke-miterlimit="10"/><g opacity=".5"><path d="M377.846 233.221l-36.697-26.617c-2.421-1.715-2.209-5.378.394-6.79l5.681-3.098a4.028 4.028 0 014.278.273l38.785 28.09" fill="#C6B5DD"/><path d="M377.846 233.221l-36.697-26.617c-2.421-1.715-2.209-5.378.394-6.79l5.681-3.098a4.028 4.028 0 014.278.273l38.785 28.09" stroke="#263238" stroke-width=".947" stroke-miterlimit="10"/></g></svg>