<svg width="415" height="298" fill="none" xmlns="http://www.w3.org/2000/svg"><path d="M406.75 292.58H0v4.98h406.75v-4.98z" fill="#263238"/><path d="M388.728 290.564c2.92-10.68 12.43-46.53 18.89-82.84 7.7-43.35 14.44-103.06-16.38-128.11-30.82-25.05-71.28 4.82-92.47-4.81-21.19-9.63-22.15-57.8-79-72.24-56.85-14.44-88.62 35.63-113.66 62.6-25.04 26.97-53 8.67-89.58 37.57-36.2 28.58-5.5 158 21.27 187.83h350.93z" fill="#C6B5DD"/><path opacity=".7" d="M388.728 290.564c2.92-10.68 12.43-46.53 18.89-82.84 7.7-43.35 14.44-103.06-16.38-128.11-30.82-25.05-71.28 4.82-92.47-4.81-21.19-9.63-22.15-57.8-79-72.24-56.85-14.44-88.62 35.63-113.66 62.6-25.04 26.97-53 8.67-89.58 37.57-36.2 28.58-5.5 158 21.27 187.83h350.93z" fill="#fff"/><path d="M398.698 87.704h-78.5a1.448 1.448 0 00-1.44 1.44v202a1.452 1.452 0 001.44 1.45h78.5a1.447 1.447 0 001.45-1.45v-202a1.45 1.45 0 00-1.45-1.44zm-1.44 202h-75.61V90.594h75.61v199.11z" fill="#fff"/><path d="M327.128 132.154h64.65a1.446 1.446 0 001.333-.896c.072-.176.109-.364.107-.554v-34.13a1.416 1.416 0 00-.419-1.022 1.43 1.43 0 00-1.021-.418h-64.65a1.44 1.44 0 00-1.45 1.44v34.13a1.45 1.45 0 001.45 1.45zm1.44-34.16h61.76v31.24h-61.76v-31.24zm-1.44 82.64h64.65a1.433 1.433 0 001.333-.888c.072-.175.109-.363.107-.552v-34.13a1.428 1.428 0 00-.418-1.025 1.441 1.441 0 00-1.022-.425h-64.65a1.45 1.45 0 00-1.45 1.45v34.13a1.44 1.44 0 001.45 1.44zm1.44-34.13h61.76v31.25h-61.76v-31.25zm-1.44 82.62h64.65a1.44 1.44 0 001.44-1.44v-34.14a1.442 1.442 0 00-1.44-1.44h-64.65a1.45 1.45 0 00-1.45 1.44v34.14a1.452 1.452 0 001.45 1.44zm1.44-34.13h61.76v31.24h-61.76v-31.24zm-1.44 82.62h64.65a1.446 1.446 0 001.333-.896c.072-.176.108-.364.107-.554v-34.17a1.433 1.433 0 00-.887-1.333 1.418 1.418 0 00-.553-.107h-64.65a1.44 1.44 0 00-1.45 1.44v34.13a1.447 1.447 0 00.886 1.376c.178.075.37.114.564.114zm1.44-34.13h61.76v31.24h-61.76v-31.24zm-28.2-227.49H88.928a1.44 1.44 0 00-1.44 1.4v105.32a1.436 1.436 0 00.896 1.333c.176.072.364.108.554.107h211.43a1.437 1.437 0 001.021-.419 1.426 1.426 0 00.419-1.021V17.394a1.428 1.428 0 00-1.44-1.4zm-1.45 2.89v97.72H90.368v-97.76l208.55.04z" fill="#fff"/><path d="M347.918 224.273l-4.55 68.72a1.388 1.388 0 01-1.916 1.182 1.376 1.376 0 01-.834-1.312l1.87-68.59h5.43zm11.64 0l4.55 68.72a1.38 1.38 0 001.37 1.29 1.36 1.36 0 00.99-.418 1.372 1.372 0 00.39-1.002l-1.89-68.55-5.41-.04zm-45.62 0l4.55 68.72a1.38 1.38 0 001.37 1.29 1.36 1.36 0 00.99-.418 1.372 1.372 0 00.39-1.002l-1.9-68.55-5.4-.04zm-18.59 0l-4.55 68.72a1.388 1.388 0 01-1.38 1.29 1.394 1.394 0 01-.987-.421 1.4 1.4 0 01-.393-.999l1.9-68.55 5.41-.04z" fill="#263238" stroke="#263238" stroke-linecap="round" stroke-linejoin="round"/><path d="M374.618 154.993s-45.4-1.7-49.24-1.7c-3.84 0-4.73 1.7-4.73 1.7l-6.48 45.69s-20.15-5.75-24.1-5c-3.95.75 1.95 29.42 1.95 29.42h22.8l.41-1.72h51.48l13.67-65.12c-.83-2.98-5.76-3.27-5.76-3.27z" fill="#fff" stroke="#263238" stroke-linecap="round" stroke-linejoin="round"/><path d="M357.338 183.573s4.62 30-.68 33.5c-.82.54-5.27 3.101-9.43 2.681-3.34-.34-26.94 0-26.94 0s-3.28-6.24-3.94-10.84c-.66-4.6 4.5-24.341 4.5-24.341l36.49-1z" fill="#fff" stroke="#263238" stroke-linecap="round" stroke-linejoin="round"/><path d="M318.688 199.644s-34.16 3.55-35.77 4.51c-1.61.96-9 7.41-7.73 11.6 1.27 4.19-1.93 4.51 1 5.16 2.93.65 44.46.64 44.46.64" fill="#C6B5DD"/><path d="M318.688 199.644s-34.16 3.55-35.77 4.51c-1.61.96-9 7.41-7.73 11.6 1.27 4.19-1.93 4.51 1 5.16 2.93.65 44.46.64 44.46.64" stroke="#263238" stroke-linecap="round" stroke-linejoin="round"/><path d="M287.618 225.053h81.17v-6.06h-81.17v6.06z" fill="#fff" stroke="#263238" stroke-linecap="round" stroke-linejoin="round"/><path d="M349.618 200.934h-48.9s-2.57 2.9-2.9 9c-.33 6.1.33 7.41 4.84 9 4.51 1.59 44.57.78 44.57.78" fill="#C6B5DD"/><path d="M349.618 200.934h-48.9s-2.57 2.9-2.9 9c-.33 6.1.33 7.41 4.84 9 4.51 1.59 44.57.78 44.57.78" stroke="#263238" stroke-linecap="round" stroke-linejoin="round"/><path d="M311.088 278.534l-5.12-12.13-8.39 1.59 6.42 10.82-3.7 7.41-8 5.23s-.93.92 3.07.61c4-.31 12.3 0 12.3 0l5.23-6.15s1.9-3.13-1.81-7.38z" fill="#fff" stroke="#263238" stroke-linecap="round" stroke-linejoin="round"/><path d="M313.328 283.833l.21 7.93h-1.25l-1.67-3.96 2.71-3.97z" fill="#263238" stroke="#263238" stroke-linecap="round" stroke-linejoin="round"/><path d="M307.678 292.104l5.23-6.15s1.35-2.29-.51-5.59c-3.72 6.36-8.67 8.27-8.67 8.27l-5.16-1.24-6.26 4.1s-.93.92 3.07.61c4-.31 12.3 0 12.3 0z" fill="#263238" stroke="#263238" stroke-linecap="round" stroke-linejoin="round"/><path d="M290.978 216.723l17.15 51.85-12.17 2.16-24-54s-1.93-8.06 3.22-10.63c5.15-2.57 20.3-3.87 20.3-3.87" fill="#C6B5DD"/><path d="M290.978 216.723l17.15 51.85-12.17 2.16-24-54s-1.93-8.06 3.22-10.63c5.15-2.57 20.3-3.87 20.3-3.87" stroke="#263238" stroke-linecap="round" stroke-linejoin="round"/><path d="M345.988 225.044s-5.91-28.71-1.95-29.42c3.96-.71 24.1 5 24.1 5l6.48-45.63s6.84-1.08 7.56 5c.72 6.08-13.39 65.05-13.39 65.05h-22.8z" fill="#263238" stroke="#263238" stroke-linecap="round" stroke-linejoin="round"/><path d="M276.398 140.513l-3.05-5a3.234 3.234 0 00-2.81-1.54l-2.87.05-4.91-1.47a1.637 1.637 0 00-1.74.55l-.18.23 4.52 2-4.51 1.66-4.79-2.43a.907.907 0 00-.612-.076.906.906 0 00-.518.336.902.902 0 00.16 1.26l6.7 5.17a1.862 1.862 0 001.5.36l7.41-1.49 2.07 2.26 3.63-1.87z" fill="#fff" stroke="#263238" stroke-linecap="round" stroke-linejoin="round"/><path d="M328.058 130.253l-27.47 28.73-26.22-21.19-3.62 2.63 28.85 32.69 25.01-13.47 3.45-29.39zm41.1 7.341l14.4 44.25-12.42.359-12.35-20.769s6.94-20.95 10.37-23.84z" fill="#fff" stroke="#263238" stroke-linecap="round" stroke-linejoin="round"/><path d="M353.488 129.993l15.67 7.65-13.12 36.69 1.55 10.23-36.74.06 4.38-16.48-3-10.56a8.096 8.096 0 01-.06-4.2l5.88-23.08 15.44-2.48 10 2.17z" fill="#fff" stroke="#263238" stroke-linecap="round" stroke-linejoin="round"/><path d="M352.738 127.844s3.08 2.08 3.18 3.93c.05 1.09 0 3-.1 4.46a9.478 9.478 0 01-.77 3.31l-5.55 6.7-6.42-5.07-5.33 2.72s-1-8.17 1.33-13.87c2.33-5.7 12.47-3.61 13.66-2.18z" fill="#fff" stroke="#263238" stroke-linecap="round" stroke-linejoin="round"/><path d="M357.148 111.993s-1.26 4.53-1.85 7.53c-.59 3-1.78 9-1.67 11.25.11 2.25-9.36 11.83-10.55 10.4-1.19-1.43-2.44-9.74-2.44-9.74l1.18-13.44s12.34-13.67 15.33-6z" fill="#fff" stroke="#263238" stroke-linecap="round" stroke-linejoin="round"/><path d="M337.358 104.994s-1.69 2.79-1.69 4 .59 3.58.49 4.27c-.1.69-1.78 3-2 3.78a1.382 1.382 0 00.69 1.69c.409.209.806.439 1.19.69 0 0 .5 6.16 1.3 7.75.8 1.59 1.49 2.29 3.87 2.49 2.38.2 8.05-2.29 8.84-4.28.79-1.99.9-4.37 1-7.25.1-2.88-1.89-7-3.38-10.93-1.49-3.93-7.73-6.09-10.31-2.21z" fill="#fff" stroke="#263238" stroke-linecap="round" stroke-linejoin="round"/><path d="M363.008 125.333a7.63 7.63 0 100-15.26 7.63 7.63 0 000 15.26z" fill="#263238" stroke="#263238" stroke-linecap="round" stroke-linejoin="round"/><path d="M337.318 104.564s3.07-2.65 8.59 2.62 3.42 12.89 7.11 14.47c3.69 1.58 10.52-6.32 11.31-10.26.79-3.94-1.58-12.11-8.95-13.69-7.37-1.58-16.4-.5-18.06 6.86z" fill="#263238" stroke="#263238" stroke-linecap="round" stroke-linejoin="round"/><path d="M337.318 104.564a4.106 4.106 0 012.812-4.33 4.083 4.083 0 011.838-.16c5 .27 5.52 8.16 8.15 11.32 2.63 3.16 3.95 2.63 3.95 2.63s-4.47 1.31-7.37-.27c-2.9-1.58-4.3-10.49-9.38-9.19z" fill="#263238" stroke="#263238" stroke-linecap="round" stroke-linejoin="round"/><path d="M345.488 99.154a15.599 15.599 0 016 6.81c2.27 4.81 2.27 8.78 7.66 8.5 0 0-2.55.57-6.52-1.42-3.97-1.99-4.82-7.65-7.37-9.92a8.386 8.386 0 00-5.1-2.27m24.17 10.54s-.23 7.22-5.77 8.74" stroke="#fff" stroke-width=".5" stroke-linecap="round" stroke-linejoin="round"/><path d="M348.868 118.764s5.28-6.91 6.52-1.75c1.24 5.16-3 6.42-5 5.83-2-.59-1.72-1.66-1.72-1.66" fill="#fff"/><path d="M348.868 118.764s5.28-6.91 6.52-1.75c1.24 5.16-3 6.42-5 5.83-2-.59-1.72-1.66-1.72-1.66" stroke="#263238" stroke-linecap="round" stroke-linejoin="round"/><path d="M337.118 177.894s-10.08 1.4-11.76 1.4c-1.68 0-5.88 5.32-5.88 5.32h18.48l-.84-6.72z" fill="#fff" stroke="#263238" stroke-linecap="round" stroke-linejoin="round"/><path d="M379.938 171.114l3.62 8.16a3.22 3.22 0 01-3 4.25l-43.7.25.28-5.88 33.88-5.36" fill="#fff"/><path d="M379.938 171.114l3.62 8.16a3.22 3.22 0 01-3 4.25l-43.7.25.28-5.88 33.88-5.36" stroke="#263238" stroke-linecap="round" stroke-linejoin="round"/><path d="M321.448 283.833l.21 7.93h-1.25l-1.67-3.96 2.71-3.97z" fill="#263238" stroke="#263238" stroke-linecap="round" stroke-linejoin="round"/><path d="M319.208 278.534l-1.61-11.54-8.38.54 2.9 11.36-3.7 7.41-8 5.23s-.92.92 3.08.61c4-.31 12.3 0 12.3 0l5.23-6.15s1.89-3.21-1.82-7.46z" fill="#fff" stroke="#263238" stroke-linecap="round" stroke-linejoin="round"/><path d="M315.798 292.104l5.23-6.15s1.35-2.29-.52-5.59c-3.72 6.36-8.67 8.27-8.67 8.27l-5.15-1.24-6.27 4.1s-.92.92 3.08.61c4-.31 12.3 0 12.3 0z" fill="#263238" stroke="#263238" stroke-linecap="round" stroke-linejoin="round"/><path d="M315.368 207.794l3.59 61.32-11.37.27-11.1-55.71s.21-10.61 3.6-11.83c3.39-1.22 12.39.09 12.39.09" fill="#C6B5DD"/><path d="M315.368 207.794l3.59 61.32-11.37.27-11.1-55.71s.21-10.61 3.6-11.83c3.39-1.22 12.39.09 12.39.09" stroke="#263238" stroke-linecap="round" stroke-linejoin="round"/><path d="M265.668 75.803l14.11 39.55s-1.86 8.95-7.46 8.58c-5.6-.37-7.09-8.21-8.58-9.33-1.49-1.12-3.73-9.7-3.73-9.7l5.66-29.1z" fill="#fff" stroke="#263238" stroke-linecap="round" stroke-linejoin="round"/><path d="M229.168 67.874l-22.94 8.28 8.8 63.61h41.39l9.25-63.96-24.76-7.75-11.74-.18z" fill="#fff" stroke="#263238" stroke-linecap="round" stroke-linejoin="round"/><path d="M231.378 78.773l3.31 4.99-2.87 42.32 4.22 11.02 4.33-10.72-3.71-41.99 2.98-7.21-4.13-5.43-4.13 7.02z" fill="#C6B5DD" stroke="#263238" stroke-linecap="round" stroke-linejoin="round"/><path d="M235.958 76.713l-5.91 4.43-3.89-11.55 2.71-5.85 12.09-.29 2.95 2.65-.59 14.74-7.36-4.13z" fill="#fff" stroke="#263238" stroke-linecap="round" stroke-linejoin="round"/><path d="M242.208 60.743l-.92 7.43-6.62 8.54-4.95-8.66v-13.93s8.67 2.17 12.49 6.62z" fill="#fff" stroke="#263238" stroke-linecap="round" stroke-linejoin="round"/><path d="M226.318 45.303c0-6.75 4.92-12.22 11-12.22s9.45 5.77 9.45 12.52c0 2.18-.45 5.92-.63 7.91-.31 3.4-1.34 4.84-3.35 7.89-6.59 10-12-4.67-14.77-9.6a13.124 13.124 0 01-1.7-6.5z" fill="#fff" stroke="#263238" stroke-linecap="round" stroke-linejoin="round"/><path d="M242.098 47.424l.93 6.97-3.27-.09" fill="#fff"/><path d="M242.098 47.424l.93 6.97-3.27-.09" stroke="#263238" stroke-linecap="round" stroke-linejoin="round"/><path d="M249.398 46.213l-15.72.07a3.67 3.67 0 00.78 3.57c1 1 5.07.65 5.72.39.65-.26 1-3.12 1-3.12h1.17s.13 3 1.81 3.25c1.68.25 3.87.17 4.29-.13 1.86-1.25.95-4.03.95-4.03z" fill="#fff" stroke="#263238" stroke-linecap="round" stroke-linejoin="round"/><path d="M228.258 52.934s3.54 7.25 4.38 9.76c.84 2.51 5 4.47 9.21 3.07 4.21-1.4 3.07-7.63 3.07-7.63s-4.47-3.82-5.3-3c-.83.82-5.31 4.47-5.59 3.63-.28-.84-2.23-5.86-2.23-5.86l-.91-3.56 1.87-1.2a1.399 1.399 0 00.25-1.88l-.88-1.27a1.42 1.42 0 01-.23-1.08c.23-1.09.86-3.35 2.32-4 2-.83 4.43.38 6.67.94 2.24.56 4.67-1.46 4.67-1.46l1 3.32a15.928 15.928 0 004.54-7.7c1.12-4.75-10.33-6.7-14-6.7s-9.49 2-11.17 7.26c-1.68 5.26 1.34 16.42 2.33 17.36z" fill="#263238" stroke="#263238" stroke-linecap="round" stroke-linejoin="round"/><path d="M237.318 35.044s2.08 3.12-.65 3.77c-2.73.65-8.05-1.69-10.39-.78m6.36 3.889s-4.28-.52-6 1.3m16.3 14.471s-3.15 1.64-4.71-.31" stroke="#fff" stroke-width=".5" stroke-linecap="round" stroke-linejoin="round"/><path d="M228.788 50.724s-3.09-3.4-3.09.31.93 3.71 2.78 5c1.85 1.29 2.48-.31 2.48-.31" fill="#fff"/><path d="M228.788 50.724s-3.09-3.4-3.09.31.93 3.71 2.78 5c1.85 1.29 2.48-.31 2.48-.31" stroke="#263238" stroke-linecap="round" stroke-linejoin="round"/><path d="M270.048 281.233h.14l-.27-1.36-13.5-140.1h-41.39l-13.61 141.45h.15l8.78.75s9.74-32.7 9.74-35.14c0-2.44 2.78-25 2.78-25l13.81-48.55 12.21 48.55s2.78 22.61 2.78 25c0 2.39 9.75 35.16 9.75 35.16l8.26-.71h.37v-.05z" fill="#263238" stroke="#263238" stroke-linecap="round" stroke-linejoin="round"/><path d="M253.328 148.013l-9.21 13.15m4.28-10.19l-5.59 9.21m-20.71-9.86l8.21 8.87m-8.87-5.589l11.83 11.84m-15.78-24.33h36.5" stroke="#fff" stroke-width=".5" stroke-linecap="round" stroke-linejoin="round"/><path d="M201.568 281.223s-5.27 4.15-8.31 5.29c-3.04 1.14-8.72 4.17-8.72 4.17s0 1.9 4.93 1.9h19.35l-.33-11.36h-6.92z" fill="#263238" stroke="#263238" stroke-linecap="round" stroke-linejoin="round"/><path d="M208.748 290.514c-7.727.353-15.468.229-23.18-.37l-1 .54s0 1.9 4.93 1.9h19.35l-.1-2.07z" fill="#fff" stroke="#263238" stroke-linecap="round" stroke-linejoin="round"/><path d="M269.248 281.223s5.28 4.15 8.31 5.29c3.03 1.14 8.73 4.17 8.73 4.17s0 1.9-4.94 1.9h-19.34l.35-11.36h6.89z" fill="#263238" stroke="#263238" stroke-linecap="round" stroke-linejoin="round"/><path d="M262.068 290.514c7.727.353 15.468.229 23.18-.37l1 .54s0 1.9-4.94 1.9h-19.3l.06-2.07zm-55.84-214.36l-15.24 40.69h14.62l5.46-11.1-4.84-29.59z" fill="#fff" stroke="#263238" stroke-linecap="round" stroke-linejoin="round"/><path d="M272.898 110.543c-6.1-2.52-25.67-3.77-26.69-3.77-1.02 0-32.83-2.62-35.44-3-2.61-.38-5.6 5.6-5.6 5.6l13.8-.38 16.79 3.36s34 12.31 36.56 11.57c.349-.116.665-.315.92-.58" fill="#fff"/><path d="M272.898 110.543c-6.1-2.52-25.67-3.77-26.69-3.77-1.02 0-32.83-2.62-35.44-3-2.61-.38-5.6 5.6-5.6 5.6l13.8-.38 16.79 3.36s34 12.31 36.56 11.57c.349-.116.665-.315.92-.58" stroke="#263238" stroke-linecap="round" stroke-linejoin="round"/><path d="M201.808 108.634l52.6-5.22.38 4.47-45.52 13.81s-8.2 1.86-14.55.74c-6.35-1.12-3.35-7.46-1.86-11.19" fill="#fff"/><path d="M201.808 108.634l52.6-5.22.38 4.47-45.52 13.81s-8.2 1.86-14.55.74c-6.35-1.12-3.35-7.46-1.86-11.19" stroke="#263238" stroke-linecap="round" stroke-linejoin="round"/><path d="M254.418 103.413l10.07-.38 2.98 5.97-12.68-1.11-.37-4.48z" fill="#fff" stroke="#263238" stroke-linecap="round" stroke-linejoin="round"/><path d="M321.488 191.154l8.59 102.27a1.124 1.124 0 00.472.761 1.125 1.125 0 00.878.179 1.104 1.104 0 00.83-1.18l-5.85-102-4.92-.03zm57.73 0l8.62 102.61a1.117 1.117 0 00.892.945c.151.03.307.028.458-.005a1.104 1.104 0 00.83-1.18l-5.87-102.37h-4.93zm-238.24 0l-4.49 101.38a1.118 1.118 0 001.295 1.207 1.072 1.072 0 00.875-.937l7.27-101.65h-4.95zm-53.21 0l-4.52 101a1.13 1.13 0 00.85 1.19 1.083 1.083 0 001.33-.92l7.24-101.31-4.9.04z" fill="#263238" stroke="#263238" stroke-linecap="round" stroke-linejoin="round"/><path d="M390.458 185.484H84.568v8.78h305.89v-8.78z" fill="#C6B5DD" stroke="#263238" stroke-linecap="round" stroke-linejoin="round"/><path d="M390.458 185.484H84.568v3.01h305.89v-3.01z" fill="#263238" stroke="#263238" stroke-linecap="round" stroke-linejoin="round"/><path d="M390.448 185.484h-76.54v8.78h76.54v-8.78z" fill="#263238" stroke="#263238" stroke-linecap="round" stroke-linejoin="round"/><path d="M393.178 182.564H81.838v3.35h311.34v-3.35z" fill="#C6B5DD" stroke="#263238" stroke-linecap="round" stroke-linejoin="round"/><path d="M393.168 182.564h-76.07v3.35h76.07v-3.35z" fill="#263238" stroke="#263238" stroke-linecap="round" stroke-linejoin="round"/><path d="M151.188 182.264h41.78a.81.81 0 00.75-.49l11.57-26.38a.815.815 0 00-.069-.768.814.814 0 00-.681-.362h-41.78a.812.812 0 00-.74.48l-11.53 26.38a.814.814 0 00.327 1.028.819.819 0 00.373.112z" fill="#fff" stroke="#263238" stroke-linecap="round" stroke-linejoin="round"/><path d="M155.108 180.204h35.65a.696.696 0 00.63-.41l9.87-22.51a.685.685 0 00-.032-.678.697.697 0 00-.598-.322h-35.65a.684.684 0 00-.64.42l-9.85 22.53a.687.687 0 00.295.882.685.685 0 00.325.088z" fill="#C6B5DD" stroke="#263238" stroke-linecap="round" stroke-linejoin="round"/><path d="M193.548 180.514h-62.77v2.05h62.77v-2.05z" fill="#fff" stroke="#263238" stroke-linecap="round" stroke-linejoin="round"/><path d="M193.558 180.514h-30.43v2.05h30.43v-2.05zm20.16-14.27h-11.07v16.36h11.07v-16.36z" fill="#fff" stroke="#263238" stroke-linecap="round" stroke-linejoin="round"/><path d="M213.228 180.374h-1.16a.907.907 0 01-.91-.91.91.91 0 01.91-.91h1.16a1.743 1.743 0 001.73-1.73v-4a1.742 1.742 0 00-1.73-1.73h-1.49a.905.905 0 01-.643-.267.906.906 0 01.295-1.484.904.904 0 01.348-.069h1.49a3.562 3.562 0 012.51 1.039 3.557 3.557 0 011.04 2.511v4a3.553 3.553 0 01-3.55 3.55zm86.98 1.89h-41.78a.81.81 0 01-.74-.49l-11.57-26.38a.817.817 0 01.067-.764.81.81 0 01.673-.366h41.78a.82.82 0 01.75.48l11.57 26.38a.817.817 0 01-.364 1.04.813.813 0 01-.386.1z" fill="#fff" stroke="#263238" stroke-linecap="round" stroke-linejoin="round"/><path d="M257.848 182.564h62.77v-2.05h-62.77v2.05z" fill="#fff" stroke="#263238" stroke-linecap="round" stroke-linejoin="round"/><path d="M257.848 182.564h43.28v-2.05h-43.28v2.05zm16.38-17.35a2.46 2.46 0 11-3.37-1 2.494 2.494 0 011.892-.197 2.493 2.493 0 011.478 1.197zm-195.37-77.65l3.08 30.43 14 40.53-4.79 2.74-16.44-37.1-8.21-31.85s-.69-9.58 2.74-11 8.25.09 9.62 6.25zm17.12 71s3.08 6.51 3.43 8.22c.35 1.71.7 5.2-.65 6.76-1.63 1.88-3.12.43-3.12.43s-4.11-1-4.11-4.45-.34-8.22-.34-8.22l4.79-2.74z" fill="#fff" stroke="#263238" stroke-linecap="round" stroke-linejoin="round"/><path d="M92.618 168.774l5.77 1.5" stroke="#263238" stroke-linecap="round" stroke-linejoin="round"/><path d="M93.998 164.884l1.64 2.58s-3.82 6.53-1.77 4.82 5.88-3.79 5.54-5.5a27.173 27.173 0 00-2.28-5.16" fill="#fff"/><path d="M93.998 164.884l1.64 2.58s-3.82 6.53-1.77 4.82 5.88-3.79 5.54-5.5a27.173 27.173 0 00-2.28-5.16" stroke="#263238" stroke-linecap="round" stroke-linejoin="round"/><path d="M62.488 50.994s-3.52-3.8-11.64-1.36c-8.12 2.44-10 15.44-9.75 21.93s6.5 13.81 4.61 17.06c-1.89 3.25-8.94 10.83-8.4 19 .54 8.17 7.31 14.62 17.06 11.64 9.75-2.98 8.12-14.91 6.18-19.27-1.94-4.36 2.17-6.23 3.52-15.71s-7.31-17.33-7.31-24.1c0-6.77 7-5.68 7-5.68l-1.27-3.51z" fill="#263238" stroke="#263238" stroke-linecap="round" stroke-linejoin="round"/><path d="M50.288 76.694c1.28 2.64 2.77 5.46 4.25 8.5 4.94 10.08 1.08 13.72-6.43 19.3s-5.79 12.44-3.86 13.5m15.66-64.33s-10.08.86-12.66 7.29c-1.56 3.91-.36 8.29 1.94 13.39m3.35 41.14a6.063 6.063 0 002.43.38" stroke="#fff" stroke-width=".5" stroke-linecap="round" stroke-linejoin="round"/><path d="M62.488 52.994s-9.44 1.71-11.58 8.57c-2.14 6.86 10.51 17 11.15 24.46.64 7.46-8.37 11.82-11.57 17.61-2.25 4.06-2 8.53.37 10.78" stroke="#fff" stroke-width=".5" stroke-linecap="round" stroke-linejoin="round"/><path d="M86.708 191.064s-2.33 20.12-4.67 26.54c-2.34 6.42-7.58 56.87-7.87 59.79-.29 2.92 7.58 9.62 10.79 11.67 3.21 2.05 1.75 2.62-1.75 2.91-3.5.29-7.58-.29-9.33-3.5s-5.84-4.08-5.84-4.08l-.58 7h-1.17l-.87-8.75a10.08 10.08 0 01.87-5.83c1.46-3.21 2-9.92 2-19s-1.75-23.63-.88-30.63 4.38-12.25 4.38-18.08c0-5.83.29-14.58.29-14.58l14.63-3.46z" fill="#fff" stroke="#263238" stroke-linecap="round" stroke-linejoin="round"/><path d="M65.418 282.644a9.659 9.659 0 01.37-4.49c1.81 3.06 7 7.21 11 8.86a14.591 14.591 0 006.89 1.16c.47.35.91.65 1.28.89 3.21 2 1.75 2.62-1.75 2.91-3.5.29-7.58-.29-9.33-3.5s-5.84-4.08-5.84-4.08l-.58 7h-1.17l-.87-8.75z" fill="#263238" stroke="#263238" stroke-linecap="round" stroke-linejoin="round"/><path d="M69.788 194.274s-5 14.87-9.62 27.7c-4.62 12.83-15.75 42.29-16.92 47.54-1.17 5.25-1.75 14.88-5 19.84-3.25 4.96-6.42 7.29-5.84-1.46.58-8.75 5.84-15.17 7-21.88 1.16-6.71 1.75-30.91 5.83-41.7 4.08-10.79 8.46-19.54 9-22.75.399-3.194.593-6.411.58-9.63l14.97 2.34z" fill="#fff" stroke="#263238" stroke-linecap="round" stroke-linejoin="round"/><path d="M33.008 284.144a8.663 8.663 0 001.48 4.62c1.68 1.88 4.39-1.77 5.8-4a18.94 18.94 0 01-2 4.58c-3.21 4.95-6.42 7.29-5.84-1.46.096-1.259.284-2.509.56-3.74z" fill="#263238" stroke="#263238" stroke-linecap="round" stroke-linejoin="round"/><path d="M67.488 76.894s-1.75 1.46-2.92 11.38c-1.17 9.92 6.13 40.83 6.13 40.83s-12.54 20.54-15.46 30.75c-2.92 10.21-4.67 48.46-4.67 48.46s6.13 2.34 18.67 3.21c12.54.87 19.25-2.33 19.25-2.33s.58-54.59.58-63c0-8.41.59-27.54 1.46-29.87.87-2.33 3.5-8.46 3.5-10.79 0-2.33-17.54-27.18-17.54-27.18l-9-1.46z" fill="#fff" stroke="#263238" stroke-linecap="round" stroke-linejoin="round"/><path d="M55.208 159.854c2.3-8 11.82-29.28 15.22-32.94 5.17 1.72 14.6 3.42 18.81 2.16-.13 3-.2 14.2-.2 17.07 0 8.46-.58 63-.58 63s-6.71 3.21-19.25 2.33c-12.54-.88-18.67-3.21-18.67-3.21s1.75-38.2 4.67-48.41zm18.75-117.34s3.13-6.82 9.32-6.82 8.94 5.5 7.57 10.31c-1.37 4.81 4.12 3.44 4.81 6.54.69 3.1-4.47 5.15-7.22 5.15s-14.48-15.18-14.48-15.18z" fill="#263238" stroke="#263238" stroke-linecap="round" stroke-linejoin="round"/><path d="M82.998 41.814c1.84-1 4-1.72 5-.16 1.93 3-4.07 5.36-2.14 8.58 1.93 3.22 6.65 2.36 6.43 3.43-.22 1.07-3.21 1.71-3.21 1.71m-9.23-11.38s.59-.51 1.47-1.13" stroke="#fff" stroke-width=".5" stroke-linecap="round" stroke-linejoin="round"/><path d="M89.828 58.384a3.12 3.12 0 01-1-1.26c-.5-3.69-1.58-7.32-3.62-9.36a19.83 19.83 0 00-11.23-5.25 7.91 7.91 0 00-3.71.34c-5.31 1.86-9.87 5.53-8.89 14.38 1.08 9.75 8.67 12.19 8.67 12.19l.54 6 7.58 3.52.27-6.5s5.14 2.16 7 1.89c1.86-.27 2.44-2.71 3.25-6.23.297-1.606.445-3.237.44-4.87l2.27-2.26c1.29-1.31.02-1.63-1.57-2.59z" fill="#fff" stroke="#263238" stroke-linecap="round" stroke-linejoin="round"/><path d="M61.358 57.234c-1-8.85 3.58-12.52 8.89-14.38a7.91 7.91 0 013.71-.34 21.492 21.492 0 018.12 2.82c-1.52-.31 1.07 4.16-1.31 7a22.128 22.128 0 01-7.77 6.22s-2.7-2.17-3.52.81c-.82 2.98-.54 5.14 1.63 5.69 2.17.55 3 0 3 0s-1.44 3.41-4 4.82v-.49s-7.62-2.39-8.75-12.15z" fill="#263238" stroke="#263238" stroke-linecap="round" stroke-linejoin="round"/><path d="M82.038 77.184l-1.45 7.88-15.46-8.17 1.46-7.29 15.45 7.58zm-7.47 66.44c1.601.342 3.226.563 4.86.66 1.27-.08 3-1.51 4.28-.9 1.28.61 3.07 4.46 3.07 4.46s1.7.86 1.21 1.77-2.59 1.75-2.59 1.75-2 1.89-3.16 2.08c-1.16.19-8.23-5-8.23-5l.56-4.82z" fill="#fff" stroke="#263238" stroke-linecap="round" stroke-linejoin="round"/><path d="M75.318 147.364a2.448 2.448 0 00.076-3.039 2.454 2.454 0 00-.826-.701l-19.43-18.2 21.16-32.9a7.61 7.61 0 00-13.15-7.65l-18.34 36.45a5.06 5.06 0 00-.16 7.1l.07.07c1.84 2.84 22.08 17.69 28 19.63a2.43 2.43 0 002.6-.76zm76.88-50.371s2.51 7.77 2.51 9.28a27.338 27.338 0 01-.25 3.26l2.21 3.43a.997.997 0 01-.31 1.34l-3.41 2s-.5 8-1 9-9 .76-9 .76l-2.76 5.26-14.3-5.51 3.76-10.29-.78-15.53s8.78-7.76 23.33-3z" fill="#fff" stroke="#263238" stroke-linecap="round" stroke-linejoin="round"/><path d="M142.408 115.894s-2.49 2.34-4.36 2.5c-1.87.16-7.95-1.25-8.42-1.87-.47-.62-4.67-9.35-4.52-13.56.15-4.21.32-10.44 4.83-12.46 4.51-2.02 11.69-1.41 15.43-3.74s9.66-4.21 12.78-.16c3.12 4.05.78 9.66-1.71 12s-5.61 3-5.3 4c.31 1 2.18 2.18 1.09 3.74s-5 3-5 3.58c0 .58.94 2.81-.15 3.12-1.09.31-2.19-2.18-3.28-2.18-1.09 0-3.41 3.01-1.39 5.03z" fill="#263238" stroke="#263238" stroke-linecap="round" stroke-linejoin="round"/><path d="M135.898 108.744a7.904 7.904 0 00-1.14 1.66m21.62-17.81a10.32 10.32 0 01-5.7 8.079c-4 2.07-9.33 3.76-12.87 6.36m13.33-4.379s-3.55 3-7.35 6.09a32.404 32.404 0 01-8.55 4.75" stroke="#fff" stroke-width=".5" stroke-linecap="round" stroke-linejoin="round"/><path d="M142.158 116.313l2 .5a6.904 6.904 0 001.51 5.27" fill="#fff"/><path d="M142.158 116.313l2 .5a6.904 6.904 0 001.51 5.27m-1.19-11.139l14.12-3.5m-3.63-.28l3.22.14s1.11 3.64-2.24 4.06" stroke="#263238" stroke-linecap="round" stroke-linejoin="round"/><path d="M140.728 280.054s13 8.21 15.29 8.21c2.29 0 3.43 2.06 2.29 2.29-1.14.23-8.22.45-13 .68-4.78.23-8-.23-10.73-.23-2.73 0-5.94.23-7.31-.45-1.37-.68.92-8.45.92-9.82 0-1.37 10.94-1.6 12.54-.68z" fill="#263238" stroke="#263238" stroke-linecap="round" stroke-linejoin="round"/><path d="M157.488 288.603c-5.05 1.66-13.24.57-18.16.12-3.89-.35-10-.43-12.49-.45-.1 1.17 0 2.06.39 2.28 1.37.68 4.57.45 7.31.45 2.74 0 5.93.46 10.73.23 4.8-.23 11.87-.46 13-.68.89-.18.47-1.36-.78-1.95z" fill="#fff" stroke="#263238" stroke-linecap="round" stroke-linejoin="round"/><path d="M150.998 223.654l-10.26 51.45 2.14 5.34a10.753 10.753 0 01-6.49 4.38 49.246 49.246 0 01-8.9.92s-1.14-5.71-.45-6.4c.69-.69.91-3.42.91-3.42l5.93-51.82 17.12-.45z" fill="#C6B5DD" stroke="#263238" stroke-linecap="round" stroke-linejoin="round"/><path d="M182.268 278.313s8 6.62 11.65 7.76c3.65 1.14 7.53 2.28 7.53 3.42 0 1.14-8.67 2.28-15.29 1.6-6.62-.68-16.67-3.65-18.95-3.65-2.28 0-1.83-5.94-1.83-6.85 0-.91 11.19-8.22 16.89-2.28z" fill="#263238" stroke="#263238" stroke-linecap="round" stroke-linejoin="round"/><path d="M201.488 289.494c0-.41-.51-.82-1.32-1.23a70.472 70.472 0 01-19.68-.14c-6.57-.94-12.07-2.2-14.88-2.9.24 1.23.71 2.22 1.64 2.22 2.28 0 12.33 3 18.95 3.65 6.62.65 15.29-.46 15.29-1.6z" fill="#fff" stroke="#263238" stroke-linecap="round" stroke-linejoin="round"/><path d="M142.558 200.594c6.845-.524 13.725-.37 20.54.46 11.64 1.37 37.65 3 38.1 5.94.45 2.94-20.18 64.73-20.18 66.32 0 1.59 1.82 3.2 2.28 4.11.29.648.447 1.349.46 2.06 0 0-5.59 6-9.93 7.63s-8 .1-8.9.1c-.9 0-.91-6.16-.22-9.13.69-2.97 1.82-10.5 2.05-11.18.23-.68 12.73-44.62 12.73-44.62s-34 5.48-54.31 3.19c-20.31-2.29-22.37-5.47-23.51-10.27-1.14-4.8 1.14-14.38 1.14-14.38l39.75-.23z" fill="#C6B5DD" stroke="#263238" stroke-linecap="round" stroke-linejoin="round"/><path d="M139.988 215.384a14.908 14.908 0 01-1.54 1.88m7.76-14.16a86.406 86.406 0 01-4.53 9.59m1.81-7.3a24.25 24.25 0 01-11.87 10" stroke="#263238" stroke-linecap="round" stroke-linejoin="round"/><path d="M195.308 217.993c.78-.3 1.53-.61 2.24-.93l-2.24.93z" fill="#fff"/><path d="M195.308 217.993c.78-.3 1.53-.61 2.24-.93" stroke="#263238" stroke-linecap="round" stroke-linejoin="round"/><path d="M179.488 222.284a117.67 117.67 0 0013-3.29l-13 3.29z" fill="#fff"/><path d="M179.488 222.284a117.67 117.67 0 0013-3.29" stroke="#263238" stroke-linecap="round" stroke-linejoin="round"/><path d="M205.878 146.474c.48-1.91 1.28-1.76.64-2.39-.88-.88-1.59.16-4.14 1.59-2.55 1.43-5.09 3.18-5.09 3.18a2.558 2.558 0 01.63-1.43 6.806 6.806 0 001-3.5c0-1-.8-.8-1.12.16-.32.96-3.18 2.7-3.34 3.5-.16.8-.73 3.94-.73 3.94-.91 1.37-.91 7.76-.91 7.76l-18.53 13.92-9.36 11s4.11 6.62 6.39 5.71c2.28-.91 3.42-1.83 8.9-6.4 4.64-3.87 16.27-21.72 16.27-21.72a43.254 43.254 0 005.73-4.3 13.892 13.892 0 003.46-8.4c-.043-.879.025-1.759.2-2.62zm-85.74-21.121s1.76-6.6 9.24-5.28c7.48 1.32 13.2 7.48 14.52 9.68 1.32 2.2-24.2-.88-24.2-.88l.44-3.52z" fill="#fff" stroke="#263238" stroke-linecap="round" stroke-linejoin="round"/><path d="M163.258 182.994s-1.74 1.88 0 4.84c1.19 2.05 3.29 3.62 7.31 2.93 3.76-.66 9.41-10 9.41-16.57s-4.84-7-6.6-5.72c-1.76 1.28-10.12 14.52-10.12 14.52z" fill="#fff" stroke="#263238" stroke-linecap="round" stroke-linejoin="round"/><path d="M123.378 124.584s-17.8 8.45-20.31 10c-2.51 1.55-4.11 21.45-4.11 24.88 0 3.43 2.51 37 3.19 42.68.68 5.68 22.6 9.59 29.91 7.53 7.31-2.06 14.43-7.25 14.43-9.08s-.69-17.34-.23-20.31c.46-2.97 4.56-15.52 4.56-15.52l12.46 19.88s1.31 2.44 5.94.52c6.62-2.74 7.17-13.33 7.17-13.33s-7.3-12.78-9.36-19.17c-2.06-6.39-3-11.19-3.88-12.33-.88-1.14-21.46-10.73-25.11-13.24a16.226 16.226 0 00-14.66-2.51z" fill="#fff" stroke="#263238" stroke-linecap="round" stroke-linejoin="round"/><path d="M150.768 164.764l-5.93-8.681m4.97 7.441l-10.45-5.15" stroke="#263238" stroke-linecap="round" stroke-linejoin="round"/><path d="M118.838 228.994l9.12 64.82a1.089 1.089 0 001.966.479c.154-.214.226-.476.204-.739l-6.43-65.63-4.86 1.07zm-26.2.509l-15.24 63.66a1.09 1.09 0 00.91 1.33 1.082 1.082 0 001.2-.78l17.7-61.78-4.57-2.43z" fill="#263238" stroke="#263238" stroke-linecap="round" stroke-linejoin="round"/><path d="M120.318 228.714l-9.7 64.73a1.105 1.105 0 00.57 1.134c.133.071.28.114.43.126a1.093 1.093 0 001.13-.88l12.31-63.08-4.74-2.03zm34.34.28l9.12 64.82a1.089 1.089 0 001.966.479c.154-.214.226-.476.204-.739l-6.46-65.65-4.83 1.09z" fill="#263238" stroke="#263238" stroke-linecap="round" stroke-linejoin="round"/><path d="M78.208 161.724l11.1 72.17h78.94s1.17-20.8-2.31-28.15c-3.48-7.35-46.45 8.41-48 8-1.15-.29.55-37.55 2.66-52.11a7.213 7.213 0 00-1.69-5.759 7.215 7.215 0 00-5.46-2.491h-28.1a7.218 7.218 0 00-7.14 8.34z" fill="#C6B5DD" stroke="#263238" stroke-linecap="round" stroke-linejoin="round"/><path d="M165.938 205.744c-3.48-7.35-46.45 8.41-48 8-1.15-.29.55-37.55 2.66-52.11a6.998 6.998 0 00-9.894-7.576 6.997 6.997 0 00-3.866 7.646l11.1 72.17h50.31s1.17-20.78-2.31-28.13z" fill="#263238" stroke="#263238" stroke-linecap="round" stroke-linejoin="round"/><path d="M205.878 146.474s-1.27 1.27-3.18 3.5l3.18-3.5z" fill="#fff"/><path d="M205.878 146.474s-1.27 1.27-3.18 3.5" stroke="#263238" stroke-linecap="round" stroke-linejoin="round"/><path d="M205.678 149.053s-1.55 3.15-2.5 4.58l2.5-4.58z" fill="#fff"/><path d="M205.678 149.053s-1.55 3.15-2.5 4.58" stroke="#263238" stroke-linecap="round" stroke-linejoin="round"/></svg>