<svg width="72" height="66" fill="none" xmlns="http://www.w3.org/2000/svg"><circle cx="36" cy="34" r="32" fill="url(#paint0_radial)"/><mask id="a" maskUnits="userSpaceOnUse" x="4" y="2" width="64" height="64"><circle cx="36" cy="34" r="32" fill="url(#paint1_radial)"/></mask><g filter="url(#filter0_f)" mask="url(#a)"><ellipse cx="36" cy="22.5" rx="32" ry="20.5" fill="url(#paint2_linear)"/></g><g filter="url(#filter1_f)"><path d="M36.23 15.617L31.132 5.283a.97.97 0 01.788-1.408c2.796-.211 9.086-.513 13.079.625C50.315 6.015 57 12 57 12l-1.273 6.505a1.014 1.014 0 01-1.337.756c-1.61-.576-4.644-1.613-6.89-2.095-3.455-.741-8.632-.939-10.39-.986a1.01 1.01 0 01-.88-.563z" fill="#F0CBA7" fill-opacity=".95"/></g><g filter="url(#filter2_f)"><rect x="60" y="18" width="5.805" height="5.943" rx="2" transform="rotate(31.733 60 18)" fill="#F0CBA7" fill-opacity=".95"/></g><g filter="url(#filter3_f)"><path d="M14.606 28.909l-3.546-5.32c-1.308-1.961-4.275-1.674-5.182.503a4.92 4.92 0 00-.378 1.892v2.286a5 5 0 002.296 4.206l2.023 1.3a3.487 3.487 0 004.787-4.867z" fill="#F0CBA7" fill-opacity=".95"/></g><defs><filter id="filter0_f" x="0" y="-2" width="72" height="49" filterUnits="userSpaceOnUse" color-interpolation-filters="sRGB"><feFlood flood-opacity="0" result="BackgroundImageFix"/><feBlend in="SourceGraphic" in2="BackgroundImageFix" result="shape"/><feGaussianBlur stdDeviation="2" result="effect1_foregroundBlur"/></filter><filter id="filter1_f" x="28.028" y=".674" width="31.972" height="21.647" filterUnits="userSpaceOnUse" color-interpolation-filters="sRGB"><feFlood flood-opacity="0" result="BackgroundImageFix"/><feBlend in="SourceGraphic" in2="BackgroundImageFix" result="shape"/><feGaussianBlur stdDeviation="1.5" result="effect1_foregroundBlur"/></filter><filter id="filter2_f" x="53.874" y="15" width="14.063" height="14.107" filterUnits="userSpaceOnUse" color-interpolation-filters="sRGB"><feFlood flood-opacity="0" result="BackgroundImageFix"/><feBlend in="SourceGraphic" in2="BackgroundImageFix" result="shape"/><feGaussianBlur stdDeviation="1.5" result="effect1_foregroundBlur"/></filter><filter id="filter3_f" x="2.5" y="19.275" width="15.691" height="18.056" filterUnits="userSpaceOnUse" color-interpolation-filters="sRGB"><feFlood flood-opacity="0" result="BackgroundImageFix"/><feBlend in="SourceGraphic" in2="BackgroundImageFix" result="shape"/><feGaussianBlur stdDeviation="1.5" result="effect1_foregroundBlur"/></filter><radialGradient id="paint0_radial" cx="0" cy="0" r="1" gradientUnits="userSpaceOnUse" gradientTransform="matrix(0 32 -32 0 36 34)"><stop offset=".492" stop-color="#8F3352"/><stop offset="1" stop-color="#BA7A77"/></radialGradient><radialGradient id="paint1_radial" cx="0" cy="0" r="1" gradientUnits="userSpaceOnUse" gradientTransform="matrix(0 32 -32 0 36 34)"><stop offset=".492" stop-color="#8F3352"/><stop offset="1" stop-color="#B57273"/></radialGradient><linearGradient id="paint2_linear" x1="36" y1="2" x2="36" y2="43" gradientUnits="userSpaceOnUse"><stop stop-color="#A35764"/><stop offset="1" stop-color="#830048"/></linearGradient></defs></svg>