<svg width="399" height="331" fill="none" xmlns="http://www.w3.org/2000/svg"><path d="M116.224 44.7l-34.267-4.767-3.147 22.354 33.85 5.646 3.564-23.233zm-2.046.62l-16.79 8.08-13.672-12.31 30.462 4.23zm-34.36 16.226L82.66 41.33l14.57 13.126 17.902-8.609-3.231 21.059-32.082-5.36z" fill="#C6B5DD"/><path opacity=".6" d="M116.224 44.7l-34.267-4.767-3.147 22.354 33.85 5.646 3.564-23.233zm-2.046.62l-16.79 8.08-13.672-12.31 30.462 4.23zm-34.36 16.226L82.66 41.33l14.57 13.126 17.902-8.609-3.231 21.059-32.082-5.36z" fill="#fff"/><path d="M284.468 23.493l-28.176 24.65 36.266 43.672.287.351 29.667-25.307-38.044-43.366zm36.091 42.496l-31.49-8.516-4.018-31.953 35.508 40.47zm-63.027-17.744l26.547-23.224 4.166 33.156 32.684 8.84-27.982 23.872-35.415-42.644z" fill="#C6B5DD"/><path opacity=".6" d="M284.468 23.493l-28.176 24.65 36.266 43.672.287.351 29.667-25.307-38.044-43.366zm36.091 42.496l-31.49-8.516-4.018-31.953 35.508 40.47zm-63.027-17.744l26.547-23.224 4.166 33.156 32.684 8.84-27.982 23.872-35.415-42.644z" fill="#fff"/><path d="M34.185 150.926c-.01 0-.01 0 0 0a.446.446 0 01-.445-.454c.01-.601.028-1.194.037-1.795a.441.441 0 01.463-.435c.25.009.445.213.435.462-.018.593-.027 1.195-.037 1.787a.463.463 0 01-.453.435zm.185-6.267h-.019a.444.444 0 01-.425-.462l.083-1.796a.448.448 0 01.472-.426c.25.009.435.222.426.472l-.084 1.787a.455.455 0 01-.453.425zm.36-6.248h-.027a.447.447 0 01-.417-.481c.038-.592.084-1.194.13-1.786a.43.43 0 01.481-.408c.25.019.436.232.408.482a114.42 114.42 0 00-.13 1.777.452.452 0 01-.444.416zm.52-6.248h-.047a.44.44 0 01-.398-.49c.055-.593.12-1.185.185-1.787a.44.44 0 01.49-.398c.25.028.426.25.399.491-.065.592-.12 1.185-.185 1.777a.437.437 0 01-.445.407zm.703-6.22h-.056a.454.454 0 01-.389-.5c.074-.592.158-1.185.232-1.777a.446.446 0 01.5-.38c.24.037.416.26.38.5a108.32 108.32 0 00-.232 1.768.433.433 0 01-.435.389zm.888-6.202c-.028 0-.046 0-.074-.009a.448.448 0 01-.37-.509c.093-.593.185-1.185.287-1.768a.452.452 0 01.518-.37.45.45 0 01.37.518c-.101.583-.194 1.176-.286 1.759a.462.462 0 01-.445.379zm1.074-6.174c-.028 0-.056 0-.083-.009a.447.447 0 01-.352-.528c.111-.592.222-1.175.343-1.758a.452.452 0 01.527-.352c.24.046.398.287.352.527-.12.584-.232 1.167-.343 1.75a.461.461 0 01-.444.37zm1.268-6.137c-.028 0-.065 0-.102-.009a.46.46 0 01-.342-.537c.13-.583.268-1.166.398-1.749a.447.447 0 11.87.203 121.05 121.05 0 00-.398 1.74.427.427 0 01-.426.352zm1.472-6.081a.432.432 0 01-.111-.019.455.455 0 01-.324-.546c.148-.583.305-1.157.463-1.73a.446.446 0 01.86.23c-.157.575-.305 1.148-.462 1.722a.426.426 0 01-.426.343zm1.694-6.035c-.046 0-.083-.01-.13-.019a.441.441 0 01-.296-.555c.176-.574.343-1.148.528-1.713a.455.455 0 01.564-.296c.241.074.37.324.297.565-.176.564-.352 1.138-.519 1.703a.485.485 0 01-.444.315zm1.897-5.961a.46.46 0 01-.148-.028.445.445 0 01-.277-.565l.583-1.694a.459.459 0 01.574-.278.459.459 0 01.277.574c-.194.565-.388 1.12-.583 1.685a.448.448 0 01-.426.306zm2.13-5.897a.433.433 0 01-.158-.028.449.449 0 01-.26-.573c.214-.556.436-1.12.649-1.676a.447.447 0 01.583-.25.447.447 0 01.25.583c-.222.556-.435 1.111-.648 1.666a.445.445 0 01-.417.278zm2.36-5.804a.402.402 0 01-.176-.037c-.232-.102-.333-.36-.232-.592.241-.546.472-1.102.722-1.648a.46.46 0 01.593-.231.46.46 0 01.231.592c-.24.546-.481 1.093-.713 1.639a.482.482 0 01-.425.277zm2.592-5.701a.45.45 0 01-.407-.639c.258-.537.518-1.083.786-1.62a.449.449 0 11.805.398c-.259.537-.527 1.074-.777 1.61a.48.48 0 01-.407.25zm2.823-5.6a.457.457 0 01-.213-.056.439.439 0 01-.185-.602c.277-.528.564-1.055.851-1.583a.452.452 0 01.611-.176c.213.12.296.39.176.611-.287.519-.564 1.046-.852 1.574a.433.433 0 01-.388.231zm3.064-5.462a.44.44 0 01-.232-.065.442.442 0 01-.157-.61c.305-.519.61-1.028.925-1.537a.442.442 0 01.611-.148.44.44 0 01.148.61 70.89 70.89 0 00-.916 1.528.44.44 0 01-.38.222zm3.323-5.322a.518.518 0 01-.25-.074.458.458 0 01-.13-.62c.333-.5.667-1 1-1.49a.447.447 0 01.74.499c-.333.49-.666.99-.99 1.481a.418.418 0 01-.37.204zm3.573-5.147a.433.433 0 01-.26-.083.456.456 0 01-.101-.63c.351-.481.712-.962 1.064-1.444a.454.454 0 01.63-.092c.194.148.24.426.092.63-.36.471-.713.953-1.064 1.434a.452.452 0 01-.361.185zm3.804-4.98a.447.447 0 01-.278-.102.444.444 0 01-.064-.63c.379-.471.75-.934 1.138-1.397a.435.435 0 01.63-.055.435.435 0 01.055.63c-.38.462-.75.915-1.13 1.388a.456.456 0 01-.351.166zm4.036-4.795a.442.442 0 01-.333-.74c.398-.444.796-.898 1.203-1.342a.442.442 0 01.63-.028.442.442 0 01.027.63c-.398.434-.796.879-1.194 1.332a.417.417 0 01-.333.148zm196.013-1.462a.367.367 0 01-.167-.037c-.555-.222-1.11-.454-1.656-.676a.442.442 0 01-.241-.583.445.445 0 01.583-.24c.546.221 1.102.453 1.657.675a.448.448 0 01.25.583.454.454 0 01-.426.278zm-5.785-2.407a.403.403 0 01-.176-.037l-1.648-.703c-.231-.102-.333-.361-.231-.593.102-.231.361-.333.592-.231l1.648.703a.447.447 0 01.241.584.473.473 0 01-.426.277zm-185.961-.722a.474.474 0 01-.315-.13.441.441 0 01-.009-.629c.416-.426.842-.851 1.259-1.277a.441.441 0 01.63 0 .441.441 0 010 .63 74.67 74.67 0 00-1.25 1.267.429.429 0 01-.315.14zm180.213-1.759a.374.374 0 01-.176-.037l-1.639-.722a.46.46 0 01-.231-.592.46.46 0 01.592-.231l1.639.722a.452.452 0 01.231.592.456.456 0 01-.416.268zm-5.721-2.554a.44.44 0 01-.185-.037l-1.629-.74c-.222-.103-.324-.371-.222-.593a.45.45 0 01.592-.222l1.629.74c.222.102.324.37.222.593a.449.449 0 01-.407.259zm-170.021-.065a.434.434 0 01-.324-.139.45.45 0 01.018-.63c.435-.407.88-.814 1.324-1.212a.45.45 0 01.63.028.45.45 0 01-.028.63c-.445.397-.88.805-1.315 1.203a.426.426 0 01-.305.12zm164.319-2.527a.414.414 0 01-.185-.037l-1.629-.75c-.222-.102-.324-.37-.222-.592.102-.222.37-.324.592-.222l1.629.75c.223.101.324.37.223.592a.462.462 0 01-.408.259zm-159.636-1.63a.443.443 0 01-.287-.787c.454-.388.917-.767 1.38-1.147a.444.444 0 01.63.065.444.444 0 01-.066.63c-.462.379-.916.758-1.37 1.138a.472.472 0 01-.287.102zm153.944-.99a.419.419 0 01-.186-.037l-1.629-.75a.45.45 0 01-.222-.592.451.451 0 01.593-.222l1.629.75a.45.45 0 01.222.592.454.454 0 01-.407.26zm-5.702-2.6a.418.418 0 01-.186-.038l-1.629-.74a.451.451 0 01-.222-.593.451.451 0 01.593-.222l1.629.74c.222.103.324.371.222.593a.46.46 0 01-.407.26zM90.26 23.603a.47.47 0 01-.361-.175.454.454 0 01.083-.63c.472-.361.954-.722 1.435-1.074a.455.455 0 01.63.093.455.455 0 01-.093.63c-.481.351-.954.712-1.426 1.064a.495.495 0 01-.268.092zm137.642-2.258a.445.445 0 01-.185-.037l-1.638-.732a.46.46 0 01-.231-.592.46.46 0 01.592-.231l1.638.73c.222.103.324.371.222.593a.408.408 0 01-.398.269zm-132.57-1.407a.44.44 0 01-.37-.195.447.447 0 01.12-.62c.491-.333.99-.675 1.49-1a.441.441 0 01.62.13.441.441 0 01-.129.62c-.49.324-.99.658-1.48.99a.465.465 0 01-.25.075zm126.841-1.12a.4.4 0 01-.176-.037l-1.639-.704c-.231-.101-.333-.36-.231-.592.093-.232.361-.333.583-.232l1.648.713a.444.444 0 01.231.593.484.484 0 01-.416.259zM100.599 16.55a.44.44 0 01-.379-.213.437.437 0 01.148-.61 51.03 51.03 0 011.546-.917.449.449 0 01.611.157.45.45 0 01-.158.611c-.509.296-1.018.602-1.527.907a.47.47 0 01-.241.065zm115.807-.176a.428.428 0 01-.176-.037c-.546-.231-1.101-.454-1.657-.685a.448.448 0 01-.25-.583.438.438 0 01.583-.24 86.32 86.32 0 011.657.684.445.445 0 01.241.583.409.409 0 01-.398.278zm-5.813-2.351a.527.527 0 01-.167-.028c-.555-.222-1.11-.435-1.666-.648a.453.453 0 01-.259-.574.46.46 0 01.583-.259c.556.213 1.111.435 1.666.648a.446.446 0 01.25.583c-.055.176-.222.278-.407.278zm-104.551-.574a.449.449 0 01-.398-.24.435.435 0 01.185-.602c.528-.287 1.055-.556 1.592-.833a.446.446 0 01.602.194.445.445 0 01-.194.602c-.528.268-1.056.546-1.574.824a.486.486 0 01-.213.055zm98.692-1.647a.474.474 0 01-.158-.028c-.555-.204-1.12-.408-1.684-.611a.45.45 0 01-.269-.574.45.45 0 01.574-.269c.565.204 1.129.408 1.685.611a.45.45 0 01.268.574.427.427 0 01-.416.296zm-93.092-1.14a.444.444 0 01-.407-.258.443.443 0 01.222-.593c.546-.25 1.092-.5 1.638-.74a.448.448 0 01.593.231c.102.222 0 .49-.232.593a83.97 83.97 0 00-1.619.73.726.726 0 01-.195.038zm87.186-.934a.376.376 0 01-.139-.028c-.564-.194-1.129-.38-1.694-.564a.454.454 0 01-.287-.565.45.45 0 01.565-.287c.565.185 1.139.38 1.703.565a.441.441 0 01.278.564.453.453 0 01-.426.315zM117.4 8.202a.45.45 0 01-.417-.287.455.455 0 01.25-.583c.555-.223 1.12-.435 1.675-.64a.445.445 0 11.315.834 61.4 61.4 0 00-1.666.639.304.304 0 01-.157.037zm75.458-.39a.574.574 0 01-.13-.018 138.67 138.67 0 00-1.712-.509.45.45 0 01-.306-.555.45.45 0 01.556-.306c.574.167 1.147.343 1.721.51a.442.442 0 01.297.555.435.435 0 01-.426.324zm-6.026-1.711c-.037 0-.074-.01-.12-.019a94.972 94.972 0 00-1.731-.454.447.447 0 01-.324-.546.447.447 0 01.546-.324c.583.148 1.157.297 1.74.454a.442.442 0 01.315.546.444.444 0 01-.426.343zm-63.536-.01a.457.457 0 01-.426-.305.454.454 0 01.287-.565 121.57 121.57 0 011.713-.537.44.44 0 01.555.296.441.441 0 01-.296.556c-.565.176-1.139.352-1.703.537a.552.552 0 01-.13.018zm57.454-1.49c-.037 0-.064 0-.101-.01-.584-.129-1.167-.258-1.741-.379a.443.443 0 01-.342-.527.443.443 0 01.527-.343c.584.12 1.167.25 1.759.389a.46.46 0 01.343.537.468.468 0 01-.445.333zm-51.437-.25a.455.455 0 01-.435-.333.447.447 0 01.324-.546c.583-.148 1.166-.287 1.749-.426a.447.447 0 11.204.87c-.584.139-1.157.278-1.731.426-.037.01-.074.01-.111.01zm45.291-1c-.028 0-.055 0-.083-.009l-1.759-.305a.452.452 0 01-.37-.519.452.452 0 01.518-.37l1.768.305a.449.449 0 01.361.519.437.437 0 01-.435.38zM135.431 3a.437.437 0 01-.435-.361.438.438 0 01.361-.519c.592-.11 1.185-.213 1.777-.314.25-.037.472.12.519.37a.456.456 0 01-.371.518c-.583.102-1.175.204-1.758.315-.037-.01-.065-.01-.093-.01zm32.981-.62h-.056l-1.768-.223a.443.443 0 01-.389-.5.45.45 0 01.5-.388l1.787.222c.24.028.416.259.388.5a.482.482 0 01-.462.388zm-26.779-.334a.449.449 0 01-.444-.398.454.454 0 01.388-.5 56.142 56.142 0 011.796-.194.454.454 0 01.491.398.448.448 0 01-.398.49c-.593.056-1.185.12-1.778.195-.018.01-.037.01-.055.01zm20.549-.333h-.037c-.592-.046-1.185-.093-1.777-.13a.445.445 0 01-.417-.472.452.452 0 01.472-.416c.602.037 1.194.083 1.796.13a.44.44 0 01.407.48.438.438 0 01-.444.408zm-14.301-.204a.447.447 0 01-.444-.425.452.452 0 01.425-.473l1.796-.083c.259-.018.454.185.463.435a.447.447 0 01-.435.463c-.592.019-1.185.046-1.777.083h-.028zm8.053-.12h-.009a57.069 57.069 0 00-1.787-.028.446.446 0 01-.444-.453c0-.25.204-.445.444-.445.602 0 1.194.01 1.796.028.25.01.444.213.435.454 0 .25-.194.444-.435.444z" fill="#C6B5DD"/><path opacity=".6" d="M34.185 150.926c-.01 0-.01 0 0 0a.446.446 0 01-.445-.454c.01-.601.028-1.194.037-1.795a.441.441 0 01.463-.435c.25.009.445.213.435.462-.018.593-.027 1.195-.037 1.787a.463.463 0 01-.453.435zm.185-6.267h-.019a.444.444 0 01-.425-.462l.083-1.796a.448.448 0 01.472-.426c.25.009.435.222.426.472l-.084 1.787a.455.455 0 01-.453.425zm.36-6.248h-.027a.447.447 0 01-.417-.481c.038-.592.084-1.194.13-1.786a.43.43 0 01.481-.408c.25.019.436.232.408.482a114.42 114.42 0 00-.13 1.777.452.452 0 01-.444.416zm.52-6.248h-.047a.44.44 0 01-.398-.49c.055-.593.12-1.185.185-1.787a.44.44 0 01.49-.398c.25.028.426.25.399.491-.065.592-.12 1.185-.185 1.777a.437.437 0 01-.445.407zm.703-6.22h-.056a.454.454 0 01-.389-.5c.074-.592.158-1.185.232-1.777a.446.446 0 01.5-.38c.24.037.416.26.38.5a108.32 108.32 0 00-.232 1.768.433.433 0 01-.435.389zm.888-6.202c-.028 0-.046 0-.074-.009a.448.448 0 01-.37-.509c.093-.593.185-1.185.287-1.768a.452.452 0 01.518-.37.45.45 0 01.37.518c-.101.583-.194 1.176-.286 1.759a.462.462 0 01-.445.379zm1.074-6.174c-.028 0-.056 0-.083-.009a.447.447 0 01-.352-.528c.111-.592.222-1.175.343-1.758a.452.452 0 01.527-.352c.24.046.398.287.352.527-.12.584-.232 1.167-.343 1.75a.461.461 0 01-.444.37zm1.268-6.137c-.028 0-.065 0-.102-.009a.46.46 0 01-.342-.537c.13-.583.268-1.166.398-1.749a.447.447 0 11.87.203 121.05 121.05 0 00-.398 1.74.427.427 0 01-.426.352zm1.472-6.081a.432.432 0 01-.111-.019.455.455 0 01-.324-.546c.148-.583.305-1.157.463-1.73a.446.446 0 01.86.23c-.157.575-.305 1.148-.462 1.722a.426.426 0 01-.426.343zm1.694-6.035c-.046 0-.083-.01-.13-.019a.441.441 0 01-.296-.555c.176-.574.343-1.148.528-1.713a.455.455 0 01.564-.296c.241.074.37.324.297.565-.176.564-.352 1.138-.519 1.703a.485.485 0 01-.444.315zm1.897-5.961a.46.46 0 01-.148-.028.445.445 0 01-.277-.565l.583-1.694a.459.459 0 01.574-.278.459.459 0 01.277.574c-.194.565-.388 1.12-.583 1.685a.448.448 0 01-.426.306zm2.13-5.897a.433.433 0 01-.158-.028.449.449 0 01-.26-.573c.214-.556.436-1.12.649-1.676a.447.447 0 01.583-.25.447.447 0 01.25.583c-.222.556-.435 1.111-.648 1.666a.445.445 0 01-.417.278zm2.36-5.804a.402.402 0 01-.176-.037c-.232-.102-.333-.36-.232-.592.241-.546.472-1.102.722-1.648a.46.46 0 01.593-.231.46.46 0 01.231.592c-.24.546-.481 1.093-.713 1.639a.482.482 0 01-.425.277zm2.592-5.701a.45.45 0 01-.407-.639c.258-.537.518-1.083.786-1.62a.449.449 0 11.805.398c-.259.537-.527 1.074-.777 1.61a.48.48 0 01-.407.25zm2.823-5.6a.457.457 0 01-.213-.056.439.439 0 01-.185-.602c.277-.528.564-1.055.851-1.583a.452.452 0 01.611-.176c.213.12.296.39.176.611-.287.519-.564 1.046-.852 1.574a.433.433 0 01-.388.231zm3.064-5.462a.44.44 0 01-.232-.065.442.442 0 01-.157-.61c.305-.519.61-1.028.925-1.537a.442.442 0 01.611-.148.44.44 0 01.148.61 70.89 70.89 0 00-.916 1.528.44.44 0 01-.38.222zm3.323-5.322a.518.518 0 01-.25-.074.458.458 0 01-.13-.62c.333-.5.667-1 1-1.49a.447.447 0 01.74.499c-.333.49-.666.99-.99 1.481a.418.418 0 01-.37.204zm3.573-5.147a.433.433 0 01-.26-.083.456.456 0 01-.101-.63c.351-.481.712-.962 1.064-1.444a.454.454 0 01.63-.092c.194.148.24.426.092.63-.36.471-.713.953-1.064 1.434a.452.452 0 01-.361.185zm3.804-4.98a.447.447 0 01-.278-.102.444.444 0 01-.064-.63c.379-.471.75-.934 1.138-1.397a.435.435 0 01.63-.055.435.435 0 01.055.63c-.38.462-.75.915-1.13 1.388a.456.456 0 01-.351.166zm4.036-4.795a.442.442 0 01-.333-.74c.398-.444.796-.898 1.203-1.342a.442.442 0 01.63-.028.442.442 0 01.027.63c-.398.434-.796.879-1.194 1.332a.417.417 0 01-.333.148zm196.013-1.462a.367.367 0 01-.167-.037c-.555-.222-1.11-.454-1.656-.676a.442.442 0 01-.241-.583.445.445 0 01.583-.24c.546.221 1.102.453 1.657.675a.448.448 0 01.25.583.454.454 0 01-.426.278zm-5.785-2.407a.403.403 0 01-.176-.037l-1.648-.703c-.231-.102-.333-.361-.231-.593.102-.231.361-.333.592-.231l1.648.703a.447.447 0 01.241.584.473.473 0 01-.426.277zm-185.961-.722a.474.474 0 01-.315-.13.441.441 0 01-.009-.629c.416-.426.842-.851 1.259-1.277a.441.441 0 01.63 0 .441.441 0 010 .63 74.67 74.67 0 00-1.25 1.267.429.429 0 01-.315.14zm180.213-1.759a.374.374 0 01-.176-.037l-1.639-.722a.46.46 0 01-.231-.592.46.46 0 01.592-.231l1.639.722a.452.452 0 01.231.592.456.456 0 01-.416.268zm-5.721-2.554a.44.44 0 01-.185-.037l-1.629-.74c-.222-.103-.324-.371-.222-.593a.45.45 0 01.592-.222l1.629.74c.222.102.324.37.222.593a.449.449 0 01-.407.259zm-170.021-.065a.434.434 0 01-.324-.139.45.45 0 01.018-.63c.435-.407.88-.814 1.324-1.212a.45.45 0 01.63.028.45.45 0 01-.028.63c-.445.397-.88.805-1.315 1.203a.426.426 0 01-.305.12zm164.319-2.527a.414.414 0 01-.185-.037l-1.629-.75c-.222-.102-.324-.37-.222-.592.102-.222.37-.324.592-.222l1.629.75c.223.101.324.37.223.592a.462.462 0 01-.408.259zm-159.636-1.63a.443.443 0 01-.287-.787c.454-.388.917-.767 1.38-1.147a.444.444 0 01.63.065.444.444 0 01-.066.63c-.462.379-.916.758-1.37 1.138a.472.472 0 01-.287.102zm153.944-.99a.419.419 0 01-.186-.037l-1.629-.75a.45.45 0 01-.222-.592.451.451 0 01.593-.222l1.629.75a.45.45 0 01.222.592.454.454 0 01-.407.26zm-5.702-2.6a.418.418 0 01-.186-.038l-1.629-.74a.451.451 0 01-.222-.593.451.451 0 01.593-.222l1.629.74c.222.103.324.371.222.593a.46.46 0 01-.407.26zM90.26 23.603a.47.47 0 01-.361-.175.454.454 0 01.083-.63c.472-.361.954-.722 1.435-1.074a.455.455 0 01.63.093.455.455 0 01-.093.63c-.481.351-.954.712-1.426 1.064a.495.495 0 01-.268.092zm137.642-2.258a.445.445 0 01-.185-.037l-1.638-.732a.46.46 0 01-.231-.592.46.46 0 01.592-.231l1.638.73c.222.103.324.371.222.593a.408.408 0 01-.398.269zm-132.57-1.407a.44.44 0 01-.37-.195.447.447 0 01.12-.62c.491-.333.99-.675 1.49-1a.441.441 0 01.62.13.441.441 0 01-.129.62c-.49.324-.99.658-1.48.99a.465.465 0 01-.25.075zm126.841-1.12a.4.4 0 01-.176-.037l-1.639-.704c-.231-.101-.333-.36-.231-.592.093-.232.361-.333.583-.232l1.648.713a.444.444 0 01.231.593.484.484 0 01-.416.259zM100.599 16.55a.44.44 0 01-.379-.213.437.437 0 01.148-.61 51.03 51.03 0 011.546-.917.449.449 0 01.611.157.45.45 0 01-.158.611c-.509.296-1.018.602-1.527.907a.47.47 0 01-.241.065zm115.807-.176a.428.428 0 01-.176-.037c-.546-.231-1.101-.454-1.657-.685a.448.448 0 01-.25-.583.438.438 0 01.583-.24 86.32 86.32 0 011.657.684.445.445 0 01.241.583.409.409 0 01-.398.278zm-5.813-2.351a.527.527 0 01-.167-.028c-.555-.222-1.11-.435-1.666-.648a.453.453 0 01-.259-.574.46.46 0 01.583-.259c.556.213 1.111.435 1.666.648a.446.446 0 01.25.583c-.055.176-.222.278-.407.278zm-104.551-.574a.449.449 0 01-.398-.24.435.435 0 01.185-.602c.528-.287 1.055-.556 1.592-.833a.446.446 0 01.602.194.445.445 0 01-.194.602c-.528.268-1.056.546-1.574.824a.486.486 0 01-.213.055zm98.692-1.647a.474.474 0 01-.158-.028c-.555-.204-1.12-.408-1.684-.611a.45.45 0 01-.269-.574.45.45 0 01.574-.269c.565.204 1.129.408 1.685.611a.45.45 0 01.268.574.427.427 0 01-.416.296zm-93.092-1.14a.444.444 0 01-.407-.258.443.443 0 01.222-.593c.546-.25 1.092-.5 1.638-.74a.448.448 0 01.593.231c.102.222 0 .49-.232.593a83.97 83.97 0 00-1.619.73.726.726 0 01-.195.038zm87.186-.934a.376.376 0 01-.139-.028c-.564-.194-1.129-.38-1.694-.564a.454.454 0 01-.287-.565.45.45 0 01.565-.287c.565.185 1.139.38 1.703.565a.441.441 0 01.278.564.453.453 0 01-.426.315zM117.4 8.202a.45.45 0 01-.417-.287.455.455 0 01.25-.583c.555-.223 1.12-.435 1.675-.64a.445.445 0 11.315.834 61.4 61.4 0 00-1.666.639.304.304 0 01-.157.037zm75.458-.39a.574.574 0 01-.13-.018 138.67 138.67 0 00-1.712-.509.45.45 0 01-.306-.555.45.45 0 01.556-.306c.574.167 1.147.343 1.721.51a.442.442 0 01.297.555.435.435 0 01-.426.324zm-6.026-1.711c-.037 0-.074-.01-.12-.019a94.972 94.972 0 00-1.731-.454.447.447 0 01-.324-.546.447.447 0 01.546-.324c.583.148 1.157.297 1.74.454a.442.442 0 01.315.546.444.444 0 01-.426.343zm-63.536-.01a.457.457 0 01-.426-.305.454.454 0 01.287-.565 121.57 121.57 0 011.713-.537.44.44 0 01.555.296.441.441 0 01-.296.556c-.565.176-1.139.352-1.703.537a.552.552 0 01-.13.018zm57.454-1.49c-.037 0-.064 0-.101-.01-.584-.129-1.167-.258-1.741-.379a.443.443 0 01-.342-.527.443.443 0 01.527-.343c.584.12 1.167.25 1.759.389a.46.46 0 01.343.537.468.468 0 01-.445.333zm-51.437-.25a.455.455 0 01-.435-.333.447.447 0 01.324-.546c.583-.148 1.166-.287 1.749-.426a.447.447 0 11.204.87c-.584.139-1.157.278-1.731.426-.037.01-.074.01-.111.01zm45.291-1c-.028 0-.055 0-.083-.009l-1.759-.305a.452.452 0 01-.37-.519.452.452 0 01.518-.37l1.768.305a.449.449 0 01.361.519.437.437 0 01-.435.38zM135.431 3a.437.437 0 01-.435-.361.438.438 0 01.361-.519c.592-.11 1.185-.213 1.777-.314.25-.037.472.12.519.37a.456.456 0 01-.371.518c-.583.102-1.175.204-1.758.315-.037-.01-.065-.01-.093-.01zm32.981-.62h-.056l-1.768-.223a.443.443 0 01-.389-.5.45.45 0 01.5-.388l1.787.222c.24.028.416.259.388.5a.482.482 0 01-.462.388zm-26.779-.334a.449.449 0 01-.444-.398.454.454 0 01.388-.5 56.142 56.142 0 011.796-.194.454.454 0 01.491.398.448.448 0 01-.398.49c-.593.056-1.185.12-1.778.195-.018.01-.037.01-.055.01zm20.549-.333h-.037c-.592-.046-1.185-.093-1.777-.13a.445.445 0 01-.417-.472.452.452 0 01.472-.416c.602.037 1.194.083 1.796.13a.44.44 0 01.407.48.438.438 0 01-.444.408zm-14.301-.204a.447.447 0 01-.444-.425.452.452 0 01.425-.473l1.796-.083c.259-.018.454.185.463.435a.447.447 0 01-.435.463c-.592.019-1.185.046-1.777.083h-.028zm8.053-.12h-.009a57.069 57.069 0 00-1.787-.028.446.446 0 01-.444-.453c0-.25.204-.445.444-.445.602 0 1.194.01 1.796.028.25.01.444.213.435.454 0 .25-.194.444-.435.444z" fill="#fff"/><path d="M381.744 169.078a.448.448 0 01-.398-.648c.259-.537.518-1.074.768-1.611a.442.442 0 01.592-.213.44.44 0 01.213.593 53.48 53.48 0 01-.777 1.62.432.432 0 01-.398.259zm2.601-5.702a.396.396 0 01-.176-.037.446.446 0 01-.241-.583c.232-.546.463-1.093.685-1.648a.45.45 0 01.583-.25.446.446 0 01.25.583c-.222.556-.453 1.111-.685 1.666a.455.455 0 01-.416.269zm2.277-5.841a.45.45 0 01-.417-.602c.204-.555.398-1.12.583-1.684a.445.445 0 01.843.287c-.195.564-.389 1.129-.593 1.694a.432.432 0 01-.416.305zm1.934-5.952a.45.45 0 01-.435-.574c.167-.574.334-1.138.491-1.712a.447.447 0 01.861.231c-.158.574-.324 1.157-.491 1.731a.443.443 0 01-.426.324zm1.583-6.063c-.037 0-.065 0-.102-.009a.447.447 0 01-.333-.537c.13-.583.259-1.157.38-1.74a.439.439 0 01.527-.343.44.44 0 01.343.528c-.121.583-.25 1.176-.389 1.759a.437.437 0 01-.426.342zm1.194-6.155c-.028 0-.046 0-.074-.009a.45.45 0 01-.37-.51c.092-.583.185-1.175.268-1.758a.449.449 0 11.889.129c-.083.593-.176 1.185-.268 1.778a.45.45 0 01-.445.37zm.806-6.211h-.047a.449.449 0 01-.407-.491 55.98 55.98 0 00.148-1.777.448.448 0 01.481-.417c.25.019.435.232.417.482-.046.601-.093 1.194-.148 1.795a.445.445 0 01-.444.408zm.37-6.258h-.009a.445.445 0 01-.436-.453c.019-.593.019-1.185.028-1.777 0-.25.204-.445.445-.445.249 0 .444.204.444.454 0 .602-.009 1.203-.028 1.796a.44.44 0 01-.444.425zm-.074-6.257a.442.442 0 01-.445-.426 52.94 52.94 0 00-.111-1.777.448.448 0 01.417-.481c.222-.028.463.166.481.416.047.602.074 1.194.111 1.796a.452.452 0 01-.426.472h-.027zm-.556-6.239a.448.448 0 01-.444-.388 93.275 93.275 0 00-.241-1.759.448.448 0 01.38-.509.46.46 0 01.509.379c.093.593.176 1.185.25 1.787a.448.448 0 01-.389.5c-.028-.019-.046-.01-.065-.01zm-1.036-6.183a.453.453 0 01-.435-.352 53.713 53.713 0 00-.389-1.731.446.446 0 11.87-.203c.139.583.268 1.166.398 1.758a.446.446 0 01-.343.528h-.101zm-1.565-6.063a.434.434 0 01-.425-.315c-.176-.564-.352-1.129-.537-1.694a.445.445 0 01.287-.564c.24-.084.49.046.564.287.185.574.371 1.138.546 1.712a.44.44 0 01-.435.574zm-2.082-5.905a.45.45 0 01-.417-.278c-.222-.546-.444-1.102-.685-1.648a.45.45 0 01.232-.583c.222-.102.49.01.592.231.241.556.463 1.102.694 1.667a.446.446 0 01-.25.583.52.52 0 01-.166.028zm-2.574-5.712a.438.438 0 01-.398-.25 51.888 51.888 0 00-.823-1.573.433.433 0 01.185-.602.447.447 0 01.611.185c.286.528.564 1.065.833 1.602a.454.454 0 01-.195.601.644.644 0 01-.213.037zm-3.073-5.461a.44.44 0 01-.379-.213c-.315-.5-.63-1-.954-1.5a.449.449 0 01.13-.62.441.441 0 01.62.13c.333.5.657 1.009.972 1.518a.45.45 0 01-.389.685zm-3.536-5.165a.47.47 0 01-.361-.176c-.361-.472-.722-.944-1.092-1.407a.445.445 0 01.074-.63.446.446 0 01.63.075c.379.472.74.944 1.101 1.425a.447.447 0 01-.093.63.432.432 0 01-.259.083zm-3.998-4.823a.445.445 0 01-.334-.148 52.89 52.89 0 00-1.222-1.296.442.442 0 01.01-.629.44.44 0 01.629.01c.417.434.824.87 1.231 1.314a.44.44 0 01-.028.63.384.384 0 01-.286.12zm-4.444-4.415a.437.437 0 01-.296-.111 51.347 51.347 0 00-1.342-1.166.451.451 0 01-.055-.63.451.451 0 01.629-.055c.454.389.907.787 1.361 1.184a.443.443 0 01-.297.778zm-4.868-3.943a.435.435 0 01-.26-.083 50.24 50.24 0 00-1.453-1.019.447.447 0 01.5-.74c.5.342.99.685 1.472 1.037.203.148.24.425.102.629a.458.458 0 01-.361.176zm-5.249-3.407a.493.493 0 01-.222-.055 41.483 41.483 0 00-1.555-.86.447.447 0 01-.185-.602.447.447 0 01.602-.186c.527.287 1.055.574 1.573.87.213.12.287.398.167.611a.422.422 0 01-.38.223zm-5.6-2.804a.376.376 0 01-.176-.037 63.277 63.277 0 00-1.638-.685.446.446 0 01-.25-.583.447.447 0 01.583-.25c.555.222 1.111.453 1.666.694a.453.453 0 01.232.592.467.467 0 01-.417.269zm-5.859-2.222a.72.72 0 01-.139-.018 122.7 122.7 0 00-1.694-.537.441.441 0 01-.296-.555.449.449 0 01.555-.297c.574.176 1.148.352 1.722.537a.454.454 0 01.287.565.46.46 0 01-.435.305zm-6.017-1.721c-.037 0-.074 0-.111-.01-.574-.139-1.157-.277-1.731-.416a.446.446 0 11.204-.87c.583.13 1.166.268 1.749.416a.443.443 0 01.324.546.455.455 0 01-.435.334zm-6.118-1.324c-.028 0-.056 0-.084-.01-.583-.11-1.166-.212-1.758-.323a.448.448 0 01-.361-.519.448.448 0 01.518-.36c.592.101 1.176.212 1.768.323a.449.449 0 01.361.519.453.453 0 01-.444.37zm-6.174-1.046c-.019 0-.047 0-.065-.01a121.46 121.46 0 00-1.768-.258.45.45 0 01-.38-.51.454.454 0 01.51-.38c.592.084 1.184.177 1.777.26.24.037.416.269.379.51a.47.47 0 01-.453.388zm-6.211-.87h-.065l-1.777-.24a.454.454 0 01-.389-.5.448.448 0 01.5-.39l1.777.232c.241.037.416.26.379.5a.418.418 0 01-.425.398zm-6.211-.824h-.065l-1.777-.24a.44.44 0 01-.38-.5.446.446 0 01.5-.38l1.777.24c.241.038.417.26.38.5a.433.433 0 01-.435.38zm-6.202-.889c-.019 0-.046 0-.065-.009l-1.777-.277a.448.448 0 01-.37-.51.441.441 0 01.509-.37l1.768.278c.24.037.416.268.379.509a.448.448 0 01-.444.38z" fill="#C6B5DD"/><path opacity=".6" d="M381.744 169.078a.448.448 0 01-.398-.648c.259-.537.518-1.074.768-1.611a.442.442 0 01.592-.213.44.44 0 01.213.593 53.48 53.48 0 01-.777 1.62.432.432 0 01-.398.259zm2.601-5.702a.396.396 0 01-.176-.037.446.446 0 01-.241-.583c.232-.546.463-1.093.685-1.648a.45.45 0 01.583-.25.446.446 0 01.25.583c-.222.556-.453 1.111-.685 1.666a.455.455 0 01-.416.269zm2.277-5.841a.45.45 0 01-.417-.602c.204-.555.398-1.12.583-1.684a.445.445 0 01.843.287c-.195.564-.389 1.129-.593 1.694a.432.432 0 01-.416.305zm1.934-5.952a.45.45 0 01-.435-.574c.167-.574.334-1.138.491-1.712a.447.447 0 01.861.231c-.158.574-.324 1.157-.491 1.731a.443.443 0 01-.426.324zm1.583-6.063c-.037 0-.065 0-.102-.009a.447.447 0 01-.333-.537c.13-.583.259-1.157.38-1.74a.439.439 0 01.527-.343.44.44 0 01.343.528c-.121.583-.25 1.176-.389 1.759a.437.437 0 01-.426.342zm1.194-6.155c-.028 0-.046 0-.074-.009a.45.45 0 01-.37-.51c.092-.583.185-1.175.268-1.758a.449.449 0 11.889.129c-.083.593-.176 1.185-.268 1.778a.45.45 0 01-.445.37zm.806-6.211h-.047a.449.449 0 01-.407-.491 55.98 55.98 0 00.148-1.777.448.448 0 01.481-.417c.25.019.435.232.417.482-.046.601-.093 1.194-.148 1.795a.445.445 0 01-.444.408zm.37-6.258h-.009a.445.445 0 01-.436-.453c.019-.593.019-1.185.028-1.777 0-.25.204-.445.445-.445.249 0 .444.204.444.454 0 .602-.009 1.203-.028 1.796a.44.44 0 01-.444.425zm-.074-6.257a.442.442 0 01-.445-.426 52.94 52.94 0 00-.111-1.777.448.448 0 01.417-.481c.222-.028.463.166.481.416.047.602.074 1.194.111 1.796a.452.452 0 01-.426.472h-.027zm-.556-6.239a.448.448 0 01-.444-.388 93.275 93.275 0 00-.241-1.759.448.448 0 01.38-.509.46.46 0 01.509.379c.093.593.176 1.185.25 1.787a.448.448 0 01-.389.5c-.028-.019-.046-.01-.065-.01zm-1.036-6.183a.453.453 0 01-.435-.352 53.713 53.713 0 00-.389-1.731.446.446 0 11.87-.203c.139.583.268 1.166.398 1.758a.446.446 0 01-.343.528h-.101zm-1.565-6.063a.434.434 0 01-.425-.315c-.176-.564-.352-1.129-.537-1.694a.445.445 0 01.287-.564c.24-.084.49.046.564.287.185.574.371 1.138.546 1.712a.44.44 0 01-.435.574zm-2.082-5.905a.45.45 0 01-.417-.278c-.222-.546-.444-1.102-.685-1.648a.45.45 0 01.232-.583c.222-.102.49.01.592.231.241.556.463 1.102.694 1.667a.446.446 0 01-.25.583.52.52 0 01-.166.028zm-2.574-5.712a.438.438 0 01-.398-.25 51.888 51.888 0 00-.823-1.573.433.433 0 01.185-.602.447.447 0 01.611.185c.286.528.564 1.065.833 1.602a.454.454 0 01-.195.601.644.644 0 01-.213.037zm-3.073-5.461a.44.44 0 01-.379-.213c-.315-.5-.63-1-.954-1.5a.449.449 0 01.13-.62.441.441 0 01.62.13c.333.5.657 1.009.972 1.518a.45.45 0 01-.389.685zm-3.536-5.165a.47.47 0 01-.361-.176c-.361-.472-.722-.944-1.092-1.407a.445.445 0 01.074-.63.446.446 0 01.63.075c.379.472.74.944 1.101 1.425a.447.447 0 01-.093.63.432.432 0 01-.259.083zm-3.998-4.823a.445.445 0 01-.334-.148 52.89 52.89 0 00-1.222-1.296.442.442 0 01.01-.629.44.44 0 01.629.01c.417.434.824.87 1.231 1.314a.44.44 0 01-.028.63.384.384 0 01-.286.12zm-4.444-4.415a.437.437 0 01-.296-.111 51.347 51.347 0 00-1.342-1.166.451.451 0 01-.055-.63.451.451 0 01.629-.055c.454.389.907.787 1.361 1.184a.443.443 0 01-.297.778zm-4.868-3.943a.435.435 0 01-.26-.083 50.24 50.24 0 00-1.453-1.019.447.447 0 01.5-.74c.5.342.99.685 1.472 1.037.203.148.24.425.102.629a.458.458 0 01-.361.176zm-5.249-3.407a.493.493 0 01-.222-.055 41.483 41.483 0 00-1.555-.86.447.447 0 01-.185-.602.447.447 0 01.602-.186c.527.287 1.055.574 1.573.87.213.12.287.398.167.611a.422.422 0 01-.38.223zm-5.6-2.804a.376.376 0 01-.176-.037 63.277 63.277 0 00-1.638-.685.446.446 0 01-.25-.583.447.447 0 01.583-.25c.555.222 1.111.453 1.666.694a.453.453 0 01.232.592.467.467 0 01-.417.269zm-5.859-2.222a.72.72 0 01-.139-.018 122.7 122.7 0 00-1.694-.537.441.441 0 01-.296-.555.449.449 0 01.555-.297c.574.176 1.148.352 1.722.537a.454.454 0 01.287.565.46.46 0 01-.435.305zm-6.017-1.721c-.037 0-.074 0-.111-.01-.574-.139-1.157-.277-1.731-.416a.446.446 0 11.204-.87c.583.13 1.166.268 1.749.416a.443.443 0 01.324.546.455.455 0 01-.435.334zm-6.118-1.324c-.028 0-.056 0-.084-.01-.583-.11-1.166-.212-1.758-.323a.448.448 0 01-.361-.519.448.448 0 01.518-.36c.592.101 1.176.212 1.768.323a.449.449 0 01.361.519.453.453 0 01-.444.37zm-6.174-1.046c-.019 0-.047 0-.065-.01a121.46 121.46 0 00-1.768-.258.45.45 0 01-.38-.51.454.454 0 01.51-.38c.592.084 1.184.177 1.777.26.24.037.416.269.379.51a.47.47 0 01-.453.388zm-6.211-.87h-.065l-1.777-.24a.454.454 0 01-.389-.5.448.448 0 01.5-.39l1.777.232c.241.037.416.26.379.5a.418.418 0 01-.425.398zm-6.211-.824h-.065l-1.777-.24a.44.44 0 01-.38-.5.446.446 0 01.5-.38l1.777.24c.241.038.417.26.38.5a.433.433 0 01-.435.38zm-6.202-.889c-.019 0-.046 0-.065-.009l-1.777-.277a.448.448 0 01-.37-.51.441.441 0 01.509-.37l1.768.278c.24.037.416.268.379.509a.448.448 0 01-.444.38z" fill="#fff"/><path d="M175.095 101.636H27.65v93.36h147.445v-93.36z" fill="#fff" stroke="#263238" stroke-miterlimit="10"/><path d="M73.839 90.796l-2.86-8.182H24.78v119.194h153.175V90.796H73.839zm101.256 104.209H27.65v-93.369h147.445v93.369z" fill="#C6B5DD" stroke="#263238" stroke-miterlimit="10" stroke-linecap="round" stroke-linejoin="round"/><path d="M31.195 93.166l-2.11 2.027 2.193 2.36" fill="#C6B5DD"/><path d="M31.195 93.166l-2.11 2.027 2.193 2.36m-2.194-2.36h4.693" stroke="#263238" stroke-miterlimit="10" stroke-linecap="round" stroke-linejoin="round"/><path d="M43.173 93.166l2.11 2.027-2.184 2.36" fill="#C6B5DD"/><path d="M43.173 93.166l2.11 2.027-2.184 2.36m2.184-2.36H40.59" stroke="#263238" stroke-miterlimit="10" stroke-linecap="round" stroke-linejoin="round"/><path d="M55.382 94.906a2.297 2.297 0 00-2.166-1.666c-1.166 0-2.12.954-2.12 2.12 0 1.166.954 2.12 2.12 2.12.49 0 .962-.167 1.333-.472" fill="#C6B5DD"/><path d="M55.382 94.906a2.297 2.297 0 00-2.166-1.666c-1.166 0-2.12.954-2.12 2.12 0 1.166.954 2.12 2.12 2.12.49 0 .962-.167 1.333-.472" stroke="#263238" stroke-miterlimit="10" stroke-linecap="round" stroke-linejoin="round"/><path d="M53.947 95.157h1.657v-1.944" fill="#C6B5DD"/><path d="M53.947 95.157h1.657v-1.944m10.266-6.369l2.97 3.064m.047-3.008l-3.064 2.952" stroke="#263238" stroke-miterlimit="10" stroke-linecap="round" stroke-linejoin="round"/><path d="M139.92 261.068l-22.733-44.366-65.74 35.656 22.846 41.885 65.627-33.175z" fill="#fff"/><path d="M112.355 228.699l-13.163 32.897-47.476-9.09 44.089 4.128 14.8-28.38 1.75.445z" fill="#C6B5DD"/><path opacity=".5" d="M112.355 228.699l-13.163 32.897-47.476-9.09 44.089 4.128 14.8-28.38 1.75.445z" fill="#fff"/><path d="M51.68 252.21l22.613 42.033 65.627-33.175-23.011-44.079-65.23 35.221z" stroke="#263238" stroke-miterlimit="10" stroke-linecap="round" stroke-linejoin="round"/><path d="M51.68 252.21l44.125 4.424 21.104-39.645" stroke="#263238" stroke-miterlimit="10" stroke-linecap="round" stroke-linejoin="round"/><path d="M121.462 225.659c3.788-3.788 3.788-9.93 0-13.719-3.788-3.788-9.931-3.788-13.719 0-3.788 3.789-3.788 9.931 0 13.719 3.788 3.788 9.931 3.788 13.719 0z" fill="#C6B5DD"/><path opacity=".3" d="M121.462 225.659c3.788-3.788 3.788-9.93 0-13.719-3.788-3.788-9.931-3.788-13.719 0-3.788 3.789-3.788 9.931 0 13.719 3.788 3.788 9.931 3.788 13.719 0z" fill="#000"/><path d="M114.604 228.801a9.7 9.7 0 009.701-9.701c0-5.357-4.343-9.701-9.701-9.701-5.357 0-9.7 4.344-9.7 9.701 0 5.358 4.343 9.701 9.7 9.701z" stroke="#263238" stroke-miterlimit="10" stroke-linecap="round" stroke-linejoin="round"/><path d="M114.604 226.097a9.7 9.7 0 009.701-9.701c0-5.357-4.343-9.7-9.701-9.7-5.357 0-9.7 4.343-9.7 9.7 0 5.358 4.343 9.701 9.7 9.701z" fill="#C6B5DD"/><path d="M114.604 226.097a9.7 9.7 0 009.701-9.701c0-5.357-4.343-9.7-9.701-9.7-5.357 0-9.7 4.343-9.7 9.7 0 5.358 4.343 9.701 9.7 9.701z" stroke="#263238" stroke-miterlimit="10" stroke-linecap="round" stroke-linejoin="round"/><path d="M267.936 190.377h-46.439a2.773 2.773 0 01-2.777-2.777v-25.853a2.773 2.773 0 012.777-2.777h46.439a2.773 2.773 0 012.777 2.777V187.6a2.773 2.773 0 01-2.777 2.777z" fill="#fff"/><path d="M267.936 190.377h-46.439a2.773 2.773 0 01-2.777-2.777v-25.853a2.773 2.773 0 012.777-2.777h46.439a2.773 2.773 0 012.777 2.777V187.6a2.773 2.773 0 01-2.777 2.777z" stroke="#263238" stroke-miterlimit="10" stroke-linecap="round" stroke-linejoin="round"/><path d="M267.529 163.747h-45.384v2.119h45.384v-2.119zm0 4.896h-45.384v2.12h45.384v-2.12zm0 4.897h-45.384v2.119h45.384v-2.119zm0 4.897h-45.384v2.119h45.384v-2.119zm0 4.896h-45.384v2.12h45.384v-2.12z" fill="#C6B5DD"/><path d="M215.869 184.49c-7.368 4.11-14.329 8.784-20.29 14.736-13.866 13.838-20.725 32.943-30.592 49.846a153.499 153.499 0 01-39.488 44.625c-16.402 12.496-35.85 21.771-56.445 23.252-20.596 1.481-42.349-5.628-55.78-21.253-13.43-15.625-16.744-40.08-5.396-57.269 9.349-14.163 27.88-21.642 44.486-17.958 6.498 1.444 12.543 4.379 18.522 7.294 3.073 1.5 6.156 2.999 9.229 4.499M244.064 94.897c9.294-4.415 20.299-5.683 29.991-2.222 9.691 3.453 17.717 11.988 19.383 22.133 1.434 8.756-1.833 17.8-7.156 24.89-3.98 5.304-9.025 9.664-14.412 13.579" stroke="#263238" stroke-miterlimit="10" stroke-linecap="round" stroke-linejoin="round" stroke-dasharray="2 5"/><path d="M189.96 139.782l8.1-5.073 20.327-24.77 16.448 13.81-21.067 23.762-3.045-2.139-17.245 3.62c.009 0-1.722-6.785-3.518-9.21zm-119.453-5.063l-8.183 6.488 2.212 4.582s.417 5.924 3.833 7.757c3.415 1.833 12.459-4.017 12.459-4.017s.935-6.23-2.213-10.83l-8.108-3.98zm95.813-69.165S152.315 92.63 144.067 94.5l-3.267 1.092s-2.953 9.331-12.987 10.895l1.314-7.775-7.303 7.21s-11.774-10.783-8.969-25.408l10.302.675 4.591-8.608s-3.915-2.194-2.98-6.554 1.869-8.404 6.377-4.822c0 0 9.803 4.98 17.745-2.027 7.933-7.007 10.117-7.933 14.319-5.443-.009-.01-1.092 9.645 3.111 11.82z" fill="#fff"/><path d="M121.824 105.922s-10.848-7.174-9.117-24.91c0 0-13.283-2.84-32.305-1.36l-56.51 49.624s1.888 7.488 9.987 9.08c8.1 1.592 28.056 2.879 28.056 2.879l7.794-6.813-17.68-7.275 27.464-16.292.019 27.261s3.091 9.154 1.305 11.431L68.924 161.58s20.03 37.008 65.045 13.626l-4.786-25.668s7.516-1.962 3.156-6.063l7.257-11.885s7.656 27.658 14.477 34.776l38.711-17.041s-1.028-6.637-3.101-9.312l-27.26 6.202s.453-24.576-1.333-32.573c-1.777-8.007-5.221-15.93-12.644-21.336 0 0-4.925 3.462-7.304 2.277 0 0-4.285 11.959-13.32 11.922l1.435-8.368-6.461 6.952-.972.833z" fill="#C6B5DD"/><path d="M163.006 54.974c-2.185 0-4.24 1.13-5.906 2.546-1.666 1.416-3.045 3.138-4.628 4.647-4.452 4.248-10.552 6.72-16.698 6.785a21.34 21.34 0 01-4.258 10.339c-.648.833-1.407 1.777-1.222 2.823.083.49.37.926.657 1.333.926 1.36 1.851 2.721 2.786 4.082.269.389.537.806.574 1.268.065.87-.703 1.555-1.398 2.092-1.971 1.528-3.952 3.046-5.924 4.573 0 0-4.026-9.877-3.823-14.292l4.592-8.608s-8.711-10.2-1.833-13.728c6.877-3.517 11.2.963 11.2.963s16.476-7.997 21.438-7.84c4.952.176 4.443 3.017 4.443 3.017z" fill="#C6B5DD"/><path opacity=".6" d="M163.006 54.974c-2.185 0-4.24 1.13-5.906 2.546-1.666 1.416-3.045 3.138-4.628 4.647-4.452 4.248-10.552 6.72-16.698 6.785a21.34 21.34 0 01-4.258 10.339c-.648.833-1.407 1.777-1.222 2.823.083.49.37.926.657 1.333.926 1.36 1.851 2.721 2.786 4.082.269.389.537.806.574 1.268.065.87-.703 1.555-1.398 2.092-1.971 1.528-3.952 3.046-5.924 4.573 0 0-4.026-9.877-3.823-14.292l4.592-8.608s-8.711-10.2-1.833-13.728c6.877-3.517 11.2.963 11.2.963s16.476-7.997 21.438-7.84c4.952.176 4.443 3.017 4.443 3.017z" fill="#fff"/><path d="M166.227 63.74s-9.182 22.965-21.484 30.676c0 0-.824.824-3.443 0-2.629-.824-8.368-7.377-10.497-10.663-1-1.537-1.352-3.833-1.444-5.841m14.236 2.555s1.148 3.277 4.591 3.934m7.665-18.188c-1.268-1.555-3.425-2.324-5.388-1.935m9.47 4.267c1.37-.51 3.045-.019 3.924 1.138" stroke="#263238" stroke-miterlimit="10" stroke-linecap="round" stroke-linejoin="round"/><path d="M158.341 70.738c-1.019 1.01-1.833 2.24-2.213 3.61-.388 1.38-.324 2.898.315 4.175.269.546.639 1.055.759 1.657.12.601-.129 1.333-.722 1.49-.268.074-.546.01-.814-.055a14.223 14.223 0 01-4.592-2.083m-19.003-14.135a19.056 19.056 0 00-.815-2.684c-.425-1.093-1.147-2.287-2.323-2.425-.416-.047-.842.055-1.231.23-1.139.529-1.898 1.686-2.175 2.917-.278 1.23-.158 2.508.074 3.74a22.34 22.34 0 00.814 3.09c.287.853.648 1.723 1.333 2.306.824.703 2.064.88 3.046.425.981-.453 1.647-1.517 1.638-2.6m-5.267 1.824c-1.055 3.498-2.221 6.053-4.045 8.978m-61.194 60.028l2.61 4.563s.167 6.35 3.425 7.655c3.258 1.305 12.867-3.906 12.867-3.906.166-.491 1-5.109-1.444-10.478 0 0-4.6-2.601-9.664-4.638m6.378 17.069l-2.444-9.451m-2.009 10.988l-3.045-9.516m-16.736-16.504l34.166-19.827m-6.137 3.665c3.258-.12 5.322-.25 8.58-.361m-8.812.565v28.01m68.109-46.985s8.182 2.638 13.394 20.392c1.731 15.31 1.268 34.008 1.268 34.008m36.757-12.404s9.729.342 9.488 1.999c-.241 1.657-8.312 3.203-8.312 3.203s.064.139.12.389c0 0 1.962 3.619-.889 5.294m-.786-10.932c-4.055 2.157-8.988 5.859-8.988 5.859l-28.149 7.192m-53.743 1.917s8.313 3.323 19.291-2.99" stroke="#263238" stroke-miterlimit="10" stroke-linecap="round" stroke-linejoin="round"/><path d="M151.806 71.479c-.426 1.194-1.25 1.999-1.824 1.786-.583-.204-.703-1.342-.278-2.536.426-1.194 1.25-2 1.824-1.787.583.204.703 1.343.278 2.537zm8.312 1.99c-.426 1.194-1.25 2-1.824 1.786-.583-.203-.703-1.342-.277-2.536.425-1.194 1.249-2 1.823-1.786.583.203.713 1.342.278 2.536z" fill="#263238"/><path d="M111.948 189.442a66.99 66.99 0 004.896-.407M70.58 173.863s11.386 14.885 36.221 15.625m96.748-50.567l10.228 8.59 21.068-23.762-16.255-14.032-20.576 24.52" stroke="#263238" stroke-miterlimit="10" stroke-linecap="round" stroke-linejoin="round"/><path d="M218.59 109.717l-2.166 19.272-18.41 5.248" stroke="#263238" stroke-miterlimit="10" stroke-linecap="round" stroke-linejoin="round"/><path d="M131.256 62.722s12.043 3.073 20.365-4.286c8.321-7.358 10.839-3.295 10.839-3.295s-2.129 7.165 2.712 10.45l11.672-10.69s-6.248-6.74-13.995-5.573c0 0-5.823-12.468-15.672-13.31-11.598-.991-38.497 9.376-22.946 42.93l2.805-6.59s-2.907-9.016.666-11.857c2.629-2.065 3.554 2.221 3.554 2.221z" fill="#263238"/><path d="M166.56 51.864c.463.186 2.12-.416 2.749-.407 1.195.028 2.379.333 3.481.787 2.508 1.037 4.989 3.092 6.794 5.11 3.86 4.322 7.461 10.07 13.857 10.468 5.702.361 9.858-3.98 15.291-4.637 11.312-1.36 19.652 10.136 18.217 20.558-3.212 23.428-38.794 37.646-65.452 32.759-.907-.167-.102-14.931-13.079-24.224 0 0 16.717-19.726 17.828-29.926 1.101-10.173.324-10.488.314-10.488z" fill="#263238"/><path d="M162.654 49.958s1.139-7.628-7.137-14.44m-32.36 45.661s-.194 5.711 6.091 16.93l-7.424 7.803s-12.181-8.757-8.756-25.686l10.089.953z" stroke="#263238" stroke-miterlimit="10" stroke-linecap="round" stroke-linejoin="round"/><path d="M141.3 94.416c-5.341 13.051-13.496 12.07-13.496 12.07l1.435-8.368s5.507-3.054 8.025-6.377c.092-.12-.102.12-.037.046m-57.39 58.565l-2.777-9.747m70.21-22.16l-14.958 25.011s1.583 1.574 1.036 3.212c-.546 1.629-4.276 2.888-4.276 2.888s4.86 25.566 4.869 25.631c.296 1.583-13.265 5.702-14.597 6.063-10.858 2.943-22.262 2.657-32.389-2.833-7.192-3.896-13.671-9.913-18.059-16.846l10.941-11.219" stroke="#263238" stroke-miterlimit="10" stroke-linecap="round" stroke-linejoin="round"/><path d="M139.698 131.451s2.351 14.088 14.348 34.888l38.914-17.227 17.346-3.952m-47.652 1.304c-3.906 1.602-6.729 5.563-6.961 9.784m-2.564-6.469a24.883 24.883 0 016.248-3.518m33.583 2.851c.638-1.916-3.138-9.237-3.138-9.237m-76.736-59.158c-10.922-1.176-28.658-2.787-32.101-1.231-5.054 2.276-38.062 33.008-38.062 33.008l-19.04 16.772c.305 6.054 9.987 9.081 9.987 9.081l28.056 2.879 8.58-6.508s-24.223-10.598-33.304-11.505m5.508-3.916s7.951 2.407 9.154 7.71" stroke="#263238" stroke-miterlimit="10" stroke-linecap="round" stroke-linejoin="round"/><path d="M162.599 73.635c2.277 3.638 4.794 7.276 8.34 9.71 4.267 2.934 9.728 3.842 14.865 3.203 5.147-.648 10.007-2.75 14.468-5.387 3.008-1.787 5.915-3.842 9.219-4.98 3.314-1.13 7.23-1.194 10.071.851M156.961 83.4c.149 5.268.602 10.794 3.481 15.21 2.629 4.026 7.035 6.645 11.663 7.923a28.031 28.031 0 0015.671-.25c4.184-1.305 7.988-3.564 11.959-5.397 3.971-1.833 8.331-3.267 12.672-2.74" stroke="#fff" stroke-width=".5" stroke-miterlimit="10" stroke-linecap="round" stroke-linejoin="round"/><path d="M216.054 237.159l.759-8.285 6.915-3.758-10.469-19.448-29.51 15.403 10.321 19.355 6.378-3.147 12.561 6.591 3.045-6.711zm95.785-88.389s-9.58 22.363-10.45 29.907c-.87 7.554-.435 11.33 3.193 13.941 3.629 2.61 10.238 2.739 10.238 2.739l-.63 3.981s-2.638-.195-4.665 2.86c-2.036 3.045-1.999 5.045-1.999 5.045s2.545 10.006 4.591 10.172c2.055.167 4.23-6.849 4.23-6.849s1.833 10.015 3.601 9.682c1.768-.343 18.031-11.228 18.031-11.228s1.454-7.553-2.101-11.469c0 0-.944-7.488.074-10.969 0 0 7.026.889 7.405-6.303.333-6.406-3.045-9.146-5.082-6.535l-4.794-12.052 1.888-8.562-23.53-4.36z" fill="#fff"/><path d="M315.292 151.01l.74 1.296s-11.7 19.309-11.144 31.944c.555 12.625 18.568 9.284 18.568 9.284s-1.111 15.782-7.803 14.856l-1.676-3.897.482-8.812s-6.98.639-11.247-3.628c-4.267-4.267-2.231-13.366 1.676-25.816 3.897-12.441 6.951-17.467 6.951-17.467l3.453 2.24z" fill="#C6B5DD"/><path opacity=".6" d="M315.292 151.01l.74 1.296s-11.7 19.309-11.144 31.944c.555 12.625 18.568 9.284 18.568 9.284s-1.111 15.782-7.803 14.856l-1.676-3.897.482-8.812s-6.98.639-11.247-3.628c-4.267-4.267-2.231-13.366 1.676-25.816 3.897-12.441 6.951-17.467 6.951-17.467l3.453 2.24z" fill="#fff"/><path d="M371.867 239.953c-.657 4.045-2.046 8.007-3.888 11.71a51.927 51.927 0 01-7.248 10.83l1.62 15.254 3.879 22.725c-.01.009-.028.018-.037.027a46.748 46.748 0 01-1.416 1.028h-57.446a538.578 538.578 0 01-4.757-11.358c-2.87-7.118-5.406-14.005-5.98-17.457a9.112 9.112 0 01-.12-1.185l-9.747-9.738-32.166 17.513-41.469-35.091.065-.12 4.212-8.423.018-.047 41.246 19.689 8.544-11.811.12-.389.01-.046 2.443-7.998.028-.083 1.527-4.999 1.954-6.396 12.209-5.822.037-.019 22.011-10.496.028.111c.111.379.454 1.61.944 3.101.111.361.223.722.352 1.082.083.269.176.537.278.797.463 1.268.972 2.536 1.481 3.489.092.176.194.343.287.491.148.24.296.453.435.62.009.019.028.028.037.046.259.296.518.454.75.435 1.036-.083 2.286-2.342 3.165-4.239.019-.056.047-.12.074-.176a47.123 47.123 0 001-2.425s.009.037.019.111c.138.879 1.175 6.942 2.665 8.932.047.065.102.13.149.195.24.268.499.426.759.435h.018c.722 0 2.99-1.379 5.702-3.212.009 0 .019-.009.028-.019 5.007-3.388 11.496-8.34 12.45-9.062.083-.074.12-.102.12-.102s.379-1.592 0-5.331c0 0 .055.018.157.055l26.798 10.358c0 .009 0 .009.009.009l.777.297s3.897 4.776 5.915 16.569c.574 3.36.519 6.775-.046 10.135z" fill="#C6B5DD"/><path d="M283.2 230.559l2.481-14.015-29.695-7.979-5.128 21.503 11.83 3.703 5.35 10.848 8.127 5.582 8.914-8.313.759-6.636-2.638-4.693z" fill="#fff"/><path d="M216.813 228.874l6.896-3.425-10.395-19.901-29.454 15.902 10.21 18.976 13.875-7.09" stroke="#263238" stroke-miterlimit="10" stroke-linecap="round" stroke-linejoin="round"/><path d="M183.86 221.45l19.929 2 9.525-17.902m65.174 32.509l3.175.916 4.119-22.761-29.796-7.775-5.128 21.632 11.432 3.304" stroke="#263238" stroke-miterlimit="10" stroke-linecap="round" stroke-linejoin="round"/><path d="M256.144 208.436l11.829 14.782 17.809-7.007m27.335-70.468s-11.663 26.417-12.45 37.155c-.778 10.672 9.228 12.32 9.349 12.339 3.961.638 8.238.388 11.95-1.213 2.99-1.287 5.378-3.666 7.868-5.711" stroke="#263238" stroke-miterlimit="10" stroke-linecap="round" stroke-linejoin="round"/><path d="M311.025 175.585l-4.712-2.619 5.498-11.775" stroke="#263238" stroke-miterlimit="10" stroke-linecap="round" stroke-linejoin="round"/><path d="M316.884 166.356c-.343 1.046-.176 2.037.379 2.222.556.185 1.287-.509 1.63-1.555.342-1.046.175-2.037-.38-2.222-.546-.185-1.277.509-1.629 1.555zm-9.007-3.378c-.342 1.046-.175 2.037.38 2.222.555.185 1.287-.509 1.629-1.555.343-1.046.176-2.036-.379-2.222-.556-.185-1.287.51-1.63 1.555z" fill="#263238"/><path d="M317.513 177.936s-2.342 3.101-6.757 2.536" stroke="#263238" stroke-miterlimit="10" stroke-linecap="round" stroke-linejoin="round"/><path d="M317.356 160.646c1.027-.667 2.471-.25 3.351.601.879.861 1.323 2.055 1.74 3.203m-10.256-5.277a2.151 2.151 0 00-1.759-1.407 2.168 2.168 0 00-2.027.991" stroke="#263238" stroke-width="2" stroke-miterlimit="10" stroke-linecap="round" stroke-linejoin="round"/><path d="M335.656 179.065s3.119-5.1 6.378-3.971c3.258 1.139 1.703 5.813.138 8.785-1.555 2.98-5.526 3.119-7.794 1.842" stroke="#263238" stroke-miterlimit="10" stroke-linecap="round" stroke-linejoin="round"/><path d="M343.005 181.926s3.101-5.23-.194-6.97c-3.286-1.741-7.34 4.156-7.34 4.156-.102.074-.417 0-.833-.148-1.602-.583-2.351-2.388-1.703-3.971.138-.324.249-.648.351-.954.435-1.314.593-2.804.334-4.174-.537-2.833-2.555-5.138-2.231-8.164.25-2.315 1.027-4.703 2.101-6.776-16.837 3.369-26.936-6.174-24.687-14.024 2.24-7.858 7.572-.842 19.355-5.331 11.784-4.49 20.235 14.653 20.235 14.653 11.783 8.136.518 19.577.518 19.577l-6.017 12.459.111-.333z" fill="#263238"/><path d="M360.694 262.068c.435 14.856 5.536 38.405 5.536 38.405-.01.009-.028.018-.037.027a2.038 2.038 0 00-.176.13c-.426.305-.852.602-1.278.898m-57.759-.001c-1.5-3.536-2.962-7.349-4.406-11.357-2.111-5.869-4.157-12.163-6.1-18.643m41.783-68.997s23.937 8.506 27.584 10.765m-49.077-3.887c-1.879-1.379-2.935-4.915-2.509-7.516l.583-6.109m21.151-9.461s-1.203 4.027-.213 11.238" stroke="#263238" stroke-miterlimit="10" stroke-linecap="round" stroke-linejoin="round"/><path d="M328.019 271.676l-42.551-29.917-9.312 8.313s37.895 42.218 52.854 48.864c0 0 29.842-32.175 39.488-48.133 0 0 9.747-15.94-2.5-37.507m-43.088 54.871l22.854-30.305m-22.151 30.787l14.301.666" stroke="#263238" stroke-miterlimit="10" stroke-linecap="round" stroke-linejoin="round"/><path d="M348.652 151.51s1.851-7.415-2.786-13.135" stroke="#263238" stroke-miterlimit="10" stroke-linecap="round"/><path d="M267.177 243.499l-8.729 12.126-41.533-20.179-3.879 8.543 41.525 35.314 32.036-17.662m-1.129-43.411l22.048-10.979m-91.749 30.426l1.194-11.126-4.461-8.285s.638-5.859-.639-5.822c-1.277.037-1.213 14.273-1.213 14.273s-3.776 2.666-2.379 8.507m-7.127 1.879l11.894 6.886m70.368-13.153l2.249 3.934-.435 6.989" stroke="#263238" stroke-miterlimit="10" stroke-linecap="round" stroke-linejoin="round"/><path d="M279.359 239.241c0-.602-12.654-14.255-12.654-14.255l-1.444 1.138 5.193 10.155-4.351-7.637-1.221 1.444 1.138 5.582-1.518-4.055-2.055 1.065 5.6 11.931 7.979 5.147m59.843-52.196s-9.914 7.84-19.115 11.376c0 0 .889 10.617 3.185 11.32.851.259 2.147-.62 2.841-.99 1.639-.889 3.203-1.935 4.74-2.981 3.147-2.147 6.201-4.424 9.219-6.738.592-.454 1.472-.88 1.518-1.676.204-3.721.416-7.386-2.351-10.265l-.037-.046zm-19.115 11.376s-2.527 8.793-4.646 8.488c-2.12-.306-4.693-10.747-4.693-10.747s2.425-8.321 6.96-6.961m-55.788 55.604c.38 3.147.389 6.331.046 9.478m30.658-29.454l3.526 11.478m51.049-18.624a31.303 31.303 0 00-3.563 16.69m-2.527-10.127a37.104 37.104 0 00.342 10.127m-78.059 11.746a15.88 15.88 0 011.833 5.85" stroke="#263238" stroke-miterlimit="10" stroke-linecap="round" stroke-linejoin="round"/><path d="M311.552 142.207c.296 1.518 1.305 2.813 2.546 3.73 1.24.916 2.703 1.481 4.165 1.962a43.63 43.63 0 0013.403 2.166c.991 0 2.009-.028 2.962.25.954.278 1.87.907 2.194 1.851m-21.845-13.551c.602 2.517 3.203 4.128 5.767 4.489 2.564.37 5.156-.222 7.72-.583s5.313-.463 7.599.75c2.286 1.222 3.814 4.184 2.657 6.498" stroke="#fff" stroke-width=".5" stroke-miterlimit="10" stroke-linecap="round" stroke-linejoin="round"/><path d="M289.291 301.528h108.355m-149.472 0h32.712m39.071 12.885h-60.796l-23.206 12.542h63.703l20.299-12.542zm-56.816 3.276h44.894m-48.17 2.342h43.644m-46.921 2.333h42.366m9.312-4.675l-12.857 6.313m5.841-6.313l-12.857 6.313" stroke="#263238" stroke-miterlimit="10" stroke-linecap="round" stroke-linejoin="round"/><path d="M225.08 283.218h63.702l10.877 43.737h-63.703l-10.876-43.737z" fill="#263238"/><path d="M299.667 326.946h-64.276v3.11h64.276v-3.11z" stroke="#263238" stroke-miterlimit="10" stroke-linecap="round" stroke-linejoin="round"/><path d="M224.376 283.218h63.711l10.867 43.737h-63.702l-10.876-43.737z" fill="#fff" stroke="#263238" stroke-miterlimit="10" stroke-linecap="round" stroke-linejoin="round"/><path d="M299.658 326.955l20.744-12.616-.01 2.36-20.503 13.764-.231-3.508z" fill="#263238"/><path d="M264.437 303.75a3.409 3.409 0 11-6.738 1.036 3.4 3.4 0 012.517-3.813 3.577 3.577 0 014.221 2.777z" stroke="#263238" stroke-miterlimit="10" stroke-linecap="round" stroke-linejoin="round"/></svg>