<svg width="424" height="435" fill="none" xmlns="http://www.w3.org/2000/svg"><path d="M406.633 130.718c2.876-38.232-3.814-80.43-33.021-106.466C347.403.888 307.427-4.272 273.07 5.039c-34.356 9.31-63.696 31.246-88.12 56.323-24.414 25.077-44.718 53.56-67.398 80.115-23.588 27.626-49.848 53.284-70.376 83.093-20.529 29.809-35.255 65.002-32.134 100.664 1.295 14.848 5.823 29.686 14.91 41.74 10.921 14.502 27.626 24.037 44.89 30.716 31.88 12.34 66.512 16.123 100.655 19.805 36.457 3.926 72.905 7.852 109.362 11.768 22.466 2.417 46.37 4.62 66.644-5.017 17.846-8.475 30.288-25.23 37.151-43.229 6.863-17.989 8.77-37.345 10.29-56.466 5.231-66.032 7.689-193.833 7.689-193.833z" fill="#C6B5DD"/><path opacity=".7" d="M406.633 130.534c2.876-38.232-3.814-80.432-33.021-106.467C347.403.704 307.427-4.457 273.07 4.854c-34.356 9.31-63.696 31.247-88.12 56.323-24.414 25.077-44.718 53.56-67.398 80.115-23.588 27.627-49.848 53.285-70.376 83.093-20.529 29.809-35.255 65.002-32.134 100.664 1.295 14.848 5.823 29.686 14.91 41.74 10.921 14.502 27.626 24.037 44.89 30.717 31.88 12.339 66.512 16.123 100.655 19.804 36.457 3.926 72.905 7.852 109.362 11.768 22.466 2.417 46.37 4.62 66.644-5.017 17.846-8.474 30.288-25.23 37.151-43.229 6.863-17.989 8.77-37.345 10.29-56.466 5.231-66.032 7.689-193.832 7.689-193.832z" fill="#fff"/><path d="M295.516 94.545H71.406v329.476h224.11V94.545z" fill="#263238"/><path d="M286.44 419.89H58.638l11.034-130.737a654.434 654.434 0 002.203-68.112l-2.55-130.626h222.938l1.05 160.22a731.572 731.572 0 01-.775 38.742L286.44 419.89z" fill="#BFBFBF" stroke="#263238" stroke-linecap="round" stroke-linejoin="round"/><path d="M276.956 415.444H46.716l7.058-36.662c15.032-89.65 18.774-129.34 16.694-245.515l-2.366-47.298h218.379l2.57 44.657c5.527 194.413-12.095 284.818-12.095 284.818z" fill="#fff" stroke="#263238" stroke-miterlimit="10" stroke-linecap="round" stroke-linejoin="round"/><path d="M81.023 102.591a5.951 5.951 0 01-5.946-5.945 5.952 5.952 0 015.946-5.945.888.888 0 010 1.774 4.176 4.176 0 00-4.171 4.171 4.176 4.176 0 004.17 4.171 4.176 4.176 0 004.172-4.17.888.888 0 011.774 0c0 3.273-2.672 5.944-5.945 5.944z" fill="#263238"/><path d="M80.88 100.134c-5.436 0-5.731-11.728-5.731-14.084v-.071c0-2.366.275-14.155 5.73-14.155 5.436 0 5.834 12.737 5.865 14.186l-4.732.091c-.072-3.59-.622-6.384-1.173-8.076-.5 1.641-.969 4.354-.969 7.964v.072c.01 3.65.5 6.383 1 8.005.05-.173.112-.357.163-.571l.377-1.285 3.294.959c.683.204 1.081.917.877 1.61-.948 3.53-2.54 5.355-4.701 5.355z" fill="#BFBFBF" stroke="#263238" stroke-miterlimit="10" stroke-linecap="round" stroke-linejoin="round"/><path d="M86.08 97.533a.888.888 0 01-.886-.887 4.176 4.176 0 00-4.171-4.17.888.888 0 010-1.775 5.952 5.952 0 015.945 5.945c0 .49-.398.887-.887.887zm22.956 5.058a5.951 5.951 0 01-5.945-5.945 5.952 5.952 0 015.945-5.945.888.888 0 010 1.774 4.176 4.176 0 00-4.171 4.171 4.176 4.176 0 004.171 4.171 4.176 4.176 0 004.171-4.17.888.888 0 011.775 0 5.952 5.952 0 01-5.946 5.944z" fill="#263238"/><path d="M108.894 100.134c-5.436 0-5.732-11.728-5.732-14.084v-.071c0-2.366.276-14.155 5.732-14.155 5.435 0 5.833 12.737 5.864 14.186l-4.732.091c-.072-3.59-.622-6.384-1.173-8.076-.5 1.641-.969 4.354-.969 7.964v.072c.01 3.65.5 6.383 1 8.005.051-.173.112-.357.163-.571l.377-1.285 3.294.959c.683.204 1.081.917.877 1.61-.948 3.53-2.539 5.355-4.701 5.355z" fill="#BFBFBF" stroke="#263238" stroke-miterlimit="10" stroke-linecap="round" stroke-linejoin="round"/><path d="M114.095 97.533a.888.888 0 01-.888-.887 4.176 4.176 0 00-4.17-4.17.888.888 0 010-1.775 5.952 5.952 0 015.945 5.945c0 .49-.398.887-.887.887zm22.955 5.058a5.951 5.951 0 01-5.945-5.945 5.952 5.952 0 015.945-5.945.887.887 0 010 1.774 4.176 4.176 0 00-4.171 4.171 4.176 4.176 0 004.171 4.171 4.176 4.176 0 004.171-4.17.888.888 0 011.775 0 5.952 5.952 0 01-5.946 5.944z" fill="#263238"/><path d="M136.918 100.134c-5.436 0-5.731-11.728-5.731-14.084v-.071c0-2.366.275-14.155 5.731-14.155 5.435 0 5.833 12.737 5.864 14.186l-4.732.091c-.072-3.59-.622-6.384-1.173-8.076-.5 1.641-.969 4.354-.969 7.964v.072c.01 3.65.5 6.383 1 8.005.051-.173.112-.357.163-.571l.377-1.285 3.294.959c.683.204 1.081.917.877 1.61-.959 3.53-2.549 5.355-4.701 5.355z" fill="#BFBFBF" stroke="#263238" stroke-miterlimit="10" stroke-linecap="round" stroke-linejoin="round"/><path d="M142.108 97.533a.888.888 0 01-.887-.887 4.176 4.176 0 00-4.171-4.17.888.888 0 010-1.775 5.952 5.952 0 015.946 5.945c0 .49-.398.887-.888.887zm22.966 5.058a5.951 5.951 0 01-5.945-5.945 5.952 5.952 0 015.945-5.945.888.888 0 010 1.774 4.176 4.176 0 00-4.171 4.171 4.176 4.176 0 004.171 4.171 4.176 4.176 0 004.171-4.17.888.888 0 011.775 0c-.01 3.273-2.672 5.944-5.946 5.944z" fill="#263238"/><path d="M164.931 100.134c-5.435 0-5.731-11.728-5.731-14.084v-.071c0-2.366.276-14.155 5.731-14.155 5.436 0 5.834 12.737 5.864 14.186l-4.732.091c-.071-3.59-.622-6.384-1.172-8.076-.5 1.641-.969 4.354-.969 7.964v.072c.01 3.65.5 6.383.999 8.005.051-.173.112-.357.163-.571l.378-1.285 3.294.959c.683.204 1.081.917.877 1.61-.959 3.53-2.54 5.355-4.702 5.355z" fill="#BFBFBF" stroke="#263238" stroke-miterlimit="10" stroke-linecap="round" stroke-linejoin="round"/><path d="M170.122 97.533a.888.888 0 01-.887-.887 4.176 4.176 0 00-4.171-4.17.888.888 0 010-1.775 5.952 5.952 0 015.946 5.945c0 .49-.398.887-.888.887zm22.793 5.059a5.952 5.952 0 01-5.946-5.946 5.952 5.952 0 015.946-5.945.888.888 0 010 1.774 4.176 4.176 0 00-4.171 4.171 4.176 4.176 0 004.171 4.171 4.176 4.176 0 004.171-4.17.887.887 0 011.774 0c-.01 3.273-2.672 5.945-5.945 5.945z" fill="#263238"/><path d="M192.772 100.134c-5.435 0-5.731-11.728-5.731-14.084v-.07c0-2.367.275-14.156 5.731-14.156 5.436 0 5.833 12.738 5.864 14.186l-4.732.091c-.071-3.59-.622-6.383-1.173-8.076-.499 1.642-.968 4.354-.968 7.964v.072c.01 3.65.499 6.384.999 8.005.051-.173.112-.357.163-.571l.378-1.285 3.294.959c.683.204 1.08.918.877 1.61-.949 3.53-2.54 5.355-4.702 5.355z" fill="#BFBFBF" stroke="#263238" stroke-miterlimit="10" stroke-linecap="round" stroke-linejoin="round"/><path d="M197.963 97.533a.887.887 0 01-.887-.887 4.176 4.176 0 00-4.171-4.17.888.888 0 010-1.775 5.952 5.952 0 015.945 5.945c0 .49-.398.887-.887.887zm22.966 5.059a5.952 5.952 0 01-5.946-5.946 5.952 5.952 0 015.946-5.945.888.888 0 010 1.774 4.176 4.176 0 00-4.171 4.171 4.176 4.176 0 004.171 4.171 4.176 4.176 0 004.171-4.17.887.887 0 011.774 0c0 3.273-2.672 5.945-5.945 5.945z" fill="#263238"/><path d="M220.786 100.134c-5.435 0-5.731-11.728-5.731-14.084v-.07c0-2.367.275-14.156 5.731-14.156 5.436 0 5.834 12.738 5.864 14.186l-4.732.091c-.071-3.59-.622-6.383-1.172-8.076-.5 1.642-.969 4.354-.969 7.964v.072c.01 3.65.499 6.384.999 8.005.051-.173.112-.357.163-.571l.378-1.285 3.294.959c.683.204 1.081.918.877 1.61-.949 3.53-2.54 5.355-4.702 5.355z" fill="#BFBFBF" stroke="#263238" stroke-miterlimit="10" stroke-linecap="round" stroke-linejoin="round"/><path d="M225.987 97.533a.887.887 0 01-.887-.887 4.176 4.176 0 00-4.171-4.17.888.888 0 010-1.775 5.952 5.952 0 015.945 5.945c0 .49-.398.887-.887.887zm22.955 5.059a5.952 5.952 0 01-5.945-5.946 5.951 5.951 0 015.945-5.945.887.887 0 010 1.774 4.176 4.176 0 00-4.171 4.171 4.176 4.176 0 004.171 4.171 4.176 4.176 0 004.171-4.17.888.888 0 011.775 0c0 3.273-2.672 5.945-5.946 5.945z" fill="#263238"/><path d="M248.799 100.134c-5.435 0-5.731-11.728-5.731-14.084v-.07c0-2.367.275-14.156 5.731-14.156 5.436 0 5.833 12.738 5.864 14.186l-4.732.091c-.071-3.59-.622-6.383-1.173-8.076-.499 1.642-.968 4.354-.968 7.964v.072c.01 3.65.499 6.384.999 8.005.051-.173.112-.357.163-.571l.377-1.285 3.294.959c.684.204 1.081.918.877 1.61-.948 3.53-2.539 5.355-4.701 5.355z" fill="#BFBFBF" stroke="#263238" stroke-miterlimit="10" stroke-linecap="round" stroke-linejoin="round"/><path d="M254 97.533a.888.888 0 01-.887-.887 4.176 4.176 0 00-4.171-4.17.888.888 0 010-1.775 5.952 5.952 0 015.946 5.945c0 .49-.398.887-.888.887zm22.956 5.059a5.952 5.952 0 01-5.945-5.946 5.951 5.951 0 015.945-5.945.887.887 0 010 1.774 4.176 4.176 0 00-4.171 4.171 4.176 4.176 0 004.171 4.171 4.176 4.176 0 004.171-4.17.888.888 0 011.775 0 5.952 5.952 0 01-5.946 5.945z" fill="#263238"/><path d="M276.814 100.134c-5.436 0-5.732-11.728-5.732-14.084v-.071c0-2.366.276-14.155 5.732-14.155 5.435 0 5.833 12.737 5.863 14.185l-4.731.092c-.072-3.59-.622-6.384-1.173-8.077-.5 1.642-.969 4.355-.969 7.965v.071c.01 3.651.5 6.384.999 8.006.051-.174.113-.357.164-.571l.377-1.285 3.294.958c.683.204 1.081.918.877 1.612-.949 3.528-2.539 5.354-4.701 5.354z" fill="#BFBFBF" stroke="#263238" stroke-miterlimit="10" stroke-linecap="round" stroke-linejoin="round"/><path d="M282.014 97.533a.888.888 0 01-.887-.887 4.176 4.176 0 00-4.171-4.17.888.888 0 010-1.775 5.952 5.952 0 015.946 5.945c0 .49-.398.887-.888.887z" fill="#263238"/><path d="M278.863 150.389h-55.222v70.468h55.222v-70.468z" fill="#BFBFBF"/><path d="M275.202 221.102h-47.9v-.021l1.009-5.792v-1.193c0-4.701 1.041-9.342 3.05-13.594-.011-.082-.021-.122-.021-.122l12.024-3.264c.305-1.275.601-2.539.948-2.886.316-.316 1.336-.714 2.182-1.009v-2.203c-.856-1.357-1.58-2.968-2.141-4.661-.143 0-.286-.03-.418-.081-.266-.112-.49-.296-.704-.49-.52-.448-1.04-.907-1.428-1.468-.397-.561-.663-1.244-.612-1.928.041-.561.113-1.478.398-1.947.316-.51 1.071-.826 1.071-.826s.102-1.153-.031-2.407c-1.499-13.9 18.244-17.694 18.499.5.011.683.051 1.539.051 1.539s.775.317.949 1.051c.132.54.255 1.529.295 2.08.051.683-.214 1.367-.611 1.928-.398.56-.918 1.019-1.438 1.468-.214.184-.439.377-.704.49a.931.931 0 01-.551.061c-.642 1.968-1.509 3.814-2.549 5.293v2.019c1.438.418 2.794 1.193 2.876 2.58.01.183.04.397.081.632 4.487 1.071 11.473 3.059 11.473 3.059l.092.48a32.273 32.273 0 012.294 6.649c.52 2.284.786 4.63.786 6.996l1.019 7.067h.011z" fill="#263238"/><path d="M268.176 144.209h11.309m-23.078 0h6.812m-182.196 0h170.234m-55.181 229.219h9.005m-47.931 0h32.348m-24.036 20.825a972.55 972.55 0 0136.233 0m-47.93 0h5.119m46.768-186.766h6.322m-17.112-.02l4.161.031m-34.969-.011c7.985-.051 15.981-.071 23.965-.051m10.035 20.865h13.931m-47.931 0h27.157m-15.47 20.825c12.452.091 23.67.091 36.234 0m-47.921 0h4.895m-4.895 20.814h47.92m-25.882 20.987c8.628.071 17.255.01 25.882-.173m-36.845.01c1.367.03 2.733.061 4.1.081m-15.175-.081h4.447m6.312 20.212c12.36.449 23.578.449 35.917 0m-47.92 0h5.354m34.612 20.824h6.832m-47.93 0c11.218.021 23.455.021 34.653 0m-24.904 20.814c12.687-.397 23.904-.397 35.918 0m-47.931 0h5.354m56.578 41.639h47.921" stroke="#263238" stroke-miterlimit="10"/><path d="M228.383 373.316c-.52 6.496-.081 21.273 15.46 23.476 6.986.989 15.308-3.57 17.755-9.852 2.957-7.577 2.427-15.908.092-22.19-2.295-6.16-10.473-15.878-19.152-12.839-9.351 3.273-13.512 13.451-14.155 21.405z" stroke="#C6B5DD" stroke-miterlimit="10" stroke-linecap="round" stroke-linejoin="round"/><path d="M231.871 383.728c-.979-2.804-1.479-6.078-1.479-9.718 0-4.498 1.601-9.107 4.508-12.962m7.016 32.511c-3.896-.969-6.884-3.365-8.872-7.118m28.136-6.099c-1.612 8.964-6.843 13.696-15.134 13.696m12.941-30.165c1.775 3.202 2.713 6.71 2.713 10.137 0 1.183-.051 2.345-.143 3.436m-9.932-21.568c2.335 1.468 4.558 3.681 6.282 6.231m-19.958-4.375c2.692-2.387 5.639-3.753 8.097-3.753 1.142 0 2.386.296 3.702.887" stroke="#C6B5DD" stroke-miterlimit="10" stroke-linecap="round" stroke-linejoin="round"/><path d="M233.451 379.353c-.316-1.611-.479-3.365-.479-5.201 0-9.463 7.955-16.581 13.125-16.581 1.295 0 2.774.448 4.263 1.295m-11.993 29.4c-1.774-1.407-3.151-3.375-4.069-5.853m24.924-8.261c0 10.698-4.661 16.582-13.125 16.582-1.815 0-3.488-.296-4.977-.897m11.799-29.126c3.294 2.907 5.528 6.966 6.129 11.147" stroke="#C6B5DD" stroke-miterlimit="10" stroke-linecap="round" stroke-linejoin="round"/><path d="M251.451 386.155c-1.489.857-3.284 1.285-5.303 1.285-6.527 0-10.585-5.037-10.585-13.145 0-3.171 1.193-6.353 3.355-8.964m2.784-2.57c1.519-1.05 3.059-1.601 4.446-1.601 4.161 0 10.586 5.64 10.586 13.145 0 4.028-.928 7.343-2.693 9.596" stroke="#C6B5DD" stroke-miterlimit="10" stroke-linecap="round" stroke-linejoin="round"/><path d="M240.631 381.872c-1.601-1.713-2.488-4.344-2.488-7.424 0-5.221 4.426-9.698 8.056-9.698.612 0 1.265.132 1.927.397m2.234 1.337c2.427 1.988 3.885 4.966 3.885 7.964 0 6.068-3.008 9.698-8.056 9.698-1.132 0-2.183-.193-3.121-.581" stroke="#C6B5DD" stroke-miterlimit="10" stroke-linecap="round" stroke-linejoin="round"/><path d="M251.767 374.591c0 3.804-2.162 6.251-5.517 6.251-2.702 0-4.701-1.662-5.323-4.446m-.204-1.805c0-3.518 2.968-6.252 5.517-6.252 1.968 0 4.079 1.612 5.017 3.835" stroke="#C6B5DD" stroke-miterlimit="10" stroke-linecap="round" stroke-linejoin="round"/><path d="M248.32 372.674c.612.53.959 1.285.959 2.06 0 1.55-1.336 2.814-2.988 2.814-1.642 0-2.988-1.264-2.988-2.814s1.336-2.815 2.988-2.815" stroke="#C6B5DD" stroke-miterlimit="10" stroke-linecap="round" stroke-linejoin="round"/><path d="M222.866 382.749c-.449-5.721 1.448-11.595 5.17-15.959 3.722-4.365 9.219-7.18 14.94-7.639-2.672 10.198-8.495 19.54-16.459 26.444-1.418-8.414 2.712-17.49 9.973-21.957 1.775-1.091 3.774-1.937 5.864-1.968 2.091-.03 4.273.867 5.385 2.631 1.376 2.172.826 5.13-.643 7.241-1.468 2.111-3.681 3.559-5.833 4.956 2.876-3.447 5.741-6.894 8.617-10.331-.948 2.111-1.917 4.406-1.397 6.66.51 2.253 3.274 4.079 5.191 2.794-2.978 3.029-5.946 6.058-8.923 9.086 1.06-6.537 5.772-12.349 11.952-14.726-.643 5.681-5.201 10.688-10.79 11.891 5.854-8.066 14.073-14.409 23.364-18.03" stroke="#263238" stroke-miterlimit="10" stroke-linecap="round" stroke-linejoin="round"/><path d="M95.473 122.427v2.111c0 2.601-1.254 4.018-3.814 4.018h-1.214v6.119h-2.56v-16.276h3.764c2.57.01 3.824 1.428 3.824 4.028zm-5.017-1.692v5.507h1.213c.816 0 1.255-.368 1.255-1.53v-2.437c0-1.163-.439-1.53-1.255-1.53h-1.213v-.01zm8.882 4.537h3.508v2.325h-3.508v4.762h4.416v2.325h-6.975v-16.276h6.975v2.325h-4.416v4.539zm11.34 9.412c-.143-.418-.234-.673-.234-1.999v-2.559c0-1.51-.51-2.07-1.673-2.07h-.887v6.628h-2.56v-16.276h3.855c2.652 0 3.794 1.234 3.794 3.743v1.275c0 1.672-.531 2.763-1.673 3.304 1.275.53 1.693 1.764 1.693 3.467v2.509c0 .785.02 1.366.275 1.978h-2.59zm-2.784-13.951v4.997h.999c.949 0 1.53-.418 1.53-1.723v-1.601c0-1.163-.398-1.673-1.305-1.673h-1.224zm10.229-2.508c2.488 0 3.763 1.489 3.763 4.089v.51h-2.417v-.673c0-1.162-.469-1.601-1.275-1.601-.816 0-1.275.439-1.275 1.601 0 3.345 4.997 3.977 4.997 8.628 0 2.6-1.305 4.089-3.814 4.089-2.508 0-3.814-1.489-3.814-4.089v-1h2.417v1.163c0 1.162.51 1.58 1.326 1.58.816 0 1.326-.418 1.326-1.58 0-3.345-4.997-3.977-4.997-8.628 0-2.6 1.274-4.089 3.763-4.089zm5.048 4.089c0-2.6 1.376-4.089 3.885-4.089s3.886 1.489 3.886 4.089v8.465c0 2.6-1.377 4.089-3.886 4.089-2.509 0-3.885-1.489-3.885-4.089v-8.465zm2.549 8.628c0 1.162.51 1.601 1.326 1.601.816 0 1.326-.439 1.326-1.601v-8.791c0-1.162-.51-1.601-1.326-1.601-.816 0-1.326.439-1.326 1.601v8.791zm9.138-8.047v11.789h-2.305v-16.276h3.212l2.631 9.739v-9.739h2.274v16.276h-2.631l-3.181-11.789zm15.929 11.789h-2.58l-.439-2.957h-3.141l-.438 2.957h-2.346l2.601-16.276h3.742l2.601 16.276zm-5.833-5.16h2.468l-1.234-8.23-1.234 8.23zm7.016-11.116h2.559v13.951h4.212v2.325h-6.761v-16.276h-.01zm11.493 0h4.048c2.56 0 3.815 1.418 3.815 4.018v8.23c0 2.601-1.255 4.018-3.815 4.018h-4.048v-16.266zm2.549 2.325v11.626h1.438c.816 0 1.306-.418 1.306-1.581v-8.464c0-1.162-.49-1.581-1.306-1.581h-1.438zm15.185 13.951h-2.58l-.439-2.957h-3.141l-.438 2.957h-2.346l2.601-16.276h3.743l2.6 16.276zm-5.833-5.16h2.468l-1.234-8.23-1.234 8.23zm6.282-11.116h7.903v2.325h-2.672v13.951h-2.559v-13.951h-2.672v-2.325zm16.408 16.276h-2.58l-.438-2.957h-3.141l-.439 2.957h-2.345l2.6-16.276h3.743l2.6 16.276zm-5.833-5.16h2.468l-1.234-8.23-1.234 8.23zM90.446 201.961v.958h-2.183v4.11h-1.06v-9.494h3.773v.959h-2.713v3.457h2.183v.01zm2.427-4.427v9.495h-1.06v-9.495h1.06zm3.202 0c1.489 0 2.121.765 2.121 2.173v.775c0 1.04-.367 1.692-1.183 1.958.867.255 1.193.958 1.193 1.978v1.479c0 .418.01.816.194 1.142h-1.07c-.123-.275-.174-.52-.174-1.152v-1.489c0-1.071-.5-1.408-1.387-1.408h-.745v4.059h-1.06v-9.494h2.11v-.021zm-.276 4.477c.847 0 1.347-.275 1.347-1.305v-.908c0-.856-.317-1.305-1.102-1.305h-1.03v3.518h.785zm7.619-2.192v.255h-1v-.316c0-.857-.326-1.357-1.081-1.357-.765 0-1.081.5-1.081 1.346 0 2.132 3.192 2.336 3.192 5.008 0 1.437-.693 2.376-2.141 2.376-1.449 0-2.132-.939-2.132-2.376v-.541h.989v.602c0 .856.357 1.356 1.112 1.356.755 0 1.112-.5 1.112-1.356 0-2.121-3.172-2.325-3.172-4.997 0-1.469.673-2.376 2.101-2.376 1.417 0 2.101.938 2.101 2.376zm2.314 7.22v-8.536h-1.754v-.959h4.559v.959h-1.754v8.536h-1.051zm6.588 0h-.948v-9.495h1.346l2.203 6.864v-6.864h.938v9.495h-1.102l-2.427-7.679v7.679h-.01zm5.68-1.917l-.367 1.917h-.979l1.816-9.495h1.529l1.815 9.495h-1.06l-.367-1.917H118zm.133-.908h2.121l-1.071-5.487-1.05 5.487zm8.026 2.815h-1.02l-1.57-7.557v7.567h-.918v-9.495h1.478l1.561 7.588 1.509-7.588h1.479v9.495h-1V199.4l-1.519 7.629zm6.975-5.283v.949h-2.315v3.375h2.845v.959h-3.905v-9.495h3.905v.959h-2.845v3.243h2.315v.01zm21.446-1.193v1.315h-1.019v-1.315h1.019zm0 5.17v1.316h-1.019v-1.316h1.019zm-67.377 22.579v-9.494h1.06v8.535h2.713v.959h-3.773zm5.639-1.908l-.367 1.918h-.98l1.816-9.495h1.53l1.815 9.495h-1.06l-.368-1.918h-2.386zm.143-.907h2.12L94.036 220l-1.05 5.487zm8.627-4.395v.255h-.999v-.317c0-.856-.326-1.356-1.081-1.356-.765 0-1.081.5-1.081 1.346 0 2.132 3.192 2.336 3.192 5.007 0 1.438-.694 2.377-2.142 2.377s-2.131-.939-2.131-2.377v-.54h.99v.602c0 .856.356 1.356 1.11 1.356.755 0 1.112-.5 1.112-1.356 0-2.122-3.171-2.326-3.171-4.997 0-1.469.683-2.377 2.1-2.377 1.418 0 2.101.939 2.101 2.377zm2.315 7.209v-8.535h-1.754v-.959h4.559v.959h-1.754v8.535h-1.051zm6.588 0h-.948v-9.494h1.346l2.203 6.863v-6.863h.938v9.494h-1.102l-2.427-7.679v7.679h-.01zm5.68-1.907l-.367 1.918h-.979l1.815-9.495h1.53l1.815 9.495h-1.06l-.367-1.918h-2.387zm.143-.907h2.121l-1.07-5.487-1.051 5.487zm8.016 2.804h-1.02l-1.57-7.556v7.566h-.918v-9.494h1.478l1.561 7.587 1.509-7.587h1.479v9.494h-1v-7.638l-1.519 7.628zm6.975-5.272v.948h-2.315v3.376h2.845v.958h-3.905v-9.494h3.905v.959h-2.845v3.243h2.315v.01zm23.557-1.203v1.315h-1.019v-1.315h1.019zm0 5.17v1.315h-1.019v-1.315h1.019zM88.263 239.55v9.495h-1.06v-9.495h1.06zm3.304 0c1.479 0 2.162.897 2.162 2.356v4.793c0 1.448-.683 2.345-2.162 2.345h-2.223v-9.494h2.223zm-.01 8.536c.765 0 1.122-.48 1.122-1.347v-4.884c0-.867-.367-1.347-1.142-1.347h-1.143v7.567h1.163v.011zm6.201.958h-.949v-9.494h1.346l2.203 6.863v-6.863h.938v9.494h-1.101l-2.427-7.679v7.679h-.01zm5.619-2.243c0 .856.336 1.366 1.111 1.366.765 0 1.102-.52 1.102-1.366v-7.261h.989v7.21c0 1.438-.663 2.396-2.132 2.396-1.448 0-2.121-.958-2.121-2.396v-7.21h1.04v7.261h.011zm7.75 2.233h-1.02l-1.57-7.557v7.567h-.918v-9.494h1.479l1.56 7.587 1.509-7.587h1.479v9.494h-1v-7.638l-1.519 7.628zm5.721-9.484c1.479 0 2.06.703 2.06 2.101v.448c0 1-.286 1.632-1.112 1.887.918.255 1.275.989 1.275 2.04v.805c0 1.428-.693 2.223-2.172 2.223h-2.182v-9.494h2.131v-.01zm-.255 4.028c.847 0 1.275-.275 1.275-1.265v-.56c0-.847-.286-1.245-1.04-1.245h-1.041v3.07h.806zm.306 4.508c.775 0 1.122-.408 1.122-1.285v-.837c0-1.06-.418-1.407-1.326-1.407h-.918v3.539h1.122v-.01zm6.516-4.335v.949h-2.325v3.375h2.856v.959h-3.906v-9.494h3.906v.958h-2.845v3.243h2.314v.01zm3.621-4.201c1.489 0 2.121.765 2.121 2.172v.775c0 1.04-.367 1.693-1.183 1.958.867.255 1.193.969 1.193 1.978v1.479c0 .418.01.816.194 1.142h-1.071c-.122-.275-.173-.52-.173-1.152v-1.489c0-1.071-.5-1.407-1.387-1.407h-.745v4.059h-1.06v-9.495h2.111v-.02zm-.265 4.477c.836 0 1.346-.276 1.346-1.306v-.907c0-.857-.316-1.306-1.102-1.306h-1.03v3.519h.786zm27.646-1.469v1.316h-1.02v-1.316h1.02zm0 5.171v1.315h-1.02v-1.315h1.02zm-63.023 13.665v.816h-1v-.867c0-.857-.336-1.367-1.11-1.367-.766 0-1.112.521-1.112 1.367v5.017c0 .857.356 1.367 1.111 1.367.775 0 1.112-.52 1.112-1.367v-1.896h-.98v-.949h1.98v2.794c0 1.438-.684 2.387-2.142 2.387-1.448 0-2.132-.949-2.132-2.387v-4.915c0-1.438.684-2.386 2.132-2.386 1.458-.011 2.141.948 2.141 2.386zm4.386 1.907v.948h-2.316v3.376h2.845v.969h-3.905v-9.495h3.905v.969h-2.845v3.243h2.315v-.01zm2.436 5.293h-.948v-9.495h1.346l2.203 6.864v-6.864h.938v9.495h-1.101l-2.427-7.679v7.679h-.01zm6.843-9.495c1.479 0 2.162.898 2.162 2.366v4.793c0 1.449-.683 2.346-2.162 2.346h-2.223v-9.494h2.223v-.011zm-.01 8.536c.765 0 1.122-.479 1.122-1.346v-4.885c0-.867-.367-1.346-1.142-1.346h-1.142v7.567h1.162v.01zm6.537-4.334v.948h-2.315v3.376h2.845v.969h-3.906v-9.495h3.906v.969h-2.845v3.243h2.315v-.01zm3.62-4.202c1.489 0 2.121.765 2.121 2.173v.775c0 1.04-.367 1.693-1.182 1.958.866.255 1.193.958 1.193 1.978v1.479c0 .418.01.816.193 1.142h-1.07c-.123-.275-.174-.52-.174-1.152v-1.489c0-1.071-.499-1.408-1.387-1.408h-.744v4.039h-1.061v-9.495h2.111zm-.275 4.477c.836 0 1.346-.275 1.346-1.305v-.908c0-.856-.316-1.305-1.101-1.305h-1.03v3.518h.785zm40.282-1.468v1.315h-1.02v-1.315h1.02zm0 5.17v1.316h-1.02v-1.316h1.02zm-65.787 12.503c1.478 0 2.162.897 2.162 2.356v4.793c0 1.448-.683 2.345-2.162 2.345h-2.223v-9.494h2.223zm-.01 8.536c.764 0 1.121-.48 1.121-1.346v-4.885c0-.867-.367-1.346-1.142-1.346h-1.142v7.566h1.163v.011zm4.038-.358v1.316h-1.02v-1.316h1.02zm.866-5.884c0-1.448.725-2.386 2.173-2.386 1.469 0 2.182.938 2.182 2.386v4.916c0 1.438-.724 2.386-2.182 2.386-1.448 0-2.172-.948-2.172-2.386v-4.916zm1.051 4.967c0 .867.367 1.366 1.122 1.366.775 0 1.122-.499 1.122-1.366v-5.018c0-.856-.357-1.366-1.122-1.366-.765 0-1.122.51-1.122 1.366v5.018zm5.191.917v1.316h-1.02v-1.316h1.02zm3.223-8.178c1.478 0 2.06.703 2.06 2.1v.449c0 1-.286 1.632-1.112 1.887.918.255 1.275.989 1.275 2.039v.796c0 1.427-.694 2.223-2.172 2.223h-2.183v-9.494h2.132zm-.255 4.028c.836 0 1.274-.276 1.274-1.265v-.561c0-.836-.285-1.244-1.04-1.244h-1.04v3.07h.806zm.306 4.507c.775 0 1.121-.408 1.121-1.285v-.846c0-1.061-.418-1.407-1.325-1.407h-.928v3.538h1.132zm50.418-5.527v1.316h-1.02v-1.316h1.02zm0 5.17v1.316h-1.02v-1.316h1.02zm-67.826 17.755v4.273h-1.06v-9.494h1.06v4.273h2.335v-4.273h1.06v9.494h-1.06v-4.273h-2.335zm7.852-1.02v.949h-2.315v3.375h2.846v.959h-3.906v-9.495h3.906v.959h-2.846v3.243h2.315v.01zm2.56-4.201v9.494h-1.06v-9.494h1.06zm5.282 2.294v.816h-.999v-.867c0-.856-.337-1.366-1.112-1.366-.764 0-1.111.51-1.111 1.366v5.018c0 .856.357 1.366 1.111 1.366.775 0 1.112-.52 1.112-1.366v-1.897h-.979v-.949h1.978v2.795c0 1.438-.683 2.386-2.141 2.386-1.448 0-2.131-.948-2.131-2.386v-4.916c0-1.438.683-2.386 2.13-2.386 1.469 0 2.142.948 2.142 2.386zm2.06 2.927v4.273h-1.06v-9.494h1.06v4.273h2.336v-4.273h1.06v9.494h-1.06v-4.273h-2.336zm5.864 4.273v-8.536h-1.754v-.958h4.559v.958h-1.754v8.536h-1.051zm42.413-6.486v1.316h-1.019v-1.316h1.019zm0 5.171v1.315h-1.019v-1.315h1.019zm-66.827 20.865h-1.458l-1.306-9.494h1.03l1.112 8.087 1.06-8.077h1.04l1.041 8.087 1.07-8.097h.919l-1.285 9.494h-1.397l-.908-6.445-.918 6.445zm8.76-5.283v.948h-2.325v3.376h2.845v.958h-3.906v-9.494h3.906v.959h-2.845v3.243h2.325v.01zm2.57-4.212v9.494h-1.06v-9.494h1.06zm5.272 2.295v.816h-.999v-.867c0-.857-.337-1.367-1.112-1.367-.764 0-1.111.51-1.111 1.367v5.017c0 .857.357 1.367 1.111 1.367.775 0 1.112-.52 1.112-1.367v-1.897h-.979v-.948h1.978v2.794c0 1.438-.683 2.386-2.141 2.386-1.448 0-2.132-.948-2.132-2.386v-4.915c0-1.438.684-2.387 2.132-2.387 1.468 0 2.141.949 2.141 2.387zm2.06 2.926v4.273h-1.06v-9.494h1.06v4.273h2.336v-4.273h1.06v9.494h-1.06v-4.273h-2.336zm5.864 4.273v-8.535h-1.754v-.959h4.559v.959h-1.754v8.535h-1.051zm40.313-6.485v1.315h-1.02v-1.315h1.02zm0 5.17v1.316h-1.02v-1.316h1.02zm-67.286 13.635c1.478 0 2.06.703 2.06 2.1v.449c0 .999-.286 1.632-1.112 1.887.918.255 1.275.989 1.275 2.039v.806c0 1.428-.694 2.223-2.172 2.223h-2.183v-9.494h2.132v-.01zm-.255 4.028c.846 0 1.274-.276 1.274-1.265v-.561c0-.836-.285-1.244-1.04-1.244h-1.04v3.07h.806zm.306 4.507c.775 0 1.121-.408 1.121-1.285v-.836c0-1.06-.418-1.407-1.325-1.407h-.918v3.538h1.122v-.01zm3.141.959v-9.494h1.06v8.535h2.713v.959h-3.773zm4.487-7.2c0-1.448.724-2.386 2.172-2.386 1.468 0 2.182.938 2.182 2.386v4.916c0 1.438-.724 2.386-2.182 2.386-1.448 0-2.172-.948-2.172-2.386v-4.916zm1.05 4.967c0 .867.367 1.366 1.122 1.366.775 0 1.122-.499 1.122-1.366v-5.018c0-.856-.357-1.366-1.122-1.366-.765 0-1.122.52-1.122 1.366v5.018zm4.233-4.967c0-1.448.724-2.386 2.172-2.386 1.468 0 2.182.938 2.182 2.386v4.916c0 1.438-.724 2.386-2.182 2.386-1.448 0-2.172-.948-2.172-2.386v-4.916zm1.04 4.967c0 .867.367 1.366 1.121 1.366.775 0 1.122-.499 1.122-1.366v-5.018c0-.856-.357-1.366-1.122-1.366-.764 0-1.121.52-1.121 1.366v5.018zm6.536-7.261c1.479 0 2.162.897 2.162 2.366v4.793c0 1.448-.683 2.345-2.162 2.345H101.5v-9.494h2.223v-.01zm-.01 8.535c.765 0 1.122-.479 1.122-1.346v-4.885c0-.866-.367-1.346-1.142-1.346h-1.142v7.567h1.162v.01zm6.649.959v-8.536h-1.754v-.969h4.559v.969h-1.754v8.536h-1.051zm5.222-3.406l-2.009-6.088h1.101l1.479 4.67 1.489-4.67h.999l-2.019 6.088v3.406h-1.04v-3.406zm5.904-6.088c1.489 0 2.131.887 2.131 2.325v1.142c0 1.509-.703 2.295-2.212 2.295h-.939v3.742h-1.06v-9.494h2.08v-.01zm-.081 4.803c.785 0 1.162-.367 1.162-1.275v-1.264c0-.867-.316-1.306-1.081-1.306h-1.02v3.845h.939zm6.455-.602v.949h-2.325v3.375h2.845v.959h-3.906v-9.495h3.906v.969h-2.845v3.243h2.325zm21.457-1.193v1.316h-1.02v-1.316h1.02zm0 5.17v1.316h-1.02v-1.316h1.02zm-69.846 18.081v4.273h-1.06v-9.494h1.06v4.273h2.335v-4.273h1.06v9.494h-1.06v-4.273h-2.335zm4.405-2.926c0-1.449.724-2.387 2.172-2.387 1.469 0 2.183.938 2.183 2.387v4.915c0 1.438-.724 2.386-2.183 2.386-1.448 0-2.172-.948-2.172-2.386v-4.915zm1.04 4.966c0 .867.367 1.366 1.122 1.366.775 0 1.122-.499 1.122-1.366v-5.017c0-.857-.357-1.367-1.122-1.367-.765 0-1.122.51-1.122 1.367v5.017zm7.812 2.223h-1.02l-1.57-7.557v7.567h-.918v-9.494H90.7l1.56 7.587 1.51-7.587h1.478v9.494h-1v-7.638l-1.52 7.628zm6.975-5.283v.949H97.39v3.375h2.846v.959H96.33v-9.494h3.906v.958H97.39v3.243h2.315v.01zm4.681 3.386l-.367 1.917h-.979l1.815-9.494h1.53l1.815 9.494h-1.06l-.368-1.917h-2.386zm.143-.918h2.121l-1.071-5.486-1.05 5.486zm6.741-6.669c1.479 0 2.162.897 2.162 2.356v4.793c0 1.448-.683 2.345-2.162 2.345h-2.223v-9.494h2.223zm-.01 8.535c.765 0 1.121-.479 1.121-1.346v-4.884c0-.867-.367-1.347-1.142-1.347h-1.142v7.567h1.163v.01zm5.272-8.535c1.489 0 2.121.754 2.121 2.172v.775c0 1.04-.367 1.693-1.183 1.958.867.255 1.193.969 1.193 1.978v1.479c0 .418.011.816.194 1.142h-1.071c-.122-.275-.173-.52-.173-1.152v-1.489c0-1.071-.5-1.407-1.387-1.407h-.744v4.058h-1.061v-9.494h2.111v-.02zm-.265 4.477c.836 0 1.346-.276 1.346-1.306v-.907c0-.857-.316-1.306-1.101-1.306h-1.03v3.519h.785zm6.873-.276v.949h-2.325v3.375h2.845v.959h-3.905v-9.494h3.905v.958h-2.845v3.243h2.325v.01zm5.619-1.927v.255h-.999v-.316c0-.857-.326-1.357-1.081-1.357-.755 0-1.081.5-1.081 1.347 0 2.131 3.192 2.335 3.192 5.007 0 1.438-.694 2.376-2.142 2.376s-2.131-.938-2.131-2.376v-.541h.989v.602c0 .857.357 1.356 1.112 1.356.765 0 1.111-.499 1.111-1.356 0-2.121-3.171-2.315-3.171-4.997 0-1.468.683-2.376 2.101-2.376 1.417.01 2.1.938 2.1 2.376zm5.048 0v.255h-.999v-.316c0-.857-.326-1.357-1.081-1.357-.765 0-1.081.5-1.081 1.347 0 2.131 3.192 2.335 3.192 5.007 0 1.438-.694 2.376-2.142 2.376s-2.131-.938-2.131-2.376v-.541h.989v.602c0 .857.357 1.356 1.112 1.356.754 0 1.111-.499 1.111-1.356 0-2.121-3.171-2.315-3.171-4.997 0-1.468.673-2.376 2.101-2.376 1.417.01 2.1.938 2.1 2.376zm12.472.735v1.315h-1.019v-1.315h1.019zm0 5.17v1.315h-1.019v-1.315h1.019zm-69.172 13.635c1.489 0 2.131.887 2.131 2.325v1.142c0 1.509-.704 2.295-2.213 2.295h-.938v3.742h-1.06v-9.494h2.08v-.01zm-.082 4.803c.785 0 1.163-.367 1.163-1.275v-1.264c0-.867-.317-1.306-1.081-1.306h-1.02v3.845h.938zm4.09.418v4.273h-1.061v-9.495h1.06v4.273h2.336v-4.273h1.06v9.495h-1.06v-4.273h-2.335zm4.405-2.927c0-1.448.724-2.386 2.172-2.386 1.469 0 2.183.938 2.183 2.386v4.915c0 1.438-.724 2.387-2.183 2.387-1.448 0-2.172-.949-2.172-2.387v-4.915zm1.04 4.966c0 .867.367 1.367 1.122 1.367.775 0 1.122-.5 1.122-1.367v-5.017c0-.857-.357-1.367-1.122-1.367-.765 0-1.122.521-1.122 1.367v5.017zm5.252 2.234h-.948v-9.495h1.346l2.203 6.864v-6.864h.938v9.495h-1.102l-2.427-7.679v7.679h-.01zm7.995-5.293v.948h-2.315v3.376h2.846v.959h-3.906v-9.495h3.906v.969h-2.846v3.243h2.315zm4.539 5.293h-.949v-9.495h1.346l2.203 6.864v-6.864h.938v9.495h-1.101l-2.427-7.679v7.679h-.01zm5.619-2.234c0 .857.336 1.367 1.111 1.367.765 0 1.102-.52 1.102-1.367v-7.261h.989v7.21c0 1.438-.663 2.407-2.132 2.407-1.448 0-2.121-.959-2.121-2.407v-7.21h1.04v7.261h.011zm7.75 2.224h-1.02l-1.57-7.557v7.567h-.918v-9.495h1.478l1.561 7.588 1.509-7.588h1.479v9.495h-1v-7.639l-1.519 7.629zm5.721-9.485c1.479 0 2.06.704 2.06 2.101v.449c0 .999-.286 1.632-1.112 1.887.918.254 1.275.989 1.275 2.039v.806c0 1.427-.693 2.223-2.172 2.223h-2.182v-9.494h2.131v-.011zm-.255 4.029c.836 0 1.275-.276 1.275-1.265v-.561c0-.836-.286-1.244-1.04-1.244h-1.041v3.07h.806zm.316 4.507c.775 0 1.122-.408 1.122-1.285v-.836c0-1.061-.418-1.407-1.326-1.407h-.928v3.538h1.132v-.01zm6.506-4.334v.948h-2.325v3.376h2.845v.959h-3.905v-9.495h3.905v.969h-2.845v3.243h2.325zm3.631-4.202c1.489 0 2.121.765 2.121 2.173v.775c0 1.04-.367 1.692-1.183 1.958.867.255 1.193.958 1.193 1.978v1.479c0 .418.01.816.194 1.142h-1.071c-.122-.275-.173-.52-.173-1.152v-1.489c0-1.071-.5-1.408-1.387-1.408h-.744v4.059h-1.061v-9.494h2.111v-.021zm-.275 4.477c.846 0 1.346-.275 1.346-1.305v-.908c0-.856-.316-1.305-1.102-1.305h-1.03v3.518h.786zm10.83-1.468v1.315h-1.02v-1.315h1.02zm0 5.17v1.316h-1.02v-1.316h1.02z" fill="#263238"/><path d="M325.825 136.163h-10.79m10.433 18.54h-10.433m10.065 18.54h-10.065m9.708 18.54h-9.708m9.352 18.539h-9.352m8.984 18.54h-8.984m8.627 18.54h-8.627m8.271 18.54h-8.271m7.903 18.54h-7.903m7.547 18.54h-7.547m7.19 18.54h-7.19m6.822 18.539h-6.822m6.466 18.54h-6.466m6.109 18.54h-6.109m5.741 18.54h-5.741m5.385 18.54h-5.385m5.028 18.54h-5.028m-.122-296.638v296.638m68.825-321.684c-2.427 3.07-5.996 6.149-9.372 9.26l-2.294 2.039a.227.227 0 01-.051.041l-2.417-2.04c-3.09-2.702-6.343-5.527-8.678-8.372" stroke="#5C5C5C" stroke-miterlimit="10" stroke-linecap="round" stroke-linejoin="round"/><path d="M384.31 108.649l-4.039.184-1.162 2.366-2.774-7.496-1.754 7.516-1.775-3.784-2.192 6.792-3.692-14.634-2.121 9.831-4.508.204c-2.947-3.834-4.048-7.679-.622-11.3 4.283-4.527 9.637-.723 12.381 1.775 2.661-2.55 8.505-7.801 13.451-1.54 2.488 3.141 1.234 6.741-1.193 10.086zm-76.271-44.687a9.27 9.27 0 00-9.27 9.27c0 5.119 9.27 18.61 9.27 18.61s9.27-13.491 9.27-18.61c-.01-5.12-4.161-9.27-9.27-9.27zm0 13.828a4.218 4.218 0 01-4.222-4.222 4.224 4.224 0 014.222-4.222 4.224 4.224 0 014.222 4.222c-.01 2.335-1.897 4.222-4.222 4.222zm71.161 1.326a9.27 9.27 0 009.27-9.27c0-5.12-9.27-18.611-9.27-18.611s-9.269 13.492-9.269 18.61a9.27 9.27 0 009.269 9.27zm.001-16.613v6.68m-3.345-3.335h6.679m-6.679 6.67h6.679m-43.402 40.975c0 2.998-2.07 5.639-6.313 6.435-.856.163-1.795.245-2.825.245-.55 0-1.111-.021-1.652-.082-1.968-.183-3.855-.673-5.364-1.377-1.02-.469-1.458-1.693-.989-2.712.479-1.061 1.713-1.499 2.774-1.02 1.101.5 2.335.877 3.589 1.06a11.75 11.75 0 001.683.133c1.224 0 2.131-.163 2.794-.459.949-.408 1.367-1.071 1.367-1.856 0-.826-.53-1.366-1.367-1.774-1.111-.541-2.773-.847-4.477-1.265-3.263-.806-6.679-2.039-6.679-6.221 0-3.141 2.182-5.833 6.679-6.526.735-.123 1.54-.184 2.397-.184.693 0 1.387.04 2.08.133 1.224.153 2.417.428 3.508.846a2.056 2.056 0 011.173 2.703c-.428 1.06-1.621 1.539-2.692 1.121a12.242 12.242 0 00-1.989-.581 10.084 10.084 0 00-2.111-.214c-.989 0-1.764.122-2.366.336-1.223.429-1.723 1.224-1.723 2.122 0 .928.683 1.489 1.723 1.896 1.183.47 2.825.755 4.477 1.173 3.131.806 6.303 2.091 6.303 6.068zm-10.8-17.673v-2.61h4.477v2.559m0 26.413v2.427h-4.477v-2.254m11.718-94.892l-14.226 14.226h5.354V55.15h6.169v-8.79h5.395v8.79h6.17V41.69h5.364l-14.226-14.227z" stroke="#5C5C5C" stroke-miterlimit="10" stroke-linecap="round" stroke-linejoin="round"/><path d="M348.382 206.875h-92.475v123.141h92.475V206.875z" fill="#BFBFBF" stroke="#263238" stroke-linecap="round" stroke-linejoin="round"/><path d="M270.806 329.669h-14.389l.01-.041 1.938-11.116v-2.294a61.09 61.09 0 015.854-26.097c.01-.03.02-.051.04-.081l6.558 39.588-.011.041zm77.515 0h-14.45l.01-.041 5.099-30.808 1.479-8.944a60.77 60.77 0 014.395 12.758 61.111 61.111 0 011.489 13.421l1.968 13.563.01.051z" fill="#C6B5DD" stroke="#263238" stroke-linecap="round" stroke-linejoin="round"/><path d="M340.285 288.969s-.581 4.273-1.305 9.851c-1.061 8.148-2.448 19.111-2.805 23.649a721.133 721.133 0 00-.489 7.149v.041h-65.798c0-.011 0-.021-.01-.041-2.121-15.96-5.303-37.039-5.68-39.507a1.678 1.678 0 00-.041-.235l23.068-6.261 3.131-.847c.744-.499 1.733-.887 2.865-1.172 1.173-.296 2.519-.48 3.957-.582.174-.01.357-.02.541-.04.03 0 .061-.011.091-.011 3.019-.163 6.374 0 9.372.276 2.03.194 3.906.428 5.385.652.02.011.041.011.071.011 1.265.193 3.253.622 5.609 1.183 8.628 2.08 22.038 5.884 22.038 5.884z" fill="#C6B5DD"/><path opacity=".2" d="M286.318 300.493l9.728-5.416c.939-.53 2.162-1.04 3.019-.377.836.643.704 1.948 1.265 2.835.673 1.071 2.192 1.275 3.416.949 1.224-.327 2.305-3.09 3.518-3.478 3.957-1.295 8.087 3.172 11.554 5.487-.55-5.385-1.091-10.769-1.641-16.154 0 .286-22.415-.122-24.414.326-6.67 1.489-5.701 10.331-6.445 15.828z" fill="#000"/><path d="M340.285 288.969s-.581 4.273-1.305 9.851c-1.061 8.148-2.448 19.111-2.805 23.649a721.133 721.133 0 00-.489 7.149v.041h-65.798c0-.011 0-.021-.01-.041-2.121-15.96-5.303-37.039-5.68-39.507a1.678 1.678 0 00-.041-.235l23.068-6.261 3.131-.847c.744-.499 1.733-.887 2.865-1.172 1.173-.296 2.519-.48 3.957-.582.174-.01.357-.02.541-.04.03 0 .061-.011.091-.011 3.019-.163 6.374 0 9.372.276 2.03.194 3.906.428 5.385.652.02.011.041.011.071.011 1.265.193 3.253.622 5.609 1.183 8.628 2.08 22.038 5.884 22.038 5.884z" stroke="#263238" stroke-linecap="round" stroke-linejoin="round"/><path d="M295.577 275.365s-5.435 1.631-6.516 2.712c-1.081 1.081-1.907 6.833-2.998 9.78-1.091 2.937-4.61 8.148-3.519 8.424 1.092.275 17.745-5.222 17.745-5.222l3.161 12.88 2.05-12.87s15.868 6.313 16.408 5.487c.541-.816-3.528-10.586-3.793-14.655-.265-4.069-6.252-5.435-9.78-5.7-3.518-.265-12.758-.836-12.758-.836z" fill="#263238"/><path d="M293.242 268.777v15.888l9.81 4.987.092 13.237-.092-13.237 9.536-5.211v-16.582l-19.346.918zm-9.066-16.398c-.561.907-1.03 1.907-1.112 2.977-.101 1.316.408 2.621 1.163 3.702.755 1.081 1.754 1.969 2.753 2.825.419.357.847.724 1.357.928.51.204 1.122.235 1.591-.061.51-.326.734-.979.714-1.581-.021-.601-.235-1.183-.429-1.754-.805-2.417-.55-5.017-1.254-7.363-.796-2.702-3.641-1.54-4.783.327zm38.518 0c.56.907 1.03 1.907 1.111 2.977.102 1.316-.408 2.621-1.162 3.702-.755 1.081-1.754 1.969-2.754 2.825-.418.357-.846.724-1.356.928-.51.204-1.122.235-1.591-.061-.51-.326-.734-.979-.714-1.581.02-.601.235-1.183.428-1.754.806-2.417.551-5.017 1.255-7.363.805-2.702 3.64-1.54 4.783.327z" fill="#fff" stroke="#263238" stroke-linecap="round" stroke-linejoin="round"/><path d="M293.242 271.918s2.988 11.33 8.984 11.575c5.997.244 10.362-10.402 10.362-10.402s-6.18-4.477-19.346-1.173z" fill="#263238"/><path d="M319.767 249.523c0 12.534-7.373 29.809-16.46 29.809-9.096 0-16.459-17.275-16.459-29.809 0-12.533 7.373-22.68 16.459-22.68 9.087 0 16.46 10.147 16.46 22.68z" fill="#fff" stroke="#263238" stroke-linecap="round" stroke-linejoin="round"/><path d="M297.27 251.644c.51 0 .918 1.061.918 2.356 0 1.305-.418 2.356-.918 2.356-.51 0-.918-1.061-.918-2.356-.01-1.295.408-2.356.918-2.356zm11.503 0c.51 0 .918 1.061.918 2.356 0 1.305-.418 2.356-.918 2.356-.509 0-.917-1.061-.917-2.356-.011-1.295.408-2.356.917-2.356z" fill="#263238"/><path d="M304.97 250.461l-.602 1.214s.408 6.364.581 7.75c.174 1.377-.836 2.917-2.335 2.111l-1.509-.815m-2.397 6.139c0 1.254 9.178 1.254 9.178 0" stroke="#263238" stroke-linecap="round" stroke-linejoin="round"/><path d="M287.613 257.977c.958.184.958.184 1.927.378-.632-1.693-1.142-4.457-1.326-6.262-.173-1.805 2.417-4.497 2.417-5.772 0-6.873 3.733-6.669 4.497-5.66.102-1.254 5.976-7.312 10.362 1.081 1.121 2.142 13.053 4.039 13.012 5.966-.081 4.13-.367 6.047-.999 10.137.979.194 1.825-.826 1.948-1.815.122-.99.367-4.793 1.193-5.354.632.867.999 1.07 2.07.999-.469-1.224-.959-2.488-.897-3.794.061-1.305.744-.438 1.998-.805.663-.194 6.241-3.957 6.935-5.966-2.529.316-4.915-1.417-6.364-3.518-1.448-2.101-2.233-4.569-3.457-6.812-3.049-5.569-9.168-9.515-15.511-9.27-6.343.244-12.411 5.109-13.369 11.38-1.183-.601-2.682-.203-3.723.612-1.04.816-1.733 1.999-2.406 3.141-1.214 2.081-2.438 4.212-2.876 6.578-.428 2.366 1.968 5.68 3.794 7.251.244-.531.112 7.505.775 7.505z" fill="#263238"/><path d="M288.49 236.347a7.847 7.847 0 00-2.784 3.794m2.967-1.52a6.546 6.546 0 00-1.173 1.612m2.305-.306a3.714 3.714 0 00-.928 1.55m13.879-7.21c1.316.153 2.489 1.173 2.825 2.458m-2.682-5.13c2.305.459 4.263 2.325 4.834 4.6m.143-4.487a5.05 5.05 0 011.611 3.508m1.214-2.948c.52.633.795 1.469.765 2.285m1.305-1.734c.337.377.5.908.439 1.407m1.743-1.193l.214.765" stroke="#5C5C5C" stroke-miterlimit="10" stroke-linecap="round" stroke-linejoin="round"/><path d="M292.406 250.084c.642-.53 1.081-1.295 1.764-1.775.887-.632 2.091-.713 3.151-.448 1.061.265 2.03.816 2.968 1.376m6.333-.01c.948-.55 1.907-1.111 2.967-1.376 1.061-.265 2.264-.194 3.151.448.684.49 1.122 1.245 1.765 1.775" stroke="#263238" stroke-linecap="round" stroke-linejoin="round"/><path d="M296.883 278.71a15.75 15.75 0 003.977 9.576l-3.977-9.576z" fill="#fff"/><path d="M296.883 278.71a15.75 15.75 0 003.977 9.576m-3.957-47.778c.377-.928.897-1.805 1.53-2.58.296-.367.642-.724 1.071-.918.428-.193.979-.204 1.346.102m-2.081 3.804c.887-1.744 2.723-2.967 4.671-3.11m-2.621 3.212c.632-.857 5.568-3.59 6.7.643m-14.216.285c-1.703-.112-3.457.632-4.538 1.958m3.121-.133c-1.826.439-3.376 1.887-3.926 3.692m-29.422 70.958a10.53 10.53 0 001.866 6.332m8.312-15.276a132.15 132.15 0 011.163 20.069m70.569-24.821c-1.448 6.017-2.906 12.033-4.354 18.05" stroke="#263238" stroke-linecap="round" stroke-linejoin="round"/><path d="M344.181 319.246a33.013 33.013 0 01-5.976 10.82m-74.986-24.321c.388 5.149 2.744 12.349 5.497 16.724m34.428-19.58l-.387 16.623h3.865l.255-28.238" stroke="#263238" stroke-miterlimit="10"/><path d="M304.725 317.35a.938.938 0 100-1.877.938.938 0 000 1.877zm1.132-12.768c0 .52-.418.938-.939.938a.936.936 0 01-.938-.938c0-.52.418-.938.938-.938.521 0 .939.418.939.938z" stroke="#263238" stroke-miterlimit="10"/><path d="M337.797 285.797c-.092.316 2.509 11.35 2.509 11.35s1.723.724 1.988-1.621c.072-.632-.255-3.121-.214-4.263.112-3.324.928-6.19-2.111-6.547 0 0-1.784-.255-2.172 1.081z" fill="#fff" stroke="#263238" stroke-linecap="round" stroke-linejoin="round"/><path d="M338.613 289.529c-.551-.061.754 2.101.826 6.792.03 1.999 1.101 3.773 1.101 3.773s1.367.612 1.316-1.764c-.031-1.479-.612-5.364-.683-5.966-.51-4.028-.47-3.477-.398-3.018 0 0-1.326.285-2.162.183z" fill="#fff" stroke="#263238" stroke-linecap="round" stroke-linejoin="round"/><path d="M336.441 290.621c-.092.316.509 4.13 1.631 9.902.541 2.784 3.111 1.356 2.917-1.448-.102-1.479-.612-2.672-.622-5.211-.021-3.121-.734-4.539-.734-4.539s-2.805-.051-3.192 1.296z" fill="#fff" stroke="#263238" stroke-linecap="round" stroke-linejoin="round"/><path d="M346.496 241.854c-.653 13.054-1.979 28.891-2.101 30.451l-.255 4.906s.877 2.518.795 4.65c-.071 1.886-.387 2.713-.652 3.273-.429.939-1.55 2.315-1.561 2.346-.642 3.61-.866 4.548-3.304 4.375-.132-.01-.153 3.773-.153 3.773.469 2.091.449 3.631.255 4.436a1.709 1.709 0 01-1.631 1.295s-.806-.703-1.591-4.721c-.092-.48-.51-3.835-.541-4.365-.143-3.243.265-4.13.459-6.374.021-.173.041-.346.082-.53 0 0 1.407-7.506 1.55-7.608l-1.02-24.036a184.82 184.82 0 01.765-18.856c.306-3.182-.632-6.986-.643-13.288-.01-5.568 1.744-15.817 2.03-19.774.071-.959 3.212-.897 3.284-1.071l5.394 1.805c.021.01-.469 25.74-1.162 39.313z" fill="#fff" stroke="#263238" stroke-linecap="round" stroke-linejoin="round"/><path d="M340.367 283.207c-.826 2.59-.684 4.569-1.347 6.935-.142.52.194 1.529.663 1.621" fill="#fff"/><path d="M340.367 283.207c-.826 2.59-.684 4.569-1.347 6.935-.142.52.194 1.529.663 1.621" stroke="#263238" stroke-linecap="round" stroke-linejoin="round"/><path d="M339.205 283.207l.336 2.417-.336-2.417z" fill="#fff"/><path d="M339.205 283.207l.336 2.417" stroke="#263238" stroke-linecap="round" stroke-linejoin="round"/><path d="M405.481 286.929c.091.316-2.509 11.35-2.509 11.35s-1.724.725-1.989-1.621c-.071-.632.255-3.121.214-4.263-.112-3.324-.928-6.19 2.111-6.547 0 0 1.785-.255 2.173 1.081z" fill="#fff" stroke="#263238" stroke-linecap="round" stroke-linejoin="round"/><path d="M404.665 290.661c.551-.061-.755 2.101-.826 6.792-.031 1.999-1.102 3.763-1.102 3.763s-1.366.612-1.315-1.764c.031-1.479.612-5.364.683-5.966.51-4.028.469-3.477.398-3.018 0 0 1.336.285 2.162.193z" fill="#fff" stroke="#263238" stroke-linecap="round" stroke-linejoin="round"/><path d="M406.837 291.742c.092.317-.51 4.131-1.632 9.903-.54 2.784-3.11 1.356-2.916-1.448.102-1.479.612-2.672.622-5.212.02-3.12.734-4.538.734-4.538s2.804-.04 3.192 1.295z" fill="#fff" stroke="#263238" stroke-linecap="round" stroke-linejoin="round"/><path d="M396.782 242.986c.653 13.054 1.978 28.891 2.101 30.451l.255 4.906s-.877 2.529-.796 4.65c.072 1.887.388 2.713.653 3.273.428.939 1.55 2.315 1.56 2.346.643 3.61.867 4.548 3.304 4.375.133-.01.153 3.773.153 3.773-.469 2.091-.448 3.631-.255 4.436a1.71 1.71 0 001.632 1.295s.806-.703 1.591-4.721c.092-.48.51-3.835.54-4.365.143-3.243-.265-4.13-.459-6.374a5.02 5.02 0 00-.081-.53s-1.407-7.506-1.54-7.608l1.02-24.036a184.82 184.82 0 00-.765-18.856c-.306-3.182.632-6.986.642-13.288.011-5.568-1.743-15.817-2.029-19.774-.071-.959-3.212-.897-3.284-1.071l-5.394 1.805c-.021 0 .469 25.74 1.152 39.313z" fill="#fff" stroke="#263238" stroke-linecap="round" stroke-linejoin="round"/><path d="M402.911 284.329c.826 2.59.683 4.568 1.346 6.934.143.52-.194 1.53-.663 1.622" fill="#fff"/><path d="M402.911 284.329c.826 2.59.683 4.568 1.346 6.934.143.52-.194 1.53-.663 1.622" stroke="#263238" stroke-linecap="round" stroke-linejoin="round"/><path d="M404.073 284.329l-.336 2.417.336-2.417z" fill="#fff"/><path d="M404.073 284.329l-.336 2.417" stroke="#263238" stroke-linecap="round" stroke-linejoin="round"/><path d="M357.52 418.095s-1.662 4.671-6.679 8.699c-1.775 1.418-2.733 2.743-3.233 3.855-.714 1.581.52 3.375 2.254 3.375h16.541c1.009 0 1.927-.611 2.274-1.55.52-1.427.867-3.936-.377-7.883l-1.612-8.28-9.168 1.784z" fill="#fff" stroke="#263238" stroke-width=".75" stroke-miterlimit="10" stroke-linecap="round" stroke-linejoin="round"/><path d="M368.687 432.475c.52-1.428.866-3.937-.378-7.883l-.52-2.652-1.111 1.55s-1.194-1.897-5.395-1.897c-4.212 0-5.895 1.897-5.895 1.897l-.469-.918a23.344 23.344 0 01-4.089 4.222c-1.775 1.418-2.733 2.744-3.233 3.855-.714 1.581.52 3.376 2.254 3.376h16.541c1.03 0 1.948-.612 2.295-1.55z" fill="#263238" stroke="#263238" stroke-width=".75" stroke-miterlimit="10" stroke-linecap="round" stroke-linejoin="round"/><path d="M347.424 431.363c-.143 1.367.958 2.662 2.437 2.662h16.541c1.01 0 1.927-.612 2.274-1.55.112-.316.214-.684.296-1.102h-21.548v-.01z" fill="#fff" stroke="#263238" stroke-width=".75" stroke-miterlimit="10" stroke-linecap="round" stroke-linejoin="round"/><path d="M373.214 270.184l-1.499 82.073-1.203 65.991H353.95l-8.821-122.385 2.121-30.666c12.279-3.181 21.498 1.887 24.71 4.069.816.551 1.254.918 1.254.918z" fill="#263238"/><path d="M385.91 418.095s1.663 4.671 6.68 8.699c1.775 1.418 2.733 2.743 3.233 3.855.714 1.581-.52 3.375-2.254 3.375h-16.541c-1.01 0-1.927-.611-2.274-1.55-.52-1.427-.867-3.936.367-7.883l1.611-8.28 9.178 1.784z" fill="#fff" stroke="#263238" stroke-width=".75" stroke-miterlimit="10" stroke-linecap="round" stroke-linejoin="round"/><path d="M374.734 432.474c-.52-1.427-.867-3.936.367-7.883l.52-2.651 1.112 1.55s1.193-1.897 5.394-1.897c4.202 0 5.884 1.897 5.884 1.897l.47-.918a23.344 23.344 0 004.089 4.222c1.774 1.418 2.733 2.743 3.233 3.855.714 1.581-.52 3.376-2.254 3.376h-16.541c-1 0-1.917-.612-2.274-1.551z" fill="#263238" stroke="#263238" stroke-width=".75" stroke-miterlimit="10" stroke-linecap="round" stroke-linejoin="round"/><path d="M396.007 431.363c.143 1.366-.959 2.662-2.438 2.662h-16.541c-1.009 0-1.927-.612-2.274-1.55a7.85 7.85 0 01-.296-1.102h21.549v-.01z" fill="#fff" stroke="#263238" stroke-width=".75" stroke-miterlimit="10" stroke-linecap="round" stroke-linejoin="round"/><path d="M398.301 295.863l-8.821 122.385h-16.551l-1.214-65.991 1.499-82.073s-.438-.367-1.254-.918c3.651-1.713 12.758-4.986 24.506-1.937l1.835 28.534z" fill="#263238"/><path d="M346.547 220.214h-11.014l-.856-.03 1.499-8.638v-1.785c0-7.016-.235-14.583 5.415-20.283.194 1.233 3.416 10.248 4.956 30.736z" fill="#C6B5DD"/><path opacity=".2" d="M343.783 215.38c-1.234-.642-2.468-1.285-3.702-1.917 1.163 2.152 2.336 4.304 3.498 6.455-2.998.184-5.996.378-8.994.561.54-3.181 1.081-6.373 1.631-9.555.592 1.02 1.173 2.039 1.765 3.059-1.561-2.712-3.294-10.493-.368-12.645 2.917 3.385 4.406 9.769 6.17 14.042z" fill="#000"/><path d="M346.547 220.214h-11.014l-.856-.03 1.499-8.638v-1.785c0-7.016-.235-14.583 5.415-20.283.194 1.233 3.416 10.248 4.956 30.736z" stroke="#263238" stroke-linecap="round" stroke-linejoin="round"/><path d="M395.619 219.419v-.031l3.967-23.945 1.153-6.944c6.108 6.669 5.435 16.826 5.435 20.345l1.611 10.544-12.166.031z" fill="#C6B5DD"/><path opacity=".2" d="M398.985 205.019c.652-1.478 1.315-2.957 1.968-4.446l-1.897 7.679c-.184.765-.367 1.611.01 2.295.459.836 1.611 1.091 2.529.816.918-.276 1.652-.949 2.366-1.591-2.386 2.111-3.273 5.762-2.111 8.729-1.489 1.662-4.722.969-5.395-1.162-.295-.939-.142-1.948.011-2.907.683-4.303 1.152-8.74 2.09-12.972.133.775.734 2.866.429 3.559z" fill="#000"/><path d="M395.619 219.419v-.031l3.967-23.945 1.153-6.944c6.108 6.669 5.435 16.826 5.435 20.345l1.611 10.544-12.166.031z" stroke="#263238" stroke-linecap="round" stroke-linejoin="round"/><path d="M397.322 209.18c-2.57 23.863-.805 57.516-.805 57.516-19.733 8.934-49.787-.407-49.797-.418 1.03-19.406.694-34.54-.173-46.054-1.55-20.487-4.763-29.512-4.946-30.736-.031-.123-.031-.184-.031-.184l17.938-4.864 2.438-.663c.581-.388 1.346-.693 2.223-.908.918-.234 1.958-.377 3.069-.448a5.36 5.36 0 01.429-.021c.03 0 .041-.01.071-.01 2.346-.132 4.956 0 7.292.214 1.58.143 3.028.337 4.181.5.02.01.03.01.051.01.989.143 2.539.49 4.365.918 6.679 1.601 17.112 4.569 17.112 4.569s-3.039 17.061-3.417 20.579z" fill="#C6B5DD"/><path opacity=".2" d="M346.771 215.431c3.998 6.017 7.995 12.024 11.993 18.041-1.407-3.733-2.815-7.455-4.222-11.188 6.833 13.115 18.02 23.904 31.379 30.258-7.404 1.264-15.327-.969-20.987-5.915 4.436 6.588 12.044 10.942 19.967 11.432-8.015 3.426-17.112 4.293-25.637 2.427a48.705 48.705 0 0022.384 8.423c-7.577.775-15.225.837-22.813.184-4.793-.418-10.381-1.703-12.268-6.129-.775-1.825-.754-3.885-.714-5.864.255-13.553.51-27.106.775-40.659-.132.591-.275 1.183-.408 1.774m42.944 22.823c-8.046-2.284-16.959-7.403-23.639-11.35 2.652 2.295 6.649 7.077 10.015 8.546 3.875 1.683 9.698 2.142 13.624 2.804z" fill="#000"/><path d="M397.322 209.18c-2.57 23.863-.805 57.516-.805 57.516-19.733 8.934-49.787-.407-49.797-.418 1.03-19.406.694-34.54-.173-46.054-1.55-20.487-4.763-29.512-4.946-30.736-.031-.123-.031-.184-.031-.184l17.938-4.864 2.438-.663c.581-.388 1.346-.693 2.223-.908.918-.234 1.958-.377 3.069-.448a5.36 5.36 0 01.429-.021c.03 0 .041-.01.071-.01 2.346-.132 4.956 0 7.292.214 1.58.143 3.028.337 4.181.5.02.01.03.01.051.01.989.143 2.539.49 4.365.918 6.679 1.601 17.112 4.569 17.112 4.569s-3.039 17.061-3.417 20.579z" stroke="#263238" stroke-linecap="round" stroke-linejoin="round"/><path d="M386.37 185.011c-3.549 4.977-9.036 7.465-14.512 7.465-5.344 0-10.698-2.366-14.267-7.139l-.245-.326 6.813-2.152v-9.963l15.042-.724v10.759l.346-.072 6.823 2.152zm-29.258-24.863c-.439.704-.806 1.479-.867 2.315-.082 1.02.316 2.04.907 2.876.592.836 1.367 1.53 2.142 2.193.326.275.653.561 1.05.724.398.163.877.183 1.234-.041.398-.255.571-.755.551-1.224-.01-.469-.184-.918-.326-1.366-.633-1.877-.429-3.906-.969-5.721-.622-2.101-2.825-1.204-3.722.244zm29.941 0c.439.704.806 1.479.867 2.315.081 1.02-.316 2.04-.908 2.876-.591.836-1.366 1.53-2.141 2.193-.327.275-.653.561-1.051.724-.397.163-.877.183-1.234-.041-.397-.255-.571-.755-.55-1.224.01-.469.183-.918.326-1.366.632-1.877.428-3.906.969-5.721.622-2.101 2.835-1.204 3.722.244z" fill="#fff" stroke="#263238" stroke-linecap="round" stroke-linejoin="round"/><path d="M364.159 175.333s2.325 8.801 6.985 8.995c4.661.183 8.057-8.087 8.057-8.087s-4.814-3.478-15.042-.908z" fill="#263238"/><path d="M384.779 157.935c0 9.74-5.732 23.16-12.799 23.16-7.067 0-12.798-13.42-12.798-23.16 0-9.739 5.731-17.632 12.798-17.632s12.799 7.893 12.799 17.632z" fill="#fff" stroke="#263238" stroke-linecap="round" stroke-linejoin="round"/><path d="M367.289 159.577c.398 0 .714.816.714 1.836s-.316 1.836-.714 1.836c-.398 0-.714-.816-.714-1.836s.316-1.836.714-1.836zm8.944 0c.398 0 .714.816.714 1.836s-.316 1.836-.714 1.836c-.398 0-.714-.816-.714-1.836s.316-1.836.714-1.836z" fill="#263238"/><path d="M373.275 158.659l-.469.939s.317 4.946.449 6.016c.133 1.071-.653 2.275-1.815 1.642l-1.173-.632m-1.856 4.783c0 .979 7.139.979 7.139 0" stroke="#263238" stroke-linecap="round" stroke-linejoin="round"/><path d="M359.784 164.503c.744.143.744.143 1.499.296-.49-1.316-.887-3.468-1.03-4.865-.143-1.397 1.876-3.498 1.876-4.487 0-5.344 2.907-5.181 3.498-4.405.082-.979 4.64-5.681 8.056.846.867 1.662 10.147 3.141 10.117 4.64-.072 3.212-.286 4.701-.775 7.873.765.153 1.417-.643 1.509-1.407.092-.765.286-3.733.928-4.161.49.673.775.836 1.611.785-.367-.948-.744-1.927-.703-2.947.04-1.02.571-.347 1.55-.632.51-.153 4.854-3.07 5.395-4.641-1.969.245-3.815-1.101-4.946-2.733-1.122-1.631-1.734-3.559-2.693-5.292-2.366-4.324-7.128-7.394-12.054-7.21-4.925.193-9.647 3.967-10.391 8.841-.918-.469-2.081-.163-2.897.48-.815.642-1.346 1.55-1.866 2.447-.938 1.611-1.897 3.274-2.233 5.109-.337 1.836 1.529 4.416 2.947 5.63.194-.408.092 5.833.602 5.833z" fill="#263238"/><path d="M363.506 158.364c.5-.418.836-1.01 1.366-1.387.694-.5 1.622-.551 2.448-.347.826.204 1.57.643 2.305 1.071m4.936 0c.734-.428 1.478-.867 2.304-1.071.826-.204 1.754-.143 2.448.347.53.377.867.969 1.366 1.387" stroke="#263238" stroke-linecap="round" stroke-linejoin="round"/><path d="M366.994 180.606a12.236 12.236 0 003.09 7.444l-3.09-7.444z" fill="#fff"/><path d="M366.994 180.606a12.236 12.236 0 003.09 7.444m-3.08-37.121a8.13 8.13 0 011.183-2.009c.234-.285.5-.56.836-.713.337-.153.765-.153 1.05.081m-1.611 2.958c.683-1.357 2.111-2.305 3.631-2.417m-2.04 2.498c.489-.663 4.334-2.794 5.211.5m-11.054.214a4.262 4.262 0 00-3.529 1.519m2.427-.101c-1.417.336-2.631 1.468-3.059 2.865" stroke="#263238" stroke-linecap="round" stroke-linejoin="round"/><path d="M362.701 294.731a76.67 76.67 0 009.443 3.6l10.769-3.733m-36.774-10.688c1.805-.244 3.049-1.896 3.977-3.467a39.956 39.956 0 004.079-9.647m42.577 13.114c-1.805-.244-3.049-1.896-3.977-3.467a39.959 39.959 0 01-4.08-9.647" stroke="#5C5C5C" stroke-miterlimit="10" stroke-linecap="round" stroke-linejoin="round"/><path d="M371.083 270.796v1.469s16.368.734 23.67-3.335m-46.116-.663c5.742 3.121 15.919 3.671 22.436 3.998" stroke="#5C5C5C" stroke-miterlimit="10" stroke-linecap="round" stroke-linejoin="round"/><path d="M372.001 272.295l.204 10.259s.01.316.01.847l.123 5.68s2.569.418 3.008-2.142c.377-2.111.112-11.411 0-14.623m-3.794 88.681c-.153-6.017.653-78.443.653-78.443" stroke="#5C5C5C" stroke-miterlimit="10" stroke-linecap="round" stroke-linejoin="round"/><path d="M354.042 253.827c8.77 6.628 21.069 8.26 31.267 4.171m-29.38-35.714c2.57 5.018 5.374 9.913 8.811 14.369 5.221 6.772 12.084 12.554 20.263 15.002m-30.706-32.624l.582 1.183m-2.815-5.782c.418.867.836 1.744 1.264 2.611m12.197 12.645c5.64 6.772 14.145 11.065 22.946 11.585m-52.214-37.212c.102 6.129 1.397 8.831 2.6 10.32m7.19-9.566c.143 6.751 1.254 14.216 1.04 24.873" stroke="#263238" stroke-linecap="round" stroke-linejoin="round"/><path d="M341.57 201.277c.296 4.008 2.131 9.596 4.273 13.002" stroke="#263238" stroke-miterlimit="10" stroke-linecap="round" stroke-linejoin="round"/><path d="M402.054 198.289c-1.132 4.681-2.448 9.831-4.885 12.349" stroke="#263238" stroke-linecap="round" stroke-linejoin="round"/><path d="M400.892 214.279a54.021 54.021 0 01-2.04 1.622m7.343-9.097c-.816 2.549-2.223 4.487-3.753 6.037" stroke="#263238" stroke-miterlimit="10" stroke-linecap="round" stroke-linejoin="round"/></svg>