<svg width="202" height="323" fill="none" xmlns="http://www.w3.org/2000/svg"><path d="M127.267 322.23c23.938 0 43.343-5.767 43.343-12.881 0-7.113-19.405-12.88-43.343-12.88-23.938 0-43.344 5.767-43.344 12.88 0 7.114 19.406 12.881 43.344 12.881z" fill="#C6B5DD"/><path opacity=".5" d="M127.267 322.23c23.938 0 43.343-5.767 43.343-12.881 0-7.113-19.405-12.88-43.343-12.88-23.938 0-43.344 5.767-43.344 12.88 0 7.114 19.406 12.881 43.344 12.881z" fill="#fff"/><path d="M81.288 154.923s1.795 15.872 2.562 24.07c.766 8.198 2.813 31.492 2.56 34.316-.251 2.813-2.812 32.09-2.812 43.354 0 11.264 1.532 27.146 1.532 27.146s-2.561 4.356-2.047 6.655c.515 2.31 1.029 4.609 1.029 5.889 0 1.281.514 3.076.514 3.076s3.842 2.561 6.141 2.813c2.31.252 6.918-1.28 6.918-2.047 0-.766 2.047-8.45 2.047-11.263 0-2.814 0-1.795.766-5.637.767-3.842 8.965-56.927 9.983-61.788 1.029-4.86 2.562-41.485 2.562-41.485l1.795 3.327s4.356 39.177 4.094 43.533c-.252 4.356-1.795 20.995-1.029 28.679.766 7.684 2.309 26.631 2.309 28.678 0 2.047-.514 6.656-.514 8.451 0 1.795-1.533 4.608-.766 5.889.766 1.28 1.532 3.842 1.532 3.842s9.217 1.532 11.778 1.532c2.562 0 4.609-2.309 4.609-2.309v-4.356c0-2.31.514-4.357.514-6.656 0-2.309.252-7.169.252-10.759 0-3.591.766-7.936 1.029-10.246.252-2.309 3.842-29.193 4.356-39.176.514-9.983 2.813-32.521 2.813-36.111 0-3.59-.252-37.129-.252-37.129l-.514-6.141s-26.884 3.59-39.69 1.795c-12.807-1.795-23.304-2.309-23.304-2.309l-.767 4.367z" fill="#263238" stroke="#263238" stroke-miterlimit="10" stroke-linecap="round" stroke-linejoin="round"/><path d="M98.682 296.122s-.703.704-2.12 1.134c-1.407.42-2.257.704-3.39-.85-1.135-1.554-3.391-3.391-5.218-2.54-1.837.85-3.947 2.12-4.377 3.107-.42.987-.137 11.284-.137 13.268 0 1.974 3.81 2.824 7.621 2.961 3.81.136 6.771-1.974 6.771-1.974s3.244.284 4.377-1.134c1.134-1.406.567-4.66-.136-5.784-.703-1.133-1.27-2.12-2.257-4.094-.997-1.973-1.134-4.094-1.134-4.094z" fill="#fff" stroke="#263238" stroke-miterlimit="10" stroke-linecap="round" stroke-linejoin="round"/><path d="M102.209 310.095c.368-.462.557-1.124.62-1.837-1.858.85-4.052.314-4.85.43-.987.136-3.244 1.69-8.324 1.407-2.982-.168-5.04-.872-6.225-1.418.01.693.02 1.239.02 1.554 0 1.974 3.811 2.824 7.622 2.96 3.81.137 6.77-1.973 6.77-1.973s3.234.283 4.367-1.123z" fill="#C6B5DD" stroke="#263238" stroke-miterlimit="10" stroke-linecap="round" stroke-linejoin="round"/><path d="M97.265 311.228l.567-6.781" stroke="#263238" stroke-miterlimit="10" stroke-linecap="round" stroke-linejoin="round"/><path d="M94.347 297.456c-.378-.158-.756-.483-1.165-1.05-1.134-1.554-3.39-3.391-5.218-2.54-1.532.703-3.254 1.711-4.02 2.592.609 1.743 2.089 4.819 5.007 5.029 2.383.168 4.23-1.921 5.396-4.031z" fill="#C6B5DD" stroke="#263238" stroke-miterlimit="10" stroke-linecap="round" stroke-linejoin="round"/><path d="M137.061 299.346s-2.121.567-3.244-.136c-1.134-.704-2.824-4.934-6.634-4.514-3.811.42-5.501 3.947-6.351 4.377-.851.42-.987.567-1.27.987-.284.42-.42 11.862-.284 12.985.137 1.123 8.188 2.257 13.122 1.69 4.934-.567 6.634-2.677 7.054-2.96.42-.283 2.257-.85 2.54-3.391.284-2.54-.566-5.364-1.973-6.351-1.407-.986-2.54-2.12-2.54-2.12l-.42-.567z" fill="#fff" stroke="#263238" stroke-miterlimit="10" stroke-linecap="round" stroke-linejoin="round"/><path d="M131.56 311.48c-5.133.105-10.182-.966-12.324-1.9-.01 1.701.011 3.086.053 3.454.136 1.133 8.188 2.257 13.121 1.69 4.934-.567 6.635-2.677 7.055-2.96.419-.284 2.256-.851 2.54-3.391.073-.63.073-1.281.01-1.911-.199.431-.44.893-.713 1.344-.851 1.417-2.971 3.538-9.742 3.674z" fill="#C6B5DD" stroke="#263238" stroke-miterlimit="10" stroke-linecap="round" stroke-linejoin="round"/><path d="M137.103 306.662l-.819 6.991" stroke="#263238" stroke-miterlimit="10" stroke-linecap="round" stroke-linejoin="round"/><path d="M127.613 303.019c2.54.294 5.27-1.711 6.771-3.579a2.021 2.021 0 01-.557-.231c-1.133-.703-2.823-4.934-6.634-4.514-3.81.42-5.501 3.947-6.351 4.377-.01 0 3.097 3.528 6.771 3.947z" fill="#C6B5DD" stroke="#263238" stroke-miterlimit="10" stroke-linecap="round" stroke-linejoin="round"/><path d="M113.043 180.022l-6.152-3.076" stroke="#636363" stroke-miterlimit="10" stroke-linecap="round" stroke-linejoin="round"/><path d="M126.038 35.536s1.533-2.561 2.047.766c.515 3.328-.766 6.918-2.561 8.199-1.795 1.28-2.561 0-2.561-1.28.01-1.292 3.075-7.685 3.075-7.685zm-29.959 1.281s-2.813-.766-2.813 2.31c0 3.075 4.094 7.421 5.889 6.403 1.795-1.04-3.076-8.713-3.076-8.713z" fill="#fff" stroke="#263238" stroke-miterlimit="10" stroke-linecap="round" stroke-linejoin="round"/><path d="M110.933 6.847s-4 6.656-8.199 8.45c-5.374 2.31-9.73 9.217-9.479 14.854.252 5.637 8.451 24.07 9.731 24.585 1.281.515 17.415-.766 17.93-1.532.514-.767 2.813-8.45 4.86-15.872 2.047-7.422 2.047-11.264 2.047-11.264s1.029-2.813 1.029-7.422c0-4.608-3.328-8.198-3.328-8.198l-3.076 3.842 1.029-8.702s-3.328-.515-6.141 1.28-4.86 4.357-4.86 4.357l-1.543-4.378z" fill="#263238" stroke="#263238" stroke-miterlimit="10" stroke-linecap="round" stroke-linejoin="round"/><path d="M200.811 13.775c-.378-1.144-1.522-1.144-2.477-3.621-.956-2.478-3.622-1.91-4.378-2.289-.766-.378-.766-.766-.378-1.91C193.956 4.81 194.912 1 193.2 1c-1.711 0-3.044 4-3.432 4.955-.378.955-3.433 4.954-3.433 4.954s-1.522.378-2.477.378c-.955 0-2.1 1.91-2.289 2.856-.115.598.809 2.53 1.512 3.894.451 1.67 1.155 3.338 1.155 3.338s.955 1.334 3.81.956c2.856-.378 8.199 3.432 8.954 2.855.767-.567 2.478-4 3.244-5.91.756-1.88.945-4.357.567-5.5zM77.562 173.031s3.464 5.28 3.642 7.285c.179 2.005.179 5.836.368 7.107.178 1.28-.546 2.183-1.46 2.183-.913 0-1.459-.913-1.459-.913s.179 1.826.546 3.097c.368 1.28 2.373 2.372 2.184 3.642-.179 1.281-2.184 1.827-4.924 1.827s-6.015-1.459-7.652-5.291c-1.638-3.832-3.286-14.759-3.286-16.764.021-1.995 10.225-3.632 12.04-2.173z" fill="#fff" stroke="#263238" stroke-miterlimit="10" stroke-linecap="round" stroke-linejoin="round"/><path d="M73.74 179.77s.725 1.638-.724 4.188c-1.459 2.551-2.183 4.378-2.183 4.924 0 .546.913 2.183 1.637 3.642.725 1.459 3.097 1.281 3.286 2.551.178 1.281-.367 2.005-.367 2.005m.651-9.511s.251 2.415.986 4.231c.725 1.826 4.556 2.918 3.097 4.923" stroke="#263238" stroke-miterlimit="10" stroke-linecap="round" stroke-linejoin="round"/><path d="M73.74 188.336s.368 2.372.914 3.464 4.188 2.183 3.464 5.102m.546-8.199s-.368-2.918-.546-4.01c-.178-1.092-.178-3.097-.178-3.097" stroke="#263238" stroke-miterlimit="10" stroke-linecap="round" stroke-linejoin="round"/><path d="M138.446 61.192s-6.141-5.375-16.386-7.422c-10.246-2.047-23.819 1.28-29.193 4.86-5.375 3.59-5.89 9.731-5.89 9.731l51.469-7.17zm42.252-31.241s-.514-2.047 0-3.075c.514-1.029.766-4.094 1.533-4.86.766-.767 6.403-3.842 10.497-2.047 4.094 1.794 6.141 9.479 6.918 11.263.766 1.795-1.533 5.89-2.562 6.404-1.028.514-2.047-3.076-3.075-4.094-1.019-1.03-9.731-5.123-13.311-3.59z" fill="#fff" stroke="#263238" stroke-miterlimit="10" stroke-linecap="round" stroke-linejoin="round"/><path d="M113.095 60.688c-1.029.252-20.49 2.813-29.193 5.374-8.702 2.562-15.872 5.89-16.134 9.217-.252 3.328-7.37 65.357-7.621 68.947-.252 3.59 2.309 24.322 3.59 25.099 1.28.766 7.17 1.28 9.216.514 2.047-.766 3.328-2.309 3.328-2.309l.766-17.153s.515 5.889 1.533 6.141c1.029.252 17.153 5.123 39.176 3.328 22.023-1.795 31.24-5.123 33.035-6.404 1.795-1.28 1.533-5.122 1.533-5.122s.252-2.814.252-5.637c0-2.814-8.251-59.468-8.251-59.468s33.801-9.217 36.363-12.292c2.561-3.076 14.853-36.615 14.853-39.177 0-2.56-5.637-6.403-9.731-6.655-4.094-.252-14.087 19.977-16.386 21.51-2.309 1.532-24.322 10.245-32.521 11.777-8.188 1.533-23.808 2.31-23.808 2.31z" fill="#C6B5DD" stroke="#263238" stroke-miterlimit="10" stroke-linecap="round" stroke-linejoin="round"/><path d="M104.981 78.04s3.474 13.615 13.615 19.22m1.375 6.047c.766.399 1.543.787 2.351 1.155M104.981 92.19s4.325 4.661 11.263 8.986" stroke="#263238" stroke-miterlimit="10" stroke-linecap="round" stroke-linejoin="round"/><path d="M145.658 93.597l-1.323-10.382-12.639 4.66 4.882 2.006c-2.383 2.089-5.501 5.06-3.569 4.713 1.732-.315 4.933-1.92 7.285-3.191l5.364 2.194zm-70.92 49.348c0-4.608 2.246-51.531 2.246-51.531l-.766-3.328-5.69-9.038 3.024 17.54c-2.404-.745-7.244-2.025-5.407.41 1.554 2.079 4.115 4.252 5.732 5.543l-1.721 34.693a14.897 14.897 0 002.036 8.283l1.764 3.002a13.228 13.228 0 01-1.218-5.574z" fill="#263238" stroke="#263238" stroke-miterlimit="10" stroke-linecap="round" stroke-linejoin="round"/><path d="M75.956 148.508c.556 1.197 1.091 1.858 1.091 1.858l-1.091-1.858z" fill="#263238" stroke="#263238" stroke-miterlimit="10" stroke-linecap="round" stroke-linejoin="round"/><path d="M151.305 147.039c-39.176 17.667-74.258 3.327-74.258 3.327s.515 5.889 1.533 6.141c1.029.252 17.153 5.123 39.176 3.328 22.023-1.795 31.24-5.123 33.035-6.403 1.795-1.281 1.533-5.123 1.533-5.123s.052-.588.115-1.501l-1.134.231zm-90.392 19.714s5.889 2.561 10.76 1.029c4.86-1.533 6.14-3.076 6.917-2.814.767.252.767 6.404 0 8.199-.766 1.795-2.561 3.075-7.936 3.59-5.374.514-8.198-2.047-8.702-3.59-.525-1.543-1.04-6.414-1.04-6.414z" fill="#fff" stroke="#263238" stroke-miterlimit="10" stroke-linecap="round" stroke-linejoin="round"/><path d="M39.73 307.333c21.038 0 38.094-5.292 38.094-11.82 0-6.528-17.056-11.82-38.095-11.82-21.04 0-38.095 5.292-38.095 11.82 0 6.528 17.056 11.82 38.095 11.82z" fill="#C6B5DD"/><path opacity=".5" d="M39.73 307.333c21.038 0 38.094-5.292 38.094-11.82 0-6.528-17.056-11.82-38.095-11.82-21.04 0-38.095 5.292-38.095 11.82 0 6.528 17.056 11.82 38.095 11.82z" fill="#fff"/><path d="M45.744 27.19s3.18 3.738 2.992 5.239c-.19 1.49.378 3.926 1.123 4.86.745.934 2.803 1.68 2.803 3.37 0 1.69-1.123 3.18-1.123 3.18s.745 7.475 0 9.343c-.746 1.869-3.737 1.869-5.417 1.869-1.68 0-2.614-.19-3.18-.19-.557 0-3.927-2.99-6.54-9.53-2.614-6.54.377-16.261 2.613-17.573 2.247-1.313 6.73-.567 6.73-.567z" fill="#fff" stroke="#263238" stroke-miterlimit="10" stroke-linecap="round" stroke-linejoin="round"/><path d="M44.442 38.601l7.663-4.304m-3.369-.745s4.115-1.123 2.614 4.86" stroke="#263238" stroke-miterlimit="10" stroke-linecap="round" stroke-linejoin="round"/><path d="M37.556 60.73l-1.155 13.91-14.78-3.475V60.153c0-.01 10.424-2.33 15.935.577z" fill="#fff" stroke="#263238" stroke-miterlimit="10" stroke-linecap="round" stroke-linejoin="round"/><path d="M36.034 20.955s-4.041 1.155-8.366.578c-4.325-.578-13.846.577-16.44 6.917-2.592 6.34.578 12.114.284 13.846-.283 1.733-4.902 4.325-4.902 6.918s2.015 4.902 1.155 6.918c-.861 2.015-2.31 3.748-1.155 5.763 1.155 2.015 5.763-1.438 6.34.577.578 2.016 4.903 4.62 6.918 4.62 2.016 0 4.325-4.326 5.48-2.594 1.155 1.732 3.464 3.464 5.763 3.17 2.31-.283 3.443-5.616 8.366-3.464 4.84 2.12 6.519-2.351 6.34-6.34-.167-3.758-4.618-8.944-3.747-11.82.86-2.887 2.593-4.902 2.016-8.072-.578-3.17-3.17-4.325-1.733-6.635 1.439-2.31 3.465-2.31 4.042-5.186.577-2.886-.577-6.634-4.902-7.211-4.304-.578-5.459 2.015-5.459 2.015zm-26.012 147.28s4.052 23.178 2.026 45.495c-.819 8.954-5.217 11.306-6.372 23.178-1.154 11.883 2.898 35.933.872 48.687-.273 1.743-2.32 6.088 0 8.408 2.32 2.32 10.434.872 12.754.872 2.32 0 7.82-.872 8.408-2.32.578-1.449-3.474-2.898-6.088-7.821-2.604-4.923-4.64-11.589-4.64-18.255 0-6.666 4.052-25.498 7.243-40.855 3.191-15.358 4.923-23.766 4.923-32.458v-27.241c0-1.448-7.82-4.923-13.909-3.768-6.078 1.154-5.217 6.078-5.217 6.078z" fill="#fff" stroke="#263238" stroke-miterlimit="10" stroke-linecap="round" stroke-linejoin="round"/><path d="M21.621 284.722c-.44-.839-.86-1.753-1.27-2.687-.745 1.596-1.018 3.517-2.498 3.842-2.604.578-11.306-.294-11.306-.294-.294 1.743-2.32 6.089 0 8.409 2.32 2.32 10.434.871 12.754.871 2.32 0 7.82-.871 8.409-2.32.577-1.449-3.486-2.897-6.089-7.821z" fill="#263238" stroke="#263238" stroke-miterlimit="10" stroke-linecap="round" stroke-linejoin="round"/><path d="M17.622 273.06c-.4-2.152-.64-4.367-.64-6.592 0-6.666 4.051-25.499 7.242-40.856 3.192-15.358 4.924-23.766 4.924-32.458v-27.241c0-1.448-7.82-4.923-13.91-3.768-6.088 1.155-5.216 6.088-5.216 6.088s4.051 23.179 2.025 45.496c-.818 8.954-5.217 11.306-6.371 23.178-.84 8.629 1.07 23.672 1.396 36.153 2.53.64 6.204 1.039 10.55 0z" fill="#C6B5DD" stroke="#263238" stroke-miterlimit="10" stroke-linecap="round" stroke-linejoin="round"/><path d="M6.264 267.622s4.345.872 6.665.872c2.32 0 5.5-1.155 5.5-1.155l.872 7.537s-4.923 1.449-8.114 1.449c-3.191 0-4.346-.578-4.346-.578s-.577-5.805-.577-8.125z" fill="#fff" stroke="#263238" stroke-miterlimit="10" stroke-linecap="round" stroke-linejoin="round"/><path d="M6.841 146.787s-1.742 11.589 0 17.384c1.743 5.794 6.372 13.909 7.537 16.229 1.165 2.32 2.604 9.563 2.604 11.011 0 1.449 1.154 18.549-.578 27.241-1.742 8.692-3.768 13.615-3.768 22.023 0 8.409 4.052 39.775 4.052 45.276 0 5.5-2.026 12.46-.578 13.908 1.449 1.449 26.37-1.501 28.69-2.372 2.32-.871 2.32-3.475 1.448-4.64-.871-1.154-11.305-4.577-13.038-6.025-1.742-1.449-2.897-6.089-3.19-8.115-.295-2.026.577-33.108 1.742-40.058 1.154-6.959 5.794-20.574 8.408-28.111 2.603-7.538 7.243-34.19 7.243-43.753 0-9.564-.87-17.101-.87-17.101s-26.958 2.026-39.702-2.897z" fill="#fff" stroke="#263238" stroke-miterlimit="10" stroke-linecap="round" stroke-linejoin="round"/><path d="M44.8 297.487c2.32-.871 2.32-3.474 1.448-4.64-.871-1.154-11.306-4.576-13.038-6.025a3.95 3.95 0 01-.714-.819l-.734 4.588s-2.604 2.319-6.372 2.319c-2.898 0-7.16-1.889-8.976-2.75-.503 4.378-1.522 8.776-.294 9.71 5.88 4.472 26.36-1.511 28.68-2.383z" fill="#263238" stroke="#263238" stroke-miterlimit="10" stroke-linecap="round" stroke-linejoin="round"/><path d="M29.966 277.626c-.083-5.542.735-32.626 1.785-38.977 1.155-6.959 5.795-20.574 8.409-28.111 2.603-7.538 7.243-34.19 7.243-43.753 0-9.564-.872-17.101-.872-17.101s-26.946 2.026-39.7-2.897c0 0-1.743 11.589 0 17.384 1.742 5.794 6.371 13.909 7.536 16.229 1.166 2.32 2.604 9.563 2.604 11.011 0 1.449 1.154 18.549-.578 27.241-1.742 8.692-3.768 13.615-3.768 22.023 0 5.952 2.036 25.32 3.223 35.838 2.855.735 6.917 1.617 10.108 1.617 1.46 0 2.814-.21 4.01-.504z" fill="#C6B5DD" stroke="#263238" stroke-miterlimit="10" stroke-linecap="round" stroke-linejoin="round"/><path d="M15.827 280.156s2.603 1.155 6.088 1.155 8.692.871 8.408-.872c-.294-1.742.294-7.537.294-7.537s-6.372.872-10.14.294a263.583 263.583 0 00-6.088-.871s.566 6.099 1.438 7.831z" fill="#fff" stroke="#263238" stroke-miterlimit="10" stroke-linecap="round" stroke-linejoin="round"/><path d="M39.582 77.82S35.53 72.025 27.7 70c-7.82-2.027-15.358 9.562-17.384 15.934-2.025 6.372-2.32 23.472-5.217 32.164S.175 144.173 1.33 146.21c1.155 2.026 26.075 8.408 34.777 8.408 8.692 0 17.972-6.959 18.255-10.434.294-3.475-1.448-26.663-2.897-39.124-1.449-12.46-11.883-27.24-11.883-27.24z" fill="#263238" stroke="#263238" stroke-miterlimit="10" stroke-linecap="round" stroke-linejoin="round"/><path d="M35.72 174.164s-.095 4.021 0 6.383c.094 2.351-.39 4.807-.883 6.382-.493 1.575-1.669 2.645-1.763 1.575-.095-1.071.388-3.045.388-3.926 0-.882-.294-4.913-.294-4.913s-.294 2.057-.882 4.314c-.587 2.257-2.257 4.609-3.044 4.808-.787.199-1.28-.493-.882-1.575.389-1.081 1.376-4.219 1.47-4.912.095-.683.095-2.845.095-2.845s-1.869 5.396-2.646 6.582c-.787 1.175-.881 1.763-1.669 1.868-.787.095-.682-1.574-.2-2.845.494-1.28 1.281-5.395 1.281-5.794 0-.388-.881 1.763-1.963 2.95-1.08 1.175-1.868 2.162-2.351 1.963-.493-.2.2-2.058.588-2.95.388-.882.987-2.645.987-3.244v-2.551s-.882-1.963 3.243-2.645c4.105-.682 7.642-1.47 8.524 1.375z" fill="#fff" stroke="#263238" stroke-miterlimit="10" stroke-linecap="round" stroke-linejoin="round"/><path d="M21.338 171.424s-.924 2.604 1.238 4.052c2.163 1.449 9.878 2.604 12.345.294 2.467-2.32 2.467-4.64 2.467-4.64l-16.05.294z" fill="#fff" stroke="#263238" stroke-miterlimit="10" stroke-linecap="round" stroke-linejoin="round"/><path d="M23.647 81.294s-6.372 10.434-6.372 17.1c0 6.666-3.474 53.316-3.768 59.111-.294 5.794.294 10.434 3.768 13.332 3.475 2.897 17.678 2.897 21.446 1.448 3.769-1.448 7.244-8.114 7.244-12.754 0-4.64-4.346-38.83-5.218-45.496-.87-6.665-1.154-24.343-3.768-28.395-2.604-4.052-3.475-4.346-3.475-4.346" fill="#263238"/><path d="M23.647 81.294s-6.372 10.434-6.372 17.1c0 6.666-3.474 53.316-3.768 59.111-.294 5.794.294 10.434 3.768 13.332 3.475 2.897 17.678 2.897 21.446 1.448 3.769-1.448 7.244-8.114 7.244-12.754 0-4.64-4.346-38.83-5.218-45.496-.87-6.665-1.154-24.343-3.768-28.395-2.604-4.052-3.475-4.346-3.475-4.346" stroke="#263238" stroke-miterlimit="10" stroke-linecap="round" stroke-linejoin="round"/><path d="M14.126 147.018s1.785-40.383 3.15-48.624c1.364-8.23 4.755-15.01 4.755-15.01m13.174.377s5.007 9.626 5.27 19.955c.262 10.33 3.768 43.302 3.768 43.302m-4.944-53.264l.86-5.794" stroke="#636363" stroke-miterlimit="10" stroke-linecap="round" stroke-linejoin="round"/></svg>