<svg width="279" height="308" fill="none" xmlns="http://www.w3.org/2000/svg"><path d="M232.996 307.586c17.537 0 31.753-1.402 31.753-3.132 0-1.729-14.216-3.131-31.753-3.131s-31.754 1.402-31.754 3.131c0 1.73 14.217 3.132 31.754 3.132z" fill="#263238"/><path d="M232.538 65.892s5.585 0 6.849 4.047c1.263 4.047-2.271 9.403-6.849 10.612-4.578 1.209-8.625-2.967-8.359-6.995.265-4.029 5.814-7.774 8.359-7.664z" fill="#263238" stroke="#263238" stroke-linecap="round" stroke-linejoin="round"/><path d="M265.381 250.406s1.639-.623 1.895-3.122c.257-2.5-2.939-8.332-2.93-11.482.01-3.15-.219-8.68-.915-9.696-.696-1.017-4.798-.806-7.38 1.291-2.582 2.096 4.221 6.574 6.061 11.646 1.841 5.073.678 5.741 1.392 8.021a8.036 8.036 0 001.877 3.342z" fill="#fff" stroke="#263238" stroke-linecap="round" stroke-linejoin="round"/><path d="M187.82 190.534s1.684 17.653 2.6 19.796c.916 2.142 7.993 3.488 10.877 4.578 2.885 1.089 33.356 10.786 39.481 14.402 6.126 3.617 15.081 11.299 18.972 14.842 3.891 3.544 4.578 7.719 5.668 6.254 1.089-1.465-.376-7.133-1.484-10.237-1.108-3.103-2.362-4.651-2.609-6.885-.247-2.234-.861-5.439-3.15-6.144-2.289-.705-6.043 2.06-6.043 2.06s-2.637-.421-7.535-4.861c-4.899-4.441-14.211-10.576-17.873-13.313-3.663-2.738-14.787-4.817-18.184-5.494a25.182 25.182 0 01-5.796-1.831l2.115-10.026s-14.439-1.941-17.039-3.141z" fill="#fff" stroke="#263238" stroke-linecap="round" stroke-linejoin="round"/><path d="M261.288 233.284c-.238-2.225-.861-5.439-3.15-6.144-1.611-.494-3.928.714-5.173 1.484a34.586 34.586 0 015.979 7.581c2.426 4.266 2.445 6.903 2.042 9.247 2.792 3.168 3.433 6.236 4.395 4.954 1.089-1.465-.376-7.133-1.484-10.237-1.107-3.104-2.362-4.651-2.609-6.885z" fill="#C6B5DD" stroke="#263238" stroke-linecap="round" stroke-linejoin="round"/><path d="M211.653 289.209a5.994 5.994 0 005.604.723c2.957-1.272 6.665-6.72 7.92-8.176 1.254-1.456 7.224-4.459 7.956-7.059.733-2.601-3.479-6.025-3.479-6.025a24.724 24.724 0 01-5.082 6.565c-3.296 2.976-2.811 4.44-6.62 7.837-3.808 3.397-6.299 6.135-6.299 6.135z" fill="#fff" stroke="#263238" stroke-linecap="round" stroke-linejoin="round"/><path d="M213.356 197.932s-.174 11.784.778 17.525c.952 5.741 4.578 43.821 3.663 52.19-.916 8.368-3.764 16.801-5.622 19.951-1.859 3.15 2.692 1.3 5.411-.22 2.719-1.52 6.849-9.312 7.737-10.502.888-1.19 4.404-1.337 4.834-5.649.431-4.313-4.843-4.359-4.505-10.228.339-5.869 5.247-23.805 3.452-31.46-1.794-7.654-3.882-17.332-3.543-20.638.339-3.305 1.694-11.628 1.694-11.628l-13.899.659z" fill="#fff" stroke="#263238" stroke-linecap="round" stroke-linejoin="round"/><path d="M226.797 265.321a54.458 54.458 0 01-5.979 11.271c-2.509 3.361-4.404 3.324-5.411 2.903a40.664 40.664 0 01-3.214 8.121c-1.831 3.15 2.692 1.301 5.411-.219 2.72-1.52 6.849-9.312 7.737-10.502.889-1.191 4.404-1.337 4.835-5.65.293-2.875-1.941-3.864-3.379-5.924z" fill="#C6B5DD" stroke="#263238" stroke-linecap="round" stroke-linejoin="round"/><path d="M277.449 164.311c-.916-2.564-1.831-5.97-5.778-8.176-3.946-2.207-5.594-3.379-5.594-3.379s-10.365-21.554-12.901-25.747c-2.536-4.194-4.422-6.885-4.422-6.885s-6.977-19.036-7.811-22.259c-.833-3.223-.247-5.64-4.074-7.023-3.827-1.382-12.462-2.417-15.565-2.893a31.462 31.462 0 01-7.023-2.371s-6.995-1.035-9.394-1.777a185.542 185.542 0 01-17.214-7.535c-3.278-1.831-7.325-6.025-7.325-6.025s-9.037-19.905-11.188-24.721a280.254 280.254 0 00-4.029-8.644 31.565 31.565 0 01-1.126-3.809c-.074-2.371.201-4.944 0-6.409-.202-1.465-.467-2.106-.678-3.818-.21-1.712-1.831-.64-1.575 1.273l-.165 1.108-2.032-8.763s-1.291-.915-1.493.074l.971 6.482-.366.11-1.42-7.993s-.21-.834-1.373-.696c0 0-.623.183-.531 1.83l1.291 7.454-.742.092-1.181-8.104s-.503-.576-.915-.1a3.2 3.2 0 00-.266 2.179l.806 6.656-1.172-4.367s-1.108-1.145-.916.98a42.723 42.723 0 001.831 7.819 13.98 13.98 0 003.507 5.045c1.172.824 1.749 1.181 1.831 1.602 0 .1.403 1.41 1.026 3.388h.073c1.218 3.717 10.685 32.706 12.398 37.201 1.831 4.807 24.016 21.92 24.016 21.92s-4.203 10.475-2.655 16.408a35.379 35.379 0 005.329 10.987s-3.571 4.258-9.633 19.988c-6.061 15.73-4.752 48.39-4.752 48.39a53.71 53.71 0 0024.246 6.757c13.99.43 19.365-.513 19.365-.513s6.336-36.331 3.726-49.644a144.421 144.421 0 00-6.693-23.467l6.986-16.783s11.821 20.143 16.317 27.907c4.495 7.765 15.565 19.228 15.565 19.228s.192 2.994 1.529 4.45a14.124 14.124 0 003.214 2.472s-2.344 5.21-.916 5.494c1.429.284 2.509-5.192 2.509-5.192s-1.053 5.494.073 5.787c1.126.293 2.326-5.045 2.326-5.045s-1.172 4.999.137 5.127c1.31.129 1.877-5.42 1.877-5.42s.852 4.578 1.722 4.139c.869-.44 1.117-2.189.247-4.789z" fill="#fff" stroke="#263238" stroke-linecap="round" stroke-linejoin="round"/><path d="M161.615 25.166a2.239 2.239 0 01-1.2 2.435c-1.565.833-.604 2.747.715 4.367" stroke="#263238" stroke-linecap="round" stroke-linejoin="round"/><path d="M268.329 159.074a12.078 12.078 0 002.106 2.335 9.359 9.359 0 002.902.723s.788 4.761 2.354 4.065c1.565-.696-.541-5.155-1.273-6.299a3.857 3.857 0 00-1.346-1.41" fill="#fff"/><path d="M268.329 159.074a12.078 12.078 0 002.106 2.335 9.359 9.359 0 002.902.723s.788 4.761 2.354 4.065c1.565-.696-.541-5.155-1.273-6.299a3.857 3.857 0 00-1.346-1.41" stroke="#263238" stroke-linecap="round" stroke-linejoin="round"/><path d="M209.382 200.487c13.991.43 19.365-.513 19.365-.513s6.336-36.331 3.727-49.644a94.567 94.567 0 00-.522-2.518 84.162 84.162 0 01-42.173-2.152c-5.924 15.84-4.642 48.07-4.642 48.07a53.703 53.703 0 0024.245 6.757z" fill="#263238" stroke="#263238" stroke-linecap="round" stroke-linejoin="round"/><path d="M201.462 158.46s5.64 9.889 11.995 14.824m-1.786 4.258c.696.494 1.401.961 2.143 1.391m-11.647-11.298a45.353 45.353 0 007.142 8.02" stroke="#fff" stroke-linecap="round" stroke-linejoin="round"/><path d="M254.888 130.15a73.007 73.007 0 00-1.712-3.141c-2.545-4.221-4.422-6.885-4.422-6.885s-6.977-19.036-7.811-22.259c-.833-3.223-.247-5.64-4.074-7.022-3.827-1.383-12.462-2.418-15.565-2.894a31.462 31.462 0 01-7.023-2.371s-6.995-1.035-9.394-1.777a185.542 185.542 0 01-17.214-7.535c-3.278-1.831-7.325-6.025-7.325-6.025l-5.164-11.39a51 51 0 00-7.325 2.637c2.225 6.702 4.258 12.736 4.963 14.595 1.831 4.807 24.016 21.92 24.016 21.92s-4.202 10.474-2.655 16.407a35.373 35.373 0 005.329 10.988s-3.571 4.257-9.632 19.987a44.736 44.736 0 00-1.456 4.633c9.01 3.956 24.721 8.241 44.444 3.306a30.372 30.372 0 00-.403-2.949 144.45 144.45 0 00-6.693-23.467l6.986-16.783s9.54 16.289 14.741 25.198a69.254 69.254 0 007.389-5.173z" fill="#C6B5DD" stroke="#263238" stroke-linecap="round" stroke-linejoin="round"/><path d="M192.288 84.726l4.559 13.276-9.147-17.515m45.067 29.593l-3.782-2.07m8.461-14.824s-3.873.705-6.345 6.712m-22.936 20.463s4.578 5.998 11.646 5.998" stroke="#263238" stroke-linecap="round" stroke-linejoin="round"/><path d="M230.24 89.304c-3.489-.614-7.133-1.08-8.927-1.355a31.467 31.467 0 01-7.023-2.371s-6.995-1.035-9.394-1.777c-.247-.082-.623-.21-1.062-.375-.229 4.083-.403 13.487 2.179 20.299 3.378 8.927 7.096 10.777 7.096 10.777s11.308-13.204 14.65-19.796c1.181-2.417 1.968-4.157 2.481-5.402z" fill="#263238" stroke="#263238" stroke-linecap="round" stroke-linejoin="round"/><path d="M217.357 47.479s-6.134.595-9.467 5.494c-3.333 4.898-4.404 9.467-5.54 14.65-1.135 5.182.183 10.144 1.987 10.328l6.217.631s0 13.56.366 18.258c.367 4.697 1.832 8.075 3.196 6.409 1.364-1.667 5.86-13.734 5.86-13.734l.732-11.262s3.296-2.5 8.168-6.666c4.871-4.166 6.271-11.903 2.701-18.55-3.571-6.648-14.22-5.558-14.22-5.558z" fill="#fff" stroke="#263238" stroke-linecap="round" stroke-linejoin="round"/><path d="M220.983 70.003s1.117.458 1.199-.348c.083-.805 2.537-2.17 3.498-.22m-3.497.22s2.847.522 1.181 2.097" stroke="#263238" stroke-linecap="round" stroke-linejoin="round"/><path d="M207.862 59.52c-.293.915-.915 1.528-1.327 1.382-.412-.147-.559-.989-.266-1.905.293-.915.916-1.529 1.337-1.382.421.146.549.998.256 1.904zm5.833 3.012c-.302.915-.916 1.529-1.337 1.382-.421-.146-.549-.998-.256-1.904.293-.907.915-1.53 1.327-1.383.412.147.559.99.266 1.905z" fill="#263238"/><path d="M205.921 65.8s0 .962 1.566 1.117m-1.987 3.031s4.441 1.172 6.684-.916m1.538-11.555a4.334 4.334 0 014.633 3.947m-11.125-6.162s1.42-2.134 2.747 1.236" stroke="#263238" stroke-linecap="round" stroke-linejoin="round"/><path d="M208.073 70.57s1.968 3.077 2.884 2.335c.916-.741.192-3.094.192-3.094a19.896 19.896 0 01-3.076.76zm23.128 1.017c4.881-4.166 5.494-11.49 1.832-18.083-4.752-8.57-15.685-6.025-15.685-6.025a14.506 14.506 0 00-3.369.87c2.289.33 7.37 1.584 9.504 6.41 2.802 6.353-1.319 13.019-1.319 13.019s5.311-2.49 5.128 1.337a5.494 5.494 0 01-5.384 5.118 12.659 12.659 0 01-3.141-.916 6.228 6.228 0 002.033 4.78c.559-.403 5.988-2.747 10.401-6.51z" fill="#263238" stroke="#263238" stroke-linecap="round" stroke-linejoin="round"/><path d="M212.752 48.926s2.747 1.474 5.145 8.24c2.399 6.767 7.179 6.07 9.935 5.494 2.756-.577 4.788-.732 4.788-.732a14.318 14.318 0 01-4.23-7.325c-1.108-4.752-8.469-15.795-15.638-5.677z" fill="#263238" stroke="#263238" stroke-linecap="round" stroke-linejoin="round"/><path d="M92.45 50.63s1.831-2.748-1.41-4.368a17.772 17.772 0 00-21.114 4.889c-7.774 8.973-1.502 17.635 2.545 21.975s9.907 6.299 9.907 7.077a45.297 45.297 0 01-1.529 4.578l13.67.605s1.666-5.1 3.159-6.803c1.492-1.703 4.193.915 6.217-3.397 2.023-4.313-.458-10.017-.458-10.017s1.291-4.89-.54-5.072c-1.831-.184-3.186-2.436-4.487-5.21-1.3-2.775-5.96-4.258-5.96-4.258z" fill="#fff" stroke="#263238" stroke-linecap="round" stroke-linejoin="round"/><path d="M98.484 56.287s-1.831-2.866-2.079 1.053m7.664 10.502s-.403 1.227-2.509-.256" stroke="#263238" stroke-linecap="round" stroke-linejoin="round"/><path d="M100.013 59.721c.448.86.595 1.666.32 1.831-.275.165-.86-.44-1.31-1.29-.448-.852-.594-1.667-.32-1.832.275-.165.86.44 1.31 1.291z" fill="#263238"/><path d="M89.337 71.505a1.97 1.97 0 01-1.584-2.381c.403-1.4 3.607-.815 3.607-.815s-1.4.916.092 1.712c1.492.797 2.316-.915 2.316-.915" stroke="#263238" stroke-linecap="round" stroke-linejoin="round"/><path d="M91.058 46.243a17.771 17.771 0 00-21.114 4.89c-7.774 8.972-1.502 17.634 2.546 21.974 3.204 3.461 7.553 5.384 9.156 6.41a14.055 14.055 0 004.504-.816 13.433 13.433 0 005.677-3.91s-5.338.514-5.906-4.293c-.567-4.807 4.405-4.304 6.492-4.093 2.088.21.76-2.298-.229-2.93-.989-.632.055-3.159.614-6.007.558-2.847-2.747-1.336-3.214-2.179-.467-.842 2.866-4.66 2.866-4.66s1.877-2.747-1.392-4.386z" fill="#263238" stroke="#263238" stroke-linecap="round" stroke-linejoin="round"/><path d="M98.236 84.726a51.026 51.026 0 00-12.168-2.289c-6.822-.43-10.31 2.646-10.31 2.646s5 .248 13.12.806c8.122.559 9.358-1.163 9.358-1.163z" fill="#C6B5DD" stroke="#263238" stroke-linecap="round" stroke-linejoin="round"/><path d="M130.265 60.527s13.102-19.787 13.139-22.717c.036-2.93-1.063-7.764-.916-9.595.146-1.831.531-2.582.742-4.68.21-2.096 2.197-.832 1.959 1.52l.229 1.347 2.271-10.768s1.556-1.154 1.831.055l-1.218 7.233.65.101 1.566-9.019s.229-1.025 1.657-.915c0 0 .769.201.696 2.16l-1.227 8.48.65.292 1.419-9.339s.595-.723 1.062-.156c.442.81.579 1.753.385 2.656-.101 1.043-.824 8.167-.824 8.167l1.328-5.366s1.327-1.437 1.19 1.172a53.567 53.567 0 01-2.024 9.614c-.576 1.767-2.746 5.22-4.166 6.254-1.419 1.034-2.115 1.483-2.17 2.005-.055.522-7.325 25.958-11.6 31.671 0 0-1.529-5.494-4.99-6.263-3.461-.769-2.903.23-2.903.23l1.264-4.14z" fill="#fff" stroke="#263238" stroke-linecap="round" stroke-linejoin="round"/><path d="M125.293 67.943s-.229-2.93 1.758-4.312c1.987-1.383 1.675-3.525 3.561-3.864 1.887-.339 7.078 3.095 7.563 6.052.486 2.957-.293 2.875-.531 5.228-.238 2.353-3.452 5.494-6.198 3.855-2.747-1.639-6.153-6.959-6.153-6.959z" fill="#C6B5DD" stroke="#263238" stroke-linecap="round" stroke-linejoin="round"/><path d="M37.934 117.972s-4.77 17.58-6.409 27.542c-1.639 9.962-2.93 13.212-4.001 15.876-1.072 2.665-2.29 4.936-1.978 7.746.311 2.811 3.79 1.777 5.384 1.74 1.593-.037 4.056-.787 4.276-2.948.22-2.161.65-2.509.256-4.532-.394-2.024-1.831-3.764-1.676-4.945.156-1.181 8.992-22.112 10.75-27.697a599.264 599.264 0 012.911-9.037s-7.727-1.776-9.513-3.745z" fill="#fff" stroke="#263238" stroke-linecap="round" stroke-linejoin="round"/><path d="M62.995 144.937c-3.873 12.717-3.241 6.409-3.873 12.717-.632 6.309-3.104 20.73-3.104 20.73l-9.632 38.135s-11.977 9.303-18.038 18.248c-6.061 8.946-22.057 28.192-22.057 28.192s3.525.604 4.825 1.831c1.3 1.227 4.313 4.322 4.313 4.322a26.023 26.023 0 005.402-5.229c5.997-7.727 15.052-14.311 22.057-21.15 7.004-6.84 15.501-13.808 21.141-21.975 2.857-4.669 17.324-41.523 17.324-41.523l2.985-.091s14.924 23.156 17.002 26.15c2.079 2.994 8.644 14.576 8.644 14.576s-11.235 8.982-14.183 16.481c-2.948 7.499-17.607 34.546-18.532 35.837a9.49 9.49 0 00-1.3 3.049s5.402 1.538 8.13 2.014a11.93 11.93 0 014.405 1.639s.769-1.712 1.575-3.809a26.364 26.364 0 001.758-5.585c.146-1.373 14.951-16.151 23.128-30.215 8.176-14.064 12.113-17.635 12.617-20.565.503-2.93-6.84-24.52-10.301-35.397-3.461-10.878-12.718-23.33-13.011-24.355-.293-1.026-1.199-11.638-1.199-11.638s-5.997.385-18.504.302a90.945 90.945 0 01-21.572-2.691z" fill="#263238" stroke="#263238" stroke-linecap="round" stroke-linejoin="round"/><path d="M71.848 175.363l9.504 3.809" stroke="#fff" stroke-linecap="round" stroke-linejoin="round"/><path d="M107.951 106.984s-.787 7.801 9.367 14.339c10.154 6.537 13.386 18.046 13.386 18.046l-2.701 6.703-6.052-3.553s.915-12.562-5.494-17.799c-6.409-5.238-9.449-8.122-11.381-14.366-1.932-6.245-5.96-15.282-5.96-15.282s7.453 5.714 8.835 11.912z" fill="#263238" stroke="#263238" stroke-linecap="round" stroke-linejoin="round"/><path d="M80.803 84.8a119.306 119.306 0 01-12.772-1.557c-5.174-1.053-9.679 1.657-10.356 5.805-.678 4.148-18.056 24.31-18.184 25.637-.128 1.328 6.318 5.393 9.293 4.642 2.976-.75 14.76-12.754 14.76-12.754s.348 27.761-.595 31.881c-.943 4.121-2.546 6.877-.385 8.937 2.161 2.06 18.633 3.745 27.13 3.287 8.497-.458 13.432-2.326 13.734-5.201.302-2.875.751-9.962 1.144-13.88.394-3.919 4.579-29.108 4.579-29.108s12.049-14.65 17.625-20.143c5.576-5.494 7.673-7.939 7.993-11.07.321-3.131-3.809-6.72-6.555-5.686-2.747 1.035-10.264 10.072-14.476 12.526-4.212 2.454-10.347 3.168-12.938 5.283-2.591 2.115-5.549 2.6-10.511 2.097-4.963-.504-9.486-.696-9.486-.696z" fill="#C6B5DD" stroke="#263238" stroke-linecap="round" stroke-linejoin="round"/><path d="M60.12 93.608l3.433 12.937-7.197-10.035m52.749 5.951l-6.098 8.534m-5.667 12.251l-.999 1.666m8.698-14.558l-5.814 9.733m-20.583-3.324c3.388 8.03 8.699 19.429 13.36 24.081M75.19 108.102s.578 1.574 1.566 4.065m1.044 11.875s6.666 11.903 10.136 16.481" stroke="#263238" stroke-linecap="round" stroke-linejoin="round"/><path d="M40.379 113.449a19.436 19.436 0 004.834 3.278c2.472 1.044 6.62-.724 6.41 1.245a6.318 6.318 0 01-5.33 5.613c-3.854.796-8.24-2.628-9.467-4.578-1.227-1.951-.338-8.332 3.553-5.558z" fill="#C6B5DD" stroke="#263238" stroke-linecap="round" stroke-linejoin="round"/><path d="M32.02 164.229s-5.229 2.646-3.132 3.451c2.097.806 5.494.367 6.061-.97" fill="#fff"/><path d="M32.02 164.229s-5.229 2.646-3.132 3.451c2.097.806 5.494.367 6.061-.97m-6.042.971l-2.024.393" stroke="#263238" stroke-linecap="round" stroke-linejoin="round"/><path d="M88.504 278.781s5.045 8.057 8.698 10.987c3.653 2.93 4.212 2.747 4.093 4.001-.119 1.255-3.26 2.006-8.598 1.465-5.338-.54-9.797-4.404-14.741-7.068-4.945-2.665-6.29-3.516-5.302-6.107a74.18 74.18 0 013.315-6.895s7.06-.21 12.535 3.617z" fill="#fff" stroke="#263238" stroke-linecap="round" stroke-linejoin="round"/><path d="M72.654 282.022s3.8 1.364 11.4 6.757c7.6 5.393 12.919 6.116 17.241 4.954" fill="#fff"/><path d="M72.654 282.022s3.8 1.364 11.4 6.757c7.6 5.393 12.919 6.116 17.241 4.954" stroke="#263238" stroke-linecap="round" stroke-linejoin="round"/><path d="M15.429 269.075s.064 6.574 1.07 10.209c1.008 3.635 3.526 7.151 2.372 7.93-1.153.778-2.334 1.007-4.578-.202-2.243-1.208-5.072-3.662-7.993-7.123a23.456 23.456 0 01-5.054-8.332c-1.392-3.562-.632-5.576 1.703-6.584a11.733 11.733 0 003.36-2.014s6.785-.357 9.12 6.116z" fill="#fff" stroke="#263238" stroke-linecap="round" stroke-linejoin="round"/><path d="M1.475 266.712a29.366 29.366 0 017.325 9.367c3.36 6.409 6.894 9.962 10.071 11.161" fill="#fff"/><path d="M1.475 266.712a29.366 29.366 0 017.325 9.367c3.36 6.409 6.894 9.962 10.071 11.161" stroke="#263238" stroke-linecap="round" stroke-linejoin="round"/><path d="M69.148 307.586c17.537 0 31.753-1.402 31.753-3.132 0-1.729-14.216-3.131-31.753-3.131s-31.754 1.402-31.754 3.131c0 1.73 14.217 3.132 31.754 3.132z" fill="#263238"/><path d="M152.779.71v8.305m7.966 1.327l4.322-5.32m-24.914 2.665l3.983 3.314m-8.634 7.645h6.977m21.26-.329h5.32" stroke="#263238" stroke-linecap="round" stroke-linejoin="round"/></svg>