<svg width="399" height="482" fill="none" xmlns="http://www.w3.org/2000/svg"><path d="M395.86 27.336H4.464V259.3H395.86V27.336z" fill="#263238"/><path d="M393.649 33.93H6.675v218.775H393.65V33.931z" fill="#fff" stroke="#263238" stroke-miterlimit="10" stroke-linecap="round" stroke-linejoin="round"/><path d="M398.059 23.368H0v12.44h398.059v-12.44z" fill="#263238"/><path d="M204.552 23.194c6.182 0 11.193-5.011 11.193-11.193 0-6.181-5.011-11.192-11.193-11.192-6.182 0-11.193 5.01-11.193 11.192s5.011 11.193 11.193 11.193z" fill="#fff" stroke="#263238" stroke-miterlimit="10" stroke-linecap="round" stroke-linejoin="round"/><path d="M210.45 12.001a5.884 5.884 0 01-5.885 5.885A5.892 5.892 0 01198.681 12a5.892 5.892 0 015.884-5.884A5.893 5.893 0 01210.45 12z" fill="#C6B5DD" stroke="#263238" stroke-miterlimit="10"/><path d="M76.941 176.005H29.114v-48.497h81.339v48.497h-24.41m72.17 23.216H93.295v38.713h64.918v-38.713zm71.646-71.713h8.191v48.497h-81.339v-48.497h65.347m-58.577-70.897h95.466v48.511h-123.12v-48.51h18.552m210.53 70.896h-81.338v48.497h81.338v-48.497zm-235.798-47.01s-43.148 6.005-68.523 42.559m40.91 58.176l5.711 16.675m53.242-18.177l-5.228 15.67m-54.288-2.989l6.274 5.496 1.568-7.453m43.886 0l2.359 6.273 6.649-3.914" stroke="#263238" stroke-miterlimit="10"/><path d="M61.754 115.618l-1.166 7.439 8.217-5.094m171.631 32.52h40.749m-8.619-5.094l9.021 5.094-8.23 5.093m-161.551-5.093h40.75m-8.619-5.094l9.021 5.094-8.23 5.093m52.358-46.58v12.399m5.093-8.632l-5.093 9.021-5.094-8.23m88.804 51.58h-39.194m8.284-5.094l-8.66 5.094 7.909 5.093m-87.853-98.496h73.671m-73.671 7.051h73.671m-73.671 7.051h73.671M36.674 145.389h66.232m-66.232 7.064h66.232m-66.232 7.051h66.232m62.304-14.115h66.218m-66.218 7.064h66.218m-66.218 7.051h66.218m57.599-14.115h66.218m-66.218 7.064h66.218m-66.218 7.051h66.218m-253.519 52.894h50.548m-50.548 7.051h50.548m-50.548 7.064h50.548" stroke="#263238" stroke-miterlimit="10"/><path d="M325.876 77.884a.657.657 0 01-.563-.322.671.671 0 01.214-.911l.509-.322-.174.108a.669.669 0 01-.898-.228.67.67 0 01.215-.912l2.64-1.702-2.346 1.354a.669.669 0 01-.898-.228.682.682 0 01.201-.912l4.799-3.136-4.53 2.614a.67.67 0 01-.698-1.14l7.48-5.013-7.292 4.209a.68.68 0 01-.898-.215.66.66 0 01.174-.898l11.233-8.002-11.206 6.474a.68.68 0 01-.898-.214.66.66 0 01.188-.898l8.056-5.577-7.909 4.571a.669.669 0 01-.898-.228c-.188-.308-.107-.71.188-.898l4.544-3.07-4.303 2.48a.669.669 0 01-.898-.227.649.649 0 01.201-.899l2.949-1.97-2.654 1.542a.662.662 0 01-.885-.215.669.669 0 01.161-.898l7.842-5.804-7.762 4.477a.673.673 0 01-.884-.201.657.657 0 01.147-.898l6.944-5.349-6.863 3.968a.661.661 0 01-.885-.214.669.669 0 01.161-.898l3.391-2.494-3.15 1.81a.662.662 0 01-.885-.215.656.656 0 01.148-.898l2.775-2.118-2.507 1.448a.674.674 0 01-.885-.2.656.656 0 01.148-.899l1.394-1.086-1.073.617a.656.656 0 01-.831-.134.668.668 0 01-.027-.845l2.105-2.72-1.93 1.112a.672.672 0 01-.738-.04.69.69 0 01-.254-.697l.201-.818a.642.642 0 01-.563-.335.66.66 0 01.241-.912l.965-.563a.672.672 0 01.738.04.69.69 0 01.254.697l-.174.684 3.539-2.037a.653.653 0 01.831.134c.214.24.214.59.027.844l-2.105 2.721 6.34-3.66a.671.671 0 01.885.202.657.657 0 01-.147.898l-1.394 1.1 3.351-1.944a.66.66 0 01.884.214.657.657 0 01-.147.898l-2.775 2.118 4.571-2.64a.662.662 0 01.885.214.67.67 0 01-.161.898l-3.391 2.493 5.107-2.949a.673.673 0 01.884.201.67.67 0 01-.147.898l-6.944 5.349 9.156-5.295a.66.66 0 01.884.214.67.67 0 01-.16.898l-7.842 5.805 9.678-5.59a.669.669 0 01.697 1.14l-2.949 1.983 3.82-2.198a.656.656 0 01.898.228c.188.308.108.71-.187.898l-4.544 3.056 5.375-3.11a.678.678 0 01.898.215.66.66 0 01-.188.898l-8.069 5.576 9.142-5.281a.68.68 0 01.898.214.66.66 0 01-.175.898l-11.232 8.003 12.506-7.212a.669.669 0 01.697 1.14l-7.48 5.013 8.123-4.692a.668.668 0 01.898.228.68.68 0 01-.201.912l-4.798 3.136 5.133-2.962a.67.67 0 01.899.228.672.672 0 01-.215.911l-2.641 1.703 2.789-1.609a.666.666 0 01.898.228.672.672 0 01-.215.911l-.509.322.576-.335a.68.68 0 01.898.214.672.672 0 01-.174.899l-7.761 5.455 8.069-4.665a.668.668 0 01.697 1.14l-.174.107.027-.013a.68.68 0 01.898.214.66.66 0 01-.174.898l-1.502 1.073 1.408-.818a.674.674 0 01.844.147.669.669 0 01-.013.858l-2.547 2.936 2.467-1.421a.668.668 0 01.951.831l-.268.63a.686.686 0 01.657.322.662.662 0 01-.241.911l-1.421.818a.67.67 0 01-.952-.831l.228-.55-4.209 2.427a.674.674 0 01-.844-.148.666.666 0 01.013-.858l2.547-2.935-9.826 5.67a.68.68 0 01-.898-.215.661.661 0 01.174-.898l1.502-1.072-5.55 3.203a.669.669 0 01-.697-1.139l.161-.107-3.713 2.145a.68.68 0 01-.898-.215.673.673 0 01.174-.898l7.761-5.456-13.82 7.976c-.067.08-.174.107-.294.107z" fill="#C6B5DD"/><path d="M305.219 96.65c-6.005-5.227-9.745-12.68-9.745-20.95 0-15.818 13.713-28.633 30.629-28.633 16.917 0 30.63 12.815 30.63 28.632 0 15.818-13.713 28.632-30.63 28.632-4.611 0-8.967-.951-12.895-2.654m-44.73-32.09h19.342m-19.342 6.662h19.342m-19.342 6.675h19.342M34.664 183.323h34.02m-34.02 6.676h34.02M27.6 96.597h34.02M34.664 196.661h34.02m-34.02 14.008h34.02m-34.02 6.675h34.02m-34.02 6.676h34.02" stroke="#263238" stroke-miterlimit="10"/><path d="M317.94 47.858l8.271 29.932 30.254-6.903M27.961 55.526v33.323h53.511" stroke="#263238" stroke-miterlimit="10"/><path d="M44.623 60.07H33.511v28.78h11.112V60.07zm28.27 6.554H61.781v22.212h11.112V66.624zM58.765 50.981H47.653V88.85h11.112V50.98z" fill="#C6B5DD" stroke="#263238" stroke-miterlimit="10"/><path d="M218.187 222.84l6.233-9.088s-1.219-14.611.161-16.89c1.394-2.279 23.994-4.919 25.268-3.23 1.273 1.689-3.405 3.217-3.405 3.217s3.217 1.421 2.882 3.043c-.496 2.386-4.598 2.694-4.598 2.694s3.257 2.185 2.855 3.619c-.321 1.126-3.592 2.011-3.592 2.011s3.311 1.501.603 3.404c-2.708 1.904-5 3.901-5 3.901s1.863 4.035-3.203 7.52c-5.067 3.499-13.874 9.852-13.874 9.852l-4.33-10.053z" fill="#fff" stroke="#263238" stroke-miterlimit="10" stroke-linecap="round" stroke-linejoin="round"/><path d="M249.058 187.546l5.013-.429-.04 1.555-3.995 2.252c-.013.013-.884-3.78-.978-3.378z" fill="#263238" stroke="#263238" stroke-miterlimit="10" stroke-linecap="round" stroke-linejoin="round"/><path d="M229.407 197.666c.214 0 .442-.026.657-.093l19.838-6.26a2 2 0 001.3-2.494c-.335-1.045-1.447-1.635-2.493-1.3l-19.852 6.26a2 2 0 00-1.3 2.493 2.019 2.019 0 001.85 1.394z" fill="#fff" stroke="#263238" stroke-miterlimit="10" stroke-linecap="round" stroke-linejoin="round"/><path d="M219.139 201.567c.295.013.59-.027.871-.121l10.241-3.23a2.651 2.651 0 00-1.595-5.054l-10.241 3.231a2.65 2.65 0 00-1.729 3.324 2.695 2.695 0 002.453 1.85z" fill="#263238" stroke="#263238" stroke-miterlimit="10" stroke-linecap="round" stroke-linejoin="round"/><path d="M227.329 204.556s1.81-5.241 3.217-7.855c1.408-2.614 4.115-4.852 5.188-7.466 1.072-2.614 3.927 1.434 2.882 3.391-1.046 1.957-3.459 4.866-3.499 6.193-.04 1.327-.402 2.306 1.126 6.662s2.373 9.343-1.045 12.882" fill="#fff"/><path d="M227.329 204.556s1.81-5.241 3.217-7.855c1.408-2.614 4.115-4.852 5.188-7.466 1.072-2.614 3.927 1.434 2.882 3.391-1.046 1.957-3.459 4.866-3.499 6.193-.04 1.327-.402 2.306 1.126 6.662s2.373 9.343-1.045 12.882m11.246-21.514l-11.327 1.983m9.598 3.754c-1.314-.376-8.472 2.908-8.472 2.908m7.748 2.708l-5.885 1.971" stroke="#263238" stroke-miterlimit="10" stroke-linecap="round" stroke-linejoin="round"/><path d="M138.873 205.374s3.378-1.997 4.866 3.351c1.488 5.348 5.858 14.745 7.788 16.796 1.93 2.037 20.911 20.817 20.911 20.817s8.136-6.381 10.053-4.008c1.917 2.373 3.231 2.748 3.231 2.748l32.546-25.536 12.05 18.244s-44.248 40.428-47.934 41.648c-3.673 1.219-6.313.804-7.627.107-1.3-.697-25.603-18.968-25.603-18.968s-14.825-47.8-16.098-49.502c-1.26-1.703 5.817-5.697 5.817-5.697z" fill="#C6B5DD" stroke="#263238" stroke-miterlimit="10" stroke-linecap="round" stroke-linejoin="round"/><path d="M182.585 246.445s-6.595 7.614-6.595 17.238l6.595-17.238z" fill="#C6B5DD"/><path d="M182.585 246.445s-6.595 7.614-6.595 17.238" stroke="#263238" stroke-miterlimit="10" stroke-linecap="round" stroke-linejoin="round"/><path d="M171.928 249.488s-2.024 5.067 1.019 16.233l-1.019-16.233z" fill="#C6B5DD"/><path d="M171.928 249.488s-2.024 5.067 1.019 16.233" stroke="#263238" stroke-miterlimit="10" stroke-linecap="round" stroke-linejoin="round"/><path d="M124.37 146.381s14.369-9.41 12.667-18.297c-1.703-8.901-33.927-16.072-52.452-10.067-18.525 6.005-22.292 33.739-19.852 50.843 2.44 17.104 3.914 56.138 3.914 56.138l62.84 1.85s-5.857-45.71-7.064-60.16c-1.206-14.45-.053-20.307-.053-20.307zm32.17 251.669c-1.273 13.659-3.887 73.845-5.321 82.759H85.832c.134-10.268.308-79.623-1.18-85.293-1.863-7.091-4.464-30.736-1.582-44.302 2.882-13.565 6.38-20.079 6.38-20.079l67.827-.067-.201 5.562s1.274 42.037-.536 61.42z" fill="#263238" stroke="#263238" stroke-miterlimit="10" stroke-linecap="round" stroke-linejoin="round"/><path d="M142.037 357.086c-2.722 1.823-5.376 3.15-5.376 5.804-1.327 23.833-6.621 90.775-8.485 114.889" stroke="#4C4C4C" stroke-miterlimit="10" stroke-linecap="round" stroke-linejoin="round"/><path d="M122.56 204.449l-33.163 1.233s26.608 40.978 26.394 63.497c-.228 22.519-4.692 69.194-4.692 69.194s14.584 11.541 29.664 9.329c1.635-.241 2.507-13.753 2.507-13.753s.978 13.11 2.077 12.922c8.432-1.514 11.729-10.227 11.729-10.227l-1.756-45.093s-.013-29.584-3.297-38.082c-3.284-8.485-25.576-46.245-25.576-46.245l-3.887-2.775z" fill="#fff" stroke="#263238" stroke-miterlimit="10" stroke-linecap="round" stroke-linejoin="round"/><path d="M123.847 230.561s10.254 21.313 13.994 33.806c3.753 12.506 5.415 69.582 5.415 69.582" stroke="#263238" stroke-miterlimit="10" stroke-linecap="round" stroke-linejoin="round"/><path d="M93.378 205.36s23.271 34.691 27.761 47.198c4.491 12.493 7.493 60.279 6.903 80.587-.603 20.295-6.997 42.626-6.997 42.626s-26.661 5.402-56.42-3.874c0 0 8.124-35.977 12.011-47.786 3.888-11.81 5.563-23.686 5.563-23.686s-26.635-85.132-26.594-86.459c.04-1.327.522-2.641 3.19-3.445 2.667-.804 34.583-5.161 34.583-5.161z" fill="#C6B5DD" stroke="#263238" stroke-miterlimit="10" stroke-linecap="round" stroke-linejoin="round"/><path d="M114.705 338.065l-34.517-2.762-.455 5.523 14.718 1.836" fill="#C6B5DD"/><path d="M114.705 338.065l-34.517-2.762-.455 5.523 14.718 1.836" stroke="#263238" stroke-miterlimit="10" stroke-linecap="round" stroke-linejoin="round"/><path d="M122.868 208.872s27.707 48.953 28.324 57.8c.616 8.847 4.718 49.597 6.984 62.478 2.265 12.869 12.131 37.895 12.131 37.895s2.533-10.965 1.796-15.844c-.737-4.879-11.407-32.573-12.547-38.793-1.139-6.219-2.694-28.35-2.413-38.055.282-9.705.939-16.756-1.059-23.873-1.997-7.131-17.211-45.12-17.211-45.12l-22.05-1.085 6.045 4.597z" fill="#C6B5DD" stroke="#263238" stroke-miterlimit="10" stroke-linecap="round" stroke-linejoin="round"/><path d="M128.873 204.824l4.612 21.099-11.85-9.182 7.238-11.917z" fill="#fff" stroke="#263238" stroke-miterlimit="10" stroke-linecap="round" stroke-linejoin="round"/><path d="M114.759 194.583l14.114 10.241-5.321 13.927.295 11.81-16.005-23.74 6.917-12.238z" fill="#fff" stroke="#263238" stroke-miterlimit="10" stroke-linecap="round" stroke-linejoin="round"/><path d="M115.576 189.034s2.694 19.731 3.526 24.999c.831 5.268 4.758 16.514 4.758 16.514s-25.16-24.329-26.42-26.326c-1.247-1.997-5.59-21.461-5.59-21.461s16.193 6.059 23.726 6.274z" fill="#fff" stroke="#263238" stroke-miterlimit="10" stroke-linecap="round" stroke-linejoin="round"/><path d="M116.34 194.57c-3.431 2.145-6.085 2.145-10.067 1.528-3.994-.617-9.41-4.343-13.029-7.265a607.446 607.446 0 01-1.394-6.059s16.206 6.045 23.726 6.273c0-.013.308 2.292.764 5.523z" fill="#263238" stroke="#263238" stroke-miterlimit="10" stroke-linecap="round" stroke-linejoin="round"/><path d="M107.52 129.183l18.565 14.637s1.877 14.142 2.574 23.994c.697 9.853-3.445 16.93-8.834 21.689-5.375 4.758-8.337 5-13.551 4.182-5.215-.804-12.896-6.93-15.764-9.638-2.869-2.708-8.204-10.723-8.204-10.723s-4.29.857-5.536-1.14c-1.246-1.997-1.555-2.989-1.555-2.989s17.654-9.959 24.906-22.519c7.252-12.587 7.399-17.493 7.399-17.493z" fill="#fff" stroke="#263238" stroke-miterlimit="10" stroke-linecap="round" stroke-linejoin="round"/><path d="M113.297 155.228s.537 3.94 1.797 5.951c1.246 1.997 6.125 3.123 3.445 5.349-2.681 2.211-6.944 2.091-6.944 2.091m7.091 3.807s-9.959 4.289-16.34-1.462" stroke="#263238" stroke-miterlimit="10" stroke-linecap="round" stroke-linejoin="round"/><path d="M115.362 173.967s-1.475 5.523-4.719 4.45c-3.244-1.072-6.058-5.415-6.058-5.415s4.235.764 10.777.965z" stroke="#263238" stroke-miterlimit="10" stroke-linecap="round" stroke-linejoin="round"/><path d="M100.778 157.801c-.041 1.448.576 2.641 1.394 2.668.817.026 1.501-1.126 1.555-2.574.04-1.448-.577-2.641-1.394-2.667-.818-.027-1.515 1.139-1.555 2.573zm15.616-1.823c-.04 1.448.576 2.641 1.394 2.668.818.026 1.501-1.126 1.555-2.574.04-1.448-.577-2.641-1.394-2.667-.818-.027-1.515 1.125-1.555 2.573z" fill="#263238"/><path d="M121.648 149.906s-3.498-3.713-7.533.107m-7.56.751s-7.453-2.842-10.59 3.619" stroke="#263238" stroke-miterlimit="10" stroke-linecap="round" stroke-linejoin="round"/><path d="M110.684 210.521l13.163 20.04-19.343-10.402 6.18-9.638z" fill="#fff" stroke="#263238" stroke-miterlimit="10" stroke-linecap="round" stroke-linejoin="round"/><path d="M88.593 193.149l22.091 17.372-6.435 18.15-21.219-24.544 5.563-10.978zm26.849 102.959s3.552-.777 8.499-3.726c4.946-2.949 10.214-1.903 14.624-1.783 4.41.134 7.48 1.099 6.984 2.855-.496 1.756-4.906 1.622-6.234 1.582-1.327-.04-3.592 2.105-3.592 2.105l11.032 2.667s3.458 2.306.737 4.879c-2.721 2.574-3.217 1.971-3.217 1.971s-4.169 6.501-8.592 6.809c-4.424.309-22.399-4.195-22.399-4.195l2.158-13.164z" fill="#fff" stroke="#263238" stroke-miterlimit="10" stroke-linecap="round" stroke-linejoin="round"/><path d="M84.183 245.44c-.523 2.64-3.378 42.143-3.378 42.143l36.407 8.579-1.931 20.697s-65.132-7.668-66.338-11.676c-1.207-4.008 3.042-73.228 2.72-77.209-.321-3.981-5.67-17.386 10.228-17.359" fill="#C6B5DD"/><path d="M84.183 245.44c-.523 2.64-3.378 42.143-3.378 42.143l36.407 8.579-1.931 20.697s-65.132-7.668-66.338-11.676c-1.207-4.008 3.042-73.228 2.72-77.209-.321-3.981-5.67-17.386 10.228-17.359" stroke="#263238" stroke-miterlimit="10" stroke-linecap="round" stroke-linejoin="round"/><path d="M78.097 238.845s-10.656-13.7-22.318-13.19l22.318 13.19z" fill="#C6B5DD"/><path d="M78.097 238.845s-10.656-13.7-22.318-13.19" stroke="#263238" stroke-miterlimit="10" stroke-linecap="round" stroke-linejoin="round"/><path d="M78.097 243.912s-9.128-5.067-18.257-5.067l18.257 5.067z" fill="#C6B5DD"/><path d="M78.097 243.912s-9.128-5.067-18.257-5.067" stroke="#263238" stroke-miterlimit="10" stroke-linecap="round" stroke-linejoin="round"/></svg>