<svg width="552" height="481" viewBox="0 0 552 481" fill="none" xmlns="http://www.w3.org/2000/svg">
<path d="M14.7113 409.301H1.46875" stroke="#263238" stroke-width="1.1133" stroke-miterlimit="10"/>
<path d="M551.106 409.301H35.6562" stroke="#263238" stroke-width="1.1133" stroke-miterlimit="10"/>
<path d="M357.173 464.666C381.384 464.666 401.012 459.266 401.012 452.606C401.012 445.946 381.384 440.546 357.173 440.546C332.961 440.546 313.334 445.946 313.334 452.606C313.334 459.266 332.961 464.666 357.173 464.666Z" fill="#263238"/>
<path d="M130.592 480C84.964 480 78.2274 473.408 77.5638 468.085C77.4131 466.976 77.5223 465.848 77.8828 464.789C78.2434 463.73 78.8453 462.769 79.641 461.983C91.9315 449.086 162.76 454.539 260.767 462.084C274.442 463.137 288.579 464.219 303.077 465.3C402.107 472.657 441.979 471.705 450.216 461.752C451.89 459.718 452.236 457.179 451.313 453.746C447.389 439.392 394.938 439.32 375.074 440.445C374.62 440.469 374.174 440.313 373.834 440.011C373.494 439.708 373.286 439.284 373.256 438.83C373.243 438.605 373.274 438.38 373.348 438.167C373.422 437.954 373.538 437.759 373.688 437.591C373.838 437.423 374.02 437.287 374.223 437.19C374.427 437.093 374.647 437.038 374.872 437.027C382.474 436.579 449.264 433.218 454.616 452.895C455.842 457.424 455.28 461.045 452.856 463.988C443.609 475.211 405.757 476.408 302.831 468.763C288.319 467.681 274.183 466.599 260.507 465.546C167.088 458.333 93.2875 452.664 82.1222 464.392C81.6808 464.811 81.3458 465.329 81.145 465.904C80.9443 466.478 80.8837 467.092 80.9682 467.695C81.3865 471.1 89.6235 478.716 155.98 476.062C193.097 474.619 230.387 470.537 230.762 470.494C231.196 470.476 231.621 470.624 231.951 470.907C232.28 471.191 232.49 471.589 232.538 472.021C232.585 472.453 232.467 472.887 232.207 473.235C231.947 473.584 231.565 473.821 231.137 473.898C230.762 473.898 193.357 477.995 156.125 479.481C146.546 479.827 138.064 480 130.592 480Z" fill="white" stroke="#263238" stroke-width="1.1133" stroke-miterlimit="10"/>
<path d="M340.87 463.194C369.4 463.194 392.528 440.066 392.528 411.537C392.528 383.007 369.4 359.879 340.87 359.879C312.341 359.879 289.213 383.007 289.213 411.537C289.213 440.066 312.341 463.194 340.87 463.194Z" fill="white"/>
<path d="M340.87 463.194C350.271 463.2 359.495 460.64 367.548 455.79C375.601 450.94 382.177 443.984 386.568 435.672C390.959 427.359 392.997 418.006 392.464 408.621C391.93 399.235 388.845 390.173 383.541 382.412C382.978 404.916 370.558 438.137 305.961 449.562C315.47 458.333 327.934 463.2 340.87 463.194Z" fill="#C6B5DD"/>
<path opacity="0.3" d="M340.87 463.194C350.271 463.2 359.495 460.64 367.548 455.79C375.601 450.94 382.177 443.984 386.568 435.672C390.959 427.359 392.997 418.006 392.464 408.621C391.93 399.235 388.845 390.173 383.541 382.412C382.978 404.916 370.558 438.137 305.961 449.562C315.47 458.333 327.934 463.2 340.87 463.194Z" fill="white"/>
<path d="M366.288 431.79C357.076 422.828 345.89 416.153 333.629 412.301C345.89 416.153 357.076 422.828 366.288 431.79H369.029C375.109 425.763 380.344 418.94 384.594 411.508C360.402 385.946 336.874 388.557 336.874 388.557C336.874 388.557 360.474 385.946 384.666 411.537C385.993 409.157 387.104 406.921 388.013 404.858C377.944 390.75 360.604 381.128 351.3 379.685L349.136 379.166C345.801 378.56 342.389 378.511 339.038 379.022C342.389 378.511 345.801 378.56 349.136 379.166L355.296 361.856C352.385 361.024 349.407 360.449 346.395 360.139C342.399 366.587 332.114 387.187 332.114 428.054C332.114 387.187 342.399 366.587 346.395 360.139C344.664 359.98 342.933 359.879 341.159 359.879C339.206 359.885 337.256 360.001 335.316 360.226C329.229 369.429 317.588 391.168 316.809 423.798C328.883 428.198 345.039 431.487 366.288 431.79ZM377.958 421.274C357.387 401.223 334.682 400.17 334.682 400.17C334.682 400.17 357.387 401.223 377.958 421.274V421.274Z" stroke="#263238" stroke-width="1.1133" stroke-linecap="round" stroke-linejoin="round"/>
<path d="M316.75 423.885C317.529 391.255 329.171 369.516 335.258 360.312C330.495 360.847 325.83 362.041 321.395 363.861C310.463 379.9 304.287 398.703 303.58 418.1C307.816 420.362 312.219 422.296 316.75 423.885Z" stroke="#263238" stroke-width="1.1133" stroke-linecap="round" stroke-linejoin="round"/>
<path d="M321.397 363.817C312.477 367.495 304.761 373.594 299.123 381.424C293.485 389.255 290.148 398.506 289.488 408.132C293.736 412.038 298.473 415.374 303.582 418.057C304.289 398.659 310.465 379.856 321.397 363.817V363.817Z" stroke="#263238" stroke-width="1.1133" stroke-linecap="round" stroke-linejoin="round"/>
<path d="M387.942 404.858C389.066 402.374 390.03 399.82 390.827 397.212C388.671 389.855 384.912 383.066 379.821 377.334L375.825 390.663L379.749 377.334C376.562 373.76 372.897 370.643 368.857 368.073L364.458 384.532L368.886 368.145C364.663 365.444 360.065 363.378 355.24 362.014L349.08 379.325C358.514 380.681 373.098 386.235 387.942 404.858Z" stroke="#263238" stroke-width="1.1133" stroke-linecap="round" stroke-linejoin="round"/>
<path d="M392.803 413.975C392.803 413.225 392.803 412.532 392.803 411.724C392.803 406.813 392.103 401.927 390.726 397.212C389.929 399.82 388.965 402.374 387.841 404.858C387.222 406.382 386.489 407.858 385.648 409.272C385.735 409.359 384.408 411.45 384.494 411.537C384.581 411.623 383.052 414.133 383.052 414.047C379.618 420.149 369.261 431.833 369.434 431.833C369.261 431.833 363.837 436.753 360.88 439.234C355.471 443.714 349.738 447.788 343.728 451.423H344.103H343.728C337.817 454.995 331.705 458.222 325.422 461.088C330.468 462.676 335.726 463.483 341.016 463.483C341.896 463.483 342.761 463.483 343.612 463.483C354.186 457.727 370.992 444.6 392.803 413.975Z" stroke="#263238" stroke-width="1.1133" stroke-linecap="round" stroke-linejoin="round"/>
<path d="M392.803 413.975C370.992 444.6 354.187 457.727 343.699 463.353C356.56 462.706 368.717 457.287 377.797 448.157C386.877 439.026 392.228 426.839 392.803 413.975V413.975Z" stroke="#263238" stroke-width="1.1133" stroke-linecap="round" stroke-linejoin="round"/>
<path d="M300.652 443.98C307.053 452.026 315.706 457.982 325.507 461.088C331.791 458.222 337.903 454.995 343.813 451.423C331.494 453.702 312.222 448.048 300.652 443.98Z" stroke="#263238" stroke-width="1.1133" stroke-linecap="round" stroke-linejoin="round"/>
<path d="M343.814 451.423C349.824 447.788 355.557 443.714 360.966 439.234C323.763 443.042 300.812 431.516 291.061 424.967C292.901 431.903 296.168 438.378 300.654 443.98C312.223 448.048 331.495 453.702 343.814 451.423Z" stroke="#263238" stroke-width="1.1133" stroke-linecap="round" stroke-linejoin="round"/>
<path d="M360.966 439.234C363.923 436.753 366.592 434.271 369.03 431.819H366.289C366.491 432.007 366.693 432.194 366.881 432.396C366.693 432.194 366.491 432.007 366.289 431.819C345.04 431.516 328.884 428.227 316.752 423.914C299.023 417.769 292.633 411.162 289.488 408.205C289.401 409.387 289.344 410.556 289.344 411.753C289.345 416.223 289.922 420.674 291.06 424.996C300.812 431.516 323.763 443.042 360.966 439.234Z" stroke="#263238" stroke-width="1.1133" stroke-linecap="round" stroke-linejoin="round"/>
<path d="M340.87 463.194C369.4 463.194 392.528 440.066 392.528 411.537C392.528 383.007 369.4 359.879 340.87 359.879C312.341 359.879 289.213 383.007 289.213 411.537C289.213 440.066 312.341 463.194 340.87 463.194Z" stroke="#263238" stroke-width="1.1133" stroke-linecap="round" stroke-linejoin="round"/>
<path d="M249.095 354.124C216.984 354.124 197.683 325.633 190.831 300.576L190.6 299.696C190.235 298.481 190.119 297.205 190.258 295.944C190.398 294.683 190.79 293.463 191.412 292.358C192.034 291.252 192.872 290.283 193.877 289.508C194.882 288.734 196.033 288.17 197.261 287.851C198.489 287.532 199.768 287.463 201.023 287.65C202.278 287.837 203.482 288.274 204.564 288.937C205.646 289.6 206.583 290.474 207.319 291.507C208.055 292.54 208.575 293.712 208.848 294.95L209.022 295.6C214.229 314.67 228.409 336.467 251.158 335.212C255.436 335.064 259.635 334.017 263.482 332.141C267.329 330.265 270.738 327.6 273.489 324.321C285.967 310.011 291.549 278.895 290.309 263.2C290.191 262.193 290.278 261.172 290.564 260.2C290.85 259.227 291.329 258.321 291.973 257.538C292.616 256.754 293.411 256.109 294.31 255.639C295.209 255.17 296.193 254.886 297.204 254.806C298.214 254.725 299.231 254.849 300.193 255.171C301.154 255.492 302.042 256.004 302.801 256.675C303.561 257.347 304.177 258.165 304.613 259.08C305.049 259.996 305.297 260.99 305.34 262.003C306.783 279.472 304.879 317.021 287.698 336.712C283.3 341.89 277.879 346.101 271.774 349.08C265.669 352.059 259.013 353.742 252.226 354.023C251.173 354.095 250.12 354.124 249.095 354.124Z" fill="white"/>
<path d="M297.219 255.079C295.226 255.24 293.379 256.187 292.083 257.709C290.788 259.232 290.149 261.207 290.309 263.2C290.915 270.86 289.891 282.184 287.236 293.493C291.027 293.333 294.818 293.821 298.445 294.936C297.587 305.789 293.775 316.2 287.424 325.042C273.417 344.502 252.413 350.719 236.069 348.382C228.756 347.344 220.374 343.507 213.32 339.568C222.892 348.902 235.726 354.134 249.095 354.152C250.12 354.152 251.173 354.152 252.226 354.066C259.013 353.785 265.669 352.103 271.774 349.123C277.879 346.144 283.3 341.933 287.698 336.755C304.879 317.065 306.725 279.515 305.34 262.046C305.269 261.054 305.002 260.085 304.554 259.196C304.107 258.308 303.488 257.517 302.732 256.869C301.977 256.221 301.101 255.729 300.155 255.422C299.208 255.115 298.21 254.998 297.219 255.079Z" fill="#C6B5DD"/>
<path opacity="0.5" d="M297.219 255.079C295.226 255.24 293.379 256.187 292.083 257.709C290.788 259.232 290.149 261.207 290.309 263.2C290.915 270.86 289.891 282.184 287.236 293.493C291.027 293.333 294.818 293.821 298.445 294.936C297.587 305.789 293.775 316.2 287.424 325.042C273.417 344.502 252.413 350.719 236.069 348.382C228.756 347.344 220.374 343.507 213.32 339.568C222.892 348.902 235.726 354.134 249.095 354.152C250.12 354.152 251.173 354.152 252.226 354.066C259.013 353.785 265.669 352.103 271.774 349.123C277.879 346.144 283.3 341.933 287.698 336.755C304.879 317.065 306.725 279.515 305.34 262.046C305.269 261.054 305.002 260.085 304.554 259.196C304.107 258.308 303.488 257.517 302.732 256.869C301.977 256.221 301.101 255.729 300.155 255.422C299.208 255.115 298.21 254.998 297.219 255.079Z" fill="white"/>
<path d="M249.095 354.124C216.984 354.124 197.683 325.633 190.831 300.576L190.6 299.696C190.235 298.481 190.119 297.205 190.258 295.944C190.398 294.683 190.79 293.463 191.412 292.358C192.034 291.252 192.872 290.283 193.877 289.508C194.882 288.734 196.033 288.17 197.261 287.851C198.489 287.532 199.768 287.463 201.023 287.65C202.278 287.837 203.482 288.274 204.564 288.937C205.646 289.6 206.583 290.474 207.319 291.507C208.055 292.54 208.575 293.712 208.848 294.95L209.022 295.6C214.229 314.67 228.409 336.467 251.158 335.212C255.436 335.064 259.635 334.017 263.482 332.141C267.329 330.265 270.738 327.6 273.489 324.321C285.967 310.011 291.549 278.895 290.309 263.2C290.191 262.193 290.278 261.172 290.564 260.2C290.85 259.227 291.329 258.321 291.973 257.538C292.616 256.754 293.411 256.109 294.31 255.639C295.209 255.17 296.193 254.886 297.204 254.806C298.214 254.725 299.231 254.849 300.193 255.171C301.154 255.492 302.042 256.004 302.801 256.675C303.561 257.347 304.177 258.165 304.613 259.08C305.049 259.996 305.297 260.99 305.34 262.003C306.783 279.472 304.879 317.021 287.698 336.712C283.3 341.89 277.879 346.101 271.774 349.08C265.669 352.059 259.013 353.742 252.226 354.023C251.173 354.095 250.12 354.124 249.095 354.124Z" stroke="#263238" stroke-width="1.1133" stroke-linecap="round" stroke-linejoin="round"/>
<path d="M230.572 334.606C231.337 331.072 222.884 336.597 215.801 341.747C218.421 343.961 221.241 345.926 224.225 347.618C226.75 343.506 229.837 338.01 230.572 334.606Z" fill="#C6B5DD" stroke="#263238" stroke-width="1.1133" stroke-linecap="round" stroke-linejoin="round"/>
<path d="M249.094 354.124C250.118 354.124 251.171 354.124 252.224 354.037C255.289 353.865 258.334 353.436 261.326 352.753C257.345 347.56 251.863 340.694 250.291 340.174C248.488 339.568 245.011 348.411 243.078 353.777C245.075 354.01 247.083 354.126 249.094 354.124Z" fill="#C6B5DD" stroke="#263238" stroke-width="1.1133" stroke-linecap="round" stroke-linejoin="round"/>
<path d="M209.022 295.6L208.848 294.95C208.575 293.712 208.055 292.54 207.319 291.507C206.583 290.474 205.646 289.6 204.564 288.937C203.482 288.274 202.278 287.837 201.023 287.65C199.768 287.463 198.489 287.532 197.261 287.851C196.033 288.17 194.882 288.734 193.877 289.508C192.872 290.283 192.034 291.252 191.412 292.358C190.79 293.463 190.398 294.683 190.258 295.944C190.119 297.205 190.235 298.481 190.6 299.696L190.831 300.576C193.236 309.376 196.931 317.771 201.794 325.489L218.975 317.31C214.47 310.679 211.105 303.341 209.022 295.6Z" fill="#C6B5DD" stroke="#263238" stroke-width="1.1133" stroke-linecap="round" stroke-linejoin="round"/>
<path d="M287.7 336.712C289.02 335.184 290.244 333.575 291.364 331.894C285.911 330.033 277.746 327.465 274.717 327.739C271.125 328.071 276.001 339.612 278.511 345.05C281.89 342.64 284.974 339.841 287.7 336.712Z" fill="#C6B5DD" stroke="#263238" stroke-width="1.1133" stroke-linecap="round" stroke-linejoin="round"/>
<path d="M288 305.885C287.423 307.039 294.477 312.174 299.238 315.478C300.747 310.984 301.962 306.397 302.873 301.745C297.103 302.899 288.563 304.76 288 305.885Z" fill="#C6B5DD" stroke="#263238" stroke-width="1.1133" stroke-linecap="round" stroke-linejoin="round"/>
<path d="M305.211 284.55C305.528 280.438 305.687 276.515 305.701 272.908C300.739 275.635 294.854 279.414 294.854 281.895C294.854 284.377 300.364 284.68 305.211 284.55Z" fill="#C6B5DD" stroke="#263238" stroke-width="1.1133" stroke-linecap="round" stroke-linejoin="round"/>
<path d="M227.545 172.94C227.545 172.94 213.538 213.504 221.083 245.067C223.317 254.304 227.655 262.899 233.758 270.183C239.861 277.467 247.564 283.243 256.266 287.06C256.266 287.06 235.797 294.272 240.398 305.366C245 316.459 262.643 309.318 268.398 305.726C274.154 302.134 281.381 291.373 282.391 284.189C283.033 280.519 283.275 276.79 283.112 273.067C283.112 273.067 306.438 270.557 322.234 257.632C322.234 257.632 336.241 268.754 346.296 266.604C356.35 264.455 370.704 246.495 369.261 230.353C367.818 214.211 358.514 214.226 352.83 216.678C349.88 217.794 347.19 219.502 344.925 221.698C344.925 221.698 353.177 211.6 344.925 197.651C342.49 193.559 339.155 190.075 335.174 187.464C331.192 184.852 326.669 183.181 321.946 182.576C321.946 182.576 317.618 159.597 304.722 150.985C291.825 142.373 245.851 133.458 227.545 172.94Z" fill="white"/>
<path d="M334.192 186.889C327.532 197.998 318.317 207.356 307.313 214.186C296.308 221.015 283.832 225.119 270.922 226.156C242.359 228.666 226.347 223.04 218.99 219.13C219.883 203.436 222.792 187.921 227.645 172.969C245.951 133.486 291.896 142.459 304.822 151.071C317.747 159.683 322.046 182.663 322.046 182.663C326.346 183.203 330.485 184.643 334.192 186.889ZM352.829 216.678C349.879 217.794 347.189 219.502 344.924 221.698C346.671 219.29 347.823 216.501 348.285 213.562C328.883 223.227 330.398 243.856 327.989 243.856C325.017 243.856 323.546 233.484 323.546 233.484C323.546 233.484 319.839 248.299 297.58 258.685C275.322 269.071 250.149 260.906 250.149 260.906C250.149 260.906 255.342 272.764 241.999 271.278C238.254 270.92 234.664 269.609 231.569 267.47C237.968 276.001 246.466 282.73 256.237 287.002C256.237 287.002 235.767 294.215 240.369 305.308C244.97 316.401 262.627 309.26 268.369 305.669C274.11 302.077 281.351 291.315 282.361 284.131C283.003 280.461 283.245 276.732 283.082 273.009C283.082 273.009 306.408 270.499 322.204 257.574C322.204 257.574 336.211 268.696 346.266 266.547C356.32 264.397 370.674 246.438 369.231 230.296C367.789 214.154 358.513 214.226 352.829 216.678Z" fill="#C6B5DD"/>
<path opacity="0.5" d="M334.192 186.889C327.532 197.998 318.317 207.356 307.313 214.186C296.308 221.015 283.832 225.119 270.922 226.156C242.359 228.666 226.347 223.04 218.99 219.13C219.883 203.436 222.792 187.921 227.645 172.969C245.951 133.486 291.896 142.459 304.822 151.071C317.747 159.683 322.046 182.663 322.046 182.663C326.346 183.203 330.485 184.643 334.192 186.889ZM352.829 216.678C349.879 217.794 347.189 219.502 344.924 221.698C346.671 219.29 347.823 216.501 348.285 213.562C328.883 223.227 330.398 243.856 327.989 243.856C325.017 243.856 323.546 233.484 323.546 233.484C323.546 233.484 319.839 248.299 297.58 258.685C275.322 269.071 250.149 260.906 250.149 260.906C250.149 260.906 255.342 272.764 241.999 271.278C238.254 270.92 234.664 269.609 231.569 267.47C237.968 276.001 246.466 282.73 256.237 287.002C256.237 287.002 235.767 294.215 240.369 305.308C244.97 316.401 262.627 309.26 268.369 305.669C274.11 302.077 281.351 291.315 282.361 284.131C283.003 280.461 283.245 276.732 283.082 273.009C283.082 273.009 306.408 270.499 322.204 257.574C322.204 257.574 336.211 268.696 346.266 266.547C356.32 264.397 370.674 246.438 369.231 230.296C367.789 214.154 358.513 214.226 352.829 216.678Z" fill="white"/>
<path d="M283.182 273.096C275.44 273.302 267.754 271.73 260.714 268.502C253.675 265.274 247.469 260.474 242.574 254.473" stroke="#263238" stroke-width="1.1133" stroke-linecap="round" stroke-linejoin="round"/>
<path d="M227.545 172.94C227.545 172.94 213.538 213.504 221.083 245.067C223.317 254.304 227.655 262.899 233.758 270.183C239.861 277.467 247.564 283.243 256.266 287.06C256.266 287.06 235.797 294.272 240.398 305.366C245 316.459 262.643 309.318 268.398 305.726C274.154 302.134 281.381 291.373 282.391 284.189C283.033 280.519 283.275 276.79 283.112 273.067C283.112 273.067 306.438 270.557 322.234 257.632C322.234 257.632 336.241 268.754 346.296 266.604C356.35 264.455 370.704 246.495 369.261 230.353C367.818 214.211 358.514 214.226 352.83 216.678C349.88 217.794 347.19 219.502 344.925 221.698C344.925 221.698 353.177 211.6 344.925 197.651C342.49 193.559 339.155 190.075 335.174 187.464C331.192 184.852 326.669 183.181 321.946 182.576C321.946 182.576 317.618 159.597 304.722 150.985C291.825 142.373 245.851 133.458 227.545 172.94Z" stroke="#263238" stroke-width="1.1133" stroke-linecap="round" stroke-linejoin="round"/>
<path d="M344.925 221.756C344.925 221.756 337.395 226.79 333.803 242.225" stroke="#263238" stroke-width="1.1133" stroke-linecap="round" stroke-linejoin="round"/>
<path d="M358.759 228.363C357.879 230.988 355.47 232.56 353.393 231.854C351.316 231.147 350.364 228.449 351.244 225.824C352.123 223.198 354.533 221.626 356.61 222.333C358.687 223.04 359.654 225.737 358.759 228.363Z" fill="white" stroke="#263238" stroke-width="1.1133" stroke-linecap="round" stroke-linejoin="round"/>
<path d="M366.187 233.036C365.307 235.662 362.898 237.234 360.821 236.527C358.744 235.821 357.777 233.123 358.672 230.498C359.566 227.872 361.961 226.3 364.038 227.007C366.115 227.714 367.082 230.411 366.187 233.036Z" fill="white" stroke="#263238" stroke-width="1.1133" stroke-linecap="round" stroke-linejoin="round"/>
<path d="M367.776 240.033C367.488 240.516 367.069 240.907 366.567 241.161C366.066 241.415 365.503 241.522 364.943 241.469C364.383 241.416 363.85 241.205 363.405 240.861C362.961 240.517 362.623 240.054 362.431 239.525C362.239 238.997 362.2 238.425 362.321 237.876C362.441 237.326 362.714 236.823 363.109 236.423C363.504 236.022 364.005 235.743 364.552 235.616C365.1 235.489 365.673 235.52 366.203 235.705C366.97 236.088 367.56 236.751 367.852 237.556C368.145 238.361 368.117 239.247 367.776 240.033Z" fill="white" stroke="#263238" stroke-width="1.1133" stroke-linecap="round" stroke-linejoin="round"/>
<path d="M358.298 249.64C355.701 254.328 350.508 256.406 346.685 254.285C342.862 252.165 341.882 246.669 344.478 241.98C347.075 237.292 352.268 235.215 356.091 237.335C359.913 239.456 360.894 244.952 358.298 249.64Z" fill="white" stroke="#263238" stroke-width="1.1133" stroke-linecap="round" stroke-linejoin="round"/>
<path d="M256.266 287.089C261.101 289.339 266.598 289.725 271.701 288.171" stroke="#263238" stroke-width="1.1133" stroke-linecap="round" stroke-linejoin="round"/>
<path d="M240.471 305.394C240.471 305.394 241.913 299.292 250.871 294.994" stroke="#263238" stroke-width="1.1133" stroke-linecap="round" stroke-linejoin="round"/>
<path d="M249.441 310.79C249.441 310.79 253.033 302.134 259.135 298.225" stroke="#263238" stroke-width="1.1133" stroke-linecap="round" stroke-linejoin="round"/>
<path d="M164.23 145.982V178.524H139.9V216.844H104.621V178.524H0V145.982L73.2952 3.95369H111.311L38.0162 145.982H104.621V90.6306H139.9V145.982H164.23Z" fill="#263238"/>
<path d="M326.659 190.689C312.061 210.762 291.583 220.798 265.225 220.798C238.867 220.798 218.287 210.762 203.486 190.689C188.888 170.617 181.589 143.853 181.589 110.399C181.589 76.9448 188.888 50.1814 203.486 30.1088C218.287 10.0363 238.867 0 265.225 0C291.583 0 312.061 10.0363 326.659 30.1088C341.46 50.1814 348.86 76.9448 348.86 110.399C348.86 143.853 341.46 170.617 326.659 190.689ZM265.225 186.736C281.039 186.736 293.103 180.146 301.416 166.967C309.729 153.788 313.885 134.932 313.885 110.399C313.885 85.8659 309.729 67.0099 301.416 53.8309C293.103 40.652 281.039 34.0625 265.225 34.0625C249.613 34.0625 237.549 40.652 229.033 53.8309C220.72 67.0099 216.564 85.8659 216.564 110.399C216.564 134.932 220.72 153.788 229.033 166.967C237.549 180.146 249.613 186.736 265.225 186.736Z" fill="#263238"/>
<path d="M532.215 145.982V178.524H507.884V216.844H472.605V178.524H367.985V145.982L441.28 3.95369H479.296L406.001 145.982H472.605V90.6306H507.884V145.982H532.215Z" fill="#263238"/>
<path d="M198.465 152.485C198.465 152.485 183.39 173.661 181.241 195.199C179.091 216.736 181.601 231.089 188.064 236.484C194.527 241.879 200.975 239.715 204.567 234.681C208.159 229.647 202.417 212.062 202.417 212.062C202.417 212.062 208.519 195.199 217.853 183.355C227.186 171.512 228.975 169.709 228.975 169.709C228.975 169.709 212.818 151.403 198.465 152.485Z" fill="white"/>
<path d="M198.464 152.485C195.174 157.345 192.257 162.447 189.736 167.747C196.949 170.632 208.129 176.546 215.226 187.019C216.092 185.764 216.986 184.524 217.909 183.355C227.242 171.512 229.031 169.709 229.031 169.709C229.031 169.709 212.817 151.403 198.464 152.485Z" fill="#C6B5DD"/>
<path opacity="0.5" d="M198.464 152.485C195.174 157.345 192.257 162.447 189.736 167.747C196.949 170.632 208.129 176.546 215.226 187.019C216.092 185.764 216.986 184.524 217.909 183.355C227.242 171.512 229.031 169.709 229.031 169.709C229.031 169.709 212.817 151.403 198.464 152.485Z" fill="white"/>
<path d="M198.465 152.485C198.465 152.485 183.39 173.661 181.241 195.199C179.091 216.736 181.601 231.089 188.064 236.484C194.527 241.879 200.975 239.715 204.567 234.681C208.159 229.647 202.417 212.062 202.417 212.062C202.417 212.062 208.519 195.199 217.853 183.355C227.186 171.512 228.975 169.709 228.975 169.709C228.975 169.709 212.818 151.403 198.465 152.485Z" stroke="#263238" stroke-width="1.1133" stroke-linecap="round" stroke-linejoin="round"/>
<path d="M188.061 236.484C186.298 231.778 185.442 226.781 185.536 221.756" stroke="#263238" stroke-width="1.1133" stroke-linecap="round" stroke-linejoin="round"/>
<path d="M197.741 238.634C197.741 238.634 194.163 232.532 193.803 222.116" stroke="#263238" stroke-width="1.1133" stroke-linecap="round" stroke-linejoin="round"/>
<path d="M203.135 190.885C203.135 187.106 195.922 179.72 185.897 176.46C184.549 179.974 183.436 183.574 182.564 187.236C186.46 187.902 190.242 189.111 193.802 190.828C199.183 193.756 203.135 195.199 203.135 190.885Z" fill="#C6B5DD" stroke="#263238" stroke-width="1.1133" stroke-linecap="round" stroke-linejoin="round"/>
<path d="M197.585 153.769C195.259 157.313 193.121 160.978 191.18 164.746C194.215 165.549 197.127 166.762 199.835 168.353C210.957 174.801 213.106 175.566 209.529 166.189C207.365 160.303 202.201 156.308 197.585 153.769Z" fill="#C6B5DD" stroke="#263238" stroke-width="1.1133" stroke-linecap="round" stroke-linejoin="round"/>
<path d="M316.533 142.026C316.533 142.026 333.613 161.616 337.869 182.85C342.124 204.085 341.042 218.611 335.128 224.598C329.213 230.584 322.592 229.084 318.524 224.424C314.456 219.765 318.524 201.719 318.524 201.719C318.524 201.719 310.792 185.519 300.348 174.642C289.904 163.766 287.928 162.164 287.928 162.164C287.928 162.164 302.137 142.358 316.533 142.026Z" fill="white"/>
<path d="M316.535 142.026C302.11 142.358 287.857 162.222 287.857 162.222C287.857 162.222 289.819 163.838 300.278 174.7C302.234 176.76 304.073 178.927 305.788 181.191C311.247 171.971 319.045 164.357 328.393 159.121C324.953 153.083 320.985 147.363 316.535 142.026Z" fill="#C6B5DD"/>
<path opacity="0.5" d="M316.535 142.026C302.11 142.358 287.857 162.222 287.857 162.222C287.857 162.222 289.819 163.838 300.278 174.7C302.234 176.76 304.073 178.927 305.788 181.191C311.247 171.971 319.045 164.357 328.393 159.121C324.953 153.083 320.985 147.363 316.535 142.026Z" fill="white"/>
<path d="M316.533 142.026C316.533 142.026 333.613 161.616 337.869 182.85C342.124 204.085 341.042 218.611 335.128 224.598C329.213 230.584 322.592 229.084 318.524 224.424C314.456 219.765 318.524 201.719 318.524 201.719C318.524 201.719 310.792 185.519 300.348 174.642C289.904 163.766 287.928 162.164 287.928 162.164C287.928 162.164 302.137 142.358 316.533 142.026Z" stroke="#263238" stroke-width="1.1133" stroke-linecap="round" stroke-linejoin="round"/>
<path d="M335.131 224.598C336.424 219.747 336.786 214.696 336.198 209.711" stroke="#263238" stroke-width="1.1133" stroke-linecap="round" stroke-linejoin="round"/>
<path d="M325.697 227.685C325.697 227.685 328.683 221.265 328.02 210.865" stroke="#263238" stroke-width="1.1133" stroke-linecap="round" stroke-linejoin="round"/>
<path d="M315.655 180.701C315.294 176.936 321.743 168.887 331.408 164.718C333.079 168.08 334.525 171.549 335.735 175.104C331.931 176.165 328.291 177.742 324.916 179.792C319.867 183.182 316.088 184.942 315.655 180.701Z" fill="#C6B5DD" stroke="#263238" stroke-width="1.1133" stroke-linecap="round" stroke-linejoin="round"/>
<path d="M317.532 143.224C320.185 146.497 322.66 149.912 324.947 153.451C321.994 154.545 319.203 156.034 316.652 157.88C306.222 165.41 304.145 166.333 306.799 156.697C308.458 150.682 313.19 146.195 317.532 143.224Z" fill="#C6B5DD" stroke="#263238" stroke-width="1.1133" stroke-linecap="round" stroke-linejoin="round"/>
<path d="M197.05 134.165C197.05 134.165 192.607 149.153 194.28 155.255C195.954 161.356 203.714 155.817 211.49 162.467C219.265 169.117 226.463 181.119 255.906 183.341C285.348 185.562 303.12 169.68 309.28 160.794C315.439 151.908 314.834 141.363 325.379 140.815C335.924 140.266 327.052 119.71 323.72 116.378C323.72 116.378 344.261 85.8393 344.261 78.064C344.261 70.2887 324.83 71.9476 300.985 79.1747C300.985 79.1747 283.213 69.7261 251.001 75.2799C218.789 80.8336 209.355 90.2823 209.355 90.2823C209.355 90.2823 169.367 95.2735 166.598 100.265C163.828 105.256 172.065 126.389 197.05 134.165Z" fill="white"/>
<path d="M325.336 140.829C335.896 140.266 327.01 119.725 323.677 116.392C323.677 116.392 327.587 110.622 331.986 103.409C320.057 97.1777 308.343 93.7156 305.227 97.221C298.519 104.751 302.169 119.176 305.227 133.285C308.285 147.393 296.067 153.408 287.527 165.612C278.987 177.816 266.798 164.386 266.798 164.386C262.47 182.086 244.222 170.488 244.222 170.488C230.2 166.16 206.413 152.196 211.289 142.43C216.165 132.664 217.391 123.519 208.851 115.599C200.311 107.679 166.252 101.087 166.252 101.087C164.464 107.102 173.105 126.808 197.065 134.265C197.065 134.265 192.622 149.254 194.296 155.355C195.969 161.457 203.73 155.918 211.505 162.568C219.28 169.218 226.479 181.22 255.921 183.442C285.363 185.663 303.135 169.781 309.295 160.895C315.455 152.009 314.777 141.377 325.336 140.829Z" fill="#C6B5DD"/>
<path opacity="0.5" d="M325.336 140.829C335.896 140.266 327.01 119.725 323.677 116.392C323.677 116.392 327.587 110.622 331.986 103.409C320.057 97.1777 308.343 93.7156 305.227 97.221C298.519 104.751 302.169 119.176 305.227 133.285C308.285 147.393 296.067 153.408 287.527 165.612C278.987 177.816 266.798 164.386 266.798 164.386C262.47 182.086 244.222 170.488 244.222 170.488C230.2 166.16 206.413 152.196 211.289 142.43C216.165 132.664 217.391 123.519 208.851 115.599C200.311 107.679 166.252 101.087 166.252 101.087C164.464 107.102 173.105 126.808 197.065 134.265C197.065 134.265 192.622 149.254 194.296 155.355C195.969 161.457 203.73 155.918 211.505 162.568C219.28 169.218 226.479 181.22 255.921 183.442C285.363 185.663 303.135 169.781 309.295 160.895C315.455 152.009 314.777 141.377 325.336 140.829Z" fill="white"/>
<path d="M281.901 144.176C282.32 147.696 274.501 151.489 264.475 152.658C254.45 153.826 245.968 151.922 245.549 148.33C245.131 144.738 252.949 141.031 262.99 139.863C273.03 138.694 281.497 140.67 281.901 144.176Z" fill="#C6B5DD"/>
<path opacity="0.5" d="M281.901 144.176C282.32 147.696 274.501 151.489 264.475 152.658C254.45 153.826 245.968 151.922 245.549 148.33C245.131 144.738 252.949 141.031 262.99 139.863C273.03 138.694 281.497 140.67 281.901 144.176Z" fill="white"/>
<path d="M197.05 134.165C197.05 134.165 192.607 149.153 194.28 155.255C195.954 161.356 203.714 155.817 211.49 162.467C219.265 169.117 226.463 181.119 255.906 183.341C285.348 185.562 303.12 169.68 309.28 160.794C315.439 151.908 314.834 141.363 325.379 140.815C335.924 140.266 327.052 119.71 323.72 116.378C323.72 116.378 344.261 85.8393 344.261 78.064C344.261 70.2887 324.83 71.9476 300.985 79.1747C300.985 79.1747 283.213 69.7261 251.001 75.2799C218.789 80.8336 209.355 90.2823 209.355 90.2823C209.355 90.2823 169.367 95.2735 166.598 100.265C163.828 105.256 172.065 126.389 197.05 134.165Z" stroke="#263238" stroke-width="1.1133" stroke-miterlimit="10"/>
<path d="M311.905 89.7341C297.48 99.428 302.572 109.122 309.02 114.503C312.958 117.792 319.305 117.388 323.647 116.464C323.647 116.464 344.189 85.9258 344.189 78.1505C344.204 78.0784 326.258 79.9681 311.905 89.7341Z" fill="#C6B5DD" stroke="#263238" stroke-width="1.1133" stroke-miterlimit="10"/>
<path d="M166.239 100.986C164.45 107.001 173.091 126.707 197.052 134.165C197.052 134.165 215.343 132.376 209.241 117.662C203.543 103.929 174.735 100.51 166.239 100.986Z" fill="#C6B5DD" stroke="#263238" stroke-width="1.1133" stroke-miterlimit="10"/>
<path d="M250.912 75.3087C249.022 75.6405 247.204 75.9867 245.459 76.3329C248.344 90.9026 253.09 115.166 257.331 115.166C261.572 115.166 264.818 88.5657 266.203 73.6642C261.075 73.8801 255.968 74.4294 250.912 75.3087Z" fill="#C6B5DD" stroke="#263238" stroke-width="1.1133" stroke-miterlimit="10"/>
<path d="M234.369 110.839C238.783 108.242 238.119 88.7244 237.413 78.1361C232.857 79.268 228.372 80.6698 223.982 82.3339C225.584 92.2442 229.652 113.608 234.369 110.839Z" fill="#C6B5DD" stroke="#263238" stroke-width="1.1133" stroke-miterlimit="10"/>
<path d="M277.08 101.866C281.595 103.453 284.134 87.2241 285.562 74.7317C281.002 73.9884 276.391 73.5977 271.771 73.5632C271.627 83.8197 272.19 100.149 277.08 101.866Z" fill="#C6B5DD" stroke="#263238" stroke-width="1.1133" stroke-miterlimit="10"/>
<path d="M271.039 158.039C266.826 156.931 262.349 157.484 258.532 159.582C258.365 159.679 258.222 159.813 258.116 159.975C258.01 160.136 257.943 160.32 257.92 160.512C257.898 160.704 257.921 160.899 257.987 161.08C258.053 161.262 258.161 161.426 258.301 161.558L265.961 168.771C266.105 168.906 266.278 169.004 266.467 169.058C266.657 169.112 266.856 169.121 267.049 169.083C267.242 169.045 267.423 168.961 267.578 168.839C267.732 168.718 267.855 168.561 267.937 168.382L271.861 159.726C271.931 159.563 271.965 159.386 271.961 159.208C271.957 159.03 271.914 158.855 271.836 158.694C271.758 158.534 271.646 158.393 271.509 158.28C271.371 158.166 271.211 158.084 271.039 158.039Z" fill="#C6B5DD" stroke="#263238" stroke-width="1.1133" stroke-linecap="round" stroke-linejoin="round"/>
<path d="M252.833 145.993C253.886 148.777 253.467 151.518 251.895 152.11C250.323 152.701 248.188 150.941 247.12 148.172C246.053 145.402 246.486 142.647 248.058 142.055C249.63 141.464 251.765 143.224 252.833 145.993Z" fill="#263238"/>
<path d="M273.72 144.017C273.172 146.902 274.066 149.571 275.725 149.874C277.384 150.177 279.173 148.071 279.721 145.142C280.269 142.214 279.375 139.603 277.716 139.286C276.057 138.968 274.268 141.103 273.72 144.017Z" fill="#263238"/>
<path d="M267.935 168.367C267.935 168.367 257.693 182.273 248.359 168.281" stroke="#263238" stroke-width="1.1133" stroke-linecap="round" stroke-linejoin="round"/>
<path d="M265.959 168.757C265.959 168.757 272.768 175.811 279.952 171.858C287.136 167.906 282.837 161.76 282.837 161.76" stroke="#263238" stroke-width="1.1133" stroke-linecap="round" stroke-linejoin="round"/>
<path d="M234.729 134.886C234.729 134.886 237.239 125.913 249.082 128.063" stroke="#263238" stroke-width="3.33991" stroke-linecap="round" stroke-linejoin="round"/>
<path d="M270.619 126.634C270.619 126.634 279.592 121.254 287.843 129.866" stroke="#263238" stroke-width="3.33991" stroke-linecap="round" stroke-linejoin="round"/>
<path d="M227.904 158.947L236.516 161.097" stroke="#263238" stroke-width="1.1133" stroke-miterlimit="10" stroke-linecap="round"/>
<path d="M235.434 164.328L227.904 165.756" stroke="#263238" stroke-width="1.1133" stroke-miterlimit="10" stroke-linecap="round"/>
<path d="M236.879 168.281L231.498 171.151" stroke="#263238" stroke-width="1.1133" stroke-miterlimit="10" stroke-linecap="round"/>
<path d="M291.438 154.995L298.982 153.192" stroke="#263238" stroke-width="1.1133" stroke-miterlimit="10" stroke-linecap="round"/>
<path d="M292.879 158.587H297.899" stroke="#263238" stroke-width="1.1133" stroke-miterlimit="10" stroke-linecap="round"/>
<path d="M293.945 162.179L300.769 163.967" stroke="#263238" stroke-width="1.1133" stroke-miterlimit="10" stroke-linecap="round"/>
<path d="M9.19518 350.407H10.7618L7.01185 359.307C6.58963 360.307 6.05074 361.035 5.39518 361.49C4.73963 361.935 3.93963 362.129 2.99518 362.074V360.64C3.63963 360.707 4.16185 360.613 4.56185 360.357C4.96185 360.101 5.29518 359.663 5.56185 359.04L5.67852 358.774L1.72852 350.407H3.29518L6.39518 357.074L9.19518 350.407Z" fill="black"/>
<path d="M17.3257 353.74H18.8757L15.4757 362.59C15.1201 363.535 14.6201 364.251 13.9757 364.74C13.3312 365.24 12.5979 365.463 11.7757 365.407V364.057C12.7979 364.135 13.5479 363.579 14.0257 362.39L14.159 362.09L10.5423 353.74H12.0757L14.9257 360.274L17.3257 353.74Z" fill="black"/>
<path d="M27.3031 353.74V362.074H25.8531V355.124H21.5365V362.074H20.0865V353.74H27.3031Z" fill="black"/>
<path d="M33.427 362.29C32.1714 362.29 31.127 361.874 30.2936 361.04C29.4603 360.196 29.0436 359.151 29.0436 357.907C29.0436 356.663 29.4603 355.624 30.2936 354.79C31.127 353.946 32.1714 353.524 33.427 353.524C34.2492 353.524 34.9881 353.724 35.6436 354.124C36.2992 354.513 36.7881 355.04 37.1103 355.707L35.8936 356.407C35.6825 355.963 35.3547 355.607 34.9103 355.34C34.477 355.074 33.9825 354.94 33.427 354.94C32.5936 354.94 31.8936 355.224 31.327 355.79C30.7714 356.357 30.4936 357.063 30.4936 357.907C30.4936 358.74 30.7714 359.44 31.327 360.007C31.8936 360.574 32.5936 360.857 33.427 360.857C33.9825 360.857 34.4825 360.729 34.927 360.474C35.3714 360.207 35.7103 359.851 35.9436 359.407L37.177 360.124C36.8214 360.779 36.3103 361.307 35.6436 361.707C34.977 362.096 34.2381 362.29 33.427 362.29Z" fill="black"/>
<path d="M39.0207 362.257C38.7207 362.257 38.4651 362.151 38.254 361.94C38.0429 361.729 37.9374 361.474 37.9374 361.174C37.9374 360.874 38.0429 360.618 38.254 360.407C38.4651 360.196 38.7207 360.09 39.0207 360.09C39.3318 360.09 39.5874 360.196 39.7874 360.407C39.9985 360.618 40.104 360.874 40.104 361.174C40.104 361.474 39.9985 361.729 39.7874 361.94C39.5874 362.151 39.3318 362.257 39.0207 362.257Z" fill="black"/>
<path d="M43.0734 362.257C42.7734 362.257 42.5179 362.151 42.3068 361.94C42.0957 361.729 41.9901 361.474 41.9901 361.174C41.9901 360.874 42.0957 360.618 42.3068 360.407C42.5179 360.196 42.7734 360.09 43.0734 360.09C43.3845 360.09 43.6401 360.196 43.8401 360.407C44.0512 360.618 44.1568 360.874 44.1568 361.174C44.1568 361.474 44.0512 361.729 43.8401 361.94C43.6401 362.151 43.3845 362.257 43.0734 362.257Z" fill="black"/>
<path d="M47.1262 362.257C46.8262 362.257 46.5706 362.151 46.3595 361.94C46.1484 361.729 46.0428 361.474 46.0428 361.174C46.0428 360.874 46.1484 360.618 46.3595 360.407C46.5706 360.196 46.8262 360.09 47.1262 360.09C47.4373 360.09 47.6928 360.196 47.8928 360.407C48.1039 360.618 48.2095 360.874 48.2095 361.174C48.2095 361.474 48.1039 361.729 47.8928 361.94C47.6928 362.151 47.4373 362.257 47.1262 362.257Z" fill="black"/>
<path d="M7.99518 387.29C6.22852 387.29 4.7674 386.707 3.61185 385.54C2.4674 384.374 1.89518 382.94 1.89518 381.24C1.89518 379.54 2.4674 378.107 3.61185 376.94C4.7674 375.774 6.22852 375.19 7.99518 375.19C9.06185 375.19 10.0396 375.446 10.9285 375.957C11.8285 376.468 12.5285 377.157 13.0285 378.024L11.6785 378.807C11.3452 378.163 10.8452 377.651 10.1785 377.274C9.52296 376.885 8.79518 376.69 7.99518 376.69C6.65074 376.69 5.55074 377.124 4.69518 377.99C3.85074 378.857 3.42852 379.94 3.42852 381.24C3.42852 382.529 3.85074 383.607 4.69518 384.474C5.55074 385.34 6.65074 385.774 7.99518 385.774C8.79518 385.774 9.52296 385.585 10.1785 385.207C10.8452 384.818 11.3452 384.307 11.6785 383.674L13.0285 384.44C12.5396 385.307 11.8452 386.001 10.9452 386.524C10.0452 387.035 9.06185 387.29 7.99518 387.29Z" fill="black"/>
<path d="M20.8828 378.74V380.14H18.0495V387.074H16.5995V380.14H13.7495V378.74H20.8828Z" fill="black"/>
<path d="M26.7535 378.524C27.9202 378.524 28.9146 378.951 29.7368 379.807C30.5591 380.651 30.9702 381.685 30.9702 382.907C30.9702 384.129 30.5591 385.168 29.7368 386.024C28.9146 386.868 27.9202 387.29 26.7535 387.29C25.3757 387.29 24.3257 386.74 23.6035 385.64V390.407H22.1535V378.74H23.6035V380.174C24.3257 379.074 25.3757 378.524 26.7535 378.524ZM26.5702 385.89C27.4035 385.89 28.1035 385.607 28.6702 385.04C29.2368 384.463 29.5202 383.751 29.5202 382.907C29.5202 382.063 29.2368 381.357 28.6702 380.79C28.1035 380.213 27.4035 379.924 26.5702 379.924C25.7257 379.924 25.0202 380.213 24.4535 380.79C23.8868 381.357 23.6035 382.063 23.6035 382.907C23.6035 383.751 23.8868 384.463 24.4535 385.04C25.0202 385.607 25.7257 385.89 26.5702 385.89Z" fill="black"/>
<path d="M39.6004 378.74H41.0504V387.074H39.6004V385.64C38.8782 386.74 37.8282 387.29 36.4504 387.29C35.2837 387.29 34.2893 386.868 33.4671 386.024C32.6448 385.168 32.2337 384.129 32.2337 382.907C32.2337 381.685 32.6448 380.651 33.4671 379.807C34.2893 378.951 35.2837 378.524 36.4504 378.524C37.8282 378.524 38.8782 379.074 39.6004 380.174V378.74ZM36.6337 385.89C37.4782 385.89 38.1837 385.607 38.7504 385.04C39.3171 384.463 39.6004 383.751 39.6004 382.907C39.6004 382.063 39.3171 381.357 38.7504 380.79C38.1837 380.213 37.4782 379.924 36.6337 379.924C35.8004 379.924 35.1004 380.213 34.5337 380.79C33.9671 381.357 33.6837 382.063 33.6837 382.907C33.6837 383.751 33.9671 384.463 34.5337 385.04C35.1004 385.607 35.8004 385.89 36.6337 385.89Z" fill="black"/>
<path d="M49.0139 378.74H50.4639V387.074H49.0139V383.59H44.6973V387.074H43.2473V378.74H44.6973V382.207H49.0139V378.74Z" fill="black"/>
<path d="M58.7211 378.74H59.8878V387.074H58.4544V381.224L53.8378 387.074H52.6711V378.74H54.1044V384.59L58.7211 378.74Z" fill="black"/>
<path d="M69.0949 385.69H70.4616V389.307H69.0283V387.074H62.0949V378.74H63.5449V385.69H67.6449V378.74H69.0949V385.69Z" fill="black"/>
<path d="M78.5815 378.74H80.0315V387.074H78.5815V385.64C77.8593 386.74 76.8093 387.29 75.4315 387.29C74.2648 387.29 73.2704 386.868 72.4482 386.024C71.626 385.168 71.2148 384.129 71.2148 382.907C71.2148 381.685 71.626 380.651 72.4482 379.807C73.2704 378.951 74.2648 378.524 75.4315 378.524C76.8093 378.524 77.8593 379.074 78.5815 380.174V378.74ZM75.6148 385.89C76.4593 385.89 77.1648 385.607 77.7315 385.04C78.2982 384.463 78.5815 383.751 78.5815 382.907C78.5815 382.063 78.2982 381.357 77.7315 380.79C77.1648 380.213 76.4593 379.924 75.6148 379.924C74.7815 379.924 74.0815 380.213 73.5148 380.79C72.9482 381.357 72.6648 382.063 72.6648 382.907C72.6648 383.751 72.9482 384.463 73.5148 385.04C74.0815 385.607 74.7815 385.89 75.6148 385.89Z" fill="black"/>
<path d="M92.1617 378.74H93.6117V387.074H92.1617V383.59H87.845V387.074H86.3951V378.74H87.845V382.207H92.1617V378.74Z" fill="black"/>
<path d="M96.8355 383.574C96.98 384.318 97.3189 384.896 97.8522 385.307C98.3967 385.718 99.0633 385.924 99.8522 385.924C100.952 385.924 101.752 385.518 102.252 384.707L103.486 385.407C102.674 386.663 101.452 387.29 99.8189 387.29C98.4967 387.29 97.4189 386.879 96.5855 386.057C95.7633 385.224 95.3522 384.174 95.3522 382.907C95.3522 381.651 95.7578 380.607 96.5689 379.774C97.38 378.94 98.43 378.524 99.7189 378.524C100.941 378.524 101.936 378.957 102.702 379.824C103.48 380.679 103.869 381.713 103.869 382.924C103.869 383.135 103.852 383.351 103.819 383.574H96.8355ZM99.7189 379.89C98.9411 379.89 98.2967 380.113 97.7855 380.557C97.2744 380.99 96.9578 381.574 96.8355 382.307H102.402C102.28 381.518 101.969 380.918 101.469 380.507C100.969 380.096 100.386 379.89 99.7189 379.89Z" fill="black"/>
<path d="M115.469 378.74H116.919V387.074H115.469V383.59H111.152V387.074H109.702V378.74H111.152V382.207H115.469V378.74Z" fill="black"/>
<path d="M126.026 378.74H127.476V387.074H126.026V385.64C125.304 386.74 124.254 387.29 122.876 387.29C121.709 387.29 120.715 386.868 119.893 386.024C119.071 385.168 118.66 384.129 118.66 382.907C118.66 381.685 119.071 380.651 119.893 379.807C120.715 378.951 121.709 378.524 122.876 378.524C124.254 378.524 125.304 379.074 126.026 380.174V378.74ZM123.06 385.89C123.904 385.89 124.61 385.607 125.176 385.04C125.743 384.463 126.026 383.751 126.026 382.907C126.026 382.063 125.743 381.357 125.176 380.79C124.61 380.213 123.904 379.924 123.06 379.924C122.226 379.924 121.526 380.213 120.96 380.79C120.393 381.357 120.11 382.063 120.11 382.907C120.11 383.751 120.393 384.463 120.96 385.04C121.526 385.607 122.226 385.89 123.06 385.89Z" fill="black"/>
<path d="M131.04 377.49V376.224H135.54V377.49H131.04ZM135.723 378.74H136.89V387.074H135.456V381.224L130.84 387.074H129.673V378.74H131.106V384.59L135.723 378.74Z" fill="black"/>
<path d="M146.264 385.69H147.414V389.307H145.98V387.074H139.73V389.307H138.297V385.69H139.314C139.847 384.957 140.114 383.929 140.114 382.607V378.74H146.264V385.69ZM140.964 385.69H144.83V380.09H141.547V382.607C141.547 383.851 141.352 384.879 140.964 385.69Z" fill="black"/>
<path d="M149.668 383.574C149.812 384.318 150.151 384.896 150.684 385.307C151.229 385.718 151.895 385.924 152.684 385.924C153.784 385.924 154.584 385.518 155.084 384.707L156.318 385.407C155.506 386.663 154.284 387.29 152.651 387.29C151.329 387.29 150.251 386.879 149.418 386.057C148.595 385.224 148.184 384.174 148.184 382.907C148.184 381.651 148.59 380.607 149.401 379.774C150.212 378.94 151.262 378.524 152.551 378.524C153.773 378.524 154.768 378.957 155.534 379.824C156.312 380.679 156.701 381.713 156.701 382.924C156.701 383.135 156.684 383.351 156.651 383.574H149.668ZM152.551 379.89C151.773 379.89 151.129 380.113 150.618 380.557C150.106 380.99 149.79 381.574 149.668 382.307H155.234C155.112 381.518 154.801 380.918 154.301 380.507C153.801 380.096 153.218 379.89 152.551 379.89Z" fill="black"/>
<path d="M164.134 378.74H165.584V387.074H164.134V383.59H159.818V387.074H158.368V378.74H159.818V382.207H164.134V378.74Z" fill="black"/>
<path d="M174.692 378.74H176.142V387.074H174.692V385.64C173.969 386.74 172.919 387.29 171.542 387.29C170.375 387.29 169.38 386.868 168.558 386.024C167.736 385.168 167.325 384.129 167.325 382.907C167.325 381.685 167.736 380.651 168.558 379.807C169.38 378.951 170.375 378.524 171.542 378.524C172.919 378.524 173.969 379.074 174.692 380.174V378.74ZM171.725 385.89C172.569 385.89 173.275 385.607 173.842 385.04C174.408 384.463 174.692 383.751 174.692 382.907C174.692 382.063 174.408 381.357 173.842 380.79C173.275 380.213 172.569 379.924 171.725 379.924C170.892 379.924 170.192 380.213 169.625 380.79C169.058 381.357 168.775 382.063 168.775 382.907C168.775 383.751 169.058 384.463 169.625 385.04C170.192 385.607 170.892 385.89 171.725 385.89Z" fill="black"/>
</svg>
