<svg width="447" height="387" viewBox="0 0 447 387" fill="none" xmlns="http://www.w3.org/2000/svg">
<path d="M255.64 14.3035H227.33V20.8235H255.64V14.3035Z" fill="#C6B5DD"/>
<path d="M245.93 23.7235H227.33V30.2435H245.93V23.7235Z" fill="#C6B5DD"/>
<path d="M238.04 33.1435H227.33V39.6635H238.04V33.1435Z" fill="#C6B5DD"/>
<g opacity="0.2">
<path opacity="0.2" d="M255.64 14.3035H227.33V20.8235H255.64V14.3035Z" fill="black"/>
<path opacity="0.2" d="M245.93 23.7235H227.33V30.2435H245.93V23.7235Z" fill="black"/>
<path opacity="0.2" d="M238.04 33.1435H227.33V39.6635H238.04V33.1435Z" fill="black"/>
</g>
<path d="M178.167 86.5018V106.132H187.767V86.5018H178.167Z" fill="#C6B5DD"/>
<path d="M192.039 93.2392V106.129H201.639V93.2392H192.039Z" fill="#C6B5DD"/>
<path d="M205.903 98.7053V106.125H215.503V98.7053H205.903Z" fill="#C6B5DD"/>
<g opacity="0.2">
<path opacity="0.2" d="M178.167 86.5018V106.132H187.767V86.5018H178.167Z" fill="black"/>
<path opacity="0.2" d="M192.039 93.2392V106.129H201.639V93.2392H192.039Z" fill="black"/>
<path opacity="0.2" d="M205.903 98.7053V106.125H215.503V98.7053H205.903Z" fill="black"/>
</g>
<path d="M176.02 120.454H292.27C298.68 120.454 303.87 115.274 303.87 108.874V13.0735C303.87 6.68353 298.68 1.49353 292.27 1.49353H176.02C169.61 1.49353 164.42 6.67353 164.42 13.0735V108.874C164.42 115.274 169.62 120.454 176.02 120.454Z" stroke="#263238" stroke-width="1.0631" stroke-miterlimit="10"/>
<path d="M249.32 87.5635H290.77" stroke="#263238" stroke-width="1.0631" stroke-miterlimit="10"/>
<path d="M249.32 91.9935H290.77" stroke="#263238" stroke-width="1.0631" stroke-miterlimit="10"/>
<path d="M249.32 96.4235H290.77" stroke="#263238" stroke-width="1.0631" stroke-miterlimit="10"/>
<path d="M249.32 100.864H290.77" stroke="#263238" stroke-width="1.0631" stroke-miterlimit="10"/>
<path d="M249.32 105.294H290.77" stroke="#263238" stroke-width="1.0631" stroke-miterlimit="10"/>
<path d="M176.9 15.2735H218.35" stroke="#263238" stroke-width="1.0631" stroke-miterlimit="10"/>
<path d="M176.9 19.7035H218.35" stroke="#263238" stroke-width="1.0631" stroke-miterlimit="10"/>
<path d="M176.9 24.1335H218.35" stroke="#263238" stroke-width="1.0631" stroke-miterlimit="10"/>
<path d="M176.9 28.5635H218.35" stroke="#263238" stroke-width="1.0631" stroke-miterlimit="10"/>
<path d="M176.9 33.0035H218.35" stroke="#263238" stroke-width="1.0631" stroke-miterlimit="10"/>
<path d="M285.58 50.1135L293.49 54.2535L292.59 31.9735L273.71 43.8835L281.61 48.0235L275.66 59.3335C274.56 59.3335 273.56 59.7135 272.75 60.3335L262.29 55.4735C262.29 55.4535 262.3 55.4335 262.3 55.4235C262.3 52.7635 260.14 50.6135 257.48 50.6135C254.82 50.6135 252.66 52.7635 252.66 55.4235C252.66 56.1335 252.82 56.8035 253.1 57.4135L239.39 72.2735C238.96 72.1435 238.51 72.0635 238.04 72.0635C237.8 72.0635 237.57 72.1035 237.34 72.1335L217.64 47.2135C217.91 46.6135 218.06 45.9535 218.06 45.2635C218.06 42.6035 215.9 40.4535 213.24 40.4535C210.58 40.4535 208.42 42.6035 208.42 45.2635C208.42 45.7735 208.52 46.2635 208.67 46.7235L186.16 69.6435C185.64 69.4535 185.09 69.3335 184.51 69.3335C181.85 69.3335 179.69 71.4835 179.69 74.1435C179.69 76.8035 181.85 78.9535 184.51 78.9535C187.17 78.9535 189.33 76.8035 189.33 74.1435C189.33 73.7335 189.26 73.3435 189.17 72.9635L211.87 49.8435C212.31 49.9735 212.76 50.0635 213.24 50.0635C213.54 50.0635 213.83 50.0235 214.12 49.9735L233.72 74.7635C233.41 75.4035 233.22 76.1035 233.22 76.8635C233.22 79.5235 235.38 81.6735 238.04 81.6735C240.7 81.6735 242.86 79.5235 242.86 76.8635C242.86 76.3435 242.76 75.8535 242.6 75.3835L256.66 60.1435C256.93 60.1935 257.19 60.2235 257.47 60.2235C258.46 60.2235 259.39 59.9235 260.15 59.4035L270.85 64.3735C270.98 66.9135 273.07 68.9435 275.65 68.9435C278.31 68.9435 280.47 66.7935 280.47 64.1335C280.47 63.1235 280.15 62.1835 279.61 61.4035L285.58 50.1135Z" fill="#263238"/>
<path d="M137.85 71.9935L124.33 50.8735L101.99 67.3035L81.39 26.5335L27.03 61.0935V89.0135H149.61V65.5435L137.85 71.9935Z" fill="#263238" stroke="#263238" stroke-width="1.1606" stroke-miterlimit="10" stroke-linecap="round" stroke-linejoin="round"/>
<path d="M140.2 87.8435L125.51 65.5435L100.82 75.5235L72.01 47.9435L27.03 66.1035V106.624H149.61V81.3835L140.2 87.8435Z" fill="#C6B5DD" stroke="#263238" stroke-width="0.8766" stroke-miterlimit="10"/>
<path opacity="0.2" d="M140.2 87.8435L125.51 65.5435L100.82 75.5235L72.01 47.9435L27.03 66.1035V106.624H149.61V81.3835L140.2 87.8435Z" fill="black"/>
<path d="M140.2 87.8435L125.51 65.5435L100.82 75.5235L72.01 47.9435L27.03 66.1035V106.624H149.61V81.3835L140.2 87.8435Z" stroke="#263238" stroke-width="0.8766" stroke-miterlimit="10"/>
<path d="M96.6801 16.1935H86.8001C85.3201 16.1935 84.1201 17.3935 84.1201 18.8735C84.1201 19.9135 84.7202 20.8135 85.6002 21.2535L82.1501 24.9335L88.4401 21.5535H96.6801C98.1601 21.5535 99.3601 20.3535 99.3601 18.8735C99.3601 17.3935 98.1601 16.1935 96.6801 16.1935Z" fill="#C6B5DD"/>
<path opacity="0.2" d="M96.6801 16.1935H86.8001C85.3201 16.1935 84.1201 17.3935 84.1201 18.8735C84.1201 19.9135 84.7202 20.8135 85.6002 21.2535L82.1501 24.9335L88.4401 21.5535H96.6801C98.1601 21.5535 99.3601 20.3535 99.3601 18.8735C99.3601 17.3935 98.1601 16.1935 96.6801 16.1935Z" fill="black"/>
<path d="M139.91 40.0535H130.03C128.55 40.0535 127.35 41.2535 127.35 42.7335C127.35 43.7735 127.95 44.6735 128.83 45.1135L125.38 48.7935L131.67 45.4135H139.91C141.39 45.4135 142.59 44.2135 142.59 42.7335C142.59 41.2535 141.39 40.0535 139.91 40.0535Z" fill="#C6B5DD"/>
<path opacity="0.2" d="M139.91 40.0535H130.03C128.55 40.0535 127.35 41.2535 127.35 42.7335C127.35 43.7735 127.95 44.6735 128.83 45.1135L125.38 48.7935L131.67 45.4135H139.91C141.39 45.4135 142.59 44.2135 142.59 42.7335C142.59 41.2535 141.39 40.0535 139.91 40.0535Z" fill="black"/>
<path d="M31.98 120.454H148.23C154.63 120.454 159.83 115.274 159.83 108.874V13.0735C159.83 6.68353 154.64 1.49353 148.23 1.49353H31.98C25.57 1.49353 20.38 6.67353 20.38 13.0735V108.874C20.38 115.274 25.57 120.454 31.98 120.454Z" stroke="#263238" stroke-width="1.0631" stroke-miterlimit="10"/>
<path d="M29.21 14.4235H37.22" stroke="#263238" stroke-width="1.0631" stroke-miterlimit="10"/>
<path d="M29.21 23.1435H37.22" stroke="#263238" stroke-width="1.0631" stroke-miterlimit="10"/>
<path d="M29.21 31.8635H37.22" stroke="#263238" stroke-width="1.0631" stroke-miterlimit="10"/>
<path d="M29.21 40.5835H37.22" stroke="#263238" stroke-width="1.0631" stroke-miterlimit="10"/>
<path d="M29.21 49.3035H37.22" stroke="#263238" stroke-width="1.0631" stroke-miterlimit="10"/>
<path d="M343.8 26.2435C329.25 26.2435 317.42 38.0535 317.42 52.5835C317.42 67.1035 329.25 78.9235 343.8 78.9235C358.35 78.9235 370.18 67.1135 370.18 52.5835C370.18 38.0535 358.35 26.2435 343.8 26.2435ZM343.8 71.1835C333.52 71.1835 325.16 62.8335 325.16 52.5735C325.16 42.3135 333.52 33.9635 343.8 33.9635C354.08 33.9635 362.44 42.3135 362.44 52.5735C362.44 62.8335 354.08 71.1835 343.8 71.1835Z" fill="#C6B5DD" stroke="#263238" stroke-width="1.0631" stroke-miterlimit="10"/>
<g opacity="0.2">
<path opacity="0.2" d="M343.8 26.2435C329.25 26.2435 317.42 38.0535 317.42 52.5835C317.42 67.1035 329.25 78.9235 343.8 78.9235C358.35 78.9235 370.18 67.1135 370.18 52.5835C370.18 38.0535 358.35 26.2435 343.8 26.2435ZM343.8 71.1835C333.52 71.1835 325.16 62.8335 325.16 52.5735C325.16 42.3135 333.52 33.9635 343.8 33.9635C354.08 33.9635 362.44 42.3135 362.44 52.5735C362.44 62.8335 354.08 71.1835 343.8 71.1835Z" fill="black"/>
</g>
<path d="M343.8 26.2435C329.25 26.2435 317.42 38.0535 317.42 52.5835C317.42 67.1035 329.25 78.9235 343.8 78.9235C358.35 78.9235 370.18 67.1135 370.18 52.5835C370.18 38.0535 358.35 26.2435 343.8 26.2435ZM343.8 71.1835C333.52 71.1835 325.16 62.8335 325.16 52.5735C325.16 42.3135 333.52 33.9635 343.8 33.9635C354.08 33.9635 362.44 42.3135 362.44 52.5735C362.44 62.8335 354.08 71.1835 343.8 71.1835Z" stroke="#263238" stroke-width="1.0631" stroke-miterlimit="10"/>
<path d="M343.8 26.2435C336.54 26.2435 329.78 29.1235 324.75 34.3535L330.34 39.7035C333.89 36.0035 338.67 33.9735 343.8 33.9735C354.08 33.9735 362.44 42.3235 362.44 52.5835C362.44 62.8435 354.08 71.1935 343.8 71.1935V78.9235C358.35 78.9235 370.18 67.1135 370.18 52.5835C370.18 38.0535 358.35 26.2435 343.8 26.2435Z" fill="#263238" stroke="#263238" stroke-width="1.0631" stroke-miterlimit="10" stroke-linecap="round" stroke-linejoin="round"/>
<path d="M408.86 26.2435C394.31 26.2435 382.48 38.0535 382.48 52.5835C382.48 67.1035 394.32 78.9235 408.86 78.9235C423.41 78.9235 435.24 67.1135 435.24 52.5835C435.24 38.0535 423.41 26.2435 408.86 26.2435ZM408.86 71.1835C398.58 71.1835 390.22 62.8335 390.22 52.5735C390.22 42.3135 398.58 33.9635 408.86 33.9635C419.14 33.9635 427.5 42.3135 427.5 52.5735C427.5 62.8335 419.14 71.1835 408.86 71.1835Z" fill="#C6B5DD" stroke="#263238" stroke-width="1.0631" stroke-miterlimit="10"/>
<g opacity="0.2">
<path opacity="0.2" d="M408.86 26.2435C394.31 26.2435 382.48 38.0535 382.48 52.5835C382.48 67.1035 394.32 78.9235 408.86 78.9235C423.41 78.9235 435.24 67.1135 435.24 52.5835C435.24 38.0535 423.41 26.2435 408.86 26.2435ZM408.86 71.1835C398.58 71.1835 390.22 62.8335 390.22 52.5735C390.22 42.3135 398.58 33.9635 408.86 33.9635C419.14 33.9635 427.5 42.3135 427.5 52.5735C427.5 62.8335 419.14 71.1835 408.86 71.1835Z" fill="black"/>
</g>
<path d="M408.86 26.2435C394.31 26.2435 382.48 38.0535 382.48 52.5835C382.48 67.1035 394.32 78.9235 408.86 78.9235C423.41 78.9235 435.24 67.1135 435.24 52.5835C435.24 38.0535 423.41 26.2435 408.86 26.2435ZM408.86 71.1835C398.58 71.1835 390.22 62.8335 390.22 52.5735C390.22 42.3135 398.58 33.9635 408.86 33.9635C419.14 33.9635 427.5 42.3135 427.5 52.5735C427.5 62.8335 419.14 71.1835 408.86 71.1835Z" stroke="#263238" stroke-width="1.0631" stroke-miterlimit="10"/>
<path d="M419.13 28.3135L416.11 35.4335C423.03 38.3535 427.49 45.0835 427.49 52.5835C427.49 62.8435 419.13 71.1935 408.85 71.1935V78.9235C423.4 78.9235 435.23 67.1135 435.23 52.5835C435.24 41.9735 428.92 32.4435 419.13 28.3135Z" fill="#263238" stroke="#263238" stroke-width="1.0631" stroke-miterlimit="10" stroke-linecap="round" stroke-linejoin="round"/>
<path d="M431.8 1.49353H323.1C315.14 1.49353 308.68 7.93353 308.68 15.8835V106.054C308.68 114.004 315.14 120.444 323.1 120.444H431.8C439.76 120.444 446.22 114.004 446.22 106.054V15.8835C446.22 7.94353 439.77 1.49353 431.8 1.49353Z" stroke="#263238" stroke-width="1.0631" stroke-miterlimit="10"/>
<path d="M320.36 87.5635H361.8" stroke="#263238" stroke-width="1.0631" stroke-miterlimit="10"/>
<path d="M320.36 91.9935H361.8" stroke="#263238" stroke-width="1.0631" stroke-miterlimit="10"/>
<path d="M320.36 96.4235H361.8" stroke="#263238" stroke-width="1.0631" stroke-miterlimit="10"/>
<path d="M320.36 100.864H361.8" stroke="#263238" stroke-width="1.0631" stroke-miterlimit="10"/>
<path d="M320.36 105.294H361.8" stroke="#263238" stroke-width="1.0631" stroke-miterlimit="10"/>
<path d="M388.8 87.5635H430.25" stroke="#263238" stroke-width="1.0631" stroke-miterlimit="10"/>
<path d="M388.8 91.9935H430.25" stroke="#263238" stroke-width="1.0631" stroke-miterlimit="10"/>
<path d="M388.8 96.4235H430.25" stroke="#263238" stroke-width="1.0631" stroke-miterlimit="10"/>
<path d="M388.8 100.864H430.25" stroke="#263238" stroke-width="1.0631" stroke-miterlimit="10"/>
<path d="M388.8 105.294H430.25" stroke="#263238" stroke-width="1.0631" stroke-miterlimit="10"/>
<path d="M355.34 13.7035H396.78" stroke="#263238" stroke-width="1.0631" stroke-miterlimit="10"/>
<path d="M355.34 18.1435H396.78" stroke="#263238" stroke-width="1.0631" stroke-miterlimit="10"/>
<path d="M308.24 287.154H430.91C439.36 287.154 446.22 280.314 446.22 271.874V142.674C446.22 134.234 439.37 127.394 430.91 127.394H249.72C241.27 127.394 234.41 134.234 234.41 142.674V227.824" stroke="#263238" stroke-width="1.0631" stroke-miterlimit="10"/>
<path d="M293.76 202.744H264.58V245.154H293.76V202.744Z" fill="#C6B5DD" stroke="#263238" stroke-width="1.1606" stroke-miterlimit="10"/>
<path opacity="0.2" d="M293.76 202.744H264.58V245.154H293.76V202.744Z" fill="black"/>
<path d="M293.76 202.744H264.58V245.154H293.76V202.744Z" stroke="#263238" stroke-width="1.1606" stroke-miterlimit="10"/>
<path d="M334.28 181.534H305.1V228.484H334.28V181.534Z" fill="#C6B5DD" stroke="#263238" stroke-width="1.1606" stroke-miterlimit="10"/>
<path opacity="0.2" d="M334.28 181.534H305.1V228.484H334.28V181.534Z" fill="black"/>
<path d="M334.28 181.534H305.1V228.484H334.28V181.534Z" stroke="#263238" stroke-width="1.1606" stroke-miterlimit="10"/>
<path d="M374.8 164.124H345.62V195.174H374.8V164.124Z" fill="#C6B5DD" stroke="#263238" stroke-width="1.1606" stroke-miterlimit="10"/>
<path opacity="0.2" d="M374.8 164.124H345.62V195.174H374.8V164.124Z" fill="black"/>
<path d="M374.8 164.124H345.62V195.174H374.8V164.124Z" stroke="#263238" stroke-width="1.1606" stroke-miterlimit="10"/>
<path d="M293.76 245.144H264.58V262.564H293.76V245.144Z" fill="#263238" stroke="#263238" stroke-width="1.1606" stroke-miterlimit="10" stroke-linecap="round" stroke-linejoin="round"/>
<path d="M334.28 228.484H305.1V262.564H334.28V228.484Z" fill="#263238" stroke="#263238" stroke-width="1.1606" stroke-miterlimit="10" stroke-linecap="round" stroke-linejoin="round"/>
<path d="M412.93 181.534H383.75V228.484H412.93V181.534Z" fill="#C6B5DD" stroke="#263238" stroke-width="1.1606" stroke-miterlimit="10"/>
<path opacity="0.2" d="M412.93 181.534H383.75V228.484H412.93V181.534Z" fill="black"/>
<path d="M412.93 181.534H383.75V228.484H412.93V181.534Z" stroke="#263238" stroke-width="1.1606" stroke-miterlimit="10"/>
<path d="M412.93 228.484H383.75V262.564H412.93V228.484Z" fill="#263238" stroke="#263238" stroke-width="1.1606" stroke-miterlimit="10" stroke-linecap="round" stroke-linejoin="round"/>
<path d="M374.8 195.164H345.62V262.564H374.8V195.164Z" fill="#263238" stroke="#263238" stroke-width="1.1606" stroke-miterlimit="10" stroke-linecap="round" stroke-linejoin="round"/>
<path d="M329.22 164.184H311.02C309.28 164.184 307.87 165.594 307.87 167.334V171.524C307.87 173.264 309.28 174.674 311.02 174.674H317.76L320.12 178.754L322.48 174.674H329.22C330.96 174.674 332.37 173.264 332.37 171.524V167.334C332.37 165.594 330.96 164.184 329.22 164.184Z" fill="#C6B5DD"/>
<path opacity="0.5" d="M329.22 164.184H311.02C309.28 164.184 307.87 165.594 307.87 167.334V171.524C307.87 173.264 309.28 174.674 311.02 174.674H317.76L320.12 178.754L322.48 174.674H329.22C330.96 174.674 332.37 173.264 332.37 171.524V167.334C332.37 165.594 330.96 164.184 329.22 164.184Z" fill="white"/>
<path d="M329.22 164.184H311.02C309.28 164.184 307.87 165.594 307.87 167.334V171.524C307.87 173.264 309.28 174.674 311.02 174.674H317.76L320.12 178.754L322.48 174.674H329.22C330.96 174.674 332.37 173.264 332.37 171.524V167.334C332.37 165.594 330.96 164.184 329.22 164.184Z" stroke="#263238" stroke-width="1.1669" stroke-miterlimit="10" stroke-linecap="round" stroke-linejoin="round"/>
<path d="M288.27 185.934H270.07C268.33 185.934 266.92 187.344 266.92 189.084V193.274C266.92 195.014 268.33 196.424 270.07 196.424H276.81L279.17 200.504L281.53 196.424H288.27C290.01 196.424 291.42 195.014 291.42 193.274V189.084C291.42 187.344 290.01 185.934 288.27 185.934Z" fill="#C6B5DD"/>
<path opacity="0.5" d="M288.27 185.934H270.07C268.33 185.934 266.92 187.344 266.92 189.084V193.274C266.92 195.014 268.33 196.424 270.07 196.424H276.81L279.17 200.504L281.53 196.424H288.27C290.01 196.424 291.42 195.014 291.42 193.274V189.084C291.42 187.344 290.01 185.934 288.27 185.934Z" fill="white"/>
<path d="M288.27 185.934H270.07C268.33 185.934 266.92 187.344 266.92 189.084V193.274C266.92 195.014 268.33 196.424 270.07 196.424H276.81L279.17 200.504L281.53 196.424H288.27C290.01 196.424 291.42 195.014 291.42 193.274V189.084C291.42 187.344 290.01 185.934 288.27 185.934Z" stroke="#263238" stroke-width="1.1669" stroke-miterlimit="10" stroke-linecap="round" stroke-linejoin="round"/>
<path d="M369.13 146.714H350.93C349.19 146.714 347.78 148.124 347.78 149.864V154.054C347.78 155.794 349.19 157.204 350.93 157.204H357.67L360.03 161.284L362.39 157.204H369.13C370.87 157.204 372.28 155.794 372.28 154.054V149.864C372.28 148.124 370.87 146.714 369.13 146.714Z" fill="#C6B5DD"/>
<path opacity="0.5" d="M369.13 146.714H350.93C349.19 146.714 347.78 148.124 347.78 149.864V154.054C347.78 155.794 349.19 157.204 350.93 157.204H357.67L360.03 161.284L362.39 157.204H369.13C370.87 157.204 372.28 155.794 372.28 154.054V149.864C372.28 148.124 370.87 146.714 369.13 146.714Z" fill="white"/>
<path d="M369.13 146.714H350.93C349.19 146.714 347.78 148.124 347.78 149.864V154.054C347.78 155.794 349.19 157.204 350.93 157.204H357.67L360.03 161.284L362.39 157.204H369.13C370.87 157.204 372.28 155.794 372.28 154.054V149.864C372.28 148.124 370.87 146.714 369.13 146.714Z" stroke="#263238" stroke-width="1.1669" stroke-miterlimit="10" stroke-linecap="round" stroke-linejoin="round"/>
<path d="M407.44 163.914H389.24C387.5 163.914 386.09 165.324 386.09 167.064V171.254C386.09 172.994 387.5 174.404 389.24 174.404H395.98L398.34 178.484L400.7 174.404H407.44C409.18 174.404 410.59 172.994 410.59 171.254V167.064C410.6 165.324 409.18 163.914 407.44 163.914Z" fill="#C6B5DD"/>
<path opacity="0.5" d="M407.44 163.914H389.24C387.5 163.914 386.09 165.324 386.09 167.064V171.254C386.09 172.994 387.5 174.404 389.24 174.404H395.98L398.34 178.484L400.7 174.404H407.44C409.18 174.404 410.59 172.994 410.59 171.254V167.064C410.6 165.324 409.18 163.914 407.44 163.914Z" fill="white"/>
<path d="M407.44 163.914H389.24C387.5 163.914 386.09 165.324 386.09 167.064V171.254C386.09 172.994 387.5 174.404 389.24 174.404H395.98L398.34 178.484L400.7 174.404H407.44C409.18 174.404 410.59 172.994 410.59 171.254V167.064C410.6 165.324 409.18 163.914 407.44 163.914Z" stroke="#263238" stroke-width="1.1669" stroke-miterlimit="10" stroke-linecap="round" stroke-linejoin="round"/>
<path d="M265.57 140.754H307.02" stroke="#263238" stroke-width="1.0631" stroke-miterlimit="10"/>
<path d="M265.57 145.184H307.02" stroke="#263238" stroke-width="1.0631" stroke-miterlimit="10"/>
<path d="M265.57 149.624H307.02" stroke="#263238" stroke-width="1.0631" stroke-miterlimit="10"/>
<path d="M265.57 154.054H307.02" stroke="#263238" stroke-width="1.0631" stroke-miterlimit="10"/>
<path d="M265.57 158.484H307.02" stroke="#263238" stroke-width="1.0631" stroke-miterlimit="10"/>
<path d="M196.64 329.604L152.32 334.724L165.93 347.324L196.49 344.674" fill="#263238"/>
<path d="M196.64 329.604L152.32 334.724L165.93 347.324L196.49 344.674" stroke="#263238" stroke-width="0.9699" stroke-miterlimit="10" stroke-linecap="round" stroke-linejoin="round"/>
<path d="M166.77 336.734L195.16 333.634" stroke="white" stroke-width="0.4849" stroke-miterlimit="10" stroke-linecap="round" stroke-linejoin="round"/>
<path d="M168.99 339.834L194.72 337.624" stroke="white" stroke-width="0.4849" stroke-miterlimit="10" stroke-linecap="round" stroke-linejoin="round"/>
<path d="M171.65 342.494L195.16 340.274" stroke="white" stroke-width="0.4849" stroke-miterlimit="10" stroke-linecap="round" stroke-linejoin="round"/>
<path d="M169.6 334.914L177.69 343.734" stroke="white" stroke-width="0.4849" stroke-miterlimit="10" stroke-linecap="round" stroke-linejoin="round"/>
<path d="M175.59 334.624L183.63 342.934" stroke="white" stroke-width="0.4849" stroke-miterlimit="10" stroke-linecap="round" stroke-linejoin="round"/>
<path d="M181.81 333.734L189.84 342.044" stroke="white" stroke-width="0.4849" stroke-miterlimit="10" stroke-linecap="round" stroke-linejoin="round"/>
<path d="M188.46 333.294L195.16 340.274" stroke="white" stroke-width="0.4849" stroke-miterlimit="10" stroke-linecap="round" stroke-linejoin="round"/>
<path d="M151.32 224.664C149.86 224.034 143.1 197.734 143.1 197.734L139.62 187.824C139.62 187.824 134.39 169.964 132.39 166.654C130.4 163.344 122.43 160.684 122.43 160.684L119.44 159.024L106.49 152.064L106.5 152.144L104.63 148.234L82.25 130.194C82.25 130.194 82.65 134.534 83.24 138.814C83.18 138.854 78.59 141.814 76.94 144.444C76.63 144.934 76.37 145.984 75.12 148.734C70.16 151.314 51.29 161.184 45.06 165.994C37.75 171.634 36.43 175.604 36.76 178.924L37.09 184.224C37.09 184.224 40.21 203.184 43.47 212.594L43.07 212.404L42.96 329.024L136.45 325.434L136.59 238.804C139.79 237.754 143.12 236.524 145.13 235.634L145.63 236.084C145.63 236.084 148.53 238.204 149.85 239.174C151.17 240.134 152.87 240.574 154.67 240.064C156.46 239.554 155.34 237.434 154.03 236.734C153.21 236.304 151.24 234.524 151.24 234.524L147.34 229.664C149.68 230.084 153.44 230.744 154.99 230.964C157.31 231.294 160.3 231.954 160.64 228.974C160.95 225.994 153.65 225.664 151.32 224.664Z" fill="white"/>
<path d="M82.25 130.194C82.25 130.194 83.53 144.294 84.36 146.844C85.11 149.134 88.9 161.694 92.22 167.324C95.54 172.964 99.59 172.274 100.19 165.994C100.79 159.654 100.5 149.434 100.5 149.434" stroke="#263238" stroke-width="0.9699" stroke-miterlimit="10" stroke-linecap="round" stroke-linejoin="round"/>
<path d="M83.0101 139.104C83.0101 139.104 78.6001 141.784 76.9401 144.444C75.2801 147.094 68.3101 171.624 68.3101 171.624L81.5901 172.284L70.3001 177.254" stroke="#263238" stroke-width="0.9699" stroke-miterlimit="10" stroke-linecap="round" stroke-linejoin="round"/>
<path d="M70.6299 180.244C70.6299 180.244 81.9199 198.804 83.5799 200.794C85.2399 202.784 86.2399 204.774 86.2399 204.774" stroke="#263238" stroke-width="0.9699" stroke-miterlimit="10" stroke-linecap="round" stroke-linejoin="round"/>
<path d="M83.9099 144.774C83.9099 144.774 89.5599 167.984 92.8799 180.244C96.1999 192.514 99.5199 207.754 99.5199 207.754" stroke="#263238" stroke-width="0.9699" stroke-miterlimit="10" stroke-linecap="round" stroke-linejoin="round"/>
<path d="M100.51 152.074C100.51 152.074 101.84 178.924 101.84 189.534C101.84 200.144 101.84 206.444 101.84 206.444" stroke="#263238" stroke-width="0.9699" stroke-miterlimit="10" stroke-linecap="round" stroke-linejoin="round"/>
<path d="M105.16 149.414L114.13 167.654L106.82 169.974L118.11 176.274L107.82 208.424" stroke="#263238" stroke-width="0.9699" stroke-miterlimit="10" stroke-linecap="round" stroke-linejoin="round"/>
<path d="M106.49 152.074L119.44 159.034" stroke="#263238" stroke-width="0.9699" stroke-miterlimit="10" stroke-linecap="round" stroke-linejoin="round"/>
<path d="M129.74 179.254L131.4 210.414" stroke="#263238" stroke-width="0.9699" stroke-miterlimit="10" stroke-linecap="round" stroke-linejoin="round"/>
<path d="M74.9399 148.754C74.9399 148.754 52.3599 160.354 45.0499 165.994C37.7399 171.634 36.4199 175.604 36.7499 178.924" stroke="#263238" stroke-width="0.9699" stroke-miterlimit="10" stroke-linecap="round" stroke-linejoin="round"/>
<path d="M43.0599 212.404V328.424" stroke="#263238" stroke-width="0.9699" stroke-miterlimit="10" stroke-linecap="round" stroke-linejoin="round"/>
<path d="M101.51 240.914V324.124" stroke="#263238" stroke-width="0.9699" stroke-miterlimit="10" stroke-linecap="round" stroke-linejoin="round"/>
<path d="M51.1699 177.274C51.1699 177.274 58.7999 179.934 62.2299 186.404" stroke="#263238" stroke-width="0.9699" stroke-miterlimit="10" stroke-linecap="round" stroke-linejoin="round"/>
<path d="M56.1199 176.894C56.1199 176.894 62.9799 179.554 66.0299 186.024" stroke="#263238" stroke-width="0.9699" stroke-miterlimit="10" stroke-linecap="round" stroke-linejoin="round"/>
<path d="M51.55 283.384H76.83V288.344H52.4501" stroke="#263238" stroke-width="0.9699" stroke-miterlimit="10" stroke-linecap="round" stroke-linejoin="round"/>
<path d="M145.03 202.114C142.64 196.164 140.65 191.084 139.61 187.834C139.83 190.194 138.89 195.134 135.33 198.614C128.43 205.354 126.47 203.014 126.79 212.374C127.1 221.734 130.8 225.984 128.48 233.964C126.16 241.944 116.12 249.794 116.44 263.644C116.51 266.564 117.42 269.484 118.91 272.274L77.3198 327.844L136.85 326.094V246.614L145.03 202.114Z" fill="#C6B5DD"/>
<path opacity="0.7" d="M145.03 202.114C142.64 196.164 140.65 191.084 139.61 187.834C139.83 190.194 138.89 195.134 135.33 198.614C128.43 205.354 126.47 203.014 126.79 212.374C127.1 221.734 130.8 225.984 128.48 233.964C126.16 241.944 116.12 249.794 116.44 263.644C116.51 266.564 117.42 269.484 118.91 272.274L77.3198 327.844L136.85 326.094V246.614L145.03 202.114Z" fill="white"/>
<path d="M136.89 288.094V322.624" stroke="#263238" stroke-width="0.9699" stroke-miterlimit="10" stroke-linecap="round" stroke-linejoin="round"/>
<path d="M117.45 102.674C119.44 102.344 129.41 96.0436 127.74 89.7436C126.08 83.4436 112.13 75.8236 101.17 79.4636C90.21 83.1036 83.24 89.7436 83.24 89.7436C83.24 89.7436 75.93 89.7436 73.28 92.7236C70.62 95.7036 72.62 100.344 74.28 103.664C75.72 106.544 75.66 114.154 75.62 116.114C75.53 116.114 75.44 116.124 75.36 116.174C74.17 116.884 73.42 117.874 73.14 119.114C72.69 121.124 73.52 123.784 75.53 126.804C77.92 130.394 81.08 130.674 82.02 130.674C82.03 130.674 82.03 130.674 82.04 130.674C82.4 131.074 83.36 132.254 84.12 134.024C84.96 135.984 93.33 148.864 98.14 149.234C98.83 149.284 99.49 149.314 100.12 149.314C104.25 149.314 107.25 148.204 108.86 146.054C110.98 143.224 116.27 131.814 116.92 126.264C117.03 125.314 117.1 124.014 117.13 122.524C117.82 121.604 118.25 120.484 118.25 119.244C118.25 117.994 117.81 116.864 117.11 115.944C116.99 110.084 116.68 103.994 116.61 102.594C116.91 102.684 117.19 102.714 117.45 102.674Z" fill="white"/>
<path d="M116.12 102.344C116.12 102.344 117.12 120.574 116.45 126.214C115.79 131.854 110.47 143.124 108.48 145.774C106.49 148.424 102.5 149.084 98.19 148.754C93.87 148.424 85.57 136.154 84.57 133.834C83.57 131.514 82.25 130.184 82.25 130.184C82.25 130.184 78.6 130.514 75.94 126.534C73.28 122.554 72.29 118.574 75.61 116.584" stroke="#263238" stroke-width="0.9699" stroke-miterlimit="10" stroke-linecap="round" stroke-linejoin="round"/>
<path d="M101.84 120.244C101.84 120.244 104.16 116.264 106.49 118.584L108.15 129.194L103.17 130.524L103.83 135.824" stroke="#263238" stroke-width="0.9699" stroke-miterlimit="10" stroke-linecap="round" stroke-linejoin="round"/>
<path d="M101.84 120.244C101.84 117.494 99.6099 115.274 96.8599 115.274C94.1099 115.274 91.8799 117.504 91.8799 120.244C91.8799 122.994 94.1099 125.214 96.8599 125.214C99.6099 125.214 101.84 122.994 101.84 120.244Z" fill="#C6B5DD" stroke="#263238" stroke-width="0.9699" stroke-miterlimit="10" stroke-linecap="round" stroke-linejoin="round"/>
<path opacity="0.4" d="M101.84 120.244C101.84 117.494 99.6099 115.274 96.8599 115.274C94.1099 115.274 91.8799 117.504 91.8799 120.244C91.8799 122.994 94.1099 125.214 96.8599 125.214C99.6099 125.214 101.84 122.994 101.84 120.244Z" fill="white" stroke="#263238" stroke-width="1.1669" stroke-miterlimit="10"/>
<path d="M117.78 119.254C117.78 116.504 115.55 114.284 112.8 114.284C110.05 114.284 107.82 116.514 107.82 119.254C107.82 121.994 110.05 124.224 112.8 124.224C115.55 124.224 117.78 121.994 117.78 119.254Z" fill="#C6B5DD" stroke="#263238" stroke-width="0.9699" stroke-miterlimit="10" stroke-linecap="round" stroke-linejoin="round"/>
<path opacity="0.4" d="M117.78 119.254C117.78 116.504 115.55 114.284 112.8 114.284C110.05 114.284 107.82 116.514 107.82 119.254C107.82 121.994 110.05 124.224 112.8 124.224C115.55 124.224 117.78 121.994 117.78 119.254Z" fill="white" stroke="#263238" stroke-width="1.1669" stroke-miterlimit="10"/>
<path d="M91.8799 120.244L81.9199 120.904" stroke="#263238" stroke-width="0.9699" stroke-miterlimit="10" stroke-linecap="round" stroke-linejoin="round"/>
<path d="M91.96 113.334C91.96 113.334 94.63 110.674 99.59 112.194" stroke="#263238" stroke-width="0.9699" stroke-miterlimit="10" stroke-linecap="round" stroke-linejoin="round"/>
<path d="M108.74 111.814C108.74 111.814 113.7 109.154 115.22 112.574" stroke="#263238" stroke-width="0.9699" stroke-miterlimit="10" stroke-linecap="round" stroke-linejoin="round"/>
<path d="M85.8999 103.004C85.8999 103.004 88.5599 109.304 89.2199 110.294C89.8799 111.284 85.8999 115.934 85.8999 115.934V120.574L81.9099 120.904L77.9199 117.254L75.5999 116.594C75.5999 116.594 75.9299 106.984 74.2699 103.664C72.6099 100.344 70.6199 95.7036 73.2699 92.7236C75.9299 89.7436 83.2299 89.7436 83.2299 89.7436C83.2299 89.7436 90.1999 83.1136 101.16 79.4636C112.12 75.8136 126.07 83.4436 127.73 89.7436C129.39 96.0436 119.43 102.344 117.44 102.674C115.45 103.004 112.46 99.0236 109.47 99.0236C106.48 99.0236 108.14 99.0236 104.82 99.0236C101.5 99.0236 101.17 98.6936 97.5099 98.6936C93.8699 98.6936 85.8999 103.004 85.8999 103.004Z" fill="#263238"/>
<path d="M90.0599 97.5636C90.0599 97.5636 95.7299 94.4236 98.5699 89.0736C101.41 83.7236 91.9499 86.2436 89.4299 89.7036C86.9099 93.1636 92.8999 91.9036 92.8999 91.9036" stroke="white" stroke-width="0.4849" stroke-miterlimit="10" stroke-linecap="round" stroke-linejoin="round"/>
<path d="M85.8998 103.004C85.8998 103.004 82.4998 106.684 78.0898 106.994" stroke="white" stroke-width="0.4849" stroke-miterlimit="10" stroke-linecap="round" stroke-linejoin="round"/>
<path d="M87.5399 107.634C87.5399 107.634 81.5499 110.464 78.3999 110.464" stroke="white" stroke-width="0.4849" stroke-miterlimit="10" stroke-linecap="round" stroke-linejoin="round"/>
<path d="M78.3999 112.974C78.3999 112.974 83.1299 113.914 85.6499 112.974" stroke="white" stroke-width="0.4849" stroke-miterlimit="10" stroke-linecap="round" stroke-linejoin="round"/>
<path d="M95.0999 98.1936C95.0999 98.1936 97.6199 97.8836 105.81 95.0536C114 92.2236 116.84 89.0836 111.48 84.9936" stroke="white" stroke-width="0.4849" stroke-miterlimit="10" stroke-linecap="round" stroke-linejoin="round"/>
<path d="M259.7 275.974C259.7 275.974 246.65 241.264 243.3 237.924C239.95 234.584 223.16 224.354 223.16 224.354L221.81 222.044L220.99 219.234C220.99 219.234 220.01 215.004 217.11 212.914L216.88 212.424L197.08 203.934C197.08 203.934 197.22 206.554 197.43 209.714C195.09 210.564 189.89 212.834 188.11 216.904C186.96 219.534 186.29 223.894 185.96 228.014L185.15 228.614L185.46 227.514C185.46 227.514 163.54 239.784 162.55 241.764C161.28 243.434 157.97 254.214 157.97 254.214C157.97 254.214 154.66 264.554 151.04 275.984C145.92 291.704 140.97 307.414 140.66 309.924C140.61 310.154 140.64 310.044 140.64 310.044C140.31 314.354 156.78 330.244 156.78 330.244L157 330.204L158.96 332.254C158.96 332.254 158.96 332.054 159.01 331.424C160.41 334.254 162.67 338.434 164.47 337.544C165.95 336.814 165.5 334.244 164.27 330.894C165.76 333.164 167.48 334.814 168.83 334.154C171.18 332.994 170.01 328.984 167.66 323.244C167.24 322.214 166.37 321.494 165.4 321.184C166.15 321.104 166.93 321.024 167.72 320.924C168.5 324.594 170.28 327.774 172.26 327.344C174.33 326.904 174.55 324.384 174.16 319.964C174.36 319.924 174.63 319.374 174.83 319.334C175.71 322.424 177.06 325.174 178.76 324.814C180.63 324.414 181.14 322.564 180.92 318.794C180.87 317.394 180.82 316.954 180.77 316.064C181.49 316.514 185.08 318.684 185.49 318.984C186.82 319.974 196.94 317.824 196.94 317.824C211.72 313.044 235.36 312.854 250.61 302.604C260.77 295.784 259.7 275.974 259.7 275.974ZM166.54 304.364L170.55 278.054L172.14 302.034L171.67 307.954L166.54 304.364Z" fill="white"/>
<path d="M162.61 241.244L186.42 227.204C186.42 227.204 187.9 214.454 190.95 213.144C190.95 213.144 195.13 209.494 199.88 210.214C202.6 210.624 204.61 207.244 206.15 201.304C206.15 189.584 205.99 174.644 205.87 165.324C204.82 160.724 203.79 156.974 203.43 155.524L192.21 150.794C192.21 150.794 189.8 142.684 177.47 140.884C165.13 139.084 151.9 152.294 150.39 161.304C148.89 170.314 157.61 179.924 154.3 185.034C150.99 190.144 137.15 197.644 133.54 206.364C129.93 215.074 130.83 221.084 130.83 221.084C130.83 221.084 140.76 235.204 138.05 240.004C135.34 244.814 119.4 249.314 119.7 263.434C119.98 276.524 132.93 285.734 147.28 287.484L162.61 241.244Z" fill="#263238"/>
<path d="M188.66 153.224C188.66 153.224 180.15 143.474 169.44 146.624C158.73 149.764 154.63 161.094 156.84 166.754C159.05 172.414 164.09 177.134 160.31 185.624C156.53 194.114 147.08 195.374 142.35 205.124C137.62 214.874 138.88 218.014 138.88 218.014" stroke="white" stroke-width="0.4849" stroke-miterlimit="10" stroke-linecap="round" stroke-linejoin="round"/>
<path d="M182.99 161.404C182.99 161.404 175.11 162.344 175.11 167.384C175.11 172.414 179.52 174.934 180.15 181.224C180.78 187.514 178.89 190.034 174.16 197.894C169.43 205.754 169.12 209.844 172.58 215.194C176.05 220.544 178.25 229.344 173.84 232.494" stroke="white" stroke-width="0.4849" stroke-miterlimit="10" stroke-linecap="round" stroke-linejoin="round"/>
<path d="M184.88 155.114C184.88 155.114 175.43 150.084 167.87 154.804C160.31 159.524 170.39 168.954 171.65 177.764C172.91 186.574 166.61 192.854 158.1 202.294C149.59 211.724 151.8 223.364 151.8 223.364" stroke="white" stroke-width="0.4849" stroke-miterlimit="10" stroke-linecap="round" stroke-linejoin="round"/>
<path d="M151.18 234.364C151.18 234.364 153.39 239.084 147.4 245.374C141.41 251.664 128.5 253.234 125.35 262.674C122.2 272.104 128.5 277.144 128.5 277.144" stroke="white" stroke-width="0.4849" stroke-miterlimit="10" stroke-linecap="round" stroke-linejoin="round"/>
<path d="M197.15 203.414C197.15 203.414 197.81 216.054 198.48 219.374C199.14 222.684 201.82 234.504 202.83 244.944C203.74 254.284 205.85 260.904 205.85 260.904C205.85 260.904 213.94 292.324 214.42 252.854C214.59 238.924 213.09 217.054 213.09 217.054L213.75 210.424" fill="white"/>
<path opacity="0.3" d="M210.68 211.494L198.48 219.364L197.7 206.074C197.7 206.074 205.85 210.894 210.68 211.494Z" fill="#C6B5DD"/>
<path opacity="0.3" d="M213.09 217.044C213.09 217.044 212.69 239.604 211.59 249.144C210.49 258.674 213.43 267.114 213.43 267.114C213.43 267.114 214.96 232.244 213.09 217.044Z" fill="#C6B5DD"/>
<path d="M197.15 203.414C197.15 203.414 197.81 216.054 198.48 219.374C199.14 222.684 201.82 234.504 202.83 244.944C203.74 254.284 205.85 260.904 205.85 260.904C205.85 260.904 213.94 292.324 214.42 252.854C214.59 238.924 213.09 217.054 213.09 217.054L213.75 210.424" stroke="#263238" stroke-width="0.9699" stroke-miterlimit="10" stroke-linecap="round" stroke-linejoin="round"/>
<path d="M188.35 256.374L186.24 260.894L200.12 274.444L188.35 256.374Z" fill="#C6B5DD"/>
<path opacity="0.7" d="M188.35 256.374L186.24 260.894L200.12 274.444L188.35 256.374Z" fill="white"/>
<path d="M172.18 266.364C172.18 266.364 176.82 255.644 178.28 258.084C179.74 260.524 170.47 270.994 174.13 272.454C177.79 273.914 183.16 268.554 181.45 272.944C179.74 277.324 176.81 282.444 176.81 284.634C176.81 286.824 177.79 308.504 177.79 308.504L178.03 309.964L175.1 311.914C175.1 311.914 171.93 308.744 171.93 306.064C171.93 303.384 171.44 292.664 171.44 290.234C171.44 287.794 170.3 279.214 170.3 279.214L172.18 266.364Z" fill="#C6B5DD"/>
<path opacity="0.7" d="M172.18 266.364C172.18 266.364 176.82 255.644 178.28 258.084C179.74 260.524 170.47 270.994 174.13 272.454C177.79 273.914 183.16 268.554 181.45 272.944C179.74 277.324 176.81 282.444 176.81 284.634C176.81 286.824 177.79 308.504 177.79 308.504L178.03 309.964L175.1 311.914C175.1 311.914 171.93 308.744 171.93 306.064C171.93 303.384 171.44 292.664 171.44 290.234C171.44 287.794 170.4 278.634 170.4 278.634L172.18 266.364Z" fill="white"/>
<path d="M197.31 209.644C197.31 209.644 190.51 211.074 188.19 216.384C185.87 221.684 185.53 233.954 185.87 237.264C186.2 240.574 185.87 245.224 185.87 245.224L195.17 242.244" fill="white"/>
<path opacity="0.3" d="M198.59 218.064C198.59 218.064 194.87 217.854 190.95 220.954C187.02 224.044 186.61 229.614 186.61 229.614C186.61 229.614 185.37 223.014 187.85 217.234C190.33 211.464 197.31 209.644 197.31 209.644L198.59 218.064Z" fill="#C6B5DD"/>
<path d="M197.31 209.644C197.31 209.644 190.51 211.074 188.19 216.384C185.87 221.684 185.53 233.954 185.87 237.264C186.2 240.574 185.87 245.224 185.87 245.224L195.17 242.244" stroke="#263238" stroke-width="0.9699" stroke-miterlimit="10" stroke-linecap="round" stroke-linejoin="round"/>
<path d="M197.48 242.904L187.19 254.504C187.19 254.504 194.83 266.434 198.48 270.414" stroke="#263238" stroke-width="0.9699" stroke-miterlimit="10" stroke-linecap="round" stroke-linejoin="round"/>
<path d="M223.72 268.754L229.03 248.534L219.73 241.574L227.04 239.254L221.06 218.704C221.06 218.704 219.95 213.544 216.07 211.884" stroke="#263238" stroke-width="0.9699" stroke-miterlimit="10" stroke-linecap="round" stroke-linejoin="round"/>
<path d="M202.46 232.954C202.46 232.954 205.78 236.934 209.43 236.274C213.08 235.614 213.08 233.624 213.08 233.624" stroke="#263238" stroke-width="0.9699" stroke-miterlimit="10" stroke-linecap="round" stroke-linejoin="round"/>
<path d="M169.99 237.134C169.99 237.134 164.62 242.984 164.87 244.444C165.11 245.904 171.46 248.584 169.99 250.294C168.53 252.004 164.87 247.854 164.13 248.594C163.4 249.324 149.98 295.114 151.2 295.844C152.42 296.574 155.35 293.894 156.08 295.604C156.81 297.304 143.88 302.184 146.56 303.644C149.24 305.104 155.83 301.944 154.61 302.424C153.39 302.914 149.73 307.534 150.71 309.484C151.69 311.434 162.14 321.314 162.14 321.314C162.14 321.314 159.98 322.144 160.71 324.584C161.44 327.024 162.66 327.754 162.66 327.754C162.66 327.754 159.86 325.444 159.43 327.944C159 330.434 159 331.904 159 331.904L152.15 325.124C146.57 319.444 142.03 314.124 140.69 309.554C140.69 309.554 140.46 310.224 141.92 304.864C143.38 299.504 158.02 253.714 158.02 253.714C158.02 253.714 161.33 242.934 162.6 241.264C163.89 239.574 169.99 237.134 169.99 237.134Z" fill="#C6B5DD"/>
<path opacity="0.7" d="M169.99 237.134C169.99 237.134 164.62 242.984 164.87 244.444C165.11 245.904 171.46 248.584 169.99 250.294C168.53 252.004 164.87 247.854 164.13 248.594C163.4 249.324 149.98 295.114 151.2 295.844C152.42 296.574 155.35 293.894 156.08 295.604C156.81 297.304 143.88 302.184 146.56 303.644C149.24 305.104 155.83 301.944 154.61 302.424C153.39 302.914 149.73 307.534 150.71 309.484C151.69 311.434 162.14 321.314 162.14 321.314C162.14 321.314 159.98 322.144 160.71 324.584C161.44 327.024 162.66 327.754 162.66 327.754C162.66 327.754 159.86 325.444 159.43 327.944C159 330.434 158.79 332.084 158.79 332.084L152.15 325.114C145.23 318.204 140.95 312.754 140.69 309.544C140.69 309.544 139.88 311.064 141.92 304.854C143.65 299.574 158.02 253.704 158.02 253.704C158.02 253.704 161.33 242.924 162.6 241.254C163.89 239.574 169.99 237.134 169.99 237.134Z" fill="white"/>
<path d="M182.01 230.474V249.144L193.78 246.134L197.7 241.614L185.63 244.024L186.42 227.204L182.01 230.474Z" fill="#C6B5DD"/>
<path opacity="0.7" d="M182.01 230.474V249.144L193.78 246.134L197.7 241.614L185.63 244.024L186.42 227.204L182.01 230.474Z" fill="white"/>
<path d="M185.53 226.994C185.53 226.994 163.61 239.264 162.62 241.244C161.62 243.234 141.03 305.224 140.7 309.534C140.37 313.844 156.97 330.084 156.97 330.084" stroke="#263238" stroke-width="0.9699" stroke-miterlimit="10" stroke-linecap="round" stroke-linejoin="round"/>
<path d="M173.24 258.154L166.6 303.894" stroke="#263238" stroke-width="0.9699" stroke-miterlimit="10" stroke-linecap="round" stroke-linejoin="round"/>
<path d="M173.9 255.494L174.9 250.854" stroke="#263238" stroke-width="0.9699" stroke-miterlimit="10" stroke-linecap="round" stroke-linejoin="round"/>
<path d="M147.67 306.554C147.67 306.554 151.99 300.584 158.3 300.914C164.61 301.244 173.91 310.194 173.91 310.194" stroke="#263238" stroke-width="0.9699" stroke-miterlimit="10" stroke-linecap="round" stroke-linejoin="round"/>
<path d="M149.66 299.584C149.66 299.584 153.98 295.274 159.95 298.924" stroke="#263238" stroke-width="0.9699" stroke-miterlimit="10" stroke-linecap="round" stroke-linejoin="round"/>
<path d="M180.44 313.394C180.11 311.034 177.52 309.534 175.41 310.654C174.65 311.054 174.06 311.724 173.95 312.824C173.58 316.464 175.83 325.434 178.82 324.804C181.39 324.254 181.31 319.534 180.44 313.394Z" fill="white" stroke="#263238" stroke-width="0.9699" stroke-miterlimit="10" stroke-linecap="round" stroke-linejoin="round"/>
<path d="M173.8 316.044C173.47 313.684 170.88 312.184 168.77 313.304C168.01 313.704 167.42 314.374 167.31 315.474C166.94 319.114 169.19 328.084 172.18 327.454C174.75 326.904 174.67 322.194 173.8 316.044Z" fill="white" stroke="#263238" stroke-width="0.9699" stroke-miterlimit="10" stroke-linecap="round" stroke-linejoin="round"/>
<path d="M167.7 322.724C166.77 320.524 163.92 319.704 162.14 321.304C161.5 321.884 161.1 322.674 161.26 323.764C161.8 327.384 166.21 335.574 168.93 334.174C171.29 332.984 169.99 328.144 167.7 322.724Z" fill="white" stroke="#263238" stroke-width="0.9699" stroke-miterlimit="10" stroke-linecap="round" stroke-linejoin="round"/>
<path d="M163.4 329.124C162.72 327.474 160.57 326.864 159.25 328.064C158.77 328.494 158.47 329.094 158.59 329.904C159 332.614 162.27 338.704 164.33 337.694C166.09 336.824 165.16 333.424 163.4 329.124Z" fill="white" stroke="#263238" stroke-width="0.9699" stroke-miterlimit="10" stroke-linecap="round" stroke-linejoin="round"/>
<path d="M180.99 315.844C180.99 315.844 183.59 318.654 185.52 319.254C187.11 319.744 195.38 318.254 195.38 318.254" stroke="#263238" stroke-width="0.9699" stroke-miterlimit="10" stroke-linecap="round" stroke-linejoin="round"/>
<path d="M192.83 324.454C192.83 324.454 187.52 325.784 183.86 326.444C180.21 327.104 176.22 327.434 176.22 327.434C176.22 327.434 173.56 330.754 171.57 330.754" stroke="#263238" stroke-width="0.9699" stroke-miterlimit="10" stroke-linecap="round" stroke-linejoin="round"/>
<path d="M223.23 223.814C223.23 223.814 240.02 234.044 243.37 237.384C246.72 240.724 258.43 272.054 258.43 272.054" stroke="#263238" stroke-width="0.9699" stroke-miterlimit="10" stroke-linecap="round" stroke-linejoin="round"/>
<path d="M239.19 246.164L242.95 273.314" stroke="#263238" stroke-width="0.9699" stroke-miterlimit="10" stroke-linecap="round" stroke-linejoin="round"/>
<path d="M242.95 270.044L240.61 249.874L250.95 272.654L243.42 272.994L242.95 270.044Z" fill="#C6B5DD"/>
<path opacity="0.7" d="M242.95 270.044L240.61 249.874L250.95 272.654L243.42 272.994L242.95 270.044Z" fill="white"/>
<path d="M179.02 260.104L172.51 270.774L178.02 266.414" stroke="#263238" stroke-width="0.9699" stroke-miterlimit="10" stroke-linecap="round" stroke-linejoin="round"/>
<path d="M170.7 279.334C170.7 279.334 172.05 299.154 172.05 301.864C172.05 304.564 171.66 308.124 171.66 308.124" stroke="#263238" stroke-width="0.9699" stroke-miterlimit="10" stroke-linecap="round" stroke-linejoin="round"/>
<path d="M184.53 179.914C184.53 179.914 184.52 179.904 184.5 179.884L184.53 179.914Z" fill="#263238"/>
<path d="M193.16 149.744C193.16 149.744 183.53 155.384 182.87 163.664C182.21 171.954 184.53 179.904 184.53 179.904C184.53 179.904 181.54 177.254 181.21 183.224C180.88 189.194 185.86 193.834 187.85 193.834C189.84 193.834 189.84 193.834 189.84 193.834C189.84 193.834 194.27 202.924 199.58 207.234C204.89 211.544 210.09 211.734 213.75 210.404C217.4 209.074 224.38 203.114 225.04 195.154C225.7 187.194 225.04 173.934 224.38 165.654C223.72 157.364 222.06 151.404 213.09 148.414C204.12 145.444 197.81 147.424 193.16 149.744Z" fill="white"/>
<path opacity="0.3" d="M184.53 179.914C184.53 179.914 181.54 177.264 181.21 183.234C180.88 189.204 185.86 193.844 187.85 193.844C189.84 193.844 189.84 193.844 189.84 193.844C189.84 193.844 194.27 202.934 199.58 207.244C200.4 207.824 201.17 208.364 201.88 208.854C202.7 209.344 203.51 209.754 204.31 210.074C202.52 207.874 198.62 202.804 196.8 198.244C194.39 192.224 193.78 179.574 194.39 171.434C194.99 163.304 199.22 159.984 199.22 159.984L193.19 159.684C192.3 159.684 187.66 166.604 182.93 170.574L184.53 179.914Z" fill="#C6B5DD"/>
<path d="M193.16 149.744C193.16 149.744 183.53 155.384 182.87 163.664C182.21 171.954 184.53 179.904 184.53 179.904C184.53 179.904 181.54 177.254 181.21 183.224C180.88 189.194 185.86 193.834 187.85 193.834C189.84 193.834 189.84 193.834 189.84 193.834C189.84 193.834 194.27 202.924 199.58 207.234C204.89 211.544 210.09 211.734 213.75 210.404C217.4 209.074 224.38 203.114 225.04 195.154C225.7 187.194 225.04 173.934 224.38 165.654C223.72 157.364 222.06 151.404 213.09 148.414C204.12 145.444 197.81 147.424 193.16 149.744Z" stroke="#263238" stroke-width="0.9699" stroke-miterlimit="10" stroke-linecap="round" stroke-linejoin="round"/>
<path d="M208.54 180.184C208.54 180.184 211.31 175.434 214.09 178.204L216.07 187.634L212.03 188.454L212.41 194.344" stroke="#263238" stroke-width="0.9699" stroke-miterlimit="10" stroke-linecap="round" stroke-linejoin="round"/>
<path d="M208.54 180.184C208.54 176.904 205.88 174.254 202.6 174.254C199.32 174.254 196.66 176.914 196.66 180.184C196.66 183.464 199.32 186.114 202.6 186.114C205.88 186.114 208.54 183.464 208.54 180.184Z" fill="#C6B5DD" stroke="#263238" stroke-width="0.9699" stroke-miterlimit="10" stroke-linecap="round" stroke-linejoin="round"/>
<path opacity="0.4" d="M208.54 180.184C208.54 176.904 205.88 174.254 202.6 174.254C199.32 174.254 196.66 176.914 196.66 180.184C196.66 183.464 199.32 186.114 202.6 186.114C205.88 186.114 208.54 183.464 208.54 180.184Z" fill="white" stroke="#263238" stroke-width="1.1669" stroke-miterlimit="10"/>
<path d="M227.57 178.994C227.57 175.714 224.91 173.064 221.63 173.064C218.35 173.064 215.69 175.724 215.69 178.994C215.69 182.274 218.35 184.924 221.63 184.924C224.91 184.934 227.57 182.274 227.57 178.994Z" fill="#C6B5DD" stroke="#263238" stroke-width="0.9699" stroke-miterlimit="10" stroke-linecap="round" stroke-linejoin="round"/>
<path opacity="0.4" d="M227.57 178.994C227.57 175.714 224.91 173.064 221.63 173.064C218.35 173.064 215.69 175.724 215.69 178.994C215.69 182.274 218.35 184.924 221.63 184.924C224.91 184.934 227.57 182.274 227.57 178.994Z" fill="white" stroke="#263238" stroke-width="1.1669" stroke-miterlimit="10"/>
<path d="M196.66 180.184L184.77 180.974" stroke="#263238" stroke-width="0.9699" stroke-miterlimit="10" stroke-linecap="round" stroke-linejoin="round"/>
<path d="M197.76 172.254C197.76 172.254 199.65 169.534 203.64 170.154" stroke="#263238" stroke-width="0.9699" stroke-miterlimit="10" stroke-linecap="round" stroke-linejoin="round"/>
<path d="M216.23 169.744C216.23 169.744 219.59 167.854 222.32 170.794" stroke="#263238" stroke-width="0.9699" stroke-miterlimit="10" stroke-linecap="round" stroke-linejoin="round"/>
<path d="M224.38 165.664C223.72 157.374 222.06 151.414 213.09 148.424C204.12 145.444 197.81 147.434 193.16 149.754C193.16 149.754 183.53 155.394 182.87 163.674C182.21 171.964 184.53 179.914 184.53 179.914C184.53 179.914 187.19 182.564 187.85 178.924C188.51 175.274 186.52 169.314 195.82 162.354C205.12 155.394 218.4 158.704 223.05 165.334C223.05 165.334 223.69 165.784 224.44 166.884C224.43 166.754 224.39 165.784 224.38 165.664Z" fill="#263238"/>
<path d="M79.26 202.454C79.26 202.454 71.29 201.124 65.31 205.104C59.33 209.084 60.66 215.714 60.66 215.714" stroke="#263238" stroke-width="0.9699" stroke-miterlimit="10" stroke-linecap="round" stroke-linejoin="round"/>
<path d="M61.99 203.124C61.99 203.124 58 207.764 58 211.744" stroke="#263238" stroke-width="0.9699" stroke-miterlimit="10" stroke-linecap="round" stroke-linejoin="round"/>
<path d="M37.09 184.224C37.09 184.224 41.07 208.424 44.73 215.714C48.38 223.004 58.68 229.964 66.65 233.284C74.62 236.604 111.81 241.904 113.14 241.574C114.47 241.244 106.83 234.284 108.49 225.664C109.31 221.384 115.13 217.044 115.13 217.044C115.13 217.044 98.86 210.084 92.55 207.434C86.24 204.784 79.27 202.464 79.27 202.464C79.27 202.464 70.3 194.174 65.99 190.534C61.67 186.884 53.7 181.914 53.7 181.914" stroke="#263238" stroke-width="0.9699" stroke-miterlimit="10" stroke-linecap="round" stroke-linejoin="round"/>
<path d="M146.89 229.124L151.23 234.524C151.23 234.524 153.21 236.304 154.02 236.734C155.33 237.434 156.45 239.554 154.66 240.064C152.87 240.574 151.16 240.134 149.84 239.174C148.52 238.214 145.62 236.084 145.62 236.084L142.09 232.894L144.65 228.294L146.89 229.124Z" fill="white" stroke="#263238" stroke-width="0.9699" stroke-miterlimit="10" stroke-linecap="round" stroke-linejoin="round"/>
<path d="M115.13 217.044C115.13 217.044 125.42 219.364 128.75 220.024C132.07 220.684 149.01 223.674 151.33 224.664C153.65 225.654 160.96 225.994 160.63 228.974C160.3 231.954 157.31 231.294 154.98 230.964C152.66 230.634 145.35 229.304 145.35 229.304C145.35 229.304 147.67 233.614 147.01 234.604C146.35 235.594 131.4 240.904 128.41 240.904C125.42 240.904 123.43 235.604 122.1 233.944C120.77 232.284 118.11 228.974 118.11 228.974L110.14 225.324" fill="white"/>
<path d="M115.13 217.044C115.13 217.044 125.42 219.364 128.75 220.024C132.07 220.684 149.01 223.674 151.33 224.664C153.65 225.654 160.96 225.994 160.63 228.974C160.3 231.954 157.31 231.294 154.98 230.964C152.66 230.634 145.35 229.304 145.35 229.304C145.35 229.304 147.67 233.614 147.01 234.604C146.35 235.594 131.4 240.904 128.41 240.904C125.42 240.904 123.43 235.604 122.1 233.944C120.77 232.284 118.11 228.974 118.11 228.974L110.14 225.324" stroke="#263238" stroke-width="0.9699" stroke-miterlimit="10" stroke-linecap="round" stroke-linejoin="round"/>
<path d="M145.34 229.314L143.02 225.994" stroke="#263238" stroke-width="0.9699" stroke-miterlimit="10" stroke-linecap="round" stroke-linejoin="round"/>
<path d="M113.13 241.574C113.13 241.574 118.78 236.934 118.11 228.974" stroke="#263238" stroke-width="0.9699" stroke-miterlimit="10" stroke-linecap="round" stroke-linejoin="round"/>
<path d="M130.73 233.284L133.39 239.584" stroke="#263238" stroke-width="0.9699" stroke-miterlimit="10" stroke-linecap="round" stroke-linejoin="round"/>
<path d="M137.37 230.634L140.03 237.594" stroke="#263238" stroke-width="0.9699" stroke-miterlimit="10" stroke-linecap="round" stroke-linejoin="round"/>
<path d="M201.13 279.034V356.934L305.08 350.974V273.734L201.13 279.034Z" fill="#263238" stroke="#263238" stroke-width="0.9699" stroke-miterlimit="10" stroke-linecap="round" stroke-linejoin="round"/>
<path d="M305.08 273.734L299.76 270.744L196.82 275.724V351.634L201.13 356.934V279.034L305.08 273.734Z" fill="white" stroke="#263238" stroke-width="0.9699" stroke-miterlimit="10" stroke-linecap="round" stroke-linejoin="round"/>
<path d="M196.82 275.724L201.13 279.034" stroke="#263238" stroke-width="0.9699" stroke-miterlimit="10" stroke-linecap="round" stroke-linejoin="round"/>
<path d="M242.65 324.454V377.164L271.21 375.174V322.134L242.65 324.454Z" fill="#263238" stroke="#263238" stroke-width="0.9699" stroke-miterlimit="10" stroke-linecap="round" stroke-linejoin="round"/>
<path d="M241.76 354.294V324.454L271.21 322.134L271.29 352.444" stroke="white" stroke-width="0.9699" stroke-miterlimit="10" stroke-linecap="round" stroke-linejoin="round"/>
<path d="M242.65 377.164L227.7 363.904L242.65 363.234" fill="white"/>
<path d="M242.65 377.164L227.7 363.904L242.65 363.234" stroke="#263238" stroke-width="0.9699" stroke-miterlimit="10" stroke-linecap="round" stroke-linejoin="round"/>
<path opacity="0.7" d="M61.53 328.454L155.98 337.914C155.98 337.914 152.36 335.004 153.77 334.724C156.45 334.204 160.41 333.834 160.41 333.834L152.09 325.064L61.53 328.454Z" fill="#C6B5DD"/>
<path opacity="0.7" d="M61.53 328.454L155.98 337.914C155.98 337.914 152.36 335.004 153.77 334.724C156.45 334.204 160.41 333.834 160.41 333.834L152.09 325.064L61.53 328.454Z" fill="white"/>
<path d="M152.16 325.104L4.76001 330.354" stroke="#263238" stroke-width="0.9699" stroke-miterlimit="10" stroke-linecap="round" stroke-linejoin="round"/>
<path d="M304.37 321.934L403.73 383.254" stroke="#263238" stroke-width="0.9699" stroke-miterlimit="10" stroke-linecap="round" stroke-linejoin="round"/>
<path d="M123.76 337.374L71.75 343.724L105.26 378.914L161.32 371.984L123.76 337.374Z" fill="#C6B5DD"/>
<path opacity="0.7" d="M123.76 337.374L71.75 343.724L105.26 378.914L161.32 371.984L123.76 337.374Z" fill="white"/>
<path d="M70.5901 351.224L116.82 345.454L150.34 379.484L97.1701 386.984L70.5901 351.224Z" fill="white"/>
<path d="M98.7602 382.034C98.6102 382.034 98.4802 381.924 98.4602 381.774C98.4402 381.604 98.5602 381.454 98.7202 381.434L141.24 375.964C141.4 375.944 141.56 376.064 141.58 376.224C141.6 376.394 141.48 376.544 141.32 376.564L98.8002 382.034C98.7802 382.034 98.7702 382.034 98.7602 382.034Z" fill="#C6B5DD"/>
<path d="M96.3901 379.194C96.2401 379.194 96.1101 379.084 96.0901 378.934C96.0701 378.764 96.1901 378.614 96.3501 378.594L138.87 373.124C139.03 373.104 139.19 373.214 139.21 373.384C139.23 373.554 139.11 373.704 138.95 373.724L96.4301 379.194C96.4201 379.194 96.4101 379.194 96.3901 379.194Z" fill="#C6B5DD"/>
<path d="M94.0302 376.354C93.8802 376.354 93.7502 376.244 93.7302 376.094C93.7102 375.924 93.8302 375.774 93.9902 375.754L136.51 370.284C136.67 370.274 136.83 370.384 136.85 370.544C136.87 370.714 136.75 370.864 136.59 370.884L94.0702 376.354C94.0502 376.354 94.0402 376.354 94.0302 376.354Z" fill="#C6B5DD"/>
<path d="M91.6601 373.504C91.5101 373.504 91.3801 373.394 91.3601 373.244C91.3401 373.074 91.4601 372.924 91.6201 372.904L134.14 367.434C134.3 367.414 134.46 367.534 134.48 367.694C134.5 367.864 134.38 368.014 134.22 368.034L91.7001 373.504C91.6901 373.504 91.6801 373.504 91.6601 373.504Z" fill="#C6B5DD"/>
<path d="M89.3002 370.664C89.1502 370.664 89.0202 370.554 89.0002 370.404C88.9802 370.234 89.1002 370.084 89.2602 370.064L131.78 364.594C131.94 364.574 132.1 364.684 132.12 364.854C132.14 365.024 132.02 365.174 131.86 365.194L89.3402 370.664C89.3202 370.664 89.3102 370.664 89.3002 370.664Z" fill="#C6B5DD"/>
<path d="M86.9301 367.824C86.7801 367.824 86.6501 367.714 86.6301 367.564C86.6101 367.394 86.7301 367.244 86.8901 367.224L129.41 361.754C129.57 361.734 129.73 361.854 129.75 362.014C129.77 362.184 129.65 362.334 129.49 362.354L86.9701 367.824C86.9601 367.824 86.9501 367.824 86.9301 367.824Z" fill="#C6B5DD"/>
<path d="M84.5702 364.974C84.4202 364.974 84.2902 364.864 84.2702 364.714C84.2502 364.544 84.3702 364.394 84.5302 364.374L127.05 358.904C127.21 358.884 127.37 358.994 127.39 359.164C127.41 359.334 127.29 359.484 127.13 359.504L84.6102 364.974C84.5902 364.974 84.5802 364.974 84.5702 364.974Z" fill="#C6B5DD"/>
<path d="M82.2001 362.134C82.0501 362.134 81.9201 362.024 81.9001 361.874C81.8801 361.704 82.0001 361.554 82.1601 361.534L124.68 356.064C124.84 356.044 125 356.164 125.02 356.324C125.04 356.494 124.92 356.644 124.76 356.664L82.2401 362.134C82.2301 362.134 82.2201 362.134 82.2001 362.134Z" fill="#C6B5DD"/>
<path d="M79.8403 359.294C79.6903 359.294 79.5603 359.184 79.5403 359.034C79.5203 358.864 79.6403 358.714 79.8003 358.694L122.32 353.224C122.48 353.204 122.64 353.324 122.66 353.484C122.68 353.654 122.56 353.804 122.4 353.824L79.8803 359.294C79.8603 359.294 79.8503 359.294 79.8403 359.294Z" fill="#C6B5DD"/>
<path d="M77.4701 356.444C77.3201 356.444 77.1901 356.334 77.1701 356.184C77.1501 356.014 77.2701 355.864 77.4301 355.844L119.95 350.374C120.11 350.354 120.27 350.464 120.29 350.634C120.31 350.804 120.19 350.954 120.03 350.974L77.5101 356.444C77.5001 356.444 77.4901 356.444 77.4701 356.444Z" fill="#C6B5DD"/>
<g opacity="0.7">
<g opacity="0.7">
<path opacity="0.7" d="M98.7602 382.034C98.6102 382.034 98.4802 381.924 98.4602 381.774C98.4402 381.604 98.5602 381.454 98.7202 381.434L141.24 375.964C141.4 375.944 141.56 376.064 141.58 376.224C141.6 376.394 141.48 376.544 141.32 376.564L98.8002 382.034C98.7802 382.034 98.7702 382.034 98.7602 382.034Z" fill="white"/>
</g>
<g opacity="0.7">
<path opacity="0.7" d="M96.3901 379.194C96.2401 379.194 96.1101 379.084 96.0901 378.934C96.0701 378.764 96.1901 378.614 96.3501 378.594L138.87 373.124C139.03 373.104 139.19 373.214 139.21 373.384C139.23 373.554 139.11 373.704 138.95 373.724L96.4301 379.194C96.4201 379.194 96.4101 379.194 96.3901 379.194Z" fill="white"/>
</g>
<g opacity="0.7">
<path opacity="0.7" d="M94.0302 376.354C93.8802 376.354 93.7502 376.244 93.7302 376.094C93.7102 375.924 93.8302 375.774 93.9902 375.754L136.51 370.284C136.67 370.274 136.83 370.384 136.85 370.544C136.87 370.714 136.75 370.864 136.59 370.884L94.0702 376.354C94.0502 376.354 94.0402 376.354 94.0302 376.354Z" fill="white"/>
</g>
<g opacity="0.7">
<path opacity="0.7" d="M91.6601 373.504C91.5101 373.504 91.3801 373.394 91.3601 373.244C91.3401 373.074 91.4601 372.924 91.6201 372.904L134.14 367.434C134.3 367.414 134.46 367.534 134.48 367.694C134.5 367.864 134.38 368.014 134.22 368.034L91.7001 373.504C91.6901 373.504 91.6801 373.504 91.6601 373.504Z" fill="white"/>
</g>
<g opacity="0.7">
<path opacity="0.7" d="M89.3002 370.664C89.1502 370.664 89.0202 370.554 89.0002 370.404C88.9802 370.234 89.1002 370.084 89.2602 370.064L131.78 364.594C131.94 364.574 132.1 364.684 132.12 364.854C132.14 365.024 132.02 365.174 131.86 365.194L89.3402 370.664C89.3202 370.664 89.3102 370.664 89.3002 370.664Z" fill="white"/>
</g>
<g opacity="0.7">
<path opacity="0.7" d="M86.9301 367.824C86.7801 367.824 86.6501 367.714 86.6301 367.564C86.6101 367.394 86.7301 367.244 86.8901 367.224L129.41 361.754C129.57 361.734 129.73 361.854 129.75 362.014C129.77 362.184 129.65 362.334 129.49 362.354L86.9701 367.824C86.9601 367.824 86.9501 367.824 86.9301 367.824Z" fill="white"/>
</g>
<g opacity="0.7">
<path opacity="0.7" d="M84.5702 364.974C84.4202 364.974 84.2902 364.864 84.2702 364.714C84.2502 364.544 84.3702 364.394 84.5302 364.374L127.05 358.904C127.21 358.884 127.37 358.994 127.39 359.164C127.41 359.334 127.29 359.484 127.13 359.504L84.6102 364.974C84.5902 364.974 84.5802 364.974 84.5702 364.974Z" fill="white"/>
</g>
<g opacity="0.7">
<path opacity="0.7" d="M82.2001 362.134C82.0501 362.134 81.9201 362.024 81.9001 361.874C81.8801 361.704 82.0001 361.554 82.1601 361.534L124.68 356.064C124.84 356.044 125 356.164 125.02 356.324C125.04 356.494 124.92 356.644 124.76 356.664L82.2401 362.134C82.2301 362.134 82.2201 362.134 82.2001 362.134Z" fill="white"/>
</g>
<g opacity="0.7">
<path opacity="0.7" d="M79.8403 359.294C79.6903 359.294 79.5603 359.184 79.5403 359.034C79.5203 358.864 79.6403 358.714 79.8003 358.694L122.32 353.224C122.48 353.204 122.64 353.324 122.66 353.484C122.68 353.654 122.56 353.804 122.4 353.824L79.8803 359.294C79.8603 359.294 79.8503 359.294 79.8403 359.294Z" fill="white"/>
</g>
<g opacity="0.7">
<path opacity="0.7" d="M77.4701 356.444C77.3201 356.444 77.1901 356.334 77.1701 356.184C77.1501 356.014 77.2701 355.864 77.4301 355.844L119.95 350.374C120.11 350.354 120.27 350.464 120.29 350.634C120.31 350.804 120.19 350.954 120.03 350.974L77.5101 356.444C77.5001 356.444 77.4901 356.444 77.4701 356.444Z" fill="white"/>
</g>
</g>
<path d="M122.43 160.684C122.43 160.684 130.4 163.334 132.39 166.654C134.38 169.964 139.62 187.824 139.62 187.824" stroke="#263238" stroke-width="0.9699" stroke-miterlimit="10" stroke-linecap="round" stroke-linejoin="round"/>
</svg>
