<svg width="623" height="498" viewBox="0 0 623 498" fill="none" xmlns="http://www.w3.org/2000/svg">
<path d="M320.633 37.7161L296.052 42.8975C292.738 43.5964 289.485 41.4757 288.786 38.162L283.604 13.5806C282.906 10.2669 285.026 7.01346 288.34 6.31458L312.921 1.1332C316.235 0.434312 319.488 2.55506 320.187 5.86874L325.369 30.4502C326.068 33.7638 323.947 37.0173 320.633 37.7161Z" stroke="#263238" stroke-miterlimit="10" stroke-linecap="round" stroke-linejoin="round"/>
<path d="M302.92 14.5566L306.053 29.4741" stroke="#263238" stroke-miterlimit="10" stroke-linecap="round" stroke-linejoin="round"/>
<path d="M311.945 20.4368L297.028 23.5818" stroke="#263238" stroke-miterlimit="10" stroke-linecap="round" stroke-linejoin="round"/>
<path d="M617.162 245.716L592.581 250.898C589.267 251.596 586.013 249.476 585.315 246.162L580.133 221.581C579.434 218.267 581.555 215.013 584.869 214.315L609.45 209.133C612.764 208.434 616.017 210.555 616.716 213.869L621.898 238.45C622.596 241.764 620.476 245.017 617.162 245.716Z" stroke="#263238" stroke-miterlimit="10" stroke-linecap="round" stroke-linejoin="round"/>
<path d="M605.185 223.617L596.858 236.39" stroke="#263238" stroke-miterlimit="10" stroke-linecap="round" stroke-linejoin="round"/>
<path d="M607.402 234.173L594.629 225.834" stroke="#263238" stroke-miterlimit="10" stroke-linecap="round" stroke-linejoin="round"/>
<path d="M217.869 496.798L192.782 495.352C189.396 495.159 186.817 492.255 187.01 488.869L188.456 463.782C188.649 460.396 191.553 457.817 194.939 458.01L220.026 459.456C223.412 459.649 225.991 462.553 225.798 465.939L224.352 491.026C224.159 494.4 221.255 496.991 217.869 496.798Z" stroke="#263238" stroke-miterlimit="10" stroke-linecap="round" stroke-linejoin="round"/>
<path d="M214.026 477.844L198.795 476.964" stroke="#263238" stroke-miterlimit="10" stroke-linecap="round" stroke-linejoin="round"/>
<path d="M29.0544 224.707L5.20796 216.802C1.99068 215.742 0.243471 212.272 1.3159 209.054L9.22052 185.208C10.2809 181.991 13.7512 180.243 16.9685 181.316L40.8149 189.221C44.0322 190.281 45.7794 193.751 44.707 196.968L36.8023 220.815C35.742 224.032 32.2716 225.779 29.0544 224.707Z" stroke="#263238" stroke-miterlimit="10" stroke-linecap="round" stroke-linejoin="round"/>
<path d="M32.5488 198.222L13.4741 207.801" stroke="#263238" stroke-miterlimit="10" stroke-linecap="round" stroke-linejoin="round"/>
<path d="M21.6077 194.281C22.2705 195.595 21.7403 197.197 20.4269 197.86C19.1134 198.523 17.5108 197.993 16.8481 196.679C16.1854 195.366 16.7155 193.763 18.029 193.1C19.3424 192.438 20.945 192.968 21.6077 194.281Z" stroke="#263238" stroke-miterlimit="10" stroke-linecap="round" stroke-linejoin="round"/>
<path d="M29.1749 209.356C29.8376 210.669 29.3074 212.272 27.994 212.934C26.6806 213.597 25.078 213.067 24.4153 211.753C23.7525 210.44 24.2827 208.837 25.5961 208.175C26.9096 207.512 28.5122 208.042 29.1749 209.356Z" stroke="#263238" stroke-miterlimit="10" stroke-linecap="round" stroke-linejoin="round"/>
<path d="M315.503 423.353C308.538 433.438 294.705 435.957 284.619 428.992C280.727 426.293 277.968 422.582 276.425 418.461C274.003 411.894 274.702 404.29 278.98 398.097C281.968 393.783 286.21 390.855 290.873 389.469C297.115 387.589 304.104 388.481 309.875 392.469C319.961 399.434 322.479 413.267 315.503 423.353Z" fill="#C6B5DD"/>
<path opacity="0.3" d="M312.611 421.353C306.742 429.836 295.114 431.956 286.619 426.088C278.124 420.22 276.016 408.592 281.884 400.097C287.752 391.614 299.38 389.493 307.875 395.361C316.358 401.23 318.479 412.858 312.611 421.353Z" fill="black" fill-opacity="0.7"/>
<path d="M312.611 421.353C306.742 429.836 295.114 431.956 286.619 426.088C278.124 420.22 276.016 408.592 281.884 400.097C287.752 391.614 299.38 389.493 307.875 395.361C316.358 401.23 318.479 412.858 312.611 421.353Z" stroke="#263238" stroke-miterlimit="10" stroke-linecap="round" stroke-linejoin="round"/>
<path d="M302.031 401.398L302.923 400.097L305.164 401.651L304.272 402.953C305.947 404.7 305.899 406.881 304.272 409.243L303.887 409.797L301.296 408.001L301.79 407.279C302.658 406.037 302.477 405.218 301.609 404.616C300.742 404.013 299.91 404.146 299.055 405.387C298.199 406.628 298.091 407.845 298.922 410.592C299.922 413.942 299.754 415.846 298.368 417.834C296.729 420.196 294.657 421.015 292.439 420.063L291.56 421.341L289.319 419.786L290.198 418.509C288.499 416.75 288.559 414.545 290.198 412.171L291.03 410.978L293.62 412.773L292.668 414.147C291.801 415.388 292.042 416.219 292.921 416.822C293.789 417.424 294.657 417.352 295.512 416.111C296.368 414.87 296.5 413.629 295.645 410.905C294.62 407.58 294.813 405.652 296.199 403.664C297.814 401.326 299.826 400.495 302.031 401.398Z" fill="#C6B5DD" stroke="#263238" stroke-miterlimit="10" stroke-linecap="round" stroke-linejoin="round"/>
<path opacity="0.2" d="M291.054 392.734C291.054 403.676 285.185 413.243 276.425 418.461C274.003 411.894 274.702 404.29 278.98 398.097C281.968 393.783 286.21 390.855 290.873 389.469C290.993 390.541 291.054 391.626 291.054 392.734Z" fill="black" fill-opacity="0.7"/>
<path d="M315.503 423.353C308.538 433.438 294.705 435.957 284.619 428.992C280.727 426.293 277.968 422.582 276.425 418.461C274.003 411.894 274.702 404.29 278.98 398.097C281.968 393.783 286.21 390.855 290.873 389.469C297.115 387.589 304.104 388.481 309.875 392.469C319.961 399.434 322.479 413.267 315.503 423.353Z" stroke="#263238" stroke-miterlimit="10" stroke-linecap="round" stroke-linejoin="round"/>
<path d="M265.544 414.255C277.809 414.255 287.752 404.313 287.752 392.048C287.752 379.783 277.809 369.84 265.544 369.84C253.279 369.84 243.337 379.783 243.337 392.048C243.337 404.313 253.279 414.255 265.544 414.255Z" fill="#C6B5DD" stroke="#263238" stroke-miterlimit="10" stroke-linecap="round" stroke-linejoin="round"/>
<path opacity="0.3" d="M265.544 410.725C275.859 410.725 284.221 402.363 284.221 392.048C284.221 381.733 275.859 373.371 265.544 373.371C255.229 373.371 246.867 381.733 246.867 392.048C246.867 402.363 255.229 410.725 265.544 410.725Z" fill="black" fill-opacity="0.7"/>
<path d="M265.544 410.725C275.859 410.725 284.221 402.363 284.221 392.048C284.221 381.733 275.859 373.371 265.544 373.371C255.229 373.371 246.867 381.733 246.867 392.048C246.867 402.363 255.229 410.725 265.544 410.725Z" stroke="#263238" stroke-miterlimit="10" stroke-linecap="round" stroke-linejoin="round"/>
<path d="M264.183 381.649V380.07H266.906V381.649C269.268 382.131 270.485 383.95 270.485 386.83V387.493H267.328V386.613C267.328 385.095 266.725 384.517 265.665 384.517C264.605 384.517 264.002 385.095 264.002 386.613C264.002 388.131 264.605 389.192 266.846 390.975C269.569 393.156 270.509 394.819 270.509 397.241C270.509 400.121 269.268 401.965 266.906 402.447V403.989H264.183V402.447C261.785 401.965 260.58 400.109 260.58 397.241V395.783H263.737V397.446C263.737 398.964 264.4 399.506 265.46 399.506C266.52 399.506 267.183 398.964 267.183 397.446C267.183 395.928 266.581 394.843 264.339 393.084C261.616 390.927 260.676 389.24 260.676 386.806C260.664 383.986 261.845 382.167 264.183 381.649Z" fill="#C6B5DD" stroke="#263238" stroke-miterlimit="10" stroke-linecap="round" stroke-linejoin="round"/>
<path d="M390.184 410.691C396.801 400.364 393.793 386.628 383.466 380.011C373.139 373.394 359.403 376.402 352.786 386.729C346.169 397.056 349.177 410.792 359.504 417.409C369.831 424.025 383.567 421.018 390.184 410.691Z" fill="#C6B5DD" stroke="#263238" stroke-miterlimit="10" stroke-linecap="round" stroke-linejoin="round"/>
<path opacity="0.3" d="M385.162 386.023C392.187 393.578 391.741 405.399 384.186 412.424C376.631 419.449 364.81 419.003 357.785 411.448C350.76 403.893 351.206 392.072 358.761 385.047C366.328 378.022 378.149 378.456 385.162 386.023Z" fill="black" fill-opacity="0.7"/>
<path d="M385.162 386.023C392.187 393.578 391.741 405.399 384.186 412.424C376.631 419.449 364.81 419.003 357.785 411.448C350.76 403.893 351.206 392.072 358.761 385.047C366.328 378.022 378.149 378.456 385.162 386.023Z" stroke="#263238" stroke-miterlimit="10" stroke-linecap="round" stroke-linejoin="round"/>
<path d="M363.412 392.048L362.34 390.891L364.34 389.035L365.413 390.192C367.473 388.939 369.594 389.445 371.558 391.554L372.016 392.048L369.702 394.193L369.1 393.554C368.063 392.445 367.232 392.433 366.461 393.156C365.69 393.879 365.629 394.711 366.666 395.819C367.702 396.928 368.859 397.289 371.727 397.072C375.209 396.819 377.028 397.398 378.679 399.169C380.643 401.278 380.981 403.483 379.583 405.435L380.631 406.568L378.631 408.423L377.583 407.291C375.498 408.568 373.353 408.038 371.401 405.929L370.413 404.869L372.727 402.724L373.859 403.941C374.896 405.049 375.751 405.001 376.522 404.278C377.294 403.555 377.414 402.7 376.39 401.591C375.354 400.483 374.173 400.097 371.329 400.338C367.871 400.615 366.027 400.013 364.376 398.241C362.424 396.145 362.051 394.012 363.412 392.048Z" fill="#C6B5DD" stroke="#263238" stroke-miterlimit="10" stroke-linecap="round" stroke-linejoin="round"/>
<path opacity="0.2" d="M362.34 302.205C362.34 302.205 362.243 348.283 362.34 350.97C362.436 353.657 365.918 369.84 365.918 369.84L354.736 390.457L364.364 398.217L383.101 379.793C383.101 379.793 399.055 389.65 401.971 403.748C404.887 417.846 422.251 428.112 440.265 467.154C458.28 506.195 478.824 379.793 478.824 379.793L423.239 309.808L362.34 302.205Z" fill="black" fill-opacity="0.7"/>
<path d="M532.265 54.6554L515.239 220.797L504.768 323.003L358.436 308.013L329.962 305.097L311.731 303.229L327.89 145.498L339.228 34.8818L532.265 54.6554Z" fill="white"/>
<path d="M476.198 60.861L392.874 52.3178C391.307 52.1611 389.91 53.2938 389.753 54.8603C389.596 56.4267 390.729 57.8245 392.295 57.9811L475.619 66.5244C477.186 66.681 478.583 65.5484 478.74 63.9819C478.909 62.4154 477.764 61.0177 476.198 60.861Z" fill="#263238"/>
<path d="M454.183 70.3682L412.515 66.1026C411.732 66.0183 411.033 66.5967 410.948 67.3679C410.864 68.1511 411.442 68.85 412.214 68.9343L453.881 73.1999C454.665 73.2843 455.364 72.7059 455.448 71.9347C455.532 71.1394 454.954 70.4405 454.183 70.3682Z" fill="#263238"/>
<path d="M500.02 192.986L364.774 179.129C363.991 179.045 363.292 179.623 363.207 180.394C363.123 181.177 363.701 181.876 364.473 181.961L499.719 195.818C500.502 195.902 501.201 195.324 501.285 194.553C501.37 193.781 500.803 193.059 500.02 192.986Z" fill="#263238"/>
<path d="M498.972 203.168L341.711 187.058C340.927 186.973 340.229 187.552 340.144 188.323C340.06 189.106 340.638 189.805 341.409 189.889L498.67 206C499.454 206.084 500.153 205.506 500.237 204.735C500.321 203.951 499.755 203.253 498.972 203.168Z" fill="#263238"/>
<path d="M453.894 208.844L340.674 197.24C339.891 197.155 339.192 197.734 339.108 198.505C339.024 199.288 339.602 199.987 340.373 200.071L453.592 211.675C454.376 211.76 455.074 211.181 455.159 210.41C455.243 209.639 454.677 208.916 453.894 208.844Z" fill="#263238"/>
<path d="M338.881 208.215L334.281 253.118L492.822 269.358L497.422 224.455L338.881 208.215Z" fill="#BFBFBF" stroke="#263238" stroke-miterlimit="10"/>
<path d="M389.006 164.465C408.498 164.465 424.299 148.663 424.299 129.171C424.299 109.679 408.498 93.8772 389.006 93.8772C369.514 93.8772 353.712 109.679 353.712 129.171C353.712 148.663 369.514 164.465 389.006 164.465Z" fill="#C6B5DD"/>
<path opacity="0.5" d="M411.592 156.268C426.568 143.791 428.594 121.536 416.117 106.56C403.64 91.5844 381.385 89.5586 366.409 102.036C351.433 114.512 349.408 136.767 361.885 151.743C374.362 166.719 396.616 168.745 411.592 156.268Z" fill="white"/>
<path d="M389.006 164.465C408.498 164.465 424.299 148.663 424.299 129.171C424.299 109.679 408.498 93.8772 389.006 93.8772C369.514 93.8772 353.712 109.679 353.712 129.171C353.712 148.663 369.514 164.465 389.006 164.465Z" stroke="#263238" stroke-miterlimit="10"/>
<path d="M390.018 129.062L419.371 143.835C421.034 140.401 422.13 136.63 422.54 132.617C423.468 123.556 420.709 114.964 415.491 108.337L390.018 129.062Z" fill="white"/>
<path d="M390.211 127.472L414.792 107.469C411.165 103.168 406.478 99.7575 401.067 97.685L396.633 109.855L390.211 127.472Z" fill="#C6B5DD"/>
<path d="M392.994 95.7088L390.018 124.797L400.031 97.3114C397.79 96.5403 395.44 95.998 392.994 95.7088Z" fill="#757575"/>
<path d="M388.488 128.797L391.886 95.5883C373.594 94.0098 357.339 107.397 355.459 125.725C354.845 131.701 355.845 137.461 358.074 142.594L388.488 128.797Z" fill="#999999"/>
<path d="M385.572 162.705C399.694 164.151 412.659 156.656 418.865 144.811L388.994 129.785L358.544 143.619C363.436 153.897 373.414 161.464 385.572 162.705Z" fill="#BFBFBF"/>
<path d="M445.073 111.783L441.049 111.373C440.639 111.325 440.338 110.964 440.374 110.542L440.783 106.517C440.832 106.108 441.193 105.806 441.615 105.843L445.639 106.252C446.049 106.3 446.35 106.662 446.314 107.084L445.905 111.108C445.856 111.518 445.495 111.819 445.073 111.783Z" fill="#C6B5DD" stroke="#263238" stroke-miterlimit="10"/>
<path d="M501.587 114.024L449.701 108.71C449.351 108.674 449.098 108.361 449.134 108.012C449.171 107.662 449.484 107.409 449.833 107.445L501.707 112.759C502.057 112.795 502.31 113.109 502.274 113.458C502.25 113.807 501.936 114.061 501.587 114.024Z" fill="#263238"/>
<path d="M496.224 116.266L449.423 111.47C449.074 111.434 448.821 111.12 448.857 110.771C448.893 110.422 449.206 110.168 449.556 110.205L496.357 115C496.706 115.037 496.959 115.35 496.923 115.699C496.887 116.049 496.574 116.302 496.224 116.266Z" fill="#263238"/>
<path d="M443.808 124.158L439.783 123.748C439.374 123.7 439.073 123.339 439.109 122.917L439.518 118.892C439.567 118.483 439.928 118.182 440.35 118.218L444.374 118.627C444.784 118.676 445.085 119.037 445.049 119.459L444.639 123.483C444.591 123.905 444.218 124.206 443.808 124.158Z" fill="#757575" stroke="#263238" stroke-miterlimit="10" stroke-linecap="round" stroke-linejoin="round"/>
<path d="M500.322 126.399L448.448 121.086C448.098 121.049 447.845 120.736 447.881 120.387C447.917 120.037 448.231 119.784 448.58 119.82L500.454 125.134C500.804 125.17 501.057 125.484 501.021 125.833C500.984 126.183 500.671 126.436 500.322 126.399Z" fill="#263238"/>
<path d="M494.947 128.653L448.146 123.857C447.796 123.821 447.543 123.508 447.58 123.158C447.616 122.809 447.929 122.556 448.278 122.592L495.08 127.388C495.429 127.424 495.682 127.737 495.646 128.086C495.622 128.424 495.309 128.689 494.947 128.653Z" fill="#263238"/>
<path d="M442.543 136.533L438.518 136.124C438.108 136.075 437.807 135.714 437.843 135.292L438.253 131.268C438.301 130.858 438.663 130.557 439.084 130.593L443.109 131.002C443.519 131.051 443.82 131.412 443.784 131.834L443.374 135.858C443.326 136.28 442.952 136.581 442.543 136.533Z" fill="#999999" stroke="#263238" stroke-miterlimit="10" stroke-linecap="round" stroke-linejoin="round"/>
<path d="M499.044 138.787L447.17 133.473C446.821 133.436 446.568 133.123 446.604 132.774C446.64 132.424 446.953 132.171 447.303 132.207L499.177 137.521C499.526 137.557 499.779 137.871 499.743 138.22C499.707 138.57 499.394 138.823 499.044 138.787Z" fill="#263238"/>
<path d="M493.682 141.028L446.881 136.232C446.531 136.196 446.278 135.883 446.314 135.533C446.35 135.184 446.664 134.931 447.013 134.967L493.814 139.763C494.164 139.799 494.417 140.112 494.381 140.461C494.344 140.811 494.031 141.064 493.682 141.028Z" fill="#263238"/>
<path d="M441.265 148.92L437.241 148.511C436.831 148.462 436.53 148.101 436.566 147.679L436.976 143.655C437.024 143.245 437.385 142.944 437.807 142.98L441.832 143.39C442.242 143.438 442.543 143.799 442.507 144.221L442.097 148.246C442.061 148.655 441.687 148.956 441.265 148.92Z" fill="#BFBFBF" stroke="#263238" stroke-miterlimit="10"/>
<path d="M497.779 151.162L445.905 145.848C445.556 145.812 445.303 145.498 445.339 145.149C445.375 144.799 445.688 144.546 446.038 144.582L497.912 149.896C498.261 149.933 498.514 150.246 498.478 150.595C498.442 150.945 498.129 151.198 497.779 151.162Z" fill="#263238"/>
<path d="M492.417 153.403L445.615 148.607C445.266 148.571 445.013 148.258 445.049 147.908C445.085 147.559 445.399 147.306 445.748 147.342L492.549 152.138C492.899 152.174 493.152 152.487 493.115 152.837C493.079 153.186 492.766 153.439 492.417 153.403Z" fill="#263238"/>
<path d="M440 161.295L435.976 160.886C435.566 160.838 435.265 160.476 435.301 160.054L435.711 156.03C435.759 155.62 436.12 155.319 436.542 155.355L440.567 155.765C440.976 155.813 441.278 156.174 441.241 156.596L440.832 160.621C440.784 161.042 440.422 161.344 440 161.295Z" fill="white" stroke="#263238" stroke-miterlimit="10" stroke-linecap="round" stroke-linejoin="round"/>
<path d="M496.514 163.537L444.64 158.223C444.29 158.187 444.037 157.873 444.074 157.524C444.11 157.174 444.423 156.921 444.772 156.958L496.647 162.271C496.996 162.308 497.249 162.621 497.213 162.97C497.177 163.32 496.863 163.573 496.514 163.537Z" fill="#263238"/>
<path d="M491.151 165.778L444.35 160.982C444.001 160.946 443.748 160.633 443.784 160.283C443.82 159.934 444.133 159.681 444.483 159.717L491.284 164.513C491.633 164.549 491.886 164.862 491.85 165.212C491.814 165.561 491.501 165.814 491.151 165.778Z" fill="#263238"/>
<path d="M473.443 254.196L476.404 254.499L478.14 237.562L475.18 237.258L473.443 254.196Z" fill="#757575" stroke="#263238" stroke-miterlimit="10" stroke-linecap="round" stroke-linejoin="round"/>
<path d="M473.684 251.675L476.644 251.978L477.461 244.007L474.5 243.703L473.684 251.675Z" fill="#C6B5DD" stroke="#263238" stroke-miterlimit="10"/>
<path d="M480.531 250.635L483.492 250.938L485.227 234L482.266 233.697L480.531 250.635Z" fill="#757575" stroke="#263238" stroke-miterlimit="10" stroke-linecap="round" stroke-linejoin="round"/>
<path d="M481.841 238.186L481.023 246.157L483.984 246.461L484.802 238.489L481.841 238.186Z" fill="#C6B5DD" stroke="#263238" stroke-miterlimit="10"/>
<path d="M486.865 254.558L489.825 254.862L491.56 237.924L488.6 237.621L486.865 254.558Z" fill="#757575" stroke="#263238" stroke-miterlimit="10" stroke-linecap="round" stroke-linejoin="round"/>
<path d="M487.536 248.154L490.497 248.458L491.314 240.486L488.354 240.183L487.536 248.154Z" fill="#C6B5DD" stroke="#263238" stroke-miterlimit="10"/>
<path d="M467.119 250.162L470.079 250.466L471.816 233.528L468.855 233.224L467.119 250.162Z" fill="#757575" stroke="#263238" stroke-miterlimit="10" stroke-linecap="round" stroke-linejoin="round"/>
<path d="M467.36 247.641L470.32 247.944L471.137 239.973L468.176 239.669L467.36 247.641Z" fill="#C6B5DD" stroke="#263238" stroke-miterlimit="10"/>
<path d="M459.921 254.519L462.882 254.822L464.617 237.885L461.656 237.581L459.921 254.519Z" fill="#757575" stroke="#263238" stroke-miterlimit="10" stroke-linecap="round" stroke-linejoin="round"/>
<path d="M460.136 252.576L463.097 252.879L463.914 244.908L460.954 244.604L460.136 252.576Z" fill="#C6B5DD" stroke="#263238" stroke-miterlimit="10"/>
<path d="M453.699 249.466L456.66 249.769L458.395 232.832L455.434 232.528L453.699 249.466Z" fill="#757575" stroke="#263238" stroke-miterlimit="10" stroke-linecap="round" stroke-linejoin="round"/>
<path d="M453.784 248.799L456.745 249.103L457.562 241.131L454.602 240.828L453.784 248.799Z" fill="#C6B5DD" stroke="#263238" stroke-miterlimit="10"/>
<path d="M446.142 257.6L449.103 257.904L450.84 240.966L447.879 240.663L446.142 257.6Z" fill="#757575" stroke="#263238" stroke-miterlimit="10" stroke-linecap="round" stroke-linejoin="round"/>
<path d="M446.2 256.971L449.161 257.274L449.978 249.303L447.017 248.999L446.2 256.971Z" fill="#C6B5DD" stroke="#263238" stroke-miterlimit="10"/>
<path d="M440.542 246.281L443.503 246.585L445.238 229.647L442.277 229.344L440.542 246.281Z" fill="#757575" stroke="#263238" stroke-miterlimit="10" stroke-linecap="round" stroke-linejoin="round"/>
<path d="M440.812 243.73L443.773 244.033L444.589 236.062L441.628 235.759L440.812 243.73Z" fill="#C6B5DD" stroke="#263238" stroke-miterlimit="10"/>
<path d="M433.991 244.584L436.952 244.888L438.689 227.95L435.728 227.646L433.991 244.584Z" fill="#757575" stroke="#263238" stroke-miterlimit="10" stroke-linecap="round" stroke-linejoin="round"/>
<path d="M434.632 238.227L437.593 238.53L438.409 230.559L435.448 230.256L434.632 238.227Z" fill="#C6B5DD" stroke="#263238" stroke-miterlimit="10"/>
<path d="M426.22 254.562L429.181 254.865L430.916 237.927L427.955 237.624L426.22 254.562Z" fill="#757575" stroke="#263238" stroke-miterlimit="10" stroke-linecap="round" stroke-linejoin="round"/>
<path d="M426.945 247.543L429.906 247.846L430.722 239.874L427.762 239.571L426.945 247.543Z" fill="#C6B5DD" stroke="#263238" stroke-miterlimit="10"/>
<path d="M420.314 246.429L423.275 246.733L425.01 229.795L422.049 229.492L420.314 246.429Z" fill="#757575" stroke="#263238" stroke-miterlimit="10" stroke-linecap="round" stroke-linejoin="round"/>
<path d="M420.639 243.244L423.6 243.547L424.417 235.576L421.456 235.272L420.639 243.244Z" fill="#C6B5DD" stroke="#263238" stroke-miterlimit="10"/>
<path d="M413.207 250.14L416.168 250.443L417.905 233.506L414.944 233.202L413.207 250.14Z" fill="#757575" stroke="#263238" stroke-miterlimit="10" stroke-linecap="round" stroke-linejoin="round"/>
<path d="M413.46 247.616L416.421 247.92L417.237 239.948L414.276 239.645L413.46 247.616Z" fill="#C6B5DD" stroke="#263238" stroke-miterlimit="10"/>
<path d="M405.76 257.063L408.721 257.367L410.458 240.429L407.497 240.125L405.76 257.063Z" fill="#757575" stroke="#263238" stroke-miterlimit="10" stroke-linecap="round" stroke-linejoin="round"/>
<path d="M405.755 257.088L408.716 257.391L409.532 249.42L406.571 249.116L405.755 257.088Z" fill="#C6B5DD" stroke="#263238" stroke-miterlimit="10"/>
<path d="M400.185 245.681L403.146 245.985L404.881 229.047L401.92 228.744L400.185 245.681Z" fill="#757575" stroke="#263238" stroke-miterlimit="10" stroke-linecap="round" stroke-linejoin="round"/>
<path d="M400.37 243.757L403.331 244.06L404.148 236.089L401.187 235.785L400.37 243.757Z" fill="#C6B5DD" stroke="#263238" stroke-miterlimit="10"/>
<path d="M394.293 237.526L397.254 237.83L398.991 220.892L396.03 220.589L394.293 237.526Z" fill="#757575" stroke="#263238" stroke-miterlimit="10" stroke-linecap="round" stroke-linejoin="round"/>
<path d="M394.474 235.64L397.435 235.943L398.252 227.972L395.291 227.669L394.474 235.64Z" fill="#C6B5DD" stroke="#263238" stroke-miterlimit="10"/>
<path d="M386.682 245.834L389.643 246.138L391.378 229.2L388.417 228.897L386.682 245.834Z" fill="#757575" stroke="#263238" stroke-miterlimit="10" stroke-linecap="round" stroke-linejoin="round"/>
<path d="M387.355 239.424L390.316 239.728L391.133 231.756L388.172 231.453L387.355 239.424Z" fill="#C6B5DD" stroke="#263238" stroke-miterlimit="10"/>
<path d="M379.035 254.721L381.996 255.024L383.731 238.086L380.77 237.783L379.035 254.721Z" fill="#757575" stroke="#263238" stroke-miterlimit="10" stroke-linecap="round" stroke-linejoin="round"/>
<path d="M379.819 247.062L382.78 247.366L383.597 239.394L380.636 239.091L379.819 247.062Z" fill="#C6B5DD" stroke="#263238" stroke-miterlimit="10"/>
<path d="M373.348 244.462L376.309 244.766L378.044 227.828L375.083 227.525L373.348 244.462Z" fill="#757575" stroke="#263238" stroke-miterlimit="10" stroke-linecap="round" stroke-linejoin="round"/>
<path d="M373.632 241.889L376.593 242.193L377.41 234.222L374.449 233.918L373.632 241.889Z" fill="#C6B5DD" stroke="#263238" stroke-miterlimit="10"/>
<path d="M366.991 240.943L369.952 241.247L371.688 224.309L368.728 224.005L366.991 240.943Z" fill="#757575" stroke="#263238" stroke-miterlimit="10" stroke-linecap="round" stroke-linejoin="round"/>
<path d="M367.688 233.946L370.649 234.249L371.466 226.278L368.505 225.974L367.688 233.946Z" fill="#C6B5DD" stroke="#263238" stroke-miterlimit="10"/>
<path d="M359.777 245.539L362.737 245.843L364.474 228.905L361.513 228.602L359.777 245.539Z" fill="#757575" stroke="#263238" stroke-miterlimit="10" stroke-linecap="round" stroke-linejoin="round"/>
<path d="M359.761 245.558L362.722 245.862L363.538 237.89L360.578 237.587L359.761 245.558Z" fill="#C6B5DD" stroke="#263238" stroke-miterlimit="10"/>
<path d="M353.63 239.593L356.591 239.897L358.325 222.959L355.365 222.656L353.63 239.593Z" fill="#757575" stroke="#263238" stroke-miterlimit="10" stroke-linecap="round" stroke-linejoin="round"/>
<path d="M353.785 238.296L356.746 238.599L357.563 230.628L354.602 230.324L353.785 238.296Z" fill="#C6B5DD" stroke="#263238" stroke-miterlimit="10"/>
<path d="M346.728 241.194L349.689 241.497L351.424 224.56L348.463 224.256L346.728 241.194Z" fill="#757575" stroke="#263238" stroke-miterlimit="10" stroke-linecap="round" stroke-linejoin="round"/>
<path d="M346.798 240.554L349.759 240.857L350.576 232.886L347.615 232.583L346.798 240.554Z" fill="#C6B5DD" stroke="#263238" stroke-miterlimit="10"/>
<path d="M340.285 238.332L343.246 238.635L344.981 221.697L342.02 221.394L340.285 238.332Z" fill="#757575" stroke="#263238" stroke-miterlimit="10" stroke-linecap="round" stroke-linejoin="round"/>
<path d="M341.139 230.049L344.1 230.352L344.916 222.381L341.955 222.078L341.139 230.049Z" fill="#C6B5DD" stroke="#263238" stroke-miterlimit="10"/>
<path d="M491.609 275.009L356.363 261.152C355.58 261.067 354.881 261.646 354.797 262.417C354.712 263.2 355.291 263.899 356.062 263.983L491.308 277.84C492.091 277.925 492.79 277.346 492.874 276.575C492.959 275.78 492.392 275.081 491.609 275.009Z" fill="#263238"/>
<path d="M490.573 285.191L333.312 269.08C332.529 268.996 331.83 269.574 331.746 270.345C331.661 271.129 332.24 271.828 333.011 271.912L490.272 288.022C491.055 288.107 491.754 287.528 491.838 286.757C491.923 285.962 491.356 285.263 490.573 285.191Z" fill="#263238"/>
<path d="M423.468 288.601L332.264 279.25C331.48 279.166 330.781 279.744 330.697 280.515C330.613 281.299 331.191 281.998 331.962 282.082L423.167 291.432C423.95 291.517 424.649 290.938 424.733 290.167C424.818 289.384 424.251 288.685 423.468 288.601Z" fill="#263238"/>
<path opacity="0.2" d="M506.527 197.662C501.863 197.288 500.249 204.723 500.249 204.723C500.249 204.723 492.874 195.059 494.043 172.333C494.043 172.333 490.44 162.259 480.788 168.345C471.149 174.43 461.135 195.878 463.521 219.243L444.76 156.958C438.277 158.331 425.107 167.043 428.577 209.109L408.105 187.467C408.105 187.467 402.562 185.684 399.429 190.588C396.296 195.505 397.79 230.618 400.381 243.752C402.983 256.898 396.368 283.275 396.368 283.275C396.368 283.275 389.307 253.391 376.534 245.824L327.89 145.498L311.731 303.229L329.962 305.097L359.243 290.842C359.074 297.433 358.918 303.494 358.436 308.013L504.767 323.003L515.239 220.797C511.684 208.06 508.286 197.794 506.527 197.662Z" fill="black" fill-opacity="0.7"/>
<path d="M532.265 54.6554L515.239 220.797L504.768 323.003L358.436 308.013L329.962 305.097L311.731 303.229L327.89 145.498L339.228 34.8818L532.265 54.6554Z" stroke="#263238" stroke-miterlimit="10" stroke-linecap="round" stroke-linejoin="round"/>
<path d="M529.855 482.372L444.302 496.928C444.302 496.928 429.408 417.822 420.528 405.363C411.647 392.891 413.274 387.77 408.96 379.371C406.357 374.298 393.307 364.839 383.065 355.501H383.053C382.161 354.694 381.294 353.886 380.462 353.079C380.101 352.753 379.763 352.404 379.426 352.079C378.064 350.729 376.799 349.416 375.678 348.126C375.269 347.669 374.883 347.211 374.522 346.753C372.389 344.114 370.883 341.644 370.377 339.414C370.34 339.294 370.316 339.173 370.304 339.041C370.268 338.884 370.244 338.74 370.232 338.595C370.003 336.727 369.762 334.595 369.521 332.281C369.473 331.823 369.425 331.341 369.364 330.859C369.34 330.666 369.316 330.486 369.292 330.281C369.087 328.353 368.858 326.304 368.593 324.196C368.328 321.991 368.039 319.701 367.702 317.4C367.593 316.604 367.485 315.809 367.352 315.002C367.352 314.99 367.352 314.978 367.34 314.978C367.208 314.086 367.063 313.194 366.918 312.291C366.786 311.519 366.653 310.748 366.521 309.977C366.497 309.844 366.46 309.724 366.448 309.615C366.28 308.712 366.111 307.832 365.942 306.94C365.906 306.844 365.894 306.748 365.882 306.639C365.713 305.856 365.557 305.085 365.376 304.302C365.002 302.554 364.581 300.843 364.123 299.18C363.219 295.867 362.159 292.77 360.93 290.023C354.76 276.25 362.785 281.226 357.953 245.788C357.953 245.788 361.508 237.57 371.642 244.137C372.425 244.643 373.172 245.198 373.907 245.788H373.919C375.956 247.427 377.763 249.367 379.305 251.548C381.318 254.38 382.884 257.621 383.957 261.139C385.559 266.381 386.077 272.249 385.33 278.371C385.33 278.371 392.946 304.47 396.958 310.411C400.983 316.351 417.563 282.226 416.491 278.25C416.274 277.455 415.973 275.515 415.635 272.852C415.563 272.261 415.491 271.635 415.406 270.972C415.334 270.309 415.25 269.622 415.177 268.912C415.129 268.574 415.093 268.213 415.045 267.863C415.033 267.719 415.021 267.574 414.997 267.441C414.852 266.08 414.683 264.634 414.527 263.14C414.491 262.718 414.442 262.32 414.394 261.911C414.322 261.2 414.25 260.465 414.177 259.742C414.153 259.633 414.153 259.513 414.141 259.38C414.093 258.971 414.045 258.549 414.009 258.115C413.912 257.272 413.828 256.416 413.744 255.56C413.659 254.825 413.599 254.09 413.527 253.355C413.382 251.97 413.249 250.584 413.117 249.246C413.021 248.246 412.924 247.258 412.84 246.294C412.816 246.077 412.792 245.86 412.78 245.656C412.273 240.354 411.876 235.992 411.731 234.136C411.731 234.136 399.669 216.278 398.428 207.868C397.187 199.445 397.296 190.6 402.344 186.998C414.298 178.49 410.803 192.203 416.153 197.878C421.504 203.578 429.709 212.856 434.361 215.76C438.65 218.483 442.482 229.063 443.024 230.605C442.41 228.292 436.277 205.542 436.144 200.963C435.987 196.131 432.3 170.646 438.566 161.5C444.82 152.367 453.158 159.452 453.929 161.259C454.701 163.067 454.929 187.757 457.135 194.637C459.352 201.505 468.57 230.148 468.57 230.148C468.57 230.148 468.955 202.289 471.04 189.817C473.113 177.358 478.535 167.597 483.837 167.043C489.139 166.489 494.043 172.333 494.043 172.333C494.043 172.333 491.946 192.215 492.549 196.806C493.139 201.385 491.681 217.977 494.2 226.894C494.2 226.894 493.91 203.144 497.598 200.108C501.297 197.071 504.454 195.613 506.526 197.662C508.587 199.71 509.045 213.772 511.153 222.231C513.274 230.702 512.997 242.185 514.383 255.38C515.769 268.574 521.227 286.89 520.143 297.361C519.058 307.808 515.72 333.799 513.033 349.042C510.346 364.297 503.49 385.167 503.49 385.167C503.49 385.167 506.611 396.313 506.008 406.254C505.394 416.195 529.855 482.372 529.855 482.372Z" fill="#F5F7FA"/>
<path opacity="0.4" d="M457.135 194.637C458.774 199.722 464.244 216.736 466.98 225.231C466.98 225.231 455.014 234.028 455.316 242.185C455.629 250.343 453.122 266.839 447.76 266.369C442.398 265.911 442.88 231.594 441.121 225.834C442.205 228.304 442.916 230.328 443.061 230.726C442.663 229.244 436.277 205.638 436.144 200.963C436.108 199.867 435.891 197.674 435.638 194.842V194.782C435.638 194.782 447.519 183.407 456.255 190.371V190.383C456.52 192.119 456.81 193.577 457.135 194.637Z" fill="#C6B5DD"/>
<path opacity="0.4" d="M492.67 204.446C487.103 209.723 478.704 219.062 477.644 228.063C477.644 228.063 480.752 253.187 479.427 264.152L468.57 230.16C468.57 230.16 468.956 202.301 471.04 189.829C471.101 189.492 471.161 189.142 471.221 188.793C476.547 186.07 483.849 183.636 493.019 183.467C492.597 188.841 492.26 194.601 492.549 196.806C492.73 198.3 492.718 201.072 492.67 204.446Z" fill="#C6B5DD"/>
<path opacity="0.4" d="M497.598 200.108C497.574 200.132 497.562 200.144 497.55 200.144C497.417 200.24 497.092 200.493 496.622 200.891C496.923 200.337 497.236 199.806 497.574 199.324L497.598 200.108Z" fill="#C6B5DD"/>
<path opacity="0.4" d="M500.429 269.598C500.429 269.598 493.272 242.752 493.151 221.134C493.103 213.133 494.019 205.843 496.61 200.915L496.622 200.903C496.923 200.349 497.236 199.818 497.574 199.336L497.598 200.12C499.128 198.866 500.55 197.878 501.863 197.3C499.851 200.433 497.538 206.566 500.213 216.531C504.418 232.136 500.755 251.21 500.429 269.598Z" fill="#C6B5DD"/>
<path opacity="0.4" d="M401.706 320.761C401.706 320.761 403.634 346.343 383.065 355.513H383.053C382.162 354.706 381.306 353.898 380.463 353.091C380.101 352.754 379.764 352.416 379.426 352.091C378.065 350.741 376.8 349.428 375.679 348.138C375.269 347.669 374.884 347.211 374.522 346.765C372.389 344.126 370.883 341.656 370.377 339.427C370.341 339.306 370.317 339.173 370.305 339.053C370.269 338.896 370.244 338.752 370.232 338.607C370.003 336.739 369.762 334.607 369.521 332.293C369.473 331.835 369.425 331.353 369.365 330.871C369.341 330.678 369.317 330.486 369.305 330.293C369.088 328.365 368.859 326.316 368.606 324.208C368.341 322.003 368.051 319.713 367.714 317.412C367.594 316.616 367.485 315.809 367.365 315.014C367.365 315.002 367.365 314.99 367.353 314.99C367.22 314.098 367.075 313.194 366.931 312.303C366.798 311.531 366.666 310.76 366.533 309.977C366.509 309.857 366.485 309.736 366.461 309.615C366.292 308.724 366.123 307.832 365.943 306.94C365.919 306.844 365.895 306.736 365.882 306.639C365.726 305.856 365.557 305.073 365.388 304.302C364.991 302.554 364.581 300.843 364.123 299.18C372.257 291.348 391.03 296.264 381.945 278.13C381.945 278.13 386.524 262.61 373.908 245.776H373.92C382.547 252.741 386.969 264.959 385.331 278.371C385.331 278.371 392.946 304.458 396.959 310.411C400.983 316.351 417.564 282.226 416.479 278.25C416.274 277.467 415.973 275.515 415.636 272.852C415.563 272.261 415.491 271.635 415.407 270.972C415.322 270.309 415.25 269.622 415.166 268.912C415.118 268.574 415.081 268.225 415.045 267.875C415.033 267.731 415.021 267.586 414.997 267.454C414.853 266.08 414.696 264.646 414.527 263.14C414.491 262.73 414.443 262.32 414.395 261.911C414.322 261.2 414.25 260.477 414.178 259.742C414.166 259.633 414.154 259.513 414.142 259.38C414.105 258.97 414.045 258.549 414.009 258.103C413.913 257.259 413.84 256.404 413.744 255.548C413.672 254.813 413.599 254.078 413.527 253.343C413.394 251.958 413.25 250.572 413.129 249.234C413.033 248.234 412.937 247.234 412.84 246.294C412.816 246.077 412.804 245.86 412.78 245.644C413.117 247.222 419.227 276.31 422.709 283.082C426.288 290.071 411.093 326.786 401.706 320.761Z" fill="#C6B5DD"/>
<path opacity="0.4" d="M513.034 349.042C510.347 364.297 503.502 385.167 503.502 385.167C503.502 385.167 506.623 396.313 506.009 406.254C505.84 408.929 507.503 415.677 509.985 424.112C509.262 422.256 501.586 402.35 501.707 395.41C501.852 388.119 499.779 386.107 495.718 377.154C491.67 368.189 485.464 369.189 485.464 369.189C485.464 369.189 483.078 391.53 477.463 376.853C471.86 362.164 470.775 345.102 484.91 285.817C484.91 285.817 487.042 293.252 485.259 315.339C483.464 337.438 488.753 344.114 488.753 344.114C488.753 344.114 500.177 325.304 507.539 300.301C507.539 300.301 505.719 326.075 504.081 337.824C502.454 349.56 509.877 324.22 515.058 308.555C519.926 293.866 520.107 288.275 518.251 277.816C519.625 285.191 520.661 292.216 520.131 297.349C519.059 307.808 515.721 333.799 513.034 349.042Z" fill="#C6B5DD"/>
<path opacity="0.4" d="M416.359 398.735C420.528 405.363 430.734 414.123 436.819 438.355C442.904 462.587 439.072 489.108 439.072 489.108L416.359 398.735Z" fill="#C6B5DD"/>
<path opacity="0.2" d="M383.957 261.139C383.957 261.139 362.617 271.948 360.93 290.023C354.76 276.25 362.786 281.226 357.954 245.788C357.954 245.788 361.508 237.57 371.642 244.137C372.425 244.643 373.172 245.198 373.908 245.788H373.92C375.956 247.427 377.763 249.367 379.306 251.548L383.957 261.139Z" fill="black" fill-opacity="0.7"/>
<path d="M444.302 496.93C444.302 496.93 429.421 417.823 420.528 405.364C411.647 392.905 413.274 387.771 408.96 379.373C404.646 370.974 371.69 350.538 370.232 338.596C368.774 326.667 367.099 303.797 360.93 290.024C354.76 276.239 362.786 281.228 357.942 245.79C357.942 245.79 361.52 237.584 371.642 244.139C381.764 250.706 387.102 263.84 385.331 278.384C385.331 278.384 392.946 304.472 396.959 310.412C400.983 316.365 417.552 282.228 416.479 278.239C415.407 274.251 412.226 240.319 411.732 234.137C411.732 234.137 399.67 216.268 398.429 207.869C397.188 199.458 397.296 190.602 402.345 187.011C414.298 178.504 410.804 192.216 416.154 197.904C421.504 203.591 429.71 212.87 434.361 215.786C439.012 218.702 443.085 230.812 443.085 230.812C443.085 230.812 436.289 205.821 436.144 200.989C436 196.157 432.3 170.672 438.566 161.538C444.832 152.404 453.171 159.489 453.93 161.285C454.701 163.092 454.942 187.782 457.147 194.651C459.352 201.531 468.57 230.173 468.57 230.173C468.57 230.173 468.968 202.314 471.04 189.843C473.125 177.371 478.547 167.611 483.837 167.069C489.139 166.514 494.043 172.359 494.043 172.359C494.043 172.359 491.947 192.241 492.537 196.832C493.127 201.422 491.681 218.003 494.2 226.92C494.2 226.92 493.899 203.17 497.598 200.133C501.297 197.097 504.454 195.639 506.515 197.687C508.587 199.735 509.033 213.797 511.154 222.256C513.262 230.715 512.997 242.211 514.383 255.405C515.769 268.6 521.227 286.915 520.143 297.374C519.058 307.834 515.709 333.813 513.021 349.068C510.334 364.323 503.49 385.193 503.49 385.193C503.49 385.193 506.611 396.339 505.997 406.28C505.382 416.221 529.843 482.398 529.843 482.398" stroke="#263238" stroke-miterlimit="10" stroke-linecap="round" stroke-linejoin="round"/>
<path d="M468.558 230.148C471.052 236.004 477.21 260.73 479.415 264.152C481.62 267.574 484.114 268.61 484.114 268.61" stroke="#263238" stroke-miterlimit="10" stroke-linecap="round" stroke-linejoin="round"/>
<path d="M494.2 226.894C494.2 226.894 493.67 231.955 496.405 248.114C499.14 264.26 500.478 271.141 502.008 274.744" stroke="#263238" stroke-miterlimit="10" stroke-linecap="round" stroke-linejoin="round"/>
<path d="M443.085 230.786C446.435 240.631 448.314 256.32 450.218 261.043C452.122 265.767 453.821 266.743 453.821 266.743" stroke="#263238" stroke-miterlimit="10" stroke-linecap="round" stroke-linejoin="round"/>
<path d="M448.495 254.404C448.495 254.404 452.002 257.006 453.122 260.248" stroke="#263238" stroke-miterlimit="10" stroke-linecap="round" stroke-linejoin="round"/>
<path d="M396.971 310.411C396.971 310.411 398.802 323.461 406.984 322.424" stroke="#263238" stroke-miterlimit="10" stroke-linecap="round" stroke-linejoin="round"/>
<path d="M416.479 278.238C416.479 278.238 418.6 293.746 415.117 300.337" stroke="#263238" stroke-miterlimit="10" stroke-linecap="round" stroke-linejoin="round"/>
<path d="M481.837 278.383C481.837 278.383 487.331 281.744 483.656 291.613C479.981 301.482 473.595 341.294 473.595 341.294" stroke="#263238" stroke-miterlimit="10" stroke-linecap="round" stroke-linejoin="round"/>
<path d="M505.756 288.794C508.057 297.71 508.262 297.939 504.526 308.893C500.779 319.846 494.754 346.668 494.754 346.668" stroke="#263238" stroke-miterlimit="10" stroke-linecap="round" stroke-linejoin="round"/>
<path d="M503.502 385.167C503.502 385.167 499.911 377.913 502.876 371.949" stroke="#263238" stroke-miterlimit="10" stroke-linecap="round" stroke-linejoin="round"/>
<path d="M420.528 405.363C420.528 405.363 429.613 418.123 433.566 432.402" stroke="#263238" stroke-miterlimit="10" stroke-linecap="round" stroke-linejoin="round"/>
<path d="M487.38 181.684L489.838 179.262L490.946 178.936L490.874 180.141L488.609 183.021L487.38 181.684Z" fill="#757575" stroke="#263238" stroke-miterlimit="10" stroke-linecap="round" stroke-linejoin="round"/>
<path d="M489.368 183.033L485.379 192.107L377.896 335.414L365.919 327.786L382.174 307.398L478.716 186.299L487.235 180.888C487.223 180.876 489.043 181.346 489.368 183.033Z" fill="#C6B5DD"/>
<path opacity="0.3" d="M489.368 183.033L485.379 192.107L377.896 335.414L365.919 327.786L382.174 307.398C389.644 306.627 390.886 311.037 390.886 311.037L483.488 190.179C482.584 186.925 478.716 186.299 478.716 186.299L487.235 180.888C487.223 180.876 489.043 181.346 489.368 183.033Z" fill="black" fill-opacity="0.7"/>
<path d="M489.368 183.033L485.379 192.107L377.896 335.414L365.919 327.786L382.174 307.398L478.716 186.299L487.235 180.888C487.223 180.876 489.043 181.346 489.368 183.033Z" stroke="#263238" stroke-miterlimit="10" stroke-linecap="round" stroke-linejoin="round"/>
<path d="M412.949 292.975C412.949 292.975 400.959 316.785 389.416 333.631L381.174 335.763C381.174 335.763 362.255 354.561 350.712 363.948C350.712 363.948 347.748 362.225 345.073 359.212C345.073 359.212 361.46 327.738 379.595 307.82C379.595 307.82 382.234 308.627 385.548 310.977C387.512 312.375 389.729 314.303 391.753 316.93L411.961 291.505L412.949 292.975Z" fill="#C6B5DD"/>
<path opacity="0.3" d="M412.949 292.975C412.949 292.975 400.959 316.785 389.415 333.631L381.173 335.763C381.173 335.763 362.255 354.561 350.712 363.948L351.025 358.839C363.545 339.716 379.45 318.858 385.535 310.977C387.5 312.375 389.717 314.303 391.741 316.93L380.511 331.92L386.945 330.763L411.948 291.505L412.949 292.975Z" fill="black" fill-opacity="0.7"/>
<path d="M412.949 292.975C412.949 292.975 400.959 316.785 389.416 333.631L381.174 335.763C381.174 335.763 362.255 354.561 350.712 363.948C350.712 363.948 347.748 362.225 345.073 359.212C345.073 359.212 361.46 327.738 379.595 307.82C379.595 307.82 382.234 308.627 385.548 310.977C387.512 312.375 389.729 314.303 391.753 316.93L411.961 291.505L412.949 292.975Z" stroke="#263238" stroke-miterlimit="10" stroke-linecap="round" stroke-linejoin="round"/>
<path d="M453.81 266.743L420.24 299.301L414.878 304.507C418.553 295.06 416.769 280.468 416.54 278.684C416.54 278.672 416.54 278.66 416.54 278.66C416.528 278.564 416.516 278.503 416.516 278.503C416.516 278.419 416.504 278.311 416.492 278.25C416.287 277.467 415.986 275.515 415.649 272.852C415.576 272.262 415.504 271.635 415.42 270.972C415.335 270.31 415.263 269.623 415.179 268.912C415.131 268.574 415.094 268.225 415.058 267.876C415.046 267.731 415.034 267.586 415.01 267.454C414.865 266.092 414.697 264.646 414.54 263.14C414.504 262.73 414.456 262.321 414.408 261.911C414.335 261.2 414.263 260.477 414.191 259.742C414.179 259.634 414.167 259.513 414.155 259.38C414.118 258.971 414.058 258.549 414.022 258.103C413.926 257.26 413.853 256.404 413.757 255.549C413.685 254.814 413.612 254.079 413.54 253.344C413.407 251.958 413.263 250.572 413.142 249.235C413.034 248.234 412.938 247.246 412.853 246.294C412.829 246.078 412.817 245.861 412.793 245.644C412.287 240.342 411.889 235.992 411.745 234.124C411.745 234.124 399.695 216.267 398.442 207.856C397.201 199.445 397.309 190.589 402.358 186.998C414.311 178.479 410.805 192.191 416.155 197.879C421.505 203.578 429.723 212.844 434.362 215.76C439.001 218.689 443.086 230.786 443.086 230.786C446.424 240.631 448.316 256.308 450.219 261.043C452.123 265.767 453.81 266.743 453.81 266.743Z" fill="white"/>
<path d="M448.495 254.404C448.495 254.404 452.002 257.006 453.122 260.248" stroke="#263238" stroke-miterlimit="10" stroke-linecap="round" stroke-linejoin="round"/>
<path opacity="0.4" d="M416.155 197.88C421.481 203.567 429.662 212.785 434.313 215.738C433.663 215.412 425.095 211.231 420.312 215.882C415.335 220.726 411.732 234.137 411.732 234.137C411.732 234.137 399.683 216.28 398.429 207.869C397.188 199.458 397.297 190.602 402.346 187.011C414.299 178.492 410.804 192.204 416.155 197.88Z" fill="#C6B5DD"/>
<path opacity="0.4" d="M420.239 299.301L414.877 304.506C418.552 295.059 416.768 280.467 416.539 278.684C416.539 278.672 416.539 278.66 416.539 278.66C416.539 278.491 416.515 278.359 416.491 278.25C416.286 277.467 415.985 275.515 415.648 272.852C415.575 272.261 415.503 271.635 415.419 270.972C415.334 270.309 415.262 269.622 415.178 268.912C415.13 268.574 415.093 268.225 415.057 267.875C415.045 267.731 415.033 267.586 415.009 267.454C414.864 266.08 414.708 264.646 414.539 263.14C414.503 262.73 414.455 262.32 414.407 261.911C414.334 261.2 414.262 260.477 414.19 259.742C414.178 259.633 414.166 259.513 414.154 259.38C414.117 258.971 414.057 258.549 414.021 258.103C413.925 257.259 413.852 256.404 413.756 255.548C413.684 254.813 413.611 254.078 413.539 253.343C413.406 251.958 413.262 250.572 413.141 249.234C413.045 248.234 412.949 247.234 412.852 246.294C412.828 246.077 412.816 245.86 412.792 245.644C413.129 247.222 419.239 276.31 422.721 283.082C424.022 285.661 422.793 292.276 420.239 299.301Z" fill="#C6B5DD"/>
<path d="M453.809 266.743C453.809 266.743 452.11 265.767 450.206 261.043C448.302 256.32 446.411 240.631 443.073 230.786C443.073 230.786 438.988 218.676 434.349 215.76C429.698 212.844 421.504 203.566 416.142 197.878C410.792 192.191 414.286 178.478 402.333 186.985C397.284 190.576 397.188 199.433 398.417 207.844C399.658 216.254 411.72 234.112 411.72 234.112C412.214 240.305 415.395 274.237 416.467 278.214" stroke="#263238" stroke-miterlimit="10" stroke-linecap="round" stroke-linejoin="round"/>
<path d="M416.479 278.238C416.479 278.238 418.6 293.746 415.117 300.337" stroke="#263238" stroke-miterlimit="10" stroke-linecap="round" stroke-linejoin="round"/>
<path opacity="0.2" d="M210.393 297.216C210.393 297.216 218.02 332.63 201.5 358.405C184.98 384.167 172.267 391.047 166.544 398.735C160.82 406.423 138.444 449.404 138.444 449.404L112.296 371.961L138.444 276.153L210.393 297.216Z" fill="black" fill-opacity="0.7"/>
<path d="M364.509 270.14L202.367 338.378L185.655 345.415L154.157 270.574L81.0147 96.7811L259.869 21.5065L364.509 270.14Z" fill="white"/>
<path d="M213.658 53.86L136.456 86.3461C135.01 86.9606 134.323 88.6235 134.937 90.0694C135.552 91.5154 137.215 92.2022 138.661 91.5877L215.863 59.1016C217.309 58.4871 217.996 56.8242 217.382 55.3783C216.779 53.9203 215.104 53.2455 213.658 53.86Z" fill="#263238"/>
<path d="M198.897 72.766L160.29 89.009C159.567 89.3103 159.23 90.1537 159.531 90.8767C159.832 91.5997 160.676 91.9371 161.399 91.6358L200.006 75.3928C200.729 75.0916 201.066 74.2481 200.765 73.5251C200.452 72.8021 199.62 72.4527 198.897 72.766Z" fill="#263238"/>
<path d="M262.411 171.73C262.411 171.73 264.038 184.515 259.278 186.527C254.928 188.359 249.205 181.491 244.204 183.599C239.204 185.708 243.144 203.831 238.324 205.867C233.504 207.892 227.696 200.445 223.539 202.192C219.382 203.939 221.9 213.266 217.61 215.073C214.068 216.567 209.007 209.145 204.958 207.518C204.103 207.169 203.283 207.084 202.548 207.398C198.307 209.181 200.415 228.665 196.752 230.196C195.535 230.714 194.475 230.798 193.499 230.726C192.053 230.629 190.776 230.196 189.366 230.34C188.872 230.388 188.366 230.509 187.824 230.738C184.703 232.051 185.124 242.306 182.269 243.511C179.413 244.716 176.593 243.221 173.545 244.511C170.496 245.8 170.544 251.126 166.001 253.042L167.929 257.609L278.919 210.904" fill="#BFBFBF"/>
<path d="M262.411 171.73C262.411 171.73 264.038 184.515 259.278 186.527C254.928 188.359 249.205 181.491 244.204 183.599C239.204 185.708 243.144 203.831 238.324 205.867C233.504 207.892 227.696 200.445 223.539 202.192C219.382 203.939 221.9 213.266 217.61 215.073C214.068 216.567 209.007 209.145 204.958 207.518C204.103 207.169 203.283 207.084 202.548 207.398C198.307 209.181 200.415 228.665 196.752 230.196C195.535 230.714 194.475 230.798 193.499 230.726C192.053 230.629 190.776 230.196 189.366 230.34C188.872 230.388 188.366 230.509 187.824 230.738C184.703 232.051 185.124 242.306 182.269 243.511C179.413 244.716 176.593 243.221 173.545 244.511C170.496 245.8 170.544 251.126 166.001 253.042L167.929 257.609L278.919 210.904" stroke="#263238" stroke-miterlimit="10"/>
<path d="M145.433 204.204L167.905 257.597L284.113 208.699" stroke="#263238" stroke-miterlimit="10" stroke-linecap="round" stroke-linejoin="round"/>
<path d="M271.34 192.95C271.34 192.95 270.798 192.275 269.967 191.48C268.533 190.094 266.255 188.335 264.52 189.058C262.821 189.769 262.676 192.588 262.713 195.589C262.749 199.252 263.074 203.18 261.231 203.963C259.664 204.626 258.266 203.626 256.82 202.554C255.17 201.325 253.483 199.975 251.446 200.83C248.024 202.276 249.06 206.735 247.855 210.555C247.241 212.507 246.036 214.29 243.349 215.423C240.385 216.664 237.384 215.447 234.564 213.519C229.793 210.265 225.503 204.988 222.72 206.156C218.297 208.012 223.178 219.977 218.418 221.978C215.767 223.098 210.272 214.724 204.934 207.53C200.717 201.831 196.596 196.878 194.053 197.939C188.318 200.348 197.765 228.942 193.595 230.702C193.559 230.714 193.511 230.738 193.463 230.75C191.728 231.437 190.45 231.003 189.33 230.364C187.824 229.509 186.607 228.304 184.944 229.003C181.871 230.292 183.679 241.498 180.293 242.932C176.907 244.354 174.882 242.294 171.074 243.896C167.857 245.246 165.941 253.054 165.941 253.054L167.869 257.621L278.859 210.916" fill="#757575"/>
<path d="M271.34 192.95C271.34 192.95 270.798 192.275 269.967 191.48C268.533 190.094 266.255 188.335 264.52 189.058C262.821 189.769 262.676 192.588 262.713 195.589C262.749 199.252 263.074 203.18 261.231 203.963C259.664 204.626 258.266 203.626 256.82 202.554C255.17 201.325 253.483 199.975 251.446 200.83C248.024 202.276 249.06 206.735 247.855 210.555C247.241 212.507 246.036 214.29 243.349 215.423C240.385 216.664 237.384 215.447 234.564 213.519C229.793 210.265 225.503 204.988 222.72 206.156C218.297 208.012 223.178 219.977 218.418 221.978C215.767 223.098 210.272 214.724 204.934 207.53C200.717 201.831 196.596 196.878 194.053 197.939C188.318 200.348 197.765 228.942 193.595 230.702C193.559 230.714 193.511 230.738 193.463 230.75C191.728 231.437 190.45 231.003 189.33 230.364C187.824 229.509 186.607 228.304 184.944 229.003C181.871 230.292 183.679 241.498 180.293 242.932C176.907 244.354 174.882 242.294 171.074 243.896C167.857 245.246 165.941 253.054 165.941 253.054L167.869 257.621L278.859 210.916" stroke="#263238" stroke-miterlimit="10" stroke-linecap="round" stroke-linejoin="round"/>
<path d="M247.843 231.063L209.236 247.306C208.513 247.607 208.176 248.451 208.477 249.174C208.778 249.897 209.622 250.234 210.345 249.933L248.952 233.69C249.675 233.389 250.012 232.545 249.711 231.822C249.41 231.099 248.578 230.762 247.843 231.063Z" fill="#263238"/>
<path d="M280.582 172.212L276.847 173.779C276.461 173.935 276.016 173.755 275.859 173.381L274.292 169.646C274.136 169.26 274.317 168.814 274.69 168.658L278.426 167.091C278.811 166.935 279.257 167.115 279.414 167.489L280.98 171.224C281.149 171.598 280.968 172.044 280.582 172.212Z" fill="#BFBFBF" stroke="#263238" stroke-miterlimit="10"/>
<path d="M298.597 160.801L283.173 167.296C282.848 167.429 282.474 167.284 282.342 166.959C282.209 166.633 282.354 166.26 282.679 166.127L298.103 159.632C298.428 159.5 298.802 159.645 298.934 159.97C299.067 160.295 298.922 160.657 298.597 160.801Z" fill="#263238"/>
<path d="M294.97 165.344L284.245 169.851C283.92 169.983 283.547 169.839 283.414 169.513C283.282 169.188 283.426 168.814 283.751 168.682L294.476 164.175C294.801 164.043 295.175 164.187 295.307 164.513C295.44 164.826 295.295 165.199 294.97 165.344Z" fill="#263238"/>
<path d="M285.414 183.672L281.679 185.238C281.293 185.395 280.847 185.214 280.691 184.84L279.124 181.105C278.968 180.719 279.148 180.274 279.522 180.117L283.257 178.551C283.643 178.394 284.089 178.575 284.245 178.948L285.812 182.684C285.969 183.069 285.788 183.515 285.414 183.672Z" fill="#757575" stroke="#263238" stroke-miterlimit="10" stroke-linecap="round" stroke-linejoin="round"/>
<path d="M303.417 172.273L287.993 178.767C287.668 178.9 287.294 178.755 287.161 178.43C287.029 178.105 287.174 177.731 287.499 177.599L302.923 171.104C303.248 170.971 303.621 171.116 303.754 171.441C303.899 171.754 303.742 172.128 303.417 172.273Z" fill="#263238"/>
<path d="M299.79 176.803L289.065 181.31C288.74 181.442 288.366 181.298 288.234 180.973C288.101 180.647 288.246 180.274 288.571 180.141L299.296 175.634C299.621 175.502 299.994 175.647 300.127 175.972C300.272 176.297 300.115 176.671 299.79 176.803Z" fill="#263238"/>
<path d="M323.708 219.556L198.403 272.285C197.68 272.587 197.343 273.43 197.644 274.153C197.945 274.876 198.789 275.213 199.512 274.912L324.817 222.183C325.54 221.881 325.877 221.038 325.576 220.315C325.263 219.592 324.431 219.242 323.708 219.556Z" fill="#263238"/>
<path d="M327.685 228.991L181.979 290.312C181.256 290.613 180.919 291.456 181.22 292.179C181.522 292.902 182.365 293.24 183.088 292.939L328.793 231.617C329.516 231.316 329.854 230.473 329.552 229.75C329.239 229.027 328.408 228.677 327.685 228.991Z" fill="#263238"/>
<path d="M331.649 238.426L185.944 299.747C185.221 300.048 184.883 300.891 185.185 301.614C185.486 302.337 186.329 302.675 187.052 302.373L332.758 241.052C333.481 240.751 333.818 239.908 333.517 239.185C333.216 238.462 332.372 238.112 331.649 238.426Z" fill="#263238"/>
<path d="M335.625 247.861L189.92 309.182C189.197 309.483 188.86 310.326 189.161 311.049C189.462 311.772 190.306 312.11 191.029 311.808L336.734 250.487C337.457 250.186 337.794 249.343 337.493 248.62C337.18 247.897 336.348 247.547 335.625 247.861Z" fill="#263238"/>
<path d="M278.389 283.046L193.885 318.604C193.162 318.906 192.824 319.749 193.125 320.472C193.427 321.195 194.27 321.533 194.993 321.231L279.498 285.673C280.221 285.371 280.558 284.528 280.257 283.805C279.944 283.082 279.112 282.744 278.389 283.046Z" fill="#263238"/>
<path d="M231.853 99.1067C231.853 99.1067 233.48 111.891 228.72 113.904C224.37 115.735 218.647 108.867 213.646 110.976C208.645 113.084 212.586 131.207 207.766 133.244C202.946 135.268 197.138 127.821 192.981 129.568C188.824 131.316 191.342 140.642 187.052 142.45C183.51 143.944 178.449 136.521 174.4 134.894C173.545 134.545 172.725 134.461 171.99 134.774C167.749 136.557 169.857 156.042 166.194 157.572C164.977 158.09 163.917 158.174 162.941 158.102C161.495 158.006 160.218 157.572 158.808 157.717C158.314 157.765 157.808 157.885 157.265 158.114C154.145 159.428 154.566 169.682 151.711 170.887C148.855 172.092 146.035 170.598 142.987 171.887C139.938 173.176 139.986 178.502 135.443 180.418L137.371 184.985L248.361 138.28" fill="#BFBFBF"/>
<path d="M231.853 99.1067C231.853 99.1067 233.48 111.891 228.72 113.904C224.37 115.735 218.647 108.867 213.646 110.976C208.645 113.084 212.586 131.207 207.766 133.244C202.946 135.268 197.138 127.821 192.981 129.568C188.824 131.316 191.342 140.642 187.052 142.45C183.51 143.944 178.449 136.521 174.4 134.894C173.545 134.545 172.725 134.461 171.99 134.774C167.749 136.557 169.857 156.042 166.194 157.572C164.977 158.09 163.917 158.174 162.941 158.102C161.495 158.006 160.218 157.572 158.808 157.717C158.314 157.765 157.808 157.885 157.265 158.114C154.145 159.428 154.566 169.682 151.711 170.887C148.855 172.092 146.035 170.598 142.987 171.887C139.938 173.176 139.986 178.502 135.443 180.418L137.371 184.985L248.361 138.28" stroke="#263238" stroke-miterlimit="10"/>
<path d="M239.023 116.157C239.023 116.157 240.035 122.351 237.589 123.387C235.552 124.242 234.299 123.049 232.154 122.977C231.299 122.941 230.299 123.086 229.046 123.616C227.082 124.435 226.612 127.086 226.262 129.942C225.828 133.448 225.611 137.244 223.045 138.329C221.249 139.088 219.309 138.642 217.309 137.943C214.128 136.834 210.766 135.075 207.537 136.437C205.97 137.099 204.874 138.798 204.018 140.907C202.006 145.884 201.379 153.089 199.198 154.005C196.102 155.307 190.426 149.981 187.679 151.137C184.932 152.294 186.052 157.078 183.823 158.018C181.594 158.958 180.317 156.186 176.388 157.837C172.46 159.488 174.376 165.296 168.833 167.621C163.29 169.947 160.868 165.669 155.506 167.923C150.144 170.176 151.12 174.237 147.349 175.827C143.577 177.418 141.974 174.658 139.275 175.791C136.648 176.9 135.937 181.201 135.889 181.479L137.371 184.997L248.361 138.292" fill="#C6B5DD"/>
<path d="M239.023 116.157C239.023 116.157 240.035 122.351 237.589 123.387C235.552 124.242 234.299 123.049 232.154 122.977C231.299 122.941 230.299 123.086 229.046 123.616C227.082 124.435 226.612 127.086 226.262 129.942C225.828 133.448 225.611 137.244 223.045 138.329C221.249 139.088 219.309 138.642 217.309 137.943C214.128 136.834 210.766 135.075 207.537 136.437C205.97 137.099 204.874 138.798 204.018 140.907C202.006 145.884 201.379 153.089 199.198 154.005C196.102 155.307 190.426 149.981 187.679 151.137C184.932 152.294 186.052 157.078 183.823 158.018C181.594 158.958 180.317 156.186 176.388 157.837C172.46 159.488 174.376 165.296 168.833 167.621C163.29 169.947 160.868 165.669 155.506 167.923C150.144 170.176 151.12 174.237 147.349 175.827C143.577 177.418 141.974 174.658 139.275 175.791C136.648 176.9 135.937 181.201 135.889 181.479L137.371 184.997L248.361 138.292" stroke="#263238" stroke-miterlimit="10"/>
<path d="M114.875 131.593L137.347 184.985L253.555 136.087" stroke="#263238" stroke-miterlimit="10" stroke-linecap="round" stroke-linejoin="round"/>
<path d="M216.936 157.62L178.328 173.863C177.605 174.164 177.268 175.008 177.569 175.731C177.87 176.454 178.714 176.791 179.437 176.49L218.044 160.247C218.767 159.946 219.105 159.102 218.803 158.379C218.502 157.656 217.671 157.319 216.936 157.62Z" fill="#263238"/>
<path d="M248.072 94.9616L244.337 96.5281C243.951 96.6847 243.505 96.504 243.349 96.1304L241.782 92.395C241.626 92.0094 241.806 91.5636 242.18 91.4069L245.915 89.8405C246.301 89.6838 246.747 89.8646 246.903 90.2381L248.47 93.9735C248.639 94.3591 248.458 94.7929 248.072 94.9616Z" fill="#BFBFBF" stroke="#263238" stroke-miterlimit="10"/>
<path d="M266.086 83.5505L250.663 90.0453C250.337 90.1779 249.964 90.0333 249.831 89.7079C249.699 89.3826 249.843 89.009 250.169 88.8765L265.592 82.3817C265.918 82.2491 266.291 82.3937 266.424 82.7191C266.568 83.0444 266.412 83.418 266.086 83.5505Z" fill="#263238"/>
<path d="M262.46 88.0933L251.735 92.5999C251.41 92.7324 251.036 92.5878 250.904 92.2625C250.771 91.9371 250.916 91.5636 251.241 91.431L261.966 86.9244C262.291 86.7919 262.664 86.9365 262.797 87.2618C262.93 87.5751 262.785 87.9487 262.46 88.0933Z" fill="#263238"/>
<path d="M252.904 106.433L249.169 107.999C248.783 108.156 248.337 107.975 248.181 107.602L246.614 103.866C246.457 103.481 246.638 103.035 247.012 102.878L250.747 101.312C251.133 101.155 251.579 101.336 251.735 101.709L253.302 105.445C253.458 105.818 253.278 106.264 252.904 106.433Z" fill="#C6B5DD" stroke="#263238" stroke-miterlimit="10"/>
<path d="M270.906 95.0218L255.483 101.517C255.157 101.649 254.784 101.505 254.651 101.179C254.519 100.854 254.663 100.48 254.989 100.348L270.412 93.853C270.738 93.7205 271.111 93.8651 271.244 94.1904C271.376 94.5158 271.232 94.8772 270.906 95.0218Z" fill="#263238"/>
<path d="M267.279 99.5646L256.555 104.071C256.23 104.204 255.856 104.059 255.724 103.734C255.591 103.408 255.736 103.035 256.061 102.902L266.785 98.3958C267.111 98.2632 267.484 98.4078 267.617 98.7332C267.761 99.0465 267.605 99.42 267.279 99.5646Z" fill="#263238"/>
<path opacity="0.2" d="M202.368 338.378L185.655 345.415L154.157 270.574C156.133 268.694 158.446 265.477 159.422 260.248C161.302 250.222 159.977 217.989 185.076 214.664C210.164 211.338 189.004 267.779 190.161 278.539C191.222 288.336 205.525 316.809 202.368 338.378Z" fill="black" fill-opacity="0.7"/>
<path d="M364.509 270.14L202.367 338.378L185.655 345.415L154.157 270.574L81.0147 96.7811L259.869 21.5065L364.509 270.14Z" stroke="#263238" stroke-miterlimit="10" stroke-linecap="round" stroke-linejoin="round"/>
<path d="M192.27 282.624C195.077 273.008 206.067 242.124 204.633 228.472C204.5 227.243 204.235 226.134 203.862 225.146C200.006 214.952 184.245 215.94 178.184 224.387C171.532 233.678 166.11 250.403 165.64 260.573C165.387 266.2 162.977 271.357 160.868 274.864C160.856 274.888 160.856 274.9 160.844 274.912C159.145 277.731 157.651 279.442 157.651 279.442L121.683 194.106C121.683 194.106 115.875 198.806 112.272 204.614C110.814 206.939 109.729 209.47 109.512 211.928C108.777 220.326 99.2581 254.861 95.2937 269.441C95.2214 269.754 95.125 270.044 95.0527 270.333C91.245 284.335 101.294 336.341 98.4266 351.452C95.5467 366.55 93.7634 366.225 93.3537 376.949C93.0524 384.781 81.8462 408.591 69.2904 433.04C62.0967 447.054 54.4451 461.261 48.1431 472.768L140.107 468.948C141.697 457.778 143.336 445.982 144.83 434.571C145.445 429.871 146.445 425.039 147.577 420.46C147.577 420.46 147.577 420.46 147.577 420.448C149.602 412.254 152.084 404.844 153.578 400.506C155.928 393.734 158.374 381.106 158.374 381.106C169.074 369.779 183.1 351.994 187.161 339.932C187.173 339.908 187.185 339.872 187.185 339.848C188.209 336.799 188.583 334.124 188.101 332.027C187.691 330.292 187.474 328.039 187.378 325.448C187.39 325.436 187.39 325.436 187.378 325.424C186.932 312.362 189.908 290.637 192.27 282.624Z" fill="#F5F7FA"/>
<path opacity="0.4" d="M160.856 274.9C158 280.624 154.566 286.179 152.373 292.601C150.18 299.012 147.831 299.927 141.384 304.94C134.949 309.965 130.25 301.687 130.25 301.687C130.25 301.687 138.769 292.842 135.937 287.914C133.094 282.985 122.514 270.731 123.141 263.971C123.755 257.211 116.718 242.053 116.718 242.053C116.718 242.053 132.78 232.63 129.66 221.616C127.961 215.579 119.55 209.169 112.296 204.602C115.899 198.794 121.707 194.095 121.707 194.095L157.675 279.431C157.663 279.431 159.157 277.708 160.856 274.9Z" fill="#C6B5DD"/>
<path opacity="0.4" d="M102.536 327.244C102.752 327.967 107.982 345.234 103.572 352.428C99.0532 359.778 94.631 369.165 96.7879 378.925C98.511 386.734 84.0513 414.93 69.3025 433.029C81.8583 408.58 93.0645 384.769 93.3658 376.937C93.7875 366.213 95.5588 366.538 98.4387 351.44C101.307 336.33 91.2691 284.323 95.0648 270.321C95.1371 270.032 95.2335 269.743 95.3058 269.43C98.1133 285.299 104.656 316.905 106.452 327.063C108.741 339.993 102.777 327.75 102.536 327.244Z" fill="#C6B5DD"/>
<path opacity="0.4" d="M135.648 431.438C146.336 385.42 182.305 350.139 187.173 339.92C183.112 351.97 169.086 369.768 158.386 381.094C158.386 381.094 155.94 393.71 153.59 400.494C152.084 404.832 149.614 412.243 147.59 420.437C147.59 420.449 147.59 420.449 147.59 420.449C137.142 432.751 135.648 431.438 135.648 431.438Z" fill="#C6B5DD"/>
<path opacity="0.4" d="M192.27 282.624C189.908 290.637 186.92 312.363 187.39 325.413C185.498 317.219 181.859 306.808 181.256 292.312C180.232 267.731 194.162 276.551 189.306 264.441C184.45 252.343 170.604 267.851 177.425 242.221C182.401 223.508 196.584 223.677 203.862 225.135C204.235 226.123 204.5 227.231 204.633 228.46C206.079 242.113 195.089 272.996 192.27 282.624Z" fill="#C6B5DD"/>
<path d="M62.1449 447.38C73.6765 426.305 84.8947 404.627 92.9681 381.251C93.932 377.889 92.6427 373.515 93.6187 370.153C104.548 339.788 92.1487 308.181 94.1851 277.093C95.8961 264.839 99.8123 252.488 103.728 240.149C105.572 231.208 106.271 221.219 109.211 212.229C112.248 205.458 115.248 197.577 121.707 194.107C133.997 222.279 146.252 250.56 157.675 279.443C162.832 276.454 163.664 269.779 164.543 264.2C167.315 250.789 170.122 238.498 175.195 227.207C180.353 218.134 193.487 214.266 201.548 221.676C203.85 223.797 205.091 227.063 205.235 230.388C203.669 245.957 198.777 261.67 193.848 276.274C191.908 282.998 189.932 288.625 189.101 295.3C189.197 297.517 189.233 298.614 189.33 300.831C186.474 312.025 189.101 321.882 188.45 332.992C185.956 353.03 169.93 366.996 158.362 381.865C155.506 393.06 152.65 404.254 148.686 415.496C143.842 432.318 142.324 448.994 140.673 465.201" stroke="#263238" stroke-miterlimit="10" stroke-linecap="round" stroke-linejoin="round"/>
<path d="M157.675 279.431C157.675 279.431 153.892 286.697 152.385 292.601C150.879 298.505 143.252 297.65 139.311 301.325" stroke="#263238" stroke-miterlimit="10" stroke-linecap="round" stroke-linejoin="round"/>
<path d="M128.9 269.032C128.9 269.032 139.275 272.695 145.312 277.406C151.349 282.118 155.819 283.275 155.819 283.275" stroke="#263238" stroke-miterlimit="10" stroke-linecap="round" stroke-linejoin="round"/>
<path d="M122.285 243.306C122.285 243.306 130.659 245.655 136.865 242.703C136.865 242.703 137.323 237.57 138.444 233.798" stroke="#263238" stroke-miterlimit="10" stroke-linecap="round" stroke-linejoin="round"/>
<path d="M138.865 243.92C138.865 243.92 138.95 245.089 143.227 245.137" stroke="#263238" stroke-miterlimit="10" stroke-linecap="round" stroke-linejoin="round"/>
<path d="M158.386 381.094C158.386 381.094 150.216 388.505 145.228 401.856" stroke="#263238" stroke-miterlimit="10" stroke-linecap="round" stroke-linejoin="round"/>
<path d="M94.5827 272.888C94.2091 280.106 102.68 305.759 105.259 318.496C107.837 331.245 108.789 340.258 108.789 340.258" stroke="#263238" stroke-miterlimit="10" stroke-linecap="round" stroke-linejoin="round"/>
</svg>
