<svg width="405" height="361" viewBox="0 0 405 361" fill="none" xmlns="http://www.w3.org/2000/svg">
<path d="M381.378 151.181C382.327 145.742 383.85 140.354 384.94 134.815C387.019 124.21 386.948 113.112 385.394 102.426C382.347 81.5706 373.569 61.744 361.521 45.58C348.233 27.7411 328.245 13.3227 306.743 18.751C284.384 24.4014 265.456 41.645 243.712 49.5151C206.884 62.8337 169.602 38.5574 132.481 39.3747C100.446 40.0709 66.8164 51.5734 45.7084 80.0167C37.0815 91.6302 31.0881 107.31 33.1263 122.646C35.6185 141.383 49.3609 155.64 59.6223 169.504C75.3423 190.753 81.2853 213.849 68.0675 238.69C59.1279 255.5 47.1008 270.352 48.14 291.228C49.8048 324.626 80.6395 344.795 106.066 353.795C131.886 362.937 161.227 363.926 186.906 353.594C209.719 344.412 225.641 324.303 246.376 311.519C265.042 300.006 286.322 295.587 307.43 298.119C329.405 300.753 352.562 305.364 373.801 295.9C394.122 286.839 403.748 262.553 404.504 239.295C404.878 227.692 403.213 215.937 399.358 205.141C394.646 191.964 384.214 181.692 381.287 167.708C380.087 162.007 380.45 156.569 381.378 151.181Z" fill="#C6B5DD"/>
<path opacity="0.7" d="M381.378 151.181C382.327 145.742 383.85 140.354 384.94 134.815C387.019 124.21 386.948 113.112 385.394 102.426C382.347 81.5706 373.569 61.744 361.521 45.58C348.233 27.7411 328.245 13.3227 306.743 18.751C284.384 24.4014 265.456 41.645 243.712 49.5151C206.884 62.8337 169.602 38.5574 132.481 39.3747C100.446 40.0709 66.8164 51.5734 45.7084 80.0167C37.0815 91.6302 31.0881 107.31 33.1263 122.646C35.6185 141.383 49.3609 155.64 59.6223 169.504C75.3423 190.753 81.2853 213.849 68.0675 238.69C59.1279 255.5 47.1008 270.352 48.14 291.228C49.8048 324.626 80.6395 344.795 106.066 353.795C131.886 362.937 161.227 363.926 186.906 353.594C209.719 344.412 225.641 324.303 246.376 311.519C265.042 300.006 286.322 295.587 307.43 298.119C329.405 300.753 352.562 305.364 373.801 295.9C394.122 286.839 403.748 262.553 404.504 239.295C404.878 227.692 403.213 215.937 399.358 205.141C394.646 191.964 384.214 181.692 381.287 167.708C380.087 162.007 380.45 156.569 381.378 151.181Z" fill="white"/>
<path d="M251.603 349.578L380.44 301.247L381.378 290.935L253.479 339.276L251.603 349.578Z" fill="#C6B5DD" stroke="#263238" stroke-width="1.1359" stroke-miterlimit="10" stroke-linecap="round" stroke-linejoin="round"/>
<path d="M229.909 178.696C227.689 178.696 225.54 177.919 223.714 176.436C221.544 174.68 220.112 172.137 219.668 169.272C219.506 168.202 220.243 167.193 221.312 167.032C222.372 166.86 223.391 167.597 223.552 168.676C223.845 170.573 224.783 172.248 226.186 173.388C227.538 174.478 229.152 174.952 230.767 174.7C232.371 174.458 233.773 173.52 234.732 172.067C235.327 171.159 236.548 170.916 237.456 171.512C238.364 172.107 238.616 173.328 238.011 174.236C236.437 176.627 234.076 178.171 231.362 178.585C230.878 178.655 230.393 178.696 229.909 178.696Z" fill="#263238"/>
<path d="M211.313 184.417C206.339 184.417 201.9 180.461 201.052 174.993C200.891 173.923 201.627 172.914 202.697 172.753C203.756 172.581 204.775 173.328 204.937 174.397C205.532 178.242 208.761 180.946 212.151 180.421C213.755 180.179 215.158 179.241 216.116 177.788C216.711 176.88 217.932 176.627 218.84 177.233C219.749 177.828 220.001 179.049 219.395 179.957C217.821 182.348 215.46 183.892 212.746 184.306C212.262 184.386 211.778 184.417 211.313 184.417Z" fill="#263238"/>
<path d="M194.301 190.965C192.082 190.965 189.922 190.188 188.106 188.705C185.937 186.949 184.504 184.407 184.06 181.541C183.899 180.472 184.635 179.463 185.705 179.301C186.774 179.13 187.783 179.876 187.945 180.946C188.237 182.843 189.176 184.518 190.578 185.658C191.93 186.757 193.555 187.222 195.159 186.969C196.763 186.717 198.166 185.789 199.124 184.336C199.72 183.428 200.941 183.176 201.849 183.781C202.757 184.376 203.009 185.597 202.404 186.505C200.83 188.897 198.469 190.44 195.754 190.854C195.27 190.935 194.786 190.965 194.301 190.965Z" fill="#263238"/>
<path d="M175.706 196.292C170.732 196.292 166.292 192.337 165.445 186.868C165.283 185.799 166.02 184.79 167.089 184.629C168.159 184.457 169.168 185.204 169.329 186.273C169.924 190.117 173.153 192.822 176.543 192.297C178.148 192.055 179.56 191.116 180.509 189.663C181.104 188.755 182.325 188.503 183.233 189.108C184.141 189.704 184.393 190.925 183.788 191.833C182.214 194.224 179.853 195.768 177.139 196.181C176.654 196.252 176.18 196.292 175.706 196.292Z" fill="#263238"/>
<path d="M156.666 203.86C151.692 203.86 147.253 199.905 146.405 194.436C146.244 193.366 146.98 192.357 148.05 192.196C149.119 192.024 150.128 192.771 150.29 193.841C150.885 197.685 154.114 200.389 157.504 199.864C159.108 199.622 160.521 198.684 161.469 197.231C162.064 196.323 163.285 196.07 164.193 196.676C165.102 197.271 165.354 198.492 164.748 199.4C163.174 201.791 160.813 203.335 158.099 203.749C157.625 203.819 157.141 203.86 156.666 203.86Z" fill="#263238"/>
<path d="M138.232 210.61C136.012 210.61 133.863 209.833 132.037 208.35C129.868 206.594 128.435 204.052 127.991 201.186C127.83 200.116 128.566 199.107 129.636 198.946C130.705 198.785 131.714 199.511 131.876 200.591C132.168 202.488 133.107 204.162 134.509 205.303C135.861 206.392 137.486 206.867 139.09 206.614C140.694 206.372 142.107 205.434 143.055 203.981C143.65 203.073 144.871 202.821 145.779 203.426C146.687 204.021 146.94 205.242 146.334 206.15C144.76 208.542 142.399 210.085 139.685 210.499C139.201 210.58 138.716 210.61 138.232 210.61Z" fill="#263238"/>
<path d="M255.133 343.292L361.753 304.012" stroke="#263238" stroke-width="0.568" stroke-miterlimit="10" stroke-linecap="round" stroke-linejoin="round"/>
<path d="M252.329 346.571L320.597 321.316" stroke="#263238" stroke-width="0.568" stroke-miterlimit="10" stroke-linecap="round" stroke-linejoin="round"/>
<path d="M123.229 206.08V218.258L251.602 349.578L253.479 339.276L123.229 206.08Z" fill="#C6B5DD" stroke="#263238" stroke-width="1.1359" stroke-miterlimit="10" stroke-linecap="round" stroke-linejoin="round"/>
<path d="M125.136 215.635L201.365 291.854" stroke="#263238" stroke-width="0.568" stroke-miterlimit="10" stroke-linecap="round" stroke-linejoin="round"/>
<path d="M161.146 248.366L240.635 329.731" stroke="#263238" stroke-width="0.568" stroke-miterlimit="10" stroke-linecap="round" stroke-linejoin="round"/>
<path d="M123.229 206.08L253.479 339.276L381.378 290.935L248.827 163.894L123.229 206.08Z" fill="white" stroke="#263238" stroke-width="1.1359" stroke-miterlimit="10" stroke-linecap="round" stroke-linejoin="round"/>
<path d="M121.635 203.981L1 91.388L124.571 52.8548L247.869 161.906L121.635 203.981Z" fill="#C6B5DD" stroke="#263238" stroke-width="1.1359" stroke-miterlimit="10" stroke-linecap="round" stroke-linejoin="round"/>
<path d="M19.4644 92.1347L54.7789 81.1367" stroke="#263238" stroke-width="1.2105" stroke-miterlimit="10" stroke-linecap="round" stroke-linejoin="round"/>
<path d="M24.6812 96.1908L59.9957 85.1928" stroke="#263238" stroke-width="1.2105" stroke-miterlimit="10" stroke-linecap="round" stroke-linejoin="round"/>
<path d="M144.7 207.028C144.327 207.028 143.954 206.927 143.621 206.705C142.712 206.11 142.46 204.889 143.066 203.981C144.065 202.467 144.448 200.591 144.155 198.694C143.701 195.717 141.623 193.326 138.999 192.741C137.94 192.499 137.274 191.449 137.506 190.39C137.748 189.33 138.798 188.664 139.857 188.897C144.044 189.835 147.334 193.528 148.04 198.088C148.484 200.954 147.878 203.809 146.345 206.14C145.961 206.725 145.336 207.028 144.7 207.028Z" fill="#263238"/>
<path d="M163.114 200.278C162.741 200.278 162.367 200.177 162.034 199.955C161.126 199.36 160.874 198.139 161.48 197.231C162.478 195.717 162.862 193.841 162.569 191.944C162.115 188.967 160.037 186.576 157.413 185.991C156.354 185.749 155.688 184.699 155.93 183.64C156.162 182.58 157.212 181.914 158.281 182.156C162.468 183.095 165.758 186.788 166.464 191.348C166.908 194.214 166.302 197.069 164.769 199.4C164.375 199.965 163.75 200.278 163.114 200.278Z" fill="#263238"/>
<path d="M236.376 175.114C236.003 175.114 235.63 175.013 235.297 174.791C234.389 174.196 234.136 172.975 234.742 172.067C235.741 170.553 236.124 168.676 235.832 166.78C235.378 163.803 233.299 161.412 230.676 160.827C229.616 160.584 228.95 159.535 229.182 158.476C229.414 157.416 230.474 156.75 231.533 156.982C235.721 157.921 239.01 161.614 239.716 166.174C240.16 169.04 239.555 171.895 238.021 174.226C237.638 174.801 237.012 175.114 236.376 175.114Z" fill="#263238"/>
<path d="M217.751 180.835C217.378 180.835 217.004 180.734 216.671 180.512C215.763 179.917 215.511 178.696 216.116 177.788C217.115 176.274 217.499 174.397 217.206 172.501C216.752 169.524 214.674 167.133 212.05 166.547C210.991 166.305 210.325 165.256 210.557 164.197C210.799 163.137 211.848 162.471 212.908 162.703C217.095 163.642 220.384 167.334 221.091 171.895C221.535 174.761 220.929 177.616 219.396 179.947C219.012 180.532 218.387 180.835 217.751 180.835Z" fill="#263238"/>
<path d="M200.77 187.393C200.396 187.393 200.023 187.292 199.69 187.07C198.782 186.475 198.53 185.254 199.135 184.346C200.134 182.833 200.517 180.956 200.225 179.059C199.771 176.082 197.692 173.691 195.069 173.106C194.009 172.864 193.343 171.814 193.575 170.755C193.818 169.696 194.867 169.03 195.926 169.262C200.114 170.2 203.403 173.893 204.109 178.454C204.553 181.319 203.948 184.174 202.414 186.505C202.031 187.08 201.405 187.393 200.77 187.393Z" fill="#263238"/>
<path d="M182.144 192.711C181.77 192.711 181.397 192.61 181.064 192.388C180.156 191.792 179.904 190.571 180.509 189.663C181.508 188.15 181.891 186.273 181.599 184.376C181.145 181.4 179.066 179.008 176.443 178.423C175.383 178.181 174.717 177.132 174.949 176.072C175.192 175.013 176.241 174.347 177.3 174.579C181.488 175.517 184.777 179.21 185.483 183.771C185.927 186.636 185.322 189.492 183.788 191.823C183.415 192.398 182.779 192.711 182.144 192.711Z" fill="#263238"/>
<path d="M356.749 287.858L361.713 286.032" stroke="#263238" stroke-width="0.568" stroke-miterlimit="10" stroke-linecap="round" stroke-linejoin="round"/>
<path d="M258.746 324.06L352.238 289.533" stroke="#263238" stroke-width="0.568" stroke-miterlimit="10" stroke-linecap="round" stroke-linejoin="round"/>
<path d="M261.369 308.451L350.594 275.498" stroke="#263238" stroke-width="0.568" stroke-miterlimit="10" stroke-linecap="round" stroke-linejoin="round"/>
<path d="M247.626 313.527L255.436 310.641" stroke="#263238" stroke-width="0.568" stroke-miterlimit="10" stroke-linecap="round" stroke-linejoin="round"/>
<path d="M236.507 302.993L339.485 264.964" stroke="#263238" stroke-width="0.568" stroke-miterlimit="10" stroke-linecap="round" stroke-linejoin="round"/>
<path d="M225.399 292.469L328.366 254.44" stroke="#263238" stroke-width="0.568" stroke-miterlimit="10" stroke-linecap="round" stroke-linejoin="round"/>
<path d="M312.928 245.501L317.247 243.907" stroke="#263238" stroke-width="0.568" stroke-miterlimit="10" stroke-linecap="round" stroke-linejoin="round"/>
<path d="M214.28 281.935L306.753 247.781" stroke="#263238" stroke-width="0.568" stroke-miterlimit="10" stroke-linecap="round" stroke-linejoin="round"/>
<path d="M203.161 271.401L306.138 233.373" stroke="#263238" stroke-width="0.568" stroke-miterlimit="10" stroke-linecap="round" stroke-linejoin="round"/>
<path d="M192.042 260.878L295.019 222.849" stroke="#263238" stroke-width="0.568" stroke-miterlimit="10" stroke-linecap="round" stroke-linejoin="round"/>
<path d="M180.932 250.344L283.899 212.315" stroke="#263238" stroke-width="0.568" stroke-miterlimit="10" stroke-linecap="round" stroke-linejoin="round"/>
<path d="M169.813 239.81L272.781 201.781" stroke="#263238" stroke-width="0.568" stroke-miterlimit="10" stroke-linecap="round" stroke-linejoin="round"/>
<path d="M258.02 192.6L261.672 191.247" stroke="#263238" stroke-width="0.568" stroke-miterlimit="10" stroke-linecap="round" stroke-linejoin="round"/>
<path d="M158.694 229.276L254.851 193.77" stroke="#263238" stroke-width="0.568" stroke-miterlimit="10" stroke-linecap="round" stroke-linejoin="round"/>
<path d="M178.319 207.391L250.553 180.724" stroke="#263238" stroke-width="0.568" stroke-miterlimit="10" stroke-linecap="round" stroke-linejoin="round"/>
<path d="M147.585 218.752L167.473 211.407" stroke="#263238" stroke-width="0.568" stroke-miterlimit="10" stroke-linecap="round" stroke-linejoin="round"/>
<path d="M183.304 246.005C193.727 247.367 192.809 229.528 190.165 223.535C186.291 227.914 184.444 234.029 185.231 239.82C185.413 241.162 185.756 242.534 186.604 243.604C187.451 244.663 188.904 245.339 190.196 244.936C191.174 244.623 191.881 243.796 192.496 242.978C194.413 240.436 195.684 237.288 197.702 234.957C200.487 236.844 210.426 240.072 208.993 233.131C208.206 229.296 210.113 229.74 212.161 231.607C213.009 232.374 214.341 231.96 215.39 231.496C218.76 230.013 222.12 228.54 225.49 227.056C226.802 226.481 228.164 225.886 229.597 225.815C234.44 225.563 237.618 230.073 242.37 226.895C244.368 225.563 244.852 221.951 247.425 220.579C249.262 219.6 251.401 219.499 253.459 219.227C260.603 218.278 264.255 214.505 270.854 211.084" stroke="#C6B5DD" stroke-width="1.1359" stroke-miterlimit="10" stroke-linecap="round" stroke-linejoin="round"/>
<path d="M191.396 257.134C195.301 257.79 198.641 254.228 202.091 253.078C206.501 251.605 208.428 249.809 212.665 247.983C218.255 245.581 224.834 244.482 223.674 236.006C222.876 239.023 222.786 242.363 222.17 245.531C226.7 247.781 227.931 243.927 228.396 240.456C230.242 240.436 231.17 240.093 232.845 239.558C232.835 240.193 233.047 240.91 233.027 241.525C235.206 242.403 236.044 241.808 236.508 239.881C238.919 239.427 239.777 237.166 241.815 236.612C242.34 242.272 243.773 247.226 243.44 253.008C239.575 254.057 238.97 247.357 239.948 244.583C240.978 241.656 243.863 240.093 244.933 237.045C245.155 237.409 244.983 237.853 245.104 238.256C249.958 235.35 256.213 236.137 261.016 232.737C262.53 231.668 263.609 229.528 265.213 228.782C268.695 227.167 269.744 229.064 272.347 225.26" stroke="#C6B5DD" stroke-width="1.1359" stroke-miterlimit="10" stroke-linecap="round" stroke-linejoin="round"/>
<path d="M226.549 290.401C233.562 288.342 236.619 270.957 234.672 264.561C232.311 256.822 229.062 265.307 228.305 269.464C227.7 272.794 226.731 281.572 229.839 284.105C236.72 289.694 240.897 278.202 241.785 273.016C242.098 276.265 240.13 280.27 240.927 283.772C246.507 284.427 249.272 279.776 248.919 274.983C250.361 276.305 250.624 278.242 249.887 280.24C255.215 279.867 254.337 270.867 254.952 267.254C254.64 269.797 254.882 272.764 256.587 274.802C258.01 276.497 260.724 277.243 262.51 275.932C264.296 274.62 263.942 271.169 261.773 270.715C261.773 278 261.773 285.285 261.783 292.57C261.783 293.196 261.773 293.872 261.42 294.396C260.704 295.446 258.948 295.193 258.131 294.225C257.313 293.256 257.192 291.894 257.172 290.623C257.071 283.469 259.281 273.672 264.82 268.788C265.204 269.535 265.093 270.14 265.093 270.988C266.152 270.584 267.02 269.686 267.383 268.617C267.746 270.221 268.695 272.249 270.319 271.966C270.864 271.876 271.318 271.502 271.752 271.149C274.416 268.96 277.301 267.497 279.087 264.369C279.35 265.156 279.612 265.953 279.874 266.74C280.298 265.216 281.741 264.217 283.174 263.541C285.333 262.512 287.704 261.917 290.085 261.796C292.144 261.685 294.303 261.907 296.169 261.039C297.007 260.646 297.733 260.06 298.5 259.556C300.579 258.184 303.031 257.377 305.513 257.255" stroke="#C6B5DD" stroke-width="1.1359" stroke-miterlimit="10" stroke-linecap="round" stroke-linejoin="round"/>
<path d="M143.419 98.7637C143.419 98.7637 159.522 78.4932 164.961 71.2285C170.399 63.9739 174.354 58.3942 174.354 58.3942C174.354 58.3942 177.26 60.6846 176.413 63.2877C175.565 65.8909 156.374 92.0237 152.086 98.7032C147.798 105.373 148.433 113.747 148.736 116.643C149.039 119.529 140.604 110.044 143.419 98.7637Z" fill="white" stroke="#263238" stroke-width="1.2727" stroke-miterlimit="10" stroke-linecap="round" stroke-linejoin="round"/>
<path d="M174.354 58.3942C174.354 58.3942 184.373 44.46 191.81 32.8567C199.246 21.2533 210.113 3.83821 212.696 1.51754C215.279 -0.81322 215.894 5.25079 215.057 9.30692C214.219 13.353 205.34 24.6839 199.327 33.9666C193.323 43.2493 189.61 49.9187 184.444 56.023C179.288 62.1274 179.571 62.4099 176.402 63.2978C173.234 64.1757 173.789 60.9973 174.354 58.3942Z" fill="#263238" stroke="#263238" stroke-width="1.2727" stroke-miterlimit="10" stroke-linecap="round" stroke-linejoin="round"/>
<path d="M139.958 100.802C141.068 93.2849 143.57 79.4013 149.322 75.0223C155.073 70.6534 172.427 74.0032 173.88 74.2857C175.323 74.5682 198.187 79.6132 205.149 83.9014C212.111 88.1896 216.813 100.58 218.599 107.794C220.385 115.008 224.219 127.116 224.804 127.974C224.804 127.974 230.595 130.537 233.774 130.224C236.952 129.911 241.19 115.15 250.089 106.422C258.988 97.6942 263.599 96.5137 273.427 97.3108C283.255 98.1079 320.597 108.268 324.371 111.992C328.154 115.725 330.515 124.089 329.688 130.163C328.861 136.238 330.061 142.877 330.072 144.027C330.082 145.187 333.573 148.921 332.725 152.099C331.878 155.287 331.343 162.219 328.75 163.107C326.157 163.995 307.087 163.541 292.911 161.614C278.744 159.686 259.039 151.15 245.993 145.167C232.946 139.184 226.58 136.631 217.045 136.692C207.51 136.752 189.025 137.166 171.953 133.231C154.881 129.296 143.278 122.152 140.079 118.994C136.881 115.846 138.858 108.329 139.958 100.802ZM242.189 136.248C246.86 143.149 265.688 149.96 275.818 152.785C285.949 155.61 310.255 160.645 316.581 157.134C322.918 153.622 326.247 132.797 325.622 125.583C324.996 118.368 322.08 114.343 322.08 114.343C309.609 106.624 270.541 98.5014 262.479 101.74C254.408 104.969 246.679 115.422 243.843 123.827C241.008 132.202 242.189 136.248 242.189 136.248ZM160.632 124.362C173.103 131.788 192.769 133.967 200.568 134.209C208.367 134.452 215.854 130.355 216.086 121.395C216.318 112.436 211.596 97.442 209.83 93.1235C208.065 88.805 202.273 86.2422 202.273 86.2422C194.443 82.5392 162.035 74.3765 156.546 75.2745C151.067 76.1826 146.204 84.5875 145.134 96.7357C144.065 108.864 148.161 116.936 160.632 124.362Z" fill="#263238" stroke="#263238" stroke-width="1.2727" stroke-miterlimit="10" stroke-linecap="round" stroke-linejoin="round"/>
<path d="M329.204 143.754C329.204 143.754 332.412 148.648 334.703 145.167C336.993 141.686 366.526 108.551 366.526 108.551C366.526 108.551 367.676 108.258 367.404 110.569C367.131 112.879 336.206 154.399 335.056 156.437C333.916 158.466 329.002 159.081 327.841 158.223C326.691 157.356 329.204 143.754 329.204 143.754Z" fill="white" stroke="#263238" stroke-width="1.2727" stroke-miterlimit="10" stroke-linecap="round" stroke-linejoin="round"/>
<path d="M364.519 109.711C364.519 109.711 365.951 107.391 369.079 100.439C372.207 93.4867 374.144 79.8957 374.629 65.7295C375.113 51.5734 375.638 43.1887 378.251 45.7717C380.864 48.3547 378.624 62.2485 378.14 73.2162C377.666 84.1334 374.245 95.202 373.408 100.984C372.782 105.363 369.442 112.274 367.122 112.294C364.801 112.314 365.114 111.729 364.519 109.711Z" fill="#263238" stroke="#263238" stroke-width="1.2727" stroke-miterlimit="10" stroke-linecap="round" stroke-linejoin="round"/>
<path d="M173.88 290.825L186.583 305.203L167.695 300.945L33.2979 218.722L39.493 208.602L173.88 290.825Z" fill="white" stroke="#263238" stroke-width="1.4364" stroke-miterlimit="10" stroke-linecap="round" stroke-linejoin="round"/>
<path opacity="0.5" d="M173.88 290.825L186.583 305.203L167.695 300.945L33.2979 218.722L39.493 208.602L173.88 290.825Z" fill="#C6B5DD" stroke="#263238" stroke-width="1.4364" stroke-miterlimit="10" stroke-linecap="round" stroke-linejoin="round"/>
<path d="M38.0839 210.901L34.7085 216.418L169.102 298.645L172.477 293.128L38.0839 210.901Z" stroke="#263238" stroke-width="0.7182" stroke-miterlimit="10" stroke-linecap="round" stroke-linejoin="round"/>
<path d="M173.91 290.855L167.725 300.955L186.583 305.203L173.91 290.855Z" fill="white" stroke="#263238" stroke-width="1.4364" stroke-miterlimit="10" stroke-linecap="round" stroke-linejoin="round"/>
<path d="M177.149 303.084L186.583 305.203L180.247 298.029L177.149 303.084Z" fill="#C6B5DD" stroke="#263238" stroke-width="1.4364" stroke-miterlimit="10" stroke-linecap="round" stroke-linejoin="round"/>
<path d="M21.3513 204.455C19.6461 207.25 20.524 210.903 23.3189 212.608L33.3078 218.722L39.503 208.602L29.514 202.488C26.7091 200.782 23.0565 201.66 21.3513 204.455Z" fill="white" stroke="#263238" stroke-width="1.4364" stroke-miterlimit="10" stroke-linecap="round" stroke-linejoin="round"/>
<path d="M21.3513 204.455C19.6461 207.25 20.524 210.903 23.3189 212.608L28.1015 215.534L34.2966 205.414L29.514 202.488C26.7091 200.782 23.0565 201.66 21.3513 204.455Z" fill="#263238" stroke="#263238" stroke-width="1.4364" stroke-miterlimit="10" stroke-linecap="round" stroke-linejoin="round"/>
<path d="M292.517 156.276L288.975 153.784C287.865 153.007 286.463 152.775 285.161 153.158C281.468 154.248 274.436 157.013 272.367 159.152C269.734 161.866 268.906 166.749 270.168 169.06C271.429 171.371 276.615 174.286 276.615 174.286L298.288 161.099L292.517 156.276Z" fill="white" stroke="#263238" stroke-width="0.9473" stroke-miterlimit="10"/>
<path opacity="0.5" d="M292.517 156.276L288.975 153.784C287.865 153.007 286.463 152.775 285.161 153.158C281.468 154.248 274.436 157.013 272.367 159.152C269.734 161.866 268.906 166.749 270.168 169.06C271.429 171.371 276.615 174.286 276.615 174.286L298.288 161.099L292.517 156.276Z" fill="#C6B5DD" stroke="#263238" stroke-width="0.9473" stroke-miterlimit="10"/>
<path d="M294.766 155.257L277.563 163.107C277.563 163.107 271.772 166.386 273.598 176.426L374.043 250.384C374.043 250.384 377.534 252.927 383.84 250.778C390.146 248.629 396.614 241.192 397.996 234.906C399.388 228.62 395.009 226.643 394.152 225.947C393.294 225.25 298.136 156.014 298.136 156.014C298.136 156.014 296.381 154.853 294.766 155.257Z" fill="white" stroke="#263238" stroke-width="0.9473" stroke-miterlimit="10"/>
<path opacity="0.5" d="M294.766 155.257L277.563 163.107C277.563 163.107 271.772 166.386 273.598 176.426L374.043 250.384C374.043 250.384 377.534 252.927 383.84 250.778C390.146 248.629 396.614 241.192 397.996 234.906C399.388 228.62 395.009 226.643 394.152 225.947C393.294 225.25 298.136 156.014 298.136 156.014C298.136 156.014 296.381 154.853 294.766 155.257Z" fill="#C6B5DD" stroke="#263238" stroke-width="0.9473" stroke-miterlimit="10"/>
<path d="M391.256 245.551C384.939 251.464 377.271 253.532 374.133 250.183C370.995 246.833 373.578 239.316 379.905 233.413C386.221 227.5 393.889 225.432 397.027 228.782C400.155 232.122 397.572 239.639 391.256 245.551Z" fill="white" stroke="#263238" stroke-width="0.9473" stroke-miterlimit="10"/>
<path d="M391.256 245.551C384.939 251.464 377.271 253.532 374.133 250.183C370.995 246.833 373.578 239.316 379.905 233.413C386.221 227.5 393.889 225.432 397.027 228.782C400.155 232.122 397.572 239.639 391.256 245.551Z" fill="#C6B5DD" stroke="#263238" stroke-width="0.9473" stroke-miterlimit="10"/>
<path d="M298.147 156.004C298.147 156.004 296.371 154.853 294.766 155.257L277.563 163.107C277.563 163.107 271.772 166.386 273.598 176.426L343.057 227.571C342.562 225.22 342.653 221.769 345.307 217.663C347.779 213.839 358.827 207.684 364.81 204.546C336.579 183.963 298.147 156.004 298.147 156.004Z" fill="#263238" stroke="#263238" stroke-width="1.2727" stroke-miterlimit="10" stroke-linecap="round" stroke-linejoin="round"/>
<path d="M377.846 233.221L341.149 206.604C338.728 204.889 338.94 201.226 341.543 199.814L347.224 196.716C348.586 195.98 350.24 196.081 351.502 196.989L390.287 225.079" fill="white"/>
<path d="M377.846 233.221L341.149 206.604C338.728 204.889 338.94 201.226 341.543 199.814L347.224 196.716C348.586 195.98 350.24 196.081 351.502 196.989L390.287 225.079" stroke="#263238" stroke-width="0.9473" stroke-miterlimit="10"/>
<g opacity="0.5">
<path d="M377.846 233.221L341.149 206.604C338.728 204.889 338.94 201.226 341.543 199.814L347.224 196.716C348.586 195.98 350.24 196.081 351.502 196.989L390.287 225.079" fill="#C6B5DD"/>
<path d="M377.846 233.221L341.149 206.604C338.728 204.889 338.94 201.226 341.543 199.814L347.224 196.716C348.586 195.98 350.24 196.081 351.502 196.989L390.287 225.079" stroke="#263238" stroke-width="0.9473" stroke-miterlimit="10"/>
</g>
</svg>
