<svg width="415" height="298" viewBox="0 0 415 298" fill="none" xmlns="http://www.w3.org/2000/svg">
<path d="M406.75 292.58H0V297.56H406.75V292.58Z" fill="#263238"/>
<path d="M388.728 290.564C391.648 279.884 401.158 244.034 407.618 207.724C415.318 164.374 422.058 104.664 391.238 79.6136C360.418 54.5636 319.958 84.4336 298.768 74.8036C277.578 65.1736 276.618 17.0036 219.768 2.56363C162.918 -11.8764 131.148 38.1936 106.108 65.1636C81.0682 92.1336 53.1082 73.8336 16.5282 102.734C-19.6718 131.314 11.0282 260.734 37.7982 290.564H388.728Z" fill="#C6B5DD"/>
<path opacity="0.7" d="M388.728 290.564C391.648 279.884 401.158 244.034 407.618 207.724C415.318 164.374 422.058 104.664 391.238 79.6136C360.418 54.5636 319.958 84.4336 298.768 74.8036C277.578 65.1736 276.618 17.0036 219.768 2.56363C162.918 -11.8764 131.148 38.1936 106.108 65.1636C81.0682 92.1336 53.1082 73.8336 16.5282 102.734C-19.6718 131.314 11.0282 260.734 37.7982 290.564H388.728Z" fill="white"/>
<path d="M398.698 87.7036H320.198C319.817 87.7062 319.452 87.8588 319.183 88.1283C318.913 88.3978 318.761 88.7625 318.758 89.1436V291.144C318.758 291.526 318.91 291.894 319.179 292.165C319.449 292.437 319.815 292.591 320.198 292.594H398.698C399.083 292.594 399.452 292.441 399.723 292.169C399.995 291.897 400.148 291.528 400.148 291.144V89.1436C400.146 88.7608 399.992 88.3945 399.72 88.1248C399.448 87.855 399.081 87.7036 398.698 87.7036ZM397.258 289.704H321.648V90.5936H397.258V289.704Z" fill="white"/>
<path d="M327.128 132.154H391.778C391.968 132.154 392.156 132.116 392.332 132.043C392.507 131.97 392.666 131.863 392.8 131.728C392.934 131.594 393.04 131.434 393.111 131.258C393.183 131.082 393.22 130.894 393.218 130.704V96.5736C393.22 96.3841 393.183 96.1962 393.111 96.0209C393.039 95.8456 392.933 95.6864 392.799 95.5524C392.665 95.4184 392.506 95.3124 392.331 95.2405C392.156 95.1686 391.968 95.1323 391.778 95.1336H327.128C326.938 95.1323 326.75 95.1685 326.574 95.2403C326.398 95.3121 326.238 95.4179 326.104 95.5518C325.969 95.6856 325.862 95.8448 325.789 96.0202C325.716 96.1956 325.678 96.3836 325.678 96.5736V130.704C325.678 131.088 325.831 131.457 326.103 131.729C326.375 132.001 326.744 132.154 327.128 132.154ZM328.568 97.9936H390.328V129.234H328.568V97.9936Z" fill="white"/>
<path d="M327.128 180.634H391.778C391.968 180.635 392.156 180.599 392.331 180.527C392.506 180.455 392.665 180.349 392.799 180.215C392.933 180.081 393.039 179.921 393.111 179.746C393.183 179.571 393.22 179.383 393.218 179.194V145.064C393.22 144.874 393.183 144.685 393.111 144.509C393.04 144.334 392.934 144.174 392.8 144.039C392.666 143.904 392.507 143.797 392.332 143.724C392.156 143.651 391.968 143.614 391.778 143.614H327.128C326.744 143.614 326.375 143.766 326.103 144.038C325.831 144.31 325.678 144.679 325.678 145.064V179.194C325.678 179.383 325.716 179.572 325.789 179.747C325.862 179.922 325.969 180.081 326.104 180.215C326.238 180.349 326.398 180.455 326.574 180.527C326.75 180.599 326.938 180.635 327.128 180.634ZM328.568 146.504H390.328V177.754H328.568V146.504Z" fill="white"/>
<path d="M327.128 229.124H391.778C392.16 229.124 392.526 228.972 392.796 228.702C393.066 228.432 393.218 228.065 393.218 227.684V193.544C393.218 193.162 393.066 192.795 392.796 192.525C392.526 192.255 392.16 192.104 391.778 192.104H327.128C326.745 192.104 326.378 192.255 326.106 192.525C325.835 192.794 325.681 193.161 325.678 193.544V227.684C325.681 228.066 325.835 228.433 326.106 228.702C326.378 228.972 326.745 229.124 327.128 229.124ZM328.568 194.994H390.328V226.234H328.568V194.994Z" fill="white"/>
<path d="M327.128 277.614H391.778C391.968 277.614 392.156 277.576 392.332 277.503C392.507 277.43 392.666 277.323 392.8 277.188C392.934 277.054 393.04 276.894 393.111 276.718C393.183 276.542 393.219 276.354 393.218 276.164V241.994C393.219 241.804 393.183 241.616 393.111 241.441C393.039 241.266 392.933 241.107 392.799 240.973C392.665 240.839 392.506 240.733 392.331 240.661C392.155 240.589 391.968 240.552 391.778 240.554H327.128C326.938 240.552 326.75 240.589 326.574 240.66C326.398 240.732 326.238 240.838 326.103 240.972C325.969 241.106 325.862 241.265 325.789 241.44C325.716 241.616 325.678 241.804 325.678 241.994V276.124C325.673 276.318 325.706 276.51 325.777 276.691C325.847 276.871 325.953 277.036 326.088 277.175C326.224 277.314 326.385 277.424 326.564 277.5C326.742 277.575 326.934 277.614 327.128 277.614ZM328.568 243.484H390.328V274.724H328.568V243.484Z" fill="white"/>
<path d="M300.368 15.9937H88.9282C88.5531 15.9935 88.1927 16.1398 87.9238 16.4012C87.6549 16.6627 87.4986 17.0188 87.4882 17.3937V122.714C87.4882 122.904 87.5257 123.092 87.5987 123.267C87.6717 123.442 87.7787 123.602 87.9135 123.735C88.0482 123.869 88.2082 123.975 88.384 124.047C88.5599 124.119 88.7482 124.155 88.9382 124.154H300.368C300.558 124.155 300.745 124.119 300.921 124.047C301.096 123.975 301.255 123.869 301.389 123.735C301.523 123.601 301.629 123.442 301.701 123.266C301.773 123.091 301.809 122.903 301.808 122.714V17.3937C301.8 17.0179 301.645 16.6604 301.375 16.3984C301.106 16.1364 300.744 15.991 300.368 15.9937ZM298.918 18.8837V116.604H90.3682V18.8437L298.918 18.8837Z" fill="white"/>
<path d="M347.918 224.273L343.368 292.993C343.343 293.343 343.187 293.67 342.931 293.909C342.675 294.148 342.338 294.282 341.988 294.283C341.804 294.284 341.622 294.247 341.452 294.175C341.283 294.103 341.129 293.997 341.001 293.865C340.873 293.732 340.774 293.575 340.708 293.403C340.642 293.231 340.611 293.048 340.618 292.863L342.488 224.273H347.918Z" fill="#263238" stroke="#263238" stroke-linecap="round" stroke-linejoin="round"/>
<path d="M359.558 224.273L364.108 292.993C364.131 293.342 364.285 293.669 364.539 293.908C364.793 294.148 365.129 294.282 365.478 294.283C365.663 294.284 365.846 294.247 366.016 294.175C366.186 294.103 366.34 293.998 366.468 293.865C366.597 293.733 366.698 293.576 366.765 293.404C366.832 293.232 366.864 293.048 366.858 292.863L364.968 224.313L359.558 224.273Z" fill="#263238" stroke="#263238" stroke-linecap="round" stroke-linejoin="round"/>
<path d="M313.938 224.273L318.488 292.993C318.511 293.342 318.665 293.669 318.919 293.908C319.173 294.148 319.509 294.282 319.858 294.283C320.043 294.284 320.226 294.247 320.396 294.175C320.566 294.103 320.72 293.998 320.848 293.865C320.977 293.733 321.078 293.576 321.145 293.404C321.212 293.232 321.244 293.048 321.238 292.863L319.338 224.313L313.938 224.273Z" fill="#263238" stroke="#263238" stroke-linecap="round" stroke-linejoin="round"/>
<path d="M295.348 224.273L290.798 292.993C290.773 293.343 290.617 293.67 290.361 293.909C290.105 294.148 289.768 294.282 289.418 294.283C289.234 294.282 289.052 294.244 288.882 294.172C288.713 294.1 288.559 293.994 288.431 293.862C288.303 293.73 288.202 293.574 288.134 293.402C288.067 293.231 288.034 293.048 288.038 292.863L289.938 224.313L295.348 224.273Z" fill="#263238" stroke="#263238" stroke-linecap="round" stroke-linejoin="round"/>
<path d="M374.618 154.993C374.618 154.993 329.218 153.293 325.378 153.293C321.538 153.293 320.648 154.993 320.648 154.993L314.168 200.683C314.168 200.683 294.018 194.933 290.068 195.683C286.118 196.433 292.018 225.103 292.018 225.103H314.818L315.228 223.383H366.708L380.378 158.263C379.548 155.283 374.618 154.993 374.618 154.993Z" fill="white" stroke="#263238" stroke-linecap="round" stroke-linejoin="round"/>
<path d="M357.338 183.573C357.338 183.573 361.958 213.573 356.658 217.073C355.838 217.613 351.388 220.174 347.228 219.754C343.888 219.414 320.288 219.754 320.288 219.754C320.288 219.754 317.008 213.514 316.348 208.914C315.688 204.314 320.848 184.573 320.848 184.573L357.338 183.573Z" fill="white" stroke="#263238" stroke-linecap="round" stroke-linejoin="round"/>
<path d="M318.688 199.644C318.688 199.644 284.528 203.194 282.918 204.154C281.308 205.114 273.918 211.564 275.188 215.754C276.458 219.944 273.258 220.264 276.188 220.914C279.118 221.564 320.648 221.554 320.648 221.554" fill="#C6B5DD"/>
<path d="M318.688 199.644C318.688 199.644 284.528 203.194 282.918 204.154C281.308 205.114 273.918 211.564 275.188 215.754C276.458 219.944 273.258 220.264 276.188 220.914C279.118 221.564 320.648 221.554 320.648 221.554" stroke="#263238" stroke-linecap="round" stroke-linejoin="round"/>
<path d="M287.618 225.053H368.788V218.993H287.618V225.053Z" fill="white" stroke="#263238" stroke-linecap="round" stroke-linejoin="round"/>
<path d="M349.618 200.934H300.718C300.718 200.934 298.148 203.834 297.818 209.934C297.488 216.034 298.148 217.344 302.658 218.934C307.168 220.524 347.228 219.714 347.228 219.714" fill="#C6B5DD"/>
<path d="M349.618 200.934H300.718C300.718 200.934 298.148 203.834 297.818 209.934C297.488 216.034 298.148 217.344 302.658 218.934C307.168 220.524 347.228 219.714 347.228 219.714" stroke="#263238" stroke-linecap="round" stroke-linejoin="round"/>
<path d="M311.088 278.534L305.968 266.404L297.578 267.994L303.998 278.814L300.298 286.224L292.298 291.454C292.298 291.454 291.368 292.374 295.368 292.064C299.368 291.754 307.668 292.064 307.668 292.064L312.898 285.914C312.898 285.914 314.798 282.784 311.088 278.534Z" fill="white" stroke="#263238" stroke-linecap="round" stroke-linejoin="round"/>
<path d="M313.328 283.833L313.538 291.763H312.288L310.618 287.803L313.328 283.833Z" fill="#263238" stroke="#263238" stroke-linecap="round" stroke-linejoin="round"/>
<path d="M307.678 292.104L312.908 285.954C312.908 285.954 314.258 283.664 312.398 280.364C308.678 286.724 303.728 288.634 303.728 288.634L298.568 287.394L292.308 291.494C292.308 291.494 291.378 292.414 295.378 292.104C299.378 291.794 307.678 292.104 307.678 292.104Z" fill="#263238" stroke="#263238" stroke-linecap="round" stroke-linejoin="round"/>
<path d="M290.978 216.723L308.128 268.573L295.958 270.733L271.958 216.733C271.958 216.733 270.028 208.673 275.178 206.103C280.328 203.533 295.478 202.233 295.478 202.233" fill="#C6B5DD"/>
<path d="M290.978 216.723L308.128 268.573L295.958 270.733L271.958 216.733C271.958 216.733 270.028 208.673 275.178 206.103C280.328 203.533 295.478 202.233 295.478 202.233" stroke="#263238" stroke-linecap="round" stroke-linejoin="round"/>
<path d="M345.988 225.044C345.988 225.044 340.078 196.334 344.038 195.624C347.998 194.914 368.138 200.624 368.138 200.624L374.618 154.994C374.618 154.994 381.458 153.914 382.178 159.994C382.898 166.074 368.788 225.044 368.788 225.044H345.988Z" fill="#263238" stroke="#263238" stroke-linecap="round" stroke-linejoin="round"/>
<path d="M276.398 140.513L273.348 135.513C273.054 135.034 272.64 134.64 272.148 134.37C271.655 134.1 271.1 133.963 270.538 133.973L267.668 134.023L262.758 132.553C262.446 132.462 262.114 132.466 261.805 132.564C261.495 132.662 261.221 132.85 261.018 133.103L260.838 133.333L265.358 135.333L260.848 136.993L256.058 134.563C255.869 134.467 255.652 134.44 255.446 134.487C255.239 134.535 255.056 134.654 254.928 134.823C254.783 135.012 254.718 135.25 254.748 135.486C254.778 135.723 254.9 135.937 255.088 136.083L261.788 141.253C261.998 141.417 262.241 141.533 262.499 141.595C262.758 141.657 263.027 141.664 263.288 141.613L270.698 140.123L272.768 142.383L276.398 140.513Z" fill="white" stroke="#263238" stroke-linecap="round" stroke-linejoin="round"/>
<path d="M328.058 130.253L300.588 158.983L274.368 137.793L270.748 140.423L299.598 173.113L324.608 159.643L328.058 130.253Z" fill="white" stroke="#263238" stroke-linecap="round" stroke-linejoin="round"/>
<path d="M369.158 137.594L383.558 181.844L371.138 182.203L358.788 161.434C358.788 161.434 365.728 140.484 369.158 137.594Z" fill="white" stroke="#263238" stroke-linecap="round" stroke-linejoin="round"/>
<path d="M353.488 129.993L369.158 137.643L356.038 174.333L357.588 184.563L320.848 184.623L325.228 168.143L322.228 157.583C321.839 156.213 321.818 154.764 322.168 153.383L328.048 130.303L343.488 127.823L353.488 129.993Z" fill="white" stroke="#263238" stroke-linecap="round" stroke-linejoin="round"/>
<path d="M352.738 127.844C352.738 127.844 355.818 129.924 355.918 131.774C355.968 132.864 355.918 134.774 355.818 136.234C355.763 137.374 355.502 138.496 355.048 139.544L349.498 146.244L343.078 141.174L337.748 143.894C337.748 143.894 336.748 135.724 339.078 130.024C341.408 124.324 351.548 126.414 352.738 127.844Z" fill="white" stroke="#263238" stroke-linecap="round" stroke-linejoin="round"/>
<path d="M357.148 111.993C357.148 111.993 355.888 116.523 355.298 119.523C354.708 122.523 353.518 128.523 353.628 130.773C353.738 133.023 344.268 142.603 343.078 141.173C341.888 139.743 340.638 131.433 340.638 131.433L341.818 117.993C341.818 117.993 354.158 104.323 357.148 111.993Z" fill="white" stroke="#263238" stroke-linecap="round" stroke-linejoin="round"/>
<path d="M337.358 104.994C337.358 104.994 335.668 107.784 335.668 108.994C335.668 110.204 336.258 112.574 336.158 113.264C336.058 113.954 334.378 116.264 334.158 117.044C334.048 117.361 334.057 117.708 334.184 118.019C334.311 118.33 334.547 118.584 334.848 118.734C335.257 118.943 335.654 119.173 336.038 119.424C336.038 119.424 336.538 125.584 337.338 127.174C338.138 128.764 338.828 129.464 341.208 129.664C343.588 129.864 349.258 127.374 350.048 125.384C350.838 123.394 350.948 121.014 351.048 118.134C351.148 115.254 349.158 111.134 347.668 107.204C346.178 103.274 339.938 101.114 337.358 104.994Z" fill="white" stroke="#263238" stroke-linecap="round" stroke-linejoin="round"/>
<path d="M363.008 125.333C367.222 125.333 370.638 121.917 370.638 117.703C370.638 113.49 367.222 110.073 363.008 110.073C358.794 110.073 355.378 113.49 355.378 117.703C355.378 121.917 358.794 125.333 363.008 125.333Z" fill="#263238" stroke="#263238" stroke-linecap="round" stroke-linejoin="round"/>
<path d="M337.318 104.564C337.318 104.564 340.388 101.914 345.908 107.184C351.428 112.454 349.328 120.074 353.018 121.654C356.708 123.234 363.538 115.334 364.328 111.394C365.118 107.454 362.748 99.2835 355.378 97.7035C348.008 96.1235 338.978 97.2035 337.318 104.564Z" fill="#263238" stroke="#263238" stroke-linecap="round" stroke-linejoin="round"/>
<path d="M337.318 104.564C337.253 103.944 337.33 103.317 337.543 102.732C337.756 102.146 338.099 101.617 338.548 101.184C338.996 100.751 339.537 100.426 340.13 100.234C340.722 100.041 341.351 99.9866 341.968 100.074C346.968 100.344 347.488 108.234 350.118 111.394C352.748 114.554 354.068 114.024 354.068 114.024C354.068 114.024 349.598 115.334 346.698 113.754C343.798 112.174 342.398 103.264 337.318 104.564Z" fill="#263238" stroke="#263238" stroke-linecap="round" stroke-linejoin="round"/>
<path d="M345.488 99.1536C348.119 100.779 350.207 103.149 351.488 105.964C353.758 110.774 353.758 114.744 359.148 114.464C359.148 114.464 356.598 115.034 352.628 113.044C348.658 111.054 347.808 105.394 345.258 103.124C343.867 101.807 342.067 101.006 340.158 100.854" stroke="white" stroke-width="0.5" stroke-linecap="round" stroke-linejoin="round"/>
<path d="M364.328 111.394C364.328 111.394 364.098 118.614 358.558 120.134" stroke="white" stroke-width="0.5" stroke-linecap="round" stroke-linejoin="round"/>
<path d="M348.868 118.764C348.868 118.764 354.148 111.854 355.388 117.014C356.628 122.174 352.388 123.434 350.388 122.844C348.388 122.254 348.668 121.184 348.668 121.184" fill="white"/>
<path d="M348.868 118.764C348.868 118.764 354.148 111.854 355.388 117.014C356.628 122.174 352.388 123.434 350.388 122.844C348.388 122.254 348.668 121.184 348.668 121.184" stroke="#263238" stroke-linecap="round" stroke-linejoin="round"/>
<path d="M337.118 177.894C337.118 177.894 327.038 179.294 325.358 179.294C323.678 179.294 319.478 184.614 319.478 184.614H337.958L337.118 177.894Z" fill="white" stroke="#263238" stroke-linecap="round" stroke-linejoin="round"/>
<path d="M379.938 171.114L383.558 179.274C383.72 179.754 383.767 180.266 383.694 180.767C383.621 181.269 383.431 181.747 383.138 182.161C382.846 182.575 382.46 182.914 382.011 183.151C381.563 183.388 381.065 183.516 380.558 183.524L336.858 183.774L337.138 177.894L371.018 172.534" fill="white"/>
<path d="M379.938 171.114L383.558 179.274C383.72 179.754 383.767 180.266 383.694 180.767C383.621 181.269 383.431 181.747 383.138 182.161C382.846 182.575 382.46 182.914 382.011 183.151C381.563 183.388 381.065 183.516 380.558 183.524L336.858 183.774L337.138 177.894L371.018 172.534" stroke="#263238" stroke-linecap="round" stroke-linejoin="round"/>
<path d="M321.448 283.833L321.658 291.763H320.408L318.738 287.803L321.448 283.833Z" fill="#263238" stroke="#263238" stroke-linecap="round" stroke-linejoin="round"/>
<path d="M319.208 278.534L317.598 266.994L309.218 267.534L312.118 278.894L308.418 286.304L300.418 291.534C300.418 291.534 299.498 292.454 303.498 292.144C307.498 291.834 315.798 292.144 315.798 292.144L321.028 285.994C321.028 285.994 322.918 282.784 319.208 278.534Z" fill="white" stroke="#263238" stroke-linecap="round" stroke-linejoin="round"/>
<path d="M315.798 292.104L321.028 285.954C321.028 285.954 322.378 283.664 320.508 280.364C316.788 286.724 311.838 288.634 311.838 288.634L306.688 287.394L300.418 291.494C300.418 291.494 299.498 292.414 303.498 292.104C307.498 291.794 315.798 292.104 315.798 292.104Z" fill="#263238" stroke="#263238" stroke-linecap="round" stroke-linejoin="round"/>
<path d="M315.368 207.794L318.958 269.114L307.588 269.384L296.488 213.674C296.488 213.674 296.698 203.064 300.088 201.844C303.478 200.624 312.478 201.934 312.478 201.934" fill="#C6B5DD"/>
<path d="M315.368 207.794L318.958 269.114L307.588 269.384L296.488 213.674C296.488 213.674 296.698 203.064 300.088 201.844C303.478 200.624 312.478 201.934 312.478 201.934" stroke="#263238" stroke-linecap="round" stroke-linejoin="round"/>
<path d="M265.668 75.8035L279.778 115.353C279.778 115.353 277.918 124.303 272.318 123.933C266.718 123.563 265.228 115.723 263.738 114.603C262.248 113.483 260.008 104.903 260.008 104.903L265.668 75.8035Z" fill="white" stroke="#263238" stroke-linecap="round" stroke-linejoin="round"/>
<path d="M229.168 67.8735L206.228 76.1535L215.028 139.764H256.418L265.668 75.8035L240.908 68.0535L229.168 67.8735Z" fill="white" stroke="#263238" stroke-linecap="round" stroke-linejoin="round"/>
<path d="M231.378 78.7734L234.688 83.7634L231.818 126.083L236.038 137.103L240.368 126.383L236.658 84.3934L239.638 77.1834L235.508 71.7534L231.378 78.7734Z" fill="#C6B5DD" stroke="#263238" stroke-linecap="round" stroke-linejoin="round"/>
<path d="M235.958 76.7134L230.048 81.1434L226.158 69.5934L228.868 63.7434L240.958 63.4534L243.908 66.1034L243.318 80.8434L235.958 76.7134Z" fill="white" stroke="#263238" stroke-linecap="round" stroke-linejoin="round"/>
<path d="M242.208 60.7435L241.288 68.1735L234.668 76.7135L229.718 68.0535V54.1235C229.718 54.1235 238.388 56.2935 242.208 60.7435Z" fill="white" stroke="#263238" stroke-linecap="round" stroke-linejoin="round"/>
<path d="M226.318 45.3035C226.318 38.5535 231.238 33.0835 237.318 33.0835C243.398 33.0835 246.768 38.8535 246.768 45.6035C246.768 47.7835 246.318 51.5235 246.138 53.5135C245.828 56.9135 244.798 58.3535 242.788 61.4035C236.198 71.4035 230.788 56.7335 228.018 51.8035C226.897 49.8211 226.311 47.581 226.318 45.3035Z" fill="white" stroke="#263238" stroke-linecap="round" stroke-linejoin="round"/>
<path d="M242.098 47.4236L243.028 54.3936L239.758 54.3036" fill="white"/>
<path d="M242.098 47.4236L243.028 54.3936L239.758 54.3036" stroke="#263238" stroke-linecap="round" stroke-linejoin="round"/>
<path d="M249.398 46.2134L233.678 46.2834C233.485 46.8947 233.455 47.546 233.592 48.1724C233.729 48.7987 234.028 49.3783 234.458 49.8534C235.458 50.8534 239.528 50.5034 240.178 50.2434C240.828 49.9834 241.178 47.1234 241.178 47.1234H242.348C242.348 47.1234 242.478 50.1234 244.158 50.3734C245.838 50.6234 248.028 50.5434 248.448 50.2434C250.308 48.9934 249.398 46.2134 249.398 46.2134Z" fill="white" stroke="#263238" stroke-linecap="round" stroke-linejoin="round"/>
<path d="M228.258 52.9335C228.258 52.9335 231.798 60.1835 232.638 62.6935C233.478 65.2035 237.638 67.1635 241.848 65.7635C246.058 64.3635 244.918 58.1335 244.918 58.1335C244.918 58.1335 240.448 54.3135 239.618 55.1335C238.788 55.9535 234.308 59.6035 234.028 58.7635C233.748 57.9235 231.798 52.9035 231.798 52.9035L230.888 49.3435L232.758 48.1435C233.028 47.9186 233.204 47.6005 233.25 47.2523C233.296 46.904 233.21 46.5511 233.008 46.2635L232.128 44.9935C232.02 44.8379 231.943 44.6622 231.904 44.4768C231.864 44.2913 231.863 44.0997 231.898 43.9135C232.128 42.8235 232.758 40.5635 234.218 39.9135C236.218 39.0835 238.648 40.2935 240.888 40.8535C243.128 41.4135 245.558 39.3935 245.558 39.3935L246.558 42.7135C248.775 40.6327 250.351 37.9608 251.098 35.0135C252.218 30.2635 240.768 28.3135 237.098 28.3135C233.428 28.3135 227.608 30.3135 225.928 35.5735C224.248 40.8335 227.268 51.9935 228.258 52.9335Z" fill="#263238" stroke="#263238" stroke-linecap="round" stroke-linejoin="round"/>
<path d="M237.318 35.0435C237.318 35.0435 239.398 38.1635 236.668 38.8135C233.938 39.4635 228.618 37.1234 226.278 38.0334" stroke="white" stroke-width="0.5" stroke-linecap="round" stroke-linejoin="round"/>
<path d="M232.638 41.9235C232.638 41.9235 228.358 41.4035 226.638 43.2235" stroke="white" stroke-width="0.5" stroke-linecap="round" stroke-linejoin="round"/>
<path d="M242.938 57.6935C242.938 57.6935 239.788 59.3335 238.228 57.3835" stroke="white" stroke-width="0.5" stroke-linecap="round" stroke-linejoin="round"/>
<path d="M228.788 50.7236C228.788 50.7236 225.698 47.3236 225.698 51.0336C225.698 54.7436 226.628 54.7436 228.478 56.0336C230.328 57.3236 230.958 55.7236 230.958 55.7236" fill="white"/>
<path d="M228.788 50.7236C228.788 50.7236 225.698 47.3236 225.698 51.0336C225.698 54.7436 226.628 54.7436 228.478 56.0336C230.328 57.3236 230.958 55.7236 230.958 55.7236" stroke="#263238" stroke-linecap="round" stroke-linejoin="round"/>
<path d="M270.048 281.233H270.188L269.918 279.873L256.418 139.773H215.028L201.418 281.223H201.568L210.348 281.973C210.348 281.973 220.088 249.273 220.088 246.833C220.088 244.393 222.868 221.833 222.868 221.833L236.678 173.283L248.888 221.833C248.888 221.833 251.668 244.443 251.668 246.833C251.668 249.223 261.418 281.993 261.418 281.993L269.678 281.283H270.048V281.233Z" fill="#263238" stroke="#263238" stroke-linecap="round" stroke-linejoin="round"/>
<path d="M253.328 148.013L244.118 161.163" stroke="white" stroke-width="0.5" stroke-linecap="round" stroke-linejoin="round"/>
<path d="M248.398 150.973L242.808 160.183" stroke="white" stroke-width="0.5" stroke-linecap="round" stroke-linejoin="round"/>
<path d="M222.098 150.323L230.308 159.193" stroke="white" stroke-width="0.5" stroke-linecap="round" stroke-linejoin="round"/>
<path d="M221.438 153.604L233.268 165.444" stroke="white" stroke-width="0.5" stroke-linecap="round" stroke-linejoin="round"/>
<path d="M217.488 141.114H253.988" stroke="white" stroke-width="0.5" stroke-linecap="round" stroke-linejoin="round"/>
<path d="M201.568 281.223C201.568 281.223 196.298 285.373 193.258 286.513C190.218 287.653 184.538 290.683 184.538 290.683C184.538 290.683 184.538 292.583 189.468 292.583H208.818L208.488 281.223H201.568Z" fill="#263238" stroke="#263238" stroke-linecap="round" stroke-linejoin="round"/>
<path d="M208.748 290.514C201.021 290.867 193.28 290.743 185.568 290.144L184.568 290.684C184.568 290.684 184.568 292.584 189.498 292.584H208.848L208.748 290.514Z" fill="white" stroke="#263238" stroke-linecap="round" stroke-linejoin="round"/>
<path d="M269.248 281.223C269.248 281.223 274.528 285.373 277.558 286.513C280.588 287.653 286.288 290.683 286.288 290.683C286.288 290.683 286.288 292.583 281.348 292.583H262.008L262.358 281.223H269.248Z" fill="#263238" stroke="#263238" stroke-linecap="round" stroke-linejoin="round"/>
<path d="M262.068 290.514C269.795 290.867 277.536 290.743 285.248 290.144L286.248 290.684C286.248 290.684 286.248 292.584 281.308 292.584H262.008L262.068 290.514Z" fill="white" stroke="#263238" stroke-linecap="round" stroke-linejoin="round"/>
<path d="M206.228 76.1536L190.988 116.844H205.608L211.068 105.744L206.228 76.1536Z" fill="white" stroke="#263238" stroke-linecap="round" stroke-linejoin="round"/>
<path d="M272.898 110.543C266.798 108.023 247.228 106.773 246.208 106.773C245.188 106.773 213.378 104.153 210.768 103.773C208.158 103.393 205.168 109.373 205.168 109.373L218.968 108.993L235.758 112.353C235.758 112.353 269.758 124.663 272.318 123.923C272.667 123.807 272.983 123.608 273.238 123.343" fill="white"/>
<path d="M272.898 110.543C266.798 108.023 247.228 106.773 246.208 106.773C245.188 106.773 213.378 104.153 210.768 103.773C208.158 103.393 205.168 109.373 205.168 109.373L218.968 108.993L235.758 112.353C235.758 112.353 269.758 124.663 272.318 123.923C272.667 123.807 272.983 123.608 273.238 123.343" stroke="#263238" stroke-linecap="round" stroke-linejoin="round"/>
<path d="M201.808 108.634L254.408 103.414L254.788 107.884L209.268 121.694C209.268 121.694 201.068 123.554 194.718 122.434C188.368 121.314 191.368 114.974 192.858 111.244" fill="white"/>
<path d="M201.808 108.634L254.408 103.414L254.788 107.884L209.268 121.694C209.268 121.694 201.068 123.554 194.718 122.434C188.368 121.314 191.368 114.974 192.858 111.244" stroke="#263238" stroke-linecap="round" stroke-linejoin="round"/>
<path d="M254.418 103.413L264.488 103.033L267.468 109.003L254.788 107.893L254.418 103.413Z" fill="white" stroke="#263238" stroke-linecap="round" stroke-linejoin="round"/>
<path d="M321.488 191.154L330.078 293.424C330.101 293.576 330.154 293.722 330.236 293.853C330.317 293.984 330.424 294.097 330.55 294.185C330.677 294.273 330.82 294.335 330.971 294.365C331.122 294.396 331.277 294.395 331.428 294.364C331.685 294.3 331.911 294.146 332.064 293.929C332.216 293.712 332.285 293.447 332.258 293.184L326.408 191.184L321.488 191.154Z" fill="#263238" stroke="#263238" stroke-linecap="round" stroke-linejoin="round"/>
<path d="M379.218 191.154L387.838 293.764C387.859 293.917 387.912 294.064 387.993 294.196C388.074 294.327 388.181 294.441 388.308 294.529C388.434 294.617 388.578 294.678 388.73 294.709C388.881 294.739 389.037 294.737 389.188 294.704C389.445 294.64 389.671 294.486 389.824 294.269C389.976 294.052 390.045 293.787 390.018 293.524L384.148 191.154H379.218Z" fill="#263238" stroke="#263238" stroke-linecap="round" stroke-linejoin="round"/>
<path d="M140.978 191.154L136.488 292.534C136.463 292.8 136.534 293.066 136.688 293.284C136.842 293.502 137.069 293.658 137.328 293.724C137.477 293.762 137.632 293.768 137.783 293.741C137.934 293.714 138.077 293.655 138.203 293.567C138.329 293.48 138.435 293.367 138.514 293.235C138.592 293.103 138.641 292.956 138.658 292.804L145.928 191.154H140.978Z" fill="#263238" stroke="#263238" stroke-linecap="round" stroke-linejoin="round"/>
<path d="M87.7681 191.154L83.2481 292.154C83.2257 292.421 83.2989 292.687 83.4546 292.905C83.6103 293.123 83.8384 293.278 84.0981 293.344C84.2465 293.38 84.401 293.385 84.5514 293.357C84.7017 293.329 84.8445 293.27 84.9702 293.183C85.0959 293.096 85.2017 292.984 85.2807 292.853C85.3596 292.722 85.4099 292.576 85.4281 292.424L92.6681 191.114L87.7681 191.154Z" fill="#263238" stroke="#263238" stroke-linecap="round" stroke-linejoin="round"/>
<path d="M390.458 185.484H84.5681V194.264H390.458V185.484Z" fill="#C6B5DD" stroke="#263238" stroke-linecap="round" stroke-linejoin="round"/>
<path d="M390.458 185.484H84.5681V188.494H390.458V185.484Z" fill="#263238" stroke="#263238" stroke-linecap="round" stroke-linejoin="round"/>
<path d="M390.448 185.484H313.908V194.264H390.448V185.484Z" fill="#263238" stroke="#263238" stroke-linecap="round" stroke-linejoin="round"/>
<path d="M393.178 182.564H81.8381V185.914H393.178V182.564Z" fill="#C6B5DD" stroke="#263238" stroke-linecap="round" stroke-linejoin="round"/>
<path d="M393.168 182.564H317.098V185.914H393.168V182.564Z" fill="#263238" stroke="#263238" stroke-linecap="round" stroke-linejoin="round"/>
<path d="M151.188 182.264H192.968C193.128 182.265 193.284 182.219 193.417 182.132C193.55 182.045 193.655 181.92 193.718 181.774L205.288 155.394C205.341 155.27 205.363 155.135 205.351 155.001C205.339 154.867 205.293 154.738 205.219 154.626C205.144 154.514 205.043 154.422 204.924 154.359C204.806 154.295 204.673 154.263 204.538 154.264H162.758C162.602 154.264 162.448 154.309 162.317 154.394C162.186 154.479 162.082 154.601 162.018 154.744L150.488 181.124C150.434 181.244 150.411 181.376 150.419 181.507C150.428 181.639 150.468 181.766 150.537 181.878C150.606 181.991 150.702 182.085 150.815 182.152C150.928 182.219 151.057 182.257 151.188 182.264Z" fill="white" stroke="#263238" stroke-linecap="round" stroke-linejoin="round"/>
<path d="M155.108 180.204H190.758C190.892 180.203 191.022 180.165 191.134 180.092C191.246 180.019 191.334 179.916 191.388 179.794L201.258 157.284C201.312 157.177 201.337 157.059 201.331 156.94C201.325 156.822 201.289 156.706 201.226 156.606C201.162 156.505 201.074 156.423 200.969 156.366C200.864 156.31 200.747 156.281 200.628 156.284H164.978C164.842 156.283 164.708 156.322 164.595 156.397C164.481 156.471 164.391 156.578 164.338 156.704L154.488 179.234C154.442 179.338 154.422 179.452 154.431 179.566C154.439 179.679 154.476 179.789 154.537 179.885C154.599 179.981 154.683 180.061 154.783 180.116C154.882 180.172 154.994 180.202 155.108 180.204Z" fill="#C6B5DD" stroke="#263238" stroke-linecap="round" stroke-linejoin="round"/>
<path d="M193.548 180.514H130.778V182.564H193.548V180.514Z" fill="white" stroke="#263238" stroke-linecap="round" stroke-linejoin="round"/>
<path d="M193.558 180.514H163.128V182.564H193.558V180.514Z" fill="white" stroke="#263238" stroke-linecap="round" stroke-linejoin="round"/>
<path d="M213.718 166.244H202.648V182.604H213.718V166.244Z" fill="white" stroke="#263238" stroke-linecap="round" stroke-linejoin="round"/>
<path d="M213.228 180.374H212.068C211.827 180.374 211.595 180.278 211.425 180.107C211.254 179.936 211.158 179.705 211.158 179.464C211.158 179.222 211.254 178.991 211.425 178.82C211.595 178.65 211.827 178.554 212.068 178.554H213.228C213.686 178.551 214.125 178.368 214.449 178.044C214.772 177.72 214.956 177.282 214.958 176.824V172.824C214.956 172.366 214.772 171.927 214.449 171.603C214.125 171.279 213.686 171.096 213.228 171.094H211.738C211.619 171.094 211.5 171.07 211.39 171.024C211.279 170.979 211.179 170.912 211.095 170.827C211.01 170.743 210.943 170.642 210.897 170.532C210.852 170.422 210.828 170.303 210.828 170.184C210.828 170.064 210.852 169.946 210.897 169.835C210.943 169.725 211.01 169.625 211.095 169.54C211.179 169.456 211.279 169.389 211.39 169.343C211.5 169.297 211.619 169.274 211.738 169.274H213.228C213.694 169.274 214.156 169.366 214.587 169.544C215.017 169.722 215.409 169.984 215.738 170.313C216.068 170.643 216.329 171.034 216.508 171.465C216.686 171.896 216.778 172.357 216.778 172.824V176.824C216.778 177.29 216.686 177.752 216.508 178.182C216.329 178.613 216.068 179.004 215.738 179.334C215.409 179.664 215.017 179.925 214.587 180.103C214.156 180.282 213.694 180.374 213.228 180.374Z" fill="white" stroke="#263238" stroke-linecap="round" stroke-linejoin="round"/>
<path d="M300.208 182.264H258.428C258.27 182.263 258.116 182.216 257.985 182.129C257.854 182.042 257.75 181.919 257.688 181.774L246.118 155.394C246.065 155.271 246.044 155.137 246.055 155.003C246.067 154.87 246.111 154.742 246.185 154.63C246.258 154.518 246.358 154.426 246.475 154.362C246.593 154.298 246.724 154.264 246.858 154.264H288.638C288.796 154.263 288.951 154.308 289.084 154.393C289.217 154.478 289.323 154.6 289.388 154.744L300.958 181.124C301.011 181.248 301.032 181.383 301.02 181.518C301.008 181.652 300.962 181.782 300.888 181.894C300.814 182.007 300.713 182.1 300.594 182.164C300.476 182.229 300.343 182.263 300.208 182.264Z" fill="white" stroke="#263238" stroke-linecap="round" stroke-linejoin="round"/>
<path d="M257.848 182.564H320.618V180.514H257.848V182.564Z" fill="white" stroke="#263238" stroke-linecap="round" stroke-linejoin="round"/>
<path d="M257.848 182.564H301.128V180.514H257.848V182.564Z" fill="white" stroke="#263238" stroke-linecap="round" stroke-linejoin="round"/>
<path d="M274.228 165.214C274.455 165.642 274.55 166.127 274.501 166.609C274.453 167.091 274.263 167.548 273.956 167.923C273.649 168.297 273.239 168.573 272.776 168.715C272.313 168.858 271.818 168.86 271.354 168.722C270.889 168.584 270.476 168.312 270.166 167.941C269.855 167.569 269.661 167.114 269.608 166.632C269.555 166.151 269.646 165.665 269.868 165.234C270.09 164.804 270.435 164.449 270.858 164.214C271.438 163.901 272.118 163.83 272.75 164.017C273.381 164.205 273.913 164.635 274.228 165.214Z" fill="white" stroke="#263238" stroke-linecap="round" stroke-linejoin="round"/>
<path d="M78.8581 87.5638L81.9381 117.994L95.9381 158.524L91.1481 161.264L74.7081 124.164L66.4981 92.3138C66.4981 92.3138 65.8081 82.7338 69.2381 81.3138C72.6681 79.8938 77.4881 81.4038 78.8581 87.5638Z" fill="white" stroke="#263238" stroke-linecap="round" stroke-linejoin="round"/>
<path d="M95.9781 158.564C95.9781 158.564 99.0581 165.074 99.4081 166.784C99.7581 168.494 100.108 171.984 98.7581 173.544C97.1281 175.424 95.6381 173.974 95.6381 173.974C95.6381 173.974 91.5281 172.974 91.5281 169.524C91.5281 166.074 91.1881 161.304 91.1881 161.304L95.9781 158.564Z" fill="white" stroke="#263238" stroke-linecap="round" stroke-linejoin="round"/>
<path d="M92.618 168.774L98.388 170.274" stroke="#263238" stroke-linecap="round" stroke-linejoin="round"/>
<path d="M93.9981 164.884L95.6381 167.464C95.6381 167.464 91.8181 173.994 93.8681 172.284C95.9181 170.574 99.7481 168.494 99.4081 166.784C98.829 164.989 98.0649 163.26 97.1281 161.624" fill="white"/>
<path d="M93.9981 164.884L95.6381 167.464C95.6381 167.464 91.8181 173.994 93.8681 172.284C95.9181 170.574 99.7481 168.494 99.4081 166.784C98.829 164.989 98.0649 163.26 97.1281 161.624" stroke="#263238" stroke-linecap="round" stroke-linejoin="round"/>
<path d="M62.4881 50.9938C62.4881 50.9938 58.9681 47.1938 50.8481 49.6338C42.7281 52.0738 40.8481 65.0738 41.0981 71.5638C41.3481 78.0538 47.5981 85.3738 45.7081 88.6238C43.8181 91.8738 36.7681 99.4538 37.3081 107.624C37.8481 115.794 44.6181 122.244 54.3681 119.264C64.1181 116.284 62.4881 104.354 60.5481 99.9938C58.6081 95.6338 62.7181 93.7638 64.0681 84.2838C65.4181 74.8038 56.7581 66.9538 56.7581 60.1838C56.7581 53.4138 63.7581 54.5038 63.7581 54.5038L62.4881 50.9938Z" fill="#263238" stroke="#263238" stroke-linecap="round" stroke-linejoin="round"/>
<path d="M50.2881 76.6938C51.5681 79.3338 53.0581 82.1538 54.5381 85.1938C59.4781 95.2738 55.6181 98.9139 48.1081 104.494C40.5981 110.074 42.3181 116.934 44.2481 117.994" stroke="white" stroke-width="0.5" stroke-linecap="round" stroke-linejoin="round"/>
<path d="M59.908 53.6638C59.908 53.6638 49.828 54.5238 47.248 60.9538C45.688 64.8638 46.888 69.2438 49.188 74.3438" stroke="white" stroke-width="0.5" stroke-linecap="round" stroke-linejoin="round"/>
<path d="M52.5381 115.484C53.3136 115.775 54.1406 115.905 54.9681 115.864" stroke="white" stroke-width="0.5" stroke-linecap="round" stroke-linejoin="round"/>
<path d="M62.488 52.9939C62.488 52.9939 53.048 54.7039 50.908 61.5639C48.768 68.4239 61.418 78.5639 62.058 86.0239C62.698 93.4839 53.688 97.8439 50.488 103.634C48.238 107.694 48.488 112.164 50.858 114.414" stroke="white" stroke-width="0.5" stroke-linecap="round" stroke-linejoin="round"/>
<path d="M86.7081 191.064C86.7081 191.064 84.3781 211.184 82.0381 217.604C79.6981 224.024 74.4581 274.474 74.1681 277.394C73.8781 280.314 81.7481 287.014 84.9581 289.064C88.1681 291.114 86.7081 291.684 83.2081 291.974C79.7081 292.264 75.6281 291.684 73.8781 288.474C72.1281 285.264 68.0381 284.394 68.0381 284.394L67.4581 291.394H66.2881L65.4181 282.644C65.1207 280.657 65.4237 278.627 66.2881 276.814C67.7481 273.604 68.2881 266.894 68.2881 257.814C68.2881 248.734 66.5381 234.184 67.4081 227.184C68.2781 220.184 71.7881 214.934 71.7881 209.104C71.7881 203.274 72.0781 194.524 72.0781 194.524L86.7081 191.064Z" fill="white" stroke="#263238" stroke-linecap="round" stroke-linejoin="round"/>
<path d="M65.4181 282.644C65.1858 281.139 65.3126 279.6 65.7881 278.154C67.5981 281.214 72.7881 285.364 76.7881 287.014C78.9569 287.953 81.3214 288.351 83.6781 288.174C84.1481 288.524 84.5881 288.824 84.9581 289.064C88.1681 291.064 86.7081 291.684 83.2081 291.974C79.7081 292.264 75.6281 291.684 73.8781 288.474C72.1281 285.264 68.0381 284.394 68.0381 284.394L67.4581 291.394H66.2881L65.4181 282.644Z" fill="#263238" stroke="#263238" stroke-linecap="round" stroke-linejoin="round"/>
<path d="M69.7881 194.274C69.7881 194.274 64.7881 209.144 60.1681 221.974C55.5481 234.804 44.4181 264.264 43.2481 269.514C42.0781 274.764 41.4981 284.394 38.2481 289.354C34.9981 294.314 31.8281 296.644 32.4081 287.894C32.9881 279.144 38.2481 272.724 39.4081 266.014C40.5681 259.304 41.1581 235.104 45.2381 224.314C49.3181 213.524 53.6981 204.774 54.2381 201.564C54.6369 198.37 54.8306 195.153 54.8181 191.934L69.7881 194.274Z" fill="white" stroke="#263238" stroke-linecap="round" stroke-linejoin="round"/>
<path d="M33.008 284.144C33.0511 285.793 33.5646 287.396 34.488 288.764C36.168 290.644 38.878 286.994 40.288 284.764C39.8267 286.372 39.1542 287.912 38.288 289.344C35.078 294.294 31.868 296.634 32.448 287.884C32.5445 286.625 32.7316 285.375 33.008 284.144Z" fill="#263238" stroke="#263238" stroke-linecap="round" stroke-linejoin="round"/>
<path d="M67.4881 76.8938C67.4881 76.8938 65.7381 78.3538 64.5681 88.2738C63.3981 98.1938 70.6981 129.104 70.6981 129.104C70.6981 129.104 58.1581 149.644 55.2381 159.854C52.3181 170.064 50.5681 208.314 50.5681 208.314C50.5681 208.314 56.6981 210.654 69.2381 211.524C81.7781 212.394 88.4881 209.194 88.4881 209.194C88.4881 209.194 89.0681 154.604 89.0681 146.194C89.0681 137.784 89.6581 118.654 90.5281 116.324C91.3981 113.994 94.0281 107.864 94.0281 105.534C94.0281 103.204 76.4881 78.3538 76.4881 78.3538L67.4881 76.8938Z" fill="white" stroke="#263238" stroke-linecap="round" stroke-linejoin="round"/>
<path d="M55.2081 159.854C57.5081 151.854 67.0281 130.574 70.4281 126.914C75.5981 128.634 85.0281 130.334 89.2381 129.074C89.1081 132.074 89.0381 143.274 89.0381 146.144C89.0381 154.604 88.4581 209.144 88.4581 209.144C88.4581 209.144 81.7481 212.354 69.2081 211.474C56.6681 210.594 50.5381 208.264 50.5381 208.264C50.5381 208.264 52.2881 170.064 55.2081 159.854Z" fill="#263238" stroke="#263238" stroke-linecap="round" stroke-linejoin="round"/>
<path d="M73.9581 42.5139C73.9581 42.5139 77.0881 35.6938 83.2781 35.6938C89.4681 35.6938 92.2181 41.1938 90.8481 46.0038C89.4781 50.8138 94.9681 49.4439 95.6581 52.5439C96.3481 55.6439 91.1881 57.6938 88.4381 57.6938C85.6881 57.6938 73.9581 42.5139 73.9581 42.5139Z" fill="#263238" stroke="#263238" stroke-linecap="round" stroke-linejoin="round"/>
<path d="M82.998 41.8138C84.838 40.8138 86.998 40.0938 87.998 41.6538C89.928 44.6538 83.928 47.0138 85.858 50.2338C87.788 53.4538 92.5081 52.5938 92.2881 53.6638C92.0681 54.7338 89.078 55.3738 89.078 55.3738" stroke="white" stroke-width="0.5" stroke-linecap="round" stroke-linejoin="round"/>
<path d="M79.848 43.9938C79.848 43.9938 80.438 43.4838 81.318 42.8638" stroke="white" stroke-width="0.5" stroke-linecap="round" stroke-linejoin="round"/>
<path d="M89.828 58.3837C89.3903 58.0584 89.0455 57.6239 88.828 57.1237C88.328 53.4337 87.248 49.8037 85.208 47.7637C82.122 44.8586 78.1862 43.0187 73.978 42.5137C72.7319 42.3301 71.46 42.4466 70.268 42.8537C64.958 44.7137 60.398 48.3837 61.378 57.2337C62.458 66.9837 70.048 69.4237 70.048 69.4237L70.588 75.4237L78.168 78.9437L78.438 72.4437C78.438 72.4437 83.578 74.6037 85.438 74.3337C87.298 74.0637 87.878 71.6237 88.688 68.1037C88.9854 66.4976 89.1327 64.8672 89.128 63.2337L91.3981 60.9737C92.688 59.6637 91.418 59.3437 89.828 58.3837Z" fill="white" stroke="#263238" stroke-linecap="round" stroke-linejoin="round"/>
<path d="M61.3581 57.2337C60.3581 48.3837 64.9381 44.7137 70.2481 42.8537C71.44 42.4466 72.712 42.3301 73.9581 42.5137C76.827 42.8973 79.5889 43.8565 82.0781 45.3337C80.5581 45.0237 83.1481 49.4937 80.7681 52.3337C78.684 54.9702 76.0268 57.0973 72.9981 58.5537C72.9981 58.5537 70.2981 56.3837 69.4781 59.3637C68.6581 62.3437 68.9381 64.5037 71.1081 65.0537C73.2781 65.6037 74.1081 65.0537 74.1081 65.0537C74.1081 65.0537 72.6681 68.4637 70.1081 69.8737V69.3837C70.1081 69.3837 62.4881 66.9937 61.3581 57.2337Z" fill="#263238" stroke="#263238" stroke-linecap="round" stroke-linejoin="round"/>
<path d="M82.0381 77.1838L80.5881 85.0638L65.1281 76.8938L66.5881 69.6038L82.0381 77.1838Z" fill="white" stroke="#263238" stroke-linecap="round" stroke-linejoin="round"/>
<path d="M74.5681 143.624C76.1691 143.966 77.7937 144.187 79.4281 144.284C80.6981 144.204 82.4281 142.774 83.7081 143.384C84.9881 143.994 86.7781 147.844 86.7781 147.844C86.7781 147.844 88.4781 148.704 87.9881 149.614C87.4981 150.524 85.3981 151.364 85.3981 151.364C85.3981 151.364 83.3981 153.254 82.2381 153.444C81.0781 153.634 74.0081 148.444 74.0081 148.444L74.5681 143.624Z" fill="white" stroke="#263238" stroke-linecap="round" stroke-linejoin="round"/>
<path d="M75.3181 147.364C75.5522 147.083 75.7203 146.753 75.8102 146.398C75.9 146.043 75.9094 145.673 75.8374 145.314C75.7655 144.956 75.6141 144.618 75.3945 144.325C75.1748 144.033 74.8925 143.793 74.5681 143.624L55.1381 125.424L76.2981 92.5238C77.2422 90.7842 77.4715 88.7453 76.9372 86.8395C76.4029 84.9337 75.1472 83.3111 73.4364 82.3158C71.7255 81.3206 69.6943 81.031 67.7735 81.5086C65.8527 81.9861 64.1936 83.1932 63.1481 84.8738L44.8081 121.324C43.8545 122.249 43.3032 123.513 43.2733 124.841C43.2433 126.169 43.7371 127.456 44.6481 128.424L44.7181 128.494C46.5581 131.334 66.7981 146.184 72.7181 148.124C73.1779 148.27 73.6708 148.275 74.1338 148.14C74.5968 148.004 75.0091 147.734 75.3181 147.364Z" fill="white" stroke="#263238" stroke-linecap="round" stroke-linejoin="round"/>
<path d="M152.198 96.9935C152.198 96.9935 154.708 104.763 154.708 106.273C154.69 107.364 154.606 108.453 154.458 109.533L156.668 112.963C156.798 113.184 156.838 113.446 156.78 113.695C156.722 113.944 156.571 114.162 156.358 114.303L152.948 116.303C152.948 116.303 152.448 124.303 151.948 125.303C151.448 126.303 142.948 126.063 142.948 126.063L140.188 131.323L125.888 125.813L129.648 115.523L128.868 99.9935C128.868 99.9935 137.648 92.2335 152.198 96.9935Z" fill="white" stroke="#263238" stroke-linecap="round" stroke-linejoin="round"/>
<path d="M142.408 115.894C142.408 115.894 139.918 118.234 138.048 118.394C136.178 118.554 130.098 117.144 129.628 116.524C129.158 115.904 124.958 107.174 125.108 102.964C125.258 98.7535 125.428 92.5235 129.938 90.5035C134.448 88.4835 141.628 89.0935 145.368 86.7635C149.108 84.4335 155.028 82.5535 158.148 86.6035C161.268 90.6535 158.928 96.2635 156.438 98.6035C153.948 100.944 150.828 101.604 151.138 102.604C151.448 103.604 153.318 104.784 152.228 106.344C151.138 107.904 147.228 109.344 147.228 109.924C147.228 110.504 148.168 112.734 147.078 113.044C145.988 113.354 144.888 110.864 143.798 110.864C142.708 110.864 140.388 113.874 142.408 115.894Z" fill="#263238" stroke="#263238" stroke-linecap="round" stroke-linejoin="round"/>
<path d="M135.898 108.744C135.449 109.246 135.066 109.804 134.758 110.404" stroke="white" stroke-width="0.5" stroke-linecap="round" stroke-linejoin="round"/>
<path d="M156.378 92.5935C156.18 94.3098 155.555 95.9489 154.559 97.3606C153.563 98.7723 152.229 99.9114 150.678 100.673C146.678 102.743 141.348 104.433 137.808 107.033" stroke="white" stroke-width="0.5" stroke-linecap="round" stroke-linejoin="round"/>
<path d="M151.138 102.654C151.138 102.654 147.588 105.654 143.788 108.744C141.195 110.751 138.312 112.352 135.238 113.494" stroke="white" stroke-width="0.5" stroke-linecap="round" stroke-linejoin="round"/>
<path d="M142.158 116.313L144.158 116.813C144.037 117.748 144.109 118.698 144.368 119.605C144.628 120.511 145.07 121.355 145.668 122.083" fill="white"/>
<path d="M142.158 116.313L144.158 116.813C144.037 117.748 144.109 118.698 144.368 119.605C144.628 120.511 145.07 121.355 145.668 122.083" stroke="#263238" stroke-linecap="round" stroke-linejoin="round"/>
<path d="M144.478 110.944L158.598 107.444" stroke="#263238" stroke-linecap="round" stroke-linejoin="round"/>
<path d="M154.968 107.164L158.188 107.304C158.188 107.304 159.298 110.944 155.948 111.364" stroke="#263238" stroke-linecap="round" stroke-linejoin="round"/>
<path d="M140.728 280.054C140.728 280.054 153.728 288.264 156.018 288.264C158.308 288.264 159.448 290.324 158.308 290.554C157.168 290.784 150.088 291.004 145.308 291.234C140.528 291.464 137.308 291.004 134.578 291.004C131.848 291.004 128.638 291.234 127.268 290.554C125.898 289.874 128.188 282.104 128.188 280.734C128.188 279.364 139.128 279.134 140.728 280.054Z" fill="#263238" stroke="#263238" stroke-linecap="round" stroke-linejoin="round"/>
<path d="M157.488 288.603C152.438 290.263 144.248 289.173 139.328 288.723C135.438 288.373 129.328 288.293 126.838 288.273C126.738 289.443 126.838 290.333 127.228 290.553C128.598 291.233 131.798 291.003 134.538 291.003C137.278 291.003 140.468 291.463 145.268 291.233C150.068 291.003 157.138 290.773 158.268 290.553C159.158 290.373 158.738 289.193 157.488 288.603Z" fill="white" stroke="#263238" stroke-linecap="round" stroke-linejoin="round"/>
<path d="M150.998 223.654L140.738 275.104L142.878 280.444C141.342 282.668 139.025 284.231 136.388 284.824C133.456 285.4 130.477 285.708 127.488 285.744C127.488 285.744 126.348 280.034 127.038 279.344C127.728 278.654 127.948 275.924 127.948 275.924L133.878 224.104L150.998 223.654Z" fill="#C6B5DD" stroke="#263238" stroke-linecap="round" stroke-linejoin="round"/>
<path d="M182.268 278.313C182.268 278.313 190.268 284.933 193.918 286.073C197.568 287.213 201.448 288.353 201.448 289.493C201.448 290.633 192.778 291.773 186.158 291.093C179.538 290.413 169.488 287.443 167.208 287.443C164.928 287.443 165.378 281.503 165.378 280.593C165.378 279.683 176.568 272.373 182.268 278.313Z" fill="#263238" stroke="#263238" stroke-linecap="round" stroke-linejoin="round"/>
<path d="M201.488 289.494C201.488 289.084 200.978 288.674 200.168 288.264C193.634 289.138 187.009 289.091 180.488 288.124C173.918 287.184 168.418 285.924 165.608 285.224C165.848 286.454 166.318 287.444 167.248 287.444C169.528 287.444 179.578 290.444 186.198 291.094C192.818 291.744 201.488 290.634 201.488 289.494Z" fill="white" stroke="#263238" stroke-linecap="round" stroke-linejoin="round"/>
<path d="M142.558 200.594C149.403 200.07 156.283 200.224 163.098 201.054C174.738 202.424 200.748 204.054 201.198 206.994C201.648 209.934 181.018 271.724 181.018 273.314C181.018 274.904 182.838 276.514 183.298 277.424C183.588 278.072 183.745 278.773 183.758 279.484C183.758 279.484 178.168 285.484 173.828 287.114C169.488 288.744 165.828 287.214 164.928 287.214C164.028 287.214 164.018 281.054 164.708 278.084C165.398 275.114 166.528 267.584 166.758 266.904C166.988 266.224 179.488 222.284 179.488 222.284C179.488 222.284 145.488 227.764 125.178 225.474C104.868 223.184 102.808 220.004 101.668 215.204C100.528 210.404 102.808 200.824 102.808 200.824L142.558 200.594Z" fill="#C6B5DD" stroke="#263238" stroke-linecap="round" stroke-linejoin="round"/>
<path d="M139.988 215.384C139.527 216.051 139.012 216.68 138.448 217.264" stroke="#263238" stroke-linecap="round" stroke-linejoin="round"/>
<path d="M146.208 203.104C144.896 206.39 143.383 209.593 141.678 212.694" stroke="#263238" stroke-linecap="round" stroke-linejoin="round"/>
<path d="M143.488 205.394C140.734 209.937 136.564 213.451 131.618 215.394" stroke="#263238" stroke-linecap="round" stroke-linejoin="round"/>
<path d="M195.308 217.993C196.088 217.693 196.838 217.383 197.548 217.063L195.308 217.993Z" fill="white"/>
<path d="M195.308 217.993C196.088 217.693 196.838 217.383 197.548 217.063" stroke="#263238" stroke-linecap="round" stroke-linejoin="round"/>
<path d="M179.488 222.284C183.881 221.435 188.221 220.337 192.488 218.994L179.488 222.284Z" fill="white"/>
<path d="M179.488 222.284C183.881 221.435 188.221 220.337 192.488 218.994" stroke="#263238" stroke-linecap="round" stroke-linejoin="round"/>
<path d="M205.878 146.474C206.358 144.564 207.158 144.714 206.518 144.084C205.638 143.204 204.928 144.244 202.378 145.674C199.828 147.104 197.288 148.854 197.288 148.854C197.344 148.323 197.564 147.823 197.918 147.424C198.563 146.369 198.909 145.159 198.918 143.924C198.918 142.924 198.118 143.124 197.798 144.084C197.478 145.044 194.618 146.784 194.458 147.584C194.298 148.384 193.728 151.524 193.728 151.524C192.818 152.894 192.818 159.284 192.818 159.284L174.288 173.204L164.928 184.204C164.928 184.204 169.038 190.824 171.318 189.914C173.598 189.004 174.738 188.084 180.218 183.514C184.858 179.644 196.488 161.794 196.488 161.794C198.514 160.521 200.431 159.083 202.218 157.494C204.28 155.161 205.499 152.202 205.678 149.094C205.635 148.215 205.703 147.335 205.878 146.474Z" fill="white" stroke="#263238" stroke-linecap="round" stroke-linejoin="round"/>
<path d="M120.138 125.353C120.138 125.353 121.898 118.753 129.378 120.073C136.858 121.393 142.578 127.553 143.898 129.753C145.218 131.953 119.698 128.873 119.698 128.873L120.138 125.353Z" fill="white" stroke="#263238" stroke-linecap="round" stroke-linejoin="round"/>
<path d="M163.258 182.994C163.258 182.994 161.518 184.874 163.258 187.834C164.448 189.884 166.548 191.454 170.568 190.764C174.328 190.104 179.978 180.764 179.978 174.194C179.978 167.624 175.138 167.194 173.378 168.474C171.618 169.754 163.258 182.994 163.258 182.994Z" fill="white" stroke="#263238" stroke-linecap="round" stroke-linejoin="round"/>
<path d="M123.378 124.584C123.378 124.584 105.578 133.034 103.068 134.584C100.558 136.134 98.9583 156.034 98.9583 159.464C98.9583 162.894 101.468 196.464 102.148 202.144C102.828 207.824 124.748 211.734 132.058 209.674C139.368 207.614 146.488 202.424 146.488 200.594C146.488 198.764 145.798 183.254 146.258 180.284C146.718 177.314 150.818 164.764 150.818 164.764L163.278 184.644C163.278 184.644 164.588 187.084 169.218 185.164C175.838 182.424 176.388 171.834 176.388 171.834C176.388 171.834 169.088 159.054 167.028 152.664C164.968 146.274 164.028 141.474 163.148 140.334C162.268 139.194 141.688 129.604 138.038 127.094C135.972 125.537 133.563 124.497 131.013 124.06C128.463 123.624 125.845 123.803 123.378 124.584Z" fill="white" stroke="#263238" stroke-linecap="round" stroke-linejoin="round"/>
<path d="M150.768 164.764L144.838 156.083" stroke="#263238" stroke-linecap="round" stroke-linejoin="round"/>
<path d="M149.808 163.524L139.358 158.374" stroke="#263238" stroke-linecap="round" stroke-linejoin="round"/>
<path d="M118.838 228.994L127.958 293.814C127.979 293.964 128.031 294.108 128.111 294.237C128.191 294.366 128.297 294.477 128.422 294.562C128.547 294.648 128.689 294.707 128.838 294.734C128.987 294.762 129.141 294.758 129.288 294.724C129.544 294.66 129.77 294.508 129.924 294.293C130.078 294.079 130.15 293.817 130.128 293.554L123.698 227.924L118.838 228.994Z" fill="#263238" stroke="#263238" stroke-linecap="round" stroke-linejoin="round"/>
<path d="M92.6382 229.503L77.3982 293.163C77.3633 293.311 77.3597 293.464 77.3874 293.613C77.4152 293.763 77.4738 293.904 77.5594 294.029C77.6451 294.155 77.7559 294.261 77.8848 294.34C78.0138 294.42 78.158 294.472 78.3082 294.493C78.5689 294.532 78.8349 294.474 79.0559 294.331C79.277 294.187 79.4378 293.967 79.5082 293.713L97.2082 231.933L92.6382 229.503Z" fill="#263238" stroke="#263238" stroke-linecap="round" stroke-linejoin="round"/>
<path d="M120.318 228.714L110.618 293.444C110.596 293.593 110.604 293.745 110.643 293.891C110.682 294.037 110.751 294.173 110.844 294.291C110.938 294.409 111.055 294.507 111.188 294.578C111.321 294.649 111.468 294.692 111.618 294.704C111.881 294.718 112.14 294.637 112.348 294.475C112.556 294.313 112.698 294.082 112.748 293.824L125.058 230.744L120.318 228.714Z" fill="#263238" stroke="#263238" stroke-linecap="round" stroke-linejoin="round"/>
<path d="M154.658 228.994L163.778 293.814C163.799 293.964 163.851 294.108 163.931 294.237C164.011 294.366 164.117 294.477 164.242 294.562C164.367 294.648 164.509 294.707 164.658 294.734C164.807 294.762 164.961 294.758 165.108 294.724C165.364 294.66 165.59 294.508 165.744 294.293C165.898 294.079 165.97 293.817 165.948 293.554L159.488 227.904L154.658 228.994Z" fill="#263238" stroke="#263238" stroke-linecap="round" stroke-linejoin="round"/>
<path d="M78.2083 161.724L89.3083 233.894H168.248C168.248 233.894 169.418 213.094 165.938 205.744C162.458 198.394 119.488 214.154 117.938 213.744C116.788 213.454 118.488 176.194 120.598 161.634C120.746 160.609 120.672 159.564 120.38 158.57C120.088 157.577 119.586 156.657 118.908 155.875C118.23 155.092 117.391 154.465 116.449 154.035C115.507 153.605 114.484 153.383 113.448 153.384H85.3482C84.3048 153.382 83.2735 153.608 82.3253 154.043C81.3772 154.479 80.5348 155.115 79.8562 155.908C79.1776 156.701 78.6789 157.631 78.3944 158.635C78.1099 159.639 78.0464 160.693 78.2083 161.724Z" fill="#C6B5DD" stroke="#263238" stroke-linecap="round" stroke-linejoin="round"/>
<path d="M165.938 205.744C162.458 198.394 119.488 214.154 117.938 213.744C116.788 213.454 118.488 176.194 120.598 161.634C120.783 160.622 120.742 159.582 120.479 158.587C120.215 157.593 119.736 156.669 119.075 155.881C118.415 155.093 117.588 154.46 116.655 154.027C115.722 153.595 114.705 153.373 113.676 153.379C112.648 153.384 111.633 153.616 110.704 154.058C109.775 154.499 108.955 155.141 108.302 155.935C107.65 156.73 107.18 157.659 106.927 158.656C106.674 159.653 106.644 160.694 106.838 161.704L117.938 233.874H168.248C168.248 233.874 169.418 213.094 165.938 205.744Z" fill="#263238" stroke="#263238" stroke-linecap="round" stroke-linejoin="round"/>
<path d="M205.878 146.474C205.878 146.474 204.608 147.744 202.698 149.974L205.878 146.474Z" fill="white"/>
<path d="M205.878 146.474C205.878 146.474 204.608 147.744 202.698 149.974" stroke="#263238" stroke-linecap="round" stroke-linejoin="round"/>
<path d="M205.678 149.053C205.678 149.053 204.128 152.203 203.178 153.633L205.678 149.053Z" fill="white"/>
<path d="M205.678 149.053C205.678 149.053 204.128 152.203 203.178 153.633" stroke="#263238" stroke-linecap="round" stroke-linejoin="round"/>
</svg>
