<svg width="399" height="331" viewBox="0 0 399 331" fill="none" xmlns="http://www.w3.org/2000/svg">
<path d="M116.224 44.6997L81.9569 39.9326L78.8098 62.2868L112.66 67.9332L116.224 44.6997ZM114.178 45.3198L97.3873 53.4007L83.7156 41.0897L114.178 45.3198ZM79.8187 61.5463L82.6604 41.3303L97.23 54.4559L115.132 45.8474L111.901 66.9057L79.8187 61.5463Z" fill="#C6B5DD"/>
<path opacity="0.6" d="M116.224 44.6997L81.9569 39.9326L78.8098 62.2868L112.66 67.9332L116.224 44.6997ZM114.178 45.3198L97.3873 53.4007L83.7156 41.0897L114.178 45.3198ZM79.8187 61.5463L82.6604 41.3303L97.23 54.4559L115.132 45.8474L111.901 66.9057L79.8187 61.5463Z" fill="white"/>
<path d="M284.468 23.4932L256.292 48.1429L292.558 91.8146L292.845 92.1663L322.512 66.8593L284.468 23.4932ZM320.559 65.9892L289.069 57.4734L285.051 25.5203L320.559 65.9892ZM257.532 48.2447L284.079 25.0205L288.245 58.1769L320.929 67.0167L292.947 90.8889L257.532 48.2447Z" fill="#C6B5DD"/>
<path opacity="0.6" d="M284.468 23.4932L256.292 48.1429L292.558 91.8146L292.845 92.1663L322.512 66.8593L284.468 23.4932ZM320.559 65.9892L289.069 57.4734L285.051 25.5203L320.559 65.9892ZM257.532 48.2447L284.079 25.0205L288.245 58.1769L320.929 67.0167L292.947 90.8889L257.532 48.2447Z" fill="white"/>
<path d="M34.1847 150.926C34.1754 150.926 34.1754 150.926 34.1847 150.926C33.9255 150.917 33.7311 150.713 33.7404 150.472C33.7497 149.871 33.7682 149.278 33.7774 148.677C33.7867 148.427 33.9718 148.242 34.2402 148.242C34.4902 148.251 34.6846 148.455 34.6753 148.704C34.6568 149.297 34.6475 149.899 34.6383 150.491C34.6198 150.732 34.4254 150.926 34.1847 150.926ZM34.3698 144.659C34.3606 144.659 34.3606 144.659 34.3513 144.659C34.1014 144.65 33.9163 144.437 33.9255 144.197C33.9533 143.595 33.9811 143.003 34.0088 142.401C34.0181 142.151 34.231 141.966 34.4809 141.975C34.7308 141.984 34.916 142.197 34.9067 142.447C34.8789 143.04 34.8512 143.641 34.8234 144.234C34.8049 144.474 34.6105 144.659 34.3698 144.659ZM34.7308 138.411C34.7216 138.411 34.7123 138.411 34.7031 138.411C34.4531 138.393 34.268 138.18 34.2865 137.93C34.3236 137.338 34.3698 136.736 34.4161 136.144C34.4346 135.894 34.6383 135.708 34.8974 135.736C35.1474 135.755 35.3325 135.968 35.3047 136.218C35.2584 136.81 35.2122 137.402 35.1751 137.995C35.1566 138.226 34.9622 138.411 34.7308 138.411ZM35.2492 132.163C35.2307 132.163 35.2214 132.163 35.2029 132.163C34.953 132.135 34.7771 131.923 34.8049 131.673C34.8604 131.08 34.9252 130.488 34.99 129.886C35.0178 129.636 35.2307 129.46 35.4806 129.488C35.7305 129.516 35.9064 129.738 35.8786 129.979C35.8138 130.571 35.7583 131.164 35.6935 131.756C35.675 131.997 35.4806 132.163 35.2492 132.163ZM35.9527 125.943C35.9342 125.943 35.9157 125.943 35.8971 125.943C35.6565 125.915 35.4806 125.684 35.5084 125.443C35.5824 124.851 35.6657 124.258 35.7398 123.666C35.7768 123.425 35.999 123.249 36.2396 123.286C36.4803 123.323 36.6562 123.546 36.6191 123.786C36.5358 124.379 36.4618 124.962 36.3877 125.554C36.3692 125.776 36.1748 125.943 35.9527 125.943ZM36.8413 119.741C36.8135 119.741 36.795 119.741 36.7672 119.732C36.5266 119.695 36.36 119.464 36.397 119.223C36.4895 118.63 36.5821 118.038 36.6839 117.455C36.721 117.214 36.9524 117.048 37.2023 117.085C37.443 117.122 37.6096 117.353 37.5725 117.603C37.4707 118.186 37.3782 118.779 37.2856 119.362C37.2393 119.584 37.0542 119.741 36.8413 119.741ZM37.915 113.567C37.8873 113.567 37.8595 113.567 37.8317 113.558C37.5911 113.512 37.4337 113.28 37.48 113.03C37.5911 112.438 37.7021 111.855 37.8225 111.272C37.8688 111.031 38.1094 110.874 38.3501 110.92C38.5908 110.966 38.7481 111.207 38.7018 111.447C38.5815 112.031 38.4704 112.614 38.3593 113.197C38.3131 113.419 38.1187 113.567 37.915 113.567ZM39.1832 107.43C39.1554 107.43 39.1184 107.43 39.0813 107.421C38.8407 107.365 38.6926 107.125 38.7389 106.884C38.8684 106.301 39.0073 105.718 39.1369 105.135C39.1924 104.894 39.4331 104.746 39.6737 104.801C39.9144 104.857 40.0625 105.098 40.007 105.338C39.8681 105.921 39.7385 106.495 39.609 107.078C39.5719 107.291 39.3868 107.43 39.1832 107.43ZM40.6549 101.349C40.6179 101.349 40.5809 101.34 40.5438 101.33C40.3032 101.265 40.1643 101.025 40.2199 100.784C40.368 100.201 40.5253 99.6271 40.6827 99.0532C40.7475 98.8125 40.9974 98.6737 41.2288 98.7385C41.4695 98.8032 41.6083 99.0532 41.5435 99.2846C41.3862 99.8585 41.2381 100.432 41.0807 101.006C41.0344 101.219 40.8586 101.349 40.6549 101.349ZM42.3488 95.3136C42.3026 95.3136 42.2655 95.3043 42.2193 95.2951C41.9786 95.221 41.849 94.9711 41.9231 94.7397C42.0989 94.1658 42.2655 93.5919 42.4507 93.0273C42.5247 92.7959 42.7746 92.657 43.0153 92.7311C43.256 92.8051 43.3856 93.055 43.3115 93.2957C43.1356 93.8603 42.9598 94.4342 42.7931 94.9989C42.7191 95.1933 42.534 95.3136 42.3488 95.3136ZM44.2464 89.3525C44.2001 89.3525 44.1538 89.3432 44.0983 89.3247C43.8669 89.2414 43.7373 88.9915 43.8206 88.7601C44.015 88.1954 44.2094 87.6308 44.4038 87.0661C44.4871 86.8347 44.737 86.7144 44.9777 86.7885C45.2091 86.8718 45.3294 87.1217 45.2554 87.3624C45.061 87.927 44.8666 88.4824 44.6722 89.047C44.6074 89.2321 44.4408 89.3525 44.2464 89.3525ZM46.3754 83.4562C46.3198 83.4562 46.2643 83.4469 46.218 83.4284C45.9866 83.3358 45.8755 83.0859 45.9588 82.8545C46.1717 82.2991 46.3939 81.7345 46.6068 81.1791C46.6993 80.9477 46.9585 80.8366 47.1899 80.9292C47.4213 81.0217 47.5324 81.2809 47.4399 81.5123C47.2177 82.0677 47.0048 82.6231 46.7919 83.1785C46.7271 83.3451 46.5605 83.4562 46.3754 83.4562ZM48.7357 77.6524C48.6802 77.6524 48.6154 77.6431 48.5599 77.6154C48.3285 77.5135 48.2267 77.2544 48.3285 77.023C48.5691 76.4768 48.8005 75.9214 49.0505 75.3753C49.1523 75.1532 49.4115 75.0514 49.6429 75.1439C49.865 75.2457 49.9669 75.5049 49.8743 75.7363C49.6336 76.2824 49.393 76.8286 49.1615 77.3747C49.069 77.5506 48.9116 77.6524 48.7357 77.6524ZM51.3275 71.9505C51.2627 71.9505 51.198 71.9319 51.1332 71.9042C50.911 71.7931 50.8184 71.5339 50.9203 71.3118C51.1794 70.7749 51.4386 70.2288 51.7071 69.6919C51.8181 69.4697 52.0866 69.3772 52.3087 69.4883C52.5309 69.5993 52.6234 69.8678 52.5124 70.0899C52.2532 70.6268 51.9847 71.1637 51.7348 71.7005C51.6515 71.8486 51.4942 71.9505 51.3275 71.9505ZM54.1507 66.3503C54.0767 66.3503 54.0119 66.3318 53.9378 66.2948C53.7157 66.1745 53.6324 65.906 53.7527 65.6932C54.0304 65.1655 54.3174 64.6379 54.6043 64.1103C54.7246 63.8974 54.9931 63.8141 55.2152 63.9344C55.4281 64.0548 55.5114 64.3232 55.3911 64.5453C55.1041 65.0637 54.8265 65.5913 54.5395 66.1189C54.4655 66.267 54.3081 66.3503 54.1507 66.3503ZM57.2146 60.8891C57.1406 60.8891 57.0572 60.8706 56.9832 60.8243C56.7703 60.6947 56.6962 60.4263 56.8258 60.2134C57.1313 59.695 57.4368 59.1859 57.7515 58.6768C57.8811 58.4639 58.1588 58.3991 58.3624 58.5287C58.5753 58.6583 58.6401 58.936 58.5105 59.1396C58.1958 59.6487 57.8903 60.1578 57.5941 60.6669C57.5201 60.8058 57.3627 60.8891 57.2146 60.8891ZM60.5376 55.5667C60.4543 55.5667 60.371 55.5389 60.2877 55.4926C60.0841 55.3538 60.0285 55.0761 60.1581 54.8724C60.4914 54.3726 60.8246 53.8727 61.1578 53.3821C61.2967 53.1785 61.5744 53.123 61.778 53.2618C61.9816 53.4007 62.0372 53.6784 61.8983 53.882C61.5651 54.3726 61.2319 54.8724 60.9079 55.363C60.8246 55.5019 60.6857 55.5667 60.5376 55.5667ZM64.1106 50.4201C64.018 50.4201 63.9255 50.3923 63.8514 50.3368C63.6478 50.1887 63.6108 49.911 63.7496 49.7074C64.1014 49.226 64.4624 48.7447 64.8141 48.2634C64.9622 48.069 65.2399 48.0227 65.4435 48.1708C65.6379 48.3189 65.6842 48.5966 65.5361 48.8002C65.1751 49.2723 64.8234 49.7536 64.4716 50.235C64.379 50.3553 64.2495 50.4201 64.1106 50.4201ZM67.915 45.4402C67.8132 45.4402 67.7206 45.4031 67.6373 45.3383C67.4429 45.181 67.4151 44.9033 67.5725 44.7089C67.952 44.2368 68.3223 43.774 68.711 43.3112C68.8684 43.1168 69.1461 43.089 69.3405 43.2557C69.5349 43.413 69.5626 43.6907 69.396 43.8851C69.0165 44.3479 68.6462 44.8015 68.2667 45.2736C68.1742 45.3846 68.0446 45.4402 67.915 45.4402ZM71.9508 40.6454C71.849 40.6454 71.7379 40.6083 71.6546 40.5343C71.4694 40.3677 71.4509 40.09 71.6175 39.9049C72.0156 39.4605 72.4136 39.007 72.8209 38.5627C72.9875 38.3775 73.2744 38.3683 73.4503 38.5349C73.6354 38.7015 73.6447 38.9885 73.4781 39.1643C73.0801 39.5994 72.682 40.0437 72.284 40.4973C72.2007 40.5991 72.0804 40.6454 71.9508 40.6454ZM267.964 39.1829C267.909 39.1829 267.853 39.1736 267.797 39.1458C267.242 38.9237 266.687 38.6923 266.141 38.4701C265.909 38.3775 265.807 38.1184 265.9 37.887C265.992 37.6555 266.261 37.5537 266.483 37.6463C267.029 37.8684 267.585 38.0999 268.14 38.322C268.371 38.4146 268.482 38.6737 268.39 38.9052C268.316 39.081 268.149 39.1829 267.964 39.1829ZM262.179 36.7762C262.123 36.7762 262.059 36.7669 262.003 36.7392L260.355 36.0357C260.124 35.9339 260.022 35.6747 260.124 35.4433C260.226 35.2119 260.485 35.11 260.716 35.2119L262.364 35.9153C262.595 36.0079 262.697 36.2763 262.605 36.4985C262.521 36.6744 262.355 36.7762 262.179 36.7762ZM76.218 36.0542C76.1069 36.0542 75.9958 36.0079 75.9033 35.9246C75.7274 35.7487 75.7181 35.471 75.894 35.2952C76.3105 34.8694 76.7363 34.4436 77.1529 34.0178C77.3287 33.8419 77.6064 33.8419 77.7823 34.0178C77.9582 34.1937 77.9582 34.4714 77.7823 34.6472C77.3658 35.0638 76.94 35.4895 76.5327 35.9153C76.4494 36.0079 76.329 36.0542 76.218 36.0542ZM256.431 34.2955C256.366 34.2955 256.31 34.2862 256.255 34.2584L254.616 33.5364C254.394 33.4346 254.292 33.1755 254.385 32.944C254.487 32.7219 254.746 32.6201 254.977 32.7126L256.616 33.4346C256.838 33.5364 256.949 33.7956 256.847 34.027C256.773 34.1937 256.606 34.2955 256.431 34.2955ZM250.71 31.7407C250.645 31.7407 250.59 31.7315 250.525 31.7037L248.896 30.9632C248.674 30.8614 248.572 30.5929 248.674 30.3708C248.776 30.1486 249.044 30.0468 249.266 30.1486L250.895 30.8891C251.117 30.9909 251.219 31.2594 251.117 31.4815C251.043 31.6389 250.886 31.7407 250.71 31.7407ZM80.6888 31.6759C80.5685 31.6759 80.4481 31.6296 80.3648 31.5371C80.1982 31.3612 80.2075 31.0743 80.3833 30.9076C80.8184 30.5004 81.2627 30.0931 81.707 29.6951C81.8921 29.5284 82.1698 29.547 82.3364 29.7228C82.5031 29.908 82.4846 30.1856 82.3087 30.3523C81.8644 30.7503 81.4293 31.1576 80.9943 31.5556C80.911 31.6389 80.7999 31.6759 80.6888 31.6759ZM245.008 29.1489C244.943 29.1489 244.879 29.1397 244.823 29.1119L243.194 28.3621C242.972 28.2603 242.87 27.9919 242.972 27.7697C243.074 27.5476 243.342 27.4457 243.564 27.5476L245.193 28.2973C245.416 28.3992 245.517 28.6676 245.416 28.8897C245.341 29.0471 245.175 29.1489 245.008 29.1489ZM85.3725 27.5198C85.243 27.5198 85.1226 27.4643 85.0301 27.3624C84.8727 27.1773 84.8912 26.8904 85.0856 26.733C85.5392 26.3442 86.002 25.9647 86.4648 25.5852C86.6592 25.4279 86.9369 25.4556 87.0942 25.65C87.2516 25.8444 87.2238 26.1221 87.0294 26.2794C86.5666 26.659 86.1131 27.0385 85.6595 27.418C85.5762 27.4828 85.4744 27.5198 85.3725 27.5198ZM239.316 26.5294C239.251 26.5294 239.186 26.5201 239.13 26.4923L237.501 25.7426C237.279 25.6408 237.177 25.3723 237.279 25.1502C237.381 24.928 237.649 24.8262 237.872 24.928L239.501 25.6778C239.723 25.7796 239.825 26.048 239.723 26.2702C239.64 26.4368 239.482 26.5294 239.316 26.5294ZM233.614 23.9283C233.549 23.9283 233.484 23.9191 233.428 23.8913L231.799 23.1508C231.577 23.049 231.475 22.7805 231.577 22.5584C231.679 22.3362 231.947 22.2344 232.17 22.3362L233.799 23.0767C234.021 23.1786 234.123 23.447 234.021 23.6691C233.947 23.8265 233.78 23.9283 233.614 23.9283ZM90.2599 23.6044C90.1211 23.6044 89.9915 23.5396 89.8989 23.4285C89.7508 23.2341 89.7878 22.9471 89.9822 22.799C90.4543 22.438 90.9356 22.077 91.417 21.7253C91.6113 21.5772 91.8983 21.6235 92.0464 21.8179C92.1945 22.0123 92.1482 22.2992 91.9538 22.4473C91.4725 22.799 91.0004 23.16 90.5284 23.5118C90.445 23.5673 90.3525 23.6044 90.2599 23.6044ZM227.902 21.3458C227.838 21.3458 227.782 21.3365 227.717 21.3088L226.079 20.5775C225.857 20.4757 225.755 20.2165 225.848 19.9851C225.949 19.7629 226.209 19.6611 226.44 19.7537L228.078 20.4849C228.3 20.5868 228.402 20.8552 228.3 21.0774C228.236 21.2532 228.078 21.3458 227.902 21.3458ZM95.3324 19.9388C95.1936 19.9388 95.0455 19.874 94.9622 19.7444C94.8233 19.5408 94.8788 19.2631 95.0825 19.1243C95.5731 18.791 96.0729 18.4485 96.5728 18.1246C96.7764 17.9857 97.0541 18.0413 97.1929 18.2542C97.3318 18.4578 97.2763 18.7355 97.0634 18.8743C96.5728 19.1983 96.0729 19.5315 95.5823 19.8648C95.5083 19.9111 95.425 19.9388 95.3324 19.9388ZM222.173 18.8188C222.117 18.8188 222.052 18.8095 221.997 18.7818L220.358 18.0783C220.127 17.9765 220.025 17.7173 220.127 17.4859C220.22 17.2545 220.488 17.1526 220.71 17.2545L222.358 17.9672C222.589 18.069 222.691 18.3282 222.589 18.5596C222.506 18.717 222.339 18.8188 222.173 18.8188ZM100.599 16.551C100.451 16.551 100.303 16.4769 100.22 16.3381C100.09 16.1252 100.155 15.8475 100.368 15.7272C100.877 15.4124 101.395 15.107 101.914 14.8108C102.127 14.6904 102.404 14.7552 102.525 14.9681C102.645 15.181 102.58 15.4587 102.367 15.5791C101.858 15.8753 101.349 16.1807 100.84 16.4862C100.757 16.5325 100.683 16.551 100.599 16.551ZM216.406 16.3751C216.35 16.3751 216.295 16.3659 216.23 16.3381C215.684 16.1067 215.129 15.8845 214.573 15.6531C214.342 15.5605 214.231 15.3014 214.323 15.07C214.416 14.8385 214.684 14.7275 214.906 14.8293C215.462 15.0514 216.017 15.2829 216.563 15.5143C216.795 15.6068 216.897 15.8753 216.804 16.0974C216.748 16.2733 216.582 16.3751 216.406 16.3751ZM210.593 14.024C210.537 14.024 210.482 14.0147 210.426 13.9962C209.871 13.7741 209.316 13.5612 208.76 13.3483C208.529 13.2557 208.418 12.9965 208.501 12.7744C208.594 12.543 208.853 12.4319 209.084 12.5152C209.64 12.7281 210.195 12.9502 210.75 13.1631C210.982 13.2557 211.093 13.5149 211 13.7463C210.945 13.9222 210.778 14.024 210.593 14.024ZM106.042 13.4501C105.885 13.4501 105.727 13.3668 105.644 13.2094C105.524 12.9873 105.607 12.7188 105.829 12.6078C106.357 12.3208 106.884 12.0524 107.421 11.7747C107.643 11.6636 107.912 11.7469 108.023 11.9691C108.134 12.1912 108.051 12.4597 107.829 12.5707C107.301 12.8392 106.773 13.1169 106.255 13.3946C106.181 13.4316 106.107 13.4501 106.042 13.4501ZM204.734 11.8025C204.678 11.8025 204.632 11.7932 204.576 11.7747C204.021 11.571 203.456 11.3674 202.892 11.1638C202.66 11.0805 202.54 10.8213 202.623 10.5899C202.707 10.3585 202.966 10.2381 203.197 10.3214C203.762 10.5251 204.326 10.7287 204.882 10.9324C205.113 11.0157 205.234 11.2748 205.15 11.5063C205.095 11.6914 204.919 11.8025 204.734 11.8025ZM111.642 10.6639C111.476 10.6639 111.309 10.5714 111.235 10.4047C111.133 10.1826 111.226 9.91415 111.457 9.81233C112.003 9.56241 112.549 9.31248 113.095 9.07182C113.318 8.97 113.586 9.07182 113.688 9.30323C113.79 9.52538 113.688 9.79381 113.456 9.89563C112.91 10.1363 112.373 10.377 111.837 10.6269C111.772 10.6454 111.707 10.6639 111.642 10.6639ZM198.828 9.72902C198.782 9.72902 198.736 9.71976 198.689 9.70125C198.125 9.50687 197.56 9.32174 196.995 9.13661C196.764 9.06256 196.634 8.80338 196.708 8.57197C196.782 8.34056 197.032 8.21097 197.273 8.28502C197.838 8.47015 198.412 8.66454 198.976 8.84966C199.208 8.92372 199.337 9.1829 199.254 9.4143C199.189 9.60869 199.013 9.72902 198.828 9.72902ZM117.4 8.20172C117.224 8.20172 117.048 8.09064 116.983 7.91477C116.891 7.68336 117.011 7.42418 117.233 7.33162C117.788 7.10946 118.353 6.89656 118.908 6.69292C119.14 6.60962 119.399 6.72069 119.482 6.9521C119.566 7.18351 119.455 7.44269 119.223 7.526C118.668 7.72964 118.112 7.94254 117.557 8.16469C117.511 8.19246 117.455 8.20172 117.4 8.20172ZM192.858 7.81295C192.811 7.81295 192.774 7.80369 192.728 7.79444C192.154 7.61857 191.59 7.45195 191.016 7.28533C190.775 7.21128 190.645 6.97062 190.71 6.72995C190.784 6.48928 191.025 6.35969 191.266 6.42449C191.84 6.5911 192.413 6.76698 192.987 6.93359C193.228 7.00764 193.358 7.25756 193.284 7.48897C193.228 7.69262 193.052 7.81295 192.858 7.81295ZM186.832 6.10052C186.795 6.10052 186.758 6.09126 186.712 6.08201C186.138 5.92465 185.564 5.77655 184.981 5.62845C184.74 5.56365 184.592 5.32298 184.657 5.08231C184.721 4.84165 184.962 4.69355 185.203 4.75834C185.786 4.90645 186.36 5.05454 186.943 5.2119C187.184 5.2767 187.322 5.51737 187.258 5.75803C187.211 5.96167 187.026 6.10052 186.832 6.10052ZM123.296 6.09126C123.111 6.09126 122.935 5.97093 122.87 5.7858C122.796 5.55439 122.926 5.29521 123.157 5.22116C123.731 5.03603 124.296 4.86016 124.87 4.68429C125.11 4.61024 125.36 4.74908 125.425 4.98049C125.499 5.22116 125.36 5.47108 125.129 5.53588C124.564 5.71175 123.99 5.88762 123.426 6.07275C123.389 6.082 123.342 6.09126 123.296 6.09126ZM180.75 4.60099C180.713 4.60099 180.686 4.60098 180.649 4.59173C180.065 4.46214 179.482 4.33255 178.908 4.21221C178.668 4.15667 178.51 3.92526 178.566 3.6846C178.621 3.44393 178.853 3.28658 179.093 3.34212C179.677 3.46245 180.26 3.59204 180.852 3.73088C181.093 3.78642 181.241 4.02709 181.195 4.26776C181.139 4.46214 180.954 4.60099 180.75 4.60099ZM129.313 4.35106C129.109 4.35106 128.933 4.21221 128.878 4.01783C128.813 3.77716 128.961 3.5365 129.202 3.47171C129.785 3.3236 130.368 3.18476 130.951 3.04591C131.192 2.99037 131.432 3.13848 131.488 3.37914C131.543 3.61981 131.395 3.86047 131.155 3.91601C130.571 4.05485 129.998 4.1937 129.424 4.3418C129.387 4.35106 129.35 4.35106 129.313 4.35106ZM174.604 3.35137C174.576 3.35137 174.549 3.35137 174.521 3.34212C173.938 3.2403 173.345 3.13847 172.762 3.03665C172.521 2.99963 172.355 2.76822 172.392 2.5183C172.429 2.27763 172.66 2.11102 172.91 2.14804C173.503 2.24986 174.095 2.35168 174.678 2.4535C174.919 2.49979 175.085 2.73119 175.039 2.97186C175.002 3.20327 174.817 3.35137 174.604 3.35137ZM135.431 2.99963C135.218 2.99963 135.033 2.85153 134.996 2.63863C134.95 2.39796 135.107 2.1573 135.357 2.12027C135.949 2.0092 136.542 1.90737 137.134 1.80555C137.384 1.76853 137.606 1.92589 137.653 2.17581C137.69 2.41648 137.532 2.64788 137.282 2.69416C136.699 2.79599 136.107 2.89781 135.524 3.00889C135.487 2.99963 135.459 2.99963 135.431 2.99963ZM168.412 2.37945C168.393 2.37945 168.375 2.37945 168.356 2.37945C167.764 2.3054 167.181 2.23135 166.588 2.1573C166.338 2.12953 166.172 1.90738 166.199 1.65745C166.227 1.41679 166.449 1.24091 166.699 1.26868C167.292 1.34273 167.884 1.41679 168.486 1.49084C168.726 1.51861 168.902 1.75002 168.874 1.99068C168.828 2.21284 168.634 2.37945 168.412 2.37945ZM141.633 2.04622C141.411 2.04622 141.216 1.87961 141.189 1.6482C141.161 1.40753 141.337 1.17612 141.577 1.14835C142.17 1.0743 142.771 1.0095 143.373 0.953966C143.623 0.935454 143.836 1.11133 143.864 1.35199C143.891 1.60191 143.706 1.81481 143.466 1.84258C142.873 1.89812 142.281 1.96291 141.688 2.03696C141.67 2.04622 141.651 2.04622 141.633 2.04622ZM162.182 1.71299C162.173 1.71299 162.154 1.71299 162.145 1.71299C161.553 1.66671 160.96 1.62043 160.368 1.5834C160.118 1.56489 159.933 1.35199 159.951 1.11132C159.97 0.861401 160.183 0.685532 160.423 0.694789C161.025 0.731814 161.617 0.778096 162.219 0.824378C162.469 0.84289 162.645 1.05578 162.626 1.30571C162.617 1.53712 162.413 1.71299 162.182 1.71299ZM147.881 1.50935C147.65 1.50935 147.446 1.32422 147.437 1.08356C147.427 0.833633 147.613 0.629994 147.862 0.611481C148.464 0.583712 149.057 0.555943 149.658 0.528173C149.917 0.509661 150.112 0.713302 150.121 0.963225C150.13 1.21315 149.936 1.41679 149.686 1.42604C149.094 1.44456 148.501 1.47232 147.909 1.50935C147.89 1.50935 147.881 1.50935 147.881 1.50935ZM155.934 1.38902H155.925C155.332 1.3705 154.74 1.36125 154.138 1.36125C153.888 1.36125 153.694 1.1576 153.694 0.907682C153.694 0.657759 153.898 0.463379 154.138 0.463379C154.74 0.463379 155.332 0.472634 155.934 0.491147C156.184 0.500403 156.378 0.704042 156.369 0.944708C156.369 1.19463 156.175 1.38902 155.934 1.38902Z" fill="#C6B5DD"/>
<path opacity="0.6" d="M34.1847 150.926C34.1754 150.926 34.1754 150.926 34.1847 150.926C33.9255 150.917 33.7311 150.713 33.7404 150.472C33.7497 149.871 33.7682 149.278 33.7774 148.677C33.7867 148.427 33.9718 148.242 34.2402 148.242C34.4902 148.251 34.6846 148.455 34.6753 148.704C34.6568 149.297 34.6475 149.899 34.6383 150.491C34.6198 150.732 34.4254 150.926 34.1847 150.926ZM34.3698 144.659C34.3606 144.659 34.3606 144.659 34.3513 144.659C34.1014 144.65 33.9163 144.437 33.9255 144.197C33.9533 143.595 33.9811 143.003 34.0088 142.401C34.0181 142.151 34.231 141.966 34.4809 141.975C34.7308 141.984 34.916 142.197 34.9067 142.447C34.8789 143.04 34.8512 143.641 34.8234 144.234C34.8049 144.474 34.6105 144.659 34.3698 144.659ZM34.7308 138.411C34.7216 138.411 34.7123 138.411 34.7031 138.411C34.4531 138.393 34.268 138.18 34.2865 137.93C34.3236 137.338 34.3698 136.736 34.4161 136.144C34.4346 135.894 34.6383 135.708 34.8974 135.736C35.1474 135.755 35.3325 135.968 35.3047 136.218C35.2584 136.81 35.2122 137.402 35.1751 137.995C35.1566 138.226 34.9622 138.411 34.7308 138.411ZM35.2492 132.163C35.2307 132.163 35.2214 132.163 35.2029 132.163C34.953 132.135 34.7771 131.923 34.8049 131.673C34.8604 131.08 34.9252 130.488 34.99 129.886C35.0178 129.636 35.2307 129.46 35.4806 129.488C35.7305 129.516 35.9064 129.738 35.8786 129.979C35.8138 130.571 35.7583 131.164 35.6935 131.756C35.675 131.997 35.4806 132.163 35.2492 132.163ZM35.9527 125.943C35.9342 125.943 35.9157 125.943 35.8971 125.943C35.6565 125.915 35.4806 125.684 35.5084 125.443C35.5824 124.851 35.6657 124.258 35.7398 123.666C35.7768 123.425 35.999 123.249 36.2396 123.286C36.4803 123.323 36.6562 123.546 36.6191 123.786C36.5358 124.379 36.4618 124.962 36.3877 125.554C36.3692 125.776 36.1748 125.943 35.9527 125.943ZM36.8413 119.741C36.8135 119.741 36.795 119.741 36.7672 119.732C36.5266 119.695 36.36 119.464 36.397 119.223C36.4895 118.63 36.5821 118.038 36.6839 117.455C36.721 117.214 36.9524 117.048 37.2023 117.085C37.443 117.122 37.6096 117.353 37.5725 117.603C37.4707 118.186 37.3782 118.779 37.2856 119.362C37.2393 119.584 37.0542 119.741 36.8413 119.741ZM37.915 113.567C37.8873 113.567 37.8595 113.567 37.8317 113.558C37.5911 113.512 37.4337 113.28 37.48 113.03C37.5911 112.438 37.7021 111.855 37.8225 111.272C37.8688 111.031 38.1094 110.874 38.3501 110.92C38.5908 110.966 38.7481 111.207 38.7018 111.447C38.5815 112.031 38.4704 112.614 38.3593 113.197C38.3131 113.419 38.1187 113.567 37.915 113.567ZM39.1832 107.43C39.1554 107.43 39.1184 107.43 39.0813 107.421C38.8407 107.365 38.6926 107.125 38.7389 106.884C38.8684 106.301 39.0073 105.718 39.1369 105.135C39.1924 104.894 39.4331 104.746 39.6737 104.801C39.9144 104.857 40.0625 105.098 40.007 105.338C39.8681 105.921 39.7385 106.495 39.609 107.078C39.5719 107.291 39.3868 107.43 39.1832 107.43ZM40.6549 101.349C40.6179 101.349 40.5809 101.34 40.5438 101.33C40.3032 101.265 40.1643 101.025 40.2199 100.784C40.368 100.201 40.5253 99.6271 40.6827 99.0532C40.7475 98.8125 40.9974 98.6737 41.2288 98.7385C41.4695 98.8032 41.6083 99.0532 41.5435 99.2846C41.3862 99.8585 41.2381 100.432 41.0807 101.006C41.0344 101.219 40.8586 101.349 40.6549 101.349ZM42.3488 95.3136C42.3026 95.3136 42.2655 95.3043 42.2193 95.2951C41.9786 95.221 41.849 94.9711 41.9231 94.7397C42.0989 94.1658 42.2655 93.5919 42.4507 93.0273C42.5247 92.7959 42.7746 92.657 43.0153 92.7311C43.256 92.8051 43.3856 93.055 43.3115 93.2957C43.1356 93.8603 42.9598 94.4342 42.7931 94.9989C42.7191 95.1933 42.534 95.3136 42.3488 95.3136ZM44.2464 89.3525C44.2001 89.3525 44.1538 89.3432 44.0983 89.3247C43.8669 89.2414 43.7373 88.9915 43.8206 88.7601C44.015 88.1954 44.2094 87.6308 44.4038 87.0661C44.4871 86.8347 44.737 86.7144 44.9777 86.7885C45.2091 86.8718 45.3294 87.1217 45.2554 87.3624C45.061 87.927 44.8666 88.4824 44.6722 89.047C44.6074 89.2321 44.4408 89.3525 44.2464 89.3525ZM46.3754 83.4562C46.3198 83.4562 46.2643 83.4469 46.218 83.4284C45.9866 83.3358 45.8755 83.0859 45.9588 82.8545C46.1717 82.2991 46.3939 81.7345 46.6068 81.1791C46.6993 80.9477 46.9585 80.8366 47.1899 80.9292C47.4213 81.0217 47.5324 81.2809 47.4399 81.5123C47.2177 82.0677 47.0048 82.6231 46.7919 83.1785C46.7271 83.3451 46.5605 83.4562 46.3754 83.4562ZM48.7357 77.6524C48.6802 77.6524 48.6154 77.6431 48.5599 77.6154C48.3285 77.5135 48.2267 77.2544 48.3285 77.023C48.5691 76.4768 48.8005 75.9214 49.0505 75.3753C49.1523 75.1532 49.4115 75.0514 49.6429 75.1439C49.865 75.2457 49.9669 75.5049 49.8743 75.7363C49.6336 76.2824 49.393 76.8286 49.1615 77.3747C49.069 77.5506 48.9116 77.6524 48.7357 77.6524ZM51.3275 71.9505C51.2627 71.9505 51.198 71.9319 51.1332 71.9042C50.911 71.7931 50.8184 71.5339 50.9203 71.3118C51.1794 70.7749 51.4386 70.2288 51.7071 69.6919C51.8181 69.4697 52.0866 69.3772 52.3087 69.4883C52.5309 69.5993 52.6234 69.8678 52.5124 70.0899C52.2532 70.6268 51.9847 71.1637 51.7348 71.7005C51.6515 71.8486 51.4942 71.9505 51.3275 71.9505ZM54.1507 66.3503C54.0767 66.3503 54.0119 66.3318 53.9378 66.2948C53.7157 66.1745 53.6324 65.906 53.7527 65.6932C54.0304 65.1655 54.3174 64.6379 54.6043 64.1103C54.7246 63.8974 54.9931 63.8141 55.2152 63.9344C55.4281 64.0548 55.5114 64.3232 55.3911 64.5453C55.1041 65.0637 54.8265 65.5913 54.5395 66.1189C54.4655 66.267 54.3081 66.3503 54.1507 66.3503ZM57.2146 60.8891C57.1406 60.8891 57.0572 60.8706 56.9832 60.8243C56.7703 60.6947 56.6962 60.4263 56.8258 60.2134C57.1313 59.695 57.4368 59.1859 57.7515 58.6768C57.8811 58.4639 58.1588 58.3991 58.3624 58.5287C58.5753 58.6583 58.6401 58.936 58.5105 59.1396C58.1958 59.6487 57.8903 60.1578 57.5941 60.6669C57.5201 60.8058 57.3627 60.8891 57.2146 60.8891ZM60.5376 55.5667C60.4543 55.5667 60.371 55.5389 60.2877 55.4926C60.0841 55.3538 60.0285 55.0761 60.1581 54.8724C60.4914 54.3726 60.8246 53.8727 61.1578 53.3821C61.2967 53.1785 61.5744 53.123 61.778 53.2618C61.9816 53.4007 62.0372 53.6784 61.8983 53.882C61.5651 54.3726 61.2319 54.8724 60.9079 55.363C60.8246 55.5019 60.6857 55.5667 60.5376 55.5667ZM64.1106 50.4201C64.018 50.4201 63.9255 50.3923 63.8514 50.3368C63.6478 50.1887 63.6108 49.911 63.7496 49.7074C64.1014 49.226 64.4624 48.7447 64.8141 48.2634C64.9622 48.069 65.2399 48.0227 65.4435 48.1708C65.6379 48.3189 65.6842 48.5966 65.5361 48.8002C65.1751 49.2723 64.8234 49.7536 64.4716 50.235C64.379 50.3553 64.2495 50.4201 64.1106 50.4201ZM67.915 45.4402C67.8132 45.4402 67.7206 45.4031 67.6373 45.3383C67.4429 45.181 67.4151 44.9033 67.5725 44.7089C67.952 44.2368 68.3223 43.774 68.711 43.3112C68.8684 43.1168 69.1461 43.089 69.3405 43.2557C69.5349 43.413 69.5626 43.6907 69.396 43.8851C69.0165 44.3479 68.6462 44.8015 68.2667 45.2736C68.1742 45.3846 68.0446 45.4402 67.915 45.4402ZM71.9508 40.6454C71.849 40.6454 71.7379 40.6083 71.6546 40.5343C71.4694 40.3677 71.4509 40.09 71.6175 39.9049C72.0156 39.4605 72.4136 39.007 72.8209 38.5627C72.9875 38.3775 73.2744 38.3683 73.4503 38.5349C73.6354 38.7015 73.6447 38.9885 73.4781 39.1643C73.0801 39.5994 72.682 40.0437 72.284 40.4973C72.2007 40.5991 72.0804 40.6454 71.9508 40.6454ZM267.964 39.1829C267.909 39.1829 267.853 39.1736 267.797 39.1458C267.242 38.9237 266.687 38.6923 266.141 38.4701C265.909 38.3775 265.807 38.1184 265.9 37.887C265.992 37.6555 266.261 37.5537 266.483 37.6463C267.029 37.8684 267.585 38.0999 268.14 38.322C268.371 38.4146 268.482 38.6737 268.39 38.9052C268.316 39.081 268.149 39.1829 267.964 39.1829ZM262.179 36.7762C262.123 36.7762 262.059 36.7669 262.003 36.7392L260.355 36.0357C260.124 35.9339 260.022 35.6747 260.124 35.4433C260.226 35.2119 260.485 35.11 260.716 35.2119L262.364 35.9153C262.595 36.0079 262.697 36.2763 262.605 36.4985C262.521 36.6744 262.355 36.7762 262.179 36.7762ZM76.218 36.0542C76.1069 36.0542 75.9958 36.0079 75.9033 35.9246C75.7274 35.7487 75.7181 35.471 75.894 35.2952C76.3105 34.8694 76.7363 34.4436 77.1529 34.0178C77.3287 33.8419 77.6064 33.8419 77.7823 34.0178C77.9582 34.1937 77.9582 34.4714 77.7823 34.6472C77.3658 35.0638 76.94 35.4895 76.5327 35.9153C76.4494 36.0079 76.329 36.0542 76.218 36.0542ZM256.431 34.2955C256.366 34.2955 256.31 34.2862 256.255 34.2584L254.616 33.5364C254.394 33.4346 254.292 33.1755 254.385 32.944C254.487 32.7219 254.746 32.6201 254.977 32.7126L256.616 33.4346C256.838 33.5364 256.949 33.7956 256.847 34.027C256.773 34.1937 256.606 34.2955 256.431 34.2955ZM250.71 31.7407C250.645 31.7407 250.59 31.7315 250.525 31.7037L248.896 30.9632C248.674 30.8614 248.572 30.5929 248.674 30.3708C248.776 30.1486 249.044 30.0468 249.266 30.1486L250.895 30.8891C251.117 30.9909 251.219 31.2594 251.117 31.4815C251.043 31.6389 250.886 31.7407 250.71 31.7407ZM80.6888 31.6759C80.5685 31.6759 80.4481 31.6296 80.3648 31.5371C80.1982 31.3612 80.2075 31.0743 80.3833 30.9076C80.8184 30.5004 81.2627 30.0931 81.707 29.6951C81.8921 29.5284 82.1698 29.547 82.3364 29.7228C82.5031 29.908 82.4846 30.1856 82.3087 30.3523C81.8644 30.7503 81.4293 31.1576 80.9943 31.5556C80.911 31.6389 80.7999 31.6759 80.6888 31.6759ZM245.008 29.1489C244.943 29.1489 244.879 29.1397 244.823 29.1119L243.194 28.3621C242.972 28.2603 242.87 27.9919 242.972 27.7697C243.074 27.5476 243.342 27.4457 243.564 27.5476L245.193 28.2973C245.416 28.3992 245.517 28.6676 245.416 28.8897C245.341 29.0471 245.175 29.1489 245.008 29.1489ZM85.3725 27.5198C85.243 27.5198 85.1226 27.4643 85.0301 27.3624C84.8727 27.1773 84.8912 26.8904 85.0856 26.733C85.5392 26.3442 86.002 25.9647 86.4648 25.5852C86.6592 25.4279 86.9369 25.4556 87.0942 25.65C87.2516 25.8444 87.2238 26.1221 87.0294 26.2794C86.5666 26.659 86.1131 27.0385 85.6595 27.418C85.5762 27.4828 85.4744 27.5198 85.3725 27.5198ZM239.316 26.5294C239.251 26.5294 239.186 26.5201 239.13 26.4923L237.501 25.7426C237.279 25.6408 237.177 25.3723 237.279 25.1502C237.381 24.928 237.649 24.8262 237.872 24.928L239.501 25.6778C239.723 25.7796 239.825 26.048 239.723 26.2702C239.64 26.4368 239.482 26.5294 239.316 26.5294ZM233.614 23.9283C233.549 23.9283 233.484 23.9191 233.428 23.8913L231.799 23.1508C231.577 23.049 231.475 22.7805 231.577 22.5584C231.679 22.3362 231.947 22.2344 232.17 22.3362L233.799 23.0767C234.021 23.1786 234.123 23.447 234.021 23.6691C233.947 23.8265 233.78 23.9283 233.614 23.9283ZM90.2599 23.6044C90.1211 23.6044 89.9915 23.5396 89.8989 23.4285C89.7508 23.2341 89.7878 22.9471 89.9822 22.799C90.4543 22.438 90.9356 22.077 91.417 21.7253C91.6113 21.5772 91.8983 21.6235 92.0464 21.8179C92.1945 22.0123 92.1482 22.2992 91.9538 22.4473C91.4725 22.799 91.0004 23.16 90.5284 23.5118C90.445 23.5673 90.3525 23.6044 90.2599 23.6044ZM227.902 21.3458C227.838 21.3458 227.782 21.3365 227.717 21.3088L226.079 20.5775C225.857 20.4757 225.755 20.2165 225.848 19.9851C225.949 19.7629 226.209 19.6611 226.44 19.7537L228.078 20.4849C228.3 20.5868 228.402 20.8552 228.3 21.0774C228.236 21.2532 228.078 21.3458 227.902 21.3458ZM95.3324 19.9388C95.1936 19.9388 95.0455 19.874 94.9622 19.7444C94.8233 19.5408 94.8788 19.2631 95.0825 19.1243C95.5731 18.791 96.0729 18.4485 96.5728 18.1246C96.7764 17.9857 97.0541 18.0413 97.1929 18.2542C97.3318 18.4578 97.2763 18.7355 97.0634 18.8743C96.5728 19.1983 96.0729 19.5315 95.5823 19.8648C95.5083 19.9111 95.425 19.9388 95.3324 19.9388ZM222.173 18.8188C222.117 18.8188 222.052 18.8095 221.997 18.7818L220.358 18.0783C220.127 17.9765 220.025 17.7173 220.127 17.4859C220.22 17.2545 220.488 17.1526 220.71 17.2545L222.358 17.9672C222.589 18.069 222.691 18.3282 222.589 18.5596C222.506 18.717 222.339 18.8188 222.173 18.8188ZM100.599 16.551C100.451 16.551 100.303 16.4769 100.22 16.3381C100.09 16.1252 100.155 15.8475 100.368 15.7272C100.877 15.4124 101.395 15.107 101.914 14.8108C102.127 14.6904 102.404 14.7552 102.525 14.9681C102.645 15.181 102.58 15.4587 102.367 15.5791C101.858 15.8753 101.349 16.1807 100.84 16.4862C100.757 16.5325 100.683 16.551 100.599 16.551ZM216.406 16.3751C216.35 16.3751 216.295 16.3659 216.23 16.3381C215.684 16.1067 215.129 15.8845 214.573 15.6531C214.342 15.5605 214.231 15.3014 214.323 15.07C214.416 14.8385 214.684 14.7275 214.906 14.8293C215.462 15.0514 216.017 15.2829 216.563 15.5143C216.795 15.6068 216.897 15.8753 216.804 16.0974C216.748 16.2733 216.582 16.3751 216.406 16.3751ZM210.593 14.024C210.537 14.024 210.482 14.0147 210.426 13.9962C209.871 13.7741 209.316 13.5612 208.76 13.3483C208.529 13.2557 208.418 12.9965 208.501 12.7744C208.594 12.543 208.853 12.4319 209.084 12.5152C209.64 12.7281 210.195 12.9502 210.75 13.1631C210.982 13.2557 211.093 13.5149 211 13.7463C210.945 13.9222 210.778 14.024 210.593 14.024ZM106.042 13.4501C105.885 13.4501 105.727 13.3668 105.644 13.2094C105.524 12.9873 105.607 12.7188 105.829 12.6078C106.357 12.3208 106.884 12.0524 107.421 11.7747C107.643 11.6636 107.912 11.7469 108.023 11.9691C108.134 12.1912 108.051 12.4597 107.829 12.5707C107.301 12.8392 106.773 13.1169 106.255 13.3946C106.181 13.4316 106.107 13.4501 106.042 13.4501ZM204.734 11.8025C204.678 11.8025 204.632 11.7932 204.576 11.7747C204.021 11.571 203.456 11.3674 202.892 11.1638C202.66 11.0805 202.54 10.8213 202.623 10.5899C202.707 10.3585 202.966 10.2381 203.197 10.3214C203.762 10.5251 204.326 10.7287 204.882 10.9324C205.113 11.0157 205.234 11.2748 205.15 11.5063C205.095 11.6914 204.919 11.8025 204.734 11.8025ZM111.642 10.6639C111.476 10.6639 111.309 10.5714 111.235 10.4047C111.133 10.1826 111.226 9.91415 111.457 9.81233C112.003 9.56241 112.549 9.31248 113.095 9.07182C113.318 8.97 113.586 9.07182 113.688 9.30323C113.79 9.52538 113.688 9.79381 113.456 9.89563C112.91 10.1363 112.373 10.377 111.837 10.6269C111.772 10.6454 111.707 10.6639 111.642 10.6639ZM198.828 9.72902C198.782 9.72902 198.736 9.71976 198.689 9.70125C198.125 9.50687 197.56 9.32174 196.995 9.13661C196.764 9.06256 196.634 8.80338 196.708 8.57197C196.782 8.34056 197.032 8.21097 197.273 8.28502C197.838 8.47015 198.412 8.66454 198.976 8.84966C199.208 8.92372 199.337 9.1829 199.254 9.4143C199.189 9.60869 199.013 9.72902 198.828 9.72902ZM117.4 8.20172C117.224 8.20172 117.048 8.09064 116.983 7.91477C116.891 7.68336 117.011 7.42418 117.233 7.33162C117.788 7.10946 118.353 6.89656 118.908 6.69292C119.14 6.60962 119.399 6.72069 119.482 6.9521C119.566 7.18351 119.455 7.44269 119.223 7.526C118.668 7.72964 118.112 7.94254 117.557 8.16469C117.511 8.19246 117.455 8.20172 117.4 8.20172ZM192.858 7.81295C192.811 7.81295 192.774 7.80369 192.728 7.79444C192.154 7.61857 191.59 7.45195 191.016 7.28533C190.775 7.21128 190.645 6.97062 190.71 6.72995C190.784 6.48928 191.025 6.35969 191.266 6.42449C191.84 6.5911 192.413 6.76698 192.987 6.93359C193.228 7.00764 193.358 7.25756 193.284 7.48897C193.228 7.69262 193.052 7.81295 192.858 7.81295ZM186.832 6.10052C186.795 6.10052 186.758 6.09126 186.712 6.08201C186.138 5.92465 185.564 5.77655 184.981 5.62845C184.74 5.56365 184.592 5.32298 184.657 5.08231C184.721 4.84165 184.962 4.69355 185.203 4.75834C185.786 4.90645 186.36 5.05454 186.943 5.2119C187.184 5.2767 187.322 5.51737 187.258 5.75803C187.211 5.96167 187.026 6.10052 186.832 6.10052ZM123.296 6.09126C123.111 6.09126 122.935 5.97093 122.87 5.7858C122.796 5.55439 122.926 5.29521 123.157 5.22116C123.731 5.03603 124.296 4.86016 124.87 4.68429C125.11 4.61024 125.36 4.74908 125.425 4.98049C125.499 5.22116 125.36 5.47108 125.129 5.53588C124.564 5.71175 123.99 5.88762 123.426 6.07275C123.389 6.082 123.342 6.09126 123.296 6.09126ZM180.75 4.60099C180.713 4.60099 180.686 4.60098 180.649 4.59173C180.065 4.46214 179.482 4.33255 178.908 4.21221C178.668 4.15667 178.51 3.92526 178.566 3.6846C178.621 3.44393 178.853 3.28658 179.093 3.34212C179.677 3.46245 180.26 3.59204 180.852 3.73088C181.093 3.78642 181.241 4.02709 181.195 4.26776C181.139 4.46214 180.954 4.60099 180.75 4.60099ZM129.313 4.35106C129.109 4.35106 128.933 4.21221 128.878 4.01783C128.813 3.77716 128.961 3.5365 129.202 3.47171C129.785 3.3236 130.368 3.18476 130.951 3.04591C131.192 2.99037 131.432 3.13848 131.488 3.37914C131.543 3.61981 131.395 3.86047 131.155 3.91601C130.571 4.05485 129.998 4.1937 129.424 4.3418C129.387 4.35106 129.35 4.35106 129.313 4.35106ZM174.604 3.35137C174.576 3.35137 174.549 3.35137 174.521 3.34212C173.938 3.2403 173.345 3.13847 172.762 3.03665C172.521 2.99963 172.355 2.76822 172.392 2.5183C172.429 2.27763 172.66 2.11102 172.91 2.14804C173.503 2.24986 174.095 2.35168 174.678 2.4535C174.919 2.49979 175.085 2.73119 175.039 2.97186C175.002 3.20327 174.817 3.35137 174.604 3.35137ZM135.431 2.99963C135.218 2.99963 135.033 2.85153 134.996 2.63863C134.95 2.39796 135.107 2.1573 135.357 2.12027C135.949 2.0092 136.542 1.90737 137.134 1.80555C137.384 1.76853 137.606 1.92589 137.653 2.17581C137.69 2.41648 137.532 2.64788 137.282 2.69416C136.699 2.79599 136.107 2.89781 135.524 3.00889C135.487 2.99963 135.459 2.99963 135.431 2.99963ZM168.412 2.37945C168.393 2.37945 168.375 2.37945 168.356 2.37945C167.764 2.3054 167.181 2.23135 166.588 2.1573C166.338 2.12953 166.172 1.90738 166.199 1.65745C166.227 1.41679 166.449 1.24091 166.699 1.26868C167.292 1.34273 167.884 1.41679 168.486 1.49084C168.726 1.51861 168.902 1.75002 168.874 1.99068C168.828 2.21284 168.634 2.37945 168.412 2.37945ZM141.633 2.04622C141.411 2.04622 141.216 1.87961 141.189 1.6482C141.161 1.40753 141.337 1.17612 141.577 1.14835C142.17 1.0743 142.771 1.0095 143.373 0.953966C143.623 0.935454 143.836 1.11133 143.864 1.35199C143.891 1.60191 143.706 1.81481 143.466 1.84258C142.873 1.89812 142.281 1.96291 141.688 2.03696C141.67 2.04622 141.651 2.04622 141.633 2.04622ZM162.182 1.71299C162.173 1.71299 162.154 1.71299 162.145 1.71299C161.553 1.66671 160.96 1.62043 160.368 1.5834C160.118 1.56489 159.933 1.35199 159.951 1.11132C159.97 0.861401 160.183 0.685532 160.423 0.694789C161.025 0.731814 161.617 0.778096 162.219 0.824378C162.469 0.84289 162.645 1.05578 162.626 1.30571C162.617 1.53712 162.413 1.71299 162.182 1.71299ZM147.881 1.50935C147.65 1.50935 147.446 1.32422 147.437 1.08356C147.427 0.833633 147.613 0.629994 147.862 0.611481C148.464 0.583712 149.057 0.555943 149.658 0.528173C149.917 0.509661 150.112 0.713302 150.121 0.963225C150.13 1.21315 149.936 1.41679 149.686 1.42604C149.094 1.44456 148.501 1.47232 147.909 1.50935C147.89 1.50935 147.881 1.50935 147.881 1.50935ZM155.934 1.38902H155.925C155.332 1.3705 154.74 1.36125 154.138 1.36125C153.888 1.36125 153.694 1.1576 153.694 0.907682C153.694 0.657759 153.898 0.463379 154.138 0.463379C154.74 0.463379 155.332 0.472634 155.934 0.491147C156.184 0.500403 156.378 0.704042 156.369 0.944708C156.369 1.19463 156.175 1.38902 155.934 1.38902Z" fill="white"/>
<path d="M381.744 169.078C381.679 169.078 381.614 169.059 381.549 169.031C381.327 168.92 381.235 168.652 381.346 168.43C381.605 167.893 381.864 167.356 382.114 166.819C382.225 166.597 382.484 166.495 382.706 166.606C382.928 166.708 383.03 166.977 382.919 167.199C382.669 167.745 382.41 168.282 382.142 168.819C382.068 168.985 381.91 169.078 381.744 169.078ZM384.345 163.376C384.289 163.376 384.224 163.367 384.169 163.339C383.937 163.246 383.836 162.978 383.928 162.756C384.16 162.21 384.391 161.663 384.613 161.108C384.706 160.877 384.974 160.766 385.196 160.858C385.428 160.951 385.539 161.21 385.446 161.441C385.224 161.997 384.993 162.552 384.761 163.107C384.687 163.274 384.521 163.376 384.345 163.376ZM386.622 157.535C386.575 157.535 386.52 157.526 386.474 157.507C386.242 157.424 386.122 157.165 386.205 156.933C386.409 156.378 386.603 155.813 386.788 155.249C386.862 155.017 387.122 154.888 387.353 154.971C387.584 155.054 387.714 155.304 387.631 155.536C387.436 156.1 387.242 156.665 387.038 157.23C386.973 157.424 386.807 157.535 386.622 157.535ZM388.556 151.583C388.519 151.583 388.473 151.574 388.427 151.565C388.186 151.491 388.056 151.25 388.121 151.009C388.288 150.435 388.455 149.871 388.612 149.297C388.677 149.056 388.917 148.917 389.158 148.982C389.399 149.047 389.537 149.297 389.473 149.528C389.315 150.102 389.149 150.685 388.982 151.259C388.927 151.454 388.751 151.583 388.556 151.583ZM390.139 145.52C390.102 145.52 390.074 145.52 390.037 145.511C389.797 145.455 389.649 145.215 389.704 144.974C389.834 144.391 389.963 143.817 390.084 143.234C390.13 142.993 390.371 142.836 390.611 142.891C390.852 142.938 391.009 143.178 390.954 143.419C390.833 144.002 390.704 144.595 390.565 145.178C390.528 145.372 390.343 145.52 390.139 145.52ZM391.333 139.365C391.305 139.365 391.287 139.365 391.259 139.356C391.019 139.318 390.852 139.087 390.889 138.846C390.981 138.263 391.074 137.671 391.157 137.088C391.194 136.838 391.426 136.671 391.666 136.708C391.907 136.745 392.083 136.967 392.046 137.217C391.963 137.81 391.87 138.402 391.778 138.995C391.741 139.207 391.555 139.365 391.333 139.365ZM392.139 133.154C392.12 133.154 392.111 133.154 392.092 133.154C391.842 133.135 391.666 132.913 391.685 132.663C391.741 132.071 391.796 131.478 391.833 130.886C391.852 130.636 392.064 130.451 392.314 130.469C392.564 130.488 392.749 130.701 392.731 130.951C392.685 131.552 392.638 132.145 392.583 132.746C392.564 132.978 392.37 133.154 392.139 133.154ZM392.509 126.896H392.5C392.25 126.887 392.055 126.683 392.064 126.443C392.083 125.85 392.083 125.258 392.092 124.666C392.092 124.416 392.296 124.221 392.537 124.221C392.786 124.221 392.981 124.425 392.981 124.675C392.981 125.277 392.972 125.878 392.953 126.471C392.953 126.702 392.749 126.896 392.509 126.896ZM392.435 120.639C392.194 120.639 392 120.454 391.99 120.213C391.963 119.621 391.926 119.028 391.879 118.436C391.861 118.186 392.046 117.973 392.296 117.955C392.518 117.927 392.759 118.121 392.777 118.371C392.824 118.973 392.851 119.565 392.888 120.167C392.898 120.417 392.712 120.621 392.462 120.639C392.444 120.639 392.435 120.639 392.435 120.639ZM391.879 114.4C391.657 114.4 391.463 114.234 391.435 114.012C391.361 113.419 391.278 112.836 391.194 112.253C391.157 112.012 391.324 111.781 391.574 111.744C391.805 111.716 392.046 111.873 392.083 112.123C392.176 112.716 392.259 113.308 392.333 113.91C392.361 114.15 392.194 114.382 391.944 114.41C391.916 114.391 391.898 114.4 391.879 114.4ZM390.843 108.217C390.639 108.217 390.454 108.069 390.408 107.865C390.287 107.282 390.158 106.708 390.019 106.134C389.963 105.894 390.111 105.653 390.352 105.597C390.593 105.542 390.833 105.69 390.889 105.931C391.028 106.514 391.157 107.097 391.287 107.689C391.333 107.93 391.185 108.171 390.944 108.217C390.898 108.217 390.87 108.217 390.843 108.217ZM389.278 102.154C389.084 102.154 388.908 102.034 388.853 101.839C388.677 101.275 388.501 100.71 388.316 100.145C388.242 99.914 388.362 99.6548 388.603 99.5808C388.843 99.4975 389.093 99.6271 389.167 99.8677C389.352 100.442 389.538 101.006 389.713 101.58C389.787 101.821 389.649 102.071 389.417 102.136C389.362 102.154 389.325 102.154 389.278 102.154ZM387.196 96.2485C387.02 96.2485 386.853 96.1467 386.779 95.9708C386.557 95.4247 386.335 94.8693 386.094 94.3232C386.002 94.101 386.103 93.8326 386.326 93.74C386.548 93.6382 386.816 93.7493 386.918 93.9714C387.159 94.5268 387.381 95.0729 387.612 95.6376C387.705 95.869 387.594 96.1282 387.362 96.2207C387.307 96.2392 387.251 96.2485 387.196 96.2485ZM384.622 90.5373C384.456 90.5373 384.298 90.4447 384.224 90.2874C383.956 89.7598 383.687 89.2321 383.401 88.7138C383.28 88.4916 383.363 88.2232 383.586 88.1121C383.808 87.9918 384.076 88.0751 384.197 88.2973C384.483 88.8249 384.761 89.3617 385.03 89.8986C385.141 90.1208 385.048 90.3892 384.835 90.5003C384.752 90.528 384.687 90.5373 384.622 90.5373ZM381.549 85.076C381.401 85.076 381.253 85.002 381.17 84.8631C380.855 84.3633 380.54 83.8634 380.216 83.3636C380.077 83.16 380.142 82.8823 380.346 82.7434C380.55 82.6046 380.827 82.6601 380.966 82.873C381.299 83.3729 381.623 83.882 381.938 84.3911C382.068 84.604 382.003 84.8816 381.79 85.0112C381.716 85.0575 381.633 85.076 381.549 85.076ZM378.013 79.911C377.874 79.911 377.745 79.8462 377.652 79.7351C377.291 79.263 376.93 78.7909 376.56 78.3281C376.403 78.1337 376.44 77.856 376.634 77.6987C376.828 77.5413 377.106 77.5784 377.264 77.7727C377.643 78.2448 378.004 78.7169 378.365 79.1982C378.513 79.3926 378.476 79.6796 378.272 79.8277C378.198 79.8832 378.106 79.911 378.013 79.911ZM374.015 75.0884C373.894 75.0884 373.774 75.0421 373.681 74.9403C373.283 74.5052 372.876 74.0702 372.459 73.6444C372.284 73.4685 372.293 73.1816 372.469 73.015C372.645 72.8391 372.932 72.8483 373.098 73.0242C373.515 73.4593 373.922 73.8943 374.329 74.3386C374.496 74.5237 374.487 74.8014 374.301 74.9681C374.227 75.0514 374.116 75.0884 374.015 75.0884ZM369.571 70.6731C369.46 70.6731 369.359 70.6361 369.275 70.562C368.831 70.164 368.387 69.7752 367.933 69.3957C367.748 69.2383 367.72 68.9514 367.878 68.7663C368.035 68.5811 368.322 68.5534 368.507 68.7107C368.961 69.0995 369.414 69.4975 369.868 69.8955C370.053 70.0622 370.071 70.3399 369.905 70.525C369.812 70.6268 369.692 70.6731 369.571 70.6731ZM364.703 66.7299C364.61 66.7299 364.517 66.7021 364.443 66.6466C363.962 66.2948 363.481 65.9616 362.99 65.6283C362.787 65.4895 362.731 65.2118 362.87 65.0082C363.009 64.8045 363.286 64.749 363.49 64.8878C363.99 65.2303 364.48 65.5728 364.962 65.9246C365.165 66.0727 365.202 66.3503 365.064 66.554C364.98 66.6651 364.841 66.7299 364.703 66.7299ZM359.454 63.3235C359.38 63.3235 359.306 63.305 359.232 63.268C358.723 62.9718 358.205 62.6848 357.677 62.4071C357.455 62.2868 357.381 62.0184 357.492 61.8055C357.612 61.5833 357.881 61.5093 358.094 61.6203C358.621 61.9073 359.149 62.1942 359.667 62.4904C359.88 62.6108 359.954 62.8885 359.834 63.1014C359.76 63.2495 359.602 63.3235 359.454 63.3235ZM353.854 60.5188C353.789 60.5188 353.734 60.5096 353.678 60.4818C353.132 60.2411 352.586 60.019 352.04 59.7968C351.808 59.7043 351.697 59.4451 351.79 59.2137C351.883 58.9823 352.142 58.8712 352.373 58.9638C352.928 59.1859 353.484 59.4173 354.039 59.658C354.261 59.7598 354.372 60.019 354.271 60.2504C354.187 60.417 354.03 60.5188 353.854 60.5188ZM347.995 58.2973C347.949 58.2973 347.902 58.288 347.856 58.2788C347.291 58.0937 346.727 57.9178 346.162 57.7419C345.921 57.6679 345.792 57.4179 345.866 57.1865C345.94 56.9551 346.19 56.8163 346.421 56.8903C346.995 57.0662 347.569 57.2421 348.143 57.4272C348.374 57.5012 348.504 57.7604 348.43 57.9918C348.365 58.177 348.189 58.2973 347.995 58.2973ZM341.978 56.5756C341.941 56.5756 341.904 56.5756 341.867 56.5663C341.293 56.4275 340.71 56.2887 340.136 56.1498C339.895 56.0943 339.747 55.8536 339.803 55.6129C339.858 55.3723 340.099 55.2242 340.34 55.2797C340.923 55.4093 341.506 55.5481 342.089 55.6962C342.33 55.7518 342.478 56.0017 342.413 56.2424C342.358 56.4368 342.182 56.5756 341.978 56.5756ZM335.86 55.2519C335.832 55.2519 335.804 55.2519 335.776 55.2427C335.193 55.1316 334.61 55.0298 334.018 54.9187C333.777 54.8724 333.61 54.641 333.657 54.4004C333.703 54.1597 333.934 53.9931 334.175 54.0394C334.767 54.1412 335.351 54.2522 335.943 54.3633C336.184 54.4096 336.35 54.641 336.304 54.8817C336.258 55.1038 336.073 55.2519 335.86 55.2519ZM329.686 54.206C329.667 54.206 329.639 54.206 329.621 54.1967C329.028 54.1041 328.445 54.0208 327.853 53.9375C327.612 53.9005 327.436 53.6784 327.473 53.4284C327.51 53.1785 327.751 53.0119 327.983 53.0489C328.575 53.1322 329.167 53.2248 329.76 53.3081C330 53.3451 330.176 53.5765 330.139 53.8172C330.093 54.0486 329.899 54.206 329.686 54.206ZM323.475 53.3359C323.456 53.3359 323.438 53.3359 323.41 53.3359L321.633 53.0952C321.392 53.0674 321.216 52.836 321.244 52.5954C321.272 52.3454 321.503 52.1788 321.744 52.2066L323.521 52.438C323.762 52.475 323.937 52.6972 323.9 52.9378C323.891 53.1692 323.697 53.3359 323.475 53.3359ZM317.264 52.512C317.245 52.512 317.227 52.512 317.199 52.512L315.422 52.2714C315.172 52.2344 315.005 52.0122 315.042 51.7715C315.079 51.5309 315.301 51.355 315.542 51.392L317.319 51.6327C317.56 51.6697 317.736 51.8919 317.699 52.1325C317.68 52.3454 317.486 52.512 317.264 52.512ZM311.062 51.6234C311.043 51.6234 311.016 51.6234 310.997 51.6142C310.405 51.5216 309.812 51.4291 309.22 51.3365C308.979 51.2995 308.813 51.0681 308.85 50.8274C308.887 50.5867 309.118 50.4108 309.359 50.4571C309.951 50.5497 310.534 50.6423 311.127 50.7348C311.367 50.7718 311.543 51.0033 311.506 51.2439C311.469 51.4661 311.284 51.6234 311.062 51.6234Z" fill="#C6B5DD"/>
<path opacity="0.6" d="M381.744 169.078C381.679 169.078 381.614 169.059 381.549 169.031C381.327 168.92 381.235 168.652 381.346 168.43C381.605 167.893 381.864 167.356 382.114 166.819C382.225 166.597 382.484 166.495 382.706 166.606C382.928 166.708 383.03 166.977 382.919 167.199C382.669 167.745 382.41 168.282 382.142 168.819C382.068 168.985 381.91 169.078 381.744 169.078ZM384.345 163.376C384.289 163.376 384.224 163.367 384.169 163.339C383.937 163.246 383.836 162.978 383.928 162.756C384.16 162.21 384.391 161.663 384.613 161.108C384.706 160.877 384.974 160.766 385.196 160.858C385.428 160.951 385.539 161.21 385.446 161.441C385.224 161.997 384.993 162.552 384.761 163.107C384.687 163.274 384.521 163.376 384.345 163.376ZM386.622 157.535C386.575 157.535 386.52 157.526 386.474 157.507C386.242 157.424 386.122 157.165 386.205 156.933C386.409 156.378 386.603 155.813 386.788 155.249C386.862 155.017 387.122 154.888 387.353 154.971C387.584 155.054 387.714 155.304 387.631 155.536C387.436 156.1 387.242 156.665 387.038 157.23C386.973 157.424 386.807 157.535 386.622 157.535ZM388.556 151.583C388.519 151.583 388.473 151.574 388.427 151.565C388.186 151.491 388.056 151.25 388.121 151.009C388.288 150.435 388.455 149.871 388.612 149.297C388.677 149.056 388.917 148.917 389.158 148.982C389.399 149.047 389.537 149.297 389.473 149.528C389.315 150.102 389.149 150.685 388.982 151.259C388.927 151.454 388.751 151.583 388.556 151.583ZM390.139 145.52C390.102 145.52 390.074 145.52 390.037 145.511C389.797 145.455 389.649 145.215 389.704 144.974C389.834 144.391 389.963 143.817 390.084 143.234C390.13 142.993 390.371 142.836 390.611 142.891C390.852 142.938 391.009 143.178 390.954 143.419C390.833 144.002 390.704 144.595 390.565 145.178C390.528 145.372 390.343 145.52 390.139 145.52ZM391.333 139.365C391.305 139.365 391.287 139.365 391.259 139.356C391.019 139.318 390.852 139.087 390.889 138.846C390.981 138.263 391.074 137.671 391.157 137.088C391.194 136.838 391.426 136.671 391.666 136.708C391.907 136.745 392.083 136.967 392.046 137.217C391.963 137.81 391.87 138.402 391.778 138.995C391.741 139.207 391.555 139.365 391.333 139.365ZM392.139 133.154C392.12 133.154 392.111 133.154 392.092 133.154C391.842 133.135 391.666 132.913 391.685 132.663C391.741 132.071 391.796 131.478 391.833 130.886C391.852 130.636 392.064 130.451 392.314 130.469C392.564 130.488 392.749 130.701 392.731 130.951C392.685 131.552 392.638 132.145 392.583 132.746C392.564 132.978 392.37 133.154 392.139 133.154ZM392.509 126.896H392.5C392.25 126.887 392.055 126.683 392.064 126.443C392.083 125.85 392.083 125.258 392.092 124.666C392.092 124.416 392.296 124.221 392.537 124.221C392.786 124.221 392.981 124.425 392.981 124.675C392.981 125.277 392.972 125.878 392.953 126.471C392.953 126.702 392.749 126.896 392.509 126.896ZM392.435 120.639C392.194 120.639 392 120.454 391.99 120.213C391.963 119.621 391.926 119.028 391.879 118.436C391.861 118.186 392.046 117.973 392.296 117.955C392.518 117.927 392.759 118.121 392.777 118.371C392.824 118.973 392.851 119.565 392.888 120.167C392.898 120.417 392.712 120.621 392.462 120.639C392.444 120.639 392.435 120.639 392.435 120.639ZM391.879 114.4C391.657 114.4 391.463 114.234 391.435 114.012C391.361 113.419 391.278 112.836 391.194 112.253C391.157 112.012 391.324 111.781 391.574 111.744C391.805 111.716 392.046 111.873 392.083 112.123C392.176 112.716 392.259 113.308 392.333 113.91C392.361 114.15 392.194 114.382 391.944 114.41C391.916 114.391 391.898 114.4 391.879 114.4ZM390.843 108.217C390.639 108.217 390.454 108.069 390.408 107.865C390.287 107.282 390.158 106.708 390.019 106.134C389.963 105.894 390.111 105.653 390.352 105.597C390.593 105.542 390.833 105.69 390.889 105.931C391.028 106.514 391.157 107.097 391.287 107.689C391.333 107.93 391.185 108.171 390.944 108.217C390.898 108.217 390.87 108.217 390.843 108.217ZM389.278 102.154C389.084 102.154 388.908 102.034 388.853 101.839C388.677 101.275 388.501 100.71 388.316 100.145C388.242 99.914 388.362 99.6548 388.603 99.5808C388.843 99.4975 389.093 99.6271 389.167 99.8677C389.352 100.442 389.538 101.006 389.713 101.58C389.787 101.821 389.649 102.071 389.417 102.136C389.362 102.154 389.325 102.154 389.278 102.154ZM387.196 96.2485C387.02 96.2485 386.853 96.1467 386.779 95.9708C386.557 95.4247 386.335 94.8693 386.094 94.3232C386.002 94.101 386.103 93.8326 386.326 93.74C386.548 93.6382 386.816 93.7493 386.918 93.9714C387.159 94.5268 387.381 95.0729 387.612 95.6376C387.705 95.869 387.594 96.1282 387.362 96.2207C387.307 96.2392 387.251 96.2485 387.196 96.2485ZM384.622 90.5373C384.456 90.5373 384.298 90.4447 384.224 90.2874C383.956 89.7598 383.687 89.2321 383.401 88.7138C383.28 88.4916 383.363 88.2232 383.586 88.1121C383.808 87.9918 384.076 88.0751 384.197 88.2973C384.483 88.8249 384.761 89.3617 385.03 89.8986C385.141 90.1208 385.048 90.3892 384.835 90.5003C384.752 90.528 384.687 90.5373 384.622 90.5373ZM381.549 85.076C381.401 85.076 381.253 85.002 381.17 84.8631C380.855 84.3633 380.54 83.8634 380.216 83.3636C380.077 83.16 380.142 82.8823 380.346 82.7434C380.55 82.6046 380.827 82.6601 380.966 82.873C381.299 83.3729 381.623 83.882 381.938 84.3911C382.068 84.604 382.003 84.8816 381.79 85.0112C381.716 85.0575 381.633 85.076 381.549 85.076ZM378.013 79.911C377.874 79.911 377.745 79.8462 377.652 79.7351C377.291 79.263 376.93 78.7909 376.56 78.3281C376.403 78.1337 376.44 77.856 376.634 77.6987C376.828 77.5413 377.106 77.5784 377.264 77.7727C377.643 78.2448 378.004 78.7169 378.365 79.1982C378.513 79.3926 378.476 79.6796 378.272 79.8277C378.198 79.8832 378.106 79.911 378.013 79.911ZM374.015 75.0884C373.894 75.0884 373.774 75.0421 373.681 74.9403C373.283 74.5052 372.876 74.0702 372.459 73.6444C372.284 73.4685 372.293 73.1816 372.469 73.015C372.645 72.8391 372.932 72.8483 373.098 73.0242C373.515 73.4593 373.922 73.8943 374.329 74.3386C374.496 74.5237 374.487 74.8014 374.301 74.9681C374.227 75.0514 374.116 75.0884 374.015 75.0884ZM369.571 70.6731C369.46 70.6731 369.359 70.6361 369.275 70.562C368.831 70.164 368.387 69.7752 367.933 69.3957C367.748 69.2383 367.72 68.9514 367.878 68.7663C368.035 68.5811 368.322 68.5534 368.507 68.7107C368.961 69.0995 369.414 69.4975 369.868 69.8955C370.053 70.0622 370.071 70.3399 369.905 70.525C369.812 70.6268 369.692 70.6731 369.571 70.6731ZM364.703 66.7299C364.61 66.7299 364.517 66.7021 364.443 66.6466C363.962 66.2948 363.481 65.9616 362.99 65.6283C362.787 65.4895 362.731 65.2118 362.87 65.0082C363.009 64.8045 363.286 64.749 363.49 64.8878C363.99 65.2303 364.48 65.5728 364.962 65.9246C365.165 66.0727 365.202 66.3503 365.064 66.554C364.98 66.6651 364.841 66.7299 364.703 66.7299ZM359.454 63.3235C359.38 63.3235 359.306 63.305 359.232 63.268C358.723 62.9718 358.205 62.6848 357.677 62.4071C357.455 62.2868 357.381 62.0184 357.492 61.8055C357.612 61.5833 357.881 61.5093 358.094 61.6203C358.621 61.9073 359.149 62.1942 359.667 62.4904C359.88 62.6108 359.954 62.8885 359.834 63.1014C359.76 63.2495 359.602 63.3235 359.454 63.3235ZM353.854 60.5188C353.789 60.5188 353.734 60.5096 353.678 60.4818C353.132 60.2411 352.586 60.019 352.04 59.7968C351.808 59.7043 351.697 59.4451 351.79 59.2137C351.883 58.9823 352.142 58.8712 352.373 58.9638C352.928 59.1859 353.484 59.4173 354.039 59.658C354.261 59.7598 354.372 60.019 354.271 60.2504C354.187 60.417 354.03 60.5188 353.854 60.5188ZM347.995 58.2973C347.949 58.2973 347.902 58.288 347.856 58.2788C347.291 58.0937 346.727 57.9178 346.162 57.7419C345.921 57.6679 345.792 57.4179 345.866 57.1865C345.94 56.9551 346.19 56.8163 346.421 56.8903C346.995 57.0662 347.569 57.2421 348.143 57.4272C348.374 57.5012 348.504 57.7604 348.43 57.9918C348.365 58.177 348.189 58.2973 347.995 58.2973ZM341.978 56.5756C341.941 56.5756 341.904 56.5756 341.867 56.5663C341.293 56.4275 340.71 56.2887 340.136 56.1498C339.895 56.0943 339.747 55.8536 339.803 55.6129C339.858 55.3723 340.099 55.2242 340.34 55.2797C340.923 55.4093 341.506 55.5481 342.089 55.6962C342.33 55.7518 342.478 56.0017 342.413 56.2424C342.358 56.4368 342.182 56.5756 341.978 56.5756ZM335.86 55.2519C335.832 55.2519 335.804 55.2519 335.776 55.2427C335.193 55.1316 334.61 55.0298 334.018 54.9187C333.777 54.8724 333.61 54.641 333.657 54.4004C333.703 54.1597 333.934 53.9931 334.175 54.0394C334.767 54.1412 335.351 54.2522 335.943 54.3633C336.184 54.4096 336.35 54.641 336.304 54.8817C336.258 55.1038 336.073 55.2519 335.86 55.2519ZM329.686 54.206C329.667 54.206 329.639 54.206 329.621 54.1967C329.028 54.1041 328.445 54.0208 327.853 53.9375C327.612 53.9005 327.436 53.6784 327.473 53.4284C327.51 53.1785 327.751 53.0119 327.983 53.0489C328.575 53.1322 329.167 53.2248 329.76 53.3081C330 53.3451 330.176 53.5765 330.139 53.8172C330.093 54.0486 329.899 54.206 329.686 54.206ZM323.475 53.3359C323.456 53.3359 323.438 53.3359 323.41 53.3359L321.633 53.0952C321.392 53.0674 321.216 52.836 321.244 52.5954C321.272 52.3454 321.503 52.1788 321.744 52.2066L323.521 52.438C323.762 52.475 323.937 52.6972 323.9 52.9378C323.891 53.1692 323.697 53.3359 323.475 53.3359ZM317.264 52.512C317.245 52.512 317.227 52.512 317.199 52.512L315.422 52.2714C315.172 52.2344 315.005 52.0122 315.042 51.7715C315.079 51.5309 315.301 51.355 315.542 51.392L317.319 51.6327C317.56 51.6697 317.736 51.8919 317.699 52.1325C317.68 52.3454 317.486 52.512 317.264 52.512ZM311.062 51.6234C311.043 51.6234 311.016 51.6234 310.997 51.6142C310.405 51.5216 309.812 51.4291 309.22 51.3365C308.979 51.2995 308.813 51.0681 308.85 50.8274C308.887 50.5867 309.118 50.4108 309.359 50.4571C309.951 50.5497 310.534 50.6423 311.127 50.7348C311.367 50.7718 311.543 51.0033 311.506 51.2439C311.469 51.4661 311.284 51.6234 311.062 51.6234Z" fill="white"/>
<path d="M175.095 101.636H27.6497V194.996H175.095V101.636Z" fill="white" stroke="#263238" stroke-miterlimit="10"/>
<path d="M73.839 90.7964L70.9788 82.6138H24.7802V201.808H177.955V90.7964H73.839ZM175.095 195.005H27.6497V101.636H175.095V195.005Z" fill="#C6B5DD" stroke="#263238" stroke-miterlimit="10" stroke-linecap="round" stroke-linejoin="round"/>
<path d="M31.1949 93.166L29.0844 95.1932L31.2782 97.5535" fill="#C6B5DD"/>
<path d="M31.1949 93.166L29.0844 95.1932L31.2782 97.5535" stroke="#263238" stroke-miterlimit="10" stroke-linecap="round" stroke-linejoin="round"/>
<path d="M29.0844 95.1934H33.7774" stroke="#263238" stroke-miterlimit="10" stroke-linecap="round" stroke-linejoin="round"/>
<path d="M43.1726 93.166L45.2831 95.1932L43.0986 97.5535" fill="#C6B5DD"/>
<path d="M43.1726 93.166L45.2831 95.1932L43.0986 97.5535" stroke="#263238" stroke-miterlimit="10" stroke-linecap="round" stroke-linejoin="round"/>
<path d="M45.2831 95.1934H40.5901" stroke="#263238" stroke-miterlimit="10" stroke-linecap="round" stroke-linejoin="round"/>
<path d="M55.3818 94.9064C55.1041 93.9345 54.2248 93.2587 53.2158 93.2402C52.0495 93.2402 51.0961 94.1937 51.0961 95.36C51.0961 96.5263 52.0495 97.4797 53.2158 97.4797C53.7064 97.4797 54.1785 97.3131 54.5487 97.0076" fill="#C6B5DD"/>
<path d="M55.3818 94.9064C55.1041 93.9345 54.2248 93.2587 53.2158 93.2402C52.0495 93.2402 51.0961 94.1937 51.0961 95.36C51.0961 96.5263 52.0495 97.4797 53.2158 97.4797C53.7064 97.4797 54.1785 97.3131 54.5487 97.0076" stroke="#263238" stroke-miterlimit="10" stroke-linecap="round" stroke-linejoin="round"/>
<path d="M53.9471 95.1567H55.6039V93.2129" fill="#C6B5DD"/>
<path d="M53.9471 95.1567H55.6039V93.2129" stroke="#263238" stroke-miterlimit="10" stroke-linecap="round" stroke-linejoin="round"/>
<path d="M65.8693 86.8442L68.8406 89.9081" stroke="#263238" stroke-miterlimit="10" stroke-linecap="round" stroke-linejoin="round"/>
<path d="M68.8869 86.8994L65.823 89.8522" stroke="#263238" stroke-miterlimit="10" stroke-linecap="round" stroke-linejoin="round"/>
<path d="M139.92 261.068L117.187 216.702L51.4479 252.358L74.2927 294.243L139.92 261.068Z" fill="white"/>
<path d="M112.355 228.699L99.1924 261.596L51.7163 252.506L95.8045 256.634L110.605 228.254L112.355 228.699Z" fill="#C6B5DD"/>
<path opacity="0.5" d="M112.355 228.699L99.1924 261.596L51.7163 252.506L95.8045 256.634L110.605 228.254L112.355 228.699Z" fill="white"/>
<path d="M51.6793 252.21L74.2927 294.243L139.92 261.068L116.909 216.989L51.6793 252.21Z" stroke="#263238" stroke-miterlimit="10" stroke-linecap="round" stroke-linejoin="round"/>
<path d="M51.6793 252.21L95.8045 256.634L116.909 216.989" stroke="#263238" stroke-miterlimit="10" stroke-linecap="round" stroke-linejoin="round"/>
<path d="M121.462 225.659C125.25 221.871 125.25 215.729 121.462 211.94C117.674 208.152 111.531 208.152 107.743 211.94C103.955 215.729 103.955 221.871 107.743 225.659C111.531 229.447 117.674 229.447 121.462 225.659Z" fill="#C6B5DD"/>
<path opacity="0.3" d="M121.462 225.659C125.25 221.871 125.25 215.729 121.462 211.94C117.674 208.152 111.531 208.152 107.743 211.94C103.955 215.729 103.955 221.871 107.743 225.659C111.531 229.447 117.674 229.447 121.462 225.659Z" fill="black"/>
<path d="M114.604 228.801C119.962 228.801 124.305 224.458 124.305 219.1C124.305 213.743 119.962 209.399 114.604 209.399C109.247 209.399 104.904 213.743 104.904 219.1C104.904 224.458 109.247 228.801 114.604 228.801Z" stroke="#263238" stroke-miterlimit="10" stroke-linecap="round" stroke-linejoin="round"/>
<path d="M114.604 226.097C119.962 226.097 124.305 221.754 124.305 216.396C124.305 211.039 119.962 206.696 114.604 206.696C109.247 206.696 104.904 211.039 104.904 216.396C104.904 221.754 109.247 226.097 114.604 226.097Z" fill="#C6B5DD"/>
<path d="M114.604 226.097C119.962 226.097 124.305 221.754 124.305 216.396C124.305 211.039 119.962 206.696 114.604 206.696C109.247 206.696 104.904 211.039 104.904 216.396C104.904 221.754 109.247 226.097 114.604 226.097Z" stroke="#263238" stroke-miterlimit="10" stroke-linecap="round" stroke-linejoin="round"/>
<path d="M267.936 190.377H221.497C219.96 190.377 218.72 189.136 218.72 187.6V161.747C218.72 160.21 219.96 158.97 221.497 158.97H267.936C269.473 158.97 270.713 160.21 270.713 161.747V187.6C270.713 189.136 269.473 190.377 267.936 190.377Z" fill="white"/>
<path d="M267.936 190.377H221.497C219.96 190.377 218.72 189.136 218.72 187.6V161.747C218.72 160.21 219.96 158.97 221.497 158.97H267.936C269.473 158.97 270.713 160.21 270.713 161.747V187.6C270.713 189.136 269.473 190.377 267.936 190.377Z" stroke="#263238" stroke-miterlimit="10" stroke-linecap="round" stroke-linejoin="round"/>
<path d="M267.529 163.747H222.145V165.866H267.529V163.747Z" fill="#C6B5DD"/>
<path d="M267.529 168.643H222.145V170.763H267.529V168.643Z" fill="#C6B5DD"/>
<path d="M267.529 173.54H222.145V175.659H267.529V173.54Z" fill="#C6B5DD"/>
<path d="M267.529 178.437H222.145V180.556H267.529V178.437Z" fill="#C6B5DD"/>
<path d="M267.529 183.333H222.145V185.453H267.529V183.333Z" fill="#C6B5DD"/>
<path d="M215.869 184.49C208.501 188.6 201.54 193.274 195.579 199.226C181.713 213.064 174.854 232.169 164.987 249.072C154.916 266.325 141.42 281.58 125.499 293.697C109.097 306.193 89.649 315.468 69.0535 316.949C48.4581 318.43 26.7055 311.321 13.2745 295.696C-0.156498 280.071 -3.47028 255.616 7.87805 238.427C17.227 224.264 35.7583 216.785 52.3643 220.469C58.8622 221.913 64.9067 224.848 70.8863 227.763C73.9594 229.263 77.0418 230.762 80.1149 232.262" stroke="#263238" stroke-miterlimit="10" stroke-linecap="round" stroke-linejoin="round" stroke-dasharray="2 5"/>
<path d="M244.064 94.897C253.358 90.4817 264.363 89.2136 274.055 92.6755C283.746 96.1281 291.772 104.663 293.438 114.808C294.872 123.564 291.605 132.608 286.282 139.698C282.302 145.002 277.257 149.362 271.87 153.277" stroke="#263238" stroke-miterlimit="10" stroke-linecap="round" stroke-linejoin="round" stroke-dasharray="2 5"/>
<path d="M189.96 139.782L198.06 134.709L218.387 109.939L234.835 123.749L213.768 147.511L210.723 145.372L193.478 148.992C193.487 148.992 191.756 142.207 189.96 139.782Z" fill="white"/>
<path d="M70.5068 134.719L62.3241 141.207L64.5364 145.789C64.5364 145.789 64.9529 151.713 68.3686 153.546C71.7842 155.379 80.8277 149.529 80.8277 149.529C80.8277 149.529 81.7626 143.299 78.6154 138.699L70.5068 134.719Z" fill="white"/>
<path d="M166.32 65.5543C166.32 65.5543 152.315 92.6292 144.067 94.499L140.8 95.5913C140.8 95.5913 137.847 104.922 127.813 106.486L129.127 98.7107L121.824 105.921C121.824 105.921 110.05 95.1377 112.855 80.5126L123.157 81.1883L127.748 72.5799C127.748 72.5799 123.833 70.3861 124.768 66.0264C125.703 61.6666 126.637 57.6216 131.145 61.2038C131.145 61.2038 140.948 66.1837 148.89 59.1767C156.823 52.1696 159.007 51.2439 163.209 53.7339C163.2 53.7246 162.117 63.379 166.32 65.5543Z" fill="white"/>
<path d="M121.824 105.922C121.824 105.922 110.976 98.7481 112.707 81.0129C112.707 81.0129 99.4237 78.1712 80.4019 79.6522L23.8916 129.276C23.8916 129.276 25.7799 136.764 33.8792 138.356C41.9786 139.948 61.9354 141.235 61.9354 141.235L69.7292 134.422L52.0495 127.147L79.5132 110.855L79.5318 138.116C79.5318 138.116 82.6234 147.27 80.8369 149.547L68.9239 161.58C68.9239 161.58 88.9548 198.588 133.969 175.206L129.183 149.538C129.183 149.538 136.699 147.576 132.339 143.475L139.596 131.59C139.596 131.59 147.252 159.248 154.073 166.366L192.784 149.325C192.784 149.325 191.756 142.688 189.683 140.013L162.423 146.215C162.423 146.215 162.876 121.639 161.09 113.642C159.313 105.635 155.869 97.7114 148.446 92.3057C148.446 92.3057 143.521 95.7676 141.142 94.5827C141.142 94.5827 136.857 106.542 127.822 106.505L129.257 98.1372L122.796 105.089L121.824 105.922Z" fill="#C6B5DD"/>
<path d="M163.006 54.9745C160.821 54.9745 158.766 56.1037 157.1 57.52C155.434 58.9362 154.055 60.6579 152.472 62.1667C148.02 66.4154 141.92 68.8868 135.774 68.9516C135.311 72.6912 133.82 76.3012 131.516 79.291C130.868 80.1241 130.109 81.0682 130.294 82.1142C130.377 82.6048 130.664 83.0398 130.951 83.4471C131.877 84.8078 132.802 86.1685 133.737 87.5292C134.006 87.918 134.274 88.3345 134.311 88.7973C134.376 89.6674 133.608 90.3524 132.913 90.8893C130.942 92.4166 128.961 93.9346 126.989 95.4619C126.989 95.4619 122.963 85.5853 123.166 81.17L127.758 72.5616C127.758 72.5616 119.047 62.3611 125.925 58.8344C132.802 55.317 137.125 59.797 137.125 59.797C137.125 59.797 153.601 51.7995 158.563 51.9569C163.515 52.1328 163.006 54.9745 163.006 54.9745Z" fill="#C6B5DD"/>
<path opacity="0.6" d="M163.006 54.9745C160.821 54.9745 158.766 56.1037 157.1 57.52C155.434 58.9362 154.055 60.6579 152.472 62.1667C148.02 66.4154 141.92 68.8868 135.774 68.9516C135.311 72.6912 133.82 76.3012 131.516 79.291C130.868 80.1241 130.109 81.0682 130.294 82.1142C130.377 82.6048 130.664 83.0398 130.951 83.4471C131.877 84.8078 132.802 86.1685 133.737 87.5292C134.006 87.918 134.274 88.3345 134.311 88.7973C134.376 89.6674 133.608 90.3524 132.913 90.8893C130.942 92.4166 128.961 93.9346 126.989 95.4619C126.989 95.4619 122.963 85.5853 123.166 81.17L127.758 72.5616C127.758 72.5616 119.047 62.3611 125.925 58.8344C132.802 55.317 137.125 59.797 137.125 59.797C137.125 59.797 153.601 51.7995 158.563 51.9569C163.515 52.1328 163.006 54.9745 163.006 54.9745Z" fill="white"/>
<path d="M166.227 63.7402C166.227 63.7402 157.045 86.7053 144.743 94.4159C144.743 94.4159 143.919 95.2397 141.3 94.4159C138.671 93.5921 132.932 87.0386 130.803 83.7525C129.803 82.216 129.451 79.9204 129.359 77.9118" stroke="#263238" stroke-miterlimit="10" stroke-linecap="round" stroke-linejoin="round"/>
<path d="M143.595 80.4668C143.595 80.4668 144.743 83.7436 148.186 84.4008" stroke="#263238" stroke-miterlimit="10" stroke-linecap="round" stroke-linejoin="round"/>
<path d="M155.851 66.2126C154.583 64.6575 152.426 63.8893 150.463 64.278" stroke="#263238" stroke-miterlimit="10" stroke-linecap="round" stroke-linejoin="round"/>
<path d="M159.933 68.5446C161.303 68.0355 162.978 68.5261 163.857 69.6831" stroke="#263238" stroke-miterlimit="10" stroke-linecap="round" stroke-linejoin="round"/>
<path d="M158.341 70.7383C157.322 71.7472 156.508 72.9783 156.128 74.3483C155.74 75.7275 155.804 77.2455 156.443 78.5229C156.712 79.069 157.082 79.5781 157.202 80.1798C157.322 80.7815 157.073 81.5127 156.48 81.6701C156.212 81.7441 155.934 81.6793 155.666 81.6145C154.027 81.198 152.463 80.4945 151.074 79.5319" stroke="#263238" stroke-miterlimit="10" stroke-linecap="round" stroke-linejoin="round"/>
<path d="M132.071 65.397C131.867 64.4806 131.59 63.5828 131.256 62.7127C130.831 61.6204 130.109 60.4264 128.933 60.2875C128.517 60.2412 128.091 60.3431 127.702 60.5189C126.563 61.0465 125.804 62.2036 125.527 63.4347C125.249 64.6658 125.369 65.9432 125.601 67.1743C125.795 68.2202 126.073 69.257 126.415 70.2659C126.702 71.1175 127.063 71.9876 127.748 72.5707C128.572 73.2742 129.812 73.4501 130.794 72.9965C131.775 72.543 132.441 71.4785 132.432 70.3955" stroke="#263238" stroke-miterlimit="10" stroke-linecap="round" stroke-linejoin="round"/>
<path d="M127.165 72.2192C126.11 75.7182 124.944 78.2729 123.12 81.1979" stroke="#263238" stroke-miterlimit="10" stroke-linecap="round" stroke-linejoin="round"/>
<path d="M61.9261 141.226L64.5364 145.789C64.5364 145.789 64.703 152.139 67.9613 153.444C71.2195 154.749 80.8276 149.538 80.8276 149.538C80.9943 149.047 81.8273 144.429 79.3836 139.06C79.3836 139.06 74.7832 136.459 69.72 134.422" stroke="#263238" stroke-miterlimit="10" stroke-linecap="round" stroke-linejoin="round"/>
<path d="M76.0976 151.491L73.654 142.04" stroke="#263238" stroke-miterlimit="10" stroke-linecap="round" stroke-linejoin="round"/>
<path d="M71.6453 153.028L68.5999 143.512" stroke="#263238" stroke-miterlimit="10" stroke-linecap="round" stroke-linejoin="round"/>
<path d="M51.8644 127.008L86.0297 107.181" stroke="#263238" stroke-miterlimit="10" stroke-linecap="round" stroke-linejoin="round"/>
<path d="M79.8927 110.846C83.151 110.726 85.2152 110.596 88.4734 110.485" stroke="#263238" stroke-miterlimit="10" stroke-linecap="round" stroke-linejoin="round"/>
<path d="M79.6613 111.05V139.06" stroke="#263238" stroke-miterlimit="10" stroke-linecap="round" stroke-linejoin="round"/>
<path d="M147.77 92.0747C147.77 92.0747 155.952 94.7128 161.164 112.467C162.895 127.777 162.432 146.475 162.432 146.475" stroke="#263238" stroke-miterlimit="10" stroke-linecap="round" stroke-linejoin="round"/>
<path d="M199.189 134.071C199.189 134.071 208.918 134.413 208.677 136.07C208.436 137.727 200.365 139.273 200.365 139.273C200.365 139.273 200.429 139.412 200.485 139.662C200.485 139.662 202.447 143.281 199.596 144.956" stroke="#263238" stroke-miterlimit="10" stroke-linecap="round" stroke-linejoin="round"/>
<path d="M198.81 134.024C194.755 136.181 189.822 139.883 189.822 139.883L161.673 147.075" stroke="#263238" stroke-miterlimit="10" stroke-linecap="round" stroke-linejoin="round"/>
<path d="M107.93 148.992C107.93 148.992 116.243 152.315 127.221 146.002" stroke="#263238" stroke-miterlimit="10" stroke-linecap="round" stroke-linejoin="round"/>
<path d="M151.806 71.4786C151.38 72.6727 150.556 73.478 149.982 73.2651C149.399 73.0614 149.279 71.9229 149.704 70.7288C150.13 69.5348 150.954 68.7294 151.528 68.9423C152.111 69.146 152.231 70.2845 151.806 71.4786Z" fill="#263238"/>
<path d="M160.118 73.4688C159.692 74.6629 158.868 75.4682 158.294 75.2553C157.711 75.0517 157.591 73.9131 158.017 72.7191C158.442 71.525 159.266 70.7197 159.84 70.9326C160.423 71.1362 160.553 72.2747 160.118 73.4688Z" fill="#263238"/>
<path d="M111.948 189.442C113.53 189.368 115.16 189.238 116.844 189.035" stroke="#263238" stroke-miterlimit="10" stroke-linecap="round" stroke-linejoin="round"/>
<path d="M70.5808 173.863C70.5808 173.863 81.9662 188.748 106.801 189.488" stroke="#263238" stroke-miterlimit="10" stroke-linecap="round" stroke-linejoin="round"/>
<path d="M203.549 138.921L213.777 147.511L234.845 123.749L218.59 109.717L198.014 134.237" stroke="#263238" stroke-miterlimit="10" stroke-linecap="round" stroke-linejoin="round"/>
<path d="M218.59 109.717L216.424 128.989L198.014 134.237" stroke="#263238" stroke-miterlimit="10" stroke-linecap="round" stroke-linejoin="round"/>
<path d="M131.256 62.7221C131.256 62.7221 143.299 65.7952 151.621 58.4364C159.942 51.0776 162.46 55.1411 162.46 55.1411C162.46 55.1411 160.331 62.3056 165.172 65.5916L176.844 54.9005C176.844 54.9005 170.596 48.1618 162.849 49.3281C162.849 49.3281 157.026 36.8598 147.177 36.0174C135.579 35.027 108.68 45.3942 124.231 78.9486L127.036 72.358C127.036 72.358 124.129 63.3423 127.702 60.5006C130.331 58.4364 131.256 62.7221 131.256 62.7221Z" fill="#263238"/>
<path d="M166.56 51.8644C167.023 52.0495 168.68 51.4479 169.309 51.4571C170.504 51.4849 171.688 51.7904 172.79 52.2439C175.298 53.2806 177.779 55.3356 179.584 57.3535C183.444 61.6762 187.045 67.4244 193.441 67.8224C199.143 68.1834 203.299 63.8422 208.732 63.185C220.044 61.8243 228.384 73.3207 226.949 83.7434C223.737 107.171 188.155 121.389 161.497 116.502C160.59 116.335 161.395 101.571 148.418 92.2778C148.418 92.2778 165.135 72.5525 166.246 62.3519C167.347 52.1791 166.57 51.8644 166.56 51.8644Z" fill="#263238"/>
<path d="M162.654 49.9576C162.654 49.9576 163.793 42.3303 155.517 35.5176" stroke="#263238" stroke-miterlimit="10" stroke-linecap="round" stroke-linejoin="round"/>
<path d="M123.157 81.179C123.157 81.179 122.963 86.8902 129.248 98.1089L121.824 105.912C121.824 105.912 109.643 97.1555 113.068 80.2256L123.157 81.179Z" stroke="#263238" stroke-miterlimit="10" stroke-linecap="round" stroke-linejoin="round"/>
<path d="M141.3 94.416C135.959 107.467 127.804 106.486 127.804 106.486L129.239 98.1185C129.239 98.1185 134.746 95.0639 137.264 91.7409C137.356 91.6205 137.162 91.8612 137.227 91.7871" stroke="#263238" stroke-miterlimit="10" stroke-linecap="round" stroke-linejoin="round"/>
<path d="M79.8372 150.352L77.0603 140.605" stroke="#263238" stroke-miterlimit="10" stroke-linecap="round" stroke-linejoin="round"/>
<path d="M147.27 118.445L132.312 143.456C132.312 143.456 133.895 145.03 133.348 146.668C132.802 148.297 129.072 149.556 129.072 149.556C129.072 149.556 133.932 175.122 133.941 175.187C134.237 176.77 120.676 180.889 119.344 181.25C108.486 184.193 97.0819 183.907 86.9554 178.417C79.7632 174.521 73.2837 168.504 68.8962 161.571L79.8372 150.352" stroke="#263238" stroke-miterlimit="10" stroke-linecap="round" stroke-linejoin="round"/>
<path d="M139.698 131.451C139.698 131.451 142.049 145.539 154.046 166.339L192.96 149.112L210.306 145.16" stroke="#263238" stroke-miterlimit="10" stroke-linecap="round" stroke-linejoin="round"/>
<path d="M162.654 146.464C158.748 148.066 155.925 152.027 155.693 156.248" stroke="#263238" stroke-miterlimit="10" stroke-linecap="round" stroke-linejoin="round"/>
<path d="M153.129 149.779C155.027 148.316 157.137 147.122 159.377 146.261" stroke="#263238" stroke-miterlimit="10" stroke-linecap="round" stroke-linejoin="round"/>
<path d="M192.96 149.112C193.598 147.196 189.822 139.875 189.822 139.875" stroke="#263238" stroke-miterlimit="10" stroke-linecap="round" stroke-linejoin="round"/>
<path d="M113.086 80.7166C102.164 79.541 84.4284 77.9304 80.985 79.4855C75.931 81.7625 42.9227 112.494 42.9227 112.494L23.8823 129.266C24.1878 135.32 33.87 138.347 33.87 138.347L61.9261 141.226L70.5068 134.718C70.5068 134.718 46.2828 124.12 37.2023 123.213" stroke="#263238" stroke-miterlimit="10" stroke-linecap="round" stroke-linejoin="round"/>
<path d="M42.7098 119.297C42.7098 119.297 50.661 121.704 51.8644 127.007" stroke="#263238" stroke-miterlimit="10" stroke-linecap="round" stroke-linejoin="round"/>
<path d="M162.599 73.6353C164.876 77.273 167.393 80.9108 170.939 83.3452C175.206 86.2795 180.667 87.1866 185.804 86.5479C190.951 85.9 195.811 83.7988 200.272 81.1607C203.28 79.3742 206.187 77.3193 209.491 76.1808C212.805 75.0515 216.721 74.9867 219.562 77.0323" stroke="white" stroke-width="0.5" stroke-miterlimit="10" stroke-linecap="round" stroke-linejoin="round"/>
<path d="M156.961 83.4009C157.11 88.6678 157.563 94.1938 160.442 98.6091C163.071 102.636 167.477 105.255 172.105 106.533C177.214 107.94 182.722 107.856 187.776 106.283C191.96 104.978 195.764 102.719 199.735 100.886C203.706 99.0534 208.066 97.6187 212.407 98.1463" stroke="white" stroke-width="0.5" stroke-miterlimit="10" stroke-linecap="round" stroke-linejoin="round"/>
<path d="M216.054 237.159L216.813 228.874L223.728 225.116L213.259 205.668L183.749 221.071L194.07 240.426L200.448 237.279L213.009 243.87L216.054 237.159Z" fill="white"/>
<path d="M311.839 148.77C311.839 148.77 302.259 171.133 301.389 178.677C300.519 186.231 300.954 190.007 304.582 192.618C308.211 195.228 314.82 195.357 314.82 195.357L314.19 199.338C314.19 199.338 311.552 199.143 309.525 202.198C307.489 205.243 307.526 207.243 307.526 207.243C307.526 207.243 310.071 217.249 312.117 217.415C314.172 217.582 316.347 210.566 316.347 210.566C316.347 210.566 318.18 220.581 319.948 220.248C321.716 219.905 337.979 209.02 337.979 209.02C337.979 209.02 339.433 201.467 335.878 197.551C335.878 197.551 334.934 190.063 335.952 186.582C335.952 186.582 342.978 187.471 343.357 180.279C343.69 173.873 340.312 171.133 338.275 173.744L333.481 161.692L335.369 153.13L311.839 148.77Z" fill="white"/>
<path d="M315.292 151.01L316.032 152.306C316.032 152.306 304.332 171.615 304.888 184.25C305.443 196.875 323.456 193.534 323.456 193.534C323.456 193.534 322.345 209.316 315.653 208.39L313.977 204.493L314.459 195.681C314.459 195.681 307.479 196.32 303.212 192.053C298.945 187.786 300.981 178.687 304.888 166.237C308.785 153.796 311.839 148.77 311.839 148.77L315.292 151.01Z" fill="#C6B5DD"/>
<path opacity="0.6" d="M315.292 151.01L316.032 152.306C316.032 152.306 304.332 171.615 304.888 184.25C305.443 196.875 323.456 193.534 323.456 193.534C323.456 193.534 322.345 209.316 315.653 208.39L313.977 204.493L314.459 195.681C314.459 195.681 307.479 196.32 303.212 192.053C298.945 187.786 300.981 178.687 304.888 166.237C308.785 153.796 311.839 148.77 311.839 148.77L315.292 151.01Z" fill="white"/>
<path d="M371.867 239.953C371.21 243.998 369.821 247.96 367.979 251.663C365.989 255.661 363.462 259.355 360.731 262.493L362.351 277.747L366.23 300.472C366.22 300.481 366.202 300.49 366.193 300.499C366.137 300.536 366.072 300.583 366.017 300.629C365.785 300.805 365.369 301.11 364.777 301.527H307.331C305.823 298.028 304.147 294.066 302.574 290.169C299.704 283.051 297.168 276.164 296.594 272.712C296.52 272.249 296.483 271.86 296.474 271.527L286.727 261.789L254.561 279.302L213.092 244.211L213.157 244.091L217.369 235.668L217.387 235.621L258.633 255.31L267.177 243.499L267.297 243.11L267.307 243.064L269.75 235.066L269.778 234.983L271.305 229.984L273.259 223.588L285.468 217.766L285.505 217.747L307.516 207.251C307.516 207.251 307.526 207.288 307.544 207.362C307.655 207.741 307.998 208.972 308.488 210.463C308.599 210.824 308.711 211.185 308.84 211.545C308.923 211.814 309.016 212.082 309.118 212.342C309.581 213.61 310.09 214.878 310.599 215.831C310.691 216.007 310.793 216.174 310.886 216.322C311.034 216.562 311.182 216.775 311.321 216.942C311.33 216.961 311.349 216.97 311.358 216.988C311.617 217.284 311.876 217.442 312.108 217.423C313.144 217.34 314.394 215.081 315.273 213.184C315.292 213.128 315.32 213.064 315.347 213.008C315.847 211.888 316.217 210.925 316.319 210.657C316.338 210.611 316.347 210.583 316.347 210.583C316.347 210.583 316.356 210.62 316.366 210.694C316.504 211.573 317.541 217.636 319.031 219.626C319.078 219.691 319.133 219.756 319.18 219.821C319.42 220.089 319.679 220.247 319.939 220.256C319.948 220.256 319.948 220.256 319.957 220.256C320.679 220.256 322.947 218.877 325.659 217.044C325.668 217.044 325.678 217.035 325.687 217.025C330.694 213.637 337.183 208.685 338.137 207.963C338.22 207.889 338.257 207.861 338.257 207.861C338.257 207.861 338.636 206.269 338.257 202.53C338.257 202.53 338.312 202.548 338.414 202.585L365.212 212.943C365.212 212.952 365.212 212.952 365.221 212.952L365.998 213.249C365.998 213.249 369.895 218.025 371.913 229.818C372.487 233.178 372.432 236.593 371.867 239.953Z" fill="#C6B5DD"/>
<path d="M283.2 230.559L285.681 216.544L255.986 208.565L250.858 230.068L262.688 233.771L268.038 244.619L276.165 250.201L285.079 241.888L285.838 235.252L283.2 230.559Z" fill="white"/>
<path d="M216.813 228.874L223.709 225.449L213.314 205.548L183.86 221.45L194.07 240.426L207.945 233.336" stroke="#263238" stroke-miterlimit="10" stroke-linecap="round" stroke-linejoin="round"/>
<path d="M183.86 221.45L203.789 223.45L213.314 205.548" stroke="#263238" stroke-miterlimit="10" stroke-linecap="round" stroke-linejoin="round"/>
<path d="M278.488 238.057L281.663 238.973L285.782 216.212L255.986 208.437L250.858 230.069L262.29 233.373" stroke="#263238" stroke-miterlimit="10" stroke-linecap="round" stroke-linejoin="round"/>
<path d="M256.144 208.436L267.973 223.218L285.782 216.211" stroke="#263238" stroke-miterlimit="10" stroke-linecap="round" stroke-linejoin="round"/>
<path d="M313.117 145.743C313.117 145.743 301.454 172.16 300.667 182.898C299.889 193.57 309.895 195.218 310.016 195.237C313.977 195.875 318.254 195.625 321.966 194.024C324.956 192.737 327.344 190.358 329.834 188.313" stroke="#263238" stroke-miterlimit="10" stroke-linecap="round" stroke-linejoin="round"/>
<path d="M311.025 175.585L306.313 172.966L311.811 161.191" stroke="#263238" stroke-miterlimit="10" stroke-linecap="round" stroke-linejoin="round"/>
<path d="M316.884 166.356C316.541 167.402 316.708 168.393 317.263 168.578C317.819 168.763 318.55 168.069 318.893 167.023C319.235 165.977 319.068 164.986 318.513 164.801C317.967 164.616 317.236 165.31 316.884 166.356Z" fill="#263238"/>
<path d="M307.877 162.978C307.535 164.024 307.702 165.015 308.257 165.2C308.812 165.385 309.544 164.691 309.886 163.645C310.229 162.599 310.062 161.609 309.507 161.423C308.951 161.238 308.22 161.933 307.877 162.978Z" fill="#263238"/>
<path d="M317.513 177.936C317.513 177.936 315.171 181.037 310.756 180.472" stroke="#263238" stroke-miterlimit="10" stroke-linecap="round" stroke-linejoin="round"/>
<path d="M317.356 160.646C318.383 159.979 319.827 160.396 320.707 161.247C321.586 162.108 322.03 163.302 322.447 164.45" stroke="#263238" stroke-width="2" stroke-miterlimit="10" stroke-linecap="round" stroke-linejoin="round"/>
<path d="M312.191 159.173C311.932 158.424 311.219 157.85 310.432 157.766C309.645 157.683 308.822 158.081 308.405 158.757" stroke="#263238" stroke-width="2" stroke-miterlimit="10" stroke-linecap="round" stroke-linejoin="round"/>
<path d="M335.656 179.065C335.656 179.065 338.775 173.965 342.034 175.094C345.292 176.233 343.737 180.907 342.172 183.879C340.617 186.859 336.646 186.998 334.378 185.721" stroke="#263238" stroke-miterlimit="10" stroke-linecap="round" stroke-linejoin="round"/>
<path d="M343.005 181.926C343.005 181.926 346.106 176.696 342.811 174.956C339.525 173.215 335.471 179.112 335.471 179.112C335.369 179.186 335.054 179.112 334.638 178.964C333.036 178.381 332.287 176.576 332.935 174.993C333.073 174.669 333.184 174.345 333.286 174.039C333.721 172.725 333.879 171.235 333.62 169.865C333.083 167.032 331.065 164.727 331.389 161.701C331.639 159.386 332.416 156.998 333.49 154.925C316.653 158.294 306.554 148.751 308.803 140.901C311.043 133.043 316.375 140.059 328.158 135.57C339.942 131.08 348.393 150.223 348.393 150.223C360.176 158.359 348.911 169.8 348.911 169.8L342.894 182.259L343.005 181.926Z" fill="#263238"/>
<path d="M360.694 262.068C361.129 276.924 366.23 300.473 366.23 300.473C366.22 300.482 366.202 300.491 366.193 300.5C366.137 300.537 366.072 300.584 366.017 300.63C365.591 300.935 365.165 301.232 364.739 301.528" stroke="#263238" stroke-miterlimit="10" stroke-linecap="round" stroke-linejoin="round"/>
<path d="M306.98 301.527C305.48 297.991 304.018 294.178 302.574 290.17C300.463 284.301 298.417 278.007 296.474 271.527" stroke="#263238" stroke-miterlimit="10" stroke-linecap="round" stroke-linejoin="round"/>
<path d="M338.257 202.53C338.257 202.53 362.194 211.036 365.841 213.295" stroke="#263238" stroke-miterlimit="10" stroke-linecap="round" stroke-linejoin="round"/>
<path d="M316.764 209.408C314.885 208.029 313.829 204.493 314.255 201.892L314.838 195.783" stroke="#263238" stroke-miterlimit="10" stroke-linecap="round" stroke-linejoin="round"/>
<path d="M335.989 186.322C335.989 186.322 334.786 190.349 335.776 197.56" stroke="#263238" stroke-miterlimit="10" stroke-linecap="round" stroke-linejoin="round"/>
<path d="M328.019 271.676L285.468 241.759L276.156 250.072C276.156 250.072 314.051 292.29 329.01 298.936C329.01 298.936 358.852 266.761 368.498 250.803C368.498 250.803 378.245 234.863 365.998 213.296" stroke="#263238" stroke-miterlimit="10" stroke-linecap="round" stroke-linejoin="round"/>
<path d="M322.91 268.167L345.764 237.862" stroke="#263238" stroke-miterlimit="10" stroke-linecap="round" stroke-linejoin="round"/>
<path d="M323.613 268.649L337.914 269.315" stroke="#263238" stroke-miterlimit="10" stroke-linecap="round" stroke-linejoin="round"/>
<path d="M348.652 151.51C348.652 151.51 350.503 144.095 345.866 138.375" stroke="#263238" stroke-miterlimit="10" stroke-linecap="round"/>
<path d="M267.177 243.499L258.448 255.625L216.915 235.446L213.036 243.989L254.561 279.303L286.597 261.641" stroke="#263238" stroke-miterlimit="10" stroke-linecap="round" stroke-linejoin="round"/>
<path d="M285.468 218.23L307.516 207.251" stroke="#263238" stroke-miterlimit="10" stroke-linecap="round" stroke-linejoin="round"/>
<path d="M215.767 237.677L216.961 226.551L212.5 218.266C212.5 218.266 213.138 212.407 211.861 212.444C210.584 212.481 210.648 226.717 210.648 226.717C210.648 226.717 206.872 229.383 208.269 235.224" stroke="#263238" stroke-miterlimit="10" stroke-linecap="round" stroke-linejoin="round"/>
<path d="M201.142 237.103L213.036 243.989" stroke="#263238" stroke-miterlimit="10" stroke-linecap="round" stroke-linejoin="round"/>
<path d="M283.404 230.836L285.653 234.77L285.218 241.759" stroke="#263238" stroke-miterlimit="10" stroke-linecap="round" stroke-linejoin="round"/>
<path d="M279.359 239.241C279.359 238.639 266.705 224.986 266.705 224.986L265.261 226.124L270.454 236.279L266.103 228.642L264.882 230.086L266.02 235.668L264.502 231.613L262.447 232.678L268.047 244.609L276.026 249.756" stroke="#263238" stroke-miterlimit="10" stroke-linecap="round" stroke-linejoin="round"/>
<path d="M335.869 197.56C335.869 197.56 325.955 205.4 316.754 208.936C316.754 208.936 317.643 219.553 319.939 220.256C320.79 220.515 322.086 219.636 322.78 219.266C324.419 218.377 325.983 217.331 327.52 216.285C330.667 214.138 333.721 211.861 336.739 209.547C337.331 209.093 338.211 208.667 338.257 207.871C338.461 204.15 338.673 200.485 335.906 197.606L335.869 197.56Z" stroke="#263238" stroke-miterlimit="10" stroke-linecap="round" stroke-linejoin="round"/>
<path d="M316.754 208.936C316.754 208.936 314.227 217.729 312.108 217.424C309.988 217.118 307.415 206.677 307.415 206.677C307.415 206.677 309.84 198.356 314.375 199.716" stroke="#263238" stroke-miterlimit="10" stroke-linecap="round" stroke-linejoin="round"/>
<path d="M258.587 255.32C258.967 258.467 258.976 261.651 258.633 264.798" stroke="#263238" stroke-miterlimit="10" stroke-linecap="round" stroke-linejoin="round"/>
<path d="M289.291 235.344L292.817 246.822" stroke="#263238" stroke-miterlimit="10" stroke-linecap="round" stroke-linejoin="round"/>
<path d="M343.866 228.198C341.163 233.289 339.914 239.139 340.303 244.888" stroke="#263238" stroke-miterlimit="10" stroke-linecap="round" stroke-linejoin="round"/>
<path d="M337.776 234.761C337.424 238.131 337.544 241.555 338.118 244.888" stroke="#263238" stroke-miterlimit="10" stroke-linecap="round" stroke-linejoin="round"/>
<path d="M260.059 256.634C261.04 258.439 261.67 260.438 261.892 262.484" stroke="#263238" stroke-miterlimit="10" stroke-linecap="round" stroke-linejoin="round"/>
<path d="M311.552 142.207C311.848 143.725 312.857 145.02 314.098 145.937C315.338 146.853 316.801 147.418 318.263 147.899C322.577 149.315 327.121 150.047 331.666 150.065C332.657 150.065 333.675 150.037 334.628 150.315C335.582 150.593 336.498 151.222 336.822 152.166" stroke="white" stroke-width="0.5" stroke-miterlimit="10" stroke-linecap="round" stroke-linejoin="round"/>
<path d="M314.977 138.615C315.579 141.132 318.18 142.743 320.744 143.104C323.308 143.474 325.9 142.882 328.464 142.521C331.028 142.16 333.777 142.058 336.063 143.271C338.349 144.493 339.877 147.455 338.72 149.769" stroke="white" stroke-width="0.5" stroke-miterlimit="10" stroke-linecap="round" stroke-linejoin="round"/>
<path d="M289.291 301.528H306.98H307.331H364.74H364.777H397.646" stroke="#263238" stroke-miterlimit="10" stroke-linecap="round" stroke-linejoin="round"/>
<path d="M248.174 301.528H280.886" stroke="#263238" stroke-miterlimit="10" stroke-linecap="round" stroke-linejoin="round"/>
<path d="M319.957 314.413H259.161L235.955 326.955H299.658L319.957 314.413Z" stroke="#263238" stroke-miterlimit="10" stroke-linecap="round" stroke-linejoin="round"/>
<path d="M263.141 317.689H308.035" stroke="#263238" stroke-miterlimit="10" stroke-linecap="round" stroke-linejoin="round"/>
<path d="M259.865 320.031H303.509" stroke="#263238" stroke-miterlimit="10" stroke-linecap="round" stroke-linejoin="round"/>
<path d="M256.588 322.364H298.954" stroke="#263238" stroke-miterlimit="10" stroke-linecap="round" stroke-linejoin="round"/>
<path d="M308.266 317.689L295.409 324.002" stroke="#263238" stroke-miterlimit="10" stroke-linecap="round" stroke-linejoin="round"/>
<path d="M301.25 317.689L288.393 324.002" stroke="#263238" stroke-miterlimit="10" stroke-linecap="round" stroke-linejoin="round"/>
<path d="M225.08 283.218H288.782L299.659 326.955H235.956L225.08 283.218Z" fill="#263238"/>
<path d="M299.667 326.946H235.391V330.056H299.667V326.946Z" stroke="#263238" stroke-miterlimit="10" stroke-linecap="round" stroke-linejoin="round"/>
<path d="M224.376 283.218H288.087L298.954 326.955H235.252L224.376 283.218Z" fill="white" stroke="#263238" stroke-miterlimit="10" stroke-linecap="round" stroke-linejoin="round"/>
<path d="M299.658 326.955L320.402 314.339L320.392 316.699L299.889 330.463L299.658 326.955Z" fill="#263238"/>
<path d="M264.437 303.75C264.724 305.61 263.447 307.35 261.586 307.637C259.726 307.924 257.986 306.647 257.699 304.786C257.43 303.056 258.523 301.408 260.216 300.973C262.151 300.575 264.039 301.824 264.437 303.75Z" stroke="#263238" stroke-miterlimit="10" stroke-linecap="round" stroke-linejoin="round"/>
</svg>
