<svg width="66" height="66" viewBox="0 0 66 66" fill="none" xmlns="http://www.w3.org/2000/svg">
<mask id="mask0" mask-type="alpha" maskUnits="userSpaceOnUse" x="50" y="26" width="16" height="25">
<path d="M52.408 26.4151H55.116C57.062 26.4151 58.9513 26.9697 60.579 28.0187C63.4838 29.8889 65.218 33.0659 65.218 36.5172V40.398C65.218 45.9682 60.6862 50.5 55.116 50.5H52.408C51.3543 50.5 50.5 49.6457 50.5 48.592V28.3231C50.5 27.2694 51.3543 26.4151 52.408 26.4151Z" fill="#C4C4C4"/>
</mask>
<g mask="url(#mask0)">
<path d="M41.4753 54.2728C41.2228 54.2728 40.9851 54.1391 40.8513 53.9163C40.6434 53.5746 40.7474 53.1289 41.0891 52.906L41.6536 52.5495L41.4605 52.6683C41.1188 52.8615 40.6731 52.7575 40.4651 52.4158C40.2571 52.0741 40.3611 51.6284 40.7028 51.4055L43.6295 49.5187L41.0296 51.0192C40.6879 51.2124 40.2422 51.1084 40.0343 50.7667C39.8263 50.425 39.9302 49.9793 40.2571 49.7564L45.5757 46.28L40.5542 49.177C40.2125 49.3702 39.7668 49.2662 39.5588 48.9245C39.3508 48.5828 39.44 48.1371 39.7817 47.9142L48.0717 42.3579L39.9897 47.0228C39.648 47.216 39.2171 47.112 38.9943 46.7851C38.7863 46.4583 38.8606 46.0126 39.1874 45.7897L51.6372 36.9204L39.2171 44.0961C38.8754 44.2892 38.4446 44.1852 38.2218 43.8584C38.0138 43.5167 38.1029 43.0858 38.4297 42.863L47.3585 36.6827L38.5932 41.7487C38.2515 41.9419 37.8057 41.8379 37.5978 41.4962C37.3898 41.1545 37.4789 40.7088 37.8058 40.5008L42.8421 37.0987L38.0732 39.8471C37.7315 40.0402 37.2858 39.9363 37.0778 39.5946C36.8698 39.2529 36.959 38.8072 37.3007 38.5992L40.5691 36.4153L37.6275 38.1238C37.2858 38.3169 36.855 38.2129 36.647 37.8861C36.439 37.5592 36.5132 37.1135 36.8252 36.8907L45.5163 30.4578L36.9144 35.4199C36.5875 35.613 36.1418 35.509 35.9338 35.197C35.711 34.8702 35.7853 34.4393 36.0973 34.2016L43.793 28.2739L36.1864 32.6714C35.8447 32.8645 35.4139 32.7605 35.2059 32.4337C34.9979 32.1068 35.0722 31.6612 35.3841 31.4383L39.1429 28.675L35.6516 30.6806C35.3099 30.8738 34.879 30.7698 34.671 30.4429C34.4482 30.1161 34.5225 29.6852 34.8345 29.4475L37.9098 27.1002L35.1316 28.7047C34.7899 28.8978 34.3739 28.7938 34.1511 28.4819C33.9282 28.155 34.0025 27.7242 34.3145 27.4865L35.8596 26.2831L34.671 26.9665C34.3739 27.1448 33.9728 27.0853 33.7499 26.8179C33.5122 26.5505 33.5122 26.1642 33.7202 25.882L36.0527 22.8661L33.9134 24.0992C33.6608 24.2477 33.3339 24.2329 33.0962 24.0546C32.8585 23.8763 32.7545 23.5792 32.8139 23.2821L33.0368 22.3758C32.7843 22.3758 32.5465 22.2421 32.4128 22.0044C32.2048 21.6478 32.3237 21.2021 32.6802 20.9941L33.7499 20.3702C34.0025 20.2216 34.3293 20.2365 34.5671 20.4147C34.8048 20.593 34.9088 20.8901 34.8493 21.1873L34.6562 21.945L38.5783 19.6868C38.8903 19.5085 39.2765 19.5679 39.4994 19.8353C39.7371 20.1028 39.7371 20.489 39.5291 20.7713L37.1966 23.7872L44.2238 19.7313C44.5655 19.5382 44.9963 19.6422 45.2043 19.9542C45.4272 20.281 45.3529 20.7119 45.0409 20.9496L43.4958 22.1678L47.21 20.0136C47.5517 19.8205 47.9825 19.9245 48.1905 20.2513C48.4133 20.5782 48.3391 21.009 48.0271 21.2467L44.9518 23.594L50.0179 20.6673C50.3596 20.4742 50.7904 20.5782 50.9984 20.905C51.2064 21.2319 51.1321 21.6776 50.8201 21.9004L47.0614 24.6637L52.7218 21.3953C53.0486 21.2021 53.4943 21.3061 53.7023 21.6181C53.9102 21.945 53.8508 22.3758 53.5389 22.6135L45.8432 28.5413L55.9902 22.6729C56.3319 22.4798 56.7627 22.5838 56.9707 22.9106C57.1787 23.2375 57.1044 23.6832 56.7924 23.906L48.1014 30.3389L58.8278 24.1437C59.1695 23.9506 59.6152 24.0546 59.8232 24.3963C60.0312 24.738 59.942 25.1837 59.6003 25.4065L56.3319 27.6053L60.566 25.1688C60.9077 24.9608 61.3534 25.0797 61.5614 25.4214C61.7694 25.7631 61.6803 26.2088 61.3534 26.4168L56.317 29.8041L62.2745 26.3574C62.6162 26.1642 63.0619 26.2682 63.2699 26.5951C63.4779 26.9368 63.3888 27.3676 63.0619 27.5905L54.1182 33.7708L64.2504 27.9173C64.5921 27.7242 65.023 27.8282 65.2458 28.155C65.4538 28.4819 65.3795 28.9275 65.0527 29.1504L52.6029 38.0198L66.4641 30.0269C66.8058 29.8338 67.2515 29.9378 67.4594 30.2795C67.6674 30.6212 67.5783 31.0669 67.2366 31.2897L58.9466 36.8461L67.9497 31.6463C68.2914 31.4532 68.7371 31.5572 68.9451 31.8989C69.1531 32.2406 69.0491 32.6863 68.7223 32.9091L63.4036 36.3855L69.0937 33.1022C69.4354 32.9091 69.881 33.0131 70.089 33.3548C70.297 33.6965 70.1931 34.1422 69.8514 34.3651L66.9246 36.2518L70.0148 34.469C70.3713 34.2759 70.8022 34.3799 71.0102 34.7216C71.2182 35.0633 71.1142 35.509 70.7725 35.7319L70.2079 36.0884L70.8467 35.717C71.1884 35.5239 71.6193 35.6279 71.8421 35.9547C72.0501 36.2815 71.961 36.7272 71.649 36.9501L63.047 42.9967L71.9907 37.8266C72.3324 37.6335 72.7781 37.7375 72.9861 38.0792C73.1941 38.4209 73.1049 38.8666 72.7632 39.0894L72.5701 39.2083L72.5998 39.1934C72.9415 39.0003 73.3724 39.1043 73.5952 39.4311C73.8032 39.758 73.7289 40.2037 73.4021 40.4265L71.7381 41.615L73.2981 40.7088C73.61 40.5305 74.0112 40.6048 74.234 40.8722C74.4569 41.1545 74.4569 41.5556 74.2192 41.823L71.3964 45.0766L74.13 43.5018C74.3974 43.3384 74.754 43.383 74.9917 43.591C75.2294 43.799 75.3037 44.1407 75.1849 44.4229L74.8877 45.1212C75.17 45.0915 75.4671 45.2252 75.6157 45.4778C75.8237 45.8343 75.7048 46.28 75.3483 46.488L73.7735 47.3942C73.5061 47.5577 73.1495 47.5131 72.9118 47.3051C72.6741 47.0971 72.5998 46.7554 72.7187 46.4731L72.9712 45.864L68.3063 48.5531C67.9943 48.7313 67.5932 48.657 67.3703 48.3896C67.1475 48.1074 67.1475 47.7062 67.3852 47.4388L70.2079 44.1852L59.318 50.4696C58.9763 50.6627 58.5455 50.5587 58.3227 50.2319C58.1147 49.905 58.189 49.4593 58.5158 49.2365L60.1797 48.0479L54.0291 51.5987C53.6874 51.7918 53.2417 51.6878 53.0337 51.3461C52.8257 51.0044 52.9149 50.5587 53.2566 50.3358L53.4349 50.217L49.3196 52.594C48.9779 52.7872 48.547 52.6832 48.3242 52.3563C48.1162 52.0295 48.2053 51.5838 48.5173 51.3609L57.1193 45.3143L41.8022 54.154C41.7279 54.2431 41.6091 54.2728 41.4753 54.2728Z" fill="#C6B5DD"/>
</g>
<path d="M60.2161 28.3954L60.2163 28.3955C62.9775 30.1732 64.6252 33.1919 64.6252 36.4729V40.3537C64.6252 45.6479 60.3174 49.9559 55.0232 49.9559H52.3151C51.5376 49.9559 50.9072 49.3255 50.9072 48.5479V28.279C50.9072 27.5014 51.5376 26.871 52.3151 26.871H55.0232C56.8735 26.871 58.6687 27.3983 60.2161 28.3954Z" stroke="#263238"/>
<path d="M42.8581 65C50.1332 65 56.3169 60.2422 58.4641 53.6752" stroke="#263238"/>
<path d="M6.22034 23.2885C8.33373 10.6575 19.3406 1 32.5626 1C45.7845 1 56.7915 10.6575 58.9047 23.2886" stroke="#263238"/>
<mask id="mask1" mask-type="alpha" maskUnits="userSpaceOnUse" x="0" y="26" width="15" height="25">
<path d="M12.8101 26.4151H10.102C8.15604 26.4151 6.26677 26.9697 4.63903 28.0187C1.73421 29.8889 0 33.0659 0 36.5172V40.398C0 45.9682 4.5318 50.5 10.102 50.5H12.8101C13.8638 50.5 14.718 49.6457 14.718 48.592V28.3231C14.718 27.2694 13.8638 26.4151 12.8101 26.4151Z" fill="#C4C4C4"/>
</mask>
<g mask="url(#mask1)">
<path d="M-0.835144 54.688C-1.08771 54.688 -1.32543 54.5543 -1.45914 54.3314C-1.66713 53.9897 -1.56313 53.544 -1.22143 53.3212L-0.656873 52.9646L-0.850016 53.0835C-1.19172 53.2766 -1.63739 53.1726 -1.84538 52.8309C-2.05337 52.4892 -1.94942 52.0435 -1.60771 51.8206L1.31903 49.9339L-1.28087 51.4344C-1.62257 51.6275 -2.06824 51.5235 -2.27623 51.1818C-2.48422 50.8401 -2.38024 50.3944 -2.05339 50.1716L3.26523 46.6951L-1.75624 49.5922C-2.09794 49.7853 -2.54366 49.6813 -2.75165 49.3396C-2.95964 48.9979 -2.87051 48.5522 -2.52881 48.3294L5.76117 42.773L-2.3208 47.438C-2.6625 47.6311 -3.09336 47.5271 -3.31621 47.2003C-3.5242 46.8734 -3.44991 46.4277 -3.12307 46.2049L9.32673 37.3355L-3.09337 44.5112C-3.43507 44.7044 -3.86588 44.6004 -4.08873 44.2735C-4.29673 43.9318 -4.20761 43.501 -3.88077 43.2781L5.04804 37.0978L-3.71732 42.1639C-4.05902 42.357 -4.50474 42.253 -4.71273 41.9113C-4.92072 41.5696 -4.83156 41.1239 -4.50471 40.9159L0.531633 37.5138L-4.23731 40.2622C-4.57901 40.4554 -5.02468 40.3514 -5.23267 40.0097C-5.44066 39.668 -5.35153 39.2223 -5.00983 39.0143L-1.74142 36.8304L-4.68299 38.5389C-5.02469 38.732 -5.45553 38.628 -5.66352 38.3012C-5.87152 37.9743 -5.79724 37.5287 -5.48525 37.3058L3.20584 30.8729L-5.39612 35.835C-5.72296 36.0281 -6.16866 35.9241 -6.37666 35.6121C-6.5995 35.2853 -6.5252 34.8545 -6.21321 34.6168L1.48247 28.689L-6.12407 33.0865C-6.46578 33.2797 -6.89662 33.1757 -7.10461 32.8488C-7.3126 32.522 -7.23833 32.0763 -6.92634 31.8534L-3.16763 29.0901L-6.65893 31.0957C-7.00063 31.2889 -7.43148 31.1849 -7.63947 30.8581C-7.86232 30.5312 -7.78801 30.1004 -7.47603 29.8627L-4.40071 27.5153L-7.17892 29.1198C-7.52062 29.313 -7.93657 29.209 -8.15942 28.897C-8.38226 28.5701 -8.308 28.1393 -7.99601 27.9016L-6.45092 26.6982L-7.63947 27.3816C-7.9366 27.5599 -8.33772 27.5005 -8.56057 27.233C-8.79828 26.9656 -8.79826 26.5794 -8.59027 26.2971L-6.25778 23.2812L-8.39713 24.5143C-8.64969 24.6629 -8.97656 24.648 -9.21426 24.4697C-9.45197 24.2914 -9.55597 23.9943 -9.49654 23.6972L-9.27366 22.7909C-9.52622 22.7909 -9.76394 22.6572 -9.89765 22.4195C-10.1056 22.063 -9.9868 21.6173 -9.63024 21.4093L-8.56057 20.7853C-8.30801 20.6367 -7.98114 20.6516 -7.74343 20.8299C-7.50573 21.0082 -7.40173 21.3053 -7.46116 21.6024L-7.6543 22.3601L-3.73219 20.1019C-3.4202 19.9236 -3.03394 19.9831 -2.81109 20.2505C-2.57339 20.5179 -2.57336 20.9042 -2.78135 21.1864L-5.11384 24.2023L1.91333 20.1465C2.25503 19.9533 2.68583 20.0573 2.89382 20.3693C3.11667 20.6962 3.04241 21.127 2.73042 21.3647L1.18533 22.5829L4.89946 20.4287C5.24117 20.2356 5.67201 20.3396 5.88 20.6665C6.10285 20.9933 6.02859 21.4241 5.7166 21.6618L2.64128 24.0092L7.70737 21.0824C8.04908 20.8893 8.47992 20.9933 8.68791 21.3201C8.8959 21.647 8.82163 22.0927 8.50964 22.3155L4.75089 25.0789L10.4113 21.8104C10.7381 21.6173 11.1838 21.7213 11.3918 22.0333C11.5998 22.3601 11.5404 22.7909 11.2284 23.0286L3.53269 28.9564L13.6797 23.0881C14.0214 22.8949 14.4522 22.9989 14.6602 23.3258C14.8682 23.6526 14.7939 24.0983 14.482 24.3212L5.79087 30.7541L16.5173 24.5589C16.859 24.3657 17.3047 24.4697 17.5127 24.8114C17.7207 25.1531 17.6315 25.5988 17.2898 25.8217L14.0214 28.0204L18.2555 25.584C18.5972 25.376 19.0429 25.4948 19.2509 25.8365C19.4589 26.1782 19.3698 26.6239 19.0429 26.8319L14.0065 30.2192L19.964 26.7725C20.3057 26.5794 20.7514 26.6834 20.9594 27.0102C21.1674 27.3519 21.0783 27.7827 20.7514 28.0056L11.8078 34.1859L21.9399 28.3324C22.2816 28.1393 22.7125 28.2433 22.9353 28.5701C23.1433 28.897 23.069 29.3427 22.7422 29.5655L10.2924 38.4349L24.1536 30.4421C24.4953 30.2489 24.941 30.3529 25.149 30.6946C25.3569 31.0363 25.2678 31.482 24.9261 31.7049L16.6361 37.2612L25.6392 32.0614C25.9809 31.8683 26.4266 31.9723 26.6346 32.314C26.8426 32.6557 26.7386 33.1014 26.4118 33.3242L21.0931 36.8007L26.7832 33.5174C27.1249 33.3242 27.5706 33.4282 27.7786 33.7699C27.9865 34.1116 27.8826 34.5573 27.5409 34.7802L24.6141 36.667L27.7043 34.8842C28.0608 34.691 28.4917 34.795 28.6997 35.1367C28.9077 35.4784 28.8037 35.9241 28.462 36.147L27.8974 36.5035L28.5363 36.1321C28.878 35.939 29.3088 36.043 29.5317 36.3698C29.7397 36.6967 29.6505 37.1424 29.3385 37.3652L20.7366 43.4118L29.6802 38.2418C30.0219 38.0486 30.4676 38.1526 30.6756 38.4943C30.8836 38.836 30.7945 39.2817 30.4528 39.5046L30.2596 39.6234L30.2893 39.6086C30.631 39.4154 31.0619 39.5194 31.2847 39.8463C31.4927 40.1731 31.4184 40.6188 31.0916 40.8416L29.4277 42.0302L30.9876 41.1239C31.2996 40.9456 31.7007 41.0199 31.9235 41.2873C32.1464 41.5696 32.1464 41.9707 31.9087 42.2382L29.0859 45.4918L31.8195 43.917C32.087 43.7535 32.4435 43.7981 32.6812 44.0061C32.9189 44.2141 32.9932 44.5558 32.8744 44.8381L32.5772 45.5363C32.8595 45.5066 33.1566 45.6403 33.3052 45.8929C33.5132 46.2494 33.3943 46.6951 33.0378 46.9031L31.463 47.8094C31.1956 47.9728 30.839 47.9282 30.6013 47.7202C30.3636 47.5122 30.2893 47.1706 30.4082 46.8883L30.6607 46.2792L25.9958 48.9682C25.6838 49.1465 25.2827 49.0722 25.0598 48.8048C24.837 48.5225 24.837 48.1214 25.0747 47.8539L27.8974 44.6004L17.0075 50.8847C16.6658 51.0778 16.235 50.9738 16.0122 50.647C15.8042 50.3201 15.8785 49.8744 16.2053 49.6516L17.8693 48.4631L11.7186 52.0138C11.3769 52.2069 10.9312 52.1029 10.7233 51.7612C10.5153 51.4195 10.6044 50.9738 10.9461 50.751L11.1244 50.6321L7.00912 53.0092C6.66741 53.2023 6.23656 53.0983 6.01371 52.7715C5.80571 52.4446 5.89486 51.9989 6.20685 51.7761L14.8088 45.7295L-0.508299 54.5691C-0.582582 54.6583 -0.701435 54.688 -0.835144 54.688Z" fill="#C6B5DD"/>
</g>
<path d="M4.90969 28.395L4.90988 28.3949C6.45646 27.3982 8.25161 26.871 10.102 26.871H12.8101C13.5876 26.871 14.218 27.5014 14.218 28.279V48.5479C14.218 49.3255 13.5876 49.9559 12.8101 49.9559H10.102C4.80794 49.9559 0.5 45.6479 0.5 40.3538V36.473C0.5 33.192 2.14765 30.1733 4.90969 28.395Z" stroke="#263238"/>
</svg>
