<svg width="202" height="323" viewBox="0 0 202 323" fill="none" xmlns="http://www.w3.org/2000/svg">
<path d="M127.267 322.23C151.205 322.23 170.61 316.463 170.61 309.349C170.61 302.236 151.205 296.469 127.267 296.469C103.329 296.469 83.9231 302.236 83.9231 309.349C83.9231 316.463 103.329 322.23 127.267 322.23Z" fill="#C6B5DD"/>
<path opacity="0.5" d="M127.267 322.23C151.205 322.23 170.61 316.463 170.61 309.349C170.61 302.236 151.205 296.469 127.267 296.469C103.329 296.469 83.9231 302.236 83.9231 309.349C83.9231 316.463 103.329 322.23 127.267 322.23Z" fill="white"/>
<path d="M81.2882 154.923C81.2882 154.923 83.0832 170.795 83.8496 178.993C84.6159 187.191 86.6628 210.485 86.4109 213.309C86.159 216.122 83.5976 245.399 83.5976 256.663C83.5976 267.927 85.1302 283.809 85.1302 283.809C85.1302 283.809 82.5689 288.165 83.0833 290.464C83.5976 292.774 84.112 295.073 84.112 296.353C84.112 297.634 84.6264 299.429 84.6264 299.429C84.6264 299.429 88.4684 301.99 90.7673 302.242C93.0767 302.494 97.6851 300.962 97.6851 300.195C97.6851 299.429 99.732 291.745 99.732 288.932C99.732 286.118 99.7321 287.137 100.498 283.295C101.265 279.453 109.463 226.368 110.481 221.507C111.51 216.647 113.043 180.022 113.043 180.022L114.838 183.349C114.838 183.349 119.194 222.526 118.932 226.882C118.68 231.238 117.137 247.877 117.903 255.561C118.669 263.245 120.212 282.192 120.212 284.239C120.212 286.286 119.698 290.895 119.698 292.69C119.698 294.485 118.165 297.298 118.932 298.579C119.698 299.859 120.464 302.421 120.464 302.421C120.464 302.421 129.681 303.953 132.242 303.953C134.804 303.953 136.851 301.644 136.851 301.644C136.851 301.644 136.851 299.597 136.851 297.288C136.851 294.978 137.365 292.931 137.365 290.632C137.365 288.323 137.617 283.463 137.617 279.873C137.617 276.282 138.383 271.937 138.646 269.627C138.898 267.318 142.488 240.434 143.002 230.451C143.516 220.468 145.815 197.93 145.815 194.34C145.815 190.75 145.563 157.211 145.563 157.211L145.049 151.07C145.049 151.07 118.165 154.66 105.359 152.865C92.5519 151.07 82.0545 150.556 82.0545 150.556L81.2882 154.923Z" fill="#263238" stroke="#263238" stroke-miterlimit="10" stroke-linecap="round" stroke-linejoin="round"/>
<path d="M98.6823 296.122C98.6823 296.122 97.979 296.826 96.5619 297.256C95.1552 297.676 94.3049 297.96 93.1712 296.406C92.0375 294.852 89.7806 293.015 87.954 293.866C86.117 294.716 84.007 295.986 83.5766 296.973C83.1567 297.96 83.4402 308.257 83.4402 310.241C83.4402 312.215 87.2507 313.065 91.0612 313.202C94.8718 313.338 97.832 311.228 97.832 311.228C97.832 311.228 101.076 311.512 102.209 310.094C103.343 308.688 102.776 305.434 102.073 304.31C101.37 303.177 100.803 302.19 99.816 300.216C98.8188 298.243 98.6823 296.122 98.6823 296.122Z" fill="white" stroke="#263238" stroke-miterlimit="10" stroke-linecap="round" stroke-linejoin="round"/>
<path d="M102.209 310.095C102.577 309.633 102.766 308.971 102.829 308.258C100.971 309.108 98.7768 308.572 97.979 308.688C96.9922 308.824 94.7353 310.378 89.6546 310.095C86.6733 309.927 84.6159 309.223 83.4297 308.677C83.4402 309.37 83.4507 309.916 83.4507 310.231C83.4507 312.205 87.2612 313.055 91.0717 313.191C94.8823 313.328 97.8425 311.218 97.8425 311.218C97.8425 311.218 101.076 311.501 102.209 310.095Z" fill="#C6B5DD" stroke="#263238" stroke-miterlimit="10" stroke-linecap="round" stroke-linejoin="round"/>
<path d="M97.2652 311.228L97.832 304.447" stroke="#263238" stroke-miterlimit="10" stroke-linecap="round" stroke-linejoin="round"/>
<path d="M94.3469 297.456C93.969 297.298 93.5911 296.973 93.1817 296.406C92.048 294.852 89.7911 293.015 87.9645 293.866C86.4319 294.569 84.7103 295.577 83.944 296.458C84.5529 298.201 86.033 301.277 88.9513 301.487C91.3342 301.655 93.1817 299.566 94.3469 297.456Z" fill="#C6B5DD" stroke="#263238" stroke-miterlimit="10" stroke-linecap="round" stroke-linejoin="round"/>
<path d="M137.061 299.346C137.061 299.346 134.94 299.913 133.817 299.21C132.683 298.506 130.993 294.276 127.183 294.696C123.372 295.116 121.682 298.643 120.832 299.073C119.981 299.493 119.845 299.64 119.562 300.06C119.278 300.48 119.142 311.922 119.278 313.045C119.415 314.168 127.466 315.302 132.4 314.735C137.334 314.168 139.034 312.058 139.454 311.775C139.874 311.492 141.711 310.925 141.994 308.384C142.278 305.844 141.428 303.02 140.021 302.033C138.614 301.047 137.481 299.913 137.481 299.913L137.061 299.346Z" fill="white" stroke="#263238" stroke-miterlimit="10" stroke-linecap="round" stroke-linejoin="round"/>
<path d="M131.56 311.48C126.427 311.585 121.378 310.514 119.236 309.58C119.226 311.281 119.247 312.666 119.289 313.034C119.425 314.167 127.477 315.291 132.41 314.724C137.344 314.157 139.045 312.047 139.465 311.764C139.884 311.48 141.721 310.913 142.005 308.373C142.078 307.743 142.078 307.092 142.015 306.462C141.816 306.893 141.575 307.355 141.302 307.806C140.451 309.223 138.331 311.344 131.56 311.48Z" fill="#C6B5DD" stroke="#263238" stroke-miterlimit="10" stroke-linecap="round" stroke-linejoin="round"/>
<path d="M137.103 306.662L136.284 313.653" stroke="#263238" stroke-miterlimit="10" stroke-linecap="round" stroke-linejoin="round"/>
<path d="M127.613 303.019C130.153 303.313 132.883 301.308 134.384 299.44C134.184 299.387 133.995 299.314 133.827 299.209C132.694 298.506 131.004 294.275 127.193 294.695C123.383 295.115 121.692 298.642 120.842 299.072C120.832 299.072 123.939 302.6 127.613 303.019Z" fill="#C6B5DD" stroke="#263238" stroke-miterlimit="10" stroke-linecap="round" stroke-linejoin="round"/>
<path d="M113.043 180.022L106.891 176.946" stroke="#636363" stroke-miterlimit="10" stroke-linecap="round" stroke-linejoin="round"/>
<path d="M126.038 35.536C126.038 35.536 127.571 32.9746 128.085 36.3023C128.6 39.63 127.319 43.2201 125.524 44.5007C123.729 45.7814 122.963 44.5008 122.963 43.2201C122.973 41.9289 126.038 35.536 126.038 35.536Z" fill="white" stroke="#263238" stroke-miterlimit="10" stroke-linecap="round" stroke-linejoin="round"/>
<path d="M96.079 36.8172C96.079 36.8172 93.2657 36.0509 93.2657 39.1266C93.2657 42.2023 97.3596 46.5482 99.1547 45.53C100.95 44.4907 96.079 36.8172 96.079 36.8172Z" fill="white" stroke="#263238" stroke-miterlimit="10" stroke-linecap="round" stroke-linejoin="round"/>
<path d="M110.933 6.84723C110.933 6.84723 106.933 13.5026 102.734 15.2976C97.3596 17.607 93.0032 24.5143 93.2552 30.1514C93.5071 35.7884 101.706 54.2218 102.986 54.7361C104.267 55.2505 120.401 53.9698 120.916 53.2035C121.43 52.4372 123.729 44.7532 125.776 37.3316C127.823 29.9099 127.823 26.0679 127.823 26.0679C127.823 26.0679 128.852 23.2546 128.852 18.6463C128.852 14.0379 125.524 10.4478 125.524 10.4478L122.448 14.2899L123.477 5.58756C123.477 5.58756 120.149 5.07319 117.336 6.86823C114.523 8.66328 112.476 11.2246 112.476 11.2246L110.933 6.84723Z" fill="#263238" stroke="#263238" stroke-miterlimit="10" stroke-linecap="round" stroke-linejoin="round"/>
<path d="M200.811 13.7753C200.433 12.6311 199.289 12.6311 198.334 10.1537C197.378 7.67632 194.712 8.24317 193.956 7.86526C193.19 7.48736 193.19 7.09896 193.578 5.95475C193.956 4.81054 194.912 1 193.2 1C191.489 1 190.156 4.99949 189.768 5.95475C189.39 6.91001 186.335 10.9095 186.335 10.9095C186.335 10.9095 184.813 11.2874 183.858 11.2874C182.903 11.2874 181.758 13.1979 181.569 14.1427C181.454 14.741 182.378 16.6725 183.081 18.0372C183.532 19.7063 184.236 21.3753 184.236 21.3753C184.236 21.3753 185.191 22.7085 188.046 22.3306C190.902 21.9527 196.245 25.7632 197 25.1859C197.767 24.619 199.478 21.1864 200.244 19.2759C201 17.3969 201.189 14.9195 200.811 13.7753Z" fill="white" stroke="#263238" stroke-miterlimit="10" stroke-linecap="round" stroke-linejoin="round"/>
<path d="M77.5616 173.031C77.5616 173.031 81.0257 178.311 81.2042 180.316C81.3826 182.321 81.3826 186.152 81.5716 187.423C81.7501 188.703 81.0257 189.606 80.1125 189.606C79.1992 189.606 78.6533 188.693 78.6533 188.693C78.6533 188.693 78.8318 190.519 79.1992 191.79C79.5666 193.07 81.5716 194.162 81.3826 195.432C81.2042 196.713 79.1992 197.259 76.4594 197.259C73.7196 197.259 70.4444 195.8 68.8068 191.968C67.1692 188.136 65.5211 177.209 65.5211 175.204C65.5421 173.209 75.7456 171.572 77.5616 173.031Z" fill="white" stroke="#263238" stroke-miterlimit="10" stroke-linecap="round" stroke-linejoin="round"/>
<path d="M73.7406 179.77C73.7406 179.77 74.4649 181.408 73.0162 183.958C71.5571 186.509 70.8328 188.336 70.8328 188.882C70.8328 189.428 71.7461 191.065 72.4704 192.524C73.1947 193.983 75.5671 193.805 75.7561 195.075C75.9345 196.356 75.3886 197.08 75.3886 197.08" stroke="#263238" stroke-miterlimit="10" stroke-linecap="round" stroke-linejoin="round"/>
<path d="M76.0395 187.569C76.0395 187.569 76.2915 189.984 77.0263 191.8C77.7506 193.626 81.5821 194.718 80.123 196.723" stroke="#263238" stroke-miterlimit="10" stroke-linecap="round" stroke-linejoin="round"/>
<path d="M73.7406 188.336C73.7406 188.336 74.108 190.708 74.6539 191.8C75.1997 192.892 78.8423 193.983 78.118 196.902" stroke="#263238" stroke-miterlimit="10" stroke-linecap="round" stroke-linejoin="round"/>
<path d="M78.6639 188.703C78.6639 188.703 78.2965 185.785 78.118 184.693C77.9395 183.601 77.9395 181.596 77.9395 181.596" stroke="#263238" stroke-miterlimit="10" stroke-linecap="round" stroke-linejoin="round"/>
<path d="M138.446 61.1917C138.446 61.1917 132.305 55.817 122.06 53.7701C111.814 51.7231 98.2414 55.0507 92.8668 58.6303C87.4921 62.2204 86.9778 68.3614 86.9778 68.3614L138.446 61.1917Z" fill="white" stroke="#263238" stroke-miterlimit="10" stroke-linecap="round" stroke-linejoin="round"/>
<path d="M180.698 29.9515C180.698 29.9515 180.184 27.9045 180.698 26.8758C181.212 25.847 181.464 22.7818 182.231 22.0155C182.997 21.2492 188.634 18.1735 192.728 19.9685C196.822 21.7635 198.869 29.4476 199.646 31.2322C200.412 33.0272 198.113 37.1212 197.084 37.6355C196.056 38.1499 195.037 34.5598 194.009 33.5416C192.99 32.5128 184.278 28.4189 180.698 29.9515Z" fill="white" stroke="#263238" stroke-miterlimit="10" stroke-linecap="round" stroke-linejoin="round"/>
<path d="M113.095 60.6877C112.066 60.9397 92.6043 63.501 83.902 66.0624C75.1997 68.6237 68.03 71.9514 67.7676 75.279C67.5157 78.6067 60.3985 140.636 60.1465 144.226C59.8946 147.816 62.4559 168.548 63.7366 169.325C65.0173 170.091 70.9063 170.605 72.9533 169.839C75.0003 169.073 76.281 167.53 76.281 167.53L77.0473 150.377C77.0473 150.377 77.5616 156.266 78.5799 156.518C79.6086 156.77 95.7325 161.641 117.756 159.846C139.779 158.051 148.996 154.723 150.791 153.442C152.586 152.162 152.324 148.32 152.324 148.32C152.324 148.32 152.576 145.506 152.576 142.683C152.576 139.869 144.325 83.215 144.325 83.215C144.325 83.215 178.126 73.9984 180.688 70.9226C183.249 67.8469 195.541 34.3079 195.541 31.7465C195.541 29.1852 189.904 25.3431 185.81 25.0912C181.716 24.8393 171.723 45.0676 169.424 46.6003C167.115 48.1329 145.102 56.8457 136.903 58.3783C128.715 59.9109 113.095 60.6877 113.095 60.6877Z" fill="#C6B5DD" stroke="#263238" stroke-miterlimit="10" stroke-linecap="round" stroke-linejoin="round"/>
<path d="M104.981 78.0398C104.981 78.0398 108.455 91.6549 118.596 97.2604" stroke="#263238" stroke-miterlimit="10" stroke-linecap="round" stroke-linejoin="round"/>
<path d="M119.971 103.307C120.737 103.706 121.514 104.094 122.322 104.462" stroke="#263238" stroke-miterlimit="10" stroke-linecap="round" stroke-linejoin="round"/>
<path d="M104.981 92.1902C104.981 92.1902 109.306 96.851 116.244 101.176" stroke="#263238" stroke-miterlimit="10" stroke-linecap="round" stroke-linejoin="round"/>
<path d="M145.658 93.597L144.335 83.2151L131.696 87.8759L136.578 89.8809C134.195 91.9699 131.077 94.9406 133.009 94.5942C134.741 94.2793 137.942 92.6732 140.294 91.403L145.658 93.597Z" fill="#263238" stroke="#263238" stroke-miterlimit="10" stroke-linecap="round" stroke-linejoin="round"/>
<path d="M74.7378 142.945C74.7378 138.337 76.9843 91.4135 76.9843 91.4135L76.218 88.0858L70.5284 79.0476L73.5516 96.5887C71.1478 95.8434 66.3085 94.5627 68.1455 96.9981C69.6991 99.0766 72.2605 101.25 73.8771 102.541L72.1555 137.234C72.0085 140.132 72.7224 143.008 74.192 145.517L75.9555 148.519C75.3572 147.228 74.7378 145.328 74.7378 142.945Z" fill="#263238" stroke="#263238" stroke-miterlimit="10" stroke-linecap="round" stroke-linejoin="round"/>
<path d="M75.9555 148.508C76.5119 149.705 77.0472 150.366 77.0472 150.366L75.9555 148.508Z" fill="#263238" stroke="#263238" stroke-miterlimit="10" stroke-linecap="round" stroke-linejoin="round"/>
<path d="M151.305 147.039C112.129 164.706 77.0472 150.366 77.0472 150.366C77.0472 150.366 77.5616 156.255 78.5799 156.507C79.6086 156.759 95.7325 161.63 117.756 159.835C139.779 158.04 148.996 154.712 150.791 153.432C152.586 152.151 152.324 148.309 152.324 148.309C152.324 148.309 152.376 147.721 152.439 146.808L151.305 147.039Z" fill="white" stroke="#263238" stroke-miterlimit="10" stroke-linecap="round" stroke-linejoin="round"/>
<path d="M60.9128 166.753C60.9128 166.753 66.8019 169.314 71.6726 167.782C76.5329 166.249 77.8136 164.706 78.5904 164.968C79.3567 165.22 79.3567 171.372 78.5904 173.167C77.8241 174.962 76.029 176.242 70.6544 176.757C65.2797 177.271 62.456 174.71 61.9521 173.167C61.4272 171.624 60.9128 166.753 60.9128 166.753Z" fill="white" stroke="#263238" stroke-miterlimit="10" stroke-linecap="round" stroke-linejoin="round"/>
<path d="M39.7291 307.333C60.7683 307.333 77.824 302.041 77.824 295.513C77.824 288.985 60.7683 283.693 39.7291 283.693C18.6898 283.693 1.63419 288.985 1.63419 295.513C1.63419 302.041 18.6898 307.333 39.7291 307.333Z" fill="#C6B5DD"/>
<path opacity="0.5" d="M39.7291 307.333C60.7683 307.333 77.824 302.041 77.824 295.513C77.824 288.985 60.7683 283.693 39.7291 283.693C18.6898 283.693 1.63419 288.985 1.63419 295.513C1.63419 302.041 18.6898 307.333 39.7291 307.333Z" fill="white"/>
<path d="M45.7441 27.1908C45.7441 27.1908 48.9248 30.9278 48.7358 32.429C48.5469 33.9196 49.1137 36.355 49.859 37.2892C50.6044 38.2235 52.6618 38.9688 52.6618 40.6589C52.6618 42.349 51.5386 43.8396 51.5386 43.8396C51.5386 43.8396 52.2839 51.3137 51.5386 53.1822C50.7933 55.0508 47.8016 55.0508 46.122 55.0508C44.4424 55.0508 43.5081 54.8618 42.9413 54.8618C42.3849 54.8618 39.0153 51.8701 36.4014 45.3302C33.7876 38.7904 36.7793 29.0698 39.0153 27.7576C41.2617 26.4455 45.7441 27.1908 45.7441 27.1908Z" fill="white" stroke="#263238" stroke-miterlimit="10" stroke-linecap="round" stroke-linejoin="round"/>
<path d="M44.4424 38.6013L52.1055 34.2974" stroke="#263238" stroke-miterlimit="10" stroke-linecap="round" stroke-linejoin="round"/>
<path d="M48.7359 33.5522C48.7359 33.5522 52.8508 32.429 51.3497 38.4125" stroke="#263238" stroke-miterlimit="10" stroke-linecap="round" stroke-linejoin="round"/>
<path d="M37.5561 60.7301L36.4014 74.6391L21.6212 71.1645V60.1527C21.6212 60.1422 32.045 57.8223 37.5561 60.7301Z" fill="white" stroke="#263238" stroke-miterlimit="10" stroke-linecap="round" stroke-linejoin="round"/>
<path d="M36.0341 20.9553C36.0341 20.9553 31.9926 22.11 27.6677 21.5327C23.3428 20.9553 13.8217 22.11 11.2288 28.4504C8.63597 34.7908 11.8062 40.5644 11.5122 42.2964C11.2288 44.0285 6.60998 46.6213 6.60998 49.2142C6.60998 51.807 8.62547 54.1164 7.76469 56.1319C6.90391 58.1474 5.45527 59.8795 6.60998 61.895C7.76469 63.9105 12.373 60.4568 12.9504 62.4723C13.5277 64.4878 17.8526 67.0912 19.8681 67.0912C21.8836 67.0912 24.193 62.7663 25.3478 64.4983C26.5025 66.2304 28.8119 67.9624 31.1108 67.6685C33.4202 67.3851 34.5539 62.0524 39.4772 64.2044C44.3165 66.3249 45.996 61.853 45.8176 57.864C45.6496 54.1059 41.1988 48.9202 42.07 46.044C42.9308 43.1572 44.6629 41.1417 44.0855 37.9715C43.5082 34.8013 40.9153 33.6466 42.3535 31.3372C43.7916 29.0278 45.8176 29.0278 46.3949 26.1515C46.9723 23.2647 45.8176 19.5172 41.4927 18.9398C37.1888 18.3625 36.0341 20.9553 36.0341 20.9553Z" fill="white" stroke="#263238" stroke-miterlimit="10" stroke-linecap="round" stroke-linejoin="round"/>
<path d="M10.0222 168.235C10.0222 168.235 14.0742 191.413 12.0482 213.73C11.2294 222.684 6.83103 225.036 5.67633 236.908C4.52162 248.791 8.57359 272.841 6.5476 285.595C6.27467 287.338 4.22769 291.683 6.5476 294.003C8.86752 296.323 16.982 294.875 19.3019 294.875C21.6218 294.875 27.1224 294.003 27.7103 292.555C28.2876 291.106 24.2356 289.657 21.6218 284.734C19.0185 279.811 16.982 273.145 16.982 266.479C16.982 259.813 21.034 240.981 24.2251 225.624C27.4163 210.266 29.1484 201.858 29.1484 193.166C29.1484 184.474 29.1484 167.374 29.1484 165.925C29.1484 164.477 21.3279 161.002 15.2394 162.157C9.16145 163.311 10.0222 168.235 10.0222 168.235Z" fill="white" stroke="#263238" stroke-miterlimit="10" stroke-linecap="round" stroke-linejoin="round"/>
<path d="M21.6211 284.722C21.1802 283.883 20.7604 282.969 20.351 282.035C19.6056 283.631 19.3327 285.552 17.8526 285.877C15.2492 286.455 6.54694 285.583 6.54694 285.583C6.25301 287.326 4.22703 291.672 6.54694 293.992C8.86686 296.312 16.9813 294.863 19.3012 294.863C21.6211 294.863 27.1218 293.992 27.7096 292.543C28.287 291.094 24.2245 289.646 21.6211 284.722Z" fill="#263238" stroke="#263238" stroke-miterlimit="10" stroke-linecap="round" stroke-linejoin="round"/>
<path d="M17.6216 273.06C17.2227 270.908 16.9813 268.693 16.9813 266.468C16.9813 259.802 21.0333 240.969 24.2245 225.612C27.4157 210.254 29.1477 201.846 29.1477 193.154C29.1477 184.462 29.1477 167.362 29.1477 165.913C29.1477 164.465 21.3272 160.99 15.2387 162.145C9.15027 163.3 10.0216 168.233 10.0216 168.233C10.0216 168.233 14.0735 191.412 12.0475 213.729C11.2287 222.683 6.83036 225.035 5.67565 236.907C4.83586 245.536 6.74638 260.579 7.0718 273.06C9.60166 273.7 13.2757 274.099 17.6216 273.06Z" fill="#C6B5DD" stroke="#263238" stroke-miterlimit="10" stroke-linecap="round" stroke-linejoin="round"/>
<path d="M6.26352 267.622C6.26352 267.622 10.6094 268.494 12.9293 268.494C15.2493 268.494 18.4299 267.339 18.4299 267.339L19.3012 274.876C19.3012 274.876 14.378 276.325 11.1868 276.325C7.99558 276.325 6.84088 275.747 6.84088 275.747C6.84088 275.747 6.26352 269.942 6.26352 267.622Z" fill="white" stroke="#263238" stroke-miterlimit="10" stroke-linecap="round" stroke-linejoin="round"/>
<path d="M6.84109 146.787C6.84109 146.787 5.09853 158.376 6.84109 164.171C8.58365 169.965 13.213 178.08 14.3782 180.4C15.5434 182.72 16.9815 189.963 16.9815 191.411C16.9815 192.86 18.1362 209.96 16.4042 218.652C14.6616 227.344 12.6356 232.267 12.6356 240.675C12.6356 249.084 16.6876 280.45 16.6876 285.951C16.6876 291.451 14.6616 298.411 16.1102 299.859C17.5589 301.308 42.4796 298.358 44.7995 297.487C47.1194 296.616 47.1194 294.012 46.2481 292.847C45.3769 291.693 34.9425 288.27 33.2104 286.822C31.4679 285.373 30.3132 280.733 30.0192 278.707C29.7253 276.681 30.5966 245.599 31.7618 238.649C32.9165 231.69 37.5563 218.075 40.1702 210.538C42.7735 203 47.4133 176.348 47.4133 166.785C47.4133 157.221 46.5421 149.684 46.5421 149.684C46.5421 149.684 19.5849 151.71 6.84109 146.787Z" fill="white" stroke="#263238" stroke-miterlimit="10" stroke-linecap="round" stroke-linejoin="round"/>
<path d="M44.7993 297.487C47.1192 296.616 47.1192 294.013 46.2479 292.847C45.3767 291.693 34.9423 288.271 33.2102 286.822C32.9583 286.612 32.7169 286.329 32.4964 286.003L31.7616 290.591C31.7616 290.591 29.1583 292.91 25.3897 292.91C22.4924 292.91 18.2305 291.021 16.4145 290.16C15.9106 294.538 14.8924 298.936 16.1205 299.87C21.9991 304.342 42.4794 298.359 44.7993 297.487Z" fill="#263238" stroke="#263238" stroke-miterlimit="10" stroke-linecap="round" stroke-linejoin="round"/>
<path d="M29.9665 277.626C29.8826 272.084 30.7014 245 31.7511 238.649C32.9058 231.69 37.5456 218.075 40.1595 210.538C42.7628 203 47.4026 176.348 47.4026 166.785C47.4026 157.221 46.5314 149.684 46.5314 149.684C46.5314 149.684 19.5847 151.71 6.83038 146.787C6.83038 146.787 5.08782 158.376 6.83038 164.171C8.57294 169.965 13.2023 178.08 14.3675 180.4C15.5327 182.72 16.9708 189.963 16.9708 191.411C16.9708 192.86 18.1255 209.96 16.3935 218.652C14.6509 227.344 12.6249 232.267 12.6249 240.675C12.6249 246.627 14.6614 265.995 15.8476 276.513C18.7029 277.248 22.7654 278.13 25.9565 278.13C27.4157 278.13 28.7698 277.92 29.9665 277.626Z" fill="#C6B5DD" stroke="#263238" stroke-miterlimit="10" stroke-linecap="round" stroke-linejoin="round"/>
<path d="M15.8266 280.156C15.8266 280.156 18.4299 281.311 21.9151 281.311C25.4002 281.311 30.6069 282.182 30.3234 280.439C30.0295 278.697 30.6174 272.902 30.6174 272.902C30.6174 272.902 24.2455 273.774 20.4769 273.196C16.7084 272.619 14.3885 272.325 14.3885 272.325C14.3885 272.325 14.9553 278.424 15.8266 280.156Z" fill="white" stroke="#263238" stroke-miterlimit="10" stroke-linecap="round" stroke-linejoin="round"/>
<path d="M39.5821 77.8197C39.5821 77.8197 35.5302 72.0252 27.6991 69.9992C19.8786 67.9732 12.3415 79.5623 10.3155 85.9342C8.28953 92.306 7.99561 109.406 5.09834 118.098C2.20107 126.79 0.175083 144.173 1.32979 146.21C2.4845 148.236 27.4052 154.618 36.1075 154.618C44.7993 154.618 54.079 147.659 54.3624 144.184C54.6563 140.709 52.9138 117.521 51.4651 105.06C50.0165 92.6 39.5821 77.8197 39.5821 77.8197Z" fill="#263238" stroke="#263238" stroke-miterlimit="10" stroke-linecap="round" stroke-linejoin="round"/>
<path d="M35.7191 174.164C35.7191 174.164 35.6246 178.185 35.7191 180.547C35.8136 182.898 35.3307 185.354 34.8373 186.929C34.344 188.504 33.1683 189.574 33.0738 188.504C32.9793 187.433 33.4622 185.459 33.4622 184.578C33.4622 183.696 33.1682 179.665 33.1682 179.665C33.1682 179.665 32.8743 181.722 32.2865 183.979C31.6986 186.236 30.0295 188.588 29.2422 188.787C28.4549 188.986 27.9616 188.294 28.3605 187.212C28.7489 186.131 29.7356 182.993 29.8301 182.3C29.9246 181.617 29.9246 179.455 29.9246 179.455C29.9246 179.455 28.056 184.851 27.2792 186.037C26.4919 187.212 26.3975 187.8 25.6102 187.905C24.8229 188 24.9278 186.331 25.4107 185.06C25.9041 183.78 26.6914 179.665 26.6914 179.266C26.6914 178.878 25.8096 181.029 24.7284 182.216C23.6472 183.391 22.8599 184.378 22.377 184.179C21.8836 183.979 22.5764 182.121 22.9648 181.229C23.3532 180.347 23.9516 178.584 23.9516 177.985C23.9516 177.397 23.9516 175.434 23.9516 175.434C23.9516 175.434 23.0698 173.471 27.1953 172.789C31.2997 172.107 34.8373 171.319 35.7191 174.164Z" fill="white" stroke="#263238" stroke-miterlimit="10" stroke-linecap="round" stroke-linejoin="round"/>
<path d="M21.3378 171.424C21.3378 171.424 20.414 174.028 22.5764 175.476C24.7389 176.925 32.4544 178.08 34.9213 175.77C37.3882 173.45 37.3882 171.13 37.3882 171.13L21.3378 171.424Z" fill="white" stroke="#263238" stroke-miterlimit="10" stroke-linecap="round" stroke-linejoin="round"/>
<path d="M23.6472 81.2942C23.6472 81.2942 17.2753 91.7285 17.2753 98.3944C17.2753 105.06 13.8006 151.71 13.5067 157.505C13.2128 163.299 13.8006 167.939 17.2753 170.837C20.7499 173.734 34.9528 173.734 38.7214 172.285C42.4899 170.837 45.9645 164.171 45.9645 159.531C45.9645 154.891 41.6186 120.701 40.7473 114.035C39.8761 107.37 39.5926 89.6921 36.9788 85.6401C34.3754 81.5881 33.5042 81.2942 33.5042 81.2942" fill="#263238"/>
<path d="M23.6472 81.2942C23.6472 81.2942 17.2753 91.7285 17.2753 98.3944C17.2753 105.06 13.8006 151.71 13.5067 157.505C13.2128 163.299 13.8006 167.939 17.2753 170.837C20.7499 173.734 34.9528 173.734 38.7214 172.285C42.4899 170.837 45.9645 164.171 45.9645 159.531C45.9645 154.891 41.6186 120.701 40.7473 114.035C39.8761 107.37 39.5926 89.6921 36.9788 85.6401C34.3754 81.5881 33.5042 81.2942 33.5042 81.2942" stroke="#263238" stroke-miterlimit="10" stroke-linecap="round" stroke-linejoin="round"/>
<path d="M14.126 147.018C14.126 147.018 15.9106 106.635 17.2752 98.3945C18.6399 90.1646 22.0305 83.3833 22.0305 83.3833" stroke="#636363" stroke-miterlimit="10" stroke-linecap="round" stroke-linejoin="round"/>
<path d="M35.2047 83.761C35.2047 83.761 40.212 93.3871 40.4744 103.716C40.7368 114.046 44.243 147.018 44.243 147.018" stroke="#636363" stroke-miterlimit="10" stroke-linecap="round" stroke-linejoin="round"/>
<path d="M39.2987 93.7545L40.1595 87.96" stroke="#636363" stroke-miterlimit="10" stroke-linecap="round" stroke-linejoin="round"/>
</svg>
