<svg width="424" height="435" viewBox="0 0 424 435" fill="none" xmlns="http://www.w3.org/2000/svg">
<path d="M406.633 130.718C409.509 92.4863 402.819 50.2872 373.612 24.2519C347.403 0.888366 307.427 -4.27179 273.07 5.03893C238.714 14.3497 209.374 36.2854 184.95 61.3622C160.536 86.4389 140.232 114.922 117.552 141.477C93.964 169.103 67.7043 194.761 47.1758 224.57C26.6473 254.379 11.9215 289.572 15.0421 325.234C16.3372 340.082 20.8651 354.92 29.9515 366.974C40.8735 381.476 57.5777 391.011 74.8428 397.69C106.722 410.03 141.354 413.813 175.497 417.495C211.954 421.421 248.402 425.347 284.859 429.263C307.325 431.68 331.229 433.883 351.503 424.246C369.349 415.771 381.791 399.016 388.654 381.017C395.517 363.028 397.424 343.672 398.944 324.551C404.175 258.519 406.633 130.718 406.633 130.718Z" fill="#C6B5DD"/>
<g opacity="0.7">
<path opacity="0.7" d="M406.633 130.534C409.509 92.3015 402.819 50.1024 373.612 24.067C347.403 0.703551 307.427 -4.45661 273.07 4.85411C238.714 14.1648 209.374 36.1006 184.95 61.1774C160.536 86.2541 140.232 114.737 117.552 141.292C93.964 168.919 67.7043 194.577 47.1758 224.385C26.6473 254.194 11.9215 289.387 15.0421 325.049C16.3372 339.897 20.8651 354.735 29.9515 366.789C40.8735 381.291 57.5777 390.826 74.8428 397.506C106.722 409.845 141.354 413.629 175.497 417.31C211.954 421.236 248.402 425.162 284.859 429.078C307.325 431.495 331.229 433.698 351.503 424.061C369.349 415.587 381.791 398.831 388.654 380.832C395.517 362.843 397.424 343.487 398.944 324.366C404.175 258.334 406.633 130.534 406.633 130.534Z" fill="white"/>
</g>
<path d="M295.516 94.5453H71.406V424.021H295.516V94.5453Z" fill="#263238"/>
<path d="M286.44 419.89H58.6381L69.6722 289.153C71.5895 266.503 72.3237 243.762 71.875 221.041L69.3255 90.4152H292.263L293.313 250.635C293.395 263.556 293.14 276.477 292.538 289.377L286.44 419.89Z" fill="#BFBFBF" stroke="#263238" stroke-linecap="round" stroke-linejoin="round"/>
<path d="M276.956 415.444H46.7169L53.7739 378.782C68.8057 289.132 72.5483 249.442 70.4679 133.267L68.102 85.9688H286.481L289.051 130.626C294.578 325.039 276.956 415.444 276.956 415.444Z" fill="white" stroke="#263238" stroke-miterlimit="10" stroke-linecap="round" stroke-linejoin="round"/>
<path d="M81.0228 102.591C77.7493 102.591 75.0774 99.9298 75.0774 96.6461C75.0774 93.3725 77.7391 90.7007 81.0228 90.7007C81.5123 90.7007 81.91 91.0984 81.91 91.5879C81.91 92.0774 81.5123 92.4751 81.0228 92.4751C78.7283 92.4751 76.8518 94.3414 76.8518 96.6461C76.8518 98.9406 78.7181 100.817 81.0228 100.817C83.3173 100.817 85.1938 98.9508 85.1938 96.6461C85.1938 96.1566 85.5915 95.7589 86.081 95.7589C86.5705 95.7589 86.9682 96.1566 86.9682 96.6461C86.9682 99.9196 84.2963 102.591 81.0228 102.591Z" fill="#263238"/>
<path d="M80.8799 100.134C75.4444 100.134 75.1487 88.4061 75.1487 86.0504V85.979C75.1487 83.613 75.424 71.8242 80.8799 71.8242C86.3154 71.8242 86.7132 84.5614 86.7437 86.0096L82.0119 86.1013C81.9405 82.5117 81.3898 79.7174 80.8391 78.0246C80.3394 79.6664 79.8703 82.3791 79.8703 85.9892V86.0605C79.8805 89.7114 80.37 92.4445 80.8697 94.0659C80.9207 93.8926 80.9819 93.709 81.0329 93.4949L81.4102 92.2099L84.7042 93.1685C85.3874 93.3725 85.7851 94.0863 85.5812 94.7798C84.6328 98.3083 83.0419 100.134 80.8799 100.134Z" fill="#BFBFBF" stroke="#263238" stroke-miterlimit="10" stroke-linecap="round" stroke-linejoin="round"/>
<path d="M86.0809 97.5333C85.5914 97.5333 85.1937 97.1356 85.1937 96.6461C85.1937 94.3515 83.3275 92.4751 81.0227 92.4751C80.5332 92.4751 80.1355 92.0774 80.1355 91.5879C80.1355 91.0984 80.5332 90.7007 81.0227 90.7007C84.2963 90.7007 86.9681 93.3623 86.9681 96.6461C86.9681 97.1356 86.5704 97.5333 86.0809 97.5333Z" fill="#263238"/>
<path d="M109.036 102.591C105.763 102.591 103.091 99.9298 103.091 96.6461C103.091 93.3725 105.753 90.7007 109.036 90.7007C109.526 90.7007 109.924 91.0984 109.924 91.5879C109.924 92.0774 109.526 92.4751 109.036 92.4751C106.742 92.4751 104.865 94.3414 104.865 96.6461C104.865 98.9406 106.732 100.817 109.036 100.817C111.331 100.817 113.207 98.9508 113.207 96.6461C113.207 96.1566 113.605 95.7589 114.095 95.7589C114.584 95.7589 114.982 96.1566 114.982 96.6461C114.982 99.9196 112.32 102.591 109.036 102.591Z" fill="#263238"/>
<path d="M108.894 100.134C103.458 100.134 103.162 88.4061 103.162 86.0504V85.979C103.162 83.613 103.438 71.8242 108.894 71.8242C114.329 71.8242 114.727 84.5614 114.758 86.0096L110.026 86.1013C109.954 82.5117 109.404 79.7174 108.853 78.0246C108.353 79.6664 107.884 82.3791 107.884 85.9892V86.0605C107.894 89.7114 108.384 92.4445 108.884 94.0659C108.935 93.8926 108.996 93.709 109.047 93.4949L109.424 92.2099L112.718 93.1685C113.401 93.3725 113.799 94.0863 113.595 94.7798C112.647 98.3083 111.056 100.134 108.894 100.134Z" fill="#BFBFBF" stroke="#263238" stroke-miterlimit="10" stroke-linecap="round" stroke-linejoin="round"/>
<path d="M114.095 97.5333C113.605 97.5333 113.207 97.1356 113.207 96.6461C113.207 94.3515 111.341 92.4751 109.037 92.4751C108.547 92.4751 108.149 92.0774 108.149 91.5879C108.149 91.0984 108.547 90.7007 109.037 90.7007C112.31 90.7007 114.982 93.3623 114.982 96.6461C114.982 97.1356 114.584 97.5333 114.095 97.5333Z" fill="#263238"/>
<path d="M137.05 102.591C133.777 102.591 131.105 99.9298 131.105 96.6461C131.105 93.3725 133.767 90.7007 137.05 90.7007C137.54 90.7007 137.937 91.0984 137.937 91.5879C137.937 92.0774 137.54 92.4751 137.05 92.4751C134.756 92.4751 132.879 94.3414 132.879 96.6461C132.879 98.9406 134.746 100.817 137.05 100.817C139.345 100.817 141.221 98.9508 141.221 96.6461C141.221 96.1566 141.619 95.7589 142.108 95.7589C142.598 95.7589 142.996 96.1566 142.996 96.6461C142.996 99.9196 140.334 102.591 137.05 102.591Z" fill="#263238"/>
<path d="M136.918 100.134C131.482 100.134 131.187 88.4061 131.187 86.0504V85.979C131.187 83.613 131.462 71.8242 136.918 71.8242C142.353 71.8242 142.751 84.5614 142.782 86.0096L138.05 86.1013C137.978 82.5117 137.428 79.7174 136.877 78.0246C136.377 79.6664 135.908 82.3791 135.908 85.9892V86.0605C135.918 89.7114 136.408 92.4445 136.908 94.0659C136.959 93.8926 137.02 93.709 137.071 93.4949L137.448 92.2099L140.742 93.1685C141.425 93.3725 141.823 94.0863 141.619 94.7798C140.66 98.3083 139.07 100.134 136.918 100.134Z" fill="#BFBFBF" stroke="#263238" stroke-miterlimit="10" stroke-linecap="round" stroke-linejoin="round"/>
<path d="M142.108 97.5333C141.619 97.5333 141.221 97.1356 141.221 96.6461C141.221 94.3515 139.355 92.4751 137.05 92.4751C136.561 92.4751 136.163 92.0774 136.163 91.5879C136.163 91.0984 136.561 90.7007 137.05 90.7007C140.324 90.7007 142.996 93.3623 142.996 96.6461C142.996 97.1356 142.598 97.5333 142.108 97.5333Z" fill="#263238"/>
<path d="M165.074 102.591C161.801 102.591 159.129 99.9298 159.129 96.6461C159.129 93.3725 161.791 90.7007 165.074 90.7007C165.564 90.7007 165.962 91.0984 165.962 91.5879C165.962 92.0774 165.564 92.4751 165.074 92.4751C162.78 92.4751 160.903 94.3414 160.903 96.6461C160.903 98.9406 162.77 100.817 165.074 100.817C167.369 100.817 169.245 98.9508 169.245 96.6461C169.245 96.1566 169.643 95.7589 170.132 95.7589C170.622 95.7589 171.02 96.1566 171.02 96.6461C171.01 99.9196 168.348 102.591 165.074 102.591Z" fill="#263238"/>
<path d="M164.931 100.134C159.496 100.134 159.2 88.4061 159.2 86.0504V85.979C159.2 83.613 159.476 71.8242 164.931 71.8242C170.367 71.8242 170.765 84.5614 170.795 86.0096L166.063 86.1013C165.992 82.5117 165.441 79.7174 164.891 78.0246C164.391 79.6664 163.922 82.3791 163.922 85.9892V86.0605C163.932 89.7114 164.422 92.4445 164.921 94.0659C164.972 93.8926 165.033 93.709 165.084 93.4949L165.462 92.2099L168.756 93.1685C169.439 93.3725 169.837 94.0863 169.633 94.7798C168.674 98.3083 167.093 100.134 164.931 100.134Z" fill="#BFBFBF" stroke="#263238" stroke-miterlimit="10" stroke-linecap="round" stroke-linejoin="round"/>
<path d="M170.122 97.5333C169.633 97.5333 169.235 97.1356 169.235 96.6461C169.235 94.3515 167.369 92.4751 165.064 92.4751C164.575 92.4751 164.177 92.0774 164.177 91.5879C164.177 91.0984 164.575 90.7007 165.064 90.7007C168.338 90.7007 171.01 93.3623 171.01 96.6461C171.01 97.1356 170.612 97.5333 170.122 97.5333Z" fill="#263238"/>
<path d="M192.915 102.592C189.641 102.592 186.969 99.9299 186.969 96.6462C186.969 93.3727 189.631 90.7008 192.915 90.7008C193.404 90.7008 193.802 91.0985 193.802 91.588C193.802 92.0775 193.404 92.4753 192.915 92.4753C190.62 92.4753 188.744 94.3415 188.744 96.6462C188.744 98.9407 190.61 100.817 192.915 100.817C195.209 100.817 197.086 98.9509 197.086 96.6462C197.086 96.1567 197.483 95.759 197.973 95.759C198.462 95.759 198.86 96.1567 198.86 96.6462C198.85 99.9198 196.188 102.592 192.915 102.592Z" fill="#263238"/>
<path d="M192.772 100.134C187.337 100.134 187.041 88.4062 187.041 86.0505V85.9791C187.041 83.6132 187.316 71.8243 192.772 71.8243C198.208 71.8243 198.605 84.5616 198.636 86.0097L193.904 86.1015C193.833 82.5118 193.282 79.7175 192.731 78.0247C192.232 79.6666 191.763 82.3792 191.763 85.9893V86.0607C191.773 89.7115 192.262 92.4446 192.762 94.0661C192.813 93.8927 192.874 93.7091 192.925 93.495L193.303 92.21L196.597 93.1686C197.28 93.3726 197.677 94.0865 197.474 94.7799C196.525 98.3084 194.934 100.134 192.772 100.134Z" fill="#BFBFBF" stroke="#263238" stroke-miterlimit="10" stroke-linecap="round" stroke-linejoin="round"/>
<path d="M197.963 97.5334C197.473 97.5334 197.076 97.1357 197.076 96.6462C197.076 94.3517 195.209 92.4753 192.905 92.4753C192.415 92.4753 192.017 92.0775 192.017 91.588C192.017 91.0985 192.415 90.7008 192.905 90.7008C196.178 90.7008 198.85 93.3625 198.85 96.6462C198.85 97.1357 198.452 97.5334 197.963 97.5334Z" fill="#263238"/>
<path d="M220.929 102.592C217.655 102.592 214.983 99.9299 214.983 96.6462C214.983 93.3727 217.645 90.7008 220.929 90.7008C221.418 90.7008 221.816 91.0985 221.816 91.588C221.816 92.0775 221.418 92.4753 220.929 92.4753C218.634 92.4753 216.758 94.3415 216.758 96.6462C216.758 98.9407 218.624 100.817 220.929 100.817C223.223 100.817 225.1 98.9509 225.1 96.6462C225.1 96.1567 225.497 95.759 225.987 95.759C226.476 95.759 226.874 96.1567 226.874 96.6462C226.874 99.9198 224.202 102.592 220.929 102.592Z" fill="#263238"/>
<path d="M220.786 100.134C215.351 100.134 215.055 88.4062 215.055 86.0505V85.9791C215.055 83.6132 215.33 71.8243 220.786 71.8243C226.222 71.8243 226.62 84.5616 226.65 86.0097L221.918 86.1015C221.847 82.5118 221.296 79.7175 220.746 78.0247C220.246 79.6666 219.777 82.3792 219.777 85.9893V86.0607C219.787 89.7115 220.276 92.4446 220.776 94.0661C220.827 93.8927 220.888 93.7091 220.939 93.495L221.317 92.21L224.611 93.1686C225.294 93.3726 225.692 94.0865 225.488 94.7799C224.539 98.3084 222.948 100.134 220.786 100.134Z" fill="#BFBFBF" stroke="#263238" stroke-miterlimit="10" stroke-linecap="round" stroke-linejoin="round"/>
<path d="M225.987 97.5334C225.497 97.5334 225.1 97.1357 225.1 96.6462C225.1 94.3517 223.233 92.4753 220.929 92.4753C220.439 92.4753 220.041 92.0775 220.041 91.588C220.041 91.0985 220.439 90.7008 220.929 90.7008C224.202 90.7008 226.874 93.3625 226.874 96.6462C226.874 97.1357 226.476 97.5334 225.987 97.5334Z" fill="#263238"/>
<path d="M248.942 102.592C245.669 102.592 242.997 99.9299 242.997 96.6462C242.997 93.3727 245.658 90.7008 248.942 90.7008C249.432 90.7008 249.829 91.0985 249.829 91.588C249.829 92.0775 249.432 92.4753 248.942 92.4753C246.648 92.4753 244.771 94.3415 244.771 96.6462C244.771 98.9407 246.637 100.817 248.942 100.817C251.237 100.817 253.113 98.9509 253.113 96.6462C253.113 96.1567 253.511 95.759 254 95.759C254.49 95.759 254.888 96.1567 254.888 96.6462C254.888 99.9198 252.216 102.592 248.942 102.592Z" fill="#263238"/>
<path d="M248.799 100.134C243.364 100.134 243.068 88.4062 243.068 86.0505V85.9791C243.068 83.6132 243.343 71.8243 248.799 71.8243C254.235 71.8243 254.632 84.5616 254.663 86.0097L249.931 86.1015C249.86 82.5118 249.309 79.7175 248.758 78.0247C248.259 79.6666 247.79 82.3792 247.79 85.9893V86.0607C247.8 89.7115 248.289 92.4446 248.789 94.0661C248.84 93.8927 248.901 93.7091 248.952 93.495L249.329 92.21L252.623 93.1686C253.307 93.3726 253.704 94.0865 253.5 94.7799C252.552 98.3084 250.961 100.134 248.799 100.134Z" fill="#BFBFBF" stroke="#263238" stroke-miterlimit="10" stroke-linecap="round" stroke-linejoin="round"/>
<path d="M254 97.5334C253.511 97.5334 253.113 97.1357 253.113 96.6462C253.113 94.3517 251.247 92.4753 248.942 92.4753C248.453 92.4753 248.055 92.0775 248.055 91.588C248.055 91.0985 248.453 90.7008 248.942 90.7008C252.216 90.7008 254.888 93.3625 254.888 96.6462C254.888 97.1357 254.49 97.5334 254 97.5334Z" fill="#263238"/>
<path d="M276.956 102.592C273.683 102.592 271.011 99.9299 271.011 96.6462C271.011 93.3727 273.672 90.7008 276.956 90.7008C277.446 90.7008 277.843 91.0985 277.843 91.588C277.843 92.0775 277.446 92.4753 276.956 92.4753C274.662 92.4753 272.785 94.3415 272.785 96.6462C272.785 98.9407 274.651 100.817 276.956 100.817C279.251 100.817 281.127 98.9509 281.127 96.6462C281.127 96.1567 281.525 95.759 282.014 95.759C282.504 95.759 282.902 96.1567 282.902 96.6462C282.902 99.9198 280.24 102.592 276.956 102.592Z" fill="#263238"/>
<path d="M276.814 100.134C271.378 100.134 271.082 88.406 271.082 86.0502V85.9788C271.082 83.6129 271.358 71.8241 276.814 71.8241C282.249 71.8241 282.647 84.5613 282.677 86.0094L277.946 86.1012C277.874 82.5115 277.324 79.7173 276.773 78.0244C276.273 79.6663 275.804 82.379 275.804 85.989V86.0604C275.814 89.7113 276.304 92.4443 276.803 94.0658C276.854 93.8924 276.916 93.7089 276.967 93.4947L277.344 92.2098L280.638 93.1684C281.321 93.3723 281.719 94.0862 281.515 94.7797C280.566 98.3082 278.976 100.134 276.814 100.134Z" fill="#BFBFBF" stroke="#263238" stroke-miterlimit="10" stroke-linecap="round" stroke-linejoin="round"/>
<path d="M282.014 97.5334C281.525 97.5334 281.127 97.1357 281.127 96.6462C281.127 94.3517 279.261 92.4753 276.956 92.4753C276.467 92.4753 276.069 92.0775 276.069 91.588C276.069 91.0985 276.467 90.7008 276.956 90.7008C280.23 90.7008 282.902 93.3625 282.902 96.6462C282.902 97.1357 282.504 97.5334 282.014 97.5334Z" fill="#263238"/>
<path d="M278.863 150.389H223.641V220.857H278.863V150.389Z" fill="#BFBFBF"/>
<path d="M275.202 221.102H227.302V221.081L228.311 215.289V214.096C228.311 209.395 229.352 204.754 231.361 200.502C231.35 200.42 231.34 200.38 231.34 200.38L243.364 197.116C243.669 195.841 243.965 194.577 244.312 194.23C244.628 193.914 245.648 193.516 246.494 193.221V191.018C245.638 189.661 244.914 188.05 244.353 186.357C244.21 186.357 244.067 186.327 243.935 186.276C243.669 186.164 243.445 185.98 243.231 185.786C242.711 185.338 242.191 184.879 241.803 184.318C241.406 183.757 241.14 183.074 241.191 182.39C241.232 181.829 241.304 180.912 241.589 180.443C241.905 179.933 242.66 179.617 242.66 179.617C242.66 179.617 242.762 178.464 242.629 177.21C241.13 163.31 260.873 159.516 261.128 177.71C261.139 178.393 261.179 179.249 261.179 179.249C261.179 179.249 261.954 179.566 262.128 180.3C262.26 180.84 262.383 181.829 262.423 182.38C262.474 183.063 262.209 183.747 261.812 184.308C261.414 184.868 260.894 185.327 260.374 185.776C260.16 185.96 259.935 186.153 259.67 186.266C259.497 186.337 259.303 186.368 259.119 186.327C258.477 188.295 257.61 190.141 256.57 191.62V193.639C258.008 194.057 259.364 194.832 259.446 196.219C259.456 196.402 259.486 196.616 259.527 196.851C264.014 197.922 271 199.91 271 199.91L271.092 200.39C272.101 202.521 272.866 204.754 273.386 207.039C273.906 209.323 274.172 211.669 274.172 214.035L275.191 221.102H275.202Z" fill="#263238"/>
<path d="M268.176 144.209H279.485" stroke="#263238" stroke-miterlimit="10"/>
<path d="M256.407 144.209H263.219" stroke="#263238" stroke-miterlimit="10"/>
<path d="M81.0227 144.209H251.257" stroke="#263238" stroke-miterlimit="10"/>
<path d="M196.076 373.428C199.074 373.428 202.083 373.428 205.081 373.428" stroke="#263238" stroke-miterlimit="10"/>
<path d="M157.15 373.428C167.929 373.428 178.709 373.428 189.498 373.428" stroke="#263238" stroke-miterlimit="10"/>
<path d="M165.462 394.253C177.995 394.028 189.213 394.028 201.695 394.253" stroke="#263238" stroke-miterlimit="10"/>
<path d="M153.765 394.253C155.468 394.253 157.181 394.253 158.884 394.253" stroke="#263238" stroke-miterlimit="10"/>
<path d="M205.652 207.487C207.763 207.487 209.863 207.487 211.974 207.487" stroke="#263238" stroke-miterlimit="10"/>
<path d="M194.862 207.467C196.249 207.477 197.636 207.487 199.023 207.498" stroke="#263238" stroke-miterlimit="10"/>
<path d="M164.054 207.487C172.039 207.436 180.035 207.416 188.019 207.436" stroke="#263238" stroke-miterlimit="10"/>
<path d="M198.054 228.301C202.694 228.301 207.334 228.301 211.985 228.301" stroke="#263238" stroke-miterlimit="10"/>
<path d="M164.054 228.301C173.11 228.301 182.156 228.301 191.211 228.301" stroke="#263238" stroke-miterlimit="10"/>
<path d="M175.741 249.126C188.193 249.217 199.411 249.217 211.975 249.126" stroke="#263238" stroke-miterlimit="10"/>
<path d="M164.054 249.126C165.686 249.126 167.318 249.126 168.949 249.126" stroke="#263238" stroke-miterlimit="10"/>
<path d="M164.054 269.94H211.974" stroke="#263238" stroke-miterlimit="10"/>
<path d="M186.092 290.927C194.72 290.998 203.347 290.937 211.974 290.754" stroke="#263238" stroke-miterlimit="10"/>
<path d="M175.129 290.764C176.496 290.794 177.862 290.825 179.229 290.845" stroke="#263238" stroke-miterlimit="10"/>
<path d="M164.054 290.764C165.533 290.764 167.022 290.764 168.501 290.764" stroke="#263238" stroke-miterlimit="10"/>
<path d="M174.813 310.976C187.173 311.425 198.391 311.425 210.73 310.976" stroke="#263238" stroke-miterlimit="10"/>
<path d="M162.81 310.976C164.595 310.976 166.379 310.976 168.164 310.976" stroke="#263238" stroke-miterlimit="10"/>
<path d="M202.776 331.8C205.05 331.8 207.334 331.8 209.608 331.8" stroke="#263238" stroke-miterlimit="10"/>
<path d="M161.678 331.8C172.896 331.821 185.133 331.821 196.331 331.8" stroke="#263238" stroke-miterlimit="10"/>
<path d="M171.427 352.614C184.114 352.217 195.331 352.217 207.345 352.614" stroke="#263238" stroke-miterlimit="10"/>
<path d="M159.414 352.614C161.199 352.614 162.983 352.614 164.768 352.614" stroke="#263238" stroke-miterlimit="10"/>
<path d="M221.346 394.253H269.267" stroke="#263238" stroke-miterlimit="10"/>
<path d="M228.383 373.316C227.863 379.812 228.302 394.589 243.843 396.792C250.829 397.781 259.151 393.222 261.598 386.94C264.555 379.363 264.025 371.032 261.69 364.75C259.395 358.59 251.217 348.872 242.538 351.911C233.187 355.184 229.026 365.362 228.383 373.316Z" stroke="#C6B5DD" stroke-miterlimit="10" stroke-linecap="round" stroke-linejoin="round"/>
<path d="M231.871 383.728C230.892 380.924 230.392 377.65 230.392 374.01C230.392 369.512 231.993 364.903 234.9 361.048" stroke="#C6B5DD" stroke-miterlimit="10" stroke-linecap="round" stroke-linejoin="round"/>
<path d="M241.916 393.559C238.02 392.59 235.032 390.194 233.044 386.441" stroke="#C6B5DD" stroke-miterlimit="10" stroke-linecap="round" stroke-linejoin="round"/>
<path d="M261.18 380.342C259.568 389.306 254.337 394.038 246.046 394.038" stroke="#C6B5DD" stroke-miterlimit="10" stroke-linecap="round" stroke-linejoin="round"/>
<path d="M258.987 363.873C260.762 367.075 261.7 370.583 261.7 374.01C261.7 375.193 261.649 376.355 261.557 377.446" stroke="#C6B5DD" stroke-miterlimit="10" stroke-linecap="round" stroke-linejoin="round"/>
<path d="M251.625 355.878C253.96 357.346 256.183 359.559 257.907 362.109" stroke="#C6B5DD" stroke-miterlimit="10" stroke-linecap="round" stroke-linejoin="round"/>
<path d="M237.949 357.734C240.641 355.347 243.588 353.981 246.046 353.981C247.188 353.981 248.432 354.277 249.748 354.868" stroke="#C6B5DD" stroke-miterlimit="10" stroke-linecap="round" stroke-linejoin="round"/>
<path d="M233.451 379.353C233.135 377.742 232.972 375.988 232.972 374.152C232.972 364.689 240.927 357.571 246.097 357.571C247.392 357.571 248.871 358.019 250.36 358.866" stroke="#C6B5DD" stroke-miterlimit="10" stroke-linecap="round" stroke-linejoin="round"/>
<path d="M238.367 388.266C236.593 386.859 235.216 384.891 234.298 382.413" stroke="#C6B5DD" stroke-miterlimit="10" stroke-linecap="round" stroke-linejoin="round"/>
<path d="M259.222 374.152C259.222 384.85 254.561 390.734 246.097 390.734C244.282 390.734 242.609 390.438 241.12 389.837" stroke="#C6B5DD" stroke-miterlimit="10" stroke-linecap="round" stroke-linejoin="round"/>
<path d="M252.919 360.711C256.213 363.618 258.447 367.677 259.048 371.858" stroke="#C6B5DD" stroke-miterlimit="10" stroke-linecap="round" stroke-linejoin="round"/>
<path d="M251.451 386.155C249.962 387.012 248.167 387.44 246.148 387.44C239.621 387.44 235.563 382.403 235.563 374.295C235.563 371.124 236.756 367.942 238.918 365.331" stroke="#C6B5DD" stroke-miterlimit="10" stroke-linecap="round" stroke-linejoin="round"/>
<path d="M241.702 362.761C243.221 361.711 244.761 361.16 246.148 361.16C250.309 361.16 256.734 366.8 256.734 374.305C256.734 378.333 255.806 381.648 254.041 383.901" stroke="#C6B5DD" stroke-miterlimit="10" stroke-linecap="round" stroke-linejoin="round"/>
<path d="M240.631 381.872C239.03 380.159 238.143 377.528 238.143 374.448C238.143 369.227 242.569 364.75 246.199 364.75C246.811 364.75 247.464 364.882 248.126 365.147" stroke="#C6B5DD" stroke-miterlimit="10" stroke-linecap="round" stroke-linejoin="round"/>
<path d="M250.36 366.484C252.787 368.472 254.245 371.45 254.245 374.448C254.245 380.516 251.237 384.146 246.189 384.146C245.057 384.146 244.006 383.953 243.068 383.565" stroke="#C6B5DD" stroke-miterlimit="10" stroke-linecap="round" stroke-linejoin="round"/>
<path d="M251.767 374.591C251.767 378.395 249.605 380.842 246.25 380.842C243.548 380.842 241.549 379.18 240.927 376.396" stroke="#C6B5DD" stroke-miterlimit="10" stroke-linecap="round" stroke-linejoin="round"/>
<path d="M240.723 374.591C240.723 371.073 243.691 368.339 246.24 368.339C248.208 368.339 250.319 369.951 251.257 372.174" stroke="#C6B5DD" stroke-miterlimit="10" stroke-linecap="round" stroke-linejoin="round"/>
<path d="M248.32 372.674C248.932 373.204 249.279 373.959 249.279 374.734C249.279 376.284 247.943 377.548 246.291 377.548C244.649 377.548 243.303 376.284 243.303 374.734C243.303 373.184 244.639 371.919 246.291 371.919" stroke="#C6B5DD" stroke-miterlimit="10" stroke-linecap="round" stroke-linejoin="round"/>
<path d="M222.866 382.749C222.417 377.028 224.314 371.154 228.036 366.79C231.758 362.425 237.255 359.61 242.976 359.151C240.304 369.349 234.481 378.691 226.517 385.595C225.099 377.181 229.229 368.105 236.49 363.638C238.265 362.547 240.264 361.701 242.354 361.67C244.445 361.64 246.627 362.537 247.739 364.301C249.115 366.473 248.565 369.431 247.096 371.542C245.628 373.653 243.415 375.101 241.263 376.498C244.139 373.051 247.004 369.604 249.88 366.167C248.932 368.278 247.963 370.573 248.483 372.827C248.993 375.08 251.757 376.906 253.674 375.621C250.696 378.65 247.728 381.679 244.751 384.707C245.811 378.17 250.523 372.358 256.703 369.981C256.06 375.662 251.502 380.669 245.913 381.872C251.767 373.806 259.986 367.463 269.277 363.842" stroke="#263238" stroke-miterlimit="10" stroke-linecap="round" stroke-linejoin="round"/>
<path d="M95.4731 122.427V124.538C95.4731 127.139 94.2188 128.556 91.6591 128.556H90.4455V134.675H87.8859V118.399H91.6489C94.2188 118.409 95.4731 119.827 95.4731 122.427ZM90.4558 120.735V126.242H91.6693C92.4851 126.242 92.9237 125.874 92.9237 124.712V122.275C92.9237 121.112 92.4851 120.745 91.6693 120.745H90.4558V120.735Z" fill="#263238"/>
<path d="M99.3382 125.272H102.846V127.597H99.3382V132.359H103.754V134.684H96.7786V118.408H103.754V120.733H99.3382V125.272Z" fill="#263238"/>
<path d="M110.678 134.684C110.535 134.266 110.444 134.011 110.444 132.685V130.126C110.444 128.616 109.934 128.056 108.771 128.056H107.884V134.684H105.324V118.408H109.179C111.831 118.408 112.973 119.642 112.973 122.151V123.426C112.973 125.098 112.442 126.189 111.3 126.73C112.575 127.26 112.993 128.494 112.993 130.197V132.706C112.993 133.491 113.013 134.072 113.268 134.684H110.678ZM107.894 120.733V125.73H108.893C109.842 125.73 110.423 125.312 110.423 124.007V122.406C110.423 121.243 110.025 120.733 109.118 120.733H107.894Z" fill="#263238"/>
<path d="M118.123 118.225C120.611 118.225 121.886 119.714 121.886 122.314V122.824H119.469V122.151C119.469 120.989 119 120.55 118.194 120.55C117.378 120.55 116.919 120.989 116.919 122.151C116.919 125.496 121.916 126.128 121.916 130.779C121.916 133.379 120.611 134.868 118.102 134.868C115.594 134.868 114.288 133.379 114.288 130.779V129.779H116.705V130.942C116.705 132.104 117.215 132.522 118.031 132.522C118.847 132.522 119.357 132.104 119.357 130.942C119.357 127.597 114.36 126.965 114.36 122.314C114.36 119.714 115.634 118.225 118.123 118.225Z" fill="#263238"/>
<path d="M123.171 122.314C123.171 119.714 124.547 118.225 127.056 118.225C129.565 118.225 130.942 119.714 130.942 122.314V130.779C130.942 133.379 129.565 134.868 127.056 134.868C124.547 134.868 123.171 133.379 123.171 130.779V122.314ZM125.72 130.942C125.72 132.104 126.23 132.543 127.046 132.543C127.862 132.543 128.372 132.104 128.372 130.942V122.151C128.372 120.989 127.862 120.55 127.046 120.55C126.23 120.55 125.72 120.989 125.72 122.151V130.942Z" fill="#263238"/>
<path d="M134.858 122.895V134.684H132.553V118.408H135.765L138.396 128.147V118.408H140.67V134.684H138.039L134.858 122.895Z" fill="#263238"/>
<path d="M150.787 134.684H148.207L147.768 131.727H144.627L144.189 134.684H141.843L144.444 118.408H148.186L150.787 134.684ZM144.954 129.524H147.422L146.188 121.294L144.954 129.524Z" fill="#263238"/>
<path d="M151.97 118.408H154.529V132.359H158.741V134.684H151.98V118.408H151.97Z" fill="#263238"/>
<path d="M163.463 118.408H167.511C170.071 118.408 171.326 119.826 171.326 122.426V130.656C171.326 133.257 170.071 134.674 167.511 134.674H163.463V118.408ZM166.012 120.733V132.359H167.45C168.266 132.359 168.756 131.941 168.756 130.778V122.314C168.756 121.152 168.266 120.733 167.45 120.733H166.012Z" fill="#263238"/>
<path d="M181.197 134.684H178.617L178.178 131.727H175.037L174.599 134.684H172.253L174.854 118.408H178.597L181.197 134.684ZM175.364 129.524H177.832L176.598 121.294L175.364 129.524Z" fill="#263238"/>
<path d="M181.646 118.408H189.549V120.733H186.877V134.684H184.318V120.733H181.646V118.408Z" fill="#263238"/>
<path d="M198.054 134.684H195.474L195.036 131.727H191.895L191.456 134.684H189.111L191.711 118.408H195.454L198.054 134.684ZM192.221 129.524H194.689L193.455 121.294L192.221 129.524Z" fill="#263238"/>
<path d="M90.4456 201.961V202.919H88.2632V207.029H87.2026V197.535H90.9759V198.494H88.2632V201.951H90.4456V201.961Z" fill="#263238"/>
<path d="M92.8728 197.534V207.029H91.8123V197.534H92.8728Z" fill="#263238"/>
<path d="M96.0748 197.534C97.5637 197.534 98.196 198.299 98.196 199.707V200.482C98.196 201.522 97.8289 202.174 97.013 202.44C97.8799 202.695 98.2062 203.398 98.2062 204.418V205.897C98.2062 206.315 98.2164 206.713 98.4 207.039H97.3292C97.2068 206.764 97.1558 206.519 97.1558 205.887V204.398C97.1558 203.327 96.6561 202.99 95.7689 202.99H95.0244V207.049H93.9639V197.555H96.0748V197.534ZM95.7995 202.011C96.6459 202.011 97.1456 201.736 97.1456 200.706V199.798C97.1456 198.942 96.8295 198.493 96.0442 198.493H95.0143V202.011H95.7995Z" fill="#263238"/>
<path d="M103.418 199.819V200.074H102.418V199.758C102.418 198.901 102.092 198.401 101.337 198.401C100.572 198.401 100.256 198.901 100.256 199.747C100.256 201.879 103.448 202.083 103.448 204.755C103.448 206.192 102.755 207.131 101.307 207.131C99.8584 207.131 99.1752 206.192 99.1752 204.755V204.214H100.164V204.816C100.164 205.672 100.521 206.172 101.276 206.172C102.031 206.172 102.388 205.672 102.388 204.816C102.388 202.695 99.216 202.491 99.216 199.819C99.216 198.35 99.889 197.443 101.317 197.443C102.734 197.443 103.418 198.381 103.418 199.819Z" fill="#263238"/>
<path d="M105.732 207.039V198.503H103.978V197.544H108.537V198.503H106.783V207.039H105.732Z" fill="#263238"/>
<path d="M112.32 207.039H111.372V197.544H112.718L114.921 204.408V197.544H115.859V207.039H114.757L112.33 199.36V207.039H112.32Z" fill="#263238"/>
<path d="M118 205.122L117.633 207.039H116.654L118.47 197.544H119.999L121.814 207.039H120.754L120.387 205.122H118ZM118.133 204.214H120.254L119.183 198.727L118.133 204.214Z" fill="#263238"/>
<path d="M126.159 207.029H125.139L123.569 199.472V207.039H122.651V197.544H124.129L125.69 205.132L127.199 197.544H128.678V207.039H127.678V199.4L126.159 207.029Z" fill="#263238"/>
<path d="M133.134 201.746V202.695H130.819V206.07H133.664V207.029H129.759V197.534H133.664V198.493H130.819V201.736H133.134V201.746Z" fill="#263238"/>
<path d="M154.58 200.553V201.868H153.561V200.553H154.58ZM154.58 205.723V207.039H153.561V205.723H154.58Z" fill="#263238"/>
<path d="M87.2026 228.302V218.808H88.2632V227.343H90.9759V228.302H87.2026Z" fill="#263238"/>
<path d="M92.842 226.394L92.4749 228.312H91.4958L93.3111 218.817H94.8408L96.656 228.312H95.5954L95.2283 226.394H92.842ZM92.9848 225.487H95.1059L94.0351 220L92.9848 225.487Z" fill="#263238"/>
<path d="M101.612 221.092V221.347H100.613V221.03C100.613 220.174 100.287 219.674 99.532 219.674C98.7671 219.674 98.451 220.174 98.451 221.02C98.451 223.152 101.643 223.356 101.643 226.027C101.643 227.465 100.949 228.404 99.5014 228.404C98.0533 228.404 97.37 227.465 97.37 226.027V225.487H98.3592V226.089C98.3592 226.945 98.7161 227.445 99.4708 227.445C100.225 227.445 100.582 226.945 100.582 226.089C100.582 223.967 97.4108 223.763 97.4108 221.092C97.4108 219.623 98.094 218.715 99.5116 218.715C100.929 218.715 101.612 219.654 101.612 221.092Z" fill="#263238"/>
<path d="M103.927 228.301V219.766H102.173V218.807H106.732V219.766H104.978V228.301H103.927Z" fill="#263238"/>
<path d="M110.515 228.301H109.567V218.807H110.913L113.116 225.67V218.807H114.054V228.301H112.952L110.525 220.622V228.301H110.515Z" fill="#263238"/>
<path d="M116.195 226.394L115.828 228.312H114.849L116.664 218.817H118.194L120.009 228.312H118.949L118.582 226.394H116.195ZM116.338 225.487H118.459L117.389 220L116.338 225.487Z" fill="#263238"/>
<path d="M124.354 228.291H123.334L121.764 220.735V228.301H120.846V218.807H122.324L123.885 226.394L125.394 218.807H126.873V228.301H125.873V220.663L124.354 228.291Z" fill="#263238"/>
<path d="M131.329 223.019V223.967H129.014V227.343H131.859V228.301H127.954V218.807H131.859V219.766H129.014V223.009H131.329V223.019Z" fill="#263238"/>
<path d="M154.886 221.816V223.131H153.867V221.816H154.886ZM154.886 226.986V228.301H153.867V226.986H154.886Z" fill="#263238"/>
<path d="M88.2632 239.55V249.045H87.2026V239.55H88.2632Z" fill="#263238"/>
<path d="M91.5673 239.55C93.046 239.55 93.7292 240.447 93.7292 241.906V246.699C93.7292 248.147 93.046 249.044 91.5673 249.044H89.3441V239.55H91.5673ZM91.5571 248.086C92.3219 248.086 92.6788 247.606 92.6788 246.739V241.855C92.6788 240.988 92.3117 240.508 91.5367 240.508H90.3945V248.075H91.5571V248.086Z" fill="#263238"/>
<path d="M97.7576 249.044H96.8092V239.55H98.1553L100.358 246.413V239.55H101.296V249.044H100.195L97.7678 241.365V249.044H97.7576Z" fill="#263238"/>
<path d="M103.377 246.801C103.377 247.657 103.713 248.167 104.488 248.167C105.253 248.167 105.59 247.647 105.59 246.801V239.54H106.579V246.75C106.579 248.188 105.916 249.146 104.447 249.146C102.999 249.146 102.326 248.188 102.326 246.75V239.54H103.366V246.801H103.377Z" fill="#263238"/>
<path d="M111.127 249.034H110.107L108.537 241.477V249.044H107.619V239.55H109.098L110.658 247.137L112.167 239.55H113.646V249.044H112.646V241.406L111.127 249.034Z" fill="#263238"/>
<path d="M116.848 239.55C118.327 239.55 118.908 240.253 118.908 241.651V242.099C118.908 243.099 118.622 243.731 117.796 243.986C118.714 244.241 119.071 244.975 119.071 246.026V246.831C119.071 248.259 118.378 249.054 116.899 249.054H114.717V239.56H116.848V239.55ZM116.593 243.578C117.44 243.578 117.868 243.303 117.868 242.313V241.753C117.868 240.906 117.582 240.508 116.828 240.508H115.787V243.578H116.593ZM116.899 248.086C117.674 248.086 118.021 247.678 118.021 246.801V245.964C118.021 244.904 117.603 244.557 116.695 244.557H115.777V248.096H116.899V248.086Z" fill="#263238"/>
<path d="M123.415 243.751V244.7H121.09V248.075H123.946V249.034H120.04V239.54H123.946V240.498H121.101V243.741H123.415V243.751Z" fill="#263238"/>
<path d="M127.036 239.55C128.525 239.55 129.157 240.315 129.157 241.722V242.497C129.157 243.537 128.79 244.19 127.974 244.455C128.841 244.71 129.167 245.424 129.167 246.433V247.912C129.167 248.33 129.177 248.728 129.361 249.054H128.29C128.168 248.779 128.117 248.534 128.117 247.902V246.413C128.117 245.342 127.617 245.006 126.73 245.006H125.985V249.065H124.925V239.57H127.036V239.55ZM126.771 244.027C127.607 244.027 128.117 243.751 128.117 242.721V241.814C128.117 240.957 127.801 240.508 127.015 240.508H125.985V244.027H126.771Z" fill="#263238"/>
<path d="M154.417 242.558V243.874H153.397V242.558H154.417ZM154.417 247.729V249.044H153.397V247.729H154.417Z" fill="#263238"/>
<path d="M91.3942 261.394V262.21H90.3948V261.343C90.3948 260.486 90.0582 259.976 89.2832 259.976C88.5183 259.976 88.1716 260.497 88.1716 261.343V266.36C88.1716 267.217 88.5285 267.727 89.2832 267.727C90.0582 267.727 90.3948 267.207 90.3948 266.36V264.464H89.4158V263.515H91.3942V266.309C91.3942 267.747 90.7109 268.696 89.2526 268.696C87.8045 268.696 87.1212 267.747 87.1212 266.309V261.394C87.1212 259.956 87.8045 259.008 89.2526 259.008C90.7109 258.997 91.3942 259.956 91.3942 261.394Z" fill="#263238"/>
<path d="M95.7791 263.301V264.249H93.4641V267.625H96.3094V268.594H92.4036V259.099H96.3094V260.068H93.4641V263.311H95.7791V263.301Z" fill="#263238"/>
<path d="M98.2165 268.594H97.2681V259.099H98.6142L100.817 265.963V259.099H101.755V268.594H100.654L98.2267 260.915V268.594H98.2165Z" fill="#263238"/>
<path d="M105.059 259.099C106.538 259.099 107.221 259.997 107.221 261.465V266.258C107.221 267.707 106.538 268.604 105.059 268.604H102.836V259.11H105.059V259.099ZM105.049 267.635C105.814 267.635 106.171 267.156 106.171 266.289V261.404C106.171 260.537 105.804 260.058 105.029 260.058H103.887V267.625H105.049V267.635Z" fill="#263238"/>
<path d="M111.586 263.301V264.249H109.271V267.625H112.116V268.594H108.21V259.099H112.116V260.068H109.271V263.311H111.586V263.301Z" fill="#263238"/>
<path d="M115.206 259.099C116.695 259.099 117.327 259.864 117.327 261.272V262.047C117.327 263.087 116.96 263.74 116.145 264.005C117.011 264.26 117.338 264.963 117.338 265.983V267.462C117.338 267.88 117.348 268.278 117.531 268.604H116.461C116.338 268.329 116.287 268.084 116.287 267.452V265.963C116.287 264.892 115.788 264.555 114.9 264.555H114.156V268.594H113.095V259.099H115.206ZM114.931 263.576C115.767 263.576 116.277 263.301 116.277 262.271V261.363C116.277 260.507 115.961 260.058 115.176 260.058H114.146V263.576H114.931Z" fill="#263238"/>
<path d="M155.213 262.108V263.423H154.193V262.108H155.213ZM155.213 267.278V268.594H154.193V267.278H155.213Z" fill="#263238"/>
<path d="M89.4258 279.781C90.9045 279.781 91.5878 280.678 91.5878 282.137V286.93C91.5878 288.378 90.9045 289.275 89.4258 289.275H87.2026V279.781H89.4258ZM89.4156 288.317C90.1804 288.317 90.5374 287.837 90.5374 286.971V282.086C90.5374 281.219 90.1702 280.74 89.3952 280.74H88.253V288.306H89.4156V288.317Z" fill="#263238"/>
<path d="M93.454 287.959V289.275H92.4342V287.959H93.454Z" fill="#263238"/>
<path d="M94.3208 282.075C94.3208 280.627 95.0449 279.689 96.493 279.689C97.9615 279.689 98.6753 280.627 98.6753 282.075V286.991C98.6753 288.429 97.9513 289.377 96.493 289.377C95.0449 289.377 94.3208 288.429 94.3208 286.991V282.075ZM95.3712 287.042C95.3712 287.909 95.7383 288.408 96.493 288.408C97.268 288.408 97.6147 287.909 97.6147 287.042V282.024C97.6147 281.168 97.2578 280.658 96.493 280.658C95.7281 280.658 95.3712 281.168 95.3712 282.024V287.042Z" fill="#263238"/>
<path d="M100.562 287.959V289.275H99.5422V287.959H100.562Z" fill="#263238"/>
<path d="M103.785 279.781C105.263 279.781 105.845 280.484 105.845 281.881V282.33C105.845 283.33 105.559 283.962 104.733 284.217C105.651 284.472 106.008 285.206 106.008 286.256V287.052C106.008 288.479 105.314 289.275 103.836 289.275H101.653V279.781H103.785ZM103.53 283.809C104.366 283.809 104.804 283.533 104.804 282.544V281.983C104.804 281.147 104.519 280.739 103.764 280.739H102.724V283.809H103.53ZM103.836 288.316C104.611 288.316 104.957 287.908 104.957 287.031V286.185C104.957 285.124 104.539 284.778 103.632 284.778H102.704V288.316H103.836Z" fill="#263238"/>
<path d="M154.254 282.789V284.105H153.234V282.789H154.254ZM154.254 287.959V289.275H153.234V287.959H154.254Z" fill="#263238"/>
<path d="M86.4278 305.714V309.987H85.3672V300.493H86.4278V304.766H88.7631V300.493H89.8237V309.987H88.7631V305.714H86.4278Z" fill="#263238"/>
<path d="M94.2802 304.694V305.643H91.9652V309.018H94.8105V309.977H90.9047V300.482H94.8105V301.441H91.9652V304.684H94.2802V304.694Z" fill="#263238"/>
<path d="M96.8398 300.493V309.987H95.7792V300.493H96.8398Z" fill="#263238"/>
<path d="M102.122 302.787V303.603H101.123V302.736C101.123 301.88 100.786 301.37 100.011 301.37C99.2466 301.37 98.8999 301.88 98.8999 302.736V307.754C98.8999 308.61 99.2568 309.12 100.011 309.12C100.786 309.12 101.123 308.6 101.123 307.754V305.857H100.144V304.908H102.122V307.703C102.122 309.141 101.439 310.089 99.9809 310.089C98.5327 310.089 97.8495 309.141 97.8495 307.703V302.787C97.8495 301.349 98.5327 300.401 99.9809 300.401C101.449 300.401 102.122 301.349 102.122 302.787Z" fill="#263238"/>
<path d="M104.182 305.714V309.987H103.122V300.493H104.182V304.766H106.518V300.493H107.578V309.987H106.518V305.714H104.182Z" fill="#263238"/>
<path d="M110.046 309.987V301.451H108.292V300.493H112.851V301.451H111.097V309.987H110.046Z" fill="#263238"/>
<path d="M152.459 303.501V304.817H151.44V303.501H152.459ZM152.459 308.672V309.987H151.44V308.672H152.459Z" fill="#263238"/>
<path d="M85.6322 329.537H84.1739L82.8685 320.043H83.8985L85.0101 328.13L86.0707 320.053H87.1109L88.1511 328.14L89.2218 320.043H90.1397L88.8547 329.537H87.4576L86.55 323.092L85.6322 329.537Z" fill="#263238"/>
<path d="M94.3922 324.254V325.202H92.0671V328.578H94.9123V329.536H91.0065V320.042H94.9123V321.001H92.0671V324.244H94.3922V324.254Z" fill="#263238"/>
<path d="M96.9622 320.042V329.536H95.9016V320.042H96.9622Z" fill="#263238"/>
<path d="M102.234 322.337V323.153H101.235V322.286C101.235 321.429 100.898 320.919 100.123 320.919C99.3585 320.919 99.0118 321.429 99.0118 322.286V327.303C99.0118 328.16 99.3687 328.67 100.123 328.67C100.898 328.67 101.235 328.15 101.235 327.303V325.406H100.256V324.458H102.234V327.252C102.234 328.69 101.551 329.638 100.093 329.638C98.6447 329.638 97.9614 328.69 97.9614 327.252V322.337C97.9614 320.899 98.6447 319.95 100.093 319.95C101.561 319.95 102.234 320.899 102.234 322.337Z" fill="#263238"/>
<path d="M104.294 325.263V329.536H103.234V320.042H104.294V324.315H106.63V320.042H107.69V329.536H106.63V325.263H104.294Z" fill="#263238"/>
<path d="M110.158 329.536V321.001H108.404V320.042H112.963V321.001H111.209V329.536H110.158Z" fill="#263238"/>
<path d="M150.471 323.051V324.366H149.451V323.051H150.471ZM150.471 328.221V329.537H149.451V328.221H150.471Z" fill="#263238"/>
<path d="M83.1847 341.856C84.6634 341.856 85.2447 342.559 85.2447 343.956V344.405C85.2447 345.404 84.9592 346.037 84.1331 346.292C85.0509 346.547 85.4079 347.281 85.4079 348.331V349.137C85.4079 350.565 84.7144 351.36 83.2357 351.36H81.0533V341.866H83.1847V341.856ZM82.9298 345.884C83.7762 345.884 84.2045 345.608 84.2045 344.619V344.058C84.2045 343.222 83.919 342.814 83.1643 342.814H82.1241V345.884H82.9298ZM83.2357 350.391C84.0107 350.391 84.3575 349.983 84.3575 349.106V348.27C84.3575 347.21 83.9394 346.863 83.0317 346.863H82.1139V350.401H83.2357V350.391Z" fill="#263238"/>
<path d="M86.3767 351.35V341.856H87.4373V350.391H90.1499V351.35H86.3767Z" fill="#263238"/>
<path d="M90.8638 344.15C90.8638 342.702 91.5878 341.764 93.0359 341.764C94.5044 341.764 95.2183 342.702 95.2183 344.15V349.066C95.2183 350.504 94.4942 351.452 93.0359 351.452C91.5878 351.452 90.8638 350.504 90.8638 349.066V344.15ZM91.9142 349.117C91.9142 349.984 92.2813 350.483 93.0359 350.483C93.811 350.483 94.1577 349.984 94.1577 349.117V344.099C94.1577 343.243 93.8008 342.733 93.0359 342.733C92.2711 342.733 91.9142 343.253 91.9142 344.099V349.117Z" fill="#263238"/>
<path d="M96.1465 344.15C96.1465 342.702 96.8705 341.764 98.3186 341.764C99.7871 341.764 100.501 342.702 100.501 344.15V349.066C100.501 350.504 99.7769 351.452 98.3186 351.452C96.8705 351.452 96.1465 350.504 96.1465 349.066V344.15ZM97.1867 349.117C97.1867 349.984 97.5538 350.483 98.3084 350.483C99.0835 350.483 99.4302 349.984 99.4302 349.117V344.099C99.4302 343.243 99.0733 342.733 98.3084 342.733C97.5436 342.733 97.1867 343.253 97.1867 344.099V349.117Z" fill="#263238"/>
<path d="M103.723 341.856C105.202 341.856 105.885 342.753 105.885 344.222V349.015C105.885 350.463 105.202 351.36 103.723 351.36H101.5V341.866H103.723V341.856ZM103.713 350.391C104.478 350.391 104.835 349.912 104.835 349.045V344.16C104.835 343.294 104.468 342.814 103.693 342.814H102.551V350.381H103.713V350.391Z" fill="#263238"/>
<path d="M110.362 351.35V342.814H108.608V341.845H113.167V342.814H111.413V351.35H110.362Z" fill="#263238"/>
<path d="M115.584 347.944L113.575 341.856H114.676L116.155 346.526L117.644 341.856H118.643L116.624 347.944V351.35H115.584V347.944Z" fill="#263238"/>
<path d="M121.488 341.856C122.977 341.856 123.619 342.743 123.619 344.181V345.323C123.619 346.832 122.916 347.618 121.407 347.618H120.468V351.36H119.408V341.866H121.488V341.856ZM121.407 346.659C122.192 346.659 122.569 346.292 122.569 345.384V344.12C122.569 343.253 122.253 342.814 121.488 342.814H120.468V346.659H121.407Z" fill="#263238"/>
<path d="M127.862 346.057V347.006H125.537V350.381H128.382V351.34H124.476V341.845H128.382V342.814H125.537V346.057H127.862Z" fill="#263238"/>
<path d="M149.319 344.864V346.18H148.299V344.864H149.319ZM149.319 350.034V351.35H148.299V350.034H149.319Z" fill="#263238"/>
<path d="M79.4727 368.115V372.388H78.4121V362.894H79.4727V367.167H81.808V362.894H82.8686V372.388H81.808V368.115H79.4727Z" fill="#263238"/>
<path d="M83.8782 365.189C83.8782 363.74 84.6022 362.802 86.0503 362.802C87.5188 362.802 88.2327 363.74 88.2327 365.189V370.104C88.2327 371.542 87.5086 372.49 86.0503 372.49C84.6022 372.49 83.8782 371.542 83.8782 370.104V365.189ZM84.9184 370.155C84.9184 371.022 85.2855 371.521 86.0401 371.521C86.8152 371.521 87.1619 371.022 87.1619 370.155V365.138C87.1619 364.281 86.805 363.771 86.0401 363.771C85.2753 363.771 84.9184 364.281 84.9184 365.138V370.155Z" fill="#263238"/>
<path d="M92.7299 372.378H91.7101L90.1396 364.821V372.388H89.2218V362.894H90.7005L92.2608 370.481L93.7701 362.894H95.2488V372.388H94.2494V364.75L92.7299 372.378Z" fill="#263238"/>
<path d="M99.7052 367.095V368.044H97.3903V371.419H100.236V372.378H96.3297V362.884H100.236V363.842H97.3903V367.085H99.7052V367.095Z" fill="#263238"/>
<path d="M104.386 370.481L104.019 372.398H103.04L104.855 362.904H106.385L108.2 372.398H107.14L106.772 370.481H104.386ZM104.529 369.563H106.65L105.579 364.077L104.529 369.563Z" fill="#263238"/>
<path d="M111.27 362.894C112.749 362.894 113.432 363.791 113.432 365.25V370.043C113.432 371.491 112.749 372.388 111.27 372.388H109.047V362.894H111.27ZM111.26 371.429C112.025 371.429 112.381 370.95 112.381 370.083V365.199C112.381 364.332 112.014 363.852 111.239 363.852H110.097V371.419H111.26V371.429Z" fill="#263238"/>
<path d="M116.532 362.894C118.021 362.894 118.653 363.648 118.653 365.066V365.841C118.653 366.881 118.286 367.534 117.47 367.799C118.337 368.054 118.663 368.768 118.663 369.777V371.256C118.663 371.674 118.674 372.072 118.857 372.398H117.786C117.664 372.123 117.613 371.878 117.613 371.246V369.757C117.613 368.686 117.113 368.35 116.226 368.35H115.482V372.408H114.421V362.914H116.532V362.894ZM116.267 367.371C117.103 367.371 117.613 367.095 117.613 366.065V365.158C117.613 364.301 117.297 363.852 116.512 363.852H115.482V367.371H116.267Z" fill="#263238"/>
<path d="M123.14 367.095V368.044H120.815V371.419H123.66V372.378H119.755V362.884H123.66V363.842H120.815V367.085H123.14V367.095Z" fill="#263238"/>
<path d="M128.759 365.168V365.423H127.76V365.107C127.76 364.25 127.434 363.75 126.679 363.75C125.924 363.75 125.598 364.25 125.598 365.097C125.598 367.228 128.79 367.432 128.79 370.104C128.79 371.542 128.096 372.48 126.648 372.48C125.2 372.48 124.517 371.542 124.517 370.104V369.563H125.506V370.165C125.506 371.022 125.863 371.521 126.618 371.521C127.383 371.521 127.729 371.022 127.729 370.165C127.729 368.044 124.558 367.85 124.558 365.168C124.558 363.7 125.241 362.792 126.659 362.792C128.076 362.802 128.759 363.73 128.759 365.168Z" fill="#263238"/>
<path d="M133.807 365.168V365.423H132.808V365.107C132.808 364.25 132.482 363.75 131.727 363.75C130.962 363.75 130.646 364.25 130.646 365.097C130.646 367.228 133.838 367.432 133.838 370.104C133.838 371.542 133.144 372.48 131.696 372.48C130.248 372.48 129.565 371.542 129.565 370.104V369.563H130.554V370.165C130.554 371.022 130.911 371.521 131.666 371.521C132.42 371.521 132.777 371.022 132.777 370.165C132.777 368.044 129.606 367.85 129.606 365.168C129.606 363.7 130.279 362.792 131.707 362.792C133.124 362.802 133.807 363.73 133.807 365.168Z" fill="#263238"/>
<path d="M146.279 365.903V367.218H145.26V365.903H146.279ZM146.279 371.073V372.388H145.26V371.073H146.279Z" fill="#263238"/>
<path d="M77.1066 384.708C78.5955 384.708 79.238 385.595 79.238 387.033V388.175C79.238 389.684 78.5343 390.47 77.025 390.47H76.0868V394.212H75.0262V384.718H77.1066V384.708ZM77.025 389.511C77.8103 389.511 78.1876 389.144 78.1876 388.236V386.972C78.1876 386.105 77.8715 385.666 77.1066 385.666H76.0868V389.511H77.025Z" fill="#263238"/>
<path d="M81.1145 389.929V394.202H80.054V384.707H81.1145V388.98H83.4499V384.707H84.5105V394.202H83.4499V389.929H81.1145Z" fill="#263238"/>
<path d="M85.5201 387.002C85.5201 385.554 86.2442 384.616 87.6923 384.616C89.1608 384.616 89.8747 385.554 89.8747 387.002V391.917C89.8747 393.355 89.1506 394.304 87.6923 394.304C86.2442 394.304 85.5201 393.355 85.5201 391.917V387.002ZM86.5603 391.968C86.5603 392.835 86.9275 393.335 87.6821 393.335C88.4571 393.335 88.8039 392.835 88.8039 391.968V386.951C88.8039 386.094 88.4469 385.584 87.6821 385.584C86.9173 385.584 86.5603 386.105 86.5603 386.951V391.968Z" fill="#263238"/>
<path d="M91.8122 394.202H90.8638V384.707H92.2099L94.4127 391.571V384.707H95.3509V394.202H94.2495L91.8224 386.523V394.202H91.8122Z" fill="#263238"/>
<path d="M99.8073 388.909V389.857H97.4923V393.233H100.338V394.192H96.4318V384.697H100.338V385.666H97.4923V388.909H99.8073Z" fill="#263238"/>
<path d="M104.346 394.202H103.397V384.707H104.743L106.946 391.571V384.707H107.884V394.202H106.783L104.356 386.523V394.202H104.346Z" fill="#263238"/>
<path d="M109.965 391.968C109.965 392.825 110.301 393.335 111.076 393.335C111.841 393.335 112.178 392.815 112.178 391.968V384.707H113.167V391.917C113.167 393.355 112.504 394.324 111.035 394.324C109.587 394.324 108.914 393.365 108.914 391.917V384.707H109.954V391.968H109.965Z" fill="#263238"/>
<path d="M117.715 394.192H116.695L115.125 386.635V394.202H114.207V384.707H115.685L117.246 392.295L118.755 384.707H120.234V394.202H119.234V386.563L117.715 394.192Z" fill="#263238"/>
<path d="M123.436 384.707C124.915 384.707 125.496 385.411 125.496 386.808V387.257C125.496 388.256 125.21 388.889 124.384 389.144C125.302 389.398 125.659 390.133 125.659 391.183V391.989C125.659 393.416 124.966 394.212 123.487 394.212H121.305V384.718H123.436V384.707ZM123.181 388.736C124.017 388.736 124.456 388.46 124.456 387.471V386.91C124.456 386.074 124.17 385.666 123.416 385.666H122.375V388.736H123.181ZM123.497 393.243C124.272 393.243 124.619 392.835 124.619 391.958V391.122C124.619 390.061 124.201 389.715 123.293 389.715H122.365V393.253H123.497V393.243Z" fill="#263238"/>
<path d="M130.003 388.909V389.857H127.678V393.233H130.523V394.192H126.618V384.697H130.523V385.666H127.678V388.909H130.003Z" fill="#263238"/>
<path d="M133.634 384.707C135.123 384.707 135.755 385.472 135.755 386.88V387.655C135.755 388.695 135.388 389.347 134.572 389.613C135.439 389.868 135.765 390.571 135.765 391.591V393.07C135.765 393.488 135.775 393.886 135.959 394.212H134.888C134.766 393.937 134.715 393.692 134.715 393.06V391.571C134.715 390.5 134.215 390.163 133.328 390.163H132.584V394.222H131.523V384.728H133.634V384.707ZM133.359 389.184C134.205 389.184 134.705 388.909 134.705 387.879V386.971C134.705 386.115 134.389 385.666 133.603 385.666H132.573V389.184H133.359Z" fill="#263238"/>
<path d="M144.189 387.716V389.031H143.169V387.716H144.189ZM144.189 392.886V394.202H143.169V392.886H144.189Z" fill="#263238"/>
<path d="M325.825 136.163H315.035" stroke="#5C5C5C" stroke-miterlimit="10" stroke-linecap="round" stroke-linejoin="round"/>
<path d="M325.468 154.703H315.035" stroke="#5C5C5C" stroke-miterlimit="10" stroke-linecap="round" stroke-linejoin="round"/>
<path d="M325.1 173.243H315.035" stroke="#5C5C5C" stroke-miterlimit="10" stroke-linecap="round" stroke-linejoin="round"/>
<path d="M324.743 191.783H315.035" stroke="#5C5C5C" stroke-miterlimit="10" stroke-linecap="round" stroke-linejoin="round"/>
<path d="M324.387 210.322H315.035" stroke="#5C5C5C" stroke-miterlimit="10" stroke-linecap="round" stroke-linejoin="round"/>
<path d="M324.019 228.862H315.035" stroke="#5C5C5C" stroke-miterlimit="10" stroke-linecap="round" stroke-linejoin="round"/>
<path d="M323.662 247.402H315.035" stroke="#5C5C5C" stroke-miterlimit="10" stroke-linecap="round" stroke-linejoin="round"/>
<path d="M323.306 265.942H315.035" stroke="#5C5C5C" stroke-miterlimit="10" stroke-linecap="round" stroke-linejoin="round"/>
<path d="M322.938 284.482H315.035" stroke="#5C5C5C" stroke-miterlimit="10" stroke-linecap="round" stroke-linejoin="round"/>
<path d="M322.582 303.022H315.035" stroke="#5C5C5C" stroke-miterlimit="10" stroke-linecap="round" stroke-linejoin="round"/>
<path d="M322.225 321.562H315.035" stroke="#5C5C5C" stroke-miterlimit="10" stroke-linecap="round" stroke-linejoin="round"/>
<path d="M321.857 340.101H315.035" stroke="#5C5C5C" stroke-miterlimit="10" stroke-linecap="round" stroke-linejoin="round"/>
<path d="M321.501 358.641H315.035" stroke="#5C5C5C" stroke-miterlimit="10" stroke-linecap="round" stroke-linejoin="round"/>
<path d="M321.144 377.181H315.035" stroke="#5C5C5C" stroke-miterlimit="10" stroke-linecap="round" stroke-linejoin="round"/>
<path d="M320.776 395.721H315.035" stroke="#5C5C5C" stroke-miterlimit="10" stroke-linecap="round" stroke-linejoin="round"/>
<path d="M320.42 414.261H315.035" stroke="#5C5C5C" stroke-miterlimit="10" stroke-linecap="round" stroke-linejoin="round"/>
<path d="M320.063 432.801H315.035" stroke="#5C5C5C" stroke-miterlimit="10" stroke-linecap="round" stroke-linejoin="round"/>
<path d="M314.913 136.163V432.801" stroke="#5C5C5C" stroke-miterlimit="10" stroke-linecap="round" stroke-linejoin="round"/>
<path d="M383.738 111.117C381.311 114.187 377.742 117.266 374.366 120.377L372.072 122.416C372.062 122.426 372.041 122.447 372.021 122.457L369.604 120.417C366.514 117.715 363.261 114.89 360.926 112.045" stroke="#5C5C5C" stroke-miterlimit="10" stroke-linecap="round" stroke-linejoin="round"/>
<path d="M384.31 108.649L380.271 108.833L379.109 111.199L376.335 103.703L374.581 111.219L372.806 107.435L370.614 114.227L366.922 99.5933L364.801 109.424L360.293 109.628C357.346 105.794 356.245 101.949 359.671 98.3287C363.954 93.8008 369.308 97.6047 372.052 100.103C374.713 97.5537 380.557 92.3017 385.503 98.5633C387.991 101.704 386.737 105.304 384.31 108.649Z" stroke="#5C5C5C" stroke-miterlimit="10" stroke-linecap="round" stroke-linejoin="round"/>
<path d="M308.039 63.9615C302.92 63.9615 298.769 68.1121 298.769 73.2315C298.769 78.3509 308.039 91.8427 308.039 91.8427C308.039 91.8427 317.309 78.3509 317.309 73.2315C317.299 68.1121 313.148 63.9615 308.039 63.9615ZM308.039 77.79C305.704 77.79 303.817 75.9033 303.817 73.568C303.817 71.2429 305.704 69.3461 308.039 69.3461C310.374 69.3461 312.261 71.2429 312.261 73.568C312.251 75.9033 310.364 77.79 308.039 77.79Z" stroke="#5C5C5C" stroke-miterlimit="10" stroke-linecap="round" stroke-linejoin="round"/>
<path d="M379.2 79.1158C384.32 79.1158 388.47 74.9652 388.47 69.8459C388.47 64.7265 379.2 51.2346 379.2 51.2346C379.2 51.2346 369.931 64.7265 369.931 69.8459C369.931 74.9652 374.081 79.1158 379.2 79.1158Z" stroke="#5C5C5C" stroke-miterlimit="10" stroke-linecap="round" stroke-linejoin="round"/>
<path d="M379.201 62.5034V69.1831" stroke="#5C5C5C" stroke-miterlimit="10" stroke-linecap="round" stroke-linejoin="round"/>
<path d="M375.856 65.8484H382.535" stroke="#5C5C5C" stroke-miterlimit="10" stroke-linecap="round" stroke-linejoin="round"/>
<path d="M375.856 72.5177H382.535" stroke="#5C5C5C" stroke-miterlimit="10" stroke-linecap="round" stroke-linejoin="round"/>
<path d="M339.133 113.493C339.133 116.491 337.063 119.132 332.82 119.928C331.964 120.091 331.025 120.173 329.995 120.173C329.445 120.173 328.884 120.152 328.343 120.091C326.375 119.908 324.488 119.418 322.979 118.714C321.959 118.245 321.521 117.021 321.99 116.002C322.469 114.941 323.703 114.503 324.764 114.982C325.865 115.482 327.099 115.859 328.353 116.042C328.914 116.124 329.485 116.175 330.036 116.175C331.26 116.175 332.167 116.012 332.83 115.716C333.779 115.308 334.197 114.645 334.197 113.86C334.197 113.034 333.667 112.494 332.83 112.086C331.719 111.545 330.057 111.239 328.353 110.821C325.09 110.015 321.674 108.782 321.674 104.6C321.674 101.459 323.856 98.7672 328.353 98.0737C329.088 97.9513 329.893 97.8901 330.75 97.8901C331.443 97.8901 332.137 97.9309 332.83 98.0227C334.054 98.1757 335.247 98.451 336.338 98.8691C337.419 99.2771 337.95 100.501 337.511 101.572C337.083 102.632 335.89 103.111 334.819 102.693C334.156 102.438 333.493 102.245 332.83 102.112C332.116 101.959 331.403 101.898 330.719 101.898C329.73 101.898 328.955 102.02 328.353 102.234C327.13 102.663 326.63 103.458 326.63 104.356C326.63 105.284 327.313 105.845 328.353 106.252C329.536 106.722 331.178 107.007 332.83 107.425C335.961 108.231 339.133 109.516 339.133 113.493Z" stroke="#5C5C5C" stroke-miterlimit="10" stroke-linecap="round" stroke-linejoin="round"/>
<path d="M328.333 95.8199V93.2092H332.81V95.7689" stroke="#5C5C5C" stroke-miterlimit="10" stroke-linecap="round" stroke-linejoin="round"/>
<path d="M332.81 122.182V124.609H328.333V122.355" stroke="#5C5C5C" stroke-miterlimit="10" stroke-linecap="round" stroke-linejoin="round"/>
<path d="M340.051 27.463L325.825 41.6891H331.179V55.1504H337.348V46.3598H342.743V55.1504H348.913V41.6891H354.277L340.051 27.463Z" stroke="#5C5C5C" stroke-miterlimit="10" stroke-linecap="round" stroke-linejoin="round"/>
<path d="M348.382 206.875H255.907V330.016H348.382V206.875Z" fill="#BFBFBF" stroke="#263238" stroke-linecap="round" stroke-linejoin="round"/>
<path d="M270.806 329.669H256.417L256.427 329.628L258.365 318.512V316.218C258.365 307.193 260.364 298.28 264.219 290.121C264.229 290.091 264.239 290.07 264.259 290.04L270.817 329.628L270.806 329.669Z" fill="#C6B5DD" stroke="#263238" stroke-linecap="round" stroke-linejoin="round"/>
<path d="M348.321 329.669H333.871L333.881 329.628L338.98 298.82L340.459 289.876C342.396 293.966 343.875 298.249 344.854 302.634C345.843 307.029 346.343 311.527 346.343 316.055L348.311 329.618L348.321 329.669Z" fill="#C6B5DD" stroke="#263238" stroke-linecap="round" stroke-linejoin="round"/>
<path d="M340.285 288.969C340.285 288.969 339.704 293.242 338.98 298.82C337.919 306.968 336.532 317.931 336.175 322.469C336.063 323.938 335.89 326.467 335.686 329.618V329.659H269.888C269.888 329.648 269.888 329.638 269.878 329.618C267.757 313.658 264.575 292.579 264.198 290.111C264.178 289.948 264.157 289.876 264.157 289.876L287.225 283.615L290.356 282.768C291.1 282.269 292.089 281.881 293.221 281.596C294.394 281.3 295.74 281.116 297.178 281.014C297.352 281.004 297.535 280.994 297.719 280.974C297.749 280.974 297.78 280.963 297.81 280.963C300.829 280.8 304.184 280.963 307.182 281.239C309.212 281.433 311.088 281.667 312.567 281.891C312.587 281.902 312.608 281.902 312.638 281.902C313.903 282.095 315.891 282.524 318.247 283.085C326.875 285.165 340.285 288.969 340.285 288.969Z" fill="#C6B5DD"/>
<path opacity="0.2" d="M286.318 300.493C289.561 298.687 292.804 296.882 296.046 295.077C296.985 294.547 298.208 294.037 299.065 294.7C299.901 295.343 299.769 296.648 300.33 297.535C301.003 298.606 302.522 298.81 303.746 298.484C304.97 298.157 306.051 295.394 307.264 295.006C311.221 293.711 315.351 298.178 318.818 300.493C318.268 295.108 317.727 289.724 317.177 284.339C317.177 284.625 294.762 284.217 292.763 284.665C286.093 286.154 287.062 294.996 286.318 300.493Z" fill="black"/>
<path d="M340.285 288.969C340.285 288.969 339.704 293.242 338.98 298.82C337.919 306.968 336.532 317.931 336.175 322.469C336.063 323.938 335.89 326.467 335.686 329.618V329.659H269.888C269.888 329.648 269.888 329.638 269.878 329.618C267.757 313.658 264.575 292.579 264.198 290.111C264.178 289.948 264.157 289.876 264.157 289.876L287.225 283.615L290.356 282.768C291.1 282.269 292.089 281.881 293.221 281.596C294.394 281.3 295.74 281.116 297.178 281.014C297.352 281.004 297.535 280.994 297.719 280.974C297.749 280.974 297.78 280.963 297.81 280.963C300.829 280.8 304.184 280.963 307.182 281.239C309.212 281.433 311.088 281.667 312.567 281.891C312.587 281.902 312.608 281.902 312.638 281.902C313.903 282.095 315.891 282.524 318.247 283.085C326.875 285.165 340.285 288.969 340.285 288.969Z" stroke="#263238" stroke-linecap="round" stroke-linejoin="round"/>
<path d="M295.577 275.365C295.577 275.365 290.142 276.996 289.061 278.077C287.98 279.158 287.154 284.91 286.063 287.857C284.972 290.794 281.453 296.005 282.544 296.281C283.636 296.556 300.289 291.059 300.289 291.059L303.45 303.939L305.5 291.069C305.5 291.069 321.368 297.382 321.908 296.556C322.449 295.74 318.38 285.97 318.115 281.901C317.85 277.832 311.863 276.466 308.335 276.201C304.817 275.936 295.577 275.365 295.577 275.365Z" fill="#263238"/>
<path d="M293.242 268.777V284.665L303.052 289.652L303.144 302.889L303.052 289.652L312.588 284.441V267.859L293.242 268.777Z" fill="white" stroke="#263238" stroke-linecap="round" stroke-linejoin="round"/>
<path d="M284.176 252.379C283.615 253.286 283.146 254.286 283.064 255.356C282.963 256.672 283.472 257.977 284.227 259.058C284.982 260.139 285.981 261.027 286.98 261.883C287.399 262.24 287.827 262.607 288.337 262.811C288.847 263.015 289.459 263.046 289.928 262.75C290.438 262.424 290.662 261.771 290.642 261.169C290.621 260.568 290.407 259.986 290.213 259.415C289.408 256.998 289.663 254.398 288.959 252.052C288.163 249.35 285.318 250.512 284.176 252.379Z" fill="white" stroke="#263238" stroke-linecap="round" stroke-linejoin="round"/>
<path d="M322.694 252.379C323.254 253.286 323.724 254.286 323.805 255.356C323.907 256.672 323.397 257.977 322.643 259.058C321.888 260.139 320.889 261.027 319.889 261.883C319.471 262.24 319.043 262.607 318.533 262.811C318.023 263.015 317.411 263.046 316.942 262.75C316.432 262.424 316.208 261.771 316.228 261.169C316.248 260.568 316.463 259.986 316.656 259.415C317.462 256.998 317.207 254.398 317.911 252.052C318.716 249.35 321.551 250.512 322.694 252.379Z" fill="white" stroke="#263238" stroke-linecap="round" stroke-linejoin="round"/>
<path d="M293.242 271.918C293.242 271.918 296.23 283.248 302.226 283.493C308.223 283.737 312.588 273.091 312.588 273.091C312.588 273.091 306.408 268.614 293.242 271.918Z" fill="#263238"/>
<path d="M319.767 249.523C319.767 262.057 312.394 279.332 303.307 279.332C294.211 279.332 286.848 262.057 286.848 249.523C286.848 236.99 294.221 226.843 303.307 226.843C312.394 226.843 319.767 236.99 319.767 249.523Z" fill="white" stroke="#263238" stroke-linecap="round" stroke-linejoin="round"/>
<path d="M297.27 251.644C297.78 251.644 298.188 252.705 298.188 254C298.188 255.305 297.77 256.356 297.27 256.356C296.76 256.356 296.352 255.295 296.352 254C296.342 252.705 296.76 251.644 297.27 251.644Z" fill="#263238"/>
<path d="M308.773 251.644C309.283 251.644 309.691 252.705 309.691 254C309.691 255.305 309.273 256.356 308.773 256.356C308.264 256.356 307.856 255.295 307.856 254C307.845 252.705 308.264 251.644 308.773 251.644Z" fill="#263238"/>
<path d="M304.97 250.461L304.368 251.675C304.368 251.675 304.776 258.039 304.949 259.425C305.123 260.802 304.113 262.342 302.614 261.536L301.105 260.721" stroke="#263238" stroke-linecap="round" stroke-linejoin="round"/>
<path d="M298.708 266.86C298.708 268.114 307.886 268.114 307.886 266.86" stroke="#263238" stroke-linecap="round" stroke-linejoin="round"/>
<path d="M287.613 257.977C288.571 258.161 288.571 258.161 289.54 258.355C288.908 256.662 288.398 253.898 288.214 252.093C288.041 250.288 290.631 247.596 290.631 246.321C290.631 239.448 294.364 239.652 295.128 240.661C295.23 239.407 301.104 233.349 305.49 241.742C306.611 243.884 318.543 245.781 318.502 247.708C318.421 251.838 318.135 253.755 317.503 257.845C318.482 258.039 319.328 257.019 319.451 256.03C319.573 255.04 319.818 251.237 320.644 250.676C321.276 251.543 321.643 251.746 322.714 251.675C322.245 250.451 321.755 249.187 321.817 247.881C321.878 246.576 322.561 247.443 323.815 247.076C324.478 246.882 330.056 243.119 330.75 241.11C328.221 241.426 325.835 239.693 324.386 237.592C322.938 235.491 322.153 233.023 320.929 230.78C317.88 225.211 311.761 221.265 305.418 221.51C299.075 221.754 293.007 226.619 292.049 232.89C290.866 232.289 289.367 232.687 288.326 233.502C287.286 234.318 286.593 235.501 285.92 236.643C284.706 238.724 283.482 240.855 283.044 243.221C282.616 245.587 285.012 248.901 286.838 250.472C287.082 249.941 286.95 257.977 287.613 257.977Z" fill="#263238"/>
<path d="M288.49 236.347C287.205 237.286 286.215 238.632 285.706 240.141" stroke="#5C5C5C" stroke-miterlimit="10" stroke-linecap="round" stroke-linejoin="round"/>
<path d="M288.673 238.621C288.204 239.091 287.806 239.641 287.5 240.233" stroke="#5C5C5C" stroke-miterlimit="10" stroke-linecap="round" stroke-linejoin="round"/>
<path d="M289.805 239.927C289.377 240.355 289.05 240.896 288.877 241.477" stroke="#5C5C5C" stroke-miterlimit="10" stroke-linecap="round" stroke-linejoin="round"/>
<path d="M302.756 234.267C304.072 234.42 305.245 235.44 305.581 236.725" stroke="#5C5C5C" stroke-miterlimit="10" stroke-linecap="round" stroke-linejoin="round"/>
<path d="M302.899 231.595C305.204 232.054 307.162 233.92 307.733 236.195" stroke="#5C5C5C" stroke-miterlimit="10" stroke-linecap="round" stroke-linejoin="round"/>
<path d="M307.876 231.708C308.845 232.605 309.446 233.89 309.487 235.216" stroke="#5C5C5C" stroke-miterlimit="10" stroke-linecap="round" stroke-linejoin="round"/>
<path d="M310.701 232.268C311.221 232.901 311.496 233.737 311.466 234.553" stroke="#5C5C5C" stroke-miterlimit="10" stroke-linecap="round" stroke-linejoin="round"/>
<path d="M312.771 232.819C313.108 233.196 313.271 233.727 313.21 234.226" stroke="#5C5C5C" stroke-miterlimit="10" stroke-linecap="round" stroke-linejoin="round"/>
<path d="M314.953 233.033C315.025 233.288 315.096 233.543 315.167 233.798" stroke="#5C5C5C" stroke-miterlimit="10" stroke-linecap="round" stroke-linejoin="round"/>
<path d="M292.406 250.084C293.048 249.554 293.487 248.789 294.17 248.309C295.057 247.677 296.261 247.596 297.321 247.861C298.382 248.126 299.351 248.677 300.289 249.237" stroke="#263238" stroke-linecap="round" stroke-linejoin="round"/>
<path d="M306.622 249.227C307.57 248.677 308.529 248.116 309.589 247.851C310.65 247.586 311.853 247.657 312.74 248.299C313.424 248.789 313.862 249.544 314.505 250.074" stroke="#263238" stroke-linecap="round" stroke-linejoin="round"/>
<path d="M296.883 278.71C297.077 282.228 298.504 285.665 300.86 288.286L296.883 278.71Z" fill="white"/>
<path d="M296.883 278.71C297.077 282.228 298.504 285.665 300.86 288.286" stroke="#263238" stroke-linecap="round" stroke-linejoin="round"/>
<path d="M296.903 240.508C297.28 239.58 297.8 238.703 298.433 237.928C298.729 237.561 299.075 237.204 299.504 237.01C299.932 236.817 300.483 236.806 300.85 237.112" stroke="#263238" stroke-linecap="round" stroke-linejoin="round"/>
<path d="M298.769 240.916C299.656 239.172 301.492 237.949 303.44 237.806" stroke="#263238" stroke-linecap="round" stroke-linejoin="round"/>
<path d="M300.819 241.018C301.451 240.161 306.387 237.428 307.519 241.661" stroke="#263238" stroke-linecap="round" stroke-linejoin="round"/>
<path d="M293.303 241.946C291.6 241.834 289.846 242.578 288.765 243.904" stroke="#263238" stroke-linecap="round" stroke-linejoin="round"/>
<path d="M291.886 243.771C290.06 244.21 288.51 245.658 287.96 247.463" stroke="#263238" stroke-linecap="round" stroke-linejoin="round"/>
<path d="M258.538 318.421C258.457 320.664 259.13 322.918 260.404 324.753" stroke="#263238" stroke-linecap="round" stroke-linejoin="round"/>
<path d="M268.716 309.477C269.613 316.126 270.001 322.836 269.879 329.546" stroke="#263238" stroke-linecap="round" stroke-linejoin="round"/>
<path d="M340.448 304.725C339 310.742 337.542 316.758 336.094 322.775" stroke="#263238" stroke-linecap="round" stroke-linejoin="round"/>
<path d="M344.181 319.246C342.896 323.183 340.856 326.875 338.205 330.066" stroke="#263238" stroke-miterlimit="10"/>
<path d="M263.219 305.745C263.607 310.894 265.963 318.094 268.716 322.469" stroke="#263238" stroke-miterlimit="10"/>
<path d="M303.144 302.889L302.757 319.512H306.622L306.877 291.274" stroke="#263238" stroke-miterlimit="10"/>
<path d="M304.725 317.35C305.243 317.35 305.663 316.93 305.663 316.411C305.663 315.893 305.243 315.473 304.725 315.473C304.207 315.473 303.786 315.893 303.786 316.411C303.786 316.93 304.207 317.35 304.725 317.35Z" stroke="#263238" stroke-miterlimit="10"/>
<path d="M305.857 304.582C305.857 305.102 305.439 305.52 304.918 305.52C304.398 305.52 303.98 305.102 303.98 304.582C303.98 304.062 304.398 303.644 304.918 303.644C305.439 303.644 305.857 304.062 305.857 304.582Z" stroke="#263238" stroke-miterlimit="10"/>
<path d="M337.797 285.797C337.705 286.113 340.306 297.147 340.306 297.147C340.306 297.147 342.029 297.871 342.294 295.526C342.366 294.894 342.039 292.405 342.08 291.263C342.192 287.939 343.008 285.073 339.969 284.716C339.969 284.716 338.185 284.461 337.797 285.797Z" fill="white" stroke="#263238" stroke-linecap="round" stroke-linejoin="round"/>
<path d="M338.613 289.529C338.062 289.468 339.367 291.63 339.439 296.321C339.469 298.32 340.54 300.094 340.54 300.094C340.54 300.094 341.907 300.706 341.856 298.33C341.825 296.851 341.244 292.966 341.173 292.364C340.663 288.336 340.703 288.887 340.775 289.346C340.775 289.346 339.449 289.631 338.613 289.529Z" fill="white" stroke="#263238" stroke-linecap="round" stroke-linejoin="round"/>
<path d="M336.441 290.621C336.349 290.937 336.95 294.751 338.072 300.523C338.613 303.307 341.183 301.879 340.989 299.075C340.887 297.596 340.377 296.403 340.367 293.864C340.346 290.743 339.633 289.325 339.633 289.325C339.633 289.325 336.828 289.274 336.441 290.621Z" fill="white" stroke="#263238" stroke-linecap="round" stroke-linejoin="round"/>
<path d="M346.496 241.854C345.843 254.908 344.517 270.745 344.395 272.305L344.14 277.211C344.14 277.211 345.017 279.729 344.935 281.861C344.864 283.747 344.548 284.574 344.283 285.134C343.854 286.073 342.733 287.449 342.722 287.48C342.08 291.09 341.856 292.028 339.418 291.855C339.286 291.845 339.265 295.628 339.265 295.628C339.734 297.719 339.714 299.259 339.52 300.064C339.337 300.819 338.664 301.339 337.889 301.359C337.889 301.359 337.083 300.656 336.298 296.638C336.206 296.158 335.788 292.803 335.757 292.273C335.614 289.03 336.022 288.143 336.216 285.899C336.237 285.726 336.257 285.553 336.298 285.369C336.298 285.369 337.705 277.863 337.848 277.761L336.828 253.725C336.767 247.433 337.012 241.13 337.593 234.869C337.899 231.687 336.961 227.883 336.95 221.581C336.94 216.013 338.694 205.764 338.98 201.807C339.051 200.848 342.192 200.91 342.264 200.736L347.658 202.541C347.679 202.551 347.189 228.281 346.496 241.854Z" fill="white" stroke="#263238" stroke-linecap="round" stroke-linejoin="round"/>
<path d="M340.367 283.207C339.541 285.797 339.683 287.776 339.02 290.142C338.878 290.662 339.214 291.671 339.683 291.763" fill="white"/>
<path d="M340.367 283.207C339.541 285.797 339.683 287.776 339.02 290.142C338.878 290.662 339.214 291.671 339.683 291.763" stroke="#263238" stroke-linecap="round" stroke-linejoin="round"/>
<path d="M339.205 283.207C339.317 284.013 339.429 284.818 339.541 285.624L339.205 283.207Z" fill="white"/>
<path d="M339.205 283.207C339.317 284.013 339.429 284.818 339.541 285.624" stroke="#263238" stroke-linecap="round" stroke-linejoin="round"/>
<path d="M405.481 286.929C405.572 287.245 402.972 298.279 402.972 298.279C402.972 298.279 401.248 299.004 400.983 296.658C400.912 296.026 401.238 293.537 401.197 292.395C401.085 289.071 400.269 286.205 403.308 285.848C403.308 285.848 405.093 285.593 405.481 286.929Z" fill="white" stroke="#263238" stroke-linecap="round" stroke-linejoin="round"/>
<path d="M404.665 290.661C405.216 290.6 403.91 292.762 403.839 297.453C403.808 299.452 402.737 301.216 402.737 301.216C402.737 301.216 401.371 301.828 401.422 299.452C401.453 297.973 402.034 294.088 402.105 293.486C402.615 289.458 402.574 290.009 402.503 290.468C402.503 290.468 403.839 290.753 404.665 290.661Z" fill="white" stroke="#263238" stroke-linecap="round" stroke-linejoin="round"/>
<path d="M406.837 291.742C406.929 292.059 406.327 295.873 405.205 301.645C404.665 304.429 402.095 303.001 402.289 300.197C402.391 298.718 402.901 297.525 402.911 294.985C402.931 291.865 403.645 290.447 403.645 290.447C403.645 290.447 406.449 290.407 406.837 291.742Z" fill="white" stroke="#263238" stroke-linecap="round" stroke-linejoin="round"/>
<path d="M396.782 242.986C397.435 256.04 398.76 271.877 398.883 273.437L399.138 278.343C399.138 278.343 398.261 280.872 398.342 282.993C398.414 284.88 398.73 285.706 398.995 286.266C399.423 287.205 400.545 288.581 400.555 288.612C401.198 292.222 401.422 293.16 403.859 292.987C403.992 292.977 404.012 296.76 404.012 296.76C403.543 298.851 403.564 300.391 403.757 301.196C403.941 301.951 404.614 302.471 405.389 302.491C405.389 302.491 406.195 301.788 406.98 297.77C407.072 297.29 407.49 293.935 407.52 293.405C407.663 290.162 407.255 289.275 407.061 287.031C407.041 286.858 407.021 286.685 406.98 286.501C406.98 286.501 405.573 278.995 405.44 278.893L406.46 254.857C406.521 248.565 406.276 242.262 405.695 236.001C405.389 232.819 406.327 229.015 406.337 222.713C406.348 217.145 404.594 206.896 404.308 202.939C404.237 201.98 401.096 202.042 401.024 201.868L395.63 203.673C395.609 203.673 396.099 229.413 396.782 242.986Z" fill="white" stroke="#263238" stroke-linecap="round" stroke-linejoin="round"/>
<path d="M402.911 284.329C403.737 286.919 403.594 288.897 404.257 291.263C404.4 291.783 404.063 292.793 403.594 292.885" fill="white"/>
<path d="M402.911 284.329C403.737 286.919 403.594 288.897 404.257 291.263C404.4 291.783 404.063 292.793 403.594 292.885" stroke="#263238" stroke-linecap="round" stroke-linejoin="round"/>
<path d="M404.073 284.329C403.961 285.134 403.849 285.94 403.737 286.746L404.073 284.329Z" fill="white"/>
<path d="M404.073 284.329C403.961 285.134 403.849 285.94 403.737 286.746" stroke="#263238" stroke-linecap="round" stroke-linejoin="round"/>
<path d="M357.52 418.095C357.52 418.095 355.858 422.766 350.841 426.794C349.066 428.212 348.108 429.537 347.608 430.649C346.894 432.23 348.128 434.024 349.862 434.024H366.403C367.412 434.024 368.33 433.413 368.677 432.474C369.197 431.047 369.544 428.538 368.3 424.591L366.688 416.311L357.52 418.095Z" fill="white" stroke="#263238" stroke-width="0.75" stroke-miterlimit="10" stroke-linecap="round" stroke-linejoin="round"/>
<path d="M368.687 432.475C369.207 431.047 369.553 428.538 368.309 424.592L367.789 421.94L366.678 423.49C366.678 423.49 365.484 421.593 361.283 421.593C357.071 421.593 355.388 423.49 355.388 423.49L354.919 422.572C353.91 423.908 352.584 425.397 350.83 426.794C349.055 428.212 348.097 429.538 347.597 430.649C346.883 432.23 348.117 434.025 349.851 434.025H366.392C367.422 434.025 368.34 433.413 368.687 432.475Z" fill="#263238" stroke="#263238" stroke-width="0.75" stroke-miterlimit="10" stroke-linecap="round" stroke-linejoin="round"/>
<path d="M347.424 431.363C347.281 432.73 348.382 434.025 349.861 434.025H366.402C367.412 434.025 368.329 433.413 368.676 432.475C368.788 432.159 368.89 431.791 368.972 431.373H347.424V431.363Z" fill="white" stroke="#263238" stroke-width="0.75" stroke-miterlimit="10" stroke-linecap="round" stroke-linejoin="round"/>
<path d="M373.214 270.184L371.715 352.257L370.512 418.248H353.95L345.129 295.863L347.25 265.197C359.529 262.016 368.748 267.084 371.96 269.266C372.776 269.817 373.214 270.184 373.214 270.184Z" fill="#263238"/>
<path d="M385.91 418.095C385.91 418.095 387.573 422.766 392.59 426.794C394.365 428.212 395.323 429.537 395.823 430.649C396.537 432.23 395.303 434.024 393.569 434.024H377.028C376.018 434.024 375.101 433.413 374.754 432.474C374.234 431.047 373.887 428.538 375.121 424.591L376.732 416.311L385.91 418.095Z" fill="white" stroke="#263238" stroke-width="0.75" stroke-miterlimit="10" stroke-linecap="round" stroke-linejoin="round"/>
<path d="M374.734 432.474C374.214 431.047 373.867 428.538 375.101 424.591L375.621 421.94L376.733 423.49C376.733 423.49 377.926 421.593 382.127 421.593C386.329 421.593 388.011 423.49 388.011 423.49L388.481 422.572C389.49 423.908 390.816 425.397 392.57 426.794C394.344 428.212 395.303 429.537 395.803 430.649C396.517 432.23 395.283 434.025 393.549 434.025H377.008C376.008 434.025 375.091 433.413 374.734 432.474Z" fill="#263238" stroke="#263238" stroke-width="0.75" stroke-miterlimit="10" stroke-linecap="round" stroke-linejoin="round"/>
<path d="M396.007 431.363C396.15 432.729 395.048 434.025 393.569 434.025H377.028C376.019 434.025 375.101 433.413 374.754 432.475C374.642 432.158 374.54 431.791 374.458 431.373H396.007V431.363Z" fill="white" stroke="#263238" stroke-width="0.75" stroke-miterlimit="10" stroke-linecap="round" stroke-linejoin="round"/>
<path d="M398.301 295.863L389.48 418.248H372.929L371.715 352.257L373.214 270.184C373.214 270.184 372.776 269.817 371.96 269.266C375.611 267.553 384.718 264.28 396.466 267.329L398.301 295.863Z" fill="#263238"/>
<path d="M346.547 220.214H335.533L334.677 220.184L336.176 211.546V209.761C336.176 202.745 335.941 195.178 341.591 189.478C341.785 190.711 345.007 199.726 346.547 220.214Z" fill="#C6B5DD"/>
<path opacity="0.2" d="M343.783 215.38C342.549 214.738 341.315 214.095 340.081 213.463C341.244 215.615 342.417 217.767 343.579 219.918C340.581 220.102 337.583 220.296 334.585 220.479C335.125 217.298 335.666 214.106 336.216 210.924C336.808 211.944 337.389 212.963 337.981 213.983C336.42 211.271 334.687 203.49 337.613 201.338C340.53 204.723 342.019 211.107 343.783 215.38Z" fill="black"/>
<path d="M346.547 220.214H335.533L334.677 220.184L336.176 211.546V209.761C336.176 202.745 335.941 195.178 341.591 189.478C341.785 190.711 345.007 199.726 346.547 220.214Z" stroke="#263238" stroke-linecap="round" stroke-linejoin="round"/>
<path d="M395.619 219.419V219.388L399.586 195.443L400.739 188.499C406.847 195.168 406.174 205.325 406.174 208.844L407.785 219.388L395.619 219.419Z" fill="#C6B5DD"/>
<path opacity="0.2" d="M398.985 205.019C399.637 203.541 400.3 202.062 400.953 200.573C400.32 203.133 399.688 205.692 399.056 208.252C398.872 209.017 398.689 209.863 399.066 210.547C399.525 211.383 400.677 211.638 401.595 211.363C402.513 211.087 403.247 210.414 403.961 209.772C401.575 211.883 400.688 215.534 401.85 218.501C400.361 220.163 397.128 219.47 396.455 217.339C396.16 216.4 396.313 215.391 396.466 214.432C397.149 210.129 397.618 205.692 398.556 201.46C398.689 202.235 399.29 204.326 398.985 205.019Z" fill="black"/>
<path d="M395.619 219.419V219.388L399.586 195.443L400.739 188.499C406.847 195.168 406.174 205.325 406.174 208.844L407.785 219.388L395.619 219.419Z" stroke="#263238" stroke-linecap="round" stroke-linejoin="round"/>
<path d="M397.322 209.18C394.752 233.043 396.517 266.696 396.517 266.696C376.784 275.63 346.73 266.289 346.72 266.278C347.75 246.872 347.414 231.738 346.547 220.224C344.997 199.737 341.784 190.712 341.601 189.488C341.57 189.365 341.57 189.304 341.57 189.304L359.508 184.44L361.946 183.777C362.527 183.389 363.292 183.084 364.169 182.869C365.087 182.635 366.127 182.492 367.238 182.421C367.371 182.41 367.524 182.4 367.667 182.4C367.697 182.4 367.708 182.39 367.738 182.39C370.084 182.258 372.694 182.39 375.03 182.604C376.61 182.747 378.058 182.941 379.211 183.104C379.231 183.114 379.241 183.114 379.262 183.114C380.251 183.257 381.801 183.604 383.627 184.032C390.306 185.633 400.739 188.601 400.739 188.601C400.739 188.601 397.7 205.662 397.322 209.18Z" fill="#C6B5DD"/>
<path opacity="0.2" d="M346.771 215.431C350.769 221.448 354.766 227.455 358.764 233.472C357.357 229.739 355.949 226.017 354.542 222.284C361.375 235.399 372.562 246.188 385.921 252.542C378.517 253.806 370.594 251.573 364.934 246.627C369.37 253.215 376.978 257.569 384.901 258.059C376.886 261.485 367.789 262.352 359.264 260.486C365.872 265.095 373.643 268.022 381.648 268.909C374.071 269.684 366.423 269.746 358.835 269.093C354.042 268.675 348.454 267.39 346.567 262.964C345.792 261.139 345.813 259.079 345.853 257.1C346.108 243.547 346.363 229.994 346.628 216.441C346.496 217.032 346.353 217.624 346.22 218.215" fill="black"/>
<path opacity="0.2" d="M389.164 241.038C381.118 238.754 372.205 233.635 365.525 229.688C368.177 231.983 372.174 236.765 375.54 238.234C379.415 239.917 385.238 240.376 389.164 241.038Z" fill="black"/>
<path d="M397.322 209.18C394.752 233.043 396.517 266.696 396.517 266.696C376.784 275.63 346.73 266.289 346.72 266.278C347.75 246.872 347.414 231.738 346.547 220.224C344.997 199.737 341.784 190.712 341.601 189.488C341.57 189.365 341.57 189.304 341.57 189.304L359.508 184.44L361.946 183.777C362.527 183.389 363.292 183.084 364.169 182.869C365.087 182.635 366.127 182.492 367.238 182.421C367.371 182.41 367.524 182.4 367.667 182.4C367.697 182.4 367.708 182.39 367.738 182.39C370.084 182.258 372.694 182.39 375.03 182.604C376.61 182.747 378.058 182.941 379.211 183.104C379.231 183.114 379.241 183.114 379.262 183.114C380.251 183.257 381.801 183.604 383.627 184.032C390.306 185.633 400.739 188.601 400.739 188.601C400.739 188.601 397.7 205.662 397.322 209.18Z" stroke="#263238" stroke-linecap="round" stroke-linejoin="round"/>
<path d="M386.37 185.011C382.821 189.988 377.334 192.476 371.858 192.476C366.514 192.476 361.16 190.11 357.591 185.337L357.346 185.011L364.159 182.859V172.896L379.201 172.172V182.931L379.547 182.859L386.37 185.011Z" fill="white" stroke="#263238" stroke-linecap="round" stroke-linejoin="round"/>
<path d="M357.112 160.148C356.673 160.852 356.306 161.627 356.245 162.463C356.163 163.483 356.561 164.503 357.152 165.339C357.744 166.175 358.519 166.869 359.294 167.532C359.62 167.807 359.947 168.093 360.344 168.256C360.742 168.419 361.221 168.439 361.578 168.215C361.976 167.96 362.149 167.46 362.129 166.991C362.119 166.522 361.945 166.073 361.803 165.625C361.17 163.748 361.374 161.719 360.834 159.904C360.212 157.803 358.009 158.7 357.112 160.148Z" fill="white" stroke="#263238" stroke-linecap="round" stroke-linejoin="round"/>
<path d="M387.053 160.148C387.492 160.852 387.859 161.627 387.92 162.463C388.001 163.483 387.604 164.503 387.012 165.339C386.421 166.175 385.646 166.869 384.871 167.532C384.544 167.807 384.218 168.093 383.82 168.256C383.423 168.419 382.943 168.439 382.586 168.215C382.189 167.96 382.015 167.46 382.036 166.991C382.046 166.522 382.219 166.073 382.362 165.625C382.994 163.748 382.79 161.719 383.331 159.904C383.953 157.803 386.166 158.7 387.053 160.148Z" fill="white" stroke="#263238" stroke-linecap="round" stroke-linejoin="round"/>
<path d="M364.159 175.333C364.159 175.333 366.484 184.134 371.144 184.328C375.805 184.511 379.201 176.241 379.201 176.241C379.201 176.241 374.387 172.763 364.159 175.333Z" fill="#263238"/>
<path d="M384.779 157.935C384.779 167.675 379.047 181.095 371.98 181.095C364.913 181.095 359.182 167.675 359.182 157.935C359.182 148.196 364.913 140.303 371.98 140.303C379.047 140.303 384.779 148.196 384.779 157.935Z" fill="white" stroke="#263238" stroke-linecap="round" stroke-linejoin="round"/>
<path d="M367.289 159.577C367.687 159.577 368.003 160.393 368.003 161.413C368.003 162.433 367.687 163.249 367.289 163.249C366.891 163.249 366.575 162.433 366.575 161.413C366.575 160.393 366.891 159.577 367.289 159.577Z" fill="#263238"/>
<path d="M376.233 159.577C376.631 159.577 376.947 160.393 376.947 161.413C376.947 162.433 376.631 163.249 376.233 163.249C375.835 163.249 375.519 162.433 375.519 161.413C375.519 160.393 375.835 159.577 376.233 159.577Z" fill="#263238"/>
<path d="M373.275 158.659L372.806 159.598C372.806 159.598 373.123 164.544 373.255 165.614C373.388 166.685 372.602 167.889 371.44 167.256L370.267 166.624" stroke="#263238" stroke-linecap="round" stroke-linejoin="round"/>
<path d="M368.411 171.407C368.411 172.386 375.55 172.386 375.55 171.407" stroke="#263238" stroke-linecap="round" stroke-linejoin="round"/>
<path d="M359.784 164.503C360.528 164.646 360.528 164.646 361.283 164.799C360.793 163.483 360.396 161.331 360.253 159.934C360.11 158.537 362.129 156.436 362.129 155.447C362.129 150.103 365.036 150.266 365.627 151.042C365.709 150.063 370.267 145.361 373.683 151.888C374.55 153.55 383.83 155.029 383.8 156.528C383.728 159.74 383.514 161.229 383.025 164.401C383.79 164.554 384.442 163.758 384.534 162.994C384.626 162.229 384.82 159.261 385.462 158.833C385.952 159.506 386.237 159.669 387.073 159.618C386.706 158.67 386.329 157.691 386.37 156.671C386.41 155.651 386.941 156.324 387.92 156.039C388.43 155.886 392.774 152.969 393.315 151.398C391.346 151.643 389.5 150.297 388.369 148.665C387.247 147.034 386.635 145.106 385.676 143.373C383.31 139.049 378.548 135.979 373.622 136.163C368.697 136.356 363.975 140.13 363.231 145.004C362.313 144.535 361.15 144.841 360.334 145.484C359.519 146.126 358.988 147.034 358.468 147.931C357.53 149.542 356.571 151.205 356.235 153.04C355.898 154.876 357.764 157.456 359.182 158.67C359.376 158.262 359.274 164.503 359.784 164.503Z" fill="#263238"/>
<path d="M363.506 158.364C364.006 157.946 364.342 157.354 364.872 156.977C365.566 156.477 366.494 156.426 367.32 156.63C368.146 156.834 368.89 157.273 369.625 157.701" stroke="#263238" stroke-linecap="round" stroke-linejoin="round"/>
<path d="M374.561 157.701C375.295 157.273 376.039 156.834 376.865 156.63C377.691 156.426 378.619 156.487 379.313 156.977C379.843 157.354 380.18 157.946 380.679 158.364" stroke="#263238" stroke-linecap="round" stroke-linejoin="round"/>
<path d="M366.994 180.606C367.147 183.339 368.248 186.011 370.084 188.05L366.994 180.606Z" fill="white"/>
<path d="M366.994 180.606C367.147 183.339 368.248 186.011 370.084 188.05" stroke="#263238" stroke-linecap="round" stroke-linejoin="round"/>
<path d="M367.004 150.929C367.3 150.205 367.697 149.532 368.187 148.92C368.421 148.635 368.687 148.36 369.023 148.207C369.36 148.054 369.788 148.054 370.073 148.288" stroke="#263238" stroke-linecap="round" stroke-linejoin="round"/>
<path d="M368.462 151.246C369.145 149.889 370.573 148.941 372.093 148.829" stroke="#263238" stroke-linecap="round" stroke-linejoin="round"/>
<path d="M370.053 151.327C370.542 150.664 374.387 148.533 375.264 151.827" stroke="#263238" stroke-linecap="round" stroke-linejoin="round"/>
<path d="M364.21 152.041C362.884 151.949 361.528 152.53 360.681 153.56" stroke="#263238" stroke-linecap="round" stroke-linejoin="round"/>
<path d="M363.108 153.459C361.691 153.795 360.477 154.927 360.049 156.324" stroke="#263238" stroke-linecap="round" stroke-linejoin="round"/>
<path d="M362.701 294.731C365.77 296.138 368.921 297.341 372.144 298.331L382.913 294.598" stroke="#5C5C5C" stroke-miterlimit="10" stroke-linecap="round" stroke-linejoin="round"/>
<path d="M346.139 283.91C347.944 283.666 349.188 282.014 350.116 280.443C351.891 277.425 353.267 274.171 354.195 270.796" stroke="#5C5C5C" stroke-miterlimit="10" stroke-linecap="round" stroke-linejoin="round"/>
<path d="M396.772 283.91C394.967 283.666 393.723 282.014 392.795 280.443C391.02 277.425 389.643 274.171 388.715 270.796" stroke="#5C5C5C" stroke-miterlimit="10" stroke-linecap="round" stroke-linejoin="round"/>
<path d="M371.083 270.796V272.265C371.083 272.265 387.451 272.999 394.753 268.93" stroke="#5C5C5C" stroke-miterlimit="10" stroke-linecap="round" stroke-linejoin="round"/>
<path d="M348.637 268.267C354.379 271.388 364.556 271.938 371.073 272.265" stroke="#5C5C5C" stroke-miterlimit="10" stroke-linecap="round" stroke-linejoin="round"/>
<path d="M372.001 272.295L372.205 282.554C372.205 282.554 372.215 282.87 372.215 283.401L372.338 289.081C372.338 289.081 374.907 289.499 375.346 286.939C375.723 284.828 375.458 275.528 375.346 272.316" stroke="#5C5C5C" stroke-miterlimit="10" stroke-linecap="round" stroke-linejoin="round"/>
<path d="M371.552 360.997C371.399 354.98 372.205 282.554 372.205 282.554" stroke="#5C5C5C" stroke-miterlimit="10" stroke-linecap="round" stroke-linejoin="round"/>
<path d="M354.042 253.827C362.812 260.455 375.111 262.087 385.309 257.998" stroke="#263238" stroke-linecap="round" stroke-linejoin="round"/>
<path d="M355.929 222.284C358.499 227.302 361.303 232.197 364.74 236.653C369.961 243.425 376.824 249.207 385.003 251.655" stroke="#263238" stroke-linecap="round" stroke-linejoin="round"/>
<path d="M354.297 219.031C354.573 219.592 354.603 219.653 354.879 220.214" stroke="#263238" stroke-linecap="round" stroke-linejoin="round"/>
<path d="M352.064 214.432C352.482 215.299 352.9 216.176 353.328 217.043" stroke="#263238" stroke-linecap="round" stroke-linejoin="round"/>
<path d="M365.525 229.688C371.165 236.46 379.67 240.753 388.471 241.273" stroke="#263238" stroke-linecap="round" stroke-linejoin="round"/>
<path d="M336.257 204.061C336.359 210.19 337.654 212.892 338.857 214.381" stroke="#263238" stroke-linecap="round" stroke-linejoin="round"/>
<path d="M346.047 204.815C346.19 211.566 347.301 219.031 347.087 229.688" stroke="#263238" stroke-linecap="round" stroke-linejoin="round"/>
<path d="M341.57 201.277C341.866 205.285 343.701 210.873 345.843 214.279" stroke="#263238" stroke-miterlimit="10" stroke-linecap="round" stroke-linejoin="round"/>
<path d="M402.054 198.289C400.922 202.97 399.606 208.12 397.169 210.638" stroke="#263238" stroke-linecap="round" stroke-linejoin="round"/>
<path d="M400.892 214.279C400.188 214.871 399.495 215.411 398.852 215.901" stroke="#263238" stroke-miterlimit="10" stroke-linecap="round" stroke-linejoin="round"/>
<path d="M406.195 206.804C405.379 209.353 403.972 211.291 402.442 212.841" stroke="#263238" stroke-miterlimit="10" stroke-linecap="round" stroke-linejoin="round"/>
</svg>
