<svg width="70" height="65" viewBox="0 0 70 65" fill="none" xmlns="http://www.w3.org/2000/svg">
<path d="M34.6947 34.688C34.4421 34.688 34.2044 34.5543 34.0707 34.3314C33.8627 33.9897 33.9667 33.544 34.3084 33.3212L34.873 32.9646L34.6798 33.0835C34.3381 33.2766 33.8925 33.1726 33.6845 32.8309C33.4765 32.4892 33.5804 32.0435 33.9221 31.8206L36.8489 29.9339L34.249 31.4344C33.9073 31.6275 33.4616 31.5235 33.2536 31.1818C33.0456 30.8401 33.1496 30.3944 33.4765 30.1716L38.7951 26.6951L33.7736 29.5922C33.4319 29.7853 32.9862 29.6813 32.7782 29.3396C32.5702 28.9979 32.6593 28.5522 33.001 28.3294L41.291 22.773L33.209 27.438C32.8673 27.6311 32.4365 27.5271 32.2136 27.2003C32.0056 26.8734 32.0799 26.4277 32.4068 26.2049L44.8566 17.3355L32.4365 24.5112C32.0948 24.7044 31.664 24.6004 31.4411 24.2735C31.2331 23.9318 31.3222 23.501 31.6491 23.2781L40.5779 17.0978L31.8125 22.1639C31.4708 22.357 31.0251 22.253 30.8171 21.9113C30.6091 21.5696 30.6983 21.1239 31.0251 20.9159L36.0615 17.5138L31.2925 20.2622C30.9508 20.4554 30.5052 20.3514 30.2972 20.0097C30.0892 19.668 30.1783 19.2223 30.52 19.0143L33.7884 16.8304L30.8469 18.5389C30.5052 18.732 30.0743 18.628 29.8663 18.3012C29.6583 17.9743 29.7326 17.5287 30.0446 17.3058L38.7357 10.8729L30.1337 15.835C29.8069 16.0281 29.3612 15.9241 29.1532 15.6121C28.9303 15.2853 29.0046 14.8545 29.3166 14.6168L37.0123 8.689L29.4058 13.0865C29.0641 13.2797 28.6332 13.1757 28.4252 12.8488C28.2172 12.522 28.2915 12.0763 28.6035 11.8534L32.3622 9.09012L28.8709 11.0957C28.5292 11.2889 28.0984 11.1849 27.8904 10.8581C27.6675 10.5312 27.7418 10.1004 28.0538 9.86266L31.1291 7.51533L28.3509 9.11984C28.0092 9.31297 27.5933 9.20897 27.3704 8.89699C27.1476 8.57014 27.2218 8.1393 27.5338 7.9016L29.0789 6.69821L27.8904 7.38161C27.5932 7.55989 27.1921 7.50047 26.9693 7.23305C26.7316 6.96563 26.7316 6.57936 26.9396 6.29709L29.2721 3.28121L27.1327 4.5143C26.8802 4.66286 26.5533 4.64801 26.3156 4.46973C26.0779 4.29145 25.9739 3.99432 26.0333 3.69719L26.2562 2.79094C26.0036 2.79094 25.7659 2.65723 25.6322 2.41953C25.4242 2.06297 25.543 1.61727 25.8996 1.40928L26.9693 0.785307C27.2218 0.636742 27.5487 0.651597 27.7864 0.829875C28.0241 1.00815 28.1281 1.30528 28.0687 1.60241L27.8755 2.3601L31.7977 0.101907C32.1096 -0.0763715 32.4959 -0.0169475 32.7188 0.250471C32.9565 0.517889 32.9565 0.904155 32.7485 1.18643L30.416 4.20231L37.4432 0.146475C37.7849 -0.0466602 38.2157 0.057338 38.4237 0.369326C38.6465 0.69617 38.5723 1.12701 38.2603 1.36471L36.7152 2.58295L40.4293 0.428742C40.771 0.235607 41.2019 0.339608 41.4098 0.666452C41.6327 0.993297 41.5584 1.42413 41.2464 1.66184L38.1711 4.00918L43.2372 1.08243C43.5789 0.889299 44.0098 0.9933 44.2178 1.32014C44.4258 1.64699 44.3515 2.09268 44.0395 2.31553L40.2807 5.07885L45.9411 1.8104C46.268 1.61727 46.7136 1.72127 46.9216 2.03325C47.1296 2.3601 47.0702 2.79093 46.7582 3.02864L39.0625 8.95641L49.2095 3.08807C49.5512 2.89493 49.9821 2.99893 50.1901 3.32578C50.3981 3.65262 50.3238 4.09832 50.0118 4.32116L41.3207 10.7541L52.0471 4.55887C52.3888 4.36574 52.8346 4.46973 53.0426 4.81143C53.2505 5.15313 53.1614 5.59883 52.8197 5.82168L49.5513 8.02044L53.7854 5.58397C54.1271 5.37598 54.5728 5.49484 54.7808 5.83654C54.9887 6.17824 54.8996 6.62393 54.5728 6.83193L49.5364 10.2192L55.4939 6.7725C55.8356 6.57936 56.2813 6.68335 56.4892 7.0102C56.6972 7.3519 56.6081 7.78275 56.2813 8.00559L47.3376 14.1859L57.4698 8.33243C57.8115 8.13929 58.2423 8.2433 58.4652 8.57014C58.6732 8.89698 58.5989 9.34268 58.272 9.56553L45.8222 18.4349L59.6834 10.4421C60.0251 10.2489 60.4708 10.3529 60.6788 10.6946C60.8868 11.0363 60.7977 11.482 60.456 11.7049L52.166 17.2612L61.1691 12.0614C61.5108 11.8683 61.9565 11.9723 62.1645 12.314C62.3725 12.6557 62.2685 13.1014 61.9416 13.3242L56.6229 16.8007L62.313 13.5174C62.6547 13.3242 63.1004 13.4282 63.3084 13.7699C63.5164 14.1116 63.4124 14.5573 63.0707 14.7802L60.144 16.667L63.2341 14.8842C63.5907 14.691 64.0215 14.795 64.2295 15.1367C64.4375 15.4784 64.3335 15.9241 63.9918 16.147L63.4273 16.5035L64.0661 16.1321C64.4078 15.939 64.8387 16.043 65.0615 16.3698C65.2695 16.6967 65.1804 17.1424 64.8684 17.3652L56.2664 23.4118L65.2101 18.2418C65.5518 18.0486 65.9975 18.1526 66.2054 18.4943C66.4134 18.836 66.3243 19.2817 65.9826 19.5046L65.7895 19.6234L65.8192 19.6086C66.1609 19.4154 66.5917 19.5194 66.8146 19.8463C67.0226 20.1731 66.9483 20.6188 66.6214 20.8416L64.9575 22.0302L66.5174 21.1239C66.8294 20.9456 67.2305 21.0199 67.4534 21.2873C67.6762 21.5696 67.6763 21.9707 67.4386 22.2382L64.6158 25.4918L67.3494 23.917C67.6168 23.7535 67.9734 23.7981 68.2111 24.0061C68.4488 24.2141 68.5231 24.5558 68.4042 24.8381L68.1071 25.5363C68.3894 25.5066 68.6865 25.6403 68.835 25.8929C69.043 26.2494 68.9242 26.6951 68.5676 26.9031L66.9928 27.8094C66.7254 27.9728 66.3689 27.9282 66.1312 27.7202C65.8935 27.5122 65.8192 27.1706 65.938 26.8883L66.1906 26.2792L61.5256 28.9682C61.2136 29.1465 60.8125 29.0722 60.5897 28.8048C60.3668 28.5225 60.3668 28.1214 60.6045 27.8539L63.4273 24.6004L52.5374 30.8847C52.1957 31.0778 51.7649 30.9738 51.542 30.647C51.334 30.3201 51.4083 29.8744 51.7352 29.6516L53.3991 28.4631L47.2485 32.0138C46.9068 32.2069 46.4611 32.1029 46.2531 31.7612C46.0451 31.4195 46.1342 30.9738 46.4759 30.751L46.6542 30.6321L42.539 33.0092C42.1973 33.2023 41.7664 33.0983 41.5436 32.7715C41.3356 32.4446 41.4247 31.9989 41.7367 31.7761L50.3387 25.7295L35.0215 34.5691C34.9473 34.6583 34.8284 34.688 34.6947 34.688Z" fill="#C6B5DD"/>
<path d="M11.8007 55.4872C5.14496 49.6931 1 41.4329 1 32.2664C1 14.7356 16.1982 0.532776 34.9472 0.532776C53.6962 0.532776 68.8944 14.7356 68.8944 32.2664C68.8944 49.7971 53.6962 64 34.9472 64C29.8365 64 25.0082 62.9452 20.6552 61.0584" stroke="#263238" stroke-miterlimit="10"/>
<path d="M25.3833 1.10834L34.5498 34.283L68.081 26.6319" stroke="#263238" stroke-miterlimit="10"/>
</svg>
