<svg width="65" height="64" viewBox="0 0 65 64" fill="none" xmlns="http://www.w3.org/2000/svg">
<circle cx="7.45865" cy="7.45865" r="6.95865" fill="#C6B5DD" stroke="#263238" stroke-linecap="round"/>
<circle cx="37.4536" cy="7.45865" r="6.95865" fill="#C6B5DD" stroke="#263238" stroke-linecap="round"/>
<circle cx="22.5364" cy="32" r="6.95865" fill="#C6B5DD" stroke="#263238" stroke-linecap="round"/>
<circle cx="26.7067" cy="56.5413" r="6.95865" fill="#C6B5DD" stroke="#263238" stroke-linecap="round"/>
<circle cx="56.7016" cy="56.5413" r="6.95865" fill="#C6B5DD" stroke="#263238" stroke-linecap="round"/>
<path d="M14.8262 7.61903L28.948 7.61903M28.948 7.61903L25.339 4.01001M28.948 7.61903L25.339 11.2281M34.1995 56.5414H48.149M48.149 56.5414L44.54 52.9324M48.149 56.5414L44.54 60.1504M31.0459 32.0802H50.8069C57.5616 32.0802 63.0375 26.6044 63.0375 19.8497C63.0375 13.0949 57.5617 7.61908 50.8069 7.61908H44.9122M31.0459 32.0802L34.7351 28.391M31.0459 32.0802L34.7351 35.7695M18.1977 56.5414L13.3533 56.5414C6.5985 56.5414 1.12268 51.0656 1.12268 44.3108C1.12268 37.5561 6.5985 32.0802 13.3533 32.0802H15.1998M18.1977 56.5414L14.5085 52.8522M18.1977 56.5414L14.5085 60.2307" stroke="#263238" stroke-linecap="round"/>
</svg>
