<svg width="64" height="64" viewBox="0 0 64 64" fill="none" xmlns="http://www.w3.org/2000/svg">
<path d="M38.7728 7.27269C38.7728 11.0131 35.7406 14.0454 32.0001 14.0454C28.2597 14.0454 25.2274 11.0131 25.2274 7.27269C25.2274 3.53224 28.2597 0.5 32.0001 0.5C35.7406 0.5 38.7728 3.53224 38.7728 7.27269Z" fill="#C6B5DD" stroke="#263238"/>
<path d="M22.3052 19.432C24.5924 18.0835 28.1122 16.4999 32.0001 16.4999C35.888 16.4999 39.4077 18.0834 41.6949 19.432C43.4671 20.4772 44.591 22.5246 44.591 24.7954V25.7272C44.591 27.3428 43.3819 28.5909 41.9745 28.5909H22.0256C20.6183 28.5909 19.4092 27.3429 19.4092 25.7272V24.7954C19.4092 22.5246 20.5331 20.4771 22.3052 19.432ZM22.3052 19.432L22.0513 19.0013L22.3052 19.432Z" fill="#C6B5DD" stroke="#263238"/>
<path d="M19.8636 42.1818C19.8636 45.9223 16.8314 48.9545 13.0909 48.9545C9.35047 48.9545 6.31824 45.9223 6.31824 42.1818C6.31824 38.4414 9.35047 35.4091 13.0909 35.4091C16.8314 35.4091 19.8636 38.4414 19.8636 42.1818Z" fill="#C6B5DD" stroke="#263238"/>
<path d="M3.39603 54.3413C5.68325 52.9928 9.20303 51.4092 13.0909 51.4092C16.9788 51.4092 20.4986 52.9927 22.7858 54.3413C24.5579 55.3863 25.6818 57.4338 25.6818 59.7045V60.6363C25.6818 62.2519 24.4727 63.5 23.0654 63.5H3.11646C1.70913 63.5 0.5 62.2519 0.5 60.6363V59.7045C0.5 57.4338 1.6239 55.3863 3.39603 54.3413ZM3.39603 54.3413L3.14209 53.9106L3.39603 54.3413Z" fill="#C6B5DD" stroke="#263238"/>
<path d="M57.6817 42.1818C57.6817 45.9223 54.6495 48.9545 50.909 48.9545C47.1686 48.9545 44.1364 45.9223 44.1364 42.1818C44.1364 38.4414 47.1686 35.4091 50.909 35.4091C54.6495 35.4091 57.6817 38.4414 57.6817 42.1818Z" fill="#C6B5DD" stroke="#263238"/>
<path d="M41.2144 54.3413C43.5016 52.9928 47.0214 51.4092 50.9093 51.4092C54.7972 51.4092 58.317 52.9927 60.6042 54.3413C62.3761 55.3863 63.5001 57.4338 63.5002 59.7047V60.6364C63.5002 62.252 62.2911 63.5001 60.8838 63.5001H40.9348C39.5275 63.5001 38.3184 62.252 38.3184 60.6364V59.7047C38.3184 57.4339 39.4423 55.3863 41.2144 54.3413ZM41.2144 54.3413L40.9605 53.9106L41.2144 54.3413Z" fill="#C6B5DD" stroke="#263238"/>
<path d="M32 42V33M32 42L39.5 48.5M32 42L24 48.5" stroke="#263238" stroke-linecap="round" stroke-linejoin="round"/>
</svg>
