<svg width="279" height="308" viewBox="0 0 279 308" fill="none" xmlns="http://www.w3.org/2000/svg">
<path d="M232.996 307.586C250.533 307.586 264.749 306.184 264.749 304.454C264.749 302.725 250.533 301.323 232.996 301.323C215.459 301.323 201.242 302.725 201.242 304.454C201.242 306.184 215.459 307.586 232.996 307.586Z" fill="#263238"/>
<path d="M232.538 65.892C232.538 65.892 238.123 65.892 239.387 69.939C240.65 73.986 237.116 79.3423 232.538 80.5509C227.96 81.7595 223.913 77.5843 224.179 73.5557C224.444 69.527 229.993 65.7821 232.538 65.892Z" fill="#263238" stroke="#263238" stroke-linecap="round" stroke-linejoin="round"/>
<path d="M265.381 250.406C265.381 250.406 267.02 249.783 267.276 247.284C267.533 244.784 264.337 238.952 264.346 235.802C264.356 232.652 264.127 227.122 263.431 226.106C262.735 225.089 258.633 225.3 256.051 227.397C253.469 229.493 260.272 233.971 262.112 239.043C263.953 244.116 262.79 244.784 263.504 247.064C263.851 248.313 264.495 249.46 265.381 250.406Z" fill="white" stroke="#263238" stroke-linecap="round" stroke-linejoin="round"/>
<path d="M187.82 190.534C187.82 190.534 189.504 208.187 190.42 210.33C191.336 212.472 198.413 213.818 201.297 214.908C204.182 215.997 234.653 225.694 240.778 229.31C246.904 232.927 255.859 240.609 259.75 244.152C263.641 247.696 264.328 251.871 265.418 250.406C266.507 248.941 265.042 243.273 263.934 240.169C262.826 237.066 261.572 235.518 261.325 233.284C261.078 231.05 260.464 227.845 258.175 227.14C255.886 226.435 252.132 229.2 252.132 229.2C252.132 229.2 249.495 228.779 244.597 224.339C239.698 219.898 230.386 213.763 226.724 211.026C223.061 208.288 211.937 206.209 208.54 205.532C206.541 205.158 204.595 204.543 202.744 203.701L204.859 193.675C204.859 193.675 190.42 191.734 187.82 190.534Z" fill="white" stroke="#263238" stroke-linecap="round" stroke-linejoin="round"/>
<path d="M261.288 233.284C261.05 231.059 260.427 227.845 258.138 227.14C256.527 226.646 254.21 227.854 252.965 228.624C255.303 230.859 257.315 233.411 258.944 236.205C261.37 240.471 261.389 243.108 260.986 245.452C263.778 248.62 264.419 251.688 265.381 250.406C266.47 248.941 265.005 243.273 263.897 240.169C262.79 237.065 261.535 235.518 261.288 233.284Z" fill="#C6B5DD" stroke="#263238" stroke-linecap="round" stroke-linejoin="round"/>
<path d="M211.653 289.209C212.456 289.781 213.387 290.146 214.364 290.272C215.342 290.398 216.335 290.281 217.257 289.932C220.214 288.66 223.922 283.212 225.177 281.756C226.431 280.3 232.401 277.297 233.133 274.697C233.866 272.096 229.654 268.672 229.654 268.672C228.342 271.131 226.624 273.351 224.572 275.237C221.276 278.213 221.761 279.677 217.952 283.074C214.144 286.471 211.653 289.209 211.653 289.209Z" fill="white" stroke="#263238" stroke-linecap="round" stroke-linejoin="round"/>
<path d="M213.356 197.932C213.356 197.932 213.182 209.716 214.134 215.457C215.086 221.198 218.712 259.278 217.797 267.647C216.881 276.015 214.033 284.448 212.175 287.598C210.316 290.748 214.867 288.898 217.586 287.378C220.305 285.858 224.435 278.066 225.323 276.876C226.211 275.686 229.727 275.539 230.157 271.227C230.588 266.914 225.314 266.868 225.652 260.999C225.991 255.13 230.899 237.194 229.104 229.539C227.31 221.885 225.222 212.207 225.561 208.901C225.9 205.596 227.255 197.273 227.255 197.273L213.356 197.932Z" fill="white" stroke="#263238" stroke-linecap="round" stroke-linejoin="round"/>
<path d="M226.797 265.321C225.252 269.3 223.246 273.082 220.818 276.592C218.309 279.953 216.414 279.916 215.407 279.495C214.63 282.31 213.553 285.032 212.193 287.616C210.362 290.766 214.885 288.917 217.604 287.397C220.324 285.877 224.453 278.085 225.341 276.895C226.23 275.704 229.745 275.558 230.176 271.245C230.469 268.37 228.235 267.381 226.797 265.321Z" fill="#C6B5DD" stroke="#263238" stroke-linecap="round" stroke-linejoin="round"/>
<path d="M277.449 164.311C276.533 161.747 275.618 158.341 271.671 156.135C267.725 153.928 266.077 152.756 266.077 152.756C266.077 152.756 255.712 131.202 253.176 127.009C250.64 122.815 248.754 120.124 248.754 120.124C248.754 120.124 241.777 101.088 240.943 97.8651C240.11 94.6422 240.696 92.225 236.869 90.8424C233.042 89.4598 224.407 88.4252 221.304 87.9491C218.877 87.4379 216.52 86.6419 214.281 85.5776C214.281 85.5776 207.286 84.543 204.887 83.8013C199.025 81.5818 193.28 79.0667 187.673 76.2659C184.395 74.4347 180.348 70.2412 180.348 70.2412C180.348 70.2412 171.311 50.3358 169.16 45.5197C167.383 41.5276 165.68 37.9934 165.131 36.8763C164.676 35.6314 164.3 34.3593 164.005 33.0674C163.931 30.696 164.206 28.1231 164.005 26.6581C163.803 25.1931 163.538 24.5522 163.327 22.84C163.117 21.1278 161.496 22.1991 161.752 24.1127L161.587 25.2206L159.555 16.4582C159.555 16.4582 158.264 15.5426 158.062 16.5315L159.033 23.014L158.667 23.1239L157.247 15.1306C157.247 15.1306 157.037 14.2974 155.874 14.4347C155.874 14.4347 155.251 14.6178 155.343 16.2659L156.634 23.719L155.892 23.8106L154.711 15.7074C154.711 15.7074 154.208 15.1306 153.796 15.6067C153.453 16.2792 153.359 17.0509 153.53 17.7859C153.631 18.6282 154.336 24.4423 154.336 24.4423L153.164 20.0749C153.164 20.0749 152.056 18.9304 152.248 21.0546C152.611 23.7128 153.225 26.3308 154.079 28.8739C154.86 30.7949 156.057 32.5183 157.586 33.9189C158.758 34.743 159.335 35.1 159.417 35.5212C159.417 35.6219 159.82 36.9313 160.443 38.909H160.516C161.734 42.6264 171.201 71.6146 172.914 76.1102C174.745 80.9172 196.93 98.0299 196.93 98.0299C196.93 98.0299 192.727 108.505 194.275 114.438C195.401 118.381 197.204 122.099 199.604 125.425C199.604 125.425 196.033 129.683 189.971 145.413C183.91 161.143 185.219 193.803 185.219 193.803C192.652 197.944 200.962 200.26 209.465 200.56C223.455 200.99 228.83 200.047 228.83 200.047C228.83 200.047 235.166 163.716 232.556 150.403C230.991 142.406 228.752 134.555 225.863 126.936L232.849 110.153C232.849 110.153 244.67 130.296 249.166 138.06C253.661 145.825 264.731 157.288 264.731 157.288C264.731 157.288 264.923 160.282 266.26 161.738C267.207 162.712 268.289 163.545 269.474 164.21C269.474 164.21 267.13 169.42 268.558 169.704C269.987 169.988 271.067 164.512 271.067 164.512C271.067 164.512 270.014 170.006 271.14 170.299C272.266 170.592 273.466 165.254 273.466 165.254C273.466 165.254 272.294 170.253 273.603 170.381C274.913 170.51 275.48 164.961 275.48 164.961C275.48 164.961 276.332 169.539 277.202 169.1C278.071 168.66 278.319 166.911 277.449 164.311Z" fill="white" stroke="#263238" stroke-linecap="round" stroke-linejoin="round"/>
<path d="M161.615 25.1655C161.709 25.6468 161.642 26.1455 161.425 26.5853C161.209 27.0252 160.854 27.3819 160.415 27.601C158.85 28.4343 159.811 30.3479 161.13 31.9685" stroke="#263238" stroke-linecap="round" stroke-linejoin="round"/>
<path d="M268.329 159.074C268.926 159.941 269.634 160.725 270.435 161.409C271.357 161.804 272.337 162.048 273.337 162.132C273.337 162.132 274.125 166.893 275.691 166.197C277.256 165.501 275.15 161.042 274.418 159.898C274.097 159.32 273.634 158.835 273.072 158.488" fill="white"/>
<path d="M268.329 159.074C268.926 159.941 269.634 160.725 270.435 161.409C271.357 161.804 272.337 162.048 273.337 162.132C273.337 162.132 274.125 166.893 275.691 166.197C277.256 165.501 275.15 161.042 274.418 159.898C274.097 159.32 273.634 158.835 273.072 158.488" stroke="#263238" stroke-linecap="round" stroke-linejoin="round"/>
<path d="M209.382 200.487C223.373 200.917 228.747 199.974 228.747 199.974C228.747 199.974 235.083 163.643 232.474 150.33C232.309 149.478 232.135 148.636 231.952 147.812C217.94 150.69 203.425 149.95 189.779 145.66C183.855 161.5 185.137 193.73 185.137 193.73C192.569 197.871 200.879 200.187 209.382 200.487Z" fill="#263238" stroke="#263238" stroke-linecap="round" stroke-linejoin="round"/>
<path d="M201.462 158.46C201.462 158.46 207.102 168.349 213.457 173.284" stroke="white" stroke-linecap="round" stroke-linejoin="round"/>
<path d="M211.671 177.542C212.367 178.036 213.072 178.503 213.814 178.933" stroke="white" stroke-linecap="round" stroke-linejoin="round"/>
<path d="M202.167 167.635C204.222 170.582 206.619 173.274 209.309 175.655" stroke="white" stroke-linecap="round" stroke-linejoin="round"/>
<path d="M254.888 130.15C254.174 128.776 253.57 127.677 253.176 127.009C250.631 122.788 248.754 120.124 248.754 120.124C248.754 120.124 241.777 101.088 240.943 97.8652C240.11 94.6423 240.696 92.2251 236.869 90.8425C233.042 89.4599 224.407 88.4253 221.304 87.9492C218.877 87.438 216.52 86.642 214.281 85.5777C214.281 85.5777 207.286 84.5431 204.887 83.8014C199.025 81.5819 193.28 79.0668 187.673 76.266C184.395 74.4348 180.348 70.2413 180.348 70.2413C180.348 70.2413 177.858 64.7476 175.184 58.8511C172.679 59.5421 170.23 60.4236 167.859 61.488C170.084 68.1903 172.117 74.2242 172.822 76.0829C174.653 80.8898 196.838 98.0026 196.838 98.0026C196.838 98.0026 192.636 108.477 194.183 114.41C195.309 118.354 197.112 122.072 199.512 125.398C199.512 125.398 195.941 129.655 189.88 145.385C189.311 146.902 188.825 148.449 188.424 150.018C197.434 153.974 213.145 158.259 232.868 153.324C232.767 152.252 232.639 151.264 232.465 150.375C230.9 142.378 228.661 134.528 225.772 126.908L232.758 110.125C232.758 110.125 242.298 126.414 247.499 135.323C250.072 133.761 252.54 132.033 254.888 130.15Z" fill="#C6B5DD" stroke="#263238" stroke-linecap="round" stroke-linejoin="round"/>
<path d="M192.288 84.7261L196.847 98.0024L187.7 80.4868" stroke="#263238" stroke-linecap="round" stroke-linejoin="round"/>
<path d="M232.767 110.08L228.985 108.01" stroke="#263238" stroke-linecap="round" stroke-linejoin="round"/>
<path d="M237.446 93.1865C237.446 93.1865 233.573 93.8915 231.101 99.8979" stroke="#263238" stroke-linecap="round" stroke-linejoin="round"/>
<path d="M208.165 120.361C208.165 120.361 212.743 126.359 219.811 126.359" stroke="#263238" stroke-linecap="round" stroke-linejoin="round"/>
<path d="M230.24 89.304C226.751 88.6905 223.107 88.2236 221.313 87.9489C218.886 87.4377 216.529 86.6417 214.29 85.5775C214.29 85.5775 207.295 84.5428 204.896 83.8012C204.649 83.7188 204.273 83.5906 203.834 83.4258C203.605 87.5094 203.431 96.9127 206.013 103.725C209.391 112.652 213.109 114.502 213.109 114.502C213.109 114.502 224.417 101.298 227.759 94.7061C228.94 92.2889 229.727 90.5492 230.24 89.304Z" fill="#263238" stroke="#263238" stroke-linecap="round" stroke-linejoin="round"/>
<path d="M217.357 47.479C217.357 47.479 211.223 48.0742 207.89 52.9727C204.557 57.8712 203.486 62.4401 202.35 67.6224C201.215 72.8048 202.533 77.7674 204.337 77.9505L210.554 78.5823C210.554 78.5823 210.554 92.1425 210.92 96.8396C211.287 101.537 212.752 104.915 214.116 103.249C215.48 101.582 219.976 89.5147 219.976 89.5147L220.708 78.2527C220.708 78.2527 224.004 75.7531 228.876 71.587C233.747 67.421 235.147 59.6841 231.577 53.0368C228.006 46.3894 217.357 47.479 217.357 47.479Z" fill="white" stroke="#263238" stroke-linecap="round" stroke-linejoin="round"/>
<path d="M220.983 70.0032C220.983 70.0032 222.1 70.461 222.182 69.6553C222.265 68.8496 224.719 67.4853 225.68 69.4355" stroke="#263238" stroke-linecap="round" stroke-linejoin="round"/>
<path d="M222.183 69.6553C222.183 69.6553 225.03 70.1772 223.364 71.752" stroke="#263238" stroke-linecap="round" stroke-linejoin="round"/>
<path d="M207.862 59.5193C207.569 60.435 206.947 61.0484 206.535 60.9019C206.123 60.7554 205.976 59.913 206.269 58.9974C206.562 58.0818 207.185 57.4684 207.606 57.6149C208.027 57.7614 208.155 58.6129 207.862 59.5193Z" fill="#263238"/>
<path d="M213.695 62.5318C213.393 63.4474 212.779 64.0609 212.358 63.9144C211.937 63.7679 211.809 62.9163 212.102 62.0099C212.395 61.1034 213.017 60.4808 213.429 60.6273C213.841 60.7738 213.988 61.6162 213.695 62.5318Z" fill="#263238"/>
<path d="M205.921 65.8003C205.921 65.8003 205.921 66.7617 207.487 66.9173" stroke="#263238" stroke-linecap="round" stroke-linejoin="round"/>
<path d="M205.5 69.9478C205.5 69.9478 209.941 71.1198 212.184 69.0322" stroke="#263238" stroke-linecap="round" stroke-linejoin="round"/>
<path d="M213.722 57.4775C214.858 57.3938 215.981 57.7611 216.849 58.4997C217.716 59.2384 218.257 60.2889 218.355 61.4238" stroke="#263238" stroke-linecap="round" stroke-linejoin="round"/>
<path d="M207.23 55.2617C207.23 55.2617 208.65 53.1284 209.977 56.4978" stroke="#263238" stroke-linecap="round" stroke-linejoin="round"/>
<path d="M208.073 70.5705C208.073 70.5705 210.041 73.647 210.957 72.9053C211.873 72.1637 211.149 69.8105 211.149 69.8105C210.146 70.1451 209.117 70.3993 208.073 70.5705Z" fill="#263238" stroke="#263238" stroke-linecap="round" stroke-linejoin="round"/>
<path d="M231.201 71.587C236.082 67.421 236.695 60.0961 233.033 53.5037C228.281 44.9336 217.348 47.479 217.348 47.479C216.194 47.6327 215.063 47.9248 213.979 48.3488C216.268 48.6784 221.349 49.9328 223.483 54.7581C226.285 61.1124 222.164 67.778 222.164 67.778C222.164 67.778 227.475 65.2876 227.292 69.1148C227.198 70.4871 226.593 71.7742 225.596 72.7218C224.599 73.6695 223.283 74.2088 221.908 74.2331C220.826 74.0651 219.77 73.7573 218.767 73.3175C218.742 74.2136 218.91 75.1047 219.261 75.9297C219.612 76.7546 220.137 77.494 220.8 78.097C221.359 77.6941 226.788 75.3501 231.201 71.587Z" fill="#263238" stroke="#263238" stroke-linecap="round" stroke-linejoin="round"/>
<path d="M212.752 48.9259C212.752 48.9259 215.499 50.4001 217.897 57.1664C220.296 63.9328 225.076 63.2369 227.832 62.6601C230.588 62.0833 232.62 61.9276 232.62 61.9276C230.505 59.968 229.03 57.4148 228.39 54.6027C227.282 49.8507 219.921 38.8084 212.752 48.9259Z" fill="#263238" stroke="#263238" stroke-linecap="round" stroke-linejoin="round"/>
<path d="M92.4498 50.6291C92.4498 50.6291 94.281 47.8822 91.0397 46.2616C87.4739 44.6341 83.4699 44.2311 79.6512 45.1154C75.8325 45.9997 72.4133 48.1217 69.9258 51.151C62.1522 60.124 68.4242 68.7856 72.4712 73.1256C76.5182 77.4656 82.3781 79.425 82.3781 80.2033C81.9501 81.7554 81.4397 83.2836 80.849 84.7813L94.5191 85.3856C94.5191 85.3856 96.1855 80.2857 97.6779 78.5827C99.1704 76.8796 101.871 79.4983 103.895 75.1858C105.918 70.8732 103.437 65.169 103.437 65.169C103.437 65.169 104.728 60.2796 102.897 60.0965C101.066 59.9134 99.7106 57.661 98.4104 54.8867C97.1102 52.1124 92.4498 50.6291 92.4498 50.6291Z" fill="white" stroke="#263238" stroke-linecap="round" stroke-linejoin="round"/>
<path d="M98.4837 56.2873C98.4837 56.2873 96.6525 53.4214 96.4053 57.3403" stroke="#263238" stroke-linecap="round" stroke-linejoin="round"/>
<path d="M104.069 67.8423C104.069 67.8423 103.666 69.0692 101.56 67.5859" stroke="#263238" stroke-linecap="round" stroke-linejoin="round"/>
<path d="M100.013 59.721C100.461 60.5817 100.608 61.3874 100.333 61.5522C100.058 61.717 99.4724 61.1127 99.0237 60.2612C98.5751 59.4097 98.4286 58.5948 98.7033 58.43C98.9779 58.2652 99.5639 58.8695 100.013 59.721Z" fill="#263238"/>
<path d="M89.3366 71.5046C89.0729 71.4591 88.8212 71.3603 88.5969 71.2143C88.3727 71.0682 88.1805 70.878 88.0323 70.6552C87.884 70.4324 87.7828 70.1817 87.7347 69.9184C87.6866 69.6551 87.6927 69.3848 87.7526 69.124C88.1555 67.7231 91.3601 68.3091 91.3601 68.3091C91.3601 68.3091 89.9592 69.2247 91.4517 70.0213C92.9441 70.8179 93.7682 69.1057 93.7682 69.1057" stroke="#263238" stroke-linecap="round" stroke-linejoin="round"/>
<path d="M91.058 46.2431C87.4921 44.6155 83.4882 44.2125 79.6695 45.0968C75.8508 45.9811 72.4316 48.1031 69.9441 51.1324C62.1705 60.1054 68.4425 68.7671 72.4895 73.1071C75.6941 76.5681 80.0433 78.4909 81.6456 79.5163C83.1816 79.4927 84.7034 79.2175 86.1504 78.7015C88.3505 77.9142 90.3072 76.5666 91.8272 74.7918C91.8272 74.7918 86.4892 75.3045 85.9215 70.4976C85.3538 65.6906 90.3256 66.1942 92.4132 66.4048C94.5007 66.6154 93.1731 64.1066 92.1843 63.4748C91.1954 62.8431 92.2392 60.316 92.7977 57.4684C93.3562 54.6209 90.0509 56.1317 89.5839 55.2893C89.117 54.4469 92.4498 50.6288 92.4498 50.6288C92.4498 50.6288 94.3268 47.882 91.058 46.2431Z" fill="#263238" stroke="#263238" stroke-linecap="round" stroke-linejoin="round"/>
<path d="M98.2363 84.7263C94.2881 83.4722 90.2019 82.7035 86.0678 82.4373C79.2465 82.0069 75.7581 85.0834 75.7581 85.0834C75.7581 85.0834 80.7573 85.3306 88.8788 85.8891C97.0002 86.4476 98.2363 84.7263 98.2363 84.7263Z" fill="#C6B5DD" stroke="#263238" stroke-linecap="round" stroke-linejoin="round"/>
<path d="M130.265 60.5266C130.265 60.5266 143.367 40.7402 143.404 37.8103C143.44 34.8803 142.341 30.0459 142.488 28.2147C142.634 26.3835 143.019 25.6327 143.23 23.5359C143.44 21.4392 145.427 22.7027 145.189 25.0558L145.418 26.4018L147.689 15.6342C147.689 15.6342 149.245 14.4805 149.52 15.6891L148.302 22.9225L148.952 23.0232L150.518 14.0044C150.518 14.0044 150.747 12.9789 152.175 13.0888C152.175 13.0888 152.944 13.2902 152.871 15.2496L151.644 23.7282L152.294 24.0212L153.713 14.682C153.713 14.682 154.308 13.9586 154.775 14.5263C155.217 15.3368 155.354 16.279 155.16 17.1816C155.059 18.2254 154.336 25.3488 154.336 25.3488L155.664 19.9833C155.664 19.9833 156.991 18.5458 156.854 21.1553C156.475 24.4152 155.798 27.6333 154.83 30.7692C154.254 32.5364 152.084 35.9882 150.664 37.0229C149.245 38.0575 148.549 38.5061 148.494 39.028C148.439 39.5499 141.169 64.9856 136.894 70.699C136.894 70.699 135.365 65.2053 131.904 64.4362C128.443 63.6671 129.001 64.6651 129.001 64.6651L130.265 60.5266Z" fill="white" stroke="#263238" stroke-linecap="round" stroke-linejoin="round"/>
<path d="M125.293 67.9433C125.293 67.9433 125.064 65.0133 127.051 63.6307C129.038 62.2482 128.726 60.1056 130.612 59.7669C132.499 59.4281 137.69 62.8616 138.175 65.8191C138.661 68.7765 137.882 68.6941 137.644 71.0472C137.406 73.4003 134.192 76.5408 131.446 74.9019C128.699 73.263 125.293 67.9433 125.293 67.9433Z" fill="#C6B5DD" stroke="#263238" stroke-linecap="round" stroke-linejoin="round"/>
<path d="M37.9343 117.972C37.9343 117.972 33.1639 135.552 31.525 145.514C29.886 155.476 28.595 158.726 27.5238 161.39C26.4525 164.055 25.2347 166.326 25.5461 169.136C25.8574 171.947 29.3367 170.913 30.9298 170.876C32.523 170.839 34.986 170.089 35.2057 167.928C35.4255 165.767 35.8558 165.419 35.4621 163.396C35.0684 161.372 33.6309 159.632 33.7865 158.451C33.9422 157.27 42.7778 136.339 44.5358 130.754C46.2938 125.169 47.4474 121.717 47.4474 121.717C47.4474 121.717 39.7197 119.941 37.9343 117.972Z" fill="white" stroke="#263238" stroke-linecap="round" stroke-linejoin="round"/>
<path d="M62.9947 144.937C59.1217 157.654 59.7535 151.346 59.1217 157.654C58.49 163.963 56.0178 178.384 56.0178 178.384L46.3856 216.519C46.3856 216.519 34.4094 225.822 28.3481 234.767C22.2867 243.713 6.29102 262.959 6.29102 262.959C6.29102 262.959 9.81611 263.563 11.1163 264.79C12.4164 266.017 15.4288 269.112 15.4288 269.112C17.4731 267.64 19.2928 265.878 20.8309 263.883C26.8281 256.156 35.8835 249.572 42.888 242.733C49.8924 235.893 58.3892 228.925 64.0294 220.758C66.8861 216.089 81.3527 179.235 81.3527 179.235L84.3376 179.144C84.3376 179.144 99.2621 202.3 101.34 205.294C103.419 208.288 109.984 219.87 109.984 219.87C109.984 219.87 98.7493 228.852 95.8011 236.351C92.8528 243.85 78.1939 270.897 77.2691 272.188C76.6603 273.12 76.2202 274.152 75.9689 275.237C75.9689 275.237 81.371 276.775 84.0996 277.251C85.6619 277.5 87.1591 278.057 88.5036 278.89C88.5036 278.89 89.2728 277.178 90.0785 275.081C90.87 273.291 91.4596 271.417 91.8365 269.496C91.983 268.123 106.788 253.345 114.965 239.281C123.141 225.217 127.078 221.646 127.582 218.716C128.085 215.786 120.742 194.196 117.281 183.319C113.82 172.441 104.563 159.989 104.27 158.964C103.977 157.938 103.071 147.326 103.071 147.326C103.071 147.326 97.0738 147.711 84.5665 147.628C77.2942 147.597 70.0519 146.693 62.9947 144.937Z" fill="#263238" stroke="#263238" stroke-linecap="round" stroke-linejoin="round"/>
<path d="M71.8484 175.363L81.3524 179.172" stroke="white" stroke-linecap="round" stroke-linejoin="round"/>
<path d="M107.951 106.984C107.951 106.984 107.164 114.785 117.318 121.323C127.472 127.86 130.704 139.369 130.704 139.369L128.003 146.072L121.951 142.519C121.951 142.519 122.866 129.957 116.457 124.72C110.048 119.482 107.008 116.598 105.076 110.354C103.144 104.109 99.1155 95.0723 99.1155 95.0723C99.1155 95.0723 106.569 100.786 107.951 106.984Z" fill="#263238" stroke="#263238" stroke-linecap="round" stroke-linejoin="round"/>
<path d="M80.8032 84.7997C76.5207 84.511 72.2569 83.9914 68.0305 83.2432C62.8573 82.1902 58.3525 84.9004 57.6749 89.0481C56.9974 93.1958 39.6191 113.358 39.4909 114.685C39.3627 116.013 45.8086 120.078 48.7843 119.327C51.7601 118.577 63.544 106.573 63.544 106.573C63.544 106.573 63.8919 134.334 62.9488 138.454C62.0057 142.575 60.4034 145.331 62.5643 147.391C64.7251 149.451 81.1969 151.136 89.6938 150.678C98.1907 150.22 103.126 148.352 103.428 145.477C103.73 142.602 104.179 135.515 104.572 131.597C104.966 127.678 109.151 102.489 109.151 102.489C109.151 102.489 121.2 87.8395 126.776 82.3459C132.352 76.8522 134.449 74.4075 134.769 71.2761C135.09 68.1448 130.96 64.5556 128.214 65.5902C125.467 66.6248 117.95 75.6619 113.738 78.1157C109.526 80.5696 103.391 81.2837 100.8 83.3988C98.209 85.5139 95.2515 85.9991 90.2889 85.4956C85.3263 84.992 80.8032 84.7997 80.8032 84.7997Z" fill="#C6B5DD" stroke="#263238" stroke-linecap="round" stroke-linejoin="round"/>
<path d="M60.1196 93.6079L63.5531 106.545L56.3564 96.5104" stroke="#263238" stroke-linecap="round" stroke-linejoin="round"/>
<path d="M109.105 102.461L103.007 110.995" stroke="#263238" stroke-linecap="round" stroke-linejoin="round"/>
<path d="M97.3391 123.246L96.3411 124.912" stroke="#263238" stroke-linecap="round" stroke-linejoin="round"/>
<path d="M105.039 110.354L99.2253 120.087" stroke="#263238" stroke-linecap="round" stroke-linejoin="round"/>
<path d="M78.6423 116.763C82.0301 124.793 87.3406 136.192 92.0011 140.844" stroke="#263238" stroke-linecap="round" stroke-linejoin="round"/>
<path d="M75.1907 108.102C75.1907 108.102 75.7675 109.676 76.7564 112.167" stroke="#263238" stroke-linecap="round" stroke-linejoin="round"/>
<path d="M77.8 124.042C77.8 124.042 84.4657 135.945 87.9359 140.523" stroke="#263238" stroke-linecap="round" stroke-linejoin="round"/>
<path d="M40.379 113.449C41.8161 114.779 43.446 115.884 45.2134 116.727C47.6855 117.771 51.8332 116.003 51.6226 117.972C51.4825 119.366 50.8829 120.674 49.9183 121.69C48.9536 122.706 47.6786 123.372 46.2938 123.585C42.4391 124.381 38.0533 120.957 36.8264 119.007C35.5995 117.056 36.4876 110.675 40.379 113.449Z" fill="#C6B5DD" stroke="#263238" stroke-linecap="round" stroke-linejoin="round"/>
<path d="M32.0196 164.229C32.0196 164.229 26.7914 166.875 28.8882 167.68C30.9849 168.486 34.3818 168.047 34.9495 166.71" fill="white"/>
<path d="M32.0196 164.229C32.0196 164.229 26.7914 166.875 28.8882 167.68C30.9849 168.486 34.3818 168.047 34.9495 166.71" stroke="#263238" stroke-linecap="round" stroke-linejoin="round"/>
<path d="M28.9066 167.681L26.8831 168.074" stroke="#263238" stroke-linecap="round" stroke-linejoin="round"/>
<path d="M88.5036 278.781C88.5036 278.781 93.5486 286.838 97.2019 289.768C100.855 292.698 101.414 292.515 101.295 293.769C101.176 295.024 98.0351 295.775 92.6971 295.234C87.3591 294.694 82.9 290.83 77.9557 288.166C73.0114 285.501 71.6655 284.65 72.6544 282.059C73.6399 279.705 74.7462 277.404 75.9689 275.164C75.9689 275.164 83.0282 274.954 88.5036 278.781Z" fill="white" stroke="#263238" stroke-linecap="round" stroke-linejoin="round"/>
<path d="M72.6543 282.022C72.6543 282.022 76.4541 283.386 84.0536 288.779C91.6532 294.172 96.9729 294.895 101.295 293.733" fill="white"/>
<path d="M72.6543 282.022C72.6543 282.022 76.4541 283.386 84.0536 288.779C91.6532 294.172 96.9729 294.895 101.295 293.733" stroke="#263238" stroke-linecap="round" stroke-linejoin="round"/>
<path d="M15.4286 269.075C15.4286 269.075 15.4927 275.649 16.4999 279.284C17.5071 282.919 20.025 286.435 18.8713 287.214C17.7177 287.992 16.5365 288.221 14.2933 287.012C12.05 285.804 9.22081 283.35 6.30001 279.889C4.05039 277.496 2.32848 274.657 1.24584 271.557C-0.145884 267.995 0.614073 265.981 2.94888 264.973C4.17368 264.495 5.30952 263.814 6.30917 262.959C6.30917 262.959 13.0938 262.602 15.4286 269.075Z" fill="white" stroke="#263238" stroke-linecap="round" stroke-linejoin="round"/>
<path d="M1.47485 266.712C4.52971 269.302 7.02244 272.49 8.79973 276.079C12.16 282.488 15.6943 286.041 18.8714 287.24" fill="white"/>
<path d="M1.47485 266.712C4.52971 269.302 7.02244 272.49 8.79973 276.079C12.16 282.488 15.6943 286.041 18.8714 287.24" stroke="#263238" stroke-linecap="round" stroke-linejoin="round"/>
<path d="M69.1476 307.586C86.6845 307.586 100.901 306.184 100.901 304.454C100.901 302.725 86.6845 301.323 69.1476 301.323C51.6108 301.323 37.3943 302.725 37.3943 304.454C37.3943 306.184 51.6108 307.586 69.1476 307.586Z" fill="#263238"/>
<path d="M152.779 0.709961V9.01454" stroke="#263238" stroke-linecap="round" stroke-linejoin="round"/>
<path d="M160.745 10.3422L165.067 5.02246" stroke="#263238" stroke-linecap="round" stroke-linejoin="round"/>
<path d="M140.153 7.68701L144.136 11.0015" stroke="#263238" stroke-linecap="round" stroke-linejoin="round"/>
<path d="M135.502 18.6465H142.479" stroke="#263238" stroke-linecap="round" stroke-linejoin="round"/>
<path d="M163.739 18.3169H169.059" stroke="#263238" stroke-linecap="round" stroke-linejoin="round"/>
</svg>
