<svg width="399" height="482" viewBox="0 0 399 482" fill="none" xmlns="http://www.w3.org/2000/svg">
<path d="M395.86 27.3361H4.46371V259.3H395.86V27.3361Z" fill="#263238"/>
<path d="M393.649 33.9309H6.67545V252.705H393.649V33.9309Z" fill="white" stroke="#263238" stroke-miterlimit="10" stroke-linecap="round" stroke-linejoin="round"/>
<path d="M398.059 23.3682H0V35.8075H398.059V23.3682Z" fill="#263238"/>
<path d="M204.552 23.194C210.734 23.194 215.745 18.1829 215.745 12.0013C215.745 5.81974 210.734 0.808594 204.552 0.808594C198.37 0.808594 193.359 5.81974 193.359 12.0013C193.359 18.1829 198.37 23.194 204.552 23.194Z" fill="white" stroke="#263238" stroke-miterlimit="10" stroke-linecap="round" stroke-linejoin="round"/>
<path d="M210.45 12.0013C210.45 15.2585 207.809 17.8858 204.565 17.8858C201.322 17.8858 198.681 15.2451 198.681 12.0013C198.681 8.75738 201.322 6.1167 204.565 6.1167C207.809 6.1167 210.45 8.75738 210.45 12.0013Z" fill="#C6B5DD" stroke="#263238" stroke-miterlimit="10"/>
<path d="M76.9414 176.005H29.1143V127.508H110.453V176.005H86.043" stroke="#263238" stroke-miterlimit="10"/>
<path d="M158.213 199.221H93.2948V237.934H158.213V199.221Z" stroke="#263238" stroke-miterlimit="10"/>
<path d="M229.859 127.508H238.05V176.005H156.711V127.508H222.058" stroke="#263238" stroke-miterlimit="10"/>
<path d="M163.481 56.6113H258.947V105.122H135.827V56.6113H154.379" stroke="#263238" stroke-miterlimit="10"/>
<path d="M364.909 127.508H283.571V176.005H364.909V127.508Z" stroke="#263238" stroke-miterlimit="10"/>
<path d="M129.111 80.498C129.111 80.498 85.9625 86.5032 60.5879 123.057" stroke="#263238" stroke-miterlimit="10"/>
<path d="M101.498 181.233L107.209 197.908" stroke="#263238" stroke-miterlimit="10"/>
<path d="M160.451 179.731L155.223 195.401" stroke="#263238" stroke-miterlimit="10"/>
<path d="M100.935 192.412L107.209 197.908L108.777 190.455" stroke="#263238" stroke-miterlimit="10"/>
<path d="M152.663 190.455L155.022 196.728L161.671 192.814" stroke="#263238" stroke-miterlimit="10"/>
<path d="M61.7541 115.618L60.5879 123.057L68.8048 117.963" stroke="#263238" stroke-miterlimit="10"/>
<path d="M240.436 150.483H281.185" stroke="#263238" stroke-miterlimit="10"/>
<path d="M272.566 145.389L281.587 150.483L273.357 155.576" stroke="#263238" stroke-miterlimit="10"/>
<path d="M111.806 150.483H152.556" stroke="#263238" stroke-miterlimit="10"/>
<path d="M143.937 145.389L152.958 150.483L144.728 155.576" stroke="#263238" stroke-miterlimit="10"/>
<path d="M197.086 108.996V121.395" stroke="#263238" stroke-miterlimit="10"/>
<path d="M202.179 112.763L197.086 121.784L191.992 113.554" stroke="#263238" stroke-miterlimit="10"/>
<path d="M280.796 165.134H241.602" stroke="#263238" stroke-miterlimit="10"/>
<path d="M249.886 160.04L241.226 165.134L249.135 170.227" stroke="#263238" stroke-miterlimit="10"/>
<path d="M161.282 71.7314H234.953" stroke="#263238" stroke-miterlimit="10"/>
<path d="M161.282 78.7822H234.953" stroke="#263238" stroke-miterlimit="10"/>
<path d="M161.282 85.8329H234.953" stroke="#263238" stroke-miterlimit="10"/>
<path d="M36.6743 145.389H102.906" stroke="#263238" stroke-miterlimit="10"/>
<path d="M36.6743 152.453H102.906" stroke="#263238" stroke-miterlimit="10"/>
<path d="M36.6743 159.504H102.906" stroke="#263238" stroke-miterlimit="10"/>
<path d="M165.21 145.389H231.428" stroke="#263238" stroke-miterlimit="10"/>
<path d="M165.21 152.453H231.428" stroke="#263238" stroke-miterlimit="10"/>
<path d="M165.21 159.504H231.428" stroke="#263238" stroke-miterlimit="10"/>
<path d="M289.027 145.389H355.245" stroke="#263238" stroke-miterlimit="10"/>
<path d="M289.027 152.453H355.245" stroke="#263238" stroke-miterlimit="10"/>
<path d="M289.027 159.504H355.245" stroke="#263238" stroke-miterlimit="10"/>
<path d="M101.726 212.398H152.274" stroke="#263238" stroke-miterlimit="10"/>
<path d="M101.726 219.449H152.274" stroke="#263238" stroke-miterlimit="10"/>
<path d="M101.726 226.513H152.274" stroke="#263238" stroke-miterlimit="10"/>
<path d="M325.876 77.8842C325.648 77.8842 325.433 77.7635 325.313 77.5625C325.125 77.2542 325.219 76.8521 325.527 76.651L326.036 76.3293L325.862 76.4365C325.554 76.6108 325.152 76.5169 324.964 76.2086C324.776 75.9003 324.87 75.4982 325.179 75.2971L327.819 73.5948L325.473 74.9486C325.165 75.1229 324.763 75.029 324.575 74.7207C324.388 74.4124 324.482 74.0103 324.776 73.8092L329.575 70.6726L325.045 73.2865C324.736 73.4607 324.334 73.3669 324.146 73.0586C323.959 72.7503 324.039 72.3482 324.347 72.1471L331.827 67.1338L324.535 71.3428C324.227 71.5171 323.838 71.4232 323.637 71.1283C323.449 70.8334 323.516 70.4313 323.811 70.2302L335.044 62.2278L323.838 68.7021C323.53 68.8764 323.141 68.7826 322.94 68.4877C322.752 68.1794 322.833 67.7906 323.128 67.5896L331.184 62.0133L323.275 66.5842C322.967 66.7585 322.565 66.6647 322.377 66.3564C322.189 66.048 322.27 65.6459 322.565 65.4583L327.109 62.3886L322.806 64.8685C322.498 65.0427 322.096 64.9489 321.908 64.6406C321.72 64.3323 321.801 63.9301 322.109 63.7425L325.058 61.772L322.404 63.3136C322.096 63.4878 321.707 63.394 321.519 63.0991C321.331 62.8042 321.398 62.402 321.68 62.201L329.522 56.3968L321.76 60.8739C321.466 61.0482 321.063 60.9544 320.876 60.6729C320.675 60.378 320.742 59.9892 321.023 59.7748L327.967 54.4264L321.104 58.3941C320.795 58.5684 320.407 58.4745 320.219 58.1796C320.031 57.8847 320.098 57.4826 320.38 57.2815L323.771 54.7883L320.621 56.5979C320.313 56.7722 319.924 56.6783 319.736 56.3834C319.535 56.0885 319.602 55.6998 319.884 55.4853L322.659 53.3674L320.152 54.8151C319.844 54.9894 319.468 54.8955 319.267 54.6141C319.066 54.3192 319.133 53.9304 319.415 53.716L320.809 52.6302L319.736 53.2468C319.468 53.4076 319.106 53.354 318.905 53.1128C318.691 52.8715 318.691 52.523 318.878 52.2683L320.983 49.5472L319.053 50.6597C318.825 50.7938 318.53 50.7804 318.315 50.6195C318.101 50.4587 318.007 50.1906 318.061 49.9225L318.262 49.1048C318.034 49.1048 317.819 48.9842 317.699 48.7697C317.511 48.448 317.618 48.0459 317.94 47.8582L318.905 47.2952C319.133 47.1612 319.428 47.1746 319.643 47.3354C319.857 47.4963 319.951 47.7644 319.897 48.0325L319.723 48.7161L323.262 46.6786C323.543 46.5178 323.892 46.5714 324.093 46.8127C324.307 47.0539 324.307 47.4025 324.12 47.6571L322.015 50.3782L328.355 46.7188C328.664 46.5446 329.052 46.6384 329.24 46.9199C329.441 47.2148 329.374 47.6035 329.093 47.818L327.699 48.9172L331.05 46.9735C331.358 46.7992 331.747 46.8931 331.934 47.188C332.135 47.4829 332.068 47.8716 331.787 48.0861L329.012 50.204L333.583 47.5633C333.891 47.389 334.28 47.4829 334.468 47.7778C334.656 48.0727 334.588 48.4748 334.307 48.6759L330.916 51.1691L336.023 48.2201C336.318 48.0459 336.72 48.1397 336.907 48.4212C337.095 48.7161 337.041 49.1048 336.76 49.3193L329.816 54.6677L338.972 49.3729C339.28 49.1986 339.669 49.2925 339.856 49.5874C340.044 49.8823 339.977 50.2844 339.696 50.4855L331.854 56.2896L341.532 50.7C341.84 50.5257 342.242 50.6195 342.43 50.9278C342.618 51.2361 342.537 51.6383 342.229 51.8393L339.28 53.8232L343.1 51.6249C343.409 51.4372 343.811 51.5444 343.998 51.8527C344.186 52.161 344.106 52.5632 343.811 52.7508L339.267 55.807L344.642 52.6972C344.95 52.523 345.352 52.6168 345.54 52.9117C345.728 53.22 345.647 53.6087 345.352 53.8098L337.283 59.386L346.425 54.1047C346.733 53.9304 347.122 54.0243 347.323 54.3192C347.51 54.6141 347.443 55.0162 347.148 55.2172L335.916 63.2197L348.422 56.0081C348.73 55.8339 349.132 55.9277 349.32 56.236C349.508 56.5443 349.427 56.9464 349.119 57.1475L341.639 62.1608L349.762 57.4692C350.071 57.2949 350.473 57.3888 350.66 57.6971C350.848 58.0054 350.754 58.4075 350.459 58.6086L345.661 61.7452L350.794 58.7828C351.103 58.6086 351.505 58.7024 351.693 59.0107C351.88 59.319 351.786 59.7212 351.478 59.9222L348.837 61.6246L351.626 60.016C351.947 59.8418 352.336 59.9356 352.524 60.2439C352.711 60.5522 352.617 60.9544 352.309 61.1554L351.8 61.4771L352.376 61.142C352.684 60.9678 353.073 61.0616 353.274 61.3565C353.462 61.6514 353.382 62.0535 353.1 62.2546L345.339 67.7102L353.408 63.0454C353.717 62.8712 354.119 62.965 354.306 63.2733C354.494 63.5816 354.414 63.9838 354.105 64.1848L353.931 64.2921L353.958 64.2787C354.266 64.1044 354.655 64.1982 354.856 64.4931C355.044 64.788 354.977 65.1902 354.682 65.3912L353.18 66.4636L354.588 65.6459C354.869 65.4851 355.231 65.5521 355.432 65.7934C355.633 66.0481 355.633 66.41 355.419 66.6513L352.872 69.5868L355.339 68.166C355.58 68.0185 355.902 68.0587 356.116 68.2464C356.331 68.434 356.398 68.7423 356.29 68.997L356.022 69.627C356.277 69.6002 356.545 69.7209 356.679 69.9488C356.867 70.2705 356.759 70.6726 356.438 70.8603L355.017 71.6779C354.776 71.8254 354.454 71.7852 354.239 71.5975C354.025 71.4098 353.958 71.1015 354.065 70.8469L354.293 70.2973L350.084 72.7235C349.803 72.8843 349.441 72.8173 349.24 72.576C349.038 72.3213 349.038 71.9594 349.253 71.7181L351.8 68.7826L341.974 74.4527C341.666 74.6269 341.277 74.5331 341.076 74.2382C340.889 73.9433 340.956 73.5412 341.25 73.3401L342.752 72.2677L337.202 75.4714C336.894 75.6456 336.492 75.5518 336.304 75.2435C336.117 74.9352 336.197 74.5331 336.505 74.332L336.666 74.2248L332.953 76.3695C332.645 76.5437 332.256 76.4499 332.055 76.155C331.867 75.8601 331.948 75.458 332.229 75.2569L339.99 69.8013L326.17 77.777C326.103 77.8574 325.996 77.8842 325.876 77.8842Z" fill="#C6B5DD"/>
<path d="M305.219 96.6505C299.214 91.4227 295.474 83.9699 295.474 75.6993C295.474 59.882 309.187 47.0674 326.103 47.0674C343.02 47.0674 356.733 59.882 356.733 75.6993C356.733 91.5166 343.02 104.331 326.103 104.331C321.492 104.331 317.136 103.38 313.208 101.677" stroke="#263238" stroke-miterlimit="10"/>
<path d="M268.478 69.5868H287.82" stroke="#263238" stroke-miterlimit="10"/>
<path d="M268.478 76.2488H287.82" stroke="#263238" stroke-miterlimit="10"/>
<path d="M268.478 82.9243H287.82" stroke="#263238" stroke-miterlimit="10"/>
<path d="M34.6637 183.323H68.6842" stroke="#263238" stroke-miterlimit="10"/>
<path d="M34.6637 189.999H68.6842" stroke="#263238" stroke-miterlimit="10"/>
<path d="M27.5995 96.5968H61.6201" stroke="#263238" stroke-miterlimit="10"/>
<path d="M34.6637 196.661H68.6842" stroke="#263238" stroke-miterlimit="10"/>
<path d="M34.6637 210.669H68.6842" stroke="#263238" stroke-miterlimit="10"/>
<path d="M34.6637 217.344H68.6842" stroke="#263238" stroke-miterlimit="10"/>
<path d="M34.6637 224.02H68.6842" stroke="#263238" stroke-miterlimit="10"/>
<path d="M317.94 47.8583L326.211 77.7904L356.465 70.8871" stroke="#263238" stroke-miterlimit="10"/>
<path d="M27.9614 55.5255V88.849H81.472" stroke="#263238" stroke-miterlimit="10"/>
<path d="M44.6232 60.0697H33.5109V88.8491H44.6232V60.0697Z" fill="#C6B5DD" stroke="#263238" stroke-miterlimit="10"/>
<path d="M72.8932 66.6244H61.7809V88.8356H72.8932V66.6244Z" fill="#C6B5DD" stroke="#263238" stroke-miterlimit="10"/>
<path d="M58.7649 50.9813H47.6526V88.8489H58.7649V50.9813Z" fill="#C6B5DD" stroke="#263238" stroke-miterlimit="10"/>
<path d="M218.187 222.84L224.42 213.752C224.42 213.752 223.201 199.141 224.581 196.862C225.975 194.583 248.575 191.943 249.849 193.632C251.122 195.321 246.444 196.849 246.444 196.849C246.444 196.849 249.661 198.27 249.326 199.892C248.83 202.278 244.728 202.586 244.728 202.586C244.728 202.586 247.985 204.771 247.583 206.205C247.262 207.331 243.991 208.216 243.991 208.216C243.991 208.216 247.302 209.717 244.594 211.62C241.886 213.524 239.594 215.521 239.594 215.521C239.594 215.521 241.457 219.556 236.391 223.041C231.324 226.54 222.517 232.893 222.517 232.893L218.187 222.84Z" fill="white" stroke="#263238" stroke-miterlimit="10" stroke-linecap="round" stroke-linejoin="round"/>
<path d="M249.058 187.546L254.071 187.117L254.031 188.672L250.036 190.924C250.023 190.937 249.152 187.144 249.058 187.546Z" fill="#263238" stroke="#263238" stroke-miterlimit="10" stroke-linecap="round" stroke-linejoin="round"/>
<path d="M229.407 197.666C229.621 197.666 229.849 197.64 230.064 197.573L249.902 191.313C250.948 190.978 251.524 189.865 251.202 188.819C250.867 187.774 249.755 187.184 248.709 187.519L228.857 193.779C227.812 194.114 227.235 195.227 227.557 196.272C227.825 197.103 228.589 197.64 229.407 197.666Z" fill="white" stroke="#263238" stroke-miterlimit="10" stroke-linecap="round" stroke-linejoin="round"/>
<path d="M219.139 201.567C219.434 201.58 219.729 201.54 220.01 201.446L230.251 198.216C231.645 197.774 232.423 196.286 231.981 194.892C231.538 193.497 230.05 192.72 228.656 193.162L218.415 196.393C217.021 196.835 216.244 198.323 216.686 199.717C217.048 200.816 218.053 201.527 219.139 201.567Z" fill="#263238" stroke="#263238" stroke-miterlimit="10" stroke-linecap="round" stroke-linejoin="round"/>
<path d="M227.329 204.556C227.329 204.556 229.139 199.315 230.546 196.701C231.954 194.087 234.661 191.849 235.734 189.235C236.806 186.621 239.661 190.669 238.616 192.626C237.57 194.583 235.157 197.492 235.117 198.819C235.077 200.146 234.715 201.125 236.243 205.481C237.771 209.837 238.616 214.824 235.198 218.363" fill="white"/>
<path d="M227.329 204.556C227.329 204.556 229.139 199.315 230.546 196.701C231.954 194.087 234.661 191.849 235.734 189.235C236.806 186.621 239.661 190.669 238.616 192.626C237.57 194.583 235.157 197.492 235.117 198.819C235.077 200.146 234.715 201.125 236.243 205.481C237.771 209.837 238.616 214.824 235.198 218.363" stroke="#263238" stroke-miterlimit="10" stroke-linecap="round" stroke-linejoin="round"/>
<path d="M246.444 196.849L235.117 198.832" stroke="#263238" stroke-miterlimit="10" stroke-linecap="round" stroke-linejoin="round"/>
<path d="M244.715 202.586C243.401 202.21 236.243 205.494 236.243 205.494" stroke="#263238" stroke-miterlimit="10" stroke-linecap="round" stroke-linejoin="round"/>
<path d="M243.991 208.202L238.106 210.173" stroke="#263238" stroke-miterlimit="10" stroke-linecap="round" stroke-linejoin="round"/>
<path d="M138.873 205.374C138.873 205.374 142.251 203.377 143.739 208.725C145.227 214.073 149.597 223.47 151.527 225.521C153.457 227.558 172.438 246.338 172.438 246.338C172.438 246.338 180.574 239.957 182.491 242.33C184.408 244.703 185.722 245.078 185.722 245.078L218.268 219.542L230.318 237.786C230.318 237.786 186.07 278.214 182.384 279.434C178.711 280.653 176.071 280.238 174.757 279.541C173.457 278.844 149.154 260.573 149.154 260.573C149.154 260.573 134.329 212.773 133.056 211.071C131.796 209.368 138.873 205.374 138.873 205.374Z" fill="#C6B5DD" stroke="#263238" stroke-miterlimit="10" stroke-linecap="round" stroke-linejoin="round"/>
<path d="M182.585 246.445C182.585 246.445 175.99 254.059 175.99 263.683L182.585 246.445Z" fill="#C6B5DD"/>
<path d="M182.585 246.445C182.585 246.445 175.99 254.059 175.99 263.683" stroke="#263238" stroke-miterlimit="10" stroke-linecap="round" stroke-linejoin="round"/>
<path d="M171.928 249.488C171.928 249.488 169.904 254.555 172.947 265.721L171.928 249.488Z" fill="#C6B5DD"/>
<path d="M171.928 249.488C171.928 249.488 169.904 254.555 172.947 265.721" stroke="#263238" stroke-miterlimit="10" stroke-linecap="round" stroke-linejoin="round"/>
<path d="M124.37 146.381C124.37 146.381 138.739 136.971 137.037 128.084C135.334 119.183 103.11 112.012 84.5851 118.017C66.0601 124.022 62.2934 151.756 64.7331 168.86C67.1727 185.964 68.6472 224.998 68.6472 224.998L131.487 226.848C131.487 226.848 125.63 181.138 124.423 166.688C123.217 152.238 124.37 146.381 124.37 146.381Z" fill="#263238" stroke="#263238" stroke-miterlimit="10" stroke-linecap="round" stroke-linejoin="round"/>
<path d="M156.54 398.05C155.267 411.709 152.653 471.895 151.219 480.809H85.8317C85.9657 470.541 86.14 401.186 84.6521 395.516C82.7889 388.425 80.1884 364.78 83.0704 351.214C85.9523 337.649 89.4509 331.135 89.4509 331.135L157.277 331.068L157.076 336.63C157.076 336.63 158.35 378.667 156.54 398.05Z" fill="#263238" stroke="#263238" stroke-miterlimit="10" stroke-linecap="round" stroke-linejoin="round"/>
<path d="M142.037 357.086C139.315 358.909 136.661 360.236 136.661 362.89C135.334 386.723 130.04 453.665 128.176 477.779" stroke="#4C4C4C" stroke-miterlimit="10" stroke-linecap="round" stroke-linejoin="round"/>
<path d="M122.56 204.449L89.3973 205.682C89.3973 205.682 116.005 246.66 115.791 269.179C115.563 291.698 111.099 338.373 111.099 338.373C111.099 338.373 125.683 349.914 140.763 347.702C142.398 347.461 143.27 333.949 143.27 333.949C143.27 333.949 144.248 347.059 145.347 346.871C153.779 345.357 157.076 336.644 157.076 336.644L155.32 291.551C155.32 291.551 155.307 261.967 152.023 253.469C148.739 244.984 126.447 207.224 126.447 207.224L122.56 204.449Z" fill="white" stroke="#263238" stroke-miterlimit="10" stroke-linecap="round" stroke-linejoin="round"/>
<path d="M123.847 230.561C123.847 230.561 134.101 251.874 137.841 264.367C141.594 276.873 143.256 333.949 143.256 333.949" stroke="#263238" stroke-miterlimit="10" stroke-linecap="round" stroke-linejoin="round"/>
<path d="M93.3784 205.36C93.3784 205.36 116.649 240.051 121.139 252.558C125.63 265.051 128.632 312.837 128.042 333.145C127.439 353.44 121.045 375.771 121.045 375.771C121.045 375.771 94.3837 381.173 64.6258 371.897C64.6258 371.897 72.7489 335.92 76.6362 324.111C80.5235 312.301 82.1991 300.425 82.1991 300.425C82.1991 300.425 55.5644 215.293 55.6046 213.966C55.6448 212.639 56.1274 211.325 58.7949 210.521C61.4624 209.717 93.3784 205.36 93.3784 205.36Z" fill="#C6B5DD" stroke="#263238" stroke-miterlimit="10" stroke-linecap="round" stroke-linejoin="round"/>
<path d="M114.705 338.065L80.1884 335.303L79.7326 340.826L94.4508 342.662" fill="#C6B5DD"/>
<path d="M114.705 338.065L80.1884 335.303L79.7326 340.826L94.4508 342.662" stroke="#263238" stroke-miterlimit="10" stroke-linecap="round" stroke-linejoin="round"/>
<path d="M122.868 208.872C122.868 208.872 150.575 257.825 151.192 266.672C151.808 275.519 155.91 316.269 158.176 329.15C160.441 342.019 170.307 367.045 170.307 367.045C170.307 367.045 172.84 356.08 172.103 351.201C171.366 346.322 160.696 318.628 159.556 312.408C158.417 306.189 156.862 284.058 157.143 274.353C157.425 264.648 158.082 257.597 156.084 250.48C154.087 243.349 138.873 205.36 138.873 205.36L116.823 204.275L122.868 208.872Z" fill="#C6B5DD" stroke="#263238" stroke-miterlimit="10" stroke-linecap="round" stroke-linejoin="round"/>
<path d="M128.873 204.824L133.485 225.923L121.635 216.741L128.873 204.824Z" fill="white" stroke="#263238" stroke-miterlimit="10" stroke-linecap="round" stroke-linejoin="round"/>
<path d="M114.759 194.583L128.873 204.824L123.552 218.751L123.847 230.561L107.842 206.821L114.759 194.583Z" fill="white" stroke="#263238" stroke-miterlimit="10" stroke-linecap="round" stroke-linejoin="round"/>
<path d="M115.576 189.034C115.576 189.034 118.27 208.765 119.102 214.033C119.933 219.301 123.86 230.547 123.86 230.547C123.86 230.547 98.7 206.218 97.44 204.221C96.1933 202.224 91.8503 182.76 91.8503 182.76C91.8503 182.76 108.043 188.819 115.576 189.034Z" fill="white" stroke="#263238" stroke-miterlimit="10" stroke-linecap="round" stroke-linejoin="round"/>
<path d="M116.34 194.57C112.909 196.715 110.255 196.715 106.273 196.098C102.279 195.481 96.8636 191.755 93.2444 188.833C92.4401 185.415 91.8503 182.774 91.8503 182.774C91.8503 182.774 108.056 188.819 115.576 189.047C115.576 189.034 115.884 191.339 116.34 194.57Z" fill="#263238" stroke="#263238" stroke-miterlimit="10" stroke-linecap="round" stroke-linejoin="round"/>
<path d="M107.52 129.183L126.085 143.82C126.085 143.82 127.962 157.962 128.659 167.814C129.356 177.667 125.214 184.744 119.825 189.503C114.45 194.261 111.488 194.503 106.274 193.685C101.059 192.881 93.3784 186.755 90.5098 184.047C87.6413 181.339 82.3063 173.324 82.3063 173.324C82.3063 173.324 78.0169 174.181 76.7703 172.184C75.5237 170.187 75.2154 169.195 75.2154 169.195C75.2154 169.195 92.869 159.236 100.121 146.676C107.373 134.089 107.52 129.183 107.52 129.183Z" fill="white" stroke="#263238" stroke-miterlimit="10" stroke-linecap="round" stroke-linejoin="round"/>
<path d="M113.297 155.228C113.297 155.228 113.834 159.168 115.094 161.179C116.34 163.176 121.219 164.302 118.539 166.528C115.858 168.739 111.595 168.619 111.595 168.619" stroke="#263238" stroke-miterlimit="10" stroke-linecap="round" stroke-linejoin="round"/>
<path d="M118.686 172.426C118.686 172.426 108.727 176.715 102.346 170.964" stroke="#263238" stroke-miterlimit="10" stroke-linecap="round" stroke-linejoin="round"/>
<path d="M115.362 173.967C115.362 173.967 113.887 179.49 110.643 178.417C107.399 177.345 104.585 173.002 104.585 173.002C104.585 173.002 108.82 173.766 115.362 173.967Z" stroke="#263238" stroke-miterlimit="10" stroke-linecap="round" stroke-linejoin="round"/>
<path d="M100.778 157.801C100.737 159.249 101.354 160.442 102.172 160.469C102.989 160.495 103.673 159.343 103.727 157.895C103.767 156.447 103.15 155.254 102.333 155.228C101.515 155.201 100.818 156.367 100.778 157.801Z" fill="#263238"/>
<path d="M116.394 155.978C116.354 157.426 116.97 158.619 117.788 158.646C118.606 158.672 119.289 157.52 119.343 156.072C119.383 154.624 118.766 153.431 117.949 153.405C117.131 153.378 116.434 154.53 116.394 155.978Z" fill="#263238"/>
<path d="M121.648 149.906C121.648 149.906 118.15 146.193 114.115 150.013" stroke="#263238" stroke-miterlimit="10" stroke-linecap="round" stroke-linejoin="round"/>
<path d="M106.555 150.764C106.555 150.764 99.1021 147.922 95.9655 154.383" stroke="#263238" stroke-miterlimit="10" stroke-linecap="round" stroke-linejoin="round"/>
<path d="M110.684 210.521L123.847 230.561L104.504 220.159L110.684 210.521Z" fill="white" stroke="#263238" stroke-miterlimit="10" stroke-linecap="round" stroke-linejoin="round"/>
<path d="M88.593 193.149L110.684 210.521L104.249 228.671L83.0302 204.127L88.593 193.149Z" fill="white" stroke="#263238" stroke-miterlimit="10" stroke-linecap="round" stroke-linejoin="round"/>
<path d="M115.442 296.108C115.442 296.108 118.994 295.331 123.941 292.382C128.887 289.433 134.155 290.479 138.565 290.599C142.975 290.733 146.045 291.698 145.549 293.454C145.053 295.21 140.643 295.076 139.315 295.036C137.988 294.996 135.723 297.141 135.723 297.141L146.755 299.808C146.755 299.808 150.213 302.114 147.492 304.687C144.771 307.261 144.275 306.658 144.275 306.658C144.275 306.658 140.106 313.159 135.683 313.467C131.259 313.776 113.284 309.272 113.284 309.272L115.442 296.108Z" fill="white" stroke="#263238" stroke-miterlimit="10" stroke-linecap="round" stroke-linejoin="round"/>
<path d="M84.1829 245.44C83.6602 248.08 80.805 287.583 80.805 287.583L117.212 296.162L115.281 316.859C115.281 316.859 50.149 309.191 48.9426 305.183C47.7362 301.175 51.9854 231.955 51.6637 227.974C51.342 223.993 45.9936 210.588 61.8913 210.615" fill="#C6B5DD"/>
<path d="M84.1829 245.44C83.6602 248.08 80.805 287.583 80.805 287.583L117.212 296.162L115.281 316.859C115.281 316.859 50.149 309.191 48.9426 305.183C47.7362 301.175 51.9854 231.955 51.6637 227.974C51.342 223.993 45.9936 210.588 61.8913 210.615" stroke="#263238" stroke-miterlimit="10" stroke-linecap="round" stroke-linejoin="round"/>
<path d="M78.0973 238.845C78.0973 238.845 67.4408 225.145 55.7789 225.655L78.0973 238.845Z" fill="#C6B5DD"/>
<path d="M78.0973 238.845C78.0973 238.845 67.4408 225.145 55.7789 225.655" stroke="#263238" stroke-miterlimit="10" stroke-linecap="round" stroke-linejoin="round"/>
<path d="M78.0973 243.912C78.0973 243.912 68.9689 238.845 59.8404 238.845L78.0973 243.912Z" fill="#C6B5DD"/>
<path d="M78.0973 243.912C78.0973 243.912 68.9689 238.845 59.8404 238.845" stroke="#263238" stroke-miterlimit="10" stroke-linecap="round" stroke-linejoin="round"/>
</svg>
